<svg xmlns="http://www.w3.org/2000/svg" viewBox="0 0 1200 1800" font-family="'Didot', 'Bodoni MT', 'Playfair Display', Georgia, serif">
<!-- ═══════════════════════════════════════════════════════════════
     V1: THE OPTIMIZED NETWORK
     The definitive Metropolis poster. A monumental stepped tower
     (8 fractal tiers) rises to a radiating sunburst. The glowing
     core sphere pulses at the heart. 16 container nodes orbit as
     satellite stations. Two heroic operators at the base command
     the system through streamlined control panels.

     Palette: Obsidian (#06080e), Burnished Gold (#c9a227),
     Chrome (#a8b4c0), Sapphire (#1a3a6a), Ruby (#9b2335)

     10 Evolutions: layout→tower proportions→sunburst rays→
     core glow→network paths→chevron border→data integration→
     typography hierarchy→Sanskrit cartouches→final negative space
     ═══════════════════════════════════════════════════════════════ -->
<defs>
  <linearGradient id="n-bg" x1="0%" y1="0%" x2="0%" y2="100%">
    <stop offset="0%" stop-color="#0a1025"/><stop offset="40%" stop-color="#06080e"/>
    <stop offset="100%" stop-color="#030408"/>
  </linearGradient>
  <radialGradient id="n-core" cx="50%" cy="50%" r="50%">
    <stop offset="0%" stop-color="#c9a227" stop-opacity="0.9"/>
    <stop offset="40%" stop-color="#c9a227" stop-opacity="0.3"/>
    <stop offset="100%" stop-color="#c9a227" stop-opacity="0"/>
  </radialGradient>
  <radialGradient id="n-core-inner" cx="50%" cy="50%" r="50%">
    <stop offset="0%" stop-color="#ffffff" stop-opacity="0.8"/>
    <stop offset="30%" stop-color="#c9a227" stop-opacity="0.6"/>
    <stop offset="100%" stop-color="#9b2335" stop-opacity="0"/>
  </radialGradient>
  <linearGradient id="n-tower" x1="0%" y1="0%" x2="0%" y2="100%">
    <stop offset="0%" stop-color="#c9a227" stop-opacity="0.3"/>
    <stop offset="100%" stop-color="#c9a227" stop-opacity="0.05"/>
  </linearGradient>
  <filter id="n-glow"><feGaussianBlur stdDeviation="5" result="b"/>
    <feMerge><feMergeNode in="b"/><feMergeNode in="SourceGraphic"/></feMerge>
  </filter>
  <filter id="n-glow-sm"><feGaussianBlur stdDeviation="2.5" result="b"/>
    <feMerge><feMergeNode in="b"/><feMergeNode in="SourceGraphic"/></feMerge>
  </filter>
  <filter id="n-glow-lg"><feGaussianBlur stdDeviation="10" result="b"/>
    <feMerge><feMergeNode in="b"/><feMergeNode in="SourceGraphic"/></feMerge>
  </filter>
  <!-- Art Deco chevron pattern for border fill -->
  <pattern id="n-chevron" width="24" height="16" patternUnits="userSpaceOnUse">
    <path d="M0 16 L12 0 L24 16" fill="none" stroke="#c9a227" stroke-width="0.3" opacity="0.04"/>
  </pattern>
</defs>

<!-- ═══════ BACKGROUND ═══════ -->
<rect width="1200" height="1800" fill="url(#n-bg)"/>
<rect width="1200" height="1800" fill="url(#n-chevron)"/>

<!-- ═══════ ORNAMENTAL BORDER (triple frame with chevron corners) ═══════ -->
<rect x="24" y="24" width="1152" height="1752" fill="none" stroke="#c9a227" stroke-width="2" opacity="0.45"/>
<rect x="32" y="32" width="1136" height="1736" fill="none" stroke="#c9a227" stroke-width="0.6" opacity="0.25"/>
<rect x="40" y="40" width="1120" height="1720" fill="none" stroke="#c9a227" stroke-width="0.3" opacity="0.15"/>
<!-- Corner chevron ornaments -->
<g stroke="#c9a227" fill="none" opacity="0.4" stroke-width="1.2">
  <!-- Top-left -->
  <path d="M24 90 L90 24"/><path d="M24 110 L110 24"/><path d="M24 130 L130 24"/>
  <!-- Top-right -->
  <path d="M1176 90 L1110 24"/><path d="M1176 110 L1090 24"/><path d="M1176 130 L1070 24"/>
  <!-- Bottom-left -->
  <path d="M24 1710 L90 1776"/><path d="M24 1690 L110 1776"/><path d="M24 1670 L130 1776"/>
  <!-- Bottom-right -->
  <path d="M1176 1710 L1110 1776"/><path d="M1176 1690 L1090 1776"/><path d="M1176 1670 L1070 1776"/>
</g>
<!-- Horizontal Art Deco wave bands -->
<g stroke="#c9a227" fill="none" opacity="0.12" stroke-width="0.8">
  <path d="M60 50 Q90 42, 120 50 Q150 58, 180 50 Q210 42, 240 50 Q270 58, 300 50 Q330 42, 360 50 Q390 58, 420 50 Q450 42, 480 50 Q510 58, 540 50 Q570 42, 600 50 Q630 58, 660 50 Q690 42, 720 50 Q750 58, 780 50 Q810 42, 840 50 Q870 58, 900 50 Q930 42, 960 50 Q990 58, 1020 50 Q1050 42, 1080 50 Q1110 58, 1140 50"/>
  <path d="M60 1750 Q90 1742, 120 1750 Q150 1758, 180 1750 Q210 1742, 240 1750 Q270 1758, 300 1750 Q330 1742, 360 1750 Q390 1758, 420 1750 Q450 1742, 480 1750 Q510 1758, 540 1750 Q570 1742, 600 1750 Q630 1758, 660 1750 Q690 1742, 720 1750 Q750 1758, 780 1750 Q810 1742, 840 1750 Q870 1758, 900 1750 Q930 1742, 960 1750 Q990 1758, 1020 1750 Q1050 1742, 1080 1750 Q1110 1758, 1140 1750"/>
</g>

<!-- ═══════ TITLE CARTOUCHE ═══════ -->
<rect x="250" y="68" width="700" height="80" fill="#06080e" stroke="#c9a227" stroke-width="1.5" opacity="0.95"/>
<rect x="256" y="74" width="688" height="68" fill="none" stroke="#c9a227" stroke-width="0.4" opacity="0.3"/>
<!-- Deco diamond ornaments flanking title -->
<polygon points="270,108 280,98 290,108 280,118" fill="#c9a227" opacity="0.3"/>
<polygon points="930,108 920,98 910,108 920,118" fill="#c9a227" opacity="0.3"/>

<text x="600" y="102" text-anchor="middle" fill="#c9a227" font-size="42" font-weight="bold" letter-spacing="18" filter="url(#n-glow)">THE SYSTEM</text>
<text x="600" y="130" text-anchor="middle" fill="#a8b4c0" font-size="13" letter-spacing="10" font-weight="300">EFFICIENCY THROUGH GEOMETRY</text>

<!-- ═══════════════════════════════════════════════════ -->
<!-- THE SUNBURST (crowning the tower)                  -->
<!-- 24 rays emanating from the core position           -->
<!-- ═══════════════════════════════════════════════════ -->
<g transform="translate(600, 580)" opacity="0.2">
  <line x1="0" y1="0" x2="0" y2="-400" stroke="#c9a227" stroke-width="2.5"/>
  <line x1="0" y1="0" x2="104" y2="-386" stroke="#c9a227" stroke-width="2"/>
  <line x1="0" y1="0" x2="-104" y2="-386" stroke="#c9a227" stroke-width="2"/>
  <line x1="0" y1="0" x2="200" y2="-346" stroke="#c9a227" stroke-width="1.5"/>
  <line x1="0" y1="0" x2="-200" y2="-346" stroke="#c9a227" stroke-width="1.5"/>
  <line x1="0" y1="0" x2="283" y2="-283" stroke="#c9a227" stroke-width="1.2"/>
  <line x1="0" y1="0" x2="-283" y2="-283" stroke="#c9a227" stroke-width="1.2"/>
  <line x1="0" y1="0" x2="346" y2="-200" stroke="#c9a227" stroke-width="1"/>
  <line x1="0" y1="0" x2="-346" y2="-200" stroke="#c9a227" stroke-width="1"/>
  <line x1="0" y1="0" x2="386" y2="-104" stroke="#c9a227" stroke-width="0.8"/>
  <line x1="0" y1="0" x2="-386" y2="-104" stroke="#c9a227" stroke-width="0.8"/>
  <line x1="0" y1="0" x2="400" y2="0" stroke="#c9a227" stroke-width="0.5"/>
  <line x1="0" y1="0" x2="-400" y2="0" stroke="#c9a227" stroke-width="0.5"/>
  <!-- Intermediate rays -->
  <line x1="0" y1="0" x2="52" y2="-397" stroke="#c9a227" stroke-width="1"/>
  <line x1="0" y1="0" x2="-52" y2="-397" stroke="#c9a227" stroke-width="1"/>
  <line x1="0" y1="0" x2="153" y2="-370" stroke="#c9a227" stroke-width="0.8"/>
  <line x1="0" y1="0" x2="-153" y2="-370" stroke="#c9a227" stroke-width="0.8"/>
  <line x1="0" y1="0" x2="244" y2="-318" stroke="#c9a227" stroke-width="0.6"/>
  <line x1="0" y1="0" x2="-244" y2="-318" stroke="#c9a227" stroke-width="0.6"/>
  <line x1="0" y1="0" x2="318" y2="-244" stroke="#c9a227" stroke-width="0.5"/>
  <line x1="0" y1="0" x2="-318" y2="-244" stroke="#c9a227" stroke-width="0.5"/>
  <line x1="0" y1="0" x2="370" y2="-153" stroke="#c9a227" stroke-width="0.4"/>
  <line x1="0" y1="0" x2="-370" y2="-153" stroke="#c9a227" stroke-width="0.4"/>
</g>

<!-- ═══════════════════════════════════════════════════ -->
<!-- THE STEPPED TOWER (8 tiers = 8 fractal layers)     -->
<!-- L7 base (widest) → L0 apex (narrowest)             -->
<!-- Center at x=600, tiers stack upward                -->
<!-- ═══════════════════════════════════════════════════ -->

<!-- L7 FEDERATION — Base platform -->
<rect x="140" y="1040" width="920" height="70" fill="url(#n-tower)" stroke="#c9a227" stroke-width="1" opacity="0.6"/>
<rect x="145" y="1045" width="910" height="60" fill="none" stroke="#c9a227" stroke-width="0.3" opacity="0.2"/>
<text x="170" y="1078" fill="#c9a227" font-size="11" letter-spacing="4" font-weight="bold">L7 FEDERATION</text>
<text x="170" y="1094" fill="#a8b4c0" font-size="8" font-family="Inter, sans-serif" opacity="0.6">Gateway | Version vectors | HA election | Zero-downtime | SIL-6 sync</text>
<text x="1040" y="1082" fill="#c9a227" font-size="9" text-anchor="end" font-family="'Noto Sans Devanagari', serif" opacity="0.5">सहस्रार</text>

<!-- L6 ECOSYSTEM -->
<rect x="185" y="960" width="830" height="70" fill="url(#n-tower)" stroke="#9b2335" stroke-width="1" opacity="0.5"/>
<text x="210" y="998" fill="#9b2335" font-size="11" letter-spacing="4" font-weight="bold">L6 ECOSYSTEM</text>
<text x="210" y="1014" fill="#a8b4c0" font-size="8" font-family="Inter, sans-serif" opacity="0.6">Zenoh mesh | 4 routers (TCP 7447) | Quorum governance | A2A messaging</text>
<text x="995" y="1002" fill="#9b2335" font-size="9" text-anchor="end" font-family="'Noto Sans Devanagari', serif" opacity="0.5">बिन्दु</text>

<!-- L5 COGNITIVE -->
<rect x="230" y="880" width="740" height="70" fill="url(#n-tower)" stroke="#1a6a6a" stroke-width="1" opacity="0.55"/>
<text x="255" y="918" fill="#2a9d8f" font-size="11" letter-spacing="4" font-weight="bold">L5 COGNITIVE</text>
<text x="255" y="934" fill="#a8b4c0" font-size="8" font-family="Inter, sans-serif" opacity="0.6">OODA supervisor | 6-tier hedged inference | 52 GRL rules | Cortex 9,104 LOC</text>
<text x="950" y="922" fill="#2a9d8f" font-size="9" text-anchor="end" font-family="'Noto Sans Devanagari', serif" opacity="0.5">आज्ञा</text>

<!-- L4 SYSTEM -->
<rect x="275" y="800" width="650" height="70" fill="url(#n-tower)" stroke="#6a3a8a" stroke-width="1" opacity="0.5"/>
<text x="300" y="838" fill="#8a5cb8" font-size="11" letter-spacing="4" font-weight="bold">L4 SYSTEM</text>
<text x="300" y="854" fill="#a8b4c0" font-size="8" font-family="Inter, sans-serif" opacity="0.6">16-container genome | 7-tier boot DAG | CPU governor | Apoptosis</text>
<text x="905" y="842" fill="#8a5cb8" font-size="9" text-anchor="end" font-family="'Noto Sans Devanagari', serif" opacity="0.5">विशुद्ध</text>

<!-- L3 TRANSACTION -->
<rect x="320" y="720" width="560" height="70" fill="url(#n-tower)" stroke="#1a3a6a" stroke-width="1" opacity="0.5"/>
<text x="345" y="758" fill="#4d7fff" font-size="11" letter-spacing="4" font-weight="bold">L3 TRANSACTION</text>
<text x="345" y="774" fill="#a8b4c0" font-size="8" font-family="Inter, sans-serif" opacity="0.6">SQLite/DuckDB | Smriti 2,609 holons | FTS5 RAG | PipelineTracer</text>
<text x="860" y="762" fill="#4d7fff" font-size="9" text-anchor="end" font-family="'Noto Sans Devanagari', serif" opacity="0.5">अनाहत</text>

<!-- L2 COMPONENT -->
<rect x="365" y="640" width="470" height="70" fill="url(#n-tower)" stroke="#2a5a2a" stroke-width="1" opacity="0.5"/>
<text x="390" y="678" fill="#4caf6a" font-size="11" letter-spacing="4" font-weight="bold">L2 COMPONENT</text>
<text x="390" y="694" fill="#a8b4c0" font-size="8" font-family="Inter, sans-serif" opacity="0.6">233 A2UI types | 22 domains | Isomorphic HTML+JSON+ANSI</text>
<text x="815" y="682" fill="#4caf6a" font-size="9" text-anchor="end" font-family="'Noto Sans Devanagari', serif" opacity="0.5">मणिपूर</text>

<!-- L1 ATOMIC -->
<rect x="410" y="560" width="380" height="70" fill="url(#n-tower)" stroke="#c9a227" stroke-width="1" opacity="0.55"/>
<text x="435" y="598" fill="#c9a227" font-size="11" letter-spacing="4" font-weight="bold">L1 ATOMIC</text>
<text x="435" y="614" fill="#a8b4c0" font-size="8" font-family="Inter, sans-serif" opacity="0.6">125 NIF functions | 10 Rust packages | OTel spans</text>
<text x="770" y="602" fill="#c9a227" font-size="9" text-anchor="end" font-family="'Noto Sans Devanagari', serif" opacity="0.5">स्वाधिष्ठान</text>

<!-- L0 CONSTITUTIONAL — The Apex -->
<rect x="460" y="460" width="280" height="90" fill="none" stroke="#c9a227" stroke-width="2.5" opacity="0.7" filter="url(#n-glow)"/>
<rect x="466" y="466" width="268" height="78" fill="#c9a227" opacity="0.06"/>
<rect x="472" y="472" width="256" height="66" fill="none" stroke="#c9a227" stroke-width="0.5" opacity="0.3"/>
<text x="600" y="498" text-anchor="middle" fill="#c9a227" font-size="14" font-weight="bold" letter-spacing="6" filter="url(#n-glow)">L0 CONSTITUTIONAL</text>
<text x="600" y="516" text-anchor="middle" fill="#a8b4c0" font-size="8" font-family="Inter, sans-serif">Guardian | Psi-0..5 | 2oo3 voting | Emergency stop</text>
<text x="600" y="532" text-anchor="middle" fill="#c9a227" font-size="9" font-family="'Noto Sans Devanagari', serif" opacity="0.6">मूलाधार — Severity: INFINITE</text>

<!-- ═══════ THE APEX CAPSTONE (pyramid above L0) ═══════ -->
<polygon points="600,340 480,460 720,460" fill="none" stroke="#c9a227" stroke-width="2" opacity="0.5" filter="url(#n-glow-sm)"/>
<polygon points="600,370 500,450 700,450" fill="none" stroke="#c9a227" stroke-width="0.8" opacity="0.25"/>
<polygon points="600,395 520,440 680,440" fill="none" stroke="#c9a227" stroke-width="0.4" opacity="0.15"/>

<!-- ═══════ THE CORE (Glowing sphere in the capstone) ═══════ -->
<circle cx="600" cy="420" r="35" fill="url(#n-core)" filter="url(#n-glow-lg)"/>
<circle cx="600" cy="420" r="20" fill="url(#n-core-inner)" filter="url(#n-glow)"/>
<circle cx="600" cy="420" r="8" fill="#ffffff" opacity="0.8"/>
<!-- Geometric facets around core -->
<circle cx="600" cy="420" r="28" fill="none" stroke="#c9a227" stroke-width="1" opacity="0.4"/>
<polygon points="600,388 628,406 618,438 582,438 572,406" fill="none" stroke="#c9a227" stroke-width="0.8" opacity="0.3"/>

<!-- ═══════ NETWORK CONNECTIONS (from core to satellite nodes) ═══════ -->
<!-- Lines from core outward to container nodes -->
<g stroke="#c9a227" stroke-width="0.8" opacity="0.15">
  <!-- Left radiations -->
  <line x1="572" y1="420" x2="100" y2="600"/>
  <line x1="572" y1="420" x2="80" y2="750"/>
  <line x1="572" y1="420" x2="90" y2="900"/>
  <line x1="572" y1="420" x2="100" y2="1050"/>
  <!-- Right radiations -->
  <line x1="628" y1="420" x2="1100" y2="600"/>
  <line x1="628" y1="420" x2="1120" y2="750"/>
  <line x1="628" y1="420" x2="1110" y2="900"/>
  <line x1="628" y1="420" x2="1100" y2="1050"/>
</g>
<!-- Ruby accent lightning bolts on key paths -->
<g stroke="#9b2335" stroke-width="1" opacity="0.2" fill="none">
  <path d="M572 420 L450 480 L470 500 L350 560"/>
  <path d="M628 420 L750 480 L730 500 L850 560"/>
</g>

<!-- ═══════ SATELLITE NODES (16 containers, flanking the tower) ═══════ -->
<!-- Left side nodes -->
<g font-family="Inter, sans-serif" font-size="7">
  <!-- Left column -->
  <g transform="translate(95, 600)">
    <rect x="-40" y="-12" width="80" height="24" rx="3" fill="#1a3a6a" opacity="0.3" stroke="#4d7fff" stroke-width="0.8"/>
    <text x="0" y="4" text-anchor="middle" fill="#4d7fff">db-prod</text>
  </g>
  <g transform="translate(78, 700)">
    <rect x="-40" y="-12" width="80" height="24" rx="3" fill="#1a3a6a" opacity="0.3" stroke="#c9a227" stroke-width="0.8"/>
    <text x="0" y="4" text-anchor="middle" fill="#c9a227">obs-prod</text>
  </g>
  <g transform="translate(85, 800)">
    <rect x="-40" y="-12" width="80" height="24" rx="3" fill="#1a3a6a" opacity="0.3" stroke="#2a9d8f" stroke-width="0.8"/>
    <text x="0" y="4" text-anchor="middle" fill="#2a9d8f">ex-app-1</text>
  </g>
  <g transform="translate(92, 900)">
    <rect x="-45" y="-12" width="90" height="24" rx="3" fill="#1a3a6a" opacity="0.3" stroke="#8a5cb8" stroke-width="0.8"/>
    <text x="0" y="4" text-anchor="middle" fill="#8a5cb8">cepaf-bridge</text>
  </g>
  <g transform="translate(95, 1000)">
    <rect x="-40" y="-12" width="80" height="24" rx="3" fill="#1a3a6a" opacity="0.3" stroke="#2a9d8f" stroke-width="0.8" filter="url(#n-glow-sm)"/>
    <text x="0" y="4" text-anchor="middle" fill="#2a9d8f" font-weight="bold">cortex</text>
  </g>
  <g transform="translate(95, 1060)">
    <rect x="-40" y="-12" width="80" height="24" rx="3" fill="#1a3a6a" opacity="0.3" stroke="#9b2335" stroke-width="0.8"/>
    <text x="0" y="4" text-anchor="middle" fill="#9b2335">zenoh-0</text>
  </g>
  <g transform="translate(85, 1090)">
    <rect x="-35" y="-8" width="70" height="16" rx="2" fill="#1a3a6a" opacity="0.2" stroke="#9b2335" stroke-width="0.5"/>
    <text x="0" y="2" text-anchor="middle" fill="#9b2335" font-size="6">zenoh-1</text>
  </g>
  <g transform="translate(85, 1110)">
    <rect x="-35" y="-8" width="70" height="16" rx="2" fill="#1a3a6a" opacity="0.2" stroke="#9b2335" stroke-width="0.5"/>
    <text x="0" y="2" text-anchor="middle" fill="#9b2335" font-size="6">zenoh-2</text>
  </g>

  <!-- Right column -->
  <g transform="translate(1105, 600)">
    <rect x="-35" y="-8" width="70" height="16" rx="2" fill="#1a3a6a" opacity="0.2" stroke="#9b2335" stroke-width="0.5"/>
    <text x="0" y="2" text-anchor="middle" fill="#9b2335" font-size="6">zenoh-3</text>
  </g>
  <g transform="translate(1120, 700)">
    <rect x="-40" y="-12" width="80" height="24" rx="3" fill="#1a3a6a" opacity="0.3" stroke="#c9a227" stroke-width="0.8"/>
    <text x="0" y="4" text-anchor="middle" fill="#c9a227">ollama</text>
  </g>
  <g transform="translate(1110, 800)">
    <rect x="-40" y="-12" width="80" height="24" rx="3" fill="#1a3a6a" opacity="0.3" stroke="#c9a227" stroke-width="0.8"/>
    <text x="0" y="4" text-anchor="middle" fill="#c9a227">mojo</text>
  </g>
  <g transform="translate(1105, 900)">
    <rect x="-40" y="-12" width="80" height="24" rx="3" fill="#1a3a6a" opacity="0.3" stroke="#2a9d8f" stroke-width="0.8"/>
    <text x="0" y="4" text-anchor="middle" fill="#2a9d8f">ex-app-2</text>
  </g>
  <g transform="translate(1100, 1000)">
    <rect x="-40" y="-12" width="80" height="24" rx="3" fill="#1a3a6a" opacity="0.3" stroke="#2a9d8f" stroke-width="0.8"/>
    <text x="0" y="4" text-anchor="middle" fill="#2a9d8f">ex-app-3</text>
  </g>
  <g transform="translate(1100, 1060)">
    <rect x="-35" y="-12" width="70" height="24" rx="3" fill="#1a3a6a" opacity="0.3" stroke="#4caf6a" stroke-width="0.8"/>
    <text x="0" y="4" text-anchor="middle" fill="#4caf6a">chaya</text>
  </g>
  <g transform="translate(1100, 1090)">
    <rect x="-35" y="-8" width="70" height="16" rx="2" fill="#1a3a6a" opacity="0.2" stroke="#8a5cb8" stroke-width="0.5"/>
    <text x="0" y="2" text-anchor="middle" fill="#8a5cb8" font-size="6">ml-runner-1</text>
  </g>
  <g transform="translate(1100, 1110)">
    <rect x="-35" y="-8" width="70" height="16" rx="2" fill="#1a3a6a" opacity="0.2" stroke="#8a5cb8" stroke-width="0.5"/>
    <text x="0" y="2" text-anchor="middle" fill="#8a5cb8" font-size="6">ml-runner-2</text>
  </g>
</g>

<!-- ═══════ HEROIC OPERATORS AT BASE ═══════ -->
<!-- Stylized Art Deco figures at control panels -->
<g transform="translate(300, 1130)" opacity="0.35">
  <!-- Left operator (simplified geometric figure) -->
  <circle cx="0" cy="-25" r="8" fill="none" stroke="#a8b4c0" stroke-width="1.5"/>
  <line x1="0" y1="-17" x2="0" y2="10" stroke="#a8b4c0" stroke-width="1.5"/>
  <line x1="0" y1="-5" x2="-15" y2="5" stroke="#a8b4c0" stroke-width="1"/>
  <line x1="0" y1="-5" x2="15" y2="-15" stroke="#a8b4c0" stroke-width="1"/>
  <line x1="0" y1="10" x2="-8" y2="25" stroke="#a8b4c0" stroke-width="1"/>
  <line x1="0" y1="10" x2="8" y2="25" stroke="#a8b4c0" stroke-width="1"/>
  <!-- Control panel -->
  <rect x="10" y="-20" width="50" height="15" rx="2" fill="none" stroke="#c9a227" stroke-width="1"/>
  <circle cx="22" cy="-12" r="2" fill="#c9a227"/><circle cx="32" cy="-12" r="2" fill="#9b2335"/>
  <circle cx="42" cy="-12" r="2" fill="#2a9d8f"/><circle cx="52" cy="-12" r="2" fill="#c9a227"/>
</g>
<g transform="translate(900, 1130)" opacity="0.35">
  <!-- Right operator -->
  <circle cx="0" cy="-25" r="8" fill="none" stroke="#a8b4c0" stroke-width="1.5"/>
  <line x1="0" y1="-17" x2="0" y2="10" stroke="#a8b4c0" stroke-width="1.5"/>
  <line x1="0" y1="-5" x2="15" y2="5" stroke="#a8b4c0" stroke-width="1"/>
  <line x1="0" y1="-5" x2="-15" y2="-15" stroke="#a8b4c0" stroke-width="1"/>
  <line x1="0" y1="10" x2="-8" y2="25" stroke="#a8b4c0" stroke-width="1"/>
  <line x1="0" y1="10" x2="8" y2="25" stroke="#a8b4c0" stroke-width="1"/>
  <!-- Control panel -->
  <rect x="-60" y="-20" width="50" height="15" rx="2" fill="none" stroke="#c9a227" stroke-width="1"/>
  <circle cx="-48" cy="-12" r="2" fill="#2a9d8f"/><circle cx="-38" cy="-12" r="2" fill="#c9a227"/>
  <circle cx="-28" cy="-12" r="2" fill="#9b2335"/><circle cx="-18" cy="-12" r="2" fill="#c9a227"/>
</g>

<!-- ═══════ METRICS PANEL ═══════ -->
<rect x="140" y="1170" width="920" height="75" fill="none" stroke="#c9a227" stroke-width="1" opacity="0.3"/>
<g font-family="Inter, sans-serif" text-anchor="middle">
  <text x="230" y="1205" fill="#c9a227" font-size="32" font-weight="bold" font-family="serif">5,436</text>
  <text x="230" y="1228" fill="#a8b4c0" font-size="8" letter-spacing="3">TESTS</text>
  <text x="416" y="1205" fill="#a8b4c0" font-size="32" font-weight="bold" font-family="serif">336</text>
  <text x="416" y="1228" fill="#a8b4c0" font-size="8" letter-spacing="3">MODULES</text>
  <text x="600" y="1205" fill="#c9a227" font-size="32" font-weight="bold" font-family="serif">125</text>
  <text x="600" y="1228" fill="#a8b4c0" font-size="8" letter-spacing="3">NIF FUNCTIONS</text>
  <text x="784" y="1205" fill="#9b2335" font-size="32" font-weight="bold" font-family="serif">2,609</text>
  <text x="784" y="1228" fill="#a8b4c0" font-size="8" letter-spacing="3">HOLONS</text>
  <text x="970" y="1205" fill="#2a9d8f" font-size="32" font-weight="bold" font-family="serif">73</text>
  <text x="970" y="1228" fill="#a8b4c0" font-size="8" letter-spacing="3">MCP TOOLS</text>
</g>

<!-- ═══════ BIOMORPHIC TENSOR (compact Art Deco panel) ═══════ -->
<g transform="translate(140, 1260)">
  <rect x="0" y="0" width="920" height="55" fill="none" stroke="#c9a227" stroke-width="0.8" opacity="0.25"/>
  <text x="460" y="18" text-anchor="middle" fill="#c9a227" font-size="10" letter-spacing="6">7 PROPERTIES OF LIFE</text>
  <g font-family="Inter, sans-serif" font-size="8" fill="#a8b4c0" opacity="0.6">
    <circle cx="60" cy="38" r="4" fill="#2a9d8f" opacity="0.5"/><text x="72" y="41">Homeostasis</text>
    <circle cx="190" cy="38" r="4" fill="#2a9d8f" opacity="0.5"/><text x="202" y="41">Metabolism</text>
    <circle cx="310" cy="38" r="4" fill="#2a9d8f" opacity="0.5"/><text x="322" y="41">Growth</text>
    <circle cx="400" cy="38" r="4" fill="#9b2335" opacity="0.3"/><text x="412" y="41">Reproduction</text>
    <circle cx="530" cy="38" r="4" fill="#2a9d8f" opacity="0.5"/><text x="542" y="41">Response</text>
    <circle cx="630" cy="38" r="4" fill="#2a9d8f" opacity="0.5"/><text x="642" y="41">Adaptation</text>
    <circle cx="740" cy="38" r="4" fill="#2a9d8f" opacity="0.5"/><text x="752" y="41">Evolution</text>
    <text x="860" y="41" fill="#c9a227" font-weight="bold">47/56 = 83.9%</text>
  </g>
</g>

<!-- ═══════ EVOLUTION TIMELINE (Stepped Art Deco progression) ═══════ -->
<g transform="translate(140, 1340)">
  <line x1="0" y1="0" x2="920" y2="0" stroke="#c9a227" stroke-width="0.5" opacity="0.2"/>
  <text x="460" y="18" text-anchor="middle" fill="#c9a227" font-size="10" letter-spacing="6">THE EVOLUTIONARY PATH</text>

  <!-- 5 stepped blocks ascending left to right -->
  <rect x="0" y="30" width="160" height="50" fill="none" stroke="#a8b4c0" stroke-width="0.8" opacity="0.25"/>
  <text x="80" y="52" text-anchor="middle" fill="#a8b4c0" font-size="12" font-family="serif">Genesis</text>
  <text x="80" y="68" text-anchor="middle" fill="#a8b4c0" font-size="7" font-family="Inter, sans-serif" opacity="0.5">Mar 29 | Empty void</text>

  <rect x="180" y="25" width="170" height="55" fill="none" stroke="#4d7fff" stroke-width="0.8" opacity="0.3"/>
  <text x="265" y="49" text-anchor="middle" fill="#4d7fff" font-size="12" font-family="serif">CORTEX</text>
  <text x="265" y="65" text-anchor="middle" fill="#a8b4c0" font-size="7" font-family="Inter, sans-serif" opacity="0.5">v22.4.0 | 25 commands</text>

  <rect x="370" y="20" width="170" height="60" fill="none" stroke="#c9a227" stroke-width="0.8" opacity="0.35"/>
  <text x="455" y="46" text-anchor="middle" fill="#c9a227" font-size="12" font-family="serif">CORTEX+</text>
  <text x="455" y="62" text-anchor="middle" fill="#a8b4c0" font-size="7" font-family="Inter, sans-serif" opacity="0.5">v22.5.0 | 8,000 LOC Rust</text>

  <rect x="560" y="15" width="170" height="65" fill="none" stroke="#9b2335" stroke-width="0.8" opacity="0.35"/>
  <text x="645" y="43" text-anchor="middle" fill="#9b2335" font-size="12" font-family="serif">DHARMA</text>
  <text x="645" y="59" text-anchor="middle" fill="#a8b4c0" font-size="7" font-family="Inter, sans-serif" opacity="0.5">v22.6.0 | Truth rule</text>

  <rect x="750" y="8" width="170" height="72" fill="none" stroke="#c9a227" stroke-width="1.5" opacity="0.55" filter="url(#n-glow-sm)"/>
  <text x="835" y="38" text-anchor="middle" fill="#c9a227" font-size="14" font-family="serif" font-weight="bold">DHARMA+</text>
  <text x="835" y="55" text-anchor="middle" fill="#c9a227" font-size="8" font-family="Inter, sans-serif" opacity="0.6">v22.6.1 | Self-aware</text>
  <text x="835" y="68" text-anchor="middle" fill="#a8b4c0" font-size="7" font-family="Inter, sans-serif" opacity="0.4">5,436 tests | 125 NIFs | 2,609 holons</text>
</g>

<!-- ═══════ BOTTOM TAGLINE ═══════ -->
<line x1="200" y1="1460" x2="1000" y2="1460" stroke="#c9a227" stroke-width="1" opacity="0.2"/>
<text x="600" y="1490" text-anchor="middle" fill="#c9a227" font-size="16" letter-spacing="10" font-weight="bold">INTEGRATED. OPTIMIZED. CONNECTED.</text>
<line x1="200" y1="1502" x2="1000" y2="1502" stroke="#c9a227" stroke-width="1" opacity="0.2"/>

<!-- ═══════ PENTA-STACK DIAGRAM (small inset) ═══════ -->
<g transform="translate(140, 1520)" font-family="Inter, sans-serif" font-size="8">
  <text x="460" y="0" text-anchor="middle" fill="#c9a227" font-size="9" letter-spacing="4">PENTA-STACK ARCHITECTURE</text>
  <g fill="#a8b4c0" opacity="0.6">
    <rect x="0" y="12" width="160" height="18" rx="2" fill="none" stroke="#c9a227" stroke-width="0.5" opacity="0.3"/>
    <text x="80" y="25" text-anchor="middle">Lustre WebUI :4100</text>
    <rect x="185" y="12" width="160" height="18" rx="2" fill="none" stroke="#c9a227" stroke-width="0.5" opacity="0.3"/>
    <text x="265" y="25" text-anchor="middle">Wisp REST :4100</text>
    <rect x="370" y="12" width="160" height="18" rx="2" fill="none" stroke="#c9a227" stroke-width="0.5" opacity="0.3"/>
    <text x="450" y="25" text-anchor="middle">TUI Terminal</text>
    <rect x="555" y="12" width="175" height="18" rx="2" fill="none" stroke="#a8b4c0" stroke-width="0.5" opacity="0.2"/>
    <text x="642" y="25" text-anchor="middle" opacity="0.4">Phoenix :4000</text>
    <rect x="755" y="12" width="165" height="18" rx="2" fill="none" stroke="#a8b4c0" stroke-width="0.5" opacity="0.2"/>
    <text x="838" y="25" text-anchor="middle" opacity="0.4">F# Prajna CLI</text>
  </g>
</g>

<!-- ═══════ OODA CYCLE (small Art Deco inset, bottom left) ═══════ -->
<g transform="translate(250, 1600)">
  <text x="0" y="0" fill="#c9a227" font-size="9" letter-spacing="4">OODA CYCLE</text>
  <circle cx="50" cy="35" r="25" fill="none" stroke="#c9a227" stroke-width="1" opacity="0.3"/>
  <path d="M50 10 A25 25 0 0 1 75 35" fill="none" stroke="#2a9d8f" stroke-width="2.5" opacity="0.5"/>
  <path d="M75 35 A25 25 0 0 1 50 60" fill="none" stroke="#4d7fff" stroke-width="2.5" opacity="0.5"/>
  <path d="M50 60 A25 25 0 0 1 25 35" fill="none" stroke="#c9a227" stroke-width="2.5" opacity="0.5"/>
  <path d="M25 35 A25 25 0 0 1 50 10" fill="none" stroke="#4caf6a" stroke-width="2.5" opacity="0.5"/>
  <circle cx="50" cy="35" r="4" fill="#c9a227" opacity="0.5"/>
  <text x="50" y="4" text-anchor="middle" fill="#2a9d8f" font-size="6" font-family="Inter, sans-serif">OBS</text>
  <text x="84" y="38" fill="#4d7fff" font-size="6" font-family="Inter, sans-serif">ORI</text>
  <text x="50" y="76" text-anchor="middle" fill="#c9a227" font-size="6" font-family="Inter, sans-serif">DEC</text>
  <text x="16" y="38" fill="#4caf6a" font-size="6" font-family="Inter, sans-serif" text-anchor="end">ACT</text>
  <text x="110" y="25" fill="#a8b4c0" font-size="7" font-family="Inter, sans-serif" opacity="0.5">&lt; 30ms observe</text>
  <text x="110" y="38" fill="#a8b4c0" font-size="7" font-family="Inter, sans-serif" opacity="0.5">&lt; 100ms orient</text>
  <text x="110" y="51" fill="#a8b4c0" font-size="7" font-family="Inter, sans-serif" opacity="0.5">52 GRL rules</text>
</g>

<!-- ═══════ INFERENCE CASCADE (small inset, bottom right) ═══════ -->
<g transform="translate(700, 1600)" font-family="Inter, sans-serif" font-size="7">
  <text x="0" y="0" fill="#c9a227" font-size="9" letter-spacing="4" font-family="serif">6-TIER INFERENCE</text>
  <g fill="#a8b4c0" opacity="0.6">
    <text x="0" y="18">T1 Gemini Flash <tspan fill="#2a9d8f">~900ms</tspan></text>
    <text x="0" y="30">T2 OpenRouter <tspan fill="#4d7fff">~1.1s</tspan></text>
    <text x="0" y="42">T3 Ollama gemma4 <tspan fill="#c9a227">~4s</tspan></text>
    <text x="0" y="54">T4 Ollama gemma3 <tspan fill="#c9a227">~10s</tspan></text>
    <text x="0" y="66">T5 RETE-UL rules <tspan fill="#9b2335">&lt;1ms</tspan></text>
    <text x="0" y="78">T6 Static ack <tspan fill="#4caf6a">&lt;1ms</tspan></text>
  </g>
  <text x="200" y="18" fill="#a8b4c0" opacity="0.4">Hedged parallel</text>
  <text x="200" y="30" fill="#a8b4c0" opacity="0.4">T1+T2 race</text>
  <text x="200" y="42" fill="#a8b4c0" opacity="0.4">4 circuit breakers</text>
  <text x="200" y="54" fill="#a8b4c0" opacity="0.4">No-blackhole guarantee</text>
</g>

<!-- ═══════ BOTTOM VERSE ═══════ -->
<line x1="200" y1="1698" x2="1000" y2="1698" stroke="#c9a227" stroke-width="0.5" opacity="0.2"/>
<text x="600" y="1722" text-anchor="middle" fill="#c9a227" font-size="16" font-family="'Noto Sans Devanagari', serif" letter-spacing="2">
  यदा यदा हि धर्मस्य ग्लानिर्भवति भारत
</text>
<text x="600" y="1745" text-anchor="middle" fill="#a8b4c0" font-size="11" font-style="italic" font-weight="300" font-family="Inter, sans-serif">
  Whenever dharma declines, I manifest Myself — the system self-corrects
</text>
<text x="600" y="1762" text-anchor="middle" fill="#a8b4c0" font-size="9" font-family="Inter, sans-serif" opacity="0.4">Bhagavad Gita 4.7</text>

<!-- Signature -->
<text x="600" y="1788" text-anchor="middle" fill="#c9a227" font-size="8" font-family="Inter, sans-serif" letter-spacing="4" opacity="0.25">C3I INDRAJAAL v22.6.1-DHARMA | APRIL 2026</text>
</svg>