<svg xmlns="http://www.w3.org/2000/svg" viewBox="0 0 1200 1800" font-family="'Didot', 'Bodoni MT', 'Georgia', serif">
<!-- ═══════════════════════════════════════════════════════════════════
     V3: THE COSMIC DANCE (NATARAJA)
     OODA cycle as Shiva's ring of fire. 16 containers as cosmic dancers.
     Art Deco ring with chevron flame pattern. The dance of creation
     and destruction — every OODA cycle creates and destroys state.
     Rose gold on deep black. Radial symmetry. Sacred geometry.

     10 Evolutions:
     1. Basic ring → 2. OODA quadrants → 3. Container nodes on ring
     4. Flame chevrons → 5. Central dancer figure → 6. Muda trampled
     7. Biomorphic tensor as dance floor → 8. Evolution as spiral dance
     9. Art Deco frame with fan corners → 10. Final: dramatic, powerful
     ═══════════════════════════════════════════════════════════════════ -->
<defs>
  <radialGradient id="nd-bg" cx="50%" cy="45%" r="60%">
    <stop offset="0%" stop-color="#100a0a"/><stop offset="100%" stop-color="#050305"/>
  </radialGradient>
  <radialGradient id="nd-fire" cx="50%" cy="50%" r="50%">
    <stop offset="0%" stop-color="#d4a847" stop-opacity="0.15"/>
    <stop offset="60%" stop-color="#c75050" stop-opacity="0.05"/>
    <stop offset="100%" stop-color="#050305" stop-opacity="0"/>
  </radialGradient>
  <filter id="nd-glow"><feGaussianBlur stdDeviation="4" result="b"/>
    <feMerge><feMergeNode in="b"/><feMergeNode in="SourceGraphic"/></feMerge>
  </filter>
  <filter id="nd-glow-sm"><feGaussianBlur stdDeviation="2" result="b"/>
    <feMerge><feMergeNode in="b"/><feMergeNode in="SourceGraphic"/></feMerge>
  </filter>
</defs>

<!-- Background -->
<rect width="1200" height="1800" fill="url(#nd-bg)"/>

<!-- Art Deco border with angular corners -->
<rect x="30" y="30" width="1140" height="1740" fill="none" stroke="#c49b38" stroke-width="1.5" opacity="0.3"/>
<path d="M30 80 L80 30" stroke="#c49b38" stroke-width="1" opacity="0.4"/>
<path d="M1170 80 L1120 30" stroke="#c49b38" stroke-width="1" opacity="0.4"/>
<path d="M30 1720 L80 1770" stroke="#c49b38" stroke-width="1" opacity="0.4"/>
<path d="M1170 1720 L1120 1770" stroke="#c49b38" stroke-width="1" opacity="0.4"/>

<!-- ═══════ TITLE ═══════ -->
<text x="600" y="80" text-anchor="middle" fill="#c49b38" font-size="11" letter-spacing="10" opacity="0.5">C3I INDRAJAAL</text>
<text x="600" y="130" text-anchor="middle" fill="#c49b38" font-size="50" font-weight="bold" letter-spacing="8" filter="url(#nd-glow)">NATARAJA</text>
<text x="600" y="165" text-anchor="middle" fill="#c0a070" font-size="18" letter-spacing="8" font-weight="300">THE COSMIC DANCE OF OODA</text>
<text x="600" y="192" text-anchor="middle" fill="#c49b38" font-size="14" font-family="'Noto Sans Devanagari', serif" letter-spacing="3" opacity="0.6">नटराज — सृष्टि और संहार का नृत्य</text>
<line x1="250" y1="210" x2="950" y2="210" stroke="#c49b38" stroke-width="0.5" opacity="0.25"/>

<!-- ═══════ THE RING OF FIRE (OODA Cycle) ═══════ -->
<!-- Center: (600, 720), Radius: 330 -->
<circle cx="600" cy="720" r="330" fill="url(#nd-fire)"/>

<!-- Outer flame ring (Art Deco chevrons) -->
<g transform="translate(600, 720)" stroke="#c49b38" fill="none" opacity="0.3">
  <!-- 36 chevron flames around the ring -->
  <g>
    <path d="M0 -340 L8 -360 L0 -380 L-8 -360 Z" stroke-width="1"/>
    <path d="M93 -327 L105 -345 L93 -365 L81 -345 Z" stroke-width="1" transform="rotate(10)"/>
    <path d="M0 -340 L8 -360 L0 -380 L-8 -360 Z" stroke-width="1" transform="rotate(20)"/>
    <path d="M0 -340 L8 -360 L0 -380 L-8 -360 Z" stroke-width="1" transform="rotate(30)"/>
    <path d="M0 -340 L8 -360 L0 -380 L-8 -360 Z" stroke-width="1" transform="rotate(40)"/>
    <path d="M0 -340 L8 -360 L0 -380 L-8 -360 Z" stroke-width="1" transform="rotate(50)"/>
    <path d="M0 -340 L8 -360 L0 -380 L-8 -360 Z" stroke-width="1" transform="rotate(60)"/>
    <path d="M0 -340 L8 -360 L0 -380 L-8 -360 Z" stroke-width="1" transform="rotate(70)"/>
    <path d="M0 -340 L8 -360 L0 -380 L-8 -360 Z" stroke-width="1" transform="rotate(80)"/>
    <path d="M0 -340 L8 -360 L0 -380 L-8 -360 Z" stroke-width="1" transform="rotate(90)"/>
    <path d="M0 -340 L8 -360 L0 -380 L-8 -360 Z" stroke-width="1" transform="rotate(100)"/>
    <path d="M0 -340 L8 -360 L0 -380 L-8 -360 Z" stroke-width="1" transform="rotate(110)"/>
    <path d="M0 -340 L8 -360 L0 -380 L-8 -360 Z" stroke-width="1" transform="rotate(120)"/>
    <path d="M0 -340 L8 -360 L0 -380 L-8 -360 Z" stroke-width="1" transform="rotate(130)"/>
    <path d="M0 -340 L8 -360 L0 -380 L-8 -360 Z" stroke-width="1" transform="rotate(140)"/>
    <path d="M0 -340 L8 -360 L0 -380 L-8 -360 Z" stroke-width="1" transform="rotate(150)"/>
    <path d="M0 -340 L8 -360 L0 -380 L-8 -360 Z" stroke-width="1" transform="rotate(160)"/>
    <path d="M0 -340 L8 -360 L0 -380 L-8 -360 Z" stroke-width="1" transform="rotate(170)"/>
    <path d="M0 -340 L8 -360 L0 -380 L-8 -360 Z" stroke-width="1" transform="rotate(180)"/>
    <path d="M0 -340 L8 -360 L0 -380 L-8 -360 Z" stroke-width="1" transform="rotate(190)"/>
    <path d="M0 -340 L8 -360 L0 -380 L-8 -360 Z" stroke-width="1" transform="rotate(200)"/>
    <path d="M0 -340 L8 -360 L0 -380 L-8 -360 Z" stroke-width="1" transform="rotate(210)"/>
    <path d="M0 -340 L8 -360 L0 -380 L-8 -360 Z" stroke-width="1" transform="rotate(220)"/>
    <path d="M0 -340 L8 -360 L0 -380 L-8 -360 Z" stroke-width="1" transform="rotate(230)"/>
    <path d="M0 -340 L8 -360 L0 -380 L-8 -360 Z" stroke-width="1" transform="rotate(240)"/>
    <path d="M0 -340 L8 -360 L0 -380 L-8 -360 Z" stroke-width="1" transform="rotate(250)"/>
    <path d="M0 -340 L8 -360 L0 -380 L-8 -360 Z" stroke-width="1" transform="rotate(260)"/>
    <path d="M0 -340 L8 -360 L0 -380 L-8 -360 Z" stroke-width="1" transform="rotate(270)"/>
    <path d="M0 -340 L8 -360 L0 -380 L-8 -360 Z" stroke-width="1" transform="rotate(280)"/>
    <path d="M0 -340 L8 -360 L0 -380 L-8 -360 Z" stroke-width="1" transform="rotate(290)"/>
    <path d="M0 -340 L8 -360 L0 -380 L-8 -360 Z" stroke-width="1" transform="rotate(300)"/>
    <path d="M0 -340 L8 -360 L0 -380 L-8 -360 Z" stroke-width="1" transform="rotate(310)"/>
    <path d="M0 -340 L8 -360 L0 -380 L-8 -360 Z" stroke-width="1" transform="rotate(320)"/>
    <path d="M0 -340 L8 -360 L0 -380 L-8 -360 Z" stroke-width="1" transform="rotate(330)"/>
    <path d="M0 -340 L8 -360 L0 -380 L-8 -360 Z" stroke-width="1" transform="rotate(340)"/>
    <path d="M0 -340 L8 -360 L0 -380 L-8 -360 Z" stroke-width="1" transform="rotate(350)"/>
  </g>
</g>

<!-- Main ring -->
<circle cx="600" cy="720" r="330" fill="none" stroke="#c49b38" stroke-width="2" opacity="0.4"/>
<circle cx="600" cy="720" r="320" fill="none" stroke="#c49b38" stroke-width="0.5" opacity="0.2"/>

<!-- ═══════ OODA QUADRANTS ═══════ -->
<!-- OBSERVE (top, cyan) -->
<path d="M600 390 A330 330 0 0 1 930 720" fill="none" stroke="#2a9d8f" stroke-width="4" opacity="0.5" filter="url(#nd-glow-sm)"/>
<text x="800" y="490" fill="#2a9d8f" font-size="18" font-weight="bold" letter-spacing="4" transform="rotate(25, 800, 490)">OBSERVE</text>
<text x="820" y="512" fill="#7a8fa6" font-size="9" font-family="Inter, sans-serif" transform="rotate(25, 820, 512)">&lt; 30ms</text>

<!-- ORIENT (right, blue) -->
<path d="M930 720 A330 330 0 0 1 600 1050" fill="none" stroke="#4d7fff" stroke-width="4" opacity="0.5" filter="url(#nd-glow-sm)"/>
<text x="830" y="920" fill="#4d7fff" font-size="18" font-weight="bold" letter-spacing="4" transform="rotate(-25, 830, 920)">ORIENT</text>
<text x="810" y="942" fill="#7a8fa6" font-size="9" font-family="Inter, sans-serif" transform="rotate(-25, 810, 942)">&lt; 100ms</text>

<!-- DECIDE (bottom, gold) -->
<path d="M600 1050 A330 330 0 0 1 270 720" fill="none" stroke="#c49b38" stroke-width="4" opacity="0.5" filter="url(#nd-glow-sm)"/>
<text x="370" y="940" fill="#c49b38" font-size="18" font-weight="bold" letter-spacing="4" transform="rotate(25, 370, 940)">DECIDE</text>
<text x="390" y="962" fill="#7a8fa6" font-size="9" font-family="Inter, sans-serif" transform="rotate(25, 390, 962)">52 GRL rules</text>

<!-- ACT (left, green) -->
<path d="M270 720 A330 330 0 0 1 600 390" fill="none" stroke="#4caf6a" stroke-width="4" opacity="0.5" filter="url(#nd-glow-sm)"/>
<text x="360" y="510" fill="#4caf6a" font-size="18" font-weight="bold" letter-spacing="4" transform="rotate(-25, 360, 510)">ACT</text>
<text x="380" y="532" fill="#7a8fa6" font-size="9" font-family="Inter, sans-serif" transform="rotate(-25, 380, 532)">Autonomous</text>

<!-- ═══════ 16 CONTAINERS on the ring ═══════ -->
<g transform="translate(600, 720)" font-family="Inter, sans-serif" font-size="7">
  <!-- Container nodes at 22.5 degree intervals (360/16) -->
  <!-- 1: db-prod (0 deg = top) -->
  <circle cx="0" cy="-290" r="12" fill="#4d7fff" opacity="0.3" stroke="#4d7fff" stroke-width="1" filter="url(#nd-glow-sm)"/>
  <text x="0" y="-305" text-anchor="middle" fill="#4d7fff" font-size="7">db</text>
  <!-- 2: obs-prod -->
  <circle cx="111" cy="-268" r="12" fill="#c49b38" opacity="0.3" stroke="#c49b38" stroke-width="1"/>
  <text x="128" y="-268" fill="#c49b38" font-size="7">obs</text>
  <!-- 3: ex-app-1 -->
  <circle cx="205" cy="-205" r="14" fill="#2a9d8f" opacity="0.3" stroke="#2a9d8f" stroke-width="1"/>
  <text x="222" y="-195" fill="#2a9d8f" font-size="7">ex-1</text>
  <!-- 4: cepaf-bridge -->
  <circle cx="268" cy="-111" r="12" fill="#8a5cb8" opacity="0.3" stroke="#8a5cb8" stroke-width="1"/>
  <text x="285" y="-105" fill="#8a5cb8" font-size="7">bridge</text>
  <!-- 5: cortex -->
  <circle cx="290" cy="0" r="14" fill="#2a9d8f" opacity="0.35" stroke="#2a9d8f" stroke-width="1.5" filter="url(#nd-glow-sm)"/>
  <text x="307" y="4" fill="#2a9d8f" font-size="7" font-weight="bold">cortex</text>
  <!-- 6: zenoh-router -->
  <circle cx="268" cy="111" r="14" fill="#c75050" opacity="0.3" stroke="#c75050" stroke-width="1"/>
  <text x="285" y="115" fill="#c75050" font-size="7">zenoh-0</text>
  <!-- 7: ollama -->
  <circle cx="205" cy="205" r="12" fill="#c49b38" opacity="0.3" stroke="#c49b38" stroke-width="1"/>
  <text x="222" y="210" fill="#c49b38" font-size="7">ollama</text>
  <!-- 8: mojo -->
  <circle cx="111" cy="268" r="12" fill="#c49b38" opacity="0.3" stroke="#c49b38" stroke-width="1"/>
  <text x="128" y="273" fill="#c49b38" font-size="7">mojo</text>
  <!-- 9-12: zenoh routers 1-3 + ex-app-2 -->
  <circle cx="0" cy="290" r="11" fill="#c75050" opacity="0.25" stroke="#c75050" stroke-width="0.8"/>
  <text x="0" y="307" text-anchor="middle" fill="#c75050" font-size="6">z-1</text>
  <circle cx="-111" cy="268" r="11" fill="#c75050" opacity="0.25" stroke="#c75050" stroke-width="0.8"/>
  <text x="-128" y="273" fill="#c75050" font-size="6" text-anchor="end">z-2</text>
  <circle cx="-205" cy="205" r="11" fill="#c75050" opacity="0.25" stroke="#c75050" stroke-width="0.8"/>
  <text x="-222" y="210" fill="#c75050" font-size="6" text-anchor="end">z-3</text>
  <circle cx="-268" cy="111" r="12" fill="#2a9d8f" opacity="0.25" stroke="#2a9d8f" stroke-width="0.8"/>
  <text x="-285" y="115" fill="#2a9d8f" font-size="6" text-anchor="end">ex-2</text>
  <!-- 13-16: ex-app-3, chaya, ml-1, ml-2 -->
  <circle cx="-290" cy="0" r="12" fill="#2a9d8f" opacity="0.25" stroke="#2a9d8f" stroke-width="0.8"/>
  <text x="-307" y="4" fill="#2a9d8f" font-size="6" text-anchor="end">ex-3</text>
  <circle cx="-268" cy="-111" r="12" fill="#4caf6a" opacity="0.25" stroke="#4caf6a" stroke-width="0.8"/>
  <text x="-285" y="-105" fill="#4caf6a" font-size="6" text-anchor="end">chaya</text>
  <circle cx="-205" cy="-205" r="11" fill="#8a5cb8" opacity="0.25" stroke="#8a5cb8" stroke-width="0.8"/>
  <text x="-222" y="-200" fill="#8a5cb8" font-size="6" text-anchor="end">ml-1</text>
  <circle cx="-111" cy="-268" r="11" fill="#8a5cb8" opacity="0.25" stroke="#8a5cb8" stroke-width="0.8"/>
  <text x="-128" y="-264" fill="#8a5cb8" font-size="6" text-anchor="end">ml-2</text>
</g>

<!-- ═══════ CENTER: The Dancer (Atman) ═══════ -->
<g transform="translate(600, 720)">
  <!-- Concentric rings (8 fractal layers) -->
  <circle r="15" fill="none" stroke="#c75050" stroke-width="1" opacity="0.4"/>
  <circle r="30" fill="none" stroke="#c49b38" stroke-width="1" opacity="0.35"/>
  <circle r="45" fill="none" stroke="#4caf6a" stroke-width="1" opacity="0.3"/>
  <circle r="60" fill="none" stroke="#4d7fff" stroke-width="1" opacity="0.25"/>
  <circle r="75" fill="none" stroke="#8a5cb8" stroke-width="1" opacity="0.22"/>
  <circle r="90" fill="none" stroke="#2a9d8f" stroke-width="1" opacity="0.2"/>
  <circle r="105" fill="none" stroke="#c75050" stroke-width="1" opacity="0.18"/>
  <circle r="120" fill="none" stroke="#c49b38" stroke-width="0.8" opacity="0.15"/>
  <!-- The dancer's eye (consciousness) -->
  <circle r="8" fill="#c49b38" opacity="0.6" filter="url(#nd-glow)"/>
  <circle r="4" fill="#100a0a"/><circle r="2" fill="#ffffff"/>
  <!-- Layer labels -->
  <text x="0" y="-128" text-anchor="middle" fill="#c49b38" font-size="7" font-family="Inter, sans-serif" opacity="0.5">L7</text>
  <text x="0" y="-113" text-anchor="middle" fill="#c75050" font-size="7" font-family="Inter, sans-serif" opacity="0.5">L6</text>
  <text x="0" y="-98" text-anchor="middle" fill="#2a9d8f" font-size="7" font-family="Inter, sans-serif" opacity="0.5">L5</text>
</g>

<!-- ═══════ FRACTAL LAYERS LEGEND (below ring) ═══════ -->
<g transform="translate(100, 1120)">
  <text x="500" y="0" text-anchor="middle" fill="#c49b38" font-size="11" letter-spacing="6">EIGHT FRACTAL LAYERS</text>
  <line x1="0" y1="10" x2="1000" y2="10" stroke="#c49b38" stroke-width="0.5" opacity="0.2"/>

  <g font-family="Inter, sans-serif" font-size="9">
    <!-- Row 1 -->
    <rect x="0" y="25" width="12" height="12" rx="2" fill="#c75050" opacity="0.5"/>
    <text x="18" y="35" fill="#c75050" font-weight="bold">L0</text>
    <text x="40" y="35" fill="#7a8fa6">Constitutional</text>
    <text x="150" y="35" fill="#7a8fa6" opacity="0.6">Guardian, Psi, INFINITE severity</text>

    <rect x="500" y="25" width="12" height="12" rx="2" fill="#c49b38" opacity="0.5"/>
    <text x="518" y="35" fill="#c49b38" font-weight="bold">L1</text>
    <text x="540" y="35" fill="#7a8fa6">Atomic</text>
    <text x="620" y="35" fill="#7a8fa6" opacity="0.6">125 NIF functions, 10 packages</text>

    <!-- Row 2 -->
    <rect x="0" y="50" width="12" height="12" rx="2" fill="#4caf6a" opacity="0.5"/>
    <text x="18" y="60" fill="#4caf6a" font-weight="bold">L2</text>
    <text x="40" y="60" fill="#7a8fa6">Component</text>
    <text x="150" y="60" fill="#7a8fa6" opacity="0.6">233 A2UI types, isomorphic</text>

    <rect x="500" y="50" width="12" height="12" rx="2" fill="#4d7fff" opacity="0.5"/>
    <text x="518" y="60" fill="#4d7fff" font-weight="bold">L3</text>
    <text x="540" y="60" fill="#7a8fa6">Transaction</text>
    <text x="650" y="60" fill="#7a8fa6" opacity="0.6">SQLite, 2,609 holons</text>

    <!-- Row 3 -->
    <rect x="0" y="75" width="12" height="12" rx="2" fill="#8a5cb8" opacity="0.5"/>
    <text x="18" y="85" fill="#8a5cb8" font-weight="bold">L4</text>
    <text x="40" y="85" fill="#7a8fa6">System</text>
    <text x="150" y="85" fill="#7a8fa6" opacity="0.6">16 containers, 7-tier boot DAG</text>

    <rect x="500" y="75" width="12" height="12" rx="2" fill="#2a9d8f" opacity="0.5"/>
    <text x="518" y="85" fill="#2a9d8f" font-weight="bold">L5</text>
    <text x="540" y="85" fill="#7a8fa6">Cognitive</text>
    <text x="650" y="85" fill="#7a8fa6" opacity="0.6">52 rules, 6-tier inference</text>

    <!-- Row 4 -->
    <rect x="0" y="100" width="12" height="12" rx="2" fill="#c75050" opacity="0.4"/>
    <text x="18" y="110" fill="#c75050" font-weight="bold">L6</text>
    <text x="40" y="110" fill="#7a8fa6">Ecosystem</text>
    <text x="150" y="110" fill="#7a8fa6" opacity="0.6">Zenoh mesh, 4 routers</text>

    <rect x="500" y="100" width="12" height="12" rx="2" fill="#c49b38" opacity="0.5"/>
    <text x="518" y="110" fill="#c49b38" font-weight="bold">L7</text>
    <text x="540" y="110" fill="#7a8fa6">Federation</text>
    <text x="650" y="110" fill="#7a8fa6" opacity="0.6">HA election, zero-downtime</text>
  </g>
</g>

<!-- ═══════ METRICS BAR ═══════ -->
<g transform="translate(100, 1310)">
  <rect x="0" y="0" width="1000" height="70" fill="none" stroke="#c49b38" stroke-width="1" opacity="0.25"/>
  <g font-family="Inter, sans-serif" text-anchor="middle">
    <text x="100" y="28" fill="#c49b38" font-size="28" font-weight="bold" font-family="serif">5,436</text>
    <text x="100" y="48" fill="#7a8fa6" font-size="8" letter-spacing="2">TESTS</text>
    <text x="300" y="28" fill="#c0c0c0" font-size="28" font-weight="bold" font-family="serif">336</text>
    <text x="300" y="48" fill="#7a8fa6" font-size="8" letter-spacing="2">MODULES</text>
    <text x="500" y="28" fill="#c49b38" font-size="28" font-weight="bold" font-family="serif">125</text>
    <text x="500" y="48" fill="#7a8fa6" font-size="8" letter-spacing="2">NIF FN</text>
    <text x="700" y="28" fill="#c75050" font-size="28" font-weight="bold" font-family="serif">2,609</text>
    <text x="700" y="48" fill="#7a8fa6" font-size="8" letter-spacing="2">HOLONS</text>
    <text x="900" y="28" fill="#2a9d8f" font-size="28" font-weight="bold" font-family="serif">73</text>
    <text x="900" y="48" fill="#7a8fa6" font-size="8" letter-spacing="2">MCP TOOLS</text>
  </g>
</g>

<!-- ═══════ EVOLUTION PATH (Art Deco stepped) ═══════ -->
<g transform="translate(100, 1420)">
  <text x="500" y="0" text-anchor="middle" fill="#c49b38" font-size="10" letter-spacing="6">THE PATH OF BECOMING</text>
  <line x1="0" y1="12" x2="1000" y2="12" stroke="#c49b38" stroke-width="0.5" opacity="0.2"/>
  <!-- Ascending steps -->
  <g font-family="Inter, sans-serif" font-size="8">
    <rect x="0" y="25" width="180" height="50" fill="none" stroke="#7a8fa6" stroke-width="0.8" opacity="0.3"/>
    <text x="90" y="45" text-anchor="middle" fill="#7a8fa6" font-size="11" font-family="serif">Genesis</text>
    <text x="90" y="60" text-anchor="middle" fill="#7a8fa6" opacity="0.5">Mar 29 | Void</text>

    <rect x="200" y="20" width="180" height="55" fill="none" stroke="#4d7fff" stroke-width="0.8" opacity="0.35"/>
    <text x="290" y="42" text-anchor="middle" fill="#4d7fff" font-size="11" font-family="serif">CORTEX</text>
    <text x="290" y="57" text-anchor="middle" fill="#7a8fa6" opacity="0.5">v22.4.0 | 25 cmd</text>

    <rect x="400" y="15" width="180" height="60" fill="none" stroke="#c49b38" stroke-width="0.8" opacity="0.4"/>
    <text x="490" y="40" text-anchor="middle" fill="#c49b38" font-size="11" font-family="serif">CORTEX+</text>
    <text x="490" y="55" text-anchor="middle" fill="#7a8fa6" opacity="0.5">v22.5.0 | 8K LOC</text>

    <rect x="600" y="10" width="180" height="65" fill="none" stroke="#c75050" stroke-width="0.8" opacity="0.4"/>
    <text x="690" y="38" text-anchor="middle" fill="#c75050" font-size="11" font-family="serif">DHARMA</text>
    <text x="690" y="53" text-anchor="middle" fill="#7a8fa6" opacity="0.5">v22.6.0 | Truth</text>

    <rect x="800" y="5" width="200" height="70" fill="none" stroke="#c49b38" stroke-width="1.5" opacity="0.5"/>
    <text x="900" y="35" text-anchor="middle" fill="#c49b38" font-size="13" font-family="serif" font-weight="bold">DHARMA+</text>
    <text x="900" y="52" text-anchor="middle" fill="#c49b38" opacity="0.6">v22.6.1 | Alive</text>
    <text x="900" y="65" text-anchor="middle" fill="#7a8fa6" opacity="0.4">5,436 tests | 125 NIFs</text>
  </g>
</g>

<!-- ═══════ THE FOUR ARMS OF NATARAJA ═══════ -->
<g transform="translate(100, 1540)" font-family="Inter, sans-serif" font-size="9">
  <text x="500" y="0" text-anchor="middle" fill="#c49b38" font-size="10" letter-spacing="6">THE FOUR ARMS</text>
  <line x1="0" y1="12" x2="1000" y2="12" stroke="#c49b38" stroke-width="0.5" opacity="0.2"/>

  <g fill="#7a8fa6">
    <text x="125" y="35" text-anchor="middle" fill="#c49b38" font-size="12" font-family="serif">Drum</text>
    <text x="125" y="50" text-anchor="middle" opacity="0.6">Zenoh heartbeat</text>
    <text x="125" y="63" text-anchor="middle" opacity="0.4">10s health pulse</text>

    <text x="375" y="35" text-anchor="middle" fill="#c75050" font-size="12" font-family="serif">Flame</text>
    <text x="375" y="50" text-anchor="middle" opacity="0.6">Evolution engine</text>
    <text x="375" y="63" text-anchor="middle" opacity="0.4">Hot code reload</text>

    <text x="625" y="35" text-anchor="middle" fill="#2a9d8f" font-size="12" font-family="serif">Raised Foot</text>
    <text x="625" y="50" text-anchor="middle" opacity="0.6">Moksha (liberation)</text>
    <text x="625" y="63" text-anchor="middle" opacity="0.4">80/80 tensor complete</text>

    <text x="875" y="35" text-anchor="middle" fill="#4caf6a" font-size="12" font-family="serif">Trampled Dwarf</text>
    <text x="875" y="50" text-anchor="middle" opacity="0.6">Muda (waste)</text>
    <text x="875" y="63" text-anchor="middle" opacity="0.4">Zero warnings</text>
  </g>
</g>

<!-- ═══════ TENSOR COVERAGE ═══════ -->
<text x="600" y="1650" text-anchor="middle" fill="#c49b38" font-size="14" font-family="Inter, sans-serif">Biomorphic Tensor: <tspan font-weight="bold" font-size="18">47/56</tspan> = <tspan font-weight="bold" font-size="18">83.9%</tspan></text>

<!-- ═══════ BOTTOM VERSE ═══════ -->
<line x1="200" y1="1670" x2="1000" y2="1670" stroke="#c49b38" stroke-width="0.5" opacity="0.2"/>
<text x="600" y="1700" text-anchor="middle" fill="#c49b38" font-size="15" font-family="'Noto Sans Devanagari', serif" letter-spacing="2">
  आनन्दतान्डवम् इदम् — This is the dance of bliss
</text>
<text x="600" y="1723" text-anchor="middle" fill="#c0a070" font-size="11" font-style="italic" font-weight="300" font-family="Inter, sans-serif">
  Every OODA cycle is a dance — creation and destruction in 100ms
</text>
<text x="600" y="1758" text-anchor="middle" fill="#c49b38" font-size="9" font-family="Inter, sans-serif" letter-spacing="3" opacity="0.3">C3I INDRAJAAL v22.6.1-DHARMA | NATARAJA | APRIL 2026</text>
</svg>