<svg xmlns="http://www.w3.org/2000/svg" viewBox="0 0 1200 1800" font-family="'Didot', 'Bodoni MT', 'Playfair Display', Georgia, serif">
<!-- ═══════════════════════════════════════════════════════════════
     V4: THE COSMIC MACHINE
     The system as an Art Deco precision clockwork mechanism.
     8 concentric gear rings = fractal layers. Central escapement =
     OODA heartbeat. 16 ruby jewel bearings = containers.
     The machine runs on time itself — every cycle creates truth.

     Palette: Obsidian, Burnished Gold, Chrome, Sapphire, Ruby
     ═══════════════════════════════════════════════════════════════ -->
<defs>
  <radialGradient id="cm-bg" cx="50%" cy="42%" r="55%">
    <stop offset="0%" stop-color="#0d1020"/><stop offset="100%" stop-color="#040610"/>
  </radialGradient>
  <radialGradient id="cm-glow" cx="50%" cy="50%" r="50%">
    <stop offset="0%" stop-color="#c9a227" stop-opacity="0.2"/>
    <stop offset="100%" stop-color="#c9a227" stop-opacity="0"/>
  </radialGradient>
  <filter id="cm-gl"><feGaussianBlur stdDeviation="4" result="b"/>
    <feMerge><feMergeNode in="b"/><feMergeNode in="SourceGraphic"/></feMerge>
  </filter>
  <filter id="cm-gl-sm"><feGaussianBlur stdDeviation="2" result="b"/>
    <feMerge><feMergeNode in="b"/><feMergeNode in="SourceGraphic"/></feMerge>
  </filter>
</defs>

<rect width="1200" height="1800" fill="url(#cm-bg)"/>

<!-- Art Deco triple border -->
<rect x="24" y="24" width="1152" height="1752" fill="none" stroke="#c9a227" stroke-width="2" opacity="0.4"/>
<rect x="32" y="32" width="1136" height="1736" fill="none" stroke="#c9a227" stroke-width="0.5" opacity="0.2"/>
<!-- Corner gears (decorative) -->
<g stroke="#c9a227" fill="none" opacity="0.15" stroke-width="0.8">
  <circle cx="50" cy="50" r="18"/><circle cx="50" cy="50" r="12"/>
  <circle cx="1150" cy="50" r="18"/><circle cx="1150" cy="50" r="12"/>
  <circle cx="50" cy="1750" r="18"/><circle cx="50" cy="1750" r="12"/>
  <circle cx="1150" cy="1750" r="18"/><circle cx="1150" cy="1750" r="12"/>
</g>

<!-- ═══════ TITLE ═══════ -->
<text x="600" y="80" text-anchor="middle" fill="#c9a227" font-size="11" letter-spacing="10" opacity="0.5">C3I INDRAJAAL PRESENTS</text>
<line x1="250" y1="90" x2="950" y2="90" stroke="#c9a227" stroke-width="0.5" opacity="0.2"/>
<text x="600" y="135" text-anchor="middle" fill="#c9a227" font-size="52" font-weight="bold" letter-spacing="10" filter="url(#cm-gl)">THE MACHINE</text>
<text x="600" y="168" text-anchor="middle" fill="#a8b4c0" font-size="16" letter-spacing="10" font-weight="300">PRECISION THROUGH FRACTAL ORDER</text>
<text x="600" y="195" text-anchor="middle" fill="#c9a227" font-size="13" font-family="'Noto Sans Devanagari', serif" letter-spacing="3" opacity="0.5">यन्त्र — भग्नात्मक सटीकता</text>
<line x1="250" y1="210" x2="950" y2="210" stroke="#c9a227" stroke-width="0.5" opacity="0.2"/>

<!-- ═══════ THE GREAT MECHANISM (center: 600, 680) ═══════ -->
<!-- Central glow field -->
<circle cx="600" cy="680" r="380" fill="url(#cm-glow)"/>

<!-- 8 CONCENTRIC GEAR RINGS (L7 outer → L0 inner) -->
<!-- Each ring has subtle gear teeth and the layer color -->

<!-- L7 Federation (outermost, r=370) -->
<circle cx="600" cy="680" r="370" fill="none" stroke="#c9a227" stroke-width="1.5" opacity="0.25"/>
<!-- Gear teeth (every 15 degrees = 24 teeth) -->
<g transform="translate(600,680)" stroke="#c9a227" stroke-width="0.8" opacity="0.15">
  <line x1="0" y1="-370" x2="0" y2="-382" transform="rotate(0)"/>
  <line x1="0" y1="-370" x2="0" y2="-382" transform="rotate(15)"/>
  <line x1="0" y1="-370" x2="0" y2="-382" transform="rotate(30)"/>
  <line x1="0" y1="-370" x2="0" y2="-382" transform="rotate(45)"/>
  <line x1="0" y1="-370" x2="0" y2="-382" transform="rotate(60)"/>
  <line x1="0" y1="-370" x2="0" y2="-382" transform="rotate(75)"/>
  <line x1="0" y1="-370" x2="0" y2="-382" transform="rotate(90)"/>
  <line x1="0" y1="-370" x2="0" y2="-382" transform="rotate(105)"/>
  <line x1="0" y1="-370" x2="0" y2="-382" transform="rotate(120)"/>
  <line x1="0" y1="-370" x2="0" y2="-382" transform="rotate(135)"/>
  <line x1="0" y1="-370" x2="0" y2="-382" transform="rotate(150)"/>
  <line x1="0" y1="-370" x2="0" y2="-382" transform="rotate(165)"/>
  <line x1="0" y1="-370" x2="0" y2="-382" transform="rotate(180)"/>
  <line x1="0" y1="-370" x2="0" y2="-382" transform="rotate(195)"/>
  <line x1="0" y1="-370" x2="0" y2="-382" transform="rotate(210)"/>
  <line x1="0" y1="-370" x2="0" y2="-382" transform="rotate(225)"/>
  <line x1="0" y1="-370" x2="0" y2="-382" transform="rotate(240)"/>
  <line x1="0" y1="-370" x2="0" y2="-382" transform="rotate(255)"/>
  <line x1="0" y1="-370" x2="0" y2="-382" transform="rotate(270)"/>
  <line x1="0" y1="-370" x2="0" y2="-382" transform="rotate(285)"/>
  <line x1="0" y1="-370" x2="0" y2="-382" transform="rotate(300)"/>
  <line x1="0" y1="-370" x2="0" y2="-382" transform="rotate(315)"/>
  <line x1="0" y1="-370" x2="0" y2="-382" transform="rotate(330)"/>
  <line x1="0" y1="-370" x2="0" y2="-382" transform="rotate(345)"/>
</g>

<!-- L6 Ecosystem (r=320) -->
<circle cx="600" cy="680" r="320" fill="none" stroke="#9b2335" stroke-width="1.2" opacity="0.25"/>
<!-- L5 Cognitive (r=270) -->
<circle cx="600" cy="680" r="270" fill="none" stroke="#2a9d8f" stroke-width="1.2" opacity="0.3"/>
<!-- L4 System (r=225) -->
<circle cx="600" cy="680" r="225" fill="none" stroke="#8a5cb8" stroke-width="1" opacity="0.25"/>
<!-- L3 Transaction (r=185) -->
<circle cx="600" cy="680" r="185" fill="none" stroke="#4d7fff" stroke-width="1" opacity="0.25"/>
<!-- L2 Component (r=145) -->
<circle cx="600" cy="680" r="145" fill="none" stroke="#4caf6a" stroke-width="1" opacity="0.25"/>
<!-- L1 Atomic (r=110) -->
<circle cx="600" cy="680" r="110" fill="none" stroke="#c9a227" stroke-width="1" opacity="0.3"/>
<!-- L0 Constitutional (r=70) — glowing center gear -->
<circle cx="600" cy="680" r="70" fill="none" stroke="#c9a227" stroke-width="2" opacity="0.5" filter="url(#cm-gl)"/>
<circle cx="600" cy="680" r="60" fill="none" stroke="#c9a227" stroke-width="0.8" opacity="0.25"/>
<!-- Inner teeth on L0 gear -->
<g transform="translate(600,680)" stroke="#c9a227" stroke-width="1" opacity="0.2">
  <line x1="0" y1="-70" x2="0" y2="-78" transform="rotate(0)"/>
  <line x1="0" y1="-70" x2="0" y2="-78" transform="rotate(30)"/>
  <line x1="0" y1="-70" x2="0" y2="-78" transform="rotate(60)"/>
  <line x1="0" y1="-70" x2="0" y2="-78" transform="rotate(90)"/>
  <line x1="0" y1="-70" x2="0" y2="-78" transform="rotate(120)"/>
  <line x1="0" y1="-70" x2="0" y2="-78" transform="rotate(150)"/>
  <line x1="0" y1="-70" x2="0" y2="-78" transform="rotate(180)"/>
  <line x1="0" y1="-70" x2="0" y2="-78" transform="rotate(210)"/>
  <line x1="0" y1="-70" x2="0" y2="-78" transform="rotate(240)"/>
  <line x1="0" y1="-70" x2="0" y2="-78" transform="rotate(270)"/>
  <line x1="0" y1="-70" x2="0" y2="-78" transform="rotate(300)"/>
  <line x1="0" y1="-70" x2="0" y2="-78" transform="rotate(330)"/>
</g>

<!-- OODA Quadrants on L0 gear -->
<g transform="translate(600,680)">
  <path d="M0 -50 A50 50 0 0 1 50 0" fill="none" stroke="#2a9d8f" stroke-width="3" opacity="0.5"/>
  <path d="M50 0 A50 50 0 0 1 0 50" fill="none" stroke="#4d7fff" stroke-width="3" opacity="0.5"/>
  <path d="M0 50 A50 50 0 0 1 -50 0" fill="none" stroke="#c9a227" stroke-width="3" opacity="0.5"/>
  <path d="M-50 0 A50 50 0 0 1 0 -50" fill="none" stroke="#4caf6a" stroke-width="3" opacity="0.5"/>
  <text x="0" y="-38" text-anchor="middle" fill="#2a9d8f" font-size="7" font-family="Inter, sans-serif" font-weight="bold">OBS</text>
  <text x="38" y="4" fill="#4d7fff" font-size="7" font-family="Inter, sans-serif" font-weight="bold">ORI</text>
  <text x="0" y="44" text-anchor="middle" fill="#c9a227" font-size="7" font-family="Inter, sans-serif" font-weight="bold">DEC</text>
  <text x="-38" y="4" fill="#4caf6a" font-size="7" font-family="Inter, sans-serif" text-anchor="end" font-weight="bold">ACT</text>
</g>

<!-- Central escapement (the heartbeat) -->
<circle cx="600" cy="680" r="15" fill="#c9a227" opacity="0.4" filter="url(#cm-gl)"/>
<circle cx="600" cy="680" r="8" fill="#040610"/>
<circle cx="600" cy="680" r="3" fill="#ffffff" opacity="0.9"/>

<!-- ═══════ 16 RUBY JEWEL BEARINGS (containers on the rings) ═══════ -->
<g transform="translate(600,680)" font-family="Inter, sans-serif" font-size="6">
  <!-- Placed at various radii and angles -->
  <!-- db-prod on L3 ring (r=185, 90deg=right) -->
  <circle cx="185" cy="0" r="8" fill="#9b2335" opacity="0.3" stroke="#9b2335" stroke-width="1" filter="url(#cm-gl-sm)"/>
  <circle cx="185" cy="0" r="3" fill="#9b2335" opacity="0.7"/>
  <text x="198" y="4" fill="#a8b4c0" opacity="0.6">db-prod</text>

  <!-- obs-prod on L4 ring (r=225, 45deg) -->
  <circle cx="159" cy="-159" r="8" fill="#9b2335" opacity="0.25" stroke="#c9a227" stroke-width="1"/>
  <circle cx="159" cy="-159" r="3" fill="#c9a227" opacity="0.6"/>
  <text x="172" y="-155" fill="#a8b4c0" opacity="0.6">obs</text>

  <!-- cortex on L5 ring (r=270, 0deg=top) -->
  <circle cx="0" cy="-270" r="10" fill="#9b2335" opacity="0.3" stroke="#2a9d8f" stroke-width="1.5" filter="url(#cm-gl-sm)"/>
  <circle cx="0" cy="-270" r="4" fill="#2a9d8f" opacity="0.7"/>
  <text x="0" y="-284" text-anchor="middle" fill="#2a9d8f" font-size="7" font-weight="bold">cortex</text>

  <!-- zenoh-0 on L6 ring (r=320, 315deg) -->
  <circle cx="226" cy="226" r="8" fill="#9b2335" opacity="0.25" stroke="#9b2335" stroke-width="1"/>
  <circle cx="226" cy="226" r="3" fill="#9b2335" opacity="0.6"/>
  <text x="239" y="230" fill="#a8b4c0" opacity="0.6">zenoh-0</text>

  <!-- ex-app-1 on L5 (r=270, 270deg=left) -->
  <circle cx="-270" cy="0" r="9" fill="#9b2335" opacity="0.25" stroke="#2a9d8f" stroke-width="1"/>
  <circle cx="-270" cy="0" r="3.5" fill="#2a9d8f" opacity="0.6"/>
  <text x="-284" y="4" fill="#a8b4c0" opacity="0.6" text-anchor="end">ex-1</text>

  <!-- cepaf-bridge on L4 (r=225, 135deg) -->
  <circle cx="-159" cy="159" r="8" fill="#9b2335" opacity="0.25" stroke="#8a5cb8" stroke-width="1"/>
  <circle cx="-159" cy="159" r="3" fill="#8a5cb8" opacity="0.6"/>
  <text x="-172" y="163" fill="#a8b4c0" opacity="0.6" text-anchor="end">bridge</text>

  <!-- ollama on L6 (r=320, 180deg) -->
  <circle cx="0" cy="320" r="8" fill="#9b2335" opacity="0.2" stroke="#c9a227" stroke-width="0.8"/>
  <circle cx="0" cy="320" r="3" fill="#c9a227" opacity="0.5"/>
  <text x="0" y="336" text-anchor="middle" fill="#a8b4c0" opacity="0.5">ollama</text>

  <!-- Additional containers at L7 -->
  <circle cx="-350" cy="110" r="7" fill="#9b2335" opacity="0.15" stroke="#c9a227" stroke-width="0.6"/>
  <text x="-362" y="114" fill="#a8b4c0" opacity="0.4" text-anchor="end" font-size="5">z-1</text>
  <circle cx="-330" cy="-170" r="7" fill="#9b2335" opacity="0.15" stroke="#c9a227" stroke-width="0.6"/>
  <text x="-342" y="-166" fill="#a8b4c0" opacity="0.4" text-anchor="end" font-size="5">z-2</text>
  <circle cx="330" cy="-170" r="7" fill="#9b2335" opacity="0.15" stroke="#c9a227" stroke-width="0.6"/>
  <text x="342" y="-166" fill="#a8b4c0" opacity="0.4" font-size="5">z-3</text>
  <circle cx="350" cy="110" r="7" fill="#9b2335" opacity="0.15" stroke="#2a9d8f" stroke-width="0.6"/>
  <text x="362" y="114" fill="#a8b4c0" opacity="0.4" font-size="5">ex-2</text>
  <circle cx="300" cy="200" r="7" fill="#9b2335" opacity="0.15" stroke="#2a9d8f" stroke-width="0.6"/>
  <text x="312" y="204" fill="#a8b4c0" opacity="0.4" font-size="5">ex-3</text>
  <circle cx="-300" cy="200" r="7" fill="#9b2335" opacity="0.15" stroke="#4caf6a" stroke-width="0.6"/>
  <text x="-312" y="204" fill="#a8b4c0" opacity="0.4" text-anchor="end" font-size="5">chaya</text>
  <circle cx="-250" cy="260" r="6" fill="#9b2335" opacity="0.12" stroke="#8a5cb8" stroke-width="0.5"/>
  <text x="-262" y="264" fill="#a8b4c0" opacity="0.3" text-anchor="end" font-size="5">ml-1</text>
  <circle cx="250" cy="260" r="6" fill="#9b2335" opacity="0.12" stroke="#8a5cb8" stroke-width="0.5"/>
  <text x="262" y="264" fill="#a8b4c0" opacity="0.3" font-size="5">ml-2</text>
  <circle cx="-70" cy="315" r="7" fill="#9b2335" opacity="0.15" stroke="#c9a227" stroke-width="0.6"/>
  <text x="-82" y="319" fill="#a8b4c0" opacity="0.4" text-anchor="end" font-size="5">mojo</text>
</g>

<!-- ═══════ LAYER LABELS (around the mechanism) ═══════ -->
<g font-family="Inter, sans-serif" font-size="8" fill="#a8b4c0" opacity="0.5">
  <text x="600" y="285" text-anchor="middle" fill="#c9a227" opacity="0.4">L7 FEDERATION</text>
  <text x="600" y="335" text-anchor="middle" fill="#9b2335" opacity="0.4">L6 ECOSYSTEM</text>
  <text x="600" y="388" text-anchor="middle" fill="#2a9d8f" opacity="0.4">L5 COGNITIVE</text>
  <text x="988" y="680" fill="#c9a227" opacity="0.3">L7</text>
  <text x="938" y="680" fill="#9b2335" opacity="0.3">L6</text>
  <text x="888" y="680" fill="#2a9d8f" opacity="0.3">L5</text>
  <text x="838" y="680" fill="#8a5cb8" opacity="0.3">L4</text>
  <text x="798" y="680" fill="#4d7fff" opacity="0.3">L3</text>
  <text x="758" y="680" fill="#4caf6a" opacity="0.3">L2</text>
</g>

<!-- ═══════ METRICS PANEL ═══════ -->
<rect x="100" y="1100" width="1000" height="70" fill="none" stroke="#c9a227" stroke-width="1" opacity="0.25"/>
<g font-family="Inter, sans-serif" text-anchor="middle">
  <text x="200" y="1132" fill="#c9a227" font-size="30" font-weight="bold" font-family="serif">5,436</text>
  <text x="200" y="1155" fill="#a8b4c0" font-size="8" letter-spacing="2">TESTS</text>
  <text x="400" y="1132" fill="#a8b4c0" font-size="30" font-weight="bold" font-family="serif">336</text>
  <text x="400" y="1155" fill="#a8b4c0" font-size="8" letter-spacing="2">MODULES</text>
  <text x="600" y="1132" fill="#c9a227" font-size="30" font-weight="bold" font-family="serif">125</text>
  <text x="600" y="1155" fill="#a8b4c0" font-size="8" letter-spacing="2">NIF FUNCTIONS</text>
  <text x="800" y="1132" fill="#9b2335" font-size="30" font-weight="bold" font-family="serif">2,609</text>
  <text x="800" y="1155" fill="#a8b4c0" font-size="8" letter-spacing="2">HOLONS</text>
  <text x="1000" y="1132" fill="#2a9d8f" font-size="30" font-weight="bold" font-family="serif">9,104</text>
  <text x="1000" y="1155" fill="#a8b4c0" font-size="8" letter-spacing="2">RUST LOC</text>
</g>

<!-- ═══════ EVOLUTION TIMELINE ═══════ -->
<g transform="translate(100, 1200)">
  <text x="500" y="0" text-anchor="middle" fill="#c9a227" font-size="10" letter-spacing="6">CALIBRATION HISTORY</text>
  <line x1="0" y1="12" x2="1000" y2="12" stroke="#c9a227" stroke-width="0.5" opacity="0.15"/>
  <!-- Clock hands metaphor: each version is a time marker -->
  <g font-family="Inter, sans-serif" font-size="8">
    <circle cx="50" cy="45" r="4" fill="#a8b4c0" opacity="0.3"/>
    <text x="50" y="68" text-anchor="middle" fill="#a8b4c0" opacity="0.6">Genesis</text>
    <line x1="50" y1="45" x2="250" y2="45" stroke="#a8b4c0" stroke-width="0.5" opacity="0.2"/>

    <circle cx="250" cy="45" r="5" fill="#4d7fff" opacity="0.4"/>
    <text x="250" y="68" text-anchor="middle" fill="#4d7fff">v22.4.0</text>
    <text x="250" y="80" text-anchor="middle" fill="#a8b4c0" opacity="0.4">CORTEX</text>
    <line x1="250" y1="45" x2="450" y2="45" stroke="#4d7fff" stroke-width="0.5" opacity="0.2"/>

    <circle cx="450" cy="45" r="5" fill="#c9a227" opacity="0.4"/>
    <text x="450" y="68" text-anchor="middle" fill="#c9a227">v22.5.0</text>
    <text x="450" y="80" text-anchor="middle" fill="#a8b4c0" opacity="0.4">CORTEX+</text>
    <line x1="450" y1="45" x2="650" y2="45" stroke="#c9a227" stroke-width="0.5" opacity="0.2"/>

    <circle cx="650" cy="45" r="6" fill="#9b2335" opacity="0.4"/>
    <text x="650" y="68" text-anchor="middle" fill="#9b2335">v22.6.0</text>
    <text x="650" y="80" text-anchor="middle" fill="#a8b4c0" opacity="0.4">DHARMA</text>
    <line x1="650" y1="45" x2="900" y2="45" stroke="#9b2335" stroke-width="0.5" opacity="0.2"/>

    <circle cx="900" cy="45" r="8" fill="#c9a227" opacity="0.5" filter="url(#cm-gl-sm)"/>
    <circle cx="900" cy="45" r="4" fill="#040610"/><circle cx="900" cy="45" r="2" fill="#fff"/>
    <text x="900" y="68" text-anchor="middle" fill="#c9a227" font-weight="bold">v22.6.1</text>
    <text x="900" y="80" text-anchor="middle" fill="#c9a227" opacity="0.6">DHARMA+</text>
  </g>
</g>

<!-- ═══════ TENSOR & PROPERTIES ═══════ -->
<g transform="translate(100, 1320)">
  <rect x="0" y="0" width="1000" height="45" fill="none" stroke="#c9a227" stroke-width="0.6" opacity="0.2"/>
  <text x="500" y="15" text-anchor="middle" fill="#c9a227" font-size="9" letter-spacing="4">BIOMORPHIC TENSOR: 47/56 CELLS = 83.9% COVERAGE</text>
  <g font-family="Inter, sans-serif" font-size="7" fill="#a8b4c0" opacity="0.5" text-anchor="middle">
    <text x="80" y="35">Homeostasis</text><text x="220" y="35">Metabolism</text>
    <text x="340" y="35">Growth</text><text x="450" y="35" fill="#9b2335">Reproduction*</text>
    <text x="580" y="35">Response</text><text x="700" y="35">Adaptation</text>
    <text x="830" y="35">Evolution</text>
    <text x="960" y="35" fill="#c9a227" opacity="0.8">*9 gaps</text>
  </g>
</g>

<!-- ═══════ TAGLINE ═══════ -->
<line x1="200" y1="1400" x2="1000" y2="1400" stroke="#c9a227" stroke-width="0.8" opacity="0.2"/>
<text x="600" y="1430" text-anchor="middle" fill="#c9a227" font-size="16" letter-spacing="10" font-weight="bold">INTEGRATED. OPTIMIZED. CONNECTED.</text>
<line x1="200" y1="1445" x2="1000" y2="1445" stroke="#c9a227" stroke-width="0.8" opacity="0.2"/>

<!-- ═══════ SPECIFICATION PANEL ═══════ -->
<g transform="translate(100, 1470)" font-family="Inter, sans-serif" font-size="8" fill="#a8b4c0" opacity="0.5">
  <text x="0" y="0" fill="#c9a227" font-size="9" letter-spacing="3" font-family="serif" opacity="0.7">SYSTEM SPECIFICATIONS</text>
  <text x="0" y="20">Primary Language: Gleam (BEAM VM)</text>
  <text x="0" y="33">UI: Lustre 5.6+ MVU (SSR, no JS)</text>
  <text x="0" y="46">API: Wisp 2.2.2 HTTP/JSON</text>
  <text x="0" y="59">TUI: ANSI + Split-Screen</text>
  <text x="0" y="72">Bus: Zenoh pub/sub (TCP 7447)</text>

  <text x="350" y="20">Inference: 6-tier hedged cascade</text>
  <text x="350" y="33">Voice: 5-tier (Gemini Live → Whisper)</text>
  <text x="350" y="46">Rules: 52 GRL (RETE-UL engine)</text>
  <text x="350" y="59">Tracing: PipelineTracer + OTel</text>
  <text x="350" y="72">Cache: Semantic 24h TTL</text>

  <text x="700" y="20">Safety: IEC 61508 SIL-6</text>
  <text x="700" y="33">Voting: 2oo3 consensus</text>
  <text x="700" y="46">HA: Rust Zenoh leader election</text>
  <text x="700" y="59">PII: Regex scrubber (5 types)</text>
  <text x="700" y="72">Rate: 20/min per user</text>
</g>

<!-- ═══════ BOTTOM VERSE ═══════ -->
<line x1="200" y1="1600" x2="1000" y2="1600" stroke="#c9a227" stroke-width="0.5" opacity="0.2"/>
<text x="600" y="1630" text-anchor="middle" fill="#c9a227" font-size="16" font-family="'Noto Sans Devanagari', serif" letter-spacing="2">
  कालोऽस्मि लोकक्षयकृत्प्रवृद्धो — I am Time, the destroyer of worlds
</text>
<text x="600" y="1655" text-anchor="middle" fill="#a8b4c0" font-size="11" font-style="italic" font-weight="300" font-family="Inter, sans-serif">
  Every OODA tick destroys the old state and creates the new — the machine runs on time itself
</text>
<text x="600" y="1675" text-anchor="middle" fill="#a8b4c0" font-size="9" font-family="Inter, sans-serif" opacity="0.4">Bhagavad Gita 11.32</text>

<text x="600" y="1758" text-anchor="middle" fill="#c9a227" font-size="8" font-family="Inter, sans-serif" letter-spacing="4" opacity="0.25">C3I INDRAJAAL v22.6.1-DHARMA | THE COSMIC MACHINE | APRIL 2026</text>
</svg>