<svg xmlns="http://www.w3.org/2000/svg" viewBox="0 0 1200 1800" font-family="'Didot','Bodoni MT','Playfair Display',Georgia,serif">
<!-- M3 Light: NATARAJA — Cosmic Dance of OODA, White + Vivid -->
<defs>
  <filter id="g"><feGaussianBlur stdDeviation="3" result="b"/><feMerge><feMergeNode in="b"/><feMergeNode in="SourceGraphic"/></feMerge></filter>
</defs>
<rect width="1200" height="1800" fill="#FFFBFE"/>
<rect x="24" y="24" width="1152" height="1752" fill="none" stroke="#C9A227" stroke-width="2.5" opacity="0.6"/>
<rect x="32" y="32" width="1136" height="1736" fill="none" stroke="#C9A227" stroke-width="0.5" opacity="0.25"/>
<g stroke="#C9A227" fill="none" opacity="0.4" stroke-width="1.2"><path d="M24 80 L80 24"/><path d="M24 105 L105 24"/><path d="M1176 80 L1120 24"/><path d="M1176 105 L1095 24"/><path d="M24 1720 L80 1776"/><path d="M24 1695 L105 1776"/><path d="M1176 1720 L1120 1776"/><path d="M1176 1695 L1095 1776"/></g>

<!-- Title -->
<text x="600" y="75" text-anchor="middle" fill="#C9A227" font-size="11" letter-spacing="10" opacity="0.5">C3I INDRAJAAL</text>
<text x="600" y="130" text-anchor="middle" fill="#1C1B1F" font-size="52" font-weight="bold" letter-spacing="8">NATARAJA</text>
<text x="600" y="165" text-anchor="middle" fill="#00796B" font-size="18" letter-spacing="8">THE COSMIC DANCE OF OODA</text>
<text x="600" y="192" text-anchor="middle" fill="#C9A227" font-size="14" font-family="'Noto Sans Devanagari',serif" letter-spacing="3" opacity="0.6">नटराज — सृष्टि और संहार का नृत्य</text>
<line x1="250" y1="210" x2="950" y2="210" stroke="#C9A227" stroke-width="0.5" opacity="0.3"/>

<!-- Ring of Fire: 36 chevron flames -->
<g transform="translate(600,720)" stroke="#C9A227" fill="none" opacity="0.2">
  <path d="M0 -340 L8 -360 L0 -380 L-8 -360 Z" stroke-width="1" transform="rotate(0)"/><path d="M0 -340 L8 -360 L0 -380 L-8 -360 Z" stroke-width="1" transform="rotate(10)"/><path d="M0 -340 L8 -360 L0 -380 L-8 -360 Z" stroke-width="1" transform="rotate(20)"/><path d="M0 -340 L8 -360 L0 -380 L-8 -360 Z" stroke-width="1" transform="rotate(30)"/><path d="M0 -340 L8 -360 L0 -380 L-8 -360 Z" stroke-width="1" transform="rotate(40)"/><path d="M0 -340 L8 -360 L0 -380 L-8 -360 Z" stroke-width="1" transform="rotate(50)"/><path d="M0 -340 L8 -360 L0 -380 L-8 -360 Z" stroke-width="1" transform="rotate(60)"/><path d="M0 -340 L8 -360 L0 -380 L-8 -360 Z" stroke-width="1" transform="rotate(70)"/><path d="M0 -340 L8 -360 L0 -380 L-8 -360 Z" stroke-width="1" transform="rotate(80)"/><path d="M0 -340 L8 -360 L0 -380 L-8 -360 Z" stroke-width="1" transform="rotate(90)"/><path d="M0 -340 L8 -360 L0 -380 L-8 -360 Z" stroke-width="1" transform="rotate(100)"/><path d="M0 -340 L8 -360 L0 -380 L-8 -360 Z" stroke-width="1" transform="rotate(110)"/><path d="M0 -340 L8 -360 L0 -380 L-8 -360 Z" stroke-width="1" transform="rotate(120)"/><path d="M0 -340 L8 -360 L0 -380 L-8 -360 Z" stroke-width="1" transform="rotate(130)"/><path d="M0 -340 L8 -360 L0 -380 L-8 -360 Z" stroke-width="1" transform="rotate(140)"/><path d="M0 -340 L8 -360 L0 -380 L-8 -360 Z" stroke-width="1" transform="rotate(150)"/><path d="M0 -340 L8 -360 L0 -380 L-8 -360 Z" stroke-width="1" transform="rotate(160)"/><path d="M0 -340 L8 -360 L0 -380 L-8 -360 Z" stroke-width="1" transform="rotate(170)"/><path d="M0 -340 L8 -360 L0 -380 L-8 -360 Z" stroke-width="1" transform="rotate(180)"/><path d="M0 -340 L8 -360 L0 -380 L-8 -360 Z" stroke-width="1" transform="rotate(190)"/><path d="M0 -340 L8 -360 L0 -380 L-8 -360 Z" stroke-width="1" transform="rotate(200)"/><path d="M0 -340 L8 -360 L0 -380 L-8 -360 Z" stroke-width="1" transform="rotate(210)"/><path d="M0 -340 L8 -360 L0 -380 L-8 -360 Z" stroke-width="1" transform="rotate(220)"/><path d="M0 -340 L8 -360 L0 -380 L-8 -360 Z" stroke-width="1" transform="rotate(230)"/><path d="M0 -340 L8 -360 L0 -380 L-8 -360 Z" stroke-width="1" transform="rotate(240)"/><path d="M0 -340 L8 -360 L0 -380 L-8 -360 Z" stroke-width="1" transform="rotate(250)"/><path d="M0 -340 L8 -360 L0 -380 L-8 -360 Z" stroke-width="1" transform="rotate(260)"/><path d="M0 -340 L8 -360 L0 -380 L-8 -360 Z" stroke-width="1" transform="rotate(270)"/><path d="M0 -340 L8 -360 L0 -380 L-8 -360 Z" stroke-width="1" transform="rotate(280)"/><path d="M0 -340 L8 -360 L0 -380 L-8 -360 Z" stroke-width="1" transform="rotate(290)"/><path d="M0 -340 L8 -360 L0 -380 L-8 -360 Z" stroke-width="1" transform="rotate(300)"/><path d="M0 -340 L8 -360 L0 -380 L-8 -360 Z" stroke-width="1" transform="rotate(310)"/><path d="M0 -340 L8 -360 L0 -380 L-8 -360 Z" stroke-width="1" transform="rotate(320)"/><path d="M0 -340 L8 -360 L0 -380 L-8 -360 Z" stroke-width="1" transform="rotate(330)"/><path d="M0 -340 L8 -360 L0 -380 L-8 -360 Z" stroke-width="1" transform="rotate(340)"/><path d="M0 -340 L8 -360 L0 -380 L-8 -360 Z" stroke-width="1" transform="rotate(350)"/>
</g>

<!-- Main ring -->
<circle cx="600" cy="720" r="330" fill="none" stroke="#C9A227" stroke-width="2" opacity="0.35"/>
<circle cx="600" cy="720" r="320" fill="none" stroke="#C9A227" stroke-width="0.5" opacity="0.15"/>

<!-- OODA Quadrants -->
<path d="M600 390 A330 330 0 0 1 930 720" fill="none" stroke="#00796B" stroke-width="5" opacity="0.5"/>
<text x="800" y="490" fill="#00796B" font-size="18" font-weight="bold" letter-spacing="4" transform="rotate(25,800,490)">OBSERVE</text>
<text x="820" y="512" fill="#73796E" font-size="9" font-family="Inter,sans-serif" transform="rotate(25,820,512)">&lt; 30ms</text>

<path d="M930 720 A330 330 0 0 1 600 1050" fill="none" stroke="#1565C0" stroke-width="5" opacity="0.5"/>
<text x="830" y="920" fill="#1565C0" font-size="18" font-weight="bold" letter-spacing="4" transform="rotate(-25,830,920)">ORIENT</text>
<text x="810" y="942" fill="#73796E" font-size="9" font-family="Inter,sans-serif" transform="rotate(-25,810,942)">&lt; 100ms</text>

<path d="M600 1050 A330 330 0 0 1 270 720" fill="none" stroke="#C9A227" stroke-width="5" opacity="0.5"/>
<text x="370" y="940" fill="#C9A227" font-size="18" font-weight="bold" letter-spacing="4" transform="rotate(25,370,940)">DECIDE</text>
<text x="390" y="962" fill="#73796E" font-size="9" font-family="Inter,sans-serif" transform="rotate(25,390,962)">52 GRL rules</text>

<path d="M270 720 A330 330 0 0 1 600 390" fill="none" stroke="#2E7D32" stroke-width="5" opacity="0.5"/>
<text x="360" y="510" fill="#2E7D32" font-size="18" font-weight="bold" letter-spacing="4" transform="rotate(-25,360,510)">ACT</text>
<text x="380" y="532" fill="#73796E" font-size="9" font-family="Inter,sans-serif" transform="rotate(-25,380,532)">Autonomous</text>

<!-- 16 Containers on ring -->
<g transform="translate(600,720)" font-family="Inter,sans-serif" font-size="7">
  <circle cx="0" cy="-290" r="12" fill="#E3F2FD" stroke="#1565C0" stroke-width="1"/><text x="0" y="-305" text-anchor="middle" fill="#1565C0" font-size="7">db</text>
  <circle cx="111" cy="-268" r="12" fill="#FFF8E1" stroke="#F9A825" stroke-width="1"/><text x="128" y="-268" fill="#F9A825" font-size="7">obs</text>
  <circle cx="205" cy="-205" r="14" fill="#E0F2F1" stroke="#00796B" stroke-width="1"/><text x="222" y="-195" fill="#00796B" font-size="7">ex-1</text>
  <circle cx="268" cy="-111" r="12" fill="#F3E5F5" stroke="#7B1FA2" stroke-width="1"/><text x="285" y="-105" fill="#7B1FA2" font-size="7">bridge</text>
  <circle cx="290" cy="0" r="14" fill="#E0F2F1" stroke="#00796B" stroke-width="1.5"/><text x="307" y="4" fill="#00796B" font-size="7" font-weight="bold">cortex</text>
  <circle cx="268" cy="111" r="14" fill="#FFEBEE" stroke="#C62828" stroke-width="1"/><text x="285" y="115" fill="#C62828" font-size="7">zenoh-0</text>
  <circle cx="205" cy="205" r="12" fill="#FFF8E1" stroke="#F9A825" stroke-width="1"/><text x="222" y="210" fill="#F9A825" font-size="7">ollama</text>
  <circle cx="111" cy="268" r="12" fill="#FFF8E1" stroke="#F9A825" stroke-width="1"/><text x="128" y="273" fill="#F9A825" font-size="7">mojo</text>
  <circle cx="0" cy="290" r="11" fill="#FFEBEE" stroke="#C62828" stroke-width="0.8"/><text x="0" y="307" text-anchor="middle" fill="#C62828" font-size="6">z-1</text>
  <circle cx="-111" cy="268" r="11" fill="#FFEBEE" stroke="#C62828" stroke-width="0.8"/><text x="-128" y="273" fill="#C62828" font-size="6" text-anchor="end">z-2</text>
  <circle cx="-205" cy="205" r="11" fill="#FFEBEE" stroke="#C62828" stroke-width="0.8"/><text x="-222" y="210" fill="#C62828" font-size="6" text-anchor="end">z-3</text>
  <circle cx="-268" cy="111" r="12" fill="#E0F2F1" stroke="#00796B" stroke-width="0.8"/><text x="-285" y="115" fill="#00796B" font-size="6" text-anchor="end">ex-2</text>
  <circle cx="-290" cy="0" r="12" fill="#E0F2F1" stroke="#00796B" stroke-width="0.8"/><text x="-307" y="4" fill="#00796B" font-size="6" text-anchor="end">ex-3</text>
  <circle cx="-268" cy="-111" r="12" fill="#E8F5E9" stroke="#2E7D32" stroke-width="0.8"/><text x="-285" y="-105" fill="#2E7D32" font-size="6" text-anchor="end">chaya</text>
  <circle cx="-205" cy="-205" r="11" fill="#F3E5F5" stroke="#7B1FA2" stroke-width="0.8"/><text x="-222" y="-200" fill="#7B1FA2" font-size="6" text-anchor="end">ml-1</text>
  <circle cx="-111" cy="-268" r="11" fill="#F3E5F5" stroke="#7B1FA2" stroke-width="0.8"/><text x="-128" y="-264" fill="#7B1FA2" font-size="6" text-anchor="end">ml-2</text>
</g>

<!-- 8 Fractal rings inside -->
<g transform="translate(600,720)">
  <circle r="15" fill="none" stroke="#D32F2F" stroke-width="1.2" opacity="0.4"/>
  <circle r="30" fill="none" stroke="#F9A825" stroke-width="1" opacity="0.35"/>
  <circle r="45" fill="none" stroke="#2E7D32" stroke-width="1" opacity="0.3"/>
  <circle r="60" fill="none" stroke="#1565C0" stroke-width="1" opacity="0.25"/>
  <circle r="75" fill="none" stroke="#7B1FA2" stroke-width="1" opacity="0.22"/>
  <circle r="90" fill="none" stroke="#00796B" stroke-width="1" opacity="0.2"/>
  <circle r="105" fill="none" stroke="#C62828" stroke-width="1" opacity="0.18"/>
  <circle r="120" fill="none" stroke="#EF6C00" stroke-width="0.8" opacity="0.15"/>
  <!-- Eye -->
  <circle r="8" fill="#006C4E" opacity="0.5" filter="url(#g)"/><circle r="4" fill="#FFFBFE"/><circle r="2" fill="#1C1B1F"/>
</g>

<!-- Layer Legend -->
<g transform="translate(100,1110)">
  <text x="500" y="0" text-anchor="middle" fill="#C9A227" font-size="11" letter-spacing="6">EIGHT FRACTAL LAYERS</text>
  <line x1="0" y1="10" x2="1000" y2="10" stroke="#C9A227" stroke-width="0.5" opacity="0.2"/>
  <g font-family="Inter,sans-serif" font-size="9">
    <rect x="0" y="25" width="12" height="12" rx="3" fill="#D32F2F" opacity="0.7"/><text x="18" y="35" fill="#D32F2F" font-weight="bold">L0</text><text x="40" y="35" fill="#73796E">Constitutional</text><text x="150" y="35" fill="#73796E" opacity="0.6">Guardian, Psi, INFINITE</text>
    <rect x="500" y="25" width="12" height="12" rx="3" fill="#F9A825" opacity="0.7"/><text x="518" y="35" fill="#F9A825" font-weight="bold">L1</text><text x="540" y="35" fill="#73796E">Atomic</text><text x="620" y="35" fill="#73796E" opacity="0.6">125 NIF, 10 packages</text>
    <rect x="0" y="50" width="12" height="12" rx="3" fill="#2E7D32" opacity="0.7"/><text x="18" y="60" fill="#2E7D32" font-weight="bold">L2</text><text x="40" y="60" fill="#73796E">Component</text><text x="150" y="60" fill="#73796E" opacity="0.6">233 A2UI, isomorphic</text>
    <rect x="500" y="50" width="12" height="12" rx="3" fill="#1565C0" opacity="0.7"/><text x="518" y="60" fill="#1565C0" font-weight="bold">L3</text><text x="540" y="60" fill="#73796E">Transaction</text><text x="650" y="60" fill="#73796E" opacity="0.6">SQLite, 2,609 holons</text>
    <rect x="0" y="75" width="12" height="12" rx="3" fill="#7B1FA2" opacity="0.7"/><text x="18" y="85" fill="#7B1FA2" font-weight="bold">L4</text><text x="40" y="85" fill="#73796E">System</text><text x="150" y="85" fill="#73796E" opacity="0.6">16 containers, 7-tier</text>
    <rect x="500" y="75" width="12" height="12" rx="3" fill="#00796B" opacity="0.7"/><text x="518" y="85" fill="#00796B" font-weight="bold">L5</text><text x="540" y="85" fill="#73796E">Cognitive</text><text x="650" y="85" fill="#73796E" opacity="0.6">52 rules, 6-tier inference</text>
    <rect x="0" y="100" width="12" height="12" rx="3" fill="#C62828" opacity="0.6"/><text x="18" y="110" fill="#C62828" font-weight="bold">L6</text><text x="40" y="110" fill="#73796E">Ecosystem</text><text x="150" y="110" fill="#73796E" opacity="0.6">Zenoh mesh, 4 routers</text>
    <rect x="500" y="100" width="12" height="12" rx="3" fill="#EF6C00" opacity="0.7"/><text x="518" y="110" fill="#EF6C00" font-weight="bold">L7</text><text x="540" y="110" fill="#73796E">Federation</text><text x="650" y="110" fill="#73796E" opacity="0.6">HA election, zero-downtime</text>
  </g>
</g>

<!-- Metrics -->
<rect x="100" y="1250" width="1000" height="65" fill="#F1ECE9" stroke="#C9A227" stroke-width="1" rx="8"/>
<g font-family="Inter,sans-serif" text-anchor="middle">
  <text x="200" y="1280" fill="#006C4E" font-size="28" font-weight="bold" font-family="serif">5,436</text><text x="200" y="1302" fill="#73796E" font-size="8" letter-spacing="2">TESTS</text>
  <text x="400" y="1280" fill="#1565C0" font-size="28" font-weight="bold" font-family="serif">336</text><text x="400" y="1302" fill="#73796E" font-size="8" letter-spacing="2">MODULES</text>
  <text x="600" y="1280" fill="#C9A227" font-size="28" font-weight="bold" font-family="serif">125</text><text x="600" y="1302" fill="#73796E" font-size="8" letter-spacing="2">NIF FN</text>
  <text x="800" y="1280" fill="#D32F2F" font-size="28" font-weight="bold" font-family="serif">2,609</text><text x="800" y="1302" fill="#73796E" font-size="8" letter-spacing="2">HOLONS</text>
  <text x="1000" y="1280" fill="#00796B" font-size="28" font-weight="bold" font-family="serif">73</text><text x="1000" y="1302" fill="#73796E" font-size="8" letter-spacing="2">MCP TOOLS</text>
</g>

<!-- Four Arms -->
<g transform="translate(100,1340)" font-family="Inter,sans-serif" font-size="9">
  <text x="500" y="0" text-anchor="middle" fill="#C9A227" font-size="10" letter-spacing="6">THE FOUR ARMS</text>
  <g fill="#73796E">
    <text x="125" y="25" text-anchor="middle" fill="#00796B" font-size="13" font-family="serif">Drum</text><text x="125" y="40" text-anchor="middle" opacity="0.6">Zenoh heartbeat</text><text x="125" y="53" text-anchor="middle" opacity="0.4">10s health pulse</text>
    <text x="375" y="25" text-anchor="middle" fill="#EF6C00" font-size="13" font-family="serif">Flame</text><text x="375" y="40" text-anchor="middle" opacity="0.6">Evolution engine</text><text x="375" y="53" text-anchor="middle" opacity="0.4">Hot code reload</text>
    <text x="625" y="25" text-anchor="middle" fill="#2E7D32" font-size="13" font-family="serif">Raised Foot</text><text x="625" y="40" text-anchor="middle" opacity="0.6">Moksha (liberation)</text><text x="625" y="53" text-anchor="middle" opacity="0.4">80/80 tensor</text>
    <text x="875" y="25" text-anchor="middle" fill="#C9A227" font-size="13" font-family="serif">Trampled Dwarf</text><text x="875" y="40" text-anchor="middle" opacity="0.6">Muda (waste)</text><text x="875" y="53" text-anchor="middle" opacity="0.4">Zero warnings</text>
  </g>
</g>

<!-- Evolution + Tensor + Tagline -->
<g transform="translate(100,1420)">
  <g font-family="Inter,sans-serif" font-size="8">
    <circle cx="50" cy="15" r="4" fill="#73796E" opacity="0.3"/><text x="50" y="32" text-anchor="middle" fill="#73796E">Genesis</text>
    <line x1="54" y1="15" x2="246" y2="15" stroke="#73796E" stroke-width="0.5" opacity="0.2"/>
    <circle cx="250" cy="15" r="5" fill="#1565C0"/><text x="250" y="32" text-anchor="middle" fill="#1565C0">v22.4.0</text>
    <line x1="255" y1="15" x2="446" y2="15" stroke="#1565C0" stroke-width="0.5" opacity="0.2"/>
    <circle cx="450" cy="15" r="5" fill="#F9A825"/><text x="450" y="32" text-anchor="middle" fill="#F9A825">v22.5.0</text>
    <line x1="455" y1="15" x2="646" y2="15" stroke="#F9A825" stroke-width="0.5" opacity="0.2"/>
    <circle cx="650" cy="15" r="6" fill="#D32F2F"/><text x="650" y="32" text-anchor="middle" fill="#D32F2F">v22.6.0</text>
    <line x1="656" y1="15" x2="896" y2="15" stroke="#D32F2F" stroke-width="0.5" opacity="0.2"/>
    <circle cx="900" cy="15" r="8" fill="#006C4E"/><circle cx="900" cy="15" r="4" fill="#FFFBFE"/><circle cx="900" cy="15" r="2" fill="#006C4E"/>
    <text x="900" y="32" text-anchor="middle" fill="#006C4E" font-weight="bold">v22.6.1</text>
  </g>
</g>
<text x="600" y="1480" text-anchor="middle" fill="#C9A227" font-size="12" font-family="Inter,sans-serif">Biomorphic Tensor: <tspan font-weight="bold" font-size="16">47/56</tspan> = <tspan font-weight="bold" font-size="16">83.9%</tspan></text>
<line x1="200" y1="1498" x2="1000" y2="1498" stroke="#C9A227" stroke-width="1" opacity="0.3"/>
<text x="600" y="1528" text-anchor="middle" fill="#1C1B1F" font-size="16" letter-spacing="10" font-weight="bold">INTEGRATED. OPTIMIZED. CONNECTED.</text>
<line x1="200" y1="1543" x2="1000" y2="1543" stroke="#C9A227" stroke-width="1" opacity="0.3"/>

<!-- Verse -->
<line x1="200" y1="1680" x2="1000" y2="1680" stroke="#C9A227" stroke-width="0.5" opacity="0.3"/>
<text x="600" y="1710" text-anchor="middle" fill="#00796B" font-size="18" font-family="'Noto Sans Devanagari',serif" letter-spacing="2">आनन्दतान्डवम् इदम्</text>
<text x="600" y="1735" text-anchor="middle" fill="#73796E" font-size="12" font-style="italic" font-family="Inter,sans-serif">This is the dance of bliss — every OODA cycle is creation and destruction in 100ms</text>
<text x="600" y="1782" text-anchor="middle" fill="#C9A227" font-size="8" font-family="Inter,sans-serif" letter-spacing="4" opacity="0.4">C3I INDRAJAAL v22.6.1-DHARMA | NATARAJA | APRIL 2026</text>
</svg>