<?xml version="1.0" encoding="UTF-8" standalone="no"?>
<!DOCTYPE svg PUBLIC "-//W3C//DTD SVG 1.1//EN"
 "http://www.w3.org/Graphics/SVG/1.1/DTD/svg11.dtd">
<!-- Generated by graphviz version 12.2.1 (0)
 -->
<!-- Title: CatScore Pages: 1 -->
<svg width="2136pt" height="68pt"
 viewBox="0.00 0.00 2135.75 67.75" xmlns="http://www.w3.org/2000/svg" xmlns:xlink="http://www.w3.org/1999/xlink">
<g id="graph0" class="graph" transform="scale(1 1) rotate(0) translate(4 63.75)">
<title>CatScore</title>
<polygon fill="#0a0e17" stroke="none" points="-4,4 -4,-63.75 2131.75,-63.75 2131.75,4 -4,4"/>
<!-- CACHE -->
<g id="node1" class="node">
<title>CACHE</title>
<path fill="#0e2a2a" stroke="#66ffff" d="M145,-59.75C145,-59.75 12,-59.75 12,-59.75 6,-59.75 0,-53.75 0,-47.75 0,-47.75 0,-12 0,-12 0,-6 6,0 12,0 12,0 145,0 145,0 151,0 157,-6 157,-12 157,-12 157,-47.75 157,-47.75 157,-53.75 151,-59.75 145,-59.75"/>
<text text-anchor="middle" x="78.5" y="-42.45" font-family="Helvetica,sans-Serif" font-size="14.00" fill="#e0e6ed">CACHE &#160;· 5 ideas</text>
<text text-anchor="middle" x="78.5" y="-25.2" font-family="Helvetica,sans-Serif" font-size="14.00" fill="#e0e6ed">leader #1 (54.6)</text>
<text text-anchor="middle" x="78.5" y="-7.95" font-family="Helvetica,sans-Serif" font-size="14.00" fill="#e0e6ed">#1 #2 #7 #10 #20</text>
</g>
<!-- RAG -->
<g id="node2" class="node">
<title>RAG</title>
<path fill="#0e2a1e" stroke="#3dd68c" d="M320,-59.75C320,-59.75 187,-59.75 187,-59.75 181,-59.75 175,-53.75 175,-47.75 175,-47.75 175,-12 175,-12 175,-6 181,0 187,0 187,0 320,0 320,0 326,0 332,-6 332,-12 332,-12 332,-47.75 332,-47.75 332,-53.75 326,-59.75 320,-59.75"/>
<text text-anchor="middle" x="253.5" y="-42.45" font-family="Helvetica,sans-Serif" font-size="14.00" fill="#e0e6ed">RAG · 5 ideas</text>
<text text-anchor="middle" x="253.5" y="-25.2" font-family="Helvetica,sans-Serif" font-size="14.00" fill="#e0e6ed">leader #4 (45.5)</text>
<text text-anchor="middle" x="253.5" y="-7.95" font-family="Helvetica,sans-Serif" font-size="14.00" fill="#e0e6ed">#4 #5 #9 #35 #39</text>
</g>
<!-- ROUTER -->
<g id="node3" class="node">
<title>ROUTER</title>
<path fill="#2a1e0e" stroke="#f5a623" d="M513,-59.75C513,-59.75 362,-59.75 362,-59.75 356,-59.75 350,-53.75 350,-47.75 350,-47.75 350,-12 350,-12 350,-6 356,0 362,0 362,0 513,0 513,0 519,0 525,-6 525,-12 525,-12 525,-47.75 525,-47.75 525,-53.75 519,-59.75 513,-59.75"/>
<text text-anchor="middle" x="437.5" y="-42.45" font-family="Helvetica,sans-Serif" font-size="14.00" fill="#e0e6ed">ROUTER · 5 ideas</text>
<text text-anchor="middle" x="437.5" y="-25.2" font-family="Helvetica,sans-Serif" font-size="14.00" fill="#e0e6ed">leader #3 (49.6)</text>
<text text-anchor="middle" x="437.5" y="-7.95" font-family="Helvetica,sans-Serif" font-size="14.00" fill="#e0e6ed">#3 #14 #21 #27 #34</text>
</g>
<!-- AGENT -->
<g id="node4" class="node">
<title>AGENT</title>
<path fill="#1e0e2a" stroke="#9b6cff" d="M766,-59.75C766,-59.75 555,-59.75 555,-59.75 549,-59.75 543,-53.75 543,-47.75 543,-47.75 543,-12 543,-12 543,-6 549,0 555,0 555,0 766,0 766,0 772,0 778,-6 778,-12 778,-12 778,-47.75 778,-47.75 778,-53.75 772,-59.75 766,-59.75"/>
<text text-anchor="middle" x="660.5" y="-42.45" font-family="Helvetica,sans-Serif" font-size="14.00" fill="#e0e6ed">AGENT · 7 ideas</text>
<text text-anchor="middle" x="660.5" y="-25.2" font-family="Helvetica,sans-Serif" font-size="14.00" fill="#e0e6ed">leader #8 (38.3)</text>
<text text-anchor="middle" x="660.5" y="-7.95" font-family="Helvetica,sans-Serif" font-size="14.00" fill="#e0e6ed">#7 #8 #13 #15 #25 #28 #30</text>
</g>
<!-- COMPRESS -->
<g id="node5" class="node">
<title>COMPRESS</title>
<path fill="#2a0e1e" stroke="#ff69b4" d="M941.38,-59.75C941.38,-59.75 807.62,-59.75 807.62,-59.75 801.62,-59.75 795.62,-53.75 795.62,-47.75 795.62,-47.75 795.62,-12 795.62,-12 795.62,-6 801.62,0 807.62,0 807.62,0 941.38,0 941.38,0 947.38,0 953.38,-6 953.38,-12 953.38,-12 953.38,-47.75 953.38,-47.75 953.38,-53.75 947.38,-59.75 941.38,-59.75"/>
<text text-anchor="middle" x="874.5" y="-42.45" font-family="Helvetica,sans-Serif" font-size="14.00" fill="#e0e6ed">COMPRESS · 3 ideas</text>
<text text-anchor="middle" x="874.5" y="-25.2" font-family="Helvetica,sans-Serif" font-size="14.00" fill="#e0e6ed">leader #11 (36.4)</text>
<text text-anchor="middle" x="874.5" y="-7.95" font-family="Helvetica,sans-Serif" font-size="14.00" fill="#e0e6ed">#11 #16 #36</text>
</g>
<!-- PERF -->
<g id="node6" class="node">
<title>PERF</title>
<path fill="#0e1e2a" stroke="#00bfff" d="M1099.75,-59.75C1099.75,-59.75 983.25,-59.75 983.25,-59.75 977.25,-59.75 971.25,-53.75 971.25,-47.75 971.25,-47.75 971.25,-12 971.25,-12 971.25,-6 977.25,0 983.25,0 983.25,0 1099.75,0 1099.75,0 1105.75,0 1111.75,-6 1111.75,-12 1111.75,-12 1111.75,-47.75 1111.75,-47.75 1111.75,-53.75 1105.75,-59.75 1099.75,-59.75"/>
<text text-anchor="middle" x="1041.5" y="-42.45" font-family="Helvetica,sans-Serif" font-size="14.00" fill="#e0e6ed">PERF · 2 ideas</text>
<text text-anchor="middle" x="1041.5" y="-25.2" font-family="Helvetica,sans-Serif" font-size="14.00" fill="#e0e6ed">leader #12 (36.3)</text>
<text text-anchor="middle" x="1041.5" y="-7.95" font-family="Helvetica,sans-Serif" font-size="14.00" fill="#e0e6ed">#12 #32</text>
</g>
<!-- KMS -->
<g id="node7" class="node">
<title>KMS</title>
<path fill="#0e0e2a" stroke="#9999ff" d="M1336.75,-59.75C1336.75,-59.75 1142.25,-59.75 1142.25,-59.75 1136.25,-59.75 1130.25,-53.75 1130.25,-47.75 1130.25,-47.75 1130.25,-12 1130.25,-12 1130.25,-6 1136.25,0 1142.25,0 1142.25,0 1336.75,0 1336.75,0 1342.75,0 1348.75,-6 1348.75,-12 1348.75,-12 1348.75,-47.75 1348.75,-47.75 1348.75,-53.75 1342.75,-59.75 1336.75,-59.75"/>
<text text-anchor="middle" x="1239.5" y="-42.45" font-family="Helvetica,sans-Serif" font-size="14.00" fill="#e0e6ed">KMS · 7 ideas</text>
<text text-anchor="middle" x="1239.5" y="-25.2" font-family="Helvetica,sans-Serif" font-size="14.00" fill="#e0e6ed">leader #17 (33.6)</text>
<text text-anchor="middle" x="1239.5" y="-7.95" font-family="Helvetica,sans-Serif" font-size="14.00" fill="#e0e6ed">#17 #23 #38 #40 #41 #42</text>
</g>
<!-- OBS -->
<g id="node8" class="node">
<title>OBS</title>
<path fill="#1e2a0e" stroke="#ffffee" d="M1538.5,-59.75C1538.5,-59.75 1378.5,-59.75 1378.5,-59.75 1372.5,-59.75 1366.5,-53.75 1366.5,-47.75 1366.5,-47.75 1366.5,-12 1366.5,-12 1366.5,-6 1372.5,0 1378.5,0 1378.5,0 1538.5,0 1538.5,0 1544.5,0 1550.5,-6 1550.5,-12 1550.5,-12 1550.5,-47.75 1550.5,-47.75 1550.5,-53.75 1544.5,-59.75 1538.5,-59.75"/>
<text text-anchor="middle" x="1458.5" y="-42.45" font-family="Helvetica,sans-Serif" font-size="14.00" fill="#e0e6ed">OBS · 5 ideas</text>
<text text-anchor="middle" x="1458.5" y="-25.2" font-family="Helvetica,sans-Serif" font-size="14.00" fill="#e0e6ed">leader #19 (32.9)</text>
<text text-anchor="middle" x="1458.5" y="-7.95" font-family="Helvetica,sans-Serif" font-size="14.00" fill="#e0e6ed">#19 #26 #29 #33 #44</text>
</g>
<!-- SRE -->
<g id="node9" class="node">
<title>SRE</title>
<path fill="#2a2a0e" stroke="#ffff88" d="M1696.75,-59.75C1696.75,-59.75 1580.25,-59.75 1580.25,-59.75 1574.25,-59.75 1568.25,-53.75 1568.25,-47.75 1568.25,-47.75 1568.25,-12 1568.25,-12 1568.25,-6 1574.25,0 1580.25,0 1580.25,0 1696.75,0 1696.75,0 1702.75,0 1708.75,-6 1708.75,-12 1708.75,-12 1708.75,-47.75 1708.75,-47.75 1708.75,-53.75 1702.75,-59.75 1696.75,-59.75"/>
<text text-anchor="middle" x="1638.5" y="-42.45" font-family="Helvetica,sans-Serif" font-size="14.00" fill="#e0e6ed">SRE · 3 ideas</text>
<text text-anchor="middle" x="1638.5" y="-25.2" font-family="Helvetica,sans-Serif" font-size="14.00" fill="#e0e6ed">leader #18 (32.6)</text>
<text text-anchor="middle" x="1638.5" y="-7.95" font-family="Helvetica,sans-Serif" font-size="14.00" fill="#e0e6ed">#18 #22 #24</text>
</g>
<!-- BUDGET -->
<g id="node10" class="node">
<title>BUDGET</title>
<path fill="#2a0e0e" stroke="#ff4757" d="M1846.25,-51.12C1846.25,-51.12 1738.75,-51.12 1738.75,-51.12 1732.75,-51.12 1726.75,-45.12 1726.75,-39.12 1726.75,-39.12 1726.75,-20.62 1726.75,-20.62 1726.75,-14.62 1732.75,-8.62 1738.75,-8.62 1738.75,-8.62 1846.25,-8.62 1846.25,-8.62 1852.25,-8.62 1858.25,-14.62 1858.25,-20.62 1858.25,-20.62 1858.25,-39.12 1858.25,-39.12 1858.25,-45.12 1852.25,-51.12 1846.25,-51.12"/>
<text text-anchor="middle" x="1792.5" y="-33.83" font-family="Helvetica,sans-Serif" font-size="14.00" fill="#e0e6ed">BUDGET · 1 idea</text>
<text text-anchor="middle" x="1792.5" y="-16.57" font-family="Helvetica,sans-Serif" font-size="14.00" fill="#e0e6ed">leader #6 (42.7)</text>
</g>
<!-- SEC -->
<g id="node11" class="node">
<title>SEC</title>
<path fill="lightgrey" stroke="black" d="M2004.75,-59.75C2004.75,-59.75 1888.25,-59.75 1888.25,-59.75 1882.25,-59.75 1876.25,-53.75 1876.25,-47.75 1876.25,-47.75 1876.25,-12 1876.25,-12 1876.25,-6 1882.25,0 1888.25,0 1888.25,0 2004.75,0 2004.75,0 2010.75,0 2016.75,-6 2016.75,-12 2016.75,-12 2016.75,-47.75 2016.75,-47.75 2016.75,-53.75 2010.75,-59.75 2004.75,-59.75"/>
<text text-anchor="middle" x="1946.5" y="-42.45" font-family="Helvetica,sans-Serif" font-size="14.00" fill="#e0e6ed">SEC · 2 ideas</text>
<text text-anchor="middle" x="1946.5" y="-25.2" font-family="Helvetica,sans-Serif" font-size="14.00" fill="#e0e6ed">leader #31 (26.4)</text>
<text text-anchor="middle" x="1946.5" y="-7.95" font-family="Helvetica,sans-Serif" font-size="14.00" fill="#e0e6ed">#31 #37</text>
</g>
<!-- UX -->
<g id="node12" class="node">
<title>UX</title>
<path fill="lightgrey" stroke="black" d="M2115.75,-51.12C2115.75,-51.12 2047.25,-51.12 2047.25,-51.12 2041.25,-51.12 2035.25,-45.12 2035.25,-39.12 2035.25,-39.12 2035.25,-20.62 2035.25,-20.62 2035.25,-14.62 2041.25,-8.62 2047.25,-8.62 2047.25,-8.62 2115.75,-8.62 2115.75,-8.62 2121.75,-8.62 2127.75,-14.62 2127.75,-20.62 2127.75,-20.62 2127.75,-39.12 2127.75,-39.12 2127.75,-45.12 2121.75,-51.12 2115.75,-51.12"/>
<text text-anchor="middle" x="2081.5" y="-33.83" font-family="Helvetica,sans-Serif" font-size="14.00" fill="#e0e6ed">UX · 1 idea</text>
<text text-anchor="middle" x="2081.5" y="-16.57" font-family="Helvetica,sans-Serif" font-size="14.00" fill="#e0e6ed">#43 (19.2)</text>
</g>
</g>
</svg>
