<?xml version="1.0" encoding="UTF-8" standalone="no"?>
<!DOCTYPE svg PUBLIC "-//W3C//DTD SVG 1.1//EN"
 "http://www.w3.org/Graphics/SVG/1.1/DTD/svg11.dtd">
<!-- Generated by graphviz version 12.2.1 (0)
 -->
<!-- Title: Ideas Pages: 1 -->
<svg width="870pt" height="314pt"
 viewBox="0.00 0.00 870.25 314.12" xmlns="http://www.w3.org/2000/svg" xmlns:xlink="http://www.w3.org/1999/xlink">
<g id="graph0" class="graph" transform="scale(1 1) rotate(0) translate(4 310.12)">
<title>Ideas</title>
<polygon fill="#0a0e17" stroke="none" points="-4,4 -4,-310.12 866.25,-310.12 866.25,4 -4,4"/>
<!-- I1 -->
<g id="node1" class="node">
<title>I1</title>
<path fill="#0e2a1e" stroke="#3dd68c" d="M124,-127.12C124,-127.12 12,-127.12 12,-127.12 6,-127.12 0,-121.12 0,-115.12 0,-115.12 0,-79.38 0,-79.38 0,-73.38 6,-67.38 12,-67.38 12,-67.38 124,-67.38 124,-67.38 130,-67.38 136,-73.38 136,-79.38 136,-79.38 136,-115.12 136,-115.12 136,-121.12 130,-127.12 124,-127.12"/>
<text text-anchor="middle" x="68" y="-109.83" font-family="Helvetica,sans-Serif" font-size="14.00" fill="#e0e6ed">#1 Prompt&#45;prefix</text>
<text text-anchor="middle" x="68" y="-92.58" font-family="Helvetica,sans-Serif" font-size="14.00" fill="#e0e6ed">stabiliser</text>
<text text-anchor="middle" x="68" y="-75.33" font-family="Helvetica,sans-Serif" font-size="14.00" fill="#e0e6ed">(54.6)</text>
</g>
<!-- I10 -->
<g id="node10" class="node">
<title>I10</title>
<path fill="#141922" stroke="#1e2a3a" d="M304.25,-127.12C304.25,-127.12 184,-127.12 184,-127.12 178,-127.12 172,-121.12 172,-115.12 172,-115.12 172,-79.38 172,-79.38 172,-73.38 178,-67.38 184,-67.38 184,-67.38 304.25,-67.38 304.25,-67.38 310.25,-67.38 316.25,-73.38 316.25,-79.38 316.25,-79.38 316.25,-115.12 316.25,-115.12 316.25,-121.12 310.25,-127.12 304.25,-127.12"/>
<text text-anchor="middle" x="244.12" y="-109.83" font-family="Helvetica,sans-Serif" font-size="14.00" fill="#e0e6ed">#10 Shared cache</text>
<text text-anchor="middle" x="244.12" y="-92.58" font-family="Helvetica,sans-Serif" font-size="14.00" fill="#e0e6ed">Claude↔Pi</text>
<text text-anchor="middle" x="244.12" y="-75.33" font-family="Helvetica,sans-Serif" font-size="14.00" fill="#e0e6ed">(37.7)</text>
</g>
<!-- I1&#45;&gt;I10 -->
<g id="edge1" class="edge">
<title>I1&#45;&gt;I10</title>
<path fill="none" stroke="#00d4aa" d="M136.32,-97.25C144.19,-97.25 152.29,-97.25 160.34,-97.25"/>
<polygon fill="#00d4aa" stroke="#00d4aa" points="160.14,-100.75 170.14,-97.25 160.14,-93.75 160.14,-100.75"/>
</g>
<!-- I2 -->
<g id="node2" class="node">
<title>I2</title>
<path fill="#0e2a1e" stroke="#3dd68c" d="M492,-187.12C492,-187.12 364.25,-187.12 364.25,-187.12 358.25,-187.12 352.25,-181.12 352.25,-175.12 352.25,-175.12 352.25,-139.38 352.25,-139.38 352.25,-133.38 358.25,-127.38 364.25,-127.38 364.25,-127.38 492,-127.38 492,-127.38 498,-127.38 504,-133.38 504,-139.38 504,-139.38 504,-175.12 504,-175.12 504,-181.12 498,-187.12 492,-187.12"/>
<text text-anchor="middle" x="428.12" y="-169.82" font-family="Helvetica,sans-Serif" font-size="14.00" fill="#e0e6ed">#2 Semantic&#45;cache</text>
<text text-anchor="middle" x="428.12" y="-152.57" font-family="Helvetica,sans-Serif" font-size="14.00" fill="#e0e6ed">fuzzy prelookup</text>
<text text-anchor="middle" x="428.12" y="-135.32" font-family="Helvetica,sans-Serif" font-size="14.00" fill="#e0e6ed">(52.6)</text>
</g>
<!-- I3 -->
<g id="node3" class="node">
<title>I3</title>
<path fill="#0e2a1e" stroke="#3dd68c" d="M678.62,-109.5C678.62,-109.5 553.88,-109.5 553.88,-109.5 547.88,-109.5 541.88,-103.5 541.88,-97.5 541.88,-97.5 541.88,-79 541.88,-79 541.88,-73 547.88,-67 553.88,-67 553.88,-67 678.62,-67 678.62,-67 684.62,-67 690.62,-73 690.62,-79 690.62,-79 690.62,-97.5 690.62,-97.5 690.62,-103.5 684.62,-109.5 678.62,-109.5"/>
<text text-anchor="middle" x="616.25" y="-92.2" font-family="Helvetica,sans-Serif" font-size="14.00" fill="#e0e6ed">#3 Adaptive router</text>
<text text-anchor="middle" x="616.25" y="-74.95" font-family="Helvetica,sans-Serif" font-size="14.00" fill="#e0e6ed">(49.6)</text>
</g>
<!-- I2&#45;&gt;I3 -->
<g id="edge7" class="edge">
<title>I2&#45;&gt;I3</title>
<path fill="none" stroke="#00d4aa" d="M504.29,-129.38C518.07,-124.28 532.38,-118.97 545.97,-113.93"/>
<polygon fill="#00d4aa" stroke="#00d4aa" points="547.11,-117.24 555.27,-110.48 544.68,-110.68 547.11,-117.24"/>
</g>
<!-- I13 -->
<g id="node13" class="node">
<title>I13</title>
<path fill="#141922" stroke="#1e2a3a" d="M850.25,-109.5C850.25,-109.5 740.5,-109.5 740.5,-109.5 734.5,-109.5 728.5,-103.5 728.5,-97.5 728.5,-97.5 728.5,-79 728.5,-79 728.5,-73 734.5,-67 740.5,-67 740.5,-67 850.25,-67 850.25,-67 856.25,-67 862.25,-73 862.25,-79 862.25,-79 862.25,-97.5 862.25,-97.5 862.25,-103.5 856.25,-109.5 850.25,-109.5"/>
<text text-anchor="middle" x="795.38" y="-92.2" font-family="Helvetica,sans-Serif" font-size="14.00" fill="#e0e6ed">#13 MoE routing</text>
<text text-anchor="middle" x="795.38" y="-74.95" font-family="Helvetica,sans-Serif" font-size="14.00" fill="#e0e6ed">(35.4)</text>
</g>
<!-- I3&#45;&gt;I13 -->
<g id="edge9" class="edge">
<title>I3&#45;&gt;I13</title>
<path fill="none" stroke="#00d4aa" d="M691.08,-88.25C699.5,-88.25 708.1,-88.25 716.57,-88.25"/>
<polygon fill="#00d4aa" stroke="#00d4aa" points="716.49,-91.75 726.49,-88.25 716.49,-84.75 716.49,-91.75"/>
</g>
<!-- I4 -->
<g id="node4" class="node">
<title>I4</title>
<path fill="#141922" stroke="#1e2a3a" d="M116.5,-224.12C116.5,-224.12 19.5,-224.12 19.5,-224.12 13.5,-224.12 7.5,-218.12 7.5,-212.12 7.5,-212.12 7.5,-176.38 7.5,-176.38 7.5,-170.38 13.5,-164.38 19.5,-164.38 19.5,-164.38 116.5,-164.38 116.5,-164.38 122.5,-164.38 128.5,-170.38 128.5,-176.38 128.5,-176.38 128.5,-212.12 128.5,-212.12 128.5,-218.12 122.5,-224.12 116.5,-224.12"/>
<text text-anchor="middle" x="68" y="-206.82" font-family="Helvetica,sans-Serif" font-size="14.00" fill="#e0e6ed">#4 Embedding</text>
<text text-anchor="middle" x="68" y="-189.57" font-family="Helvetica,sans-Serif" font-size="14.00" fill="#e0e6ed">backfill</text>
<text text-anchor="middle" x="68" y="-172.32" font-family="Helvetica,sans-Serif" font-size="14.00" fill="#e0e6ed">(45.5)</text>
</g>
<!-- I4&#45;&gt;I2 -->
<g id="edge5" class="edge">
<title>I4&#45;&gt;I2</title>
<path fill="none" stroke="#00d4aa" d="M128.87,-186.37C143.01,-184.6 158.03,-182.79 172,-181.25 228.1,-175.07 291.26,-169.12 340.69,-164.69"/>
<polygon fill="#00d4aa" stroke="#00d4aa" points="340.83,-168.2 350.48,-163.82 340.21,-161.22 340.83,-168.2"/>
</g>
<!-- I5 -->
<g id="node5" class="node">
<title>I5</title>
<path fill="#141922" stroke="#1e2a3a" d="M291.88,-232.5C291.88,-232.5 196.38,-232.5 196.38,-232.5 190.38,-232.5 184.38,-226.5 184.38,-220.5 184.38,-220.5 184.38,-202 184.38,-202 184.38,-196 190.38,-190 196.38,-190 196.38,-190 291.88,-190 291.88,-190 297.88,-190 303.88,-196 303.88,-202 303.88,-202 303.88,-220.5 303.88,-220.5 303.88,-226.5 297.88,-232.5 291.88,-232.5"/>
<text text-anchor="middle" x="244.12" y="-215.2" font-family="Helvetica,sans-Serif" font-size="14.00" fill="#e0e6ed">#5 BGE rerank</text>
<text text-anchor="middle" x="244.12" y="-197.95" font-family="Helvetica,sans-Serif" font-size="14.00" fill="#e0e6ed">(45.2)</text>
</g>
<!-- I4&#45;&gt;I5 -->
<g id="edge3" class="edge">
<title>I4&#45;&gt;I5</title>
<path fill="none" stroke="#00d4aa" d="M128.92,-200.1C142.97,-201.47 158.07,-202.95 172.54,-204.36"/>
<polygon fill="#00d4aa" stroke="#00d4aa" points="172.18,-207.84 182.47,-205.33 172.86,-200.87 172.18,-207.84"/>
</g>
<!-- I9 -->
<g id="node9" class="node">
<title>I9</title>
<path fill="#141922" stroke="#1e2a3a" d="M644.12,-236.5C644.12,-236.5 588.38,-236.5 588.38,-236.5 582.38,-236.5 576.38,-230.5 576.38,-224.5 576.38,-224.5 576.38,-206 576.38,-206 576.38,-200 582.38,-194 588.38,-194 588.38,-194 644.12,-194 644.12,-194 650.12,-194 656.12,-200 656.12,-206 656.12,-206 656.12,-224.5 656.12,-224.5 656.12,-230.5 650.12,-236.5 644.12,-236.5"/>
<text text-anchor="middle" x="616.25" y="-219.2" font-family="Helvetica,sans-Serif" font-size="14.00" fill="#e0e6ed">#9 HyDE</text>
<text text-anchor="middle" x="616.25" y="-201.95" font-family="Helvetica,sans-Serif" font-size="14.00" fill="#e0e6ed">(37.9)</text>
</g>
<!-- I5&#45;&gt;I9 -->
<g id="edge4" class="edge">
<title>I5&#45;&gt;I9</title>
<path fill="none" stroke="#00d4aa" d="M304.18,-211.89C376.24,-212.67 496.84,-213.97 564.77,-214.7"/>
<polygon fill="#00d4aa" stroke="#00d4aa" points="564.46,-218.2 574.5,-214.81 564.54,-211.2 564.46,-218.2"/>
</g>
<!-- I6 -->
<g id="node6" class="node">
<title>I6</title>
<path fill="#141922" stroke="#1e2a3a" d="M119.5,-42.5C119.5,-42.5 16.5,-42.5 16.5,-42.5 10.5,-42.5 4.5,-36.5 4.5,-30.5 4.5,-30.5 4.5,-12 4.5,-12 4.5,-6 10.5,0 16.5,0 16.5,0 119.5,0 119.5,0 125.5,0 131.5,-6 131.5,-12 131.5,-12 131.5,-30.5 131.5,-30.5 131.5,-36.5 125.5,-42.5 119.5,-42.5"/>
<text text-anchor="middle" x="68" y="-25.2" font-family="Helvetica,sans-Serif" font-size="14.00" fill="#e0e6ed">#6 Budget gate</text>
<text text-anchor="middle" x="68" y="-7.95" font-family="Helvetica,sans-Serif" font-size="14.00" fill="#e0e6ed">(42.7)</text>
</g>
<!-- I6&#45;&gt;I3 -->
<g id="edge8" class="edge">
<title>I6&#45;&gt;I3</title>
<path fill="none" stroke="#00d4aa" d="M131.9,-16.94C217.35,-12.68 374.32,-10.5 504,-40.25 524.49,-44.95 545.94,-53.3 564.47,-61.73"/>
<polygon fill="#00d4aa" stroke="#00d4aa" points="562.82,-64.82 573.36,-65.89 565.79,-58.48 562.82,-64.82"/>
</g>
<!-- I7 -->
<g id="node7" class="node">
<title>I7</title>
<path fill="#141922" stroke="#1e2a3a" d="M480.38,-109.12C480.38,-109.12 375.88,-109.12 375.88,-109.12 369.88,-109.12 363.88,-103.12 363.88,-97.12 363.88,-97.12 363.88,-61.38 363.88,-61.38 363.88,-55.38 369.88,-49.38 375.88,-49.38 375.88,-49.38 480.38,-49.38 480.38,-49.38 486.38,-49.38 492.38,-55.38 492.38,-61.38 492.38,-61.38 492.38,-97.12 492.38,-97.12 492.38,-103.12 486.38,-109.12 480.38,-109.12"/>
<text text-anchor="middle" x="428.12" y="-91.83" font-family="Helvetica,sans-Serif" font-size="14.00" fill="#e0e6ed">#7 Exact&#45;match</text>
<text text-anchor="middle" x="428.12" y="-74.58" font-family="Helvetica,sans-Serif" font-size="14.00" fill="#e0e6ed">cache</text>
<text text-anchor="middle" x="428.12" y="-57.33" font-family="Helvetica,sans-Serif" font-size="14.00" fill="#e0e6ed">(39.1)</text>
</g>
<!-- I8 -->
<g id="node8" class="node">
<title>I8</title>
<path fill="#141922" stroke="#1e2a3a" d="M476.25,-306.12C476.25,-306.12 380,-306.12 380,-306.12 374,-306.12 368,-300.12 368,-294.12 368,-294.12 368,-258.38 368,-258.38 368,-252.38 374,-246.38 380,-246.38 380,-246.38 476.25,-246.38 476.25,-246.38 482.25,-246.38 488.25,-252.38 488.25,-258.38 488.25,-258.38 488.25,-294.12 488.25,-294.12 488.25,-300.12 482.25,-306.12 476.25,-306.12"/>
<text text-anchor="middle" x="428.12" y="-288.82" font-family="Helvetica,sans-Serif" font-size="14.00" fill="#e0e6ed">#8 Multi&#45;agent</text>
<text text-anchor="middle" x="428.12" y="-271.57" font-family="Helvetica,sans-Serif" font-size="14.00" fill="#e0e6ed">pipeline</text>
<text text-anchor="middle" x="428.12" y="-254.32" font-family="Helvetica,sans-Serif" font-size="14.00" fill="#e0e6ed">(38.3)</text>
</g>
<!-- I12 -->
<g id="node12" class="node">
<title>I12</title>
<path fill="#141922" stroke="#1e2a3a" d="M680.5,-297.5C680.5,-297.5 552,-297.5 552,-297.5 546,-297.5 540,-291.5 540,-285.5 540,-285.5 540,-267 540,-267 540,-261 546,-255 552,-255 552,-255 680.5,-255 680.5,-255 686.5,-255 692.5,-261 692.5,-267 692.5,-267 692.5,-285.5 692.5,-285.5 692.5,-291.5 686.5,-297.5 680.5,-297.5"/>
<text text-anchor="middle" x="616.25" y="-280.2" font-family="Helvetica,sans-Serif" font-size="14.00" fill="#e0e6ed">#12 Spec decoding</text>
<text text-anchor="middle" x="616.25" y="-262.95" font-family="Helvetica,sans-Serif" font-size="14.00" fill="#e0e6ed">(36.3)</text>
</g>
<!-- I8&#45;&gt;I12 -->
<g id="edge11" class="edge">
<title>I8&#45;&gt;I12</title>
<path fill="none" stroke="#00d4aa" d="M488.53,-276.25C501.24,-276.25 514.93,-276.25 528.44,-276.25"/>
<polygon fill="#00d4aa" stroke="#00d4aa" points="528.21,-279.75 538.21,-276.25 528.21,-272.75 528.21,-279.75"/>
</g>
<!-- I10&#45;&gt;I2 -->
<g id="edge6" class="edge">
<title>I10&#45;&gt;I2</title>
<path fill="none" stroke="#00d4aa" d="M316.53,-120.79C324.64,-123.46 332.95,-126.2 341.22,-128.93"/>
<polygon fill="#00d4aa" stroke="#00d4aa" points="339.99,-132.21 350.59,-132.02 342.19,-125.56 339.99,-132.21"/>
</g>
<!-- I10&#45;&gt;I7 -->
<g id="edge2" class="edge">
<title>I10&#45;&gt;I7</title>
<path fill="none" stroke="#00d4aa" d="M316.53,-90.19C328.31,-89.02 340.54,-87.81 352.39,-86.64"/>
<polygon fill="#00d4aa" stroke="#00d4aa" points="352.5,-90.15 362.1,-85.68 351.81,-83.18 352.5,-90.15"/>
</g>
<!-- I11 -->
<g id="node11" class="node">
<title>I11</title>
<path fill="#141922" stroke="#1e2a3a" d="M301.25,-297.5C301.25,-297.5 187,-297.5 187,-297.5 181,-297.5 175,-291.5 175,-285.5 175,-285.5 175,-267 175,-267 175,-261 181,-255 187,-255 187,-255 301.25,-255 301.25,-255 307.25,-255 313.25,-261 313.25,-267 313.25,-267 313.25,-285.5 313.25,-285.5 313.25,-291.5 307.25,-297.5 301.25,-297.5"/>
<text text-anchor="middle" x="244.12" y="-280.2" font-family="Helvetica,sans-Serif" font-size="14.00" fill="#e0e6ed">#11 LLMLingua&#45;2</text>
<text text-anchor="middle" x="244.12" y="-262.95" font-family="Helvetica,sans-Serif" font-size="14.00" fill="#e0e6ed">(36.4)</text>
</g>
<!-- I11&#45;&gt;I8 -->
<g id="edge10" class="edge">
<title>I11&#45;&gt;I8</title>
<path fill="none" stroke="#00d4aa" d="M313.67,-276.25C327.67,-276.25 342.42,-276.25 356.48,-276.25"/>
<polygon fill="#00d4aa" stroke="#00d4aa" points="356.07,-279.75 366.07,-276.25 356.07,-272.75 356.07,-279.75"/>
</g>
<!-- I22 -->
<g id="node14" class="node">
<title>I22</title>
<path fill="#141922" stroke="#1e2a3a" d="M123.25,-284.5C123.25,-284.5 12.75,-284.5 12.75,-284.5 6.75,-284.5 0.75,-278.5 0.75,-272.5 0.75,-272.5 0.75,-254 0.75,-254 0.75,-248 6.75,-242 12.75,-242 12.75,-242 123.25,-242 123.25,-242 129.25,-242 135.25,-248 135.25,-254 135.25,-254 135.25,-272.5 135.25,-272.5 135.25,-278.5 129.25,-284.5 123.25,-284.5"/>
<text text-anchor="middle" x="68" y="-267.2" font-family="Helvetica,sans-Serif" font-size="14.00" fill="#e0e6ed">#22 Auto&#45;lifeline</text>
<text text-anchor="middle" x="68" y="-249.95" font-family="Helvetica,sans-Serif" font-size="14.00" fill="#e0e6ed">(31.6)</text>
</g>
</g>
</svg>
