<?xml version="1.0" encoding="UTF-8" standalone="no"?>
<!DOCTYPE svg PUBLIC "-//W3C//DTD SVG 1.1//EN"
 "http://www.w3.org/Graphics/SVG/1.1/DTD/svg11.dtd">
<!-- Generated by graphviz version 12.2.1 (0)
 -->
<!-- Title: arch Pages: 1 -->
<svg width="560pt" height="418pt"
 viewBox="0.00 0.00 560.00 417.75" xmlns="http://www.w3.org/2000/svg" xmlns:xlink="http://www.w3.org/1999/xlink">
<g id="graph0" class="graph" transform="scale(1 1) rotate(0) translate(4 413.75)">
<title>arch</title>
<polygon fill="#0b0f14" stroke="none" points="-4,4 -4,-413.75 556,-413.75 556,4 -4,4"/>
<g id="clust1" class="cluster">
<title>cluster_customer</title>
<polygon fill="#0b0f14" stroke="#1e2a37" points="124,-324.5 124,-401.75 282,-401.75 282,-324.5 124,-324.5"/>
<text text-anchor="middle" x="203" y="-384.45" font-family="Times,serif" font-size="14.00" fill="#6b7f93">Customer (internet)</text>
</g>
<g id="clust2" class="cluster">
<title>cluster_edge</title>
<polygon fill="#0b0f14" stroke="#1e2a37" points="83,-219.5 83,-296.75 324,-296.75 324,-219.5 83,-219.5"/>
<text text-anchor="middle" x="203.5" y="-279.45" font-family="Times,serif" font-size="14.00" fill="#6b7f93">Edge (Tailscale Serve · LE cert)</text>
</g>
<g id="clust3" class="cluster">
<title>cluster_app</title>
<polygon fill="#0b0f14" stroke="#1e2a37" points="68,-123.25 68,-200.5 352,-200.5 352,-123.25 68,-123.25"/>
<text text-anchor="middle" x="210" y="-183.2" font-family="Times,serif" font-size="14.00" fill="#6b7f93">App tier</text>
</g>
<g id="clust4" class="cluster">
<title>cluster_data</title>
<polygon fill="#0b0f14" stroke="#1e2a37" points="8,-8 8,-95.5 437,-95.5 437,-8 8,-8"/>
<text text-anchor="middle" x="222.5" y="-78.2" font-family="Times,serif" font-size="14.00" fill="#6b7f93">Data tier</text>
</g>
<g id="clust5" class="cluster">
<title>cluster_bus</title>
<polygon fill="#0b0f14" stroke="#1e2a37" points="445,-13.12 445,-90.38 544,-90.38 544,-13.12 445,-13.12"/>
<text text-anchor="middle" x="494.5" y="-73.08" font-family="Times,serif" font-size="14.00" fill="#6b7f93">Control bus</text>
</g>
<!-- BROWSER -->
<g id="node1" class="node">
<title>BROWSER</title>
<path fill="#111821" stroke="#1e2a37" d="M247.75,-368.5C247.75,-368.5 158.25,-368.5 158.25,-368.5 152.25,-368.5 146.25,-362.5 146.25,-356.5 146.25,-356.5 146.25,-344.5 146.25,-344.5 146.25,-338.5 152.25,-332.5 158.25,-332.5 158.25,-332.5 247.75,-332.5 247.75,-332.5 253.75,-332.5 259.75,-338.5 259.75,-344.5 259.75,-344.5 259.75,-356.5 259.75,-356.5 259.75,-362.5 253.75,-368.5 247.75,-368.5"/>
<text text-anchor="middle" x="203" y="-353.75" font-family="Helvetica,sans-Serif" font-size="10.00" fill="#cfe7ff">Browser</text>
<text text-anchor="middle" x="203" y="-341" font-family="Helvetica,sans-Serif" font-size="10.00" fill="#cfe7ff">anywhere on tailnet</text>
</g>
<!-- TS -->
<g id="node2" class="node">
<title>TS</title>
<path fill="#0f2a1e" stroke="#1e2a37" d="M254.5,-263.5C254.5,-263.5 151.5,-263.5 151.5,-263.5 145.5,-263.5 139.5,-257.5 139.5,-251.5 139.5,-251.5 139.5,-239.5 139.5,-239.5 139.5,-233.5 145.5,-227.5 151.5,-227.5 151.5,-227.5 254.5,-227.5 254.5,-227.5 260.5,-227.5 266.5,-233.5 266.5,-239.5 266.5,-239.5 266.5,-251.5 266.5,-251.5 266.5,-257.5 260.5,-263.5 254.5,-263.5"/>
<text text-anchor="middle" x="203" y="-248.75" font-family="Helvetica,sans-Serif" font-size="10.00" fill="#4ade80">vm&#45;1.tail55d152.ts.net</text>
<text text-anchor="middle" x="203" y="-236" font-family="Helvetica,sans-Serif" font-size="10.00" fill="#4ade80">/c3i → :4200</text>
</g>
<!-- BROWSER&#45;&gt;TS -->
<g id="edge1" class="edge">
<title>BROWSER&#45;&gt;TS</title>
<path fill="none" stroke="#60a5fa" d="M203,-332.03C203,-316.47 203,-293.42 203,-275.16"/>
<polygon fill="#60a5fa" stroke="#60a5fa" points="206.5,-275.23 203,-265.23 199.5,-275.23 206.5,-275.23"/>
<text text-anchor="middle" x="215.75" y="-306.9" font-family="Helvetica,sans-Serif" font-size="8.00">HTTPS</text>
</g>
<!-- HTTP -->
<g id="node3" class="node">
<title>HTTP</title>
<path fill="#111821" stroke="#1e2a37" d="M232,-167.25C232,-167.25 174,-167.25 174,-167.25 168,-167.25 162,-161.25 162,-155.25 162,-155.25 162,-143.25 162,-143.25 162,-137.25 168,-131.25 174,-131.25 174,-131.25 232,-131.25 232,-131.25 238,-131.25 244,-137.25 244,-143.25 244,-143.25 244,-155.25 244,-155.25 244,-161.25 238,-167.25 232,-167.25"/>
<text text-anchor="middle" x="203" y="-152.5" font-family="Helvetica,sans-Serif" font-size="10.00" fill="#cfe7ff">sa&#45;plan serve</text>
<text text-anchor="middle" x="203" y="-139.75" font-family="Helvetica,sans-Serif" font-size="10.00" fill="#cfe7ff">:4200</text>
</g>
<!-- TS&#45;&gt;HTTP -->
<g id="edge2" class="edge">
<title>TS&#45;&gt;HTTP</title>
<path fill="none" stroke="#60a5fa" d="M203,-227.21C203,-213.75 203,-194.76 203,-179.01"/>
<polygon fill="#60a5fa" stroke="#60a5fa" points="206.5,-179.26 203,-169.26 199.5,-179.26 206.5,-179.26"/>
</g>
<!-- KMS -->
<g id="node6" class="node">
<title>KMS</title>
<path fill="#111821" stroke="#1e2a37" d="M192.25,-62.25C192.25,-62.25 27.75,-62.25 27.75,-62.25 21.75,-62.25 15.75,-56.25 15.75,-50.25 15.75,-50.25 15.75,-28 15.75,-28 15.75,-22 21.75,-16 27.75,-16 27.75,-16 192.25,-16 192.25,-16 198.25,-16 204.25,-22 204.25,-28 204.25,-28 204.25,-50.25 204.25,-50.25 204.25,-56.25 198.25,-62.25 192.25,-62.25"/>
<text text-anchor="middle" x="110" y="-48.75" font-family="Helvetica,sans-Serif" font-size="10.00" fill="#cfe7ff">Smriti KMS</text>
<text text-anchor="middle" x="110" y="-36" font-family="Helvetica,sans-Serif" font-size="10.00" fill="#cfe7ff">sub&#45;projects/c3i/data/kms/smriti.db</text>
<text text-anchor="middle" x="110" y="-23.25" font-family="Helvetica,sans-Serif" font-size="10.00" fill="#cfe7ff">169 MB · 22 tables</text>
</g>
<!-- HTTP&#45;&gt;KMS -->
<g id="edge8" class="edge">
<title>HTTP&#45;&gt;KMS</title>
<path fill="none" stroke="#60a5fa" d="M188.06,-130.88C174.25,-114.83 153.43,-90.62 136.76,-71.23"/>
<polygon fill="#60a5fa" stroke="#60a5fa" points="139.59,-69.16 130.42,-63.86 134.28,-73.73 139.59,-69.16"/>
</g>
<!-- JSON -->
<g id="node7" class="node">
<title>JSON</title>
<path fill="#111821" stroke="#1e2a37" d="M327.25,-57.12C327.25,-57.12 234.75,-57.12 234.75,-57.12 228.75,-57.12 222.75,-51.12 222.75,-45.12 222.75,-45.12 222.75,-33.12 222.75,-33.12 222.75,-27.12 228.75,-21.12 234.75,-21.12 234.75,-21.12 327.25,-21.12 327.25,-21.12 333.25,-21.12 339.25,-27.12 339.25,-33.12 339.25,-33.12 339.25,-45.12 339.25,-45.12 339.25,-51.12 333.25,-57.12 327.25,-57.12"/>
<text text-anchor="middle" x="281" y="-42.38" font-family="Helvetica,sans-Serif" font-size="10.00" fill="#cfe7ff">symbiosis.json</text>
<text text-anchor="middle" x="281" y="-29.62" font-family="Helvetica,sans-Serif" font-size="10.00" fill="#cfe7ff">docs/journal/monitor</text>
</g>
<!-- HTTP&#45;&gt;JSON -->
<g id="edge3" class="edge">
<title>HTTP&#45;&gt;JSON</title>
<path fill="none" stroke="#60a5fa" d="M219.92,-130.98C224.99,-125.49 230.41,-119.28 235,-113.25 246.12,-98.66 257.11,-81.32 265.56,-67.18"/>
<polygon fill="#60a5fa" stroke="#60a5fa" points="268.41,-69.24 270.47,-58.85 262.38,-65.7 268.41,-69.24"/>
</g>
<!-- TLS -->
<g id="node4" class="node">
<title>TLS</title>
<path fill="#111821" stroke="#1e2a37" d="M131.5,-167.25C131.5,-167.25 88.5,-167.25 88.5,-167.25 82.5,-167.25 76.5,-161.25 76.5,-155.25 76.5,-155.25 76.5,-143.25 76.5,-143.25 76.5,-137.25 82.5,-131.25 88.5,-131.25 88.5,-131.25 131.5,-131.25 131.5,-131.25 137.5,-131.25 143.5,-137.25 143.5,-143.25 143.5,-143.25 143.5,-155.25 143.5,-155.25 143.5,-161.25 137.5,-167.25 131.5,-167.25"/>
<text text-anchor="middle" x="110" y="-152.5" font-family="Helvetica,sans-Serif" font-size="10.00" fill="#cfe7ff">sa&#45;plan tls</text>
<text text-anchor="middle" x="110" y="-139.75" font-family="Helvetica,sans-Serif" font-size="10.00" fill="#cfe7ff">:8443</text>
</g>
<!-- TLS&#45;&gt;KMS -->
<g id="edge9" class="edge">
<title>TLS&#45;&gt;KMS</title>
<path fill="none" stroke="#60a5fa" d="M110,-130.88C110,-115.63 110,-92.99 110,-74.15"/>
<polygon fill="#60a5fa" stroke="#60a5fa" points="113.5,-74.23 110,-64.23 106.5,-74.23 113.5,-74.23"/>
</g>
<!-- MON -->
<g id="node5" class="node">
<title>MON</title>
<path fill="#2a1e0f" stroke="#1e2a37" d="M331.62,-167.25C331.62,-167.25 274.38,-167.25 274.38,-167.25 268.38,-167.25 262.38,-161.25 262.38,-155.25 262.38,-155.25 262.38,-143.25 262.38,-143.25 262.38,-137.25 268.38,-131.25 274.38,-131.25 274.38,-131.25 331.62,-131.25 331.62,-131.25 337.62,-131.25 343.62,-137.25 343.62,-143.25 343.62,-143.25 343.62,-155.25 343.62,-155.25 343.62,-161.25 337.62,-167.25 331.62,-167.25"/>
<text text-anchor="middle" x="303" y="-152.5" font-family="Helvetica,sans-Serif" font-size="10.00" fill="#fbbf24">p9 monitor</text>
<text text-anchor="middle" x="303" y="-139.75" font-family="Helvetica,sans-Serif" font-size="10.00" fill="#fbbf24">systemd · 5 s</text>
</g>
<!-- MON&#45;&gt;KMS -->
<g id="edge4" class="edge">
<title>MON&#45;&gt;KMS</title>
<path fill="none" stroke="#60a5fa" d="M271.99,-130.88C241.8,-113.96 195.41,-87.97 160,-68.14"/>
<polygon fill="#60a5fa" stroke="#60a5fa" points="162.08,-65.29 151.64,-63.46 158.66,-71.4 162.08,-65.29"/>
<text text-anchor="middle" x="250.44" y="-105.65" font-family="Helvetica,sans-Serif" font-size="8.00">SELECT</text>
</g>
<!-- MON&#45;&gt;JSON -->
<g id="edge5" class="edge">
<title>MON&#45;&gt;JSON</title>
<path fill="none" stroke="#60a5fa" d="M299.47,-130.88C296.05,-114.09 290.82,-88.36 286.79,-68.58"/>
<polygon fill="#60a5fa" stroke="#60a5fa" points="290.25,-68.04 284.83,-58.94 283.39,-69.43 290.25,-68.04"/>
<text text-anchor="middle" x="313.63" y="-105.65" font-family="Helvetica,sans-Serif" font-size="8.00">write_file</text>
</g>
<!-- LOG -->
<g id="node8" class="node">
<title>LOG</title>
<path fill="#111821" stroke="#1e2a37" d="M416.75,-57.12C416.75,-57.12 369.25,-57.12 369.25,-57.12 363.25,-57.12 357.25,-51.12 357.25,-45.12 357.25,-45.12 357.25,-33.12 357.25,-33.12 357.25,-27.12 363.25,-21.12 369.25,-21.12 369.25,-21.12 416.75,-21.12 416.75,-21.12 422.75,-21.12 428.75,-27.12 428.75,-33.12 428.75,-33.12 428.75,-45.12 428.75,-45.12 428.75,-51.12 422.75,-57.12 416.75,-57.12"/>
<text text-anchor="middle" x="393" y="-36" font-family="Helvetica,sans-Serif" font-size="10.00" fill="#cfe7ff">monitor.log</text>
</g>
<!-- MON&#45;&gt;LOG -->
<g id="edge6" class="edge">
<title>MON&#45;&gt;LOG</title>
<path fill="none" stroke="#60a5fa" d="M319.78,-131.1C325.08,-125.51 330.89,-119.21 336,-113.25 348.94,-98.16 362.66,-80.61 373.4,-66.49"/>
<polygon fill="#60a5fa" stroke="#60a5fa" points="376.17,-68.63 379.4,-58.54 370.58,-64.41 376.17,-68.63"/>
</g>
<!-- ZEN -->
<g id="node9" class="node">
<title>ZEN</title>
<path fill="#1e1a2e" stroke="#1e2a37" d="M513.12,-57.12C513.12,-57.12 464.88,-57.12 464.88,-57.12 458.88,-57.12 452.88,-51.12 452.88,-45.12 452.88,-45.12 452.88,-33.12 452.88,-33.12 452.88,-27.12 458.88,-21.12 464.88,-21.12 464.88,-21.12 513.12,-21.12 513.12,-21.12 519.12,-21.12 525.12,-27.12 525.12,-33.12 525.12,-33.12 525.12,-45.12 525.12,-45.12 525.12,-51.12 519.12,-57.12 513.12,-57.12"/>
<text text-anchor="middle" x="489" y="-42.38" font-family="Helvetica,sans-Serif" font-size="10.00" fill="#a78bfa">Zenoh</text>
<text text-anchor="middle" x="489" y="-29.62" font-family="Helvetica,sans-Serif" font-size="10.00" fill="#a78bfa">indrajaal/**</text>
</g>
<!-- MON&#45;&gt;ZEN -->
<g id="edge7" class="edge">
<title>MON&#45;&gt;ZEN</title>
<path fill="none" stroke="#60a5fa" d="M343.9,-138.35C372.8,-130.04 411.48,-116.17 441,-95.5 452.25,-87.62 462.55,-76.54 470.7,-66.36"/>
<polygon fill="#60a5fa" stroke="#60a5fa" points="473.34,-68.66 476.62,-58.58 467.78,-64.42 473.34,-68.66"/>
<text text-anchor="middle" x="434.32" y="-105.65" font-family="Helvetica,sans-Serif" font-size="8.00">put</text>
</g>
</g>
</svg>
