<?xml version="1.0" encoding="UTF-8" standalone="no"?>
<!DOCTYPE svg PUBLIC "-//W3C//DTD SVG 1.1//EN"
 "http://www.w3.org/Graphics/SVG/1.1/DTD/svg11.dtd">
<!-- Generated by graphviz version 12.2.1 (0)
 -->
<!-- Title: ooda Pages: 1 -->
<svg width="1159pt" height="124pt"
 viewBox="0.00 0.00 1158.50 124.00" xmlns="http://www.w3.org/2000/svg" xmlns:xlink="http://www.w3.org/1999/xlink">
<g id="graph0" class="graph" transform="scale(1 1) rotate(0) translate(4 120)">
<title>ooda</title>
<polygon fill="#0b0f14" stroke="none" points="-4,4 -4,-120 1154.5,-120 1154.5,4 -4,4"/>
<!-- KMS -->
<g id="node1" class="node">
<title>KMS</title>
<path fill="#132137" stroke="#1e2a37" d="M143.5,-36C143.5,-36 12,-36 12,-36 6,-36 0,-30 0,-24 0,-24 0,-12 0,-12 0,-6 6,0 12,0 12,0 143.5,0 143.5,0 149.5,0 155.5,-6 155.5,-12 155.5,-12 155.5,-24 155.5,-24 155.5,-30 149.5,-36 143.5,-36"/>
<text text-anchor="middle" x="77.75" y="-21.05" font-family="Helvetica,sans-Serif" font-size="11.00" fill="#cfe7ff">Smriti KMS</text>
<text text-anchor="middle" x="77.75" y="-7.55" font-family="Helvetica,sans-Serif" font-size="11.00" fill="#cfe7ff">22 tables · 35 326 holons</text>
</g>
<!-- OBS -->
<g id="node2" class="node">
<title>OBS</title>
<path fill="#111821" stroke="#1e2a37" d="M270,-70C270,-70 204.5,-70 204.5,-70 198.5,-70 192.5,-64 192.5,-58 192.5,-58 192.5,-46 192.5,-46 192.5,-40 198.5,-34 204.5,-34 204.5,-34 270,-34 270,-34 276,-34 282,-40 282,-46 282,-46 282,-58 282,-58 282,-64 276,-70 270,-70"/>
<text text-anchor="middle" x="237.25" y="-55.05" font-family="Helvetica,sans-Serif" font-size="11.00" fill="#cfe7ff">Observe</text>
<text text-anchor="middle" x="237.25" y="-41.55" font-family="Helvetica,sans-Serif" font-size="11.00" fill="#cfe7ff">10 SQL reads</text>
</g>
<!-- KMS&#45;&gt;OBS -->
<g id="edge1" class="edge">
<title>KMS&#45;&gt;OBS</title>
<path fill="none" stroke="#60a5fa" d="M155.65,-34.6C164.15,-36.43 172.67,-38.27 180.82,-40.03"/>
<polygon fill="#60a5fa" stroke="#60a5fa" points="180.07,-43.45 190.58,-42.14 181.55,-36.61 180.07,-43.45"/>
</g>
<!-- OR -->
<g id="node3" class="node">
<title>OR</title>
<path fill="#111821" stroke="#1e2a37" d="M583,-70C583,-70 425.25,-70 425.25,-70 419.25,-70 413.25,-64 413.25,-58 413.25,-58 413.25,-46 413.25,-46 413.25,-40 419.25,-34 425.25,-34 425.25,-34 583,-34 583,-34 589,-34 595,-40 595,-46 595,-46 595,-58 595,-58 595,-64 589,-70 583,-70"/>
<text text-anchor="middle" x="504.12" y="-55.05" font-family="Helvetica,sans-Serif" font-size="11.00" fill="#cfe7ff">Orient</text>
<text text-anchor="middle" x="504.12" y="-41.55" font-family="Helvetica,sans-Serif" font-size="11.00" fill="#cfe7ff">embed_cov · tok/sess · $/sess</text>
</g>
<!-- OBS&#45;&gt;OR -->
<g id="edge2" class="edge">
<title>OBS&#45;&gt;OR</title>
<path fill="none" stroke="#60a5fa" d="M282.29,-52C314.69,-52 360.09,-52 401.31,-52"/>
<polygon fill="#60a5fa" stroke="#60a5fa" points="401.29,-55.5 411.29,-52 401.29,-48.5 401.29,-55.5"/>
</g>
<!-- DEC -->
<g id="node4" class="node">
<title>DEC</title>
<path fill="#111821" stroke="#1e2a37" d="M708.75,-62C708.75,-62 644,-62 644,-62 638,-62 632,-56 632,-50 632,-50 632,-38 632,-38 632,-32 638,-26 644,-26 644,-26 708.75,-26 708.75,-26 714.75,-26 720.75,-32 720.75,-38 720.75,-38 720.75,-50 720.75,-50 720.75,-56 714.75,-62 708.75,-62"/>
<text text-anchor="middle" x="676.38" y="-47.05" font-family="Helvetica,sans-Serif" font-size="11.00" fill="#cfe7ff">Decide</text>
<text text-anchor="middle" x="676.38" y="-33.55" font-family="Helvetica,sans-Serif" font-size="11.00" fill="#cfe7ff">5 alarm rules</text>
</g>
<!-- OR&#45;&gt;DEC -->
<g id="edge3" class="edge">
<title>OR&#45;&gt;DEC</title>
<path fill="none" stroke="#60a5fa" d="M595.24,-47.77C603.91,-47.36 612.51,-46.95 620.69,-46.57"/>
<polygon fill="#60a5fa" stroke="#60a5fa" points="620.58,-50.08 630.41,-46.11 620.25,-43.09 620.58,-50.08"/>
</g>
<!-- DEC&#45;&gt;KMS -->
<g id="edge8" class="edge">
<title>DEC&#45;&gt;KMS</title>
<path fill="none" stroke="#f87171" stroke-dasharray="5,2" d="M631.89,-31.89C620.02,-29.09 607.1,-26.49 595,-25 445.59,-6.55 270.02,-9.3 166.92,-13.37"/>
<polygon fill="#f87171" stroke="#f87171" points="167,-9.86 157.15,-13.77 167.29,-16.86 167,-9.86"/>
<text text-anchor="middle" x="347.62" y="-25.28" font-family="Helvetica,sans-Serif" font-size="9.00" fill="#6b7f93">feedback via</text>
<text text-anchor="middle" x="347.62" y="-14.03" font-family="Helvetica,sans-Serif" font-size="9.00" fill="#6b7f93">remediation modules</text>
</g>
<!-- ACT -->
<g id="node5" class="node">
<title>ACT</title>
<path fill="#111821" stroke="#1e2a37" d="M893,-62C893,-62 769.75,-62 769.75,-62 763.75,-62 757.75,-56 757.75,-50 757.75,-50 757.75,-38 757.75,-38 757.75,-32 763.75,-26 769.75,-26 769.75,-26 893,-26 893,-26 899,-26 905,-32 905,-38 905,-38 905,-50 905,-50 905,-56 899,-62 893,-62"/>
<text text-anchor="middle" x="831.38" y="-47.05" font-family="Helvetica,sans-Serif" font-size="11.00" fill="#cfe7ff">Act</text>
<text text-anchor="middle" x="831.38" y="-33.55" font-family="Helvetica,sans-Serif" font-size="11.00" fill="#cfe7ff">write JSON + Zenoh put</text>
</g>
<!-- DEC&#45;&gt;ACT -->
<g id="edge4" class="edge">
<title>DEC&#45;&gt;ACT</title>
<path fill="none" stroke="#60a5fa" d="M721.22,-44C729.08,-44 737.5,-44 746.06,-44"/>
<polygon fill="#60a5fa" stroke="#60a5fa" points="745.83,-47.5 755.83,-44 745.83,-40.5 745.83,-47.5"/>
</g>
<!-- DASH -->
<g id="node6" class="node">
<title>DASH</title>
<path fill="#0f2a1e" stroke="#1e2a37" d="M1105.12,-62C1105.12,-62 1029.88,-62 1029.88,-62 1023.88,-62 1017.88,-56 1017.88,-50 1017.88,-50 1017.88,-38 1017.88,-38 1017.88,-32 1023.88,-26 1029.88,-26 1029.88,-26 1105.12,-26 1105.12,-26 1111.12,-26 1117.12,-32 1117.12,-38 1117.12,-38 1117.12,-50 1117.12,-50 1117.12,-56 1111.12,-62 1105.12,-62"/>
<text text-anchor="middle" x="1067.5" y="-47.05" font-family="Helvetica,sans-Serif" font-size="11.00" fill="#4ade80">Dashboard</text>
<text text-anchor="middle" x="1067.5" y="-33.55" font-family="Helvetica,sans-Serif" font-size="11.00" fill="#4ade80">symbiosis.html</text>
</g>
<!-- ACT&#45;&gt;DASH -->
<g id="edge5" class="edge">
<title>ACT&#45;&gt;DASH</title>
<path fill="none" stroke="#60a5fa" d="M905.49,-44C937.85,-44 975.45,-44 1006.18,-44"/>
<polygon fill="#60a5fa" stroke="#60a5fa" points="1006.08,-47.5 1016.08,-44 1006.08,-40.5 1006.08,-47.5"/>
<text text-anchor="middle" x="944.75" y="-46.7" font-family="Helvetica,sans-Serif" font-size="9.00" fill="#6b7f93">HTTP 200</text>
</g>
<!-- ZEN -->
<g id="node7" class="node">
<title>ZEN</title>
<path fill="#1e1a2e" stroke="#1e2a37" d="M1138.5,-116C1138.5,-116 996.5,-116 996.5,-116 990.5,-116 984.5,-110 984.5,-104 984.5,-104 984.5,-92 984.5,-92 984.5,-86 990.5,-80 996.5,-80 996.5,-80 1138.5,-80 1138.5,-80 1144.5,-80 1150.5,-86 1150.5,-92 1150.5,-92 1150.5,-104 1150.5,-104 1150.5,-110 1144.5,-116 1138.5,-116"/>
<text text-anchor="middle" x="1067.5" y="-101.05" font-family="Helvetica,sans-Serif" font-size="11.00" fill="#a78bfa">Zenoh</text>
<text text-anchor="middle" x="1067.5" y="-87.55" font-family="Helvetica,sans-Serif" font-size="11.00" fill="#a78bfa">indrajaal/l5/ooda/symbiosis</text>
</g>
<!-- ACT&#45;&gt;ZEN -->
<g id="edge6" class="edge">
<title>ACT&#45;&gt;ZEN</title>
<path fill="none" stroke="#60a5fa" d="M905.49,-60.86C927.73,-65.99 952.44,-71.69 975.7,-77.06"/>
<polygon fill="#60a5fa" stroke="#60a5fa" points="974.62,-80.4 985.15,-79.24 976.19,-73.58 974.62,-80.4"/>
</g>
<!-- ZEN&#45;&gt;OBS -->
<g id="edge7" class="edge">
<title>ZEN&#45;&gt;OBS</title>
<path fill="none" stroke="#4ade80" stroke-dasharray="5,2" d="M984.15,-98C939.28,-98 882.78,-98 832.38,-98 503.12,-98 503.12,-98 503.12,-98 429.7,-98 346.5,-80.63 293.26,-67.24"/>
<polygon fill="#4ade80" stroke="#4ade80" points="294.39,-63.91 283.83,-64.82 292.65,-70.7 294.39,-63.91"/>
<text text-anchor="middle" x="676.38" y="-100.7" font-family="Helvetica,sans-Serif" font-size="9.00" fill="#6b7f93">subscribers react</text>
</g>
</g>
</svg>
