<?xml version="1.0" encoding="UTF-8" standalone="no"?>
<!DOCTYPE svg PUBLIC "-//W3C//DTD SVG 1.1//EN"
 "http://www.w3.org/Graphics/SVG/1.1/DTD/svg11.dtd">
<!-- Generated by graphviz version 12.2.1 (0)
 -->
<!-- Title: OODA Pages: 1 -->
<svg width="1581pt" height="341pt"
 viewBox="0.00 0.00 1580.50 341.00" xmlns="http://www.w3.org/2000/svg" xmlns:xlink="http://www.w3.org/1999/xlink">
<g id="graph0" class="graph" transform="scale(1 1) rotate(0) translate(4 337)">
<title>OODA</title>
<polygon fill="#0a0e17" stroke="none" points="-4,4 -4,-337 1576.5,-337 1576.5,4 -4,4"/>
<g id="clust1" class="cluster">
<title>cluster_o</title>
<polygon fill="#0a0e17" stroke="#00bfff" points="935.5,-58 935.5,-325 1155,-325 1155,-58 935.5,-58"/>
<text text-anchor="middle" x="1045.25" y="-307.7" font-family="Helvetica,sans-Serif" font-size="14.00" fill="#00bfff">OBSERVE</text>
</g>
<g id="clust2" class="cluster">
<title>cluster_or</title>
<polygon fill="#0a0e17" stroke="#3dd68c" points="1193,-40 1193,-159 1564.5,-159 1564.5,-40 1193,-40"/>
<text text-anchor="middle" x="1378.75" y="-141.7" font-family="Helvetica,sans-Serif" font-size="14.00" fill="#3dd68c">ORIENT</text>
</g>
<g id="clust3" class="cluster">
<title>cluster_d</title>
<polygon fill="#0a0e17" stroke="#f5a623" points="8,-41 8,-142 609.75,-142 609.75,-41 8,-41"/>
<text text-anchor="middle" x="308.88" y="-124.7" font-family="Helvetica,sans-Serif" font-size="14.00" fill="#f5a623">DECIDE</text>
</g>
<g id="clust4" class="cluster">
<title>cluster_a</title>
<polygon fill="#0a0e17" stroke="#ff4757" points="630.75,-58 630.75,-264 830.75,-264 830.75,-58 630.75,-58"/>
<text text-anchor="middle" x="730.75" y="-246.7" font-family="Helvetica,sans-Serif" font-size="14.00" fill="#ff4757">ACT</text>
</g>
<!-- Session -->
<g id="node1" class="node">
<title>Session</title>
<path fill="#141922" stroke="#1e2a3a" d="M1122.25,-291.25C1122.25,-291.25 968.25,-291.25 968.25,-291.25 962.25,-291.25 956.25,-285.25 956.25,-279.25 956.25,-279.25 956.25,-260.75 956.25,-260.75 956.25,-254.75 962.25,-248.75 968.25,-248.75 968.25,-248.75 1122.25,-248.75 1122.25,-248.75 1128.25,-248.75 1134.25,-254.75 1134.25,-260.75 1134.25,-260.75 1134.25,-279.25 1134.25,-279.25 1134.25,-285.25 1128.25,-291.25 1122.25,-291.25"/>
<text text-anchor="middle" x="1045.25" y="-273.95" font-family="Helvetica,sans-Serif" font-size="14.00" fill="#e0e6ed">session_metrics</text>
<text text-anchor="middle" x="1045.25" y="-256.7" font-family="Helvetica,sans-Serif" font-size="14.00" fill="#e0e6ed">16 rows · $621.50 total</text>
</g>
<!-- OODA -->
<g id="node5" class="node">
<title>OODA</title>
<path fill="#141922" stroke="#1e2a3a" d="M1358,-125.5C1358,-125.5 1213,-125.5 1213,-125.5 1207,-125.5 1201,-119.5 1201,-113.5 1201,-113.5 1201,-60.5 1201,-60.5 1201,-54.5 1207,-48.5 1213,-48.5 1213,-48.5 1358,-48.5 1358,-48.5 1364,-48.5 1370,-54.5 1370,-60.5 1370,-60.5 1370,-113.5 1370,-113.5 1370,-119.5 1364,-125.5 1358,-125.5"/>
<text text-anchor="middle" x="1285.5" y="-108.2" font-family="Helvetica,sans-Serif" font-size="14.00" fill="#e0e6ed">v_ooda_live view</text>
<text text-anchor="middle" x="1285.5" y="-90.95" font-family="Helvetica,sans-Serif" font-size="14.00" fill="#e0e6ed">cost/24h $207.67</text>
<text text-anchor="middle" x="1285.5" y="-73.7" font-family="Helvetica,sans-Serif" font-size="14.00" fill="#e0e6ed">cache&#45;hit 40.2%</text>
<text text-anchor="middle" x="1285.5" y="-56.45" font-family="Helvetica,sans-Serif" font-size="14.00" fill="#e0e6ed">embed&#45;coverage 37%</text>
</g>
<!-- Session&#45;&gt;OODA -->
<g id="edge1" class="edge">
<title>Session&#45;&gt;OODA</title>
<path fill="none" stroke="#00d4aa" d="M1134.59,-249.74C1141.74,-246.65 1148.64,-243.09 1155,-239 1196.31,-212.44 1231.56,-168.72 1254.81,-134.97"/>
<polygon fill="#00d4aa" stroke="#00d4aa" points="1257.5,-137.24 1260.19,-126.99 1251.7,-133.32 1257.5,-137.24"/>
</g>
<!-- Pipeline -->
<g id="node2" class="node">
<title>Pipeline</title>
<path fill="#141922" stroke="#1e2a3a" d="M1135,-230.25C1135,-230.25 955.5,-230.25 955.5,-230.25 949.5,-230.25 943.5,-224.25 943.5,-218.25 943.5,-218.25 943.5,-199.75 943.5,-199.75 943.5,-193.75 949.5,-187.75 955.5,-187.75 955.5,-187.75 1135,-187.75 1135,-187.75 1141,-187.75 1147,-193.75 1147,-199.75 1147,-199.75 1147,-218.25 1147,-218.25 1147,-224.25 1141,-230.25 1135,-230.25"/>
<text text-anchor="middle" x="1045.25" y="-212.95" font-family="Helvetica,sans-Serif" font-size="14.00" fill="#e0e6ed">pipeline_stage_metrics</text>
<text text-anchor="middle" x="1045.25" y="-195.7" font-family="Helvetica,sans-Serif" font-size="14.00" fill="#e0e6ed">527 stages · avg rag 2.78s</text>
</g>
<!-- Pipeline&#45;&gt;OODA -->
<g id="edge4" class="edge">
<title>Pipeline&#45;&gt;OODA</title>
<path fill="none" stroke="#00d4aa" d="M1132.73,-187.26C1140.38,-184.46 1147.91,-181.38 1155,-178 1180.5,-165.84 1206.4,-148.76 1228.28,-132.69"/>
<polygon fill="#00d4aa" stroke="#00d4aa" points="1230.26,-135.58 1236.18,-126.79 1226.07,-129.97 1230.26,-135.58"/>
</g>
<!-- Pi -->
<g id="node3" class="node">
<title>Pi</title>
<path fill="#141922" stroke="#1e2a3a" d="M1110.25,-169.25C1110.25,-169.25 980.25,-169.25 980.25,-169.25 974.25,-169.25 968.25,-163.25 968.25,-157.25 968.25,-157.25 968.25,-138.75 968.25,-138.75 968.25,-132.75 974.25,-126.75 980.25,-126.75 980.25,-126.75 1110.25,-126.75 1110.25,-126.75 1116.25,-126.75 1122.25,-132.75 1122.25,-138.75 1122.25,-138.75 1122.25,-157.25 1122.25,-157.25 1122.25,-163.25 1116.25,-169.25 1110.25,-169.25"/>
<text text-anchor="middle" x="1045.25" y="-151.95" font-family="Helvetica,sans-Serif" font-size="14.00" fill="#e0e6ed">pi_sessions</text>
<text text-anchor="middle" x="1045.25" y="-134.7" font-family="Helvetica,sans-Serif" font-size="14.00" fill="#e0e6ed">16 sessions tracked</text>
</g>
<!-- Pi&#45;&gt;OODA -->
<g id="edge5" class="edge">
<title>Pi&#45;&gt;OODA</title>
<path fill="none" stroke="#00d4aa" d="M1122.62,-128.45C1144.02,-122.97 1167.55,-116.94 1189.88,-111.23"/>
<polygon fill="#00d4aa" stroke="#00d4aa" points="1190.44,-114.69 1199.26,-108.82 1188.71,-107.91 1190.44,-114.69"/>
</g>
<!-- Stage -->
<g id="node4" class="node">
<title>Stage</title>
<path fill="#141922" stroke="#1e2a3a" d="M1101.62,-108.25C1101.62,-108.25 988.88,-108.25 988.88,-108.25 982.88,-108.25 976.88,-102.25 976.88,-96.25 976.88,-96.25 976.88,-77.75 976.88,-77.75 976.88,-71.75 982.88,-65.75 988.88,-65.75 988.88,-65.75 1101.62,-65.75 1101.62,-65.75 1107.62,-65.75 1113.62,-71.75 1113.62,-77.75 1113.62,-77.75 1113.62,-96.25 1113.62,-96.25 1113.62,-102.25 1107.62,-108.25 1101.62,-108.25"/>
<text text-anchor="middle" x="1045.25" y="-90.95" font-family="Helvetica,sans-Serif" font-size="14.00" fill="#e0e6ed">Zenoh</text>
<text text-anchor="middle" x="1045.25" y="-73.7" font-family="Helvetica,sans-Serif" font-size="14.00" fill="#e0e6ed">indrajaal/l4/sre/**</text>
</g>
<!-- Stage&#45;&gt;OODA -->
<g id="edge6" class="edge">
<title>Stage&#45;&gt;OODA</title>
<path fill="none" stroke="#00d4aa" d="M1113.89,-87C1137.27,-87 1163.93,-87 1189.11,-87"/>
<polygon fill="#00d4aa" stroke="#00d4aa" points="1189.05,-90.5 1199.05,-87 1189.05,-83.5 1189.05,-90.5"/>
<text text-anchor="middle" x="1174" y="-90.25" font-family="Helvetica,sans-Serif" font-size="10.00" fill="#7a8fa6">live</text>
</g>
<!-- Cost -->
<g id="node6" class="node">
<title>Cost</title>
<path fill="#141922" stroke="#1e2a3a" d="M1544.5,-111.88C1544.5,-111.88 1419,-111.88 1419,-111.88 1413,-111.88 1407,-105.88 1407,-99.88 1407,-99.88 1407,-64.12 1407,-64.12 1407,-58.12 1413,-52.12 1419,-52.12 1419,-52.12 1544.5,-52.12 1544.5,-52.12 1550.5,-52.12 1556.5,-58.12 1556.5,-64.12 1556.5,-64.12 1556.5,-99.88 1556.5,-99.88 1556.5,-105.88 1550.5,-111.88 1544.5,-111.88"/>
<text text-anchor="middle" x="1481.75" y="-94.58" font-family="Helvetica,sans-Serif" font-size="14.00" fill="#e0e6ed">v_cost_by_agent</text>
<text text-anchor="middle" x="1481.75" y="-77.33" font-family="Helvetica,sans-Serif" font-size="14.00" fill="#e0e6ed">pi: $0.85/citation</text>
<text text-anchor="middle" x="1481.75" y="-60.08" font-family="Helvetica,sans-Serif" font-size="14.00" fill="#e0e6ed">citation&#45;rate 11.8%</text>
</g>
<!-- OODA&#45;&gt;Cost -->
<g id="edge7" class="edge">
<title>OODA&#45;&gt;Cost</title>
<path fill="none" stroke="#00d4aa" d="M1370.29,-84.84C1378.62,-84.63 1387.08,-84.41 1395.43,-84.2"/>
<polygon fill="#00d4aa" stroke="#00d4aa" points="1395.29,-87.7 1405.2,-83.94 1395.11,-80.7 1395.29,-87.7"/>
</g>
<!-- Rules -->
<g id="node7" class="node">
<title>Rules</title>
<path fill="#141922" stroke="#1e2a3a" d="M254,-108.88C254,-108.88 28,-108.88 28,-108.88 22,-108.88 16,-102.88 16,-96.88 16,-96.88 16,-61.12 16,-61.12 16,-55.12 22,-49.12 28,-49.12 28,-49.12 254,-49.12 254,-49.12 260,-49.12 266,-55.12 266,-61.12 266,-61.12 266,-96.88 266,-96.88 266,-102.88 260,-108.88 254,-108.88"/>
<text text-anchor="middle" x="141" y="-91.58" font-family="Helvetica,sans-Serif" font-size="14.00" fill="#e0e6ed">rules/engine</text>
<text text-anchor="middle" x="141" y="-74.33" font-family="Helvetica,sans-Serif" font-size="14.00" fill="#e0e6ed">HighCostThreshold · LowCacheHit</text>
<text text-anchor="middle" x="141" y="-57.08" font-family="Helvetica,sans-Serif" font-size="14.00" fill="#e0e6ed">LowEmbeddingCoverage</text>
</g>
<!-- OODA&#45;&gt;Rules -->
<g id="edge2" class="edge">
<title>OODA&#45;&gt;Rules</title>
<path fill="none" stroke="#00d4aa" d="M1200.73,-61.14C1155.45,-49.36 1098.3,-38 1046.25,-38 451.38,-38 451.38,-38 451.38,-38 394.22,-38 331.63,-44.96 277.79,-53.15"/>
<polygon fill="#00d4aa" stroke="#00d4aa" points="277.28,-49.69 267.94,-54.68 278.36,-56.6 277.28,-49.69"/>
</g>
<!-- Cost&#45;&gt;Rules -->
<g id="edge8" class="edge">
<title>Cost&#45;&gt;Rules</title>
<path fill="none" stroke="#00d4aa" d="M1437.04,-51.7C1399.04,-28.34 1341.59,0 1286.5,0 451.38,0 451.38,0 451.38,0 373.98,0 288.98,-23.5 227.7,-44.86"/>
<polygon fill="#00d4aa" stroke="#00d4aa" points="226.6,-41.54 218.35,-48.18 228.94,-48.13 226.6,-41.54"/>
</g>
<!-- Disp -->
<g id="node8" class="node">
<title>Disp</title>
<path fill="#141922" stroke="#1e2a3a" d="M589.75,-108.25C589.75,-108.25 315,-108.25 315,-108.25 309,-108.25 303,-102.25 303,-96.25 303,-96.25 303,-77.75 303,-77.75 303,-71.75 309,-65.75 315,-65.75 315,-65.75 589.75,-65.75 589.75,-65.75 595.75,-65.75 601.75,-71.75 601.75,-77.75 601.75,-77.75 601.75,-96.25 601.75,-96.25 601.75,-102.25 595.75,-108.25 589.75,-108.25"/>
<text text-anchor="middle" x="452.38" y="-90.95" font-family="Helvetica,sans-Serif" font-size="14.00" fill="#e0e6ed">rules/dispatcher</text>
<text text-anchor="middle" x="452.38" y="-73.7" font-family="Helvetica,sans-Serif" font-size="14.00" fill="#e0e6ed">Escalate · EmbedRefresh · PrefixRefactor</text>
</g>
<!-- Rules&#45;&gt;Disp -->
<g id="edge3" class="edge">
<title>Rules&#45;&gt;Disp</title>
<path fill="none" stroke="#00d4aa" d="M266.5,-82.22C274.69,-82.43 283.01,-82.65 291.34,-82.86"/>
<polygon fill="#00d4aa" stroke="#00d4aa" points="291.11,-86.36 301.2,-83.12 291.29,-79.36 291.11,-86.36"/>
</g>
<!-- Esc -->
<g id="node9" class="node">
<title>Esc</title>
<path fill="#141922" stroke="#1e2a3a" d="M810.75,-108.25C810.75,-108.25 650.75,-108.25 650.75,-108.25 644.75,-108.25 638.75,-102.25 638.75,-96.25 638.75,-96.25 638.75,-77.75 638.75,-77.75 638.75,-71.75 644.75,-65.75 650.75,-65.75 650.75,-65.75 810.75,-65.75 810.75,-65.75 816.75,-65.75 822.75,-71.75 822.75,-77.75 822.75,-77.75 822.75,-96.25 822.75,-96.25 822.75,-102.25 816.75,-108.25 810.75,-108.25"/>
<text text-anchor="middle" x="730.75" y="-90.95" font-family="Helvetica,sans-Serif" font-size="14.00" fill="#e0e6ed">Escalate →</text>
<text text-anchor="middle" x="730.75" y="-73.7" font-family="Helvetica,sans-Serif" font-size="14.00" fill="#e0e6ed">indrajaal/l5/cog/escalate</text>
</g>
<!-- Disp&#45;&gt;Esc -->
<g id="edge9" class="edge">
<title>Disp&#45;&gt;Esc</title>
<path fill="none" stroke="#00d4aa" d="M602.08,-87C610.5,-87 618.87,-87 627.07,-87"/>
<polygon fill="#00d4aa" stroke="#00d4aa" points="627,-90.5 637,-87 627,-83.5 627,-90.5"/>
</g>
<!-- Embed -->
<g id="node10" class="node">
<title>Embed</title>
<path fill="#141922" stroke="#1e2a3a" d="M803.62,-169.25C803.62,-169.25 657.88,-169.25 657.88,-169.25 651.88,-169.25 645.88,-163.25 645.88,-157.25 645.88,-157.25 645.88,-138.75 645.88,-138.75 645.88,-132.75 651.88,-126.75 657.88,-126.75 657.88,-126.75 803.62,-126.75 803.62,-126.75 809.62,-126.75 815.62,-132.75 815.62,-138.75 815.62,-138.75 815.62,-157.25 815.62,-157.25 815.62,-163.25 809.62,-169.25 803.62,-169.25"/>
<text text-anchor="middle" x="730.75" y="-151.95" font-family="Helvetica,sans-Serif" font-size="14.00" fill="#e0e6ed">embed_refresh job</text>
<text text-anchor="middle" x="730.75" y="-134.7" font-family="Helvetica,sans-Serif" font-size="14.00" fill="#e0e6ed">backfill 22,181 holons</text>
</g>
<!-- Disp&#45;&gt;Embed -->
<g id="edge10" class="edge">
<title>Disp&#45;&gt;Embed</title>
<path fill="none" stroke="#00d4aa" d="M551.59,-108.68C578.59,-114.64 607.82,-121.09 634.64,-127.01"/>
<polygon fill="#00d4aa" stroke="#00d4aa" points="633.58,-130.36 644.1,-129.1 635.09,-123.52 633.58,-130.36"/>
</g>
<!-- Refactor -->
<g id="node11" class="node">
<title>Refactor</title>
<path fill="#141922" stroke="#1e2a3a" d="M792.38,-230.25C792.38,-230.25 669.12,-230.25 669.12,-230.25 663.12,-230.25 657.12,-224.25 657.12,-218.25 657.12,-218.25 657.12,-199.75 657.12,-199.75 657.12,-193.75 663.12,-187.75 669.12,-187.75 669.12,-187.75 792.38,-187.75 792.38,-187.75 798.38,-187.75 804.38,-193.75 804.38,-199.75 804.38,-199.75 804.38,-218.25 804.38,-218.25 804.38,-224.25 798.38,-230.25 792.38,-230.25"/>
<text text-anchor="middle" x="730.75" y="-212.95" font-family="Helvetica,sans-Serif" font-size="14.00" fill="#e0e6ed">Prefix refactor task</text>
<text text-anchor="middle" x="730.75" y="-195.7" font-family="Helvetica,sans-Serif" font-size="14.00" fill="#e0e6ed">boost cache&#45;hit</text>
</g>
<!-- Disp&#45;&gt;Refactor -->
<g id="edge11" class="edge">
<title>Disp&#45;&gt;Refactor</title>
<path fill="none" stroke="#00d4aa" d="M490.89,-108.63C526.2,-128.41 580.95,-157.6 630.75,-178 635.7,-180.03 640.83,-182 646.04,-183.91"/>
<polygon fill="#00d4aa" stroke="#00d4aa" points="644.77,-187.17 655.37,-187.21 647.11,-180.57 644.77,-187.17"/>
</g>
<!-- Esc&#45;&gt;Stage -->
<g id="edge12" class="edge">
<title>Esc&#45;&gt;Stage</title>
<path fill="none" stroke="#00d4aa" stroke-dasharray="5,2" d="M822.98,-87C868.13,-87 922.09,-87 965.42,-87"/>
<polygon fill="#00d4aa" stroke="#00d4aa" points="965.25,-90.5 975.25,-87 965.25,-83.5 965.25,-90.5"/>
<text text-anchor="middle" x="883.12" y="-90.25" font-family="Helvetica,sans-Serif" font-size="10.00" fill="#7a8fa6">OTel + Zenoh put</text>
</g>
<!-- Embed&#45;&gt;Session -->
<g id="edge13" class="edge">
<title>Embed&#45;&gt;Session</title>
<path fill="none" stroke="#3dd68c" stroke-dasharray="5,2" d="M815.72,-151.99C853.88,-158.06 896.82,-171.52 925.5,-200.5 937.94,-213.07 923.15,-226.35 935.5,-239 938.82,-242.4 942.48,-245.43 946.39,-248.13"/>
<polygon fill="#3dd68c" stroke="#3dd68c" points="944.25,-250.93 954.63,-253.09 947.86,-244.94 944.25,-250.93"/>
<text text-anchor="middle" x="883.12" y="-216.5" font-family="Helvetica,sans-Serif" font-size="10.00" fill="#7a8fa6">re&#45;observe</text>
<text text-anchor="middle" x="883.12" y="-203.75" font-family="Helvetica,sans-Serif" font-size="10.00" fill="#7a8fa6">(closed loop)</text>
</g>
<!-- Refactor&#45;&gt;Session -->
<g id="edge14" class="edge">
<title>Refactor&#45;&gt;Session</title>
<path fill="none" stroke="#3dd68c" stroke-dasharray="5,2" d="M804.62,-223.22C846.36,-231.37 899.32,-241.71 944.84,-250.59"/>
<polygon fill="#3dd68c" stroke="#3dd68c" points="943.96,-253.99 954.45,-252.47 945.3,-247.12 943.96,-253.99"/>
</g>
</g>
</svg>
