<?xml version="1.0" encoding="UTF-8" standalone="no"?>
<!DOCTYPE svg PUBLIC "-//W3C//DTD SVG 1.1//EN"
 "http://www.w3.org/Graphics/SVG/1.1/DTD/svg11.dtd">
<!-- Generated by graphviz version 12.2.1 (0)
 -->
<!-- Title: Cost Pages: 1 -->
<svg width="710pt" height="767pt"
 viewBox="0.00 0.00 710.25 766.50" xmlns="http://www.w3.org/2000/svg" xmlns:xlink="http://www.w3.org/1999/xlink">
<g id="graph0" class="graph" transform="scale(1 1) rotate(0) translate(4 762.5)">
<title>Cost</title>
<polygon fill="#0a0e17" stroke="none" points="-4,4 -4,-762.5 706.25,-762.5 706.25,4 -4,4"/>
<!-- Prompt -->
<g id="node1" class="node">
<title>Prompt</title>
<path fill="#141922" stroke="#1e2a3a" d="M366.38,-758.5C366.38,-758.5 287.38,-758.5 287.38,-758.5 281.38,-758.5 275.38,-752.5 275.38,-746.5 275.38,-746.5 275.38,-734.5 275.38,-734.5 275.38,-728.5 281.38,-722.5 287.38,-722.5 287.38,-722.5 366.38,-722.5 366.38,-722.5 372.38,-722.5 378.38,-728.5 378.38,-734.5 378.38,-734.5 378.38,-746.5 378.38,-746.5 378.38,-752.5 372.38,-758.5 366.38,-758.5"/>
<text text-anchor="middle" x="326.88" y="-735.83" font-family="Helvetica,sans-Serif" font-size="14.00" fill="#e0e6ed">User prompt</text>
</g>
<!-- Hook -->
<g id="node2" class="node">
<title>Hook</title>
<path fill="#141922" stroke="#1e2a3a" d="M339,-685.5C339,-685.5 200.75,-685.5 200.75,-685.5 194.75,-685.5 188.75,-679.5 188.75,-673.5 188.75,-673.5 188.75,-655 188.75,-655 188.75,-649 194.75,-643 200.75,-643 200.75,-643 339,-643 339,-643 345,-643 351,-649 351,-655 351,-655 351,-673.5 351,-673.5 351,-679.5 345,-685.5 339,-685.5"/>
<text text-anchor="middle" x="269.88" y="-668.2" font-family="Helvetica,sans-Serif" font-size="14.00" fill="#e0e6ed">PROMPT HOOK</text>
<text text-anchor="middle" x="269.88" y="-650.95" font-family="Helvetica,sans-Serif" font-size="14.00" fill="#e0e6ed">(Claude · Pi · Gemini)</text>
</g>
<!-- Prompt&#45;&gt;Hook -->
<g id="edge1" class="edge">
<title>Prompt&#45;&gt;Hook</title>
<path fill="none" stroke="#00d4aa" d="M313.65,-722.28C307.39,-714.12 299.73,-704.13 292.57,-694.82"/>
<polygon fill="#00d4aa" stroke="#00d4aa" points="295.45,-692.81 286.58,-687.01 289.89,-697.07 295.45,-692.81"/>
</g>
<!-- Suffix -->
<g id="node5" class="node">
<title>Suffix</title>
<path fill="#2a1e0e" stroke="#f5a623" d="M457,-625C457,-625 330.75,-625 330.75,-625 324.75,-625 318.75,-619 318.75,-613 318.75,-613 318.75,-601 318.75,-601 318.75,-595 324.75,-589 330.75,-589 330.75,-589 457,-589 457,-589 463,-589 469,-595 469,-601 469,-601 469,-613 469,-613 469,-619 463,-625 457,-625"/>
<text text-anchor="middle" x="393.88" y="-602.33" font-family="Helvetica,sans-Serif" font-size="14.00" fill="#e0e6ed">User text (variable)</text>
</g>
<!-- Prompt&#45;&gt;Suffix -->
<g id="edge4" class="edge">
<title>Prompt&#45;&gt;Suffix</title>
<path fill="none" stroke="#00d4aa" d="M338.19,-722.34C344.86,-711.89 353.27,-698.16 359.88,-685.5 368.27,-669.41 376.48,-650.81 382.73,-635.86"/>
<polygon fill="#00d4aa" stroke="#00d4aa" points="385.95,-637.22 386.52,-626.64 379.48,-634.56 385.95,-637.22"/>
</g>
<!-- Recall -->
<g id="node3" class="node">
<title>Recall</title>
<path fill="#141922" stroke="#1e2a3a" d="M352.5,-571C352.5,-571 139.25,-571 139.25,-571 133.25,-571 127.25,-565 127.25,-559 127.25,-559 127.25,-523.25 127.25,-523.25 127.25,-517.25 133.25,-511.25 139.25,-511.25 139.25,-511.25 352.5,-511.25 352.5,-511.25 358.5,-511.25 364.5,-517.25 364.5,-523.25 364.5,-523.25 364.5,-559 364.5,-559 364.5,-565 358.5,-571 352.5,-571"/>
<text text-anchor="middle" x="245.88" y="-553.7" font-family="Helvetica,sans-Serif" font-size="14.00" fill="#e0e6ed">zk&#45;recall (stable prefix)</text>
<text text-anchor="middle" x="245.88" y="-536.45" font-family="Helvetica,sans-Serif" font-size="14.00" fill="#e0e6ed">query&#45;expand · FTS5 · semantic</text>
<text text-anchor="middle" x="245.88" y="-519.2" font-family="Helvetica,sans-Serif" font-size="14.00" fill="#e0e6ed">+ FY27 · graph&#45;walk</text>
</g>
<!-- Hook&#45;&gt;Recall -->
<g id="edge2" class="edge">
<title>Hook&#45;&gt;Recall</title>
<path fill="none" stroke="#00d4aa" d="M265.8,-642.7C262.55,-626.26 257.88,-602.71 253.88,-582.52"/>
<polygon fill="#00d4aa" stroke="#00d4aa" points="257.35,-582.03 251.97,-572.9 250.48,-583.39 257.35,-582.03"/>
<text text-anchor="middle" x="282.74" y="-603.88" font-family="Helvetica,sans-Serif" font-size="10.00" fill="#7a8fa6">recall=1</text>
</g>
<!-- Prefix -->
<g id="node4" class="node">
<title>Prefix</title>
<path fill="#0e2a1e" stroke="#3dd68c" d="M313.12,-462.5C313.12,-462.5 178.62,-462.5 178.62,-462.5 172.62,-462.5 166.62,-456.5 166.62,-450.5 166.62,-450.5 166.62,-414.75 166.62,-414.75 166.62,-408.75 172.62,-402.75 178.62,-402.75 178.62,-402.75 313.12,-402.75 313.12,-402.75 319.12,-402.75 325.12,-408.75 325.12,-414.75 325.12,-414.75 325.12,-450.5 325.12,-450.5 325.12,-456.5 319.12,-462.5 313.12,-462.5"/>
<text text-anchor="middle" x="245.88" y="-445.2" font-family="Helvetica,sans-Serif" font-size="14.00" fill="#e0e6ed">Stable system prefix</text>
<text text-anchor="middle" x="245.88" y="-427.95" font-family="Helvetica,sans-Serif" font-size="14.00" fill="#e0e6ed">+ ZK block</text>
<text text-anchor="middle" x="245.88" y="-410.7" font-family="Helvetica,sans-Serif" font-size="14.00" fill="#e0e6ed">= CACHEABLE</text>
</g>
<!-- Recall&#45;&gt;Prefix -->
<g id="edge3" class="edge">
<title>Recall&#45;&gt;Prefix</title>
<path fill="none" stroke="#00d4aa" d="M245.88,-511.02C245.88,-499.64 245.88,-486.38 245.88,-474.09"/>
<polygon fill="#00d4aa" stroke="#00d4aa" points="249.38,-474.2 245.88,-464.2 242.38,-474.2 249.38,-474.2"/>
</g>
<!-- LLM -->
<g id="node6" class="node">
<title>LLM</title>
<path fill="#141922" stroke="#1e2a3a" d="M426.25,-354C426.25,-354 379.5,-354 379.5,-354 373.5,-354 367.5,-348 367.5,-342 367.5,-342 367.5,-330 367.5,-330 367.5,-324 373.5,-318 379.5,-318 379.5,-318 426.25,-318 426.25,-318 432.25,-318 438.25,-324 438.25,-330 438.25,-330 438.25,-342 438.25,-342 438.25,-348 432.25,-354 426.25,-354"/>
<text text-anchor="middle" x="402.88" y="-331.32" font-family="Helvetica,sans-Serif" font-size="14.00" fill="#e0e6ed">LLM call</text>
</g>
<!-- Prefix&#45;&gt;LLM -->
<g id="edge5" class="edge">
<title>Prefix&#45;&gt;LLM</title>
<path fill="none" stroke="#00d4aa" d="M239.47,-402.34C238.83,-391.74 240.31,-380.34 247.12,-372 260.72,-355.37 314.99,-346.04 355.67,-341.27"/>
<polygon fill="#00d4aa" stroke="#00d4aa" points="355.94,-344.77 365.5,-340.19 355.17,-337.81 355.94,-344.77"/>
<text text-anchor="middle" x="318" y="-375.25" font-family="Helvetica,sans-Serif" font-size="10.00" fill="#7a8fa6">cached prefix (90% discount)</text>
</g>
<!-- Suffix&#45;&gt;LLM -->
<g id="edge6" class="edge">
<title>Suffix&#45;&gt;LLM</title>
<path fill="none" stroke="#00d4aa" d="M394.45,-588.76C395.96,-543.61 400.05,-421.49 401.92,-365.62"/>
<polygon fill="#00d4aa" stroke="#00d4aa" points="405.4,-366.07 402.24,-355.95 398.41,-365.83 405.4,-366.07"/>
<text text-anchor="middle" x="454.63" y="-483.75" font-family="Helvetica,sans-Serif" font-size="10.00" fill="#7a8fa6">fresh tokens (full price)</text>
</g>
<!-- Resp -->
<g id="node7" class="node">
<title>Resp</title>
<path fill="#141922" stroke="#1e2a3a" d="M690.25,-277.75C690.25,-277.75 631.5,-277.75 631.5,-277.75 625.5,-277.75 619.5,-271.75 619.5,-265.75 619.5,-265.75 619.5,-253.75 619.5,-253.75 619.5,-247.75 625.5,-241.75 631.5,-241.75 631.5,-241.75 690.25,-241.75 690.25,-241.75 696.25,-241.75 702.25,-247.75 702.25,-253.75 702.25,-253.75 702.25,-265.75 702.25,-265.75 702.25,-271.75 696.25,-277.75 690.25,-277.75"/>
<text text-anchor="middle" x="660.88" y="-255.07" font-family="Helvetica,sans-Serif" font-size="14.00" fill="#e0e6ed">Response</text>
</g>
<!-- LLM&#45;&gt;Resp -->
<g id="edge7" class="edge">
<title>LLM&#45;&gt;Resp</title>
<path fill="none" stroke="#00d4aa" d="M438.42,-327.13C477.77,-318.11 543.21,-302.22 608.4,-281.29"/>
<polygon fill="#00d4aa" stroke="#00d4aa" points="609.41,-284.64 617.84,-278.22 607.25,-277.98 609.41,-284.64"/>
</g>
<!-- Metrics -->
<g id="node8" class="node">
<title>Metrics</title>
<path fill="#141922" stroke="#1e2a3a" d="M589,-281C589,-281 216.75,-281 216.75,-281 210.75,-281 204.75,-275 204.75,-269 204.75,-269 204.75,-250.5 204.75,-250.5 204.75,-244.5 210.75,-238.5 216.75,-238.5 216.75,-238.5 589,-238.5 589,-238.5 595,-238.5 601,-244.5 601,-250.5 601,-250.5 601,-269 601,-269 601,-275 595,-281 589,-281"/>
<text text-anchor="middle" x="402.88" y="-263.7" font-family="Helvetica,sans-Serif" font-size="14.00" fill="#e0e6ed">after_provider_response</text>
<text text-anchor="middle" x="402.88" y="-246.45" font-family="Helvetica,sans-Serif" font-size="14.00" fill="#e0e6ed">usage.cost.{input,output,cacheRead,cacheWrite,total}</text>
</g>
<!-- LLM&#45;&gt;Metrics -->
<g id="edge8" class="edge">
<title>LLM&#45;&gt;Metrics</title>
<path fill="none" stroke="#00d4aa" d="M402.88,-317.78C402.88,-310.3 402.88,-301.29 402.88,-292.66"/>
<polygon fill="#00d4aa" stroke="#00d4aa" points="406.38,-292.82 402.88,-282.82 399.38,-292.82 406.38,-292.82"/>
</g>
<!-- DB -->
<g id="node9" class="node">
<title>DB</title>
<path fill="#141922" stroke="#1e2a3a" d="M462.12,-201.5C462.12,-201.5 219.62,-201.5 219.62,-201.5 213.62,-201.5 207.62,-195.5 207.62,-189.5 207.62,-189.5 207.62,-171 207.62,-171 207.62,-165 213.62,-159 219.62,-159 219.62,-159 462.12,-159 462.12,-159 468.12,-159 474.12,-165 474.12,-171 474.12,-171 474.12,-189.5 474.12,-189.5 474.12,-195.5 468.12,-201.5 462.12,-201.5"/>
<text text-anchor="middle" x="340.88" y="-184.2" font-family="Helvetica,sans-Serif" font-size="14.00" fill="#e0e6ed">session_metrics</text>
<text text-anchor="middle" x="340.88" y="-166.95" font-family="Helvetica,sans-Serif" font-size="14.00" fill="#e0e6ed">tokens_* · cost_usd · cache_hit_ratio</text>
</g>
<!-- Metrics&#45;&gt;DB -->
<g id="edge9" class="edge">
<title>Metrics&#45;&gt;DB</title>
<path fill="none" stroke="#00d4aa" d="M386.59,-238.39C379.8,-229.91 371.8,-219.91 364.4,-210.66"/>
<polygon fill="#00d4aa" stroke="#00d4aa" points="367.2,-208.55 358.22,-202.93 361.73,-212.92 367.2,-208.55"/>
</g>
<!-- Alarm -->
<g id="node10" class="node">
<title>Alarm</title>
<path fill="#141922" stroke="#1e2a3a" d="M328.88,-122C328.88,-122 180.88,-122 180.88,-122 174.88,-122 168.88,-116 168.88,-110 168.88,-110 168.88,-91.5 168.88,-91.5 168.88,-85.5 174.88,-79.5 180.88,-79.5 180.88,-79.5 328.88,-79.5 328.88,-79.5 334.88,-79.5 340.88,-85.5 340.88,-91.5 340.88,-91.5 340.88,-110 340.88,-110 340.88,-116 334.88,-122 328.88,-122"/>
<text text-anchor="middle" x="254.88" y="-104.7" font-family="Helvetica,sans-Serif" font-size="14.00" fill="#e0e6ed">rules/engine</text>
<text text-anchor="middle" x="254.88" y="-87.45" font-family="Helvetica,sans-Serif" font-size="14.00" fill="#e0e6ed">cost&gt;$10 | cache&lt;0.5</text>
</g>
<!-- DB&#45;&gt;Alarm -->
<g id="edge10" class="edge">
<title>DB&#45;&gt;Alarm</title>
<path fill="none" stroke="#00d4aa" d="M318.28,-158.89C308.38,-149.97 296.61,-139.36 285.91,-129.72"/>
<polygon fill="#00d4aa" stroke="#00d4aa" points="288.51,-127.35 278.74,-123.26 283.83,-132.55 288.51,-127.35"/>
</g>
<!-- Act -->
<g id="node11" class="node">
<title>Act</title>
<path fill="#141922" stroke="#1e2a3a" d="M247.75,-42.5C247.75,-42.5 12,-42.5 12,-42.5 6,-42.5 0,-36.5 0,-30.5 0,-30.5 0,-12 0,-12 0,-6 6,0 12,0 12,0 247.75,0 247.75,0 253.75,0 259.75,-6 259.75,-12 259.75,-12 259.75,-30.5 259.75,-30.5 259.75,-36.5 253.75,-42.5 247.75,-42.5"/>
<text text-anchor="middle" x="129.88" y="-25.2" font-family="Helvetica,sans-Serif" font-size="14.00" fill="#e0e6ed">rules/dispatcher</text>
<text text-anchor="middle" x="129.88" y="-7.95" font-family="Helvetica,sans-Serif" font-size="14.00" fill="#e0e6ed">Escalate / EmbedRefresh / Refactor</text>
</g>
<!-- Alarm&#45;&gt;Act -->
<g id="edge11" class="edge">
<title>Alarm&#45;&gt;Act</title>
<path fill="none" stroke="#00d4aa" d="M221.71,-79.18C206.73,-69.9 188.85,-58.82 172.87,-48.9"/>
<polygon fill="#00d4aa" stroke="#00d4aa" points="174.83,-46 164.49,-43.71 171.14,-51.95 174.83,-46"/>
</g>
<!-- Act&#45;&gt;Recall -->
<g id="edge12" class="edge">
<title>Act&#45;&gt;Recall</title>
<path fill="none" stroke="#3dd68c" stroke-dasharray="5,2" d="M124.92,-42.84C121.62,-58.38 117.88,-80.28 117.88,-99.75 117.88,-433.62 117.88,-433.62 117.88,-433.62 117.88,-464.26 139.81,-487.79 165.53,-504.84"/>
<polygon fill="#3dd68c" stroke="#3dd68c" points="163.51,-507.71 173.85,-510.02 167.22,-501.76 163.51,-507.71"/>
<text text-anchor="middle" x="152.38" y="-256.62" font-family="Helvetica,sans-Serif" font-size="10.00" fill="#7a8fa6">feedback loop</text>
</g>
</g>
</svg>
