<?xml version="1.0" encoding="UTF-8" standalone="no"?>
<!DOCTYPE svg PUBLIC "-//W3C//DTD SVG 1.1//EN"
 "http://www.w3.org/Graphics/SVG/1.1/DTD/svg11.dtd">
<!-- Generated by graphviz version 12.2.1 (0)
 -->
<!-- Title: MP Pages: 1 -->
<svg width="1361pt" height="801pt"
 viewBox="0.00 0.00 1360.50 800.54" xmlns="http://www.w3.org/2000/svg" xmlns:xlink="http://www.w3.org/1999/xlink">
<g id="graph0" class="graph" transform="scale(1 1) rotate(0) translate(4 796.54)">
<title>MP</title>
<polygon fill="#0a0e17" stroke="none" points="-4,4 -4,-796.54 1356.5,-796.54 1356.5,4 -4,4"/>
<g id="clust1" class="cluster">
<title>cluster_agents</title>
<polygon fill="#0a0e17" stroke="#00bfff" points="8,-207.54 8,-446.54 216.25,-446.54 216.25,-207.54 8,-207.54"/>
<text text-anchor="middle" x="112.12" y="-429.24" font-family="Helvetica,sans-Serif" font-size="14.00" fill="#00bfff">Agents</text>
</g>
<g id="clust2" class="cluster">
<title>cluster_prov</title>
<polygon fill="#0a0e17" stroke="#f5a623" points="634.75,-71.54 634.75,-784.54 890.75,-784.54 890.75,-71.54 634.75,-71.54"/>
<text text-anchor="middle" x="762.75" y="-767.24" font-family="Helvetica,sans-Serif" font-size="14.00" fill="#f5a623">Providers (52 models, 7 providers)</text>
</g>
<g id="clust3" class="cluster">
<title>cluster_kms</title>
<polygon fill="#0a0e17" stroke="#9b6cff" points="987.25,-312.54 987.25,-457.54 1344.5,-457.54 1344.5,-312.54 987.25,-312.54"/>
<text text-anchor="middle" x="1165.88" y="-440.24" font-family="Helvetica,sans-Serif" font-size="14.00" fill="#9b6cff">KMS telemetry</text>
</g>
<!-- Claude -->
<g id="node1" class="node">
<title>Claude</title>
<path fill="#141922" stroke="#1e2a3a" d="M156.12,-413.54C156.12,-413.54 68.12,-413.54 68.12,-413.54 62.12,-413.54 56.12,-407.54 56.12,-401.54 56.12,-401.54 56.12,-389.54 56.12,-389.54 56.12,-383.54 62.12,-377.54 68.12,-377.54 68.12,-377.54 156.12,-377.54 156.12,-377.54 162.12,-377.54 168.12,-383.54 168.12,-389.54 168.12,-389.54 168.12,-401.54 168.12,-401.54 168.12,-407.54 162.12,-413.54 156.12,-413.54"/>
<text text-anchor="middle" x="112.12" y="-390.87" font-family="Helvetica,sans-Serif" font-size="14.00" fill="#e0e6ed">.claude hooks</text>
</g>
<!-- Router -->
<g id="node5" class="node">
<title>Router</title>
<path fill="#0e2a1e" stroke="#3dd68c" d="M413.82,-346.29C413.82,-346.29 256.93,-309.29 256.93,-309.29 251.09,-307.92 251.09,-305.16 256.93,-303.79 256.93,-303.79 413.82,-266.79 413.82,-266.79 419.66,-265.42 431.34,-265.42 437.18,-266.79 437.18,-266.79 594.07,-303.79 594.07,-303.79 599.91,-305.16 599.91,-307.92 594.07,-309.29 594.07,-309.29 437.18,-346.29 437.18,-346.29 431.34,-347.66 419.66,-347.66 413.82,-346.29"/>
<text text-anchor="middle" x="425.5" y="-310.49" font-family="Helvetica,sans-Serif" font-size="14.00" fill="#e0e6ed">sa&#45;model&#45;router</text>
<text text-anchor="middle" x="425.5" y="-293.24" font-family="Helvetica,sans-Serif" font-size="14.00" fill="#e0e6ed">(tier / cache / ctx / cost)</text>
</g>
<!-- Claude&#45;&gt;Router -->
<g id="edge1" class="edge">
<title>Claude&#45;&gt;Router</title>
<path fill="none" stroke="#00d4aa" d="M168.61,-381.38C184.06,-377.33 200.83,-372.85 216.25,-368.54 255.43,-357.58 298.56,-344.85 335.36,-333.79"/>
<polygon fill="#00d4aa" stroke="#00d4aa" points="336.05,-337.24 344.61,-331 334.03,-330.54 336.05,-337.24"/>
</g>
<!-- Pi -->
<g id="node2" class="node">
<title>Pi</title>
<path fill="#141922" stroke="#1e2a3a" d="M196.25,-359.54C196.25,-359.54 28,-359.54 28,-359.54 22,-359.54 16,-353.54 16,-347.54 16,-347.54 16,-335.54 16,-335.54 16,-329.54 22,-323.54 28,-323.54 28,-323.54 196.25,-323.54 196.25,-323.54 202.25,-323.54 208.25,-329.54 208.25,-335.54 208.25,-335.54 208.25,-347.54 208.25,-347.54 208.25,-353.54 202.25,-359.54 196.25,-359.54"/>
<text text-anchor="middle" x="112.12" y="-336.87" font-family="Helvetica,sans-Serif" font-size="14.00" fill="#e0e6ed">.pi/extensions/zk&#45;recall.ts</text>
</g>
<!-- Pi&#45;&gt;Router -->
<g id="edge2" class="edge">
<title>Pi&#45;&gt;Router</title>
<path fill="none" stroke="#00d4aa" d="M208.66,-330.8C234.51,-327.9 262.97,-324.7 290.51,-321.6"/>
<polygon fill="#00d4aa" stroke="#00d4aa" points="290.78,-325.09 300.32,-320.5 289.99,-318.14 290.78,-325.09"/>
</g>
<!-- Gemini -->
<g id="node3" class="node">
<title>Gemini</title>
<path fill="#141922" stroke="#1e2a3a" d="M156.88,-305.54C156.88,-305.54 67.38,-305.54 67.38,-305.54 61.38,-305.54 55.38,-299.54 55.38,-293.54 55.38,-293.54 55.38,-281.54 55.38,-281.54 55.38,-275.54 61.38,-269.54 67.38,-269.54 67.38,-269.54 156.88,-269.54 156.88,-269.54 162.88,-269.54 168.88,-275.54 168.88,-281.54 168.88,-281.54 168.88,-293.54 168.88,-293.54 168.88,-299.54 162.88,-305.54 156.88,-305.54"/>
<text text-anchor="middle" x="112.12" y="-282.87" font-family="Helvetica,sans-Serif" font-size="14.00" fill="#e0e6ed">.gemini hooks</text>
</g>
<!-- Gemini&#45;&gt;Router -->
<g id="edge3" class="edge">
<title>Gemini&#45;&gt;Router</title>
<path fill="none" stroke="#00d4aa" d="M169.15,-290.96C197.48,-292.69 233.39,-294.88 269.27,-297.07"/>
<polygon fill="#00d4aa" stroke="#00d4aa" points="268.7,-300.54 278.89,-297.66 269.12,-293.55 268.7,-300.54"/>
</g>
<!-- Cortex -->
<g id="node4" class="node">
<title>Cortex</title>
<path fill="#141922" stroke="#1e2a3a" d="M188,-251.54C188,-251.54 36.25,-251.54 36.25,-251.54 30.25,-251.54 24.25,-245.54 24.25,-239.54 24.25,-239.54 24.25,-227.54 24.25,-227.54 24.25,-221.54 30.25,-215.54 36.25,-215.54 36.25,-215.54 188,-215.54 188,-215.54 194,-215.54 200,-221.54 200,-227.54 200,-227.54 200,-239.54 200,-239.54 200,-245.54 194,-251.54 188,-251.54"/>
<text text-anchor="middle" x="112.12" y="-228.87" font-family="Helvetica,sans-Serif" font-size="14.00" fill="#e0e6ed">sa&#45;plan cortex daemon</text>
</g>
<!-- Cortex&#45;&gt;Router -->
<g id="edge4" class="edge">
<title>Cortex&#45;&gt;Router</title>
<path fill="none" stroke="#00d4aa" d="M191.7,-251.96C231.39,-261.27 280.03,-272.67 322.57,-282.64"/>
<polygon fill="#00d4aa" stroke="#00d4aa" points="321.52,-285.99 332.05,-284.87 323.12,-279.18 321.52,-285.99"/>
</g>
<!-- Anthropic -->
<g id="node6" class="node">
<title>Anthropic</title>
<path fill="#141922" stroke="#1e2a3a" d="M853.88,-751.42C853.88,-751.42 670.62,-751.42 670.62,-751.42 664.62,-751.42 658.62,-745.42 658.62,-739.42 658.62,-739.42 658.62,-703.67 658.62,-703.67 658.62,-697.67 664.62,-691.67 670.62,-691.67 670.62,-691.67 853.88,-691.67 853.88,-691.67 859.88,-691.67 865.88,-697.67 865.88,-703.67 865.88,-703.67 865.88,-739.42 865.88,-739.42 865.88,-745.42 859.88,-751.42 853.88,-751.42"/>
<text text-anchor="middle" x="762.25" y="-734.12" font-family="Helvetica,sans-Serif" font-size="14.00" fill="#e0e6ed">Anthropic</text>
<text text-anchor="middle" x="762.25" y="-716.87" font-family="Helvetica,sans-Serif" font-size="14.00" fill="#e0e6ed">claude&#45;opus/sonnet 4.5&#45;4.7</text>
<text text-anchor="middle" x="762.25" y="-699.62" font-family="Helvetica,sans-Serif" font-size="14.00" fill="#e0e6ed">$3&#45;$15/Mtok &#160;cache&#45;90%</text>
</g>
<!-- Router&#45;&gt;Anthropic -->
<g id="edge5" class="edge">
<title>Router&#45;&gt;Anthropic</title>
<path fill="none" stroke="#00d4aa" d="M437.45,-346.44C460.63,-423.35 522.01,-592.56 634.75,-683.54 638.99,-686.96 643.53,-690.07 648.28,-692.91"/>
<polygon fill="#00d4aa" stroke="#00d4aa" points="646.51,-695.93 656.96,-697.62 649.84,-689.77 646.51,-695.93"/>
</g>
<!-- OpenAI -->
<g id="node7" class="node">
<title>OpenAI</title>
<path fill="#141922" stroke="#1e2a3a" d="M857.62,-674.04C857.62,-674.04 666.88,-674.04 666.88,-674.04 660.88,-674.04 654.88,-668.04 654.88,-662.04 654.88,-662.04 654.88,-609.04 654.88,-609.04 654.88,-603.04 660.88,-597.04 666.88,-597.04 666.88,-597.04 857.62,-597.04 857.62,-597.04 863.62,-597.04 869.62,-603.04 869.62,-609.04 869.62,-609.04 869.62,-662.04 869.62,-662.04 869.62,-668.04 863.62,-674.04 857.62,-674.04"/>
<text text-anchor="middle" x="762.25" y="-656.74" font-family="Helvetica,sans-Serif" font-size="14.00" fill="#e0e6ed">OpenAI</text>
<text text-anchor="middle" x="762.25" y="-639.49" font-family="Helvetica,sans-Serif" font-size="14.00" fill="#e0e6ed">gpt&#45;5.4 / gpt&#45;5.4&#45;mini / nano</text>
<text text-anchor="middle" x="762.25" y="-622.24" font-family="Helvetica,sans-Serif" font-size="14.00" fill="#e0e6ed">gpt&#45;5.3&#45;codex (max/mini)</text>
<text text-anchor="middle" x="762.25" y="-604.99" font-family="Helvetica,sans-Serif" font-size="14.00" fill="#e0e6ed">$0.10&#45;$8/Mtok &#160;cache</text>
</g>
<!-- Router&#45;&gt;OpenAI -->
<g id="edge6" class="edge">
<title>Router&#45;&gt;OpenAI</title>
<path fill="none" stroke="#00d4aa" d="M445.17,-344.44C476.47,-404.35 545.04,-521.01 634.75,-588.54 637.94,-590.94 641.26,-593.22 644.68,-595.4"/>
<polygon fill="#00d4aa" stroke="#00d4aa" points="642.89,-598.41 653.27,-600.5 646.45,-592.39 642.89,-598.41"/>
</g>
<!-- Google -->
<g id="node8" class="node">
<title>Google</title>
<path fill="#141922" stroke="#1e2a3a" d="M853.88,-579.04C853.88,-579.04 670.62,-579.04 670.62,-579.04 664.62,-579.04 658.62,-573.04 658.62,-567.04 658.62,-567.04 658.62,-514.04 658.62,-514.04 658.62,-508.04 664.62,-502.04 670.62,-502.04 670.62,-502.04 853.88,-502.04 853.88,-502.04 859.88,-502.04 865.88,-508.04 865.88,-514.04 865.88,-514.04 865.88,-567.04 865.88,-567.04 865.88,-573.04 859.88,-579.04 853.88,-579.04"/>
<text text-anchor="middle" x="762.25" y="-561.74" font-family="Helvetica,sans-Serif" font-size="14.00" fill="#e0e6ed">Google</text>
<text text-anchor="middle" x="762.25" y="-544.49" font-family="Helvetica,sans-Serif" font-size="14.00" fill="#e0e6ed">gemini&#45;3 pro/flash/flash&#45;lite</text>
<text text-anchor="middle" x="762.25" y="-527.24" font-family="Helvetica,sans-Serif" font-size="14.00" fill="#e0e6ed">gemini&#45;2.5 + gemma&#45;4</text>
<text text-anchor="middle" x="762.25" y="-509.99" font-family="Helvetica,sans-Serif" font-size="14.00" fill="#e0e6ed">$0.075&#45;$2/Mtok &#160;2M ctx</text>
</g>
<!-- Router&#45;&gt;Google -->
<g id="edge7" class="edge">
<title>Router&#45;&gt;Google</title>
<path fill="none" stroke="#00d4aa" d="M457.62,-341.57C495.82,-382.77 564.26,-450.93 634.75,-493.54 639.04,-496.13 643.49,-498.62 648.06,-501"/>
<polygon fill="#00d4aa" stroke="#00d4aa" points="646.33,-504.05 656.85,-505.37 649.45,-497.79 646.33,-504.05"/>
</g>
<!-- OpenRouter -->
<g id="node9" class="node">
<title>OpenRouter</title>
<path fill="#141922" stroke="#1e2a3a" d="M816.75,-484.04C816.75,-484.04 707.75,-484.04 707.75,-484.04 701.75,-484.04 695.75,-478.04 695.75,-472.04 695.75,-472.04 695.75,-419.04 695.75,-419.04 695.75,-413.04 701.75,-407.04 707.75,-407.04 707.75,-407.04 816.75,-407.04 816.75,-407.04 822.75,-407.04 828.75,-413.04 828.75,-419.04 828.75,-419.04 828.75,-472.04 828.75,-472.04 828.75,-478.04 822.75,-484.04 816.75,-484.04"/>
<text text-anchor="middle" x="762.25" y="-466.74" font-family="Helvetica,sans-Serif" font-size="14.00" fill="#e0e6ed">OpenRouter</text>
<text text-anchor="middle" x="762.25" y="-449.49" font-family="Helvetica,sans-Serif" font-size="14.00" fill="#e0e6ed">15 passthroughs</text>
<text text-anchor="middle" x="762.25" y="-432.24" font-family="Helvetica,sans-Serif" font-size="14.00" fill="#e0e6ed">+5% markup</text>
<text text-anchor="middle" x="762.25" y="-414.99" font-family="Helvetica,sans-Serif" font-size="14.00" fill="#e0e6ed">unified billing</text>
</g>
<!-- Router&#45;&gt;OpenRouter -->
<g id="edge8" class="edge">
<title>Router&#45;&gt;OpenRouter</title>
<path fill="none" stroke="#00d4aa" d="M487.59,-334.69C528.88,-353.43 584.76,-378.24 634.75,-398.54 650.78,-405.05 668.08,-411.71 684.59,-417.9"/>
<polygon fill="#00d4aa" stroke="#00d4aa" points="683.29,-421.15 693.89,-421.37 685.74,-414.6 683.29,-421.15"/>
</g>
<!-- Mistral -->
<g id="node10" class="node">
<title>Mistral</title>
<path fill="#141922" stroke="#1e2a3a" d="M810.75,-389.42C810.75,-389.42 713.75,-389.42 713.75,-389.42 707.75,-389.42 701.75,-383.42 701.75,-377.42 701.75,-377.42 701.75,-341.67 701.75,-341.67 701.75,-335.67 707.75,-329.67 713.75,-329.67 713.75,-329.67 810.75,-329.67 810.75,-329.67 816.75,-329.67 822.75,-335.67 822.75,-341.67 822.75,-341.67 822.75,-377.42 822.75,-377.42 822.75,-383.42 816.75,-389.42 810.75,-389.42"/>
<text text-anchor="middle" x="762.25" y="-372.12" font-family="Helvetica,sans-Serif" font-size="14.00" fill="#e0e6ed">Mistral</text>
<text text-anchor="middle" x="762.25" y="-354.87" font-family="Helvetica,sans-Serif" font-size="14.00" fill="#e0e6ed">Voxtral / Pixtral</text>
<text text-anchor="middle" x="762.25" y="-337.62" font-family="Helvetica,sans-Serif" font-size="14.00" fill="#e0e6ed">devstral</text>
</g>
<!-- Router&#45;&gt;Mistral -->
<g id="edge9" class="edge">
<title>Router&#45;&gt;Mistral</title>
<path fill="none" stroke="#00d4aa" d="M534.72,-323.68C585.79,-331.76 645.29,-341.18 690.49,-348.34"/>
<polygon fill="#00d4aa" stroke="#00d4aa" points="689.74,-351.76 700.17,-349.87 690.84,-344.85 689.74,-351.76"/>
</g>
<!-- Qwen -->
<g id="node11" class="node">
<title>Qwen</title>
<path fill="#141922" stroke="#1e2a3a" d="M820.88,-311.42C820.88,-311.42 703.62,-311.42 703.62,-311.42 697.62,-311.42 691.62,-305.42 691.62,-299.42 691.62,-299.42 691.62,-263.67 691.62,-263.67 691.62,-257.67 697.62,-251.67 703.62,-251.67 703.62,-251.67 820.88,-251.67 820.88,-251.67 826.88,-251.67 832.88,-257.67 832.88,-263.67 832.88,-263.67 832.88,-299.42 832.88,-299.42 832.88,-305.42 826.88,-311.42 820.88,-311.42"/>
<text text-anchor="middle" x="762.25" y="-294.12" font-family="Helvetica,sans-Serif" font-size="14.00" fill="#e0e6ed">Qwen</text>
<text text-anchor="middle" x="762.25" y="-276.87" font-family="Helvetica,sans-Serif" font-size="14.00" fill="#e0e6ed">qwen3&#45;coder&#45;next</text>
<text text-anchor="middle" x="762.25" y="-259.62" font-family="Helvetica,sans-Serif" font-size="14.00" fill="#e0e6ed">code&#45;tuned</text>
</g>
<!-- Router&#45;&gt;Qwen -->
<g id="edge10" class="edge">
<title>Router&#45;&gt;Qwen</title>
<path fill="none" stroke="#00d4aa" d="M564.1,-296.26C603.65,-293.31 645.48,-290.19 680.38,-287.58"/>
<polygon fill="#00d4aa" stroke="#00d4aa" points="680.24,-291.1 689.95,-286.87 679.72,-284.12 680.24,-291.1"/>
</g>
<!-- Ollama -->
<g id="node12" class="node">
<title>Ollama</title>
<path fill="#141922" stroke="#1e2a3a" d="M825.75,-234.04C825.75,-234.04 698.75,-234.04 698.75,-234.04 692.75,-234.04 686.75,-228.04 686.75,-222.04 686.75,-222.04 686.75,-169.04 686.75,-169.04 686.75,-163.04 692.75,-157.04 698.75,-157.04 698.75,-157.04 825.75,-157.04 825.75,-157.04 831.75,-157.04 837.75,-163.04 837.75,-169.04 837.75,-169.04 837.75,-222.04 837.75,-222.04 837.75,-228.04 831.75,-234.04 825.75,-234.04"/>
<text text-anchor="middle" x="762.25" y="-216.74" font-family="Helvetica,sans-Serif" font-size="14.00" fill="#e0e6ed">Ollama local</text>
<text text-anchor="middle" x="762.25" y="-199.49" font-family="Helvetica,sans-Serif" font-size="14.00" fill="#e0e6ed">llama&#45;3.3&#45;70b</text>
<text text-anchor="middle" x="762.25" y="-182.24" font-family="Helvetica,sans-Serif" font-size="14.00" fill="#e0e6ed">qwen2.5&#45;coder&#45;32b</text>
<text text-anchor="middle" x="762.25" y="-164.99" font-family="Helvetica,sans-Serif" font-size="14.00" fill="#e0e6ed">$0 marginal</text>
</g>
<!-- Router&#45;&gt;Ollama -->
<g id="edge11" class="edge">
<title>Router&#45;&gt;Ollama</title>
<path fill="none" stroke="#00d4aa" d="M501.62,-281.63C553.2,-264.53 621.78,-241.79 675.5,-223.98"/>
<polygon fill="#00d4aa" stroke="#00d4aa" points="676.55,-227.31 684.94,-220.84 674.35,-220.67 676.55,-227.31"/>
</g>
<!-- Mojo -->
<g id="node13" class="node">
<title>Mojo</title>
<path fill="#141922" stroke="#1e2a3a" d="M805.12,-139.42C805.12,-139.42 719.38,-139.42 719.38,-139.42 713.38,-139.42 707.38,-133.42 707.38,-127.42 707.38,-127.42 707.38,-91.67 707.38,-91.67 707.38,-85.67 713.38,-79.67 719.38,-79.67 719.38,-79.67 805.12,-79.67 805.12,-79.67 811.12,-79.67 817.12,-85.67 817.12,-91.67 817.12,-91.67 817.12,-127.42 817.12,-127.42 817.12,-133.42 811.12,-139.42 805.12,-139.42"/>
<text text-anchor="middle" x="762.25" y="-122.12" font-family="Helvetica,sans-Serif" font-size="14.00" fill="#e0e6ed">Mojo</text>
<text text-anchor="middle" x="762.25" y="-104.87" font-family="Helvetica,sans-Serif" font-size="14.00" fill="#e0e6ed">max&#45;sonnet</text>
<text text-anchor="middle" x="762.25" y="-87.62" font-family="Helvetica,sans-Serif" font-size="14.00" fill="#e0e6ed">containerised</text>
</g>
<!-- Router&#45;&gt;Mojo -->
<g id="edge12" class="edge">
<title>Router&#45;&gt;Mojo</title>
<path fill="none" stroke="#00d4aa" d="M462.92,-272.51C502.5,-237.13 568.93,-182.31 634.75,-148.54 653.81,-138.76 675.77,-130.93 695.98,-124.93"/>
<polygon fill="#00d4aa" stroke="#00d4aa" points="696.9,-128.31 705.55,-122.2 694.97,-121.58 696.9,-128.31"/>
</g>
<!-- Pricing -->
<g id="node15" class="node">
<title>Pricing</title>
<path fill="#141922" stroke="#1e2a3a" d="M1116.25,-362.79C1116.25,-362.79 1026.75,-362.79 1026.75,-362.79 1020.75,-362.79 1014.75,-356.79 1014.75,-350.79 1014.75,-350.79 1014.75,-332.29 1014.75,-332.29 1014.75,-326.29 1020.75,-320.29 1026.75,-320.29 1026.75,-320.29 1116.25,-320.29 1116.25,-320.29 1122.25,-320.29 1128.25,-326.29 1128.25,-332.29 1128.25,-332.29 1128.25,-350.79 1128.25,-350.79 1128.25,-356.79 1122.25,-362.79 1116.25,-362.79"/>
<text text-anchor="middle" x="1071.5" y="-345.49" font-family="Helvetica,sans-Serif" font-size="14.00" fill="#e0e6ed">model_pricing</text>
<text text-anchor="middle" x="1071.5" y="-328.24" font-family="Helvetica,sans-Serif" font-size="14.00" fill="#e0e6ed">52 rows</text>
</g>
<!-- Router&#45;&gt;Pricing -->
<g id="edge13" class="edge">
<title>Router&#45;&gt;Pricing</title>
<path fill="none" stroke="#00d4aa" stroke-dasharray="5,2" d="M445.79,-268.57C476.79,-212.32 543.58,-109.02 634.75,-67.54 738.31,-20.42 790.63,-13.48 890.75,-67.54 987.16,-119.6 1040.24,-248.4 1060.62,-309.02"/>
<polygon fill="#00d4aa" stroke="#00d4aa" points="1057.26,-309.99 1063.69,-318.41 1063.91,-307.82 1057.26,-309.99"/>
</g>
<!-- Sess -->
<g id="node14" class="node">
<title>Sess</title>
<path fill="#141922" stroke="#1e2a3a" d="M1135.75,-423.79C1135.75,-423.79 1007.25,-423.79 1007.25,-423.79 1001.25,-423.79 995.25,-417.79 995.25,-411.79 995.25,-411.79 995.25,-393.29 995.25,-393.29 995.25,-387.29 1001.25,-381.29 1007.25,-381.29 1007.25,-381.29 1135.75,-381.29 1135.75,-381.29 1141.75,-381.29 1147.75,-387.29 1147.75,-393.29 1147.75,-393.29 1147.75,-411.79 1147.75,-411.79 1147.75,-417.79 1141.75,-423.79 1135.75,-423.79"/>
<text text-anchor="middle" x="1071.5" y="-406.49" font-family="Helvetica,sans-Serif" font-size="14.00" fill="#e0e6ed">session_metrics</text>
<text text-anchor="middle" x="1071.5" y="-389.24" font-family="Helvetica,sans-Serif" font-size="14.00" fill="#e0e6ed">(+ provider, model)</text>
</g>
<!-- Anthropic&#45;&gt;Sess -->
<g id="edge14" class="edge">
<title>Anthropic&#45;&gt;Sess</title>
<path fill="none" stroke="#00d4aa" d="M866.32,-697.5C874.95,-693.53 883.23,-688.91 890.75,-683.54 981.09,-619.06 1036.91,-493.64 1059.26,-434.66"/>
<polygon fill="#00d4aa" stroke="#00d4aa" points="1062.45,-436.13 1062.64,-425.54 1055.88,-433.7 1062.45,-436.13"/>
<text text-anchor="middle" x="939" y="-675.95" font-family="Helvetica,sans-Serif" font-size="10.00" fill="#7a8fa6">cost+tokens</text>
</g>
<!-- OpenAI&#45;&gt;Sess -->
<g id="edge15" class="edge">
<title>OpenAI&#45;&gt;Sess</title>
<path fill="none" stroke="#00d4aa" d="M870.1,-600.36C877.27,-596.73 884.23,-592.79 890.75,-588.54 956.74,-545.51 1016.7,-474.11 1047.91,-433.43"/>
<polygon fill="#00d4aa" stroke="#00d4aa" points="1050.68,-435.56 1053.93,-425.47 1045.1,-431.33 1050.68,-435.56"/>
</g>
<!-- Google&#45;&gt;Sess -->
<g id="edge16" class="edge">
<title>Google&#45;&gt;Sess</title>
<path fill="none" stroke="#00d4aa" d="M866.3,-503.72C874.62,-500.39 882.86,-496.98 890.75,-493.54 935.7,-473.96 985.31,-448.54 1021,-429.55"/>
<polygon fill="#00d4aa" stroke="#00d4aa" points="1022.65,-432.64 1029.82,-424.83 1019.35,-426.46 1022.65,-432.64"/>
</g>
<!-- OpenRouter&#45;&gt;Sess -->
<g id="edge17" class="edge">
<title>OpenRouter&#45;&gt;Sess</title>
<path fill="none" stroke="#00d4aa" d="M829.16,-436.32C874.31,-430 934.66,-421.55 983.72,-414.69"/>
<polygon fill="#00d4aa" stroke="#00d4aa" points="984.05,-418.17 993.46,-413.32 983.08,-411.24 984.05,-418.17"/>
</g>
<!-- Mistral&#45;&gt;Sess -->
<g id="edge18" class="edge">
<title>Mistral&#45;&gt;Sess</title>
<path fill="none" stroke="#00d4aa" d="M823.22,-367.93C868.84,-374.32 932.29,-383.2 983.49,-390.36"/>
<polygon fill="#00d4aa" stroke="#00d4aa" points="982.99,-393.83 993.38,-391.75 983.96,-386.9 982.99,-393.83"/>
</g>
<!-- Qwen&#45;&gt;Sess -->
<g id="edge19" class="edge">
<title>Qwen&#45;&gt;Sess</title>
<path fill="none" stroke="#00d4aa" d="M833.24,-300.35C852.16,-306.13 872.46,-312.99 890.75,-320.54 935.59,-339.05 942.98,-351.7 987.25,-371.54 991.06,-373.25 995,-374.94 999,-376.61"/>
<polygon fill="#00d4aa" stroke="#00d4aa" points="997.67,-379.85 1008.25,-380.36 1000.3,-373.36 997.67,-379.85"/>
</g>
<!-- V_OODA -->
<g id="node16" class="node">
<title>V_OODA</title>
<path fill="#141922" stroke="#1e2a3a" d="M1324.5,-411.04C1324.5,-411.04 1196.75,-411.04 1196.75,-411.04 1190.75,-411.04 1184.75,-405.04 1184.75,-399.04 1184.75,-399.04 1184.75,-346.04 1184.75,-346.04 1184.75,-340.04 1190.75,-334.04 1196.75,-334.04 1196.75,-334.04 1324.5,-334.04 1324.5,-334.04 1330.5,-334.04 1336.5,-340.04 1336.5,-346.04 1336.5,-346.04 1336.5,-399.04 1336.5,-399.04 1336.5,-405.04 1330.5,-411.04 1324.5,-411.04"/>
<text text-anchor="middle" x="1260.62" y="-393.74" font-family="Helvetica,sans-Serif" font-size="14.00" fill="#e0e6ed">v_ooda_live</text>
<text text-anchor="middle" x="1260.62" y="-376.49" font-family="Helvetica,sans-Serif" font-size="14.00" fill="#e0e6ed">v_provider_usage</text>
<text text-anchor="middle" x="1260.62" y="-359.24" font-family="Helvetica,sans-Serif" font-size="14.00" fill="#e0e6ed">v_model_usage</text>
<text text-anchor="middle" x="1260.62" y="-341.99" font-family="Helvetica,sans-Serif" font-size="14.00" fill="#e0e6ed">v_cost_optimization</text>
</g>
<!-- Sess&#45;&gt;V_OODA -->
<g id="edge20" class="edge">
<title>Sess&#45;&gt;V_OODA</title>
<path fill="none" stroke="#00d4aa" d="M1148.07,-390.43C1156.3,-389.11 1164.72,-387.76 1173.07,-386.42"/>
<polygon fill="#00d4aa" stroke="#00d4aa" points="1173.57,-389.88 1182.89,-384.84 1172.46,-382.97 1173.57,-389.88"/>
</g>
<!-- V_OODA&#45;&gt;Router -->
<g id="edge21" class="edge">
<title>V_OODA&#45;&gt;Router</title>
<path fill="none" stroke="#3dd68c" stroke-dasharray="5,2" d="M1238.88,-333.69C1190.96,-249.59 1063.36,-55.94 890.75,-27.54 778.48,-9.07 736.46,23.46 634.75,-27.54 538.97,-75.57 475.98,-190.86 446.3,-257.23"/>
<polygon fill="#3dd68c" stroke="#3dd68c" points="443.24,-255.5 442.43,-266.06 449.65,-258.31 443.24,-255.5"/>
<text text-anchor="middle" x="939" y="-59.46" font-family="Helvetica,sans-Serif" font-size="10.00" fill="#7a8fa6">optim feedback</text>
</g>
</g>
</svg>
