<?xml version="1.0" encoding="UTF-8" standalone="no"?>
<!DOCTYPE svg PUBLIC "-//W3C//DTD SVG 1.1//EN"
 "http://www.w3.org/Graphics/SVG/1.1/DTD/svg11.dtd">
<!-- Generated by graphviz version 12.2.1 (0)
 -->
<!-- Title: Symb Pages: 1 -->
<svg width="768pt" height="724pt"
 viewBox="0.00 0.00 767.62 724.38" xmlns="http://www.w3.org/2000/svg" xmlns:xlink="http://www.w3.org/1999/xlink">
<g id="graph0" class="graph" transform="scale(1 1) rotate(0) translate(4 720.38)">
<title>Symb</title>
<polygon fill="#0a0e17" stroke="none" points="-4,4 -4,-720.38 763.62,-720.38 763.62,4 -4,4"/>
<g id="clust1" class="cluster">
<title>cluster_claude</title>
<polygon fill="#0a0e17" stroke="#00d4aa" points="250,-420.62 250,-564.12 444,-564.12 444,-420.62 250,-420.62"/>
<text text-anchor="middle" x="347" y="-546.83" font-family="Helvetica,sans-Serif" font-size="14.00" fill="#00d4aa">Claude (host)</text>
</g>
<g id="clust2" class="cluster">
<title>cluster_pi</title>
<polygon fill="#0a0e17" stroke="#00d4aa" points="8,-394.75 8,-590 242,-590 242,-394.75 8,-394.75"/>
<text text-anchor="middle" x="125" y="-572.7" font-family="Helvetica,sans-Serif" font-size="14.00" fill="#00d4aa">Pi (agent)</text>
</g>
<!-- ClaudeSetting -->
<g id="node1" class="node">
<title>ClaudeSetting</title>
<path fill="#0e2a1e" stroke="#3dd68c" d="M424.38,-505.62C424.38,-505.62 269.62,-505.62 269.62,-505.62 263.62,-505.62 257.62,-499.62 257.62,-493.62 257.62,-493.62 257.62,-440.62 257.62,-440.62 257.62,-434.62 263.62,-428.62 269.62,-428.62 269.62,-428.62 424.38,-428.62 424.38,-428.62 430.38,-428.62 436.38,-434.62 436.38,-440.62 436.38,-440.62 436.38,-493.62 436.38,-493.62 436.38,-499.62 430.38,-505.62 424.38,-505.62"/>
<text text-anchor="middle" x="347" y="-488.32" font-family="Helvetica,sans-Serif" font-size="14.00" fill="#e0e6ed">.claude/settings.json</text>
<text text-anchor="middle" x="347" y="-471.07" font-family="Helvetica,sans-Serif" font-size="14.00" fill="#e0e6ed">hooks: SessionStart</text>
<text text-anchor="middle" x="347" y="-453.82" font-family="Helvetica,sans-Serif" font-size="14.00" fill="#e0e6ed"> &#160;&#160;&#160;&#160;&#160;&#160;UserPromptSubmit</text>
<text text-anchor="middle" x="347" y="-436.57" font-family="Helvetica,sans-Serif" font-size="14.00" fill="#e0e6ed"> &#160;&#160;&#160;&#160;&#160;&#160;Stop · PostToolUse</text>
</g>
<!-- SaPlan -->
<g id="node3" class="node">
<title>SaPlan</title>
<path fill="#141922" stroke="#1e2a3a" d="M747.62,-505.62C747.62,-505.62 558.38,-505.62 558.38,-505.62 552.38,-505.62 546.38,-499.62 546.38,-493.62 546.38,-493.62 546.38,-440.62 546.38,-440.62 546.38,-434.62 552.38,-428.62 558.38,-428.62 558.38,-428.62 747.62,-428.62 747.62,-428.62 753.62,-428.62 759.62,-434.62 759.62,-440.62 759.62,-440.62 759.62,-493.62 759.62,-493.62 759.62,-499.62 753.62,-505.62 747.62,-505.62"/>
<text text-anchor="middle" x="653" y="-488.32" font-family="Helvetica,sans-Serif" font-size="14.00" fill="#e0e6ed">sa&#45;plan&#45;daemon</text>
<text text-anchor="middle" x="653" y="-471.07" font-family="Helvetica,sans-Serif" font-size="14.00" fill="#e0e6ed">zk&#45;recall · knowledge&#45;search</text>
<text text-anchor="middle" x="653" y="-453.82" font-family="Helvetica,sans-Serif" font-size="14.00" fill="#e0e6ed">semantic&#45;search · embed</text>
<text text-anchor="middle" x="653" y="-436.57" font-family="Helvetica,sans-Serif" font-size="14.00" fill="#e0e6ed">zk&#45;maintain · ingest&#45;docs</text>
</g>
<!-- ClaudeSetting&#45;&gt;SaPlan -->
<g id="edge1" class="edge">
<title>ClaudeSetting&#45;&gt;SaPlan</title>
<path fill="none" stroke="#00d4aa" d="M436.74,-467.12C467.35,-467.12 502.05,-467.12 534.55,-467.12"/>
<polygon fill="#00d4aa" stroke="#00d4aa" points="534.44,-470.63 544.44,-467.13 534.44,-463.63 534.44,-470.63"/>
<text text-anchor="middle" x="491.38" y="-486.12" font-family="Helvetica,sans-Serif" font-size="10.00" fill="#7a8fa6">UserPromptSubmit</text>
<text text-anchor="middle" x="491.38" y="-473.38" font-family="Helvetica,sans-Serif" font-size="10.00" fill="#7a8fa6">(every prompt)</text>
</g>
<!-- KMS -->
<g id="node5" class="node">
<title>KMS</title>
<path fill="#141922" stroke="#1e2a3a" d="M359.25,-341.25C359.25,-341.25 164.75,-341.25 164.75,-341.25 158.75,-341.25 152.75,-335.25 152.75,-329.25 152.75,-329.25 152.75,-241.75 152.75,-241.75 152.75,-235.75 158.75,-229.75 164.75,-229.75 164.75,-229.75 359.25,-229.75 359.25,-229.75 365.25,-229.75 371.25,-235.75 371.25,-241.75 371.25,-241.75 371.25,-329.25 371.25,-329.25 371.25,-335.25 365.25,-341.25 359.25,-341.25"/>
<text text-anchor="middle" x="262" y="-323.95" font-family="Helvetica,sans-Serif" font-size="14.00" fill="#e0e6ed">smriti.db</text>
<text text-anchor="middle" x="262" y="-306.7" font-family="Helvetica,sans-Serif" font-size="14.00" fill="#e0e6ed">35,227 holons</text>
<text text-anchor="middle" x="262" y="-289.45" font-family="Helvetica,sans-Serif" font-size="14.00" fill="#e0e6ed">13,046 embeddings</text>
<text text-anchor="middle" x="262" y="-272.2" font-family="Helvetica,sans-Serif" font-size="14.00" fill="#e0e6ed">3,074 edges (pass&#45;7)</text>
<text text-anchor="middle" x="262" y="-254.95" font-family="Helvetica,sans-Serif" font-size="14.00" fill="#e0e6ed">pi_sessions · session_metrics</text>
<text text-anchor="middle" x="262" y="-237.7" font-family="Helvetica,sans-Serif" font-size="14.00" fill="#e0e6ed">pipeline_stage_metrics</text>
</g>
<!-- ClaudeSetting&#45;&gt;KMS -->
<g id="edge11" class="edge">
<title>ClaudeSetting&#45;&gt;KMS</title>
<path fill="none" stroke="#3dd68c" stroke-dasharray="5,2" d="M329.18,-428.47C318.65,-406.22 305.03,-377.43 292.81,-351.6"/>
<polygon fill="#3dd68c" stroke="#3dd68c" points="296.11,-350.4 288.67,-342.86 289.79,-353.4 296.11,-350.4"/>
<text text-anchor="middle" x="340.8" y="-375.25" font-family="Helvetica,sans-Serif" font-size="10.00" fill="#7a8fa6">session&#45;save</text>
<text text-anchor="middle" x="340.8" y="-362.5" font-family="Helvetica,sans-Serif" font-size="10.00" fill="#7a8fa6">+ ingest&#45;docs</text>
</g>
<!-- PiExt -->
<g id="node2" class="node">
<title>PiExt</title>
<path fill="#0e2a1e" stroke="#3dd68c" d="M222.25,-531.5C222.25,-531.5 27.75,-531.5 27.75,-531.5 21.75,-531.5 15.75,-525.5 15.75,-519.5 15.75,-519.5 15.75,-414.75 15.75,-414.75 15.75,-408.75 21.75,-402.75 27.75,-402.75 27.75,-402.75 222.25,-402.75 222.25,-402.75 228.25,-402.75 234.25,-408.75 234.25,-414.75 234.25,-414.75 234.25,-519.5 234.25,-519.5 234.25,-525.5 228.25,-531.5 222.25,-531.5"/>
<text text-anchor="middle" x="125" y="-514.2" font-family="Helvetica,sans-Serif" font-size="14.00" fill="#e0e6ed">.pi/extensions/zk&#45;recall.ts</text>
<text text-anchor="middle" x="125" y="-496.95" font-family="Helvetica,sans-Serif" font-size="14.00" fill="#e0e6ed">events: session_start</text>
<text text-anchor="middle" x="125" y="-479.7" font-family="Helvetica,sans-Serif" font-size="14.00" fill="#e0e6ed"> &#160;&#160;&#160;&#160;&#160;&#160;&#160;before_agent_start</text>
<text text-anchor="middle" x="125" y="-462.45" font-family="Helvetica,sans-Serif" font-size="14.00" fill="#e0e6ed"> &#160;&#160;&#160;&#160;&#160;&#160;&#160;after_provider_response</text>
<text text-anchor="middle" x="125" y="-445.2" font-family="Helvetica,sans-Serif" font-size="14.00" fill="#e0e6ed"> &#160;&#160;&#160;&#160;&#160;&#160;&#160;message_end</text>
<text text-anchor="middle" x="125" y="-427.95" font-family="Helvetica,sans-Serif" font-size="14.00" fill="#e0e6ed"> &#160;&#160;&#160;&#160;&#160;&#160;&#160;tool_call</text>
<text text-anchor="middle" x="125" y="-410.7" font-family="Helvetica,sans-Serif" font-size="14.00" fill="#e0e6ed"> &#160;&#160;&#160;&#160;&#160;&#160;&#160;session_shutdown</text>
</g>
<!-- PiExt&#45;&gt;SaPlan -->
<g id="edge2" class="edge">
<title>PiExt&#45;&gt;SaPlan</title>
<path fill="none" stroke="#3dd68c" d="M171.15,-531.77C191.28,-554.59 216.94,-577.63 246,-590 323.75,-623.09 351.72,-595.21 436.12,-591.15 500.1,-588.07 562.43,-547.28 603.73,-513.3"/>
<polygon fill="#3dd68c" stroke="#3dd68c" points="605.91,-516.04 611.31,-506.93 601.4,-510.68 605.91,-516.04"/>
<text text-anchor="middle" x="390" y="-614" font-family="Helvetica,sans-Serif" font-size="10.00" fill="#7a8fa6">before_agent_start</text>
<text text-anchor="middle" x="390" y="-601.25" font-family="Helvetica,sans-Serif" font-size="10.00" fill="#7a8fa6">(every prompt)</text>
</g>
<!-- PiExt&#45;&gt;KMS -->
<g id="edge10" class="edge">
<title>PiExt&#45;&gt;KMS</title>
<path fill="none" stroke="#3dd68c" stroke-dasharray="5,2" d="M173.69,-402.29C186.59,-385.37 200.52,-367.11 213.41,-350.2"/>
<polygon fill="#3dd68c" stroke="#3dd68c" points="215.85,-352.77 219.14,-342.7 210.29,-348.53 215.85,-352.77"/>
<text text-anchor="middle" x="245.15" y="-375.25" font-family="Helvetica,sans-Serif" font-size="10.00" fill="#7a8fa6">session_metrics</text>
<text text-anchor="middle" x="245.15" y="-362.5" font-family="Helvetica,sans-Serif" font-size="10.00" fill="#7a8fa6">pi_sessions</text>
</g>
<!-- FY27 -->
<g id="node4" class="node">
<title>FY27</title>
<path fill="#141922" stroke="#1e2a3a" d="M723.88,-306.75C723.88,-306.75 596.12,-306.75 596.12,-306.75 590.12,-306.75 584.12,-300.75 584.12,-294.75 584.12,-294.75 584.12,-276.25 584.12,-276.25 584.12,-270.25 590.12,-264.25 596.12,-264.25 596.12,-264.25 723.88,-264.25 723.88,-264.25 729.88,-264.25 735.88,-270.25 735.88,-276.25 735.88,-276.25 735.88,-294.75 735.88,-294.75 735.88,-300.75 729.88,-306.75 723.88,-306.75"/>
<text text-anchor="middle" x="660" y="-289.45" font-family="Helvetica,sans-Serif" font-size="14.00" fill="#e0e6ed">fy27&#45;zettelkasten</text>
<text text-anchor="middle" x="660" y="-272.2" font-family="Helvetica,sans-Serif" font-size="14.00" fill="#e0e6ed">(sales/accounts ZK)</text>
</g>
<!-- SaPlan&#45;&gt;FY27 -->
<g id="edge4" class="edge">
<title>SaPlan&#45;&gt;FY27</title>
<path fill="none" stroke="#00d4aa" d="M654.47,-428.47C655.74,-395.77 657.57,-348.97 658.77,-318.17"/>
<polygon fill="#00d4aa" stroke="#00d4aa" points="662.26,-318.46 659.15,-308.33 655.26,-318.18 662.26,-318.46"/>
<text text-anchor="middle" x="681.5" y="-368.88" font-family="Helvetica,sans-Serif" font-size="10.00" fill="#7a8fa6">delegated</text>
</g>
<!-- SaPlan&#45;&gt;KMS -->
<g id="edge3" class="edge">
<title>SaPlan&#45;&gt;KMS</title>
<path fill="none" stroke="#00d4aa" d="M570.23,-428.28C540.3,-414.59 506.25,-398.99 475.25,-384.75 444.96,-370.84 412.27,-355.79 381.8,-341.76"/>
<polygon fill="#00d4aa" stroke="#00d4aa" points="383.48,-338.68 372.93,-337.67 380.55,-345.03 383.48,-338.68"/>
<text text-anchor="middle" x="508.62" y="-368.88" font-family="Helvetica,sans-Serif" font-size="10.00" fill="#7a8fa6">query + write</text>
</g>
<!-- RAG -->
<g id="node6" class="node">
<title>RAG</title>
<path fill="#0e1e2a" stroke="#00bfff" d="M686.5,-168.25C686.5,-168.25 439.5,-168.25 439.5,-168.25 433.5,-168.25 427.5,-162.25 427.5,-156.25 427.5,-156.25 427.5,-103.25 427.5,-103.25 427.5,-97.25 433.5,-91.25 439.5,-91.25 439.5,-91.25 686.5,-91.25 686.5,-91.25 692.5,-91.25 698.5,-97.25 698.5,-103.25 698.5,-103.25 698.5,-156.25 698.5,-156.25 698.5,-162.25 692.5,-168.25 686.5,-168.25"/>
<text text-anchor="middle" x="563" y="-150.95" font-family="Helvetica,sans-Serif" font-size="14.00" fill="#e0e6ed">cortex RAG pipeline</text>
<text text-anchor="middle" x="563" y="-133.7" font-family="Helvetica,sans-Serif" font-size="14.00" fill="#e0e6ed">query expansion → FTS5 → semantic</text>
<text text-anchor="middle" x="563" y="-116.45" font-family="Helvetica,sans-Serif" font-size="14.00" fill="#e0e6ed">→ FY27 → graph&#45;walk → rerank</text>
<text text-anchor="middle" x="563" y="-99.2" font-family="Helvetica,sans-Serif" font-size="14.00" fill="#e0e6ed">→ prompt injection</text>
</g>
<!-- SaPlan&#45;&gt;RAG -->
<g id="edge5" class="edge">
<title>SaPlan&#45;&gt;RAG</title>
<path fill="none" stroke="#00d4aa" d="M622.23,-428.17C605.02,-404.63 585.06,-372.92 575,-341.25 558.09,-288.04 557.07,-223.52 559.01,-180.05"/>
<polygon fill="#00d4aa" stroke="#00d4aa" points="562.5,-180.33 559.53,-170.16 555.51,-179.96 562.5,-180.33"/>
</g>
<!-- FY27&#45;&gt;RAG -->
<g id="edge6" class="edge">
<title>FY27&#45;&gt;RAG</title>
<path fill="none" stroke="#00d4aa" d="M646.92,-263.76C633.12,-241.89 610.91,-206.69 592.81,-177.99"/>
<polygon fill="#00d4aa" stroke="#00d4aa" points="595.94,-176.41 587.65,-169.82 590.02,-180.14 595.94,-176.41"/>
<text text-anchor="middle" x="627.25" y="-195.88" font-family="Helvetica,sans-Serif" font-size="10.00" fill="#7a8fa6">merge</text>
</g>
<!-- LLM -->
<g id="node7" class="node">
<title>LLM</title>
<path fill="#2a1e0e" stroke="#f5a623" d="M505.25,-42.5C505.25,-42.5 292.75,-42.5 292.75,-42.5 286.75,-42.5 280.75,-36.5 280.75,-30.5 280.75,-30.5 280.75,-12 280.75,-12 280.75,-6 286.75,0 292.75,0 292.75,0 505.25,0 505.25,0 511.25,0 517.25,-6 517.25,-12 517.25,-12 517.25,-30.5 517.25,-30.5 517.25,-36.5 511.25,-42.5 505.25,-42.5"/>
<text text-anchor="middle" x="399" y="-25.2" font-family="Helvetica,sans-Serif" font-size="14.00" fill="#e0e6ed">LLM (openrouter/gemini/claude)</text>
<text text-anchor="middle" x="399" y="-7.95" font-family="Helvetica,sans-Serif" font-size="14.00" fill="#e0e6ed">cost&#45;tracked per turn</text>
</g>
<!-- RAG&#45;&gt;LLM -->
<g id="edge7" class="edge">
<title>RAG&#45;&gt;LLM</title>
<path fill="none" stroke="#00d4aa" d="M504.72,-90.9C483.45,-77.09 459.86,-61.77 440.37,-49.11"/>
<polygon fill="#00d4aa" stroke="#00d4aa" points="442.43,-46.28 432.14,-43.77 438.62,-52.15 442.43,-46.28"/>
<text text-anchor="middle" x="525.58" y="-63.75" font-family="Helvetica,sans-Serif" font-size="10.00" fill="#7a8fa6">ctx&#45;enriched prompt</text>
</g>
<!-- LLM&#45;&gt;ClaudeSetting -->
<g id="edge9" class="edge">
<title>LLM&#45;&gt;ClaudeSetting</title>
<path fill="none" stroke="#f5a623" d="M400.14,-43C402.73,-98.94 406.82,-257.28 379,-384.75 376.6,-395.76 372.9,-407.23 368.85,-417.97"/>
<polygon fill="#f5a623" stroke="#f5a623" points="365.7,-416.42 365.28,-427.01 372.21,-418.99 365.7,-416.42"/>
<text text-anchor="middle" x="454.9" y="-202.25" font-family="Helvetica,sans-Serif" font-size="10.00" fill="#7a8fa6">Stop hook</text>
<text text-anchor="middle" x="454.9" y="-189.5" font-family="Helvetica,sans-Serif" font-size="10.00" fill="#7a8fa6">session&#45;save + ingest</text>
</g>
<!-- LLM&#45;&gt;PiExt -->
<g id="edge8" class="edge">
<title>LLM&#45;&gt;PiExt</title>
<path fill="none" stroke="#f5a623" d="M356.07,-42.99C296.68,-74.27 191.41,-139.57 144,-229.75 118.06,-279.09 114.25,-342.36 116.41,-391.02"/>
<polygon fill="#f5a623" stroke="#f5a623" points="112.91,-391.12 116.95,-400.92 119.9,-390.74 112.91,-391.12"/>
<text text-anchor="middle" x="249.44" y="-202.25" font-family="Helvetica,sans-Serif" font-size="10.00" fill="#7a8fa6">after_provider_response</text>
<text text-anchor="middle" x="249.44" y="-189.5" font-family="Helvetica,sans-Serif" font-size="10.00" fill="#7a8fa6">usage{input,output,cache,cost}</text>
</g>
</g>
</svg>
