<?xml version="1.0" encoding="UTF-8" standalone="no"?>
<!DOCTYPE svg PUBLIC "-//W3C//DTD SVG 1.1//EN"
 "http://www.w3.org/Graphics/SVG/1.1/DTD/svg11.dtd">
<!-- Generated by graphviz version 12.2.1 (0)
 -->
<!-- Title: G Pages: 1 -->
<svg width="1900pt" height="221pt"
 viewBox="0.00 0.00 1899.52 221.12" xmlns="http://www.w3.org/2000/svg" xmlns:xlink="http://www.w3.org/1999/xlink">
<g id="graph0" class="graph" transform="scale(1 1) rotate(0) translate(4 217.12)">
<title>G</title>
<polygon fill="#0b1020" stroke="none" points="-4,4 -4,-217.12 1895.52,-217.12 1895.52,4 -4,4"/>
<!-- L0 -->
<g id="node1" class="node">
<title>L0</title>
<path fill="#16213a" stroke="#4ea1ff" d="M145.75,-117.12C145.75,-117.12 12,-117.12 12,-117.12 6,-117.12 0,-111.12 0,-105.12 0,-105.12 0,-69.37 0,-69.37 0,-63.37 6,-57.37 12,-57.37 12,-57.37 145.75,-57.37 145.75,-57.37 151.75,-57.37 157.75,-63.37 157.75,-69.37 157.75,-69.37 157.75,-105.12 157.75,-105.12 157.75,-111.12 151.75,-117.12 145.75,-117.12"/>
<text text-anchor="middle" x="78.88" y="-99.82" font-family="Times,serif" font-size="14.00" fill="#e6edf3">L0 Constitutional</text>
<text text-anchor="middle" x="78.88" y="-82.57" font-family="Times,serif" font-size="14.00" fill="#e6edf3">Guardian/HITL</text>
<text text-anchor="middle" x="78.88" y="-65.32" font-family="Times,serif" font-size="14.00" fill="#e6edf3">Criticality: Extreme</text>
</g>
<!-- L1 -->
<g id="node2" class="node">
<title>L1</title>
<path fill="#16213a" stroke="#4ea1ff" d="M337.25,-117.12C337.25,-117.12 205.75,-117.12 205.75,-117.12 199.75,-117.12 193.75,-111.12 193.75,-105.12 193.75,-105.12 193.75,-69.37 193.75,-69.37 193.75,-63.37 199.75,-57.37 205.75,-57.37 205.75,-57.37 337.25,-57.37 337.25,-57.37 343.25,-57.37 349.25,-63.37 349.25,-69.37 349.25,-69.37 349.25,-105.12 349.25,-105.12 349.25,-111.12 343.25,-117.12 337.25,-117.12"/>
<text text-anchor="middle" x="271.5" y="-99.82" font-family="Times,serif" font-size="14.00" fill="#e6edf3">L1 Atomic Debug</text>
<text text-anchor="middle" x="271.5" y="-82.57" font-family="Times,serif" font-size="14.00" fill="#e6edf3">Tool IO fingerprints</text>
<text text-anchor="middle" x="271.5" y="-65.32" font-family="Times,serif" font-size="14.00" fill="#e6edf3">Criticality: High</text>
</g>
<!-- L0&#45;&gt;L1 -->
<g id="edge1" class="edge">
<title>L0&#45;&gt;L1</title>
<path fill="none" stroke="#7cc7ff" d="M158.23,-87.25C166.03,-87.25 173.98,-87.25 181.88,-87.25"/>
<polygon fill="#7cc7ff" stroke="#7cc7ff" points="181.85,-90.75 191.85,-87.25 181.85,-83.75 181.85,-90.75"/>
</g>
<!-- L2 -->
<g id="node3" class="node">
<title>L2</title>
<path fill="#16213a" stroke="#4ea1ff" d="M547.5,-117.12C547.5,-117.12 397.25,-117.12 397.25,-117.12 391.25,-117.12 385.25,-111.12 385.25,-105.12 385.25,-105.12 385.25,-69.37 385.25,-69.37 385.25,-63.37 391.25,-57.37 397.25,-57.37 397.25,-57.37 547.5,-57.37 547.5,-57.37 553.5,-57.37 559.5,-63.37 559.5,-69.37 559.5,-69.37 559.5,-105.12 559.5,-105.12 559.5,-111.12 553.5,-117.12 547.5,-117.12"/>
<text text-anchor="middle" x="472.38" y="-99.82" font-family="Times,serif" font-size="14.00" fill="#e6edf3">L2 Component</text>
<text text-anchor="middle" x="472.38" y="-82.57" font-family="Times,serif" font-size="14.00" fill="#e6edf3">AG&#45;UI/A2UI validation</text>
<text text-anchor="middle" x="472.38" y="-65.32" font-family="Times,serif" font-size="14.00" fill="#e6edf3">Criticality: High</text>
</g>
<!-- L1&#45;&gt;L2 -->
<g id="edge2" class="edge">
<title>L1&#45;&gt;L2</title>
<path fill="none" stroke="#7cc7ff" d="M349.67,-87.25C357.54,-87.25 365.6,-87.25 373.65,-87.25"/>
<polygon fill="#7cc7ff" stroke="#7cc7ff" points="373.48,-90.75 383.48,-87.25 373.48,-83.75 373.48,-90.75"/>
</g>
<!-- L3 -->
<g id="node4" class="node">
<title>L3</title>
<path fill="#16213a" stroke="#4ea1ff" d="M741.25,-117.12C741.25,-117.12 607.5,-117.12 607.5,-117.12 601.5,-117.12 595.5,-111.12 595.5,-105.12 595.5,-105.12 595.5,-69.37 595.5,-69.37 595.5,-63.37 601.5,-57.37 607.5,-57.37 607.5,-57.37 741.25,-57.37 741.25,-57.37 747.25,-57.37 753.25,-63.37 753.25,-69.37 753.25,-69.37 753.25,-105.12 753.25,-105.12 753.25,-111.12 747.25,-117.12 741.25,-117.12"/>
<text text-anchor="middle" x="674.38" y="-99.82" font-family="Times,serif" font-size="14.00" fill="#e6edf3">L3 Transaction</text>
<text text-anchor="middle" x="674.38" y="-82.57" font-family="Times,serif" font-size="14.00" fill="#e6edf3">Smriti + MoZ corr</text>
<text text-anchor="middle" x="674.38" y="-65.32" font-family="Times,serif" font-size="14.00" fill="#e6edf3">Criticality: Extreme</text>
</g>
<!-- L2&#45;&gt;L3 -->
<g id="edge3" class="edge">
<title>L2&#45;&gt;L3</title>
<path fill="none" stroke="#7cc7ff" d="M559.93,-87.25C567.81,-87.25 575.79,-87.25 583.69,-87.25"/>
<polygon fill="#7cc7ff" stroke="#7cc7ff" points="583.67,-90.75 593.67,-87.25 583.67,-83.75 583.67,-90.75"/>
</g>
<!-- L4 -->
<g id="node5" class="node">
<title>L4</title>
<path fill="#16213a" stroke="#4ea1ff" d="M1044.55,-162.12C1044.55,-162.12 892.8,-162.12 892.8,-162.12 886.8,-162.12 880.8,-156.12 880.8,-150.12 880.8,-150.12 880.8,-114.37 880.8,-114.37 880.8,-108.37 886.8,-102.37 892.8,-102.37 892.8,-102.37 1044.55,-102.37 1044.55,-102.37 1050.55,-102.37 1056.55,-108.37 1056.55,-114.37 1056.55,-114.37 1056.55,-150.12 1056.55,-150.12 1056.55,-156.12 1050.55,-162.12 1044.55,-162.12"/>
<text text-anchor="middle" x="968.68" y="-144.82" font-family="Times,serif" font-size="14.00" fill="#e6edf3">L4 System</text>
<text text-anchor="middle" x="968.68" y="-127.57" font-family="Times,serif" font-size="14.00" fill="#e6edf3">Pi runtime + breakers</text>
<text text-anchor="middle" x="968.68" y="-110.32" font-family="Times,serif" font-size="14.00" fill="#e6edf3">Criticality: Extreme</text>
</g>
<!-- L3&#45;&gt;L4 -->
<g id="edge4" class="edge">
<title>L3&#45;&gt;L4</title>
<path fill="none" stroke="#7cc7ff" d="M753.71,-99.31C789.26,-104.78 831.7,-111.32 869.37,-117.11"/>
<polygon fill="#7cc7ff" stroke="#7cc7ff" points="868.46,-120.52 878.87,-118.58 869.52,-113.6 868.46,-120.52"/>
</g>
<!-- Data -->
<g id="node10" class="node">
<title>Data</title>
<ellipse fill="#1e2b4d" stroke="#4ea1ff" cx="968.68" cy="-42.25" rx="179.43" ry="42.25"/>
<text text-anchor="middle" x="968.68" y="-54.82" font-family="Times,serif" font-size="14.00" fill="#e6edf3">Dataflow optimization</text>
<text text-anchor="middle" x="968.68" y="-37.57" font-family="Times,serif" font-size="14.00" fill="#e6edf3">intent→ZK→PII scrub→Pi RPC</text>
<text text-anchor="middle" x="968.68" y="-20.32" font-family="Times,serif" font-size="14.00" fill="#e6edf3">→AG&#45;UI/A2UI→Zenoh→Smriti→UI</text>
</g>
<!-- L3&#45;&gt;Data -->
<g id="edge9" class="edge">
<title>L3&#45;&gt;Data</title>
<path fill="none" stroke="#7cc7ff" d="M753.71,-75.19C770.09,-72.67 787.94,-69.92 806.11,-67.12"/>
<polygon fill="#7cc7ff" stroke="#7cc7ff" points="806.6,-70.59 815.95,-65.61 805.54,-63.67 806.6,-70.59"/>
</g>
<!-- L5 -->
<g id="node6" class="node">
<title>L5</title>
<path fill="#16213a" stroke="#4ea1ff" d="M1399.31,-213.12C1399.31,-213.12 1258.81,-213.12 1258.81,-213.12 1252.81,-213.12 1246.81,-207.12 1246.81,-201.12 1246.81,-201.12 1246.81,-165.37 1246.81,-165.37 1246.81,-159.37 1252.81,-153.37 1258.81,-153.37 1258.81,-153.37 1399.31,-153.37 1399.31,-153.37 1405.31,-153.37 1411.31,-159.37 1411.31,-165.37 1411.31,-165.37 1411.31,-201.12 1411.31,-201.12 1411.31,-207.12 1405.31,-213.12 1399.31,-213.12"/>
<text text-anchor="middle" x="1329.06" y="-195.82" font-family="Times,serif" font-size="14.00" fill="#e6edf3">L5 Cognitive</text>
<text text-anchor="middle" x="1329.06" y="-178.57" font-family="Times,serif" font-size="14.00" fill="#e6edf3">OODA/model routing</text>
<text text-anchor="middle" x="1329.06" y="-161.32" font-family="Times,serif" font-size="14.00" fill="#e6edf3">Criticality: High</text>
</g>
<!-- L4&#45;&gt;L5 -->
<g id="edge5" class="edge">
<title>L4&#45;&gt;L5</title>
<path fill="none" stroke="#7cc7ff" d="M1056.89,-144.66C1110.97,-152.36 1180.39,-162.23 1235.45,-170.07"/>
<polygon fill="#7cc7ff" stroke="#7cc7ff" points="1234.72,-173.5 1245.12,-171.45 1235.71,-166.57 1234.72,-173.5"/>
</g>
<!-- Runtime -->
<g id="node9" class="node">
<title>Runtime</title>
<ellipse fill="#1e2b4d" stroke="#4ea1ff" cx="1329.06" cy="-81.25" rx="144.96" ry="54.45"/>
<text text-anchor="middle" x="1329.06" y="-102.45" font-family="Times,serif" font-size="14.00" fill="#e6edf3">Runtime optimization</text>
<text text-anchor="middle" x="1329.06" y="-85.2" font-family="Times,serif" font-size="14.00" fill="#e6edf3">&#45; fail&#45;fast production paths</text>
<text text-anchor="middle" x="1329.06" y="-67.95" font-family="Times,serif" font-size="14.00" fill="#e6edf3">&#45; breaker bounded retries</text>
<text text-anchor="middle" x="1329.06" y="-50.7" font-family="Times,serif" font-size="14.00" fill="#e6edf3">&#45; actor lifecycle stabilized</text>
</g>
<!-- L4&#45;&gt;Runtime -->
<g id="edge8" class="edge">
<title>L4&#45;&gt;Runtime</title>
<path fill="none" stroke="#7cc7ff" d="M1056.89,-119.84C1094.45,-114.49 1139.42,-108.09 1181.83,-102.06"/>
<polygon fill="#7cc7ff" stroke="#7cc7ff" points="1182.22,-105.54 1191.63,-100.66 1181.24,-98.61 1182.22,-105.54"/>
</g>
<!-- L6 -->
<g id="node7" class="node">
<title>L6</title>
<path fill="#16213a" stroke="#4ea1ff" d="M1643.77,-213.12C1643.77,-213.12 1522.02,-213.12 1522.02,-213.12 1516.02,-213.12 1510.02,-207.12 1510.02,-201.12 1510.02,-201.12 1510.02,-165.37 1510.02,-165.37 1510.02,-159.37 1516.02,-153.37 1522.02,-153.37 1522.02,-153.37 1643.77,-153.37 1643.77,-153.37 1649.77,-153.37 1655.77,-159.37 1655.77,-165.37 1655.77,-165.37 1655.77,-201.12 1655.77,-201.12 1655.77,-207.12 1649.77,-213.12 1643.77,-213.12"/>
<text text-anchor="middle" x="1582.9" y="-195.82" font-family="Times,serif" font-size="14.00" fill="#e6edf3">L6 Ecosystem</text>
<text text-anchor="middle" x="1582.9" y="-178.57" font-family="Times,serif" font-size="14.00" fill="#e6edf3">Skill/registry sync</text>
<text text-anchor="middle" x="1582.9" y="-161.32" font-family="Times,serif" font-size="14.00" fill="#e6edf3">Criticality: High</text>
</g>
<!-- L5&#45;&gt;L6 -->
<g id="edge6" class="edge">
<title>L5&#45;&gt;L6</title>
<path fill="none" stroke="#7cc7ff" d="M1411.48,-183.25C1439.26,-183.25 1470.37,-183.25 1498.32,-183.25"/>
<polygon fill="#7cc7ff" stroke="#7cc7ff" points="1498.17,-186.75 1508.17,-183.25 1498.17,-179.75 1498.17,-186.75"/>
</g>
<!-- L7 -->
<g id="node8" class="node">
<title>L7</title>
<path fill="#16213a" stroke="#4ea1ff" d="M1879.52,-213.12C1879.52,-213.12 1703.77,-213.12 1703.77,-213.12 1697.77,-213.12 1691.77,-207.12 1691.77,-201.12 1691.77,-201.12 1691.77,-165.37 1691.77,-165.37 1691.77,-159.37 1697.77,-153.37 1703.77,-153.37 1703.77,-153.37 1879.52,-153.37 1879.52,-153.37 1885.52,-153.37 1891.52,-159.37 1891.52,-165.37 1891.52,-165.37 1891.52,-201.12 1891.52,-201.12 1891.52,-207.12 1885.52,-213.12 1879.52,-213.12"/>
<text text-anchor="middle" x="1791.65" y="-195.82" font-family="Times,serif" font-size="14.00" fill="#e6edf3">L7 Federation</text>
<text text-anchor="middle" x="1791.65" y="-178.57" font-family="Times,serif" font-size="14.00" fill="#e6edf3">Gateways/version vectors</text>
<text text-anchor="middle" x="1791.65" y="-161.32" font-family="Times,serif" font-size="14.00" fill="#e6edf3">Criticality: Medium</text>
</g>
<!-- L6&#45;&gt;L7 -->
<g id="edge7" class="edge">
<title>L6&#45;&gt;L7</title>
<path fill="none" stroke="#7cc7ff" d="M1656.21,-183.25C1663.96,-183.25 1671.98,-183.25 1680.05,-183.25"/>
<polygon fill="#7cc7ff" stroke="#7cc7ff" points="1679.97,-186.75 1689.97,-183.25 1679.97,-179.75 1679.97,-186.75"/>
</g>
</g>
</svg>
