<?xml version="1.0" encoding="UTF-8" standalone="no"?>
<!DOCTYPE svg PUBLIC "-//W3C//DTD SVG 1.1//EN"
 "http://www.w3.org/Graphics/SVG/1.1/DTD/svg11.dtd">
<!-- Generated by graphviz version 12.2.1 (0)
 -->
<!-- Title: G Pages: 1 -->
<svg width="1567pt" height="516pt"
 viewBox="0.00 0.00 1567.25 516.25" xmlns="http://www.w3.org/2000/svg" xmlns:xlink="http://www.w3.org/1999/xlink">
<g id="graph0" class="graph" transform="scale(1 1) rotate(0) translate(4 512.25)">
<title>G</title>
<polygon fill="#0b1020" stroke="none" points="-4,4 -4,-512.25 1563.25,-512.25 1563.25,4 -4,4"/>
<text text-anchor="middle" x="779.62" y="-490.95" font-family="Helvetica,sans-Serif" font-size="14.00">Pi x Claude Symbiosis — Control Plane</text>
<g id="clust1" class="cluster">
<title>cluster_ext</title>
<polygon fill="#0b1020" stroke="#334155" points="0,-8 0,-355 139.75,-355 139.75,-8 0,-8"/>
<text text-anchor="middle" x="69.88" y="-337.7" font-family="Helvetica,sans-Serif" font-size="14.00">External channels</text>
</g>
<g id="clust2" class="cluster">
<title>cluster_ctrl</title>
<polygon fill="#0b1020" stroke="#334155" points="160.75,-250 160.75,-475 1376,-475 1376,-250 160.75,-250"/>
<text text-anchor="middle" x="768.38" y="-457.7" font-family="Helvetica,sans-Serif" font-size="14.00">Supervisors / governance</text>
</g>
<g id="clust3" class="cluster">
<title>cluster_runtime</title>
<polygon fill="#0b1020" stroke="#334155" points="630.38,-104 630.38,-235 1551.25,-235 1551.25,-104 630.38,-104"/>
<text text-anchor="middle" x="1090.81" y="-217.7" font-family="Helvetica,sans-Serif" font-size="14.00">Runtime authorities</text>
</g>
<!-- Browser -->
<g id="node1" class="node">
<title>Browser</title>
<path fill="#142033" stroke="#00d4aa" d="M93.5,-106C93.5,-106 45.25,-106 45.25,-106 39.25,-106 33.25,-100 33.25,-94 33.25,-94 33.25,-82 33.25,-82 33.25,-76 39.25,-70 45.25,-70 45.25,-70 93.5,-70 93.5,-70 99.5,-70 105.5,-76 105.5,-82 105.5,-82 105.5,-94 105.5,-94 105.5,-100 99.5,-106 93.5,-106"/>
<text text-anchor="middle" x="69.38" y="-83.33" font-family="Helvetica,sans-Serif" font-size="14.00" fill="#e6f1ff">Browser</text>
</g>
<!-- Dash -->
<g id="node20" class="node">
<title>Dash</title>
<path fill="#142033" stroke="#00d4aa" d="M1531.25,-148C1531.25,-148 1417,-148 1417,-148 1411,-148 1405,-142 1405,-136 1405,-136 1405,-124 1405,-124 1405,-118 1411,-112 1417,-112 1417,-112 1531.25,-112 1531.25,-112 1537.25,-112 1543.25,-118 1543.25,-124 1543.25,-124 1543.25,-136 1543.25,-136 1543.25,-142 1537.25,-148 1531.25,-148"/>
<text text-anchor="middle" x="1474.12" y="-125.33" font-family="Helvetica,sans-Serif" font-size="14.00" fill="#e6f1ff">dashboards / SSR</text>
</g>
<!-- Browser&#45;&gt;Dash -->
<g id="edge3" class="edge">
<title>Browser&#45;&gt;Dash</title>
<path fill="none" stroke="#7dd3fc" stroke-width="1.4" d="M105.85,-86.67C139.92,-85.5 192.84,-84 238.75,-84 238.75,-84 238.75,-84 1295,-84 1336.61,-84 1382,-95.91 1416.54,-107.61"/>
<polygon fill="#7dd3fc" stroke="#7dd3fc" stroke-width="1.4" points="1415.23,-110.86 1425.82,-110.86 1417.54,-104.25 1415.23,-110.86"/>
</g>
<!-- TUI -->
<g id="node2" class="node">
<title>TUI</title>
<path fill="#142033" stroke="#00d4aa" d="M84.38,-52C84.38,-52 54.38,-52 54.38,-52 48.38,-52 42.38,-46 42.38,-40 42.38,-40 42.38,-28 42.38,-28 42.38,-22 48.38,-16 54.38,-16 54.38,-16 84.38,-16 84.38,-16 90.38,-16 96.38,-22 96.38,-28 96.38,-28 96.38,-40 96.38,-40 96.38,-46 90.38,-52 84.38,-52"/>
<text text-anchor="middle" x="69.38" y="-29.32" font-family="Helvetica,sans-Serif" font-size="14.00" fill="#e6f1ff">TUI</text>
</g>
<!-- TUI&#45;&gt;Dash -->
<g id="edge4" class="edge">
<title>TUI&#45;&gt;Dash</title>
<path fill="none" stroke="#7dd3fc" stroke-width="1.4" d="M96.62,-34.25C129.75,-34.55 188.47,-35 238.75,-35 238.75,-35 238.75,-35 1295,-35 1353.69,-35 1411.82,-75.65 1445.01,-103.77"/>
<polygon fill="#7dd3fc" stroke="#7dd3fc" stroke-width="1.4" points="1442.65,-106.36 1452.49,-110.29 1447.25,-101.08 1442.65,-106.36"/>
</g>
<!-- Claude -->
<g id="node3" class="node">
<title>Claude</title>
<path fill="#142033" stroke="#00d4aa" d="M89.38,-322C89.38,-322 49.38,-322 49.38,-322 43.38,-322 37.38,-316 37.38,-310 37.38,-310 37.38,-298 37.38,-298 37.38,-292 43.38,-286 49.38,-286 49.38,-286 89.38,-286 89.38,-286 95.38,-286 101.38,-292 101.38,-298 101.38,-298 101.38,-310 101.38,-310 101.38,-316 95.38,-322 89.38,-322"/>
<text text-anchor="middle" x="69.38" y="-299.32" font-family="Helvetica,sans-Serif" font-size="14.00" fill="#e6f1ff">Claude</text>
</g>
<!-- Master -->
<g id="node7" class="node">
<title>Master</title>
<path fill="#142033" stroke="#00d4aa" d="M298.75,-331C298.75,-331 180.75,-331 180.75,-331 174.75,-331 168.75,-325 168.75,-319 168.75,-319 168.75,-307 168.75,-307 168.75,-301 174.75,-295 180.75,-295 180.75,-295 298.75,-295 298.75,-295 304.75,-295 310.75,-301 310.75,-307 310.75,-307 310.75,-319 310.75,-319 310.75,-325 304.75,-331 298.75,-331"/>
<text text-anchor="middle" x="239.75" y="-308.32" font-family="Helvetica,sans-Serif" font-size="14.00" fill="#e6f1ff">master&#45;supervisor</text>
</g>
<!-- Claude&#45;&gt;Master -->
<g id="edge1" class="edge">
<title>Claude&#45;&gt;Master</title>
<path fill="none" stroke="#7dd3fc" stroke-width="1.4" d="M101.65,-305.67C117.32,-306.51 137.1,-307.57 156.72,-308.62"/>
<polygon fill="#7dd3fc" stroke="#7dd3fc" stroke-width="1.4" points="156.26,-312.1 166.43,-309.13 156.63,-305.11 156.26,-312.1"/>
</g>
<!-- PiUser -->
<g id="node4" class="node">
<title>PiUser</title>
<path fill="#142033" stroke="#00d4aa" d="M98.38,-268C98.38,-268 40.38,-268 40.38,-268 34.38,-268 28.38,-262 28.38,-256 28.38,-256 28.38,-244 28.38,-244 28.38,-238 34.38,-232 40.38,-232 40.38,-232 98.38,-232 98.38,-232 104.38,-232 110.38,-238 110.38,-244 110.38,-244 110.38,-256 110.38,-256 110.38,-262 104.38,-268 98.38,-268"/>
<text text-anchor="middle" x="69.38" y="-245.32" font-family="Helvetica,sans-Serif" font-size="14.00" fill="#e6f1ff">Pi CLI/TUI</text>
</g>
<!-- PiUser&#45;&gt;Master -->
<g id="edge2" class="edge">
<title>PiUser&#45;&gt;Master</title>
<path fill="none" stroke="#7dd3fc" stroke-width="1.4" d="M110.71,-265.09C130.93,-272.66 155.84,-281.98 178.3,-290.38"/>
<polygon fill="#7dd3fc" stroke="#7dd3fc" stroke-width="1.4" points="176.86,-293.58 187.45,-293.8 179.31,-287.02 176.86,-293.58"/>
</g>
<!-- Email -->
<g id="node5" class="node">
<title>Email</title>
<path fill="#142033" stroke="#00d4aa" d="M84.5,-160C84.5,-160 54.25,-160 54.25,-160 48.25,-160 42.25,-154 42.25,-148 42.25,-148 42.25,-136 42.25,-136 42.25,-130 48.25,-124 54.25,-124 54.25,-124 84.5,-124 84.5,-124 90.5,-124 96.5,-130 96.5,-136 96.5,-136 96.5,-148 96.5,-148 96.5,-154 90.5,-160 84.5,-160"/>
<text text-anchor="middle" x="69.38" y="-137.32" font-family="Helvetica,sans-Serif" font-size="14.00" fill="#e6f1ff">Email</text>
</g>
<!-- Plan -->
<g id="node15" class="node">
<title>Plan</title>
<path fill="#142033" stroke="#00d4aa" d="M754.88,-148C754.88,-148 650.38,-148 650.38,-148 644.38,-148 638.38,-142 638.38,-136 638.38,-136 638.38,-124 638.38,-124 638.38,-118 644.38,-112 650.38,-112 650.38,-112 754.88,-112 754.88,-112 760.88,-112 766.88,-118 766.88,-124 766.88,-124 766.88,-136 766.88,-136 766.88,-142 760.88,-148 754.88,-148"/>
<text text-anchor="middle" x="702.62" y="-125.33" font-family="Helvetica,sans-Serif" font-size="14.00" fill="#e6f1ff">sa&#45;plan&#45;daemon</text>
</g>
<!-- Email&#45;&gt;Plan -->
<g id="edge25" class="edge">
<title>Email&#45;&gt;Plan</title>
<path fill="none" stroke="#7dd3fc" stroke-width="1.4" d="M96.78,-140.81C143.53,-138.75 243.94,-134.58 328.75,-132.75 431.81,-130.53 550.92,-130 626.24,-129.93"/>
<polygon fill="#7dd3fc" stroke="#7dd3fc" stroke-width="1.4" points="625.83,-133.43 635.83,-129.92 625.83,-126.43 625.83,-133.43"/>
<text text-anchor="middle" x="367.38" y="-136.7" font-family="Times,serif" font-size="14.00">send&#45;email</text>
</g>
<!-- Telegram -->
<g id="node6" class="node">
<title>Telegram</title>
<path fill="#142033" stroke="#00d4aa" d="M96.88,-214C96.88,-214 41.88,-214 41.88,-214 35.88,-214 29.88,-208 29.88,-202 29.88,-202 29.88,-190 29.88,-190 29.88,-184 35.88,-178 41.88,-178 41.88,-178 96.88,-178 96.88,-178 102.88,-178 108.88,-184 108.88,-190 108.88,-190 108.88,-202 108.88,-202 108.88,-208 102.88,-214 96.88,-214"/>
<text text-anchor="middle" x="69.38" y="-191.32" font-family="Helvetica,sans-Serif" font-size="14.00" fill="#e6f1ff">Telegram</text>
</g>
<!-- Telegram&#45;&gt;Plan -->
<g id="edge26" class="edge">
<title>Telegram&#45;&gt;Plan</title>
<path fill="none" stroke="#7dd3fc" stroke-width="1.4" d="M109.14,-193.34C199.11,-186.96 429.03,-169.37 620,-144 622.01,-143.73 624.04,-143.45 626.1,-143.16"/>
<polygon fill="#7dd3fc" stroke="#7dd3fc" stroke-width="1.4" points="626.5,-146.64 635.88,-141.71 625.47,-139.72 626.5,-146.64"/>
<text text-anchor="middle" x="367.38" y="-179.23" font-family="Times,serif" font-size="14.00">gateway</text>
</g>
<!-- Design -->
<g id="node8" class="node">
<title>Design</title>
<path fill="#142033" stroke="#00d4aa" d="M553.25,-388C553.25,-388 436,-388 436,-388 430,-388 424,-382 424,-376 424,-376 424,-364 424,-364 424,-358 430,-352 436,-352 436,-352 553.25,-352 553.25,-352 559.25,-352 565.25,-358 565.25,-364 565.25,-364 565.25,-376 565.25,-376 565.25,-382 559.25,-388 553.25,-388"/>
<text text-anchor="middle" x="494.62" y="-365.32" font-family="Helvetica,sans-Serif" font-size="14.00" fill="#e6f1ff">design&#45;supervisor</text>
</g>
<!-- Master&#45;&gt;Design -->
<g id="edge5" class="edge">
<title>Master&#45;&gt;Design</title>
<path fill="none" stroke="#7dd3fc" stroke-width="1.4" d="M303.07,-331.41C311.67,-333.75 320.41,-336.01 328.75,-338 355.68,-344.43 385.31,-350.49 411.94,-355.57"/>
<polygon fill="#7dd3fc" stroke="#7dd3fc" stroke-width="1.4" points="410.99,-358.95 421.46,-357.37 412.29,-352.07 410.99,-358.95"/>
</g>
<!-- Build -->
<g id="node9" class="node">
<title>Build</title>
<path fill="#142033" stroke="#00d4aa" d="M755.25,-378C755.25,-378 650,-378 650,-378 644,-378 638,-372 638,-366 638,-366 638,-354 638,-354 638,-348 644,-342 650,-342 650,-342 755.25,-342 755.25,-342 761.25,-342 767.25,-348 767.25,-354 767.25,-354 767.25,-366 767.25,-366 767.25,-372 761.25,-378 755.25,-378"/>
<text text-anchor="middle" x="702.62" y="-355.32" font-family="Helvetica,sans-Serif" font-size="14.00" fill="#e6f1ff">build&#45;supervisor</text>
</g>
<!-- Master&#45;&gt;Build -->
<g id="edge6" class="edge">
<title>Master&#45;&gt;Build</title>
<path fill="none" stroke="#7dd3fc" stroke-width="1.4" d="M311.08,-318.85C376.85,-324.48 477.79,-333.51 565.25,-343 584.8,-345.12 605.89,-347.64 625.5,-350.08"/>
<polygon fill="#7dd3fc" stroke="#7dd3fc" stroke-width="1.4" points="625.04,-353.55 635.4,-351.32 625.91,-346.6 625.04,-353.55"/>
</g>
<!-- Deploy -->
<g id="node10" class="node">
<title>Deploy</title>
<path fill="#142033" stroke="#00d4aa" d="M1081,-348C1081,-348 963.75,-348 963.75,-348 957.75,-348 951.75,-342 951.75,-336 951.75,-336 951.75,-324 951.75,-324 951.75,-318 957.75,-312 963.75,-312 963.75,-312 1081,-312 1081,-312 1087,-312 1093,-318 1093,-324 1093,-324 1093,-336 1093,-336 1093,-342 1087,-348 1081,-348"/>
<text text-anchor="middle" x="1022.38" y="-325.32" font-family="Helvetica,sans-Serif" font-size="14.00" fill="#e6f1ff">deploy&#45;supervisor</text>
</g>
<!-- Master&#45;&gt;Deploy -->
<g id="edge7" class="edge">
<title>Master&#45;&gt;Deploy</title>
<path fill="none" stroke="#7dd3fc" stroke-width="1.4" d="M310.81,-310.66C435.51,-307.13 704.07,-302.41 930,-318 933.18,-318.22 936.42,-318.48 939.69,-318.77"/>
<polygon fill="#7dd3fc" stroke="#7dd3fc" stroke-width="1.4" points="939.22,-322.24 949.51,-319.73 939.9,-315.27 939.22,-322.24"/>
</g>
<!-- Operate -->
<g id="node11" class="node">
<title>Operate</title>
<path fill="#142033" stroke="#00d4aa" d="M1356,-439C1356,-439 1232,-439 1232,-439 1226,-439 1220,-433 1220,-427 1220,-427 1220,-415 1220,-415 1220,-409 1226,-403 1232,-403 1232,-403 1356,-403 1356,-403 1362,-403 1368,-409 1368,-415 1368,-415 1368,-427 1368,-427 1368,-433 1362,-439 1356,-439"/>
<text text-anchor="middle" x="1294" y="-416.32" font-family="Helvetica,sans-Serif" font-size="14.00" fill="#e6f1ff">operate&#45;supervisor</text>
</g>
<!-- Master&#45;&gt;Operate -->
<g id="edge8" class="edge">
<title>Master&#45;&gt;Operate</title>
<path fill="none" stroke="#7dd3fc" stroke-width="1.4" d="M260.64,-331.34C301.18,-366.73 397.67,-441 493.62,-441 493.62,-441 493.62,-441 1023.38,-441 1085.23,-441 1154.85,-435.7 1207.85,-430.56"/>
<polygon fill="#7dd3fc" stroke="#7dd3fc" stroke-width="1.4" points="1207.87,-434.07 1217.47,-429.6 1207.18,-427.11 1207.87,-434.07"/>
</g>
<!-- Guardian -->
<g id="node12" class="node">
<title>Guardian</title>
<path fill="#142033" stroke="#00d4aa" d="M537.12,-294C537.12,-294 452.12,-294 452.12,-294 446.12,-294 440.12,-288 440.12,-282 440.12,-282 440.12,-270 440.12,-270 440.12,-264 446.12,-258 452.12,-258 452.12,-258 537.12,-258 537.12,-258 543.12,-258 549.12,-264 549.12,-270 549.12,-270 549.12,-282 549.12,-282 549.12,-288 543.12,-294 537.12,-294"/>
<text text-anchor="middle" x="494.62" y="-271.32" font-family="Helvetica,sans-Serif" font-size="14.00" fill="#e6f1ff">Guardian / L0</text>
</g>
<!-- Master&#45;&gt;Guardian -->
<g id="edge13" class="edge">
<title>Master&#45;&gt;Guardian</title>
<path fill="none" stroke="#7dd3fc" stroke-width="1.4" d="M309.22,-294.57C315.79,-293.14 322.38,-291.83 328.75,-290.75 361.27,-285.22 397.76,-281.68 428.14,-279.47"/>
<polygon fill="#7dd3fc" stroke="#7dd3fc" stroke-width="1.4" points="428.04,-282.98 437.77,-278.8 427.55,-276 428.04,-282.98"/>
<text text-anchor="middle" x="367.38" y="-294.7" font-family="Times,serif" font-size="14.00">approval</text>
</g>
<!-- Design&#45;&gt;Build -->
<g id="edge9" class="edge">
<title>Design&#45;&gt;Build</title>
<path fill="none" stroke="#7dd3fc" stroke-width="1.4" d="M565.65,-366.6C584.97,-365.66 606.02,-364.64 625.66,-363.69"/>
<polygon fill="#7dd3fc" stroke="#7dd3fc" stroke-width="1.4" points="625.74,-367.19 635.56,-363.21 625.4,-360.2 625.74,-367.19"/>
</g>
<!-- Build&#45;&gt;Deploy -->
<g id="edge10" class="edge">
<title>Build&#45;&gt;Deploy</title>
<path fill="none" stroke="#7dd3fc" stroke-width="1.4" d="M767.4,-362.73C812.94,-363.68 875.54,-362.93 930,-355 936.78,-354.01 943.77,-352.69 950.72,-351.16"/>
<polygon fill="#7dd3fc" stroke="#7dd3fc" stroke-width="1.4" points="951.36,-354.6 960.29,-348.9 949.75,-347.79 951.36,-354.6"/>
</g>
<!-- Rete -->
<g id="node13" class="node">
<title>Rete</title>
<path fill="#142033" stroke="#00d4aa" d="M1084.75,-402C1084.75,-402 960,-402 960,-402 954,-402 948,-396 948,-390 948,-390 948,-378 948,-378 948,-372 954,-366 960,-366 960,-366 1084.75,-366 1084.75,-366 1090.75,-366 1096.75,-372 1096.75,-378 1096.75,-378 1096.75,-390 1096.75,-390 1096.75,-396 1090.75,-402 1084.75,-402"/>
<text text-anchor="middle" x="1022.38" y="-379.32" font-family="Helvetica,sans-Serif" font-size="14.00" fill="#e6f1ff">RETE&#45;UL / ruliology</text>
</g>
<!-- Build&#45;&gt;Rete -->
<g id="edge17" class="edge">
<title>Build&#45;&gt;Rete</title>
<path fill="none" stroke="#7dd3fc" stroke-width="1.4" d="M767.54,-364.83C815.9,-368.48 882.79,-373.53 935.77,-377.53"/>
<polygon fill="#7dd3fc" stroke="#7dd3fc" stroke-width="1.4" points="935.19,-381 945.42,-378.26 935.71,-374.02 935.19,-381"/>
<text text-anchor="middle" x="857.62" y="-380.86" font-family="Times,serif" font-size="14.00">rule impacts</text>
</g>
<!-- Wiring -->
<g id="node14" class="node">
<title>Wiring</title>
<path fill="#142033" stroke="#00d4aa" d="M1063.38,-294C1063.38,-294 981.38,-294 981.38,-294 975.38,-294 969.38,-288 969.38,-282 969.38,-282 969.38,-270 969.38,-270 969.38,-264 975.38,-258 981.38,-258 981.38,-258 1063.38,-258 1063.38,-258 1069.38,-258 1075.38,-264 1075.38,-270 1075.38,-270 1075.38,-282 1075.38,-282 1075.38,-288 1069.38,-294 1063.38,-294"/>
<text text-anchor="middle" x="1022.38" y="-271.32" font-family="Helvetica,sans-Serif" font-size="14.00" fill="#e6f1ff">wiring_guard</text>
</g>
<!-- Build&#45;&gt;Wiring -->
<g id="edge16" class="edge">
<title>Build&#45;&gt;Wiring</title>
<path fill="none" stroke="#7dd3fc" stroke-width="1.4" d="M759.23,-341.53C767.91,-338.82 776.8,-336.14 785.25,-333.75 843.09,-317.4 909.66,-301.37 957.34,-290.36"/>
<polygon fill="#7dd3fc" stroke="#7dd3fc" stroke-width="1.4" points="958.01,-293.8 966.98,-288.15 956.45,-286.97 958.01,-293.8"/>
<text text-anchor="middle" x="857.62" y="-337.7" font-family="Times,serif" font-size="14.00">type/msg/tool parity</text>
</g>
<!-- Deploy&#45;&gt;Operate -->
<g id="edge11" class="edge">
<title>Deploy&#45;&gt;Operate</title>
<path fill="none" stroke="#7dd3fc" stroke-width="1.4" d="M1077.94,-348.42C1121.06,-362.97 1181.41,-383.34 1227.21,-398.79"/>
<polygon fill="#7dd3fc" stroke="#7dd3fc" stroke-width="1.4" points="1225.92,-402.05 1236.51,-401.93 1228.16,-395.42 1225.92,-402.05"/>
</g>
<!-- Operate&#45;&gt;Design -->
<g id="edge12" class="edge">
<title>Operate&#45;&gt;Design</title>
<path fill="none" stroke="#7dd3fc" stroke-width="1.4" d="M1219.6,-419.86C1149.73,-418.54 1041.65,-415.89 948,-411 806.62,-403.61 771.23,-401.2 630.38,-387 613.22,-385.27 594.87,-383.14 577.41,-380.98"/>
<polygon fill="#7dd3fc" stroke="#7dd3fc" stroke-width="1.4" points="577.95,-377.52 567.59,-379.75 577.08,-384.47 577.95,-377.52"/>
</g>
<!-- Guardian&#45;&gt;Plan -->
<g id="edge14" class="edge">
<title>Guardian&#45;&gt;Plan</title>
<path fill="none" stroke="#7dd3fc" stroke-width="1.4" d="M517.42,-257.63C534.83,-243.24 560.07,-223 583.25,-206.75 598.98,-195.72 607.75,-198.79 620,-184 628.2,-174.1 621.26,-166.07 630.38,-157 630.89,-156.49 631.41,-155.99 631.94,-155.5"/>
<polygon fill="#7dd3fc" stroke="#7dd3fc" stroke-width="1.4" points="633.83,-158.46 639.66,-149.61 629.59,-152.89 633.83,-158.46"/>
<text text-anchor="middle" x="601.62" y="-210.7" font-family="Times,serif" font-size="14.00">audit</text>
</g>
<!-- PiRt -->
<g id="node18" class="node">
<title>PiRt</title>
<path fill="#142033" stroke="#00d4aa" d="M1190,-202C1190,-202 1126.75,-202 1126.75,-202 1120.75,-202 1114.75,-196 1114.75,-190 1114.75,-190 1114.75,-178 1114.75,-178 1114.75,-172 1120.75,-166 1126.75,-166 1126.75,-166 1190,-166 1190,-166 1196,-166 1202,-172 1202,-178 1202,-178 1202,-190 1202,-190 1202,-196 1196,-202 1190,-202"/>
<text text-anchor="middle" x="1158.38" y="-179.32" font-family="Helvetica,sans-Serif" font-size="14.00" fill="#e6f1ff">Pi runtime</text>
</g>
<!-- Guardian&#45;&gt;PiRt -->
<g id="edge15" class="edge">
<title>Guardian&#45;&gt;PiRt</title>
<path fill="none" stroke="#7dd3fc" stroke-width="1.4" d="M549.37,-270.81C654.83,-260.24 896.07,-234.1 1096.75,-198 1098.72,-197.64 1100.73,-197.27 1102.75,-196.87"/>
<polygon fill="#7dd3fc" stroke="#7dd3fc" stroke-width="1.4" points="1103.27,-200.34 1112.35,-194.89 1101.85,-193.49 1103.27,-200.34"/>
<text text-anchor="middle" x="702.62" y="-266.23" font-family="Times,serif" font-size="14.00">tool gate</text>
</g>
<!-- Cortex -->
<g id="node16" class="node">
<title>Cortex</title>
<path fill="#142033" stroke="#00d4aa" d="M1057.75,-182C1057.75,-182 987,-182 987,-182 981,-182 975,-176 975,-170 975,-170 975,-158 975,-158 975,-152 981,-146 987,-146 987,-146 1057.75,-146 1057.75,-146 1063.75,-146 1069.75,-152 1069.75,-158 1069.75,-158 1069.75,-170 1069.75,-170 1069.75,-176 1063.75,-182 1057.75,-182"/>
<text text-anchor="middle" x="1022.38" y="-159.32" font-family="Helvetica,sans-Serif" font-size="14.00" fill="#e6f1ff">Rust cortex</text>
</g>
<!-- Plan&#45;&gt;Cortex -->
<g id="edge18" class="edge">
<title>Plan&#45;&gt;Cortex</title>
<path fill="none" stroke="#7dd3fc" stroke-width="1.4" d="M767.16,-136.8C824.36,-142.92 907.72,-151.84 963.21,-157.78"/>
<polygon fill="#7dd3fc" stroke="#7dd3fc" stroke-width="1.4" points="962.52,-161.22 972.84,-158.81 963.27,-154.26 962.52,-161.22"/>
</g>
<!-- Plan&#45;&gt;Dash -->
<g id="edge24" class="edge">
<title>Plan&#45;&gt;Dash</title>
<path fill="none" stroke="#7dd3fc" stroke-width="1.4" d="M767.25,-130C906.7,-130 1239.03,-130 1392.68,-130"/>
<polygon fill="#7dd3fc" stroke="#7dd3fc" stroke-width="1.4" points="1392.64,-133.5 1402.64,-130 1392.64,-126.5 1392.64,-133.5"/>
<text text-anchor="middle" x="1158.38" y="-133.95" font-family="Times,serif" font-size="14.00">task / KPI</text>
</g>
<!-- Gleam -->
<g id="node17" class="node">
<title>Gleam</title>
<path fill="#142033" stroke="#00d4aa" d="M1333.88,-182C1333.88,-182 1254.12,-182 1254.12,-182 1248.12,-182 1242.12,-176 1242.12,-170 1242.12,-170 1242.12,-158 1242.12,-158 1242.12,-152 1248.12,-146 1254.12,-146 1254.12,-146 1333.88,-146 1333.88,-146 1339.88,-146 1345.88,-152 1345.88,-158 1345.88,-158 1345.88,-170 1345.88,-170 1345.88,-176 1339.88,-182 1333.88,-182"/>
<text text-anchor="middle" x="1294" y="-159.32" font-family="Helvetica,sans-Serif" font-size="14.00" fill="#e6f1ff">cepaf_gleam</text>
</g>
<!-- Cortex&#45;&gt;Gleam -->
<g id="edge19" class="edge">
<title>Cortex&#45;&gt;Gleam</title>
<path fill="none" stroke="#7dd3fc" stroke-width="1.4" d="M1070.03,-164C1114.22,-164 1180.9,-164 1229.83,-164"/>
<polygon fill="#7dd3fc" stroke="#7dd3fc" stroke-width="1.4" points="1229.75,-167.5 1239.75,-164 1229.75,-160.5 1229.75,-167.5"/>
</g>
<!-- Gleam&#45;&gt;Dash -->
<g id="edge20" class="edge">
<title>Gleam&#45;&gt;Dash</title>
<path fill="none" stroke="#7dd3fc" stroke-width="1.4" d="M1346.04,-154.26C1360.77,-151.45 1377.2,-148.31 1393.23,-145.25"/>
<polygon fill="#7dd3fc" stroke="#7dd3fc" stroke-width="1.4" points="1393.56,-148.75 1402.72,-143.44 1392.24,-141.88 1393.56,-148.75"/>
</g>
<!-- PiRt&#45;&gt;Dash -->
<g id="edge21" class="edge">
<title>PiRt&#45;&gt;Dash</title>
<path fill="none" stroke="#7dd3fc" stroke-width="1.4" d="M1202.27,-193.03C1246.67,-200.63 1317.6,-207.82 1376,-191 1400.22,-184.03 1424.23,-169.04 1442.32,-155.67"/>
<polygon fill="#7dd3fc" stroke="#7dd3fc" stroke-width="1.4" points="1444.23,-158.61 1450.04,-149.75 1439.97,-153.05 1444.23,-158.61"/>
</g>
<!-- Model -->
<g id="node19" class="node">
<title>Model</title>
<path fill="#142033" stroke="#00d4aa" d="M750,-202C750,-202 655.25,-202 655.25,-202 649.25,-202 643.25,-196 643.25,-190 643.25,-190 643.25,-178 643.25,-178 643.25,-172 649.25,-166 655.25,-166 655.25,-166 750,-166 750,-166 756,-166 762,-172 762,-178 762,-178 762,-190 762,-190 762,-196 756,-202 750,-202"/>
<text text-anchor="middle" x="702.62" y="-179.32" font-family="Helvetica,sans-Serif" font-size="14.00" fill="#e6f1ff">model resolver</text>
</g>
<!-- Model&#45;&gt;Cortex -->
<g id="edge22" class="edge">
<title>Model&#45;&gt;Cortex</title>
<path fill="none" stroke="#7dd3fc" stroke-width="1.4" d="M762.28,-180.31C819.41,-176.71 905.78,-171.28 962.86,-167.68"/>
<polygon fill="#7dd3fc" stroke="#7dd3fc" stroke-width="1.4" points="963.06,-171.18 972.82,-167.06 962.62,-164.19 963.06,-171.18"/>
</g>
<!-- Model&#45;&gt;PiRt -->
<g id="edge23" class="edge">
<title>Model&#45;&gt;PiRt</title>
<path fill="none" stroke="#7dd3fc" stroke-width="1.4" d="M762.29,-187.79C839.17,-192.14 978.17,-197.82 1096.75,-191 1098.62,-190.89 1100.53,-190.77 1102.45,-190.62"/>
<polygon fill="#7dd3fc" stroke="#7dd3fc" stroke-width="1.4" points="1102.6,-194.12 1112.26,-189.77 1102,-187.15 1102.6,-194.12"/>
</g>
</g>
</svg>
