<?xml version="1.0" encoding="UTF-8" standalone="no"?>
<!DOCTYPE svg PUBLIC "-//W3C//DTD SVG 1.1//EN"
 "http://www.w3.org/Graphics/SVG/1.1/DTD/svg11.dtd">
<!-- Generated by graphviz version 12.2.1 (0)
 -->
<!-- Title: G Pages: 1 -->
<svg width="1411pt" height="230pt"
 viewBox="0.00 0.00 1410.50 230.25" xmlns="http://www.w3.org/2000/svg" xmlns:xlink="http://www.w3.org/1999/xlink">
<g id="graph0" class="graph" transform="scale(1 1) rotate(0) translate(4 226.25)">
<title>G</title>
<polygon fill="#0b1020" stroke="none" points="-4,4 -4,-226.25 1406.5,-226.25 1406.5,4 -4,4"/>
<text text-anchor="middle" x="701.25" y="-204.95" font-family="Helvetica,sans-Serif" font-size="14.00">Pi x Claude Symbiosis — Data Plane</text>
<!-- User -->
<g id="node1" class="node">
<title>User</title>
<path fill="#13291f" stroke="#22c55e" d="M81.25,-92C81.25,-92 12,-92 12,-92 6,-92 0,-86 0,-80 0,-80 0,-68 0,-68 0,-62 6,-56 12,-56 12,-56 81.25,-56 81.25,-56 87.25,-56 93.25,-62 93.25,-68 93.25,-68 93.25,-80 93.25,-80 93.25,-86 87.25,-92 81.25,-92"/>
<text text-anchor="middle" x="46.62" y="-69.33" font-family="Helvetica,sans-Serif" font-size="14.00" fill="#eafff3">User intent</text>
</g>
<!-- Recall -->
<g id="node2" class="node">
<title>Recall</title>
<path fill="#13291f" stroke="#22c55e" d="M291,-92C291,-92 142.25,-92 142.25,-92 136.25,-92 130.25,-86 130.25,-80 130.25,-80 130.25,-68 130.25,-68 130.25,-62 136.25,-56 142.25,-56 142.25,-56 291,-56 291,-56 297,-56 303,-62 303,-68 303,-68 303,-80 303,-80 303,-86 297,-92 291,-92"/>
<text text-anchor="middle" x="216.62" y="-69.33" font-family="Helvetica,sans-Serif" font-size="14.00" fill="#eafff3">ZK recall + FY27 recall</text>
</g>
<!-- User&#45;&gt;Recall -->
<g id="edge1" class="edge">
<title>User&#45;&gt;Recall</title>
<path fill="none" stroke="#86efac" stroke-width="1.4" d="M93.53,-74C101.26,-74 109.53,-74 117.99,-74"/>
<polygon fill="#86efac" stroke="#86efac" stroke-width="1.4" points="117.92,-77.5 127.92,-74 117.92,-70.5 117.92,-77.5"/>
</g>
<!-- Pii -->
<g id="node3" class="node">
<title>Pii</title>
<path fill="#13291f" stroke="#22c55e" d="M428,-92C428,-92 352,-92 352,-92 346,-92 340,-86 340,-80 340,-80 340,-68 340,-68 340,-62 346,-56 352,-56 352,-56 428,-56 428,-56 434,-56 440,-62 440,-68 440,-68 440,-80 440,-80 440,-86 434,-92 428,-92"/>
<text text-anchor="middle" x="390" y="-69.33" font-family="Helvetica,sans-Serif" font-size="14.00" fill="#eafff3">PII scrubber</text>
</g>
<!-- Recall&#45;&gt;Pii -->
<g id="edge2" class="edge">
<title>Recall&#45;&gt;Pii</title>
<path fill="none" stroke="#86efac" stroke-width="1.4" d="M303.31,-74C311.65,-74 319.98,-74 328,-74"/>
<polygon fill="#86efac" stroke="#86efac" stroke-width="1.4" points="327.77,-77.5 337.77,-74 327.77,-70.5 327.77,-77.5"/>
</g>
<!-- Hedge -->
<g id="node4" class="node">
<title>Hedge</title>
<path fill="#13291f" stroke="#22c55e" d="M667.75,-92C667.75,-92 489,-92 489,-92 483,-92 477,-86 477,-80 477,-80 477,-68 477,-68 477,-62 483,-56 489,-56 489,-56 667.75,-56 667.75,-56 673.75,-56 679.75,-62 679.75,-68 679.75,-68 679.75,-80 679.75,-80 679.75,-86 673.75,-92 667.75,-92"/>
<text text-anchor="middle" x="578.38" y="-69.33" font-family="Helvetica,sans-Serif" font-size="14.00" fill="#eafff3">6&#45;tier / 4&#45;breaker inference</text>
</g>
<!-- Pii&#45;&gt;Hedge -->
<g id="edge3" class="edge">
<title>Pii&#45;&gt;Hedge</title>
<path fill="none" stroke="#86efac" stroke-width="1.4" d="M440.46,-74C448.15,-74 456.36,-74 464.8,-74"/>
<polygon fill="#86efac" stroke="#86efac" stroke-width="1.4" points="464.72,-77.5 474.72,-74 464.72,-70.5 464.72,-77.5"/>
</g>
<!-- Events -->
<g id="node5" class="node">
<title>Events</title>
<path fill="#13291f" stroke="#22c55e" d="M834,-147C834,-147 728.75,-147 728.75,-147 722.75,-147 716.75,-141 716.75,-135 716.75,-135 716.75,-123 716.75,-123 716.75,-117 722.75,-111 728.75,-111 728.75,-111 834,-111 834,-111 840,-111 846,-117 846,-123 846,-123 846,-135 846,-135 846,-141 840,-147 834,-147"/>
<text text-anchor="middle" x="781.38" y="-124.33" font-family="Helvetica,sans-Serif" font-size="14.00" fill="#eafff3">AG&#45;UI 32 events</text>
</g>
<!-- Hedge&#45;&gt;Events -->
<g id="edge4" class="edge">
<title>Hedge&#45;&gt;Events</title>
<path fill="none" stroke="#86efac" stroke-width="1.4" d="M646.86,-92.47C665.47,-97.56 685.77,-103.11 704.81,-108.32"/>
<polygon fill="#86efac" stroke="#86efac" stroke-width="1.4" points="703.85,-111.69 714.42,-110.95 705.7,-104.94 703.85,-111.69"/>
</g>
<!-- Moz -->
<g id="node7" class="node">
<title>Moz</title>
<path fill="#13291f" stroke="#22c55e" d="M818.62,-92C818.62,-92 744.12,-92 744.12,-92 738.12,-92 732.12,-86 732.12,-80 732.12,-80 732.12,-68 732.12,-68 732.12,-62 738.12,-56 744.12,-56 744.12,-56 818.62,-56 818.62,-56 824.62,-56 830.62,-62 830.62,-68 830.62,-68 830.62,-80 830.62,-80 830.62,-86 824.62,-92 818.62,-92"/>
<text text-anchor="middle" x="781.38" y="-69.33" font-family="Helvetica,sans-Serif" font-size="14.00" fill="#eafff3">MoZ req/res</text>
</g>
<!-- Hedge&#45;&gt;Moz -->
<g id="edge9" class="edge">
<title>Hedge&#45;&gt;Moz</title>
<path fill="none" stroke="#86efac" stroke-width="1.4" d="M680.17,-74C693.61,-74 707.05,-74 719.52,-74"/>
<polygon fill="#86efac" stroke="#86efac" stroke-width="1.4" points="719.51,-77.5 729.51,-74 719.51,-70.5 719.51,-77.5"/>
</g>
<!-- OTel -->
<g id="node9" class="node">
<title>OTel</title>
<path fill="#13291f" stroke="#22c55e" d="M814.88,-36C814.88,-36 747.88,-36 747.88,-36 741.88,-36 735.88,-30 735.88,-24 735.88,-24 735.88,-12 735.88,-12 735.88,-6 741.88,0 747.88,0 747.88,0 814.88,0 814.88,0 820.88,0 826.88,-6 826.88,-12 826.88,-12 826.88,-24 826.88,-24 826.88,-30 820.88,-36 814.88,-36"/>
<text text-anchor="middle" x="781.38" y="-13.32" font-family="Helvetica,sans-Serif" font-size="14.00" fill="#eafff3">OoZ spans</text>
</g>
<!-- Hedge&#45;&gt;OTel -->
<g id="edge7" class="edge">
<title>Hedge&#45;&gt;OTel</title>
<path fill="none" stroke="#86efac" stroke-width="1.4" d="M645.75,-55.51C671.1,-48.44 699.74,-40.46 724.07,-33.69"/>
<polygon fill="#86efac" stroke="#86efac" stroke-width="1.4" points="724.9,-37.09 733.59,-31.03 723.02,-30.35 724.9,-37.09"/>
</g>
<!-- A2 -->
<g id="node6" class="node">
<title>A2</title>
<path fill="#13291f" stroke="#22c55e" d="M1007,-197C1007,-197 895,-197 895,-197 889,-197 883,-191 883,-185 883,-185 883,-173 883,-173 883,-167 889,-161 895,-161 895,-161 1007,-161 1007,-161 1013,-161 1019,-167 1019,-173 1019,-173 1019,-185 1019,-185 1019,-191 1013,-197 1007,-197"/>
<text text-anchor="middle" x="951" y="-174.32" font-family="Helvetica,sans-Serif" font-size="14.00" fill="#eafff3">A2UI 233 catalog</text>
</g>
<!-- Events&#45;&gt;A2 -->
<g id="edge11" class="edge">
<title>Events&#45;&gt;A2</title>
<path fill="none" stroke="#86efac" stroke-width="1.4" d="M844.32,-147.48C854.79,-150.6 865.76,-153.87 876.5,-157.08"/>
<polygon fill="#86efac" stroke="#86efac" stroke-width="1.4" points="875.42,-160.41 886,-159.91 877.42,-153.7 875.42,-160.41"/>
</g>
<!-- Zenoh -->
<g id="node8" class="node">
<title>Zenoh</title>
<path fill="#13291f" stroke="#22c55e" d="M990.5,-105C990.5,-105 911.5,-105 911.5,-105 905.5,-105 899.5,-99 899.5,-93 899.5,-93 899.5,-81 899.5,-81 899.5,-75 905.5,-69 911.5,-69 911.5,-69 990.5,-69 990.5,-69 996.5,-69 1002.5,-75 1002.5,-81 1002.5,-81 1002.5,-93 1002.5,-93 1002.5,-99 996.5,-105 990.5,-105"/>
<text text-anchor="middle" x="951" y="-82.33" font-family="Helvetica,sans-Serif" font-size="14.00" fill="#eafff3">Zenoh mesh</text>
</g>
<!-- Events&#45;&gt;Zenoh -->
<g id="edge5" class="edge">
<title>Events&#45;&gt;Zenoh</title>
<path fill="none" stroke="#86efac" stroke-width="1.4" d="M846.23,-113C859.75,-109.61 874.01,-106.04 887.49,-102.66"/>
<polygon fill="#86efac" stroke="#86efac" stroke-width="1.4" points="888.18,-106.1 897.03,-100.27 886.48,-99.31 888.18,-106.1"/>
</g>
<!-- Smriti -->
<g id="node10" class="node">
<title>Smriti</title>
<path fill="#13291f" stroke="#22c55e" d="M1382.62,-79C1382.62,-79 1203.12,-79 1203.12,-79 1197.12,-79 1191.12,-73 1191.12,-67 1191.12,-67 1191.12,-55 1191.12,-55 1191.12,-49 1197.12,-43 1203.12,-43 1203.12,-43 1382.62,-43 1382.62,-43 1388.62,-43 1394.62,-49 1394.62,-55 1394.62,-55 1394.62,-67 1394.62,-67 1394.62,-73 1388.62,-79 1382.62,-79"/>
<text text-anchor="middle" x="1292.88" y="-56.33" font-family="Helvetica,sans-Serif" font-size="14.00" fill="#eafff3">Smriti.db / session_metrics</text>
</g>
<!-- Events&#45;&gt;Smriti -->
<g id="edge13" class="edge">
<title>Events&#45;&gt;Smriti</title>
<path fill="none" stroke="#86efac" stroke-width="1.4" d="M846.33,-128.05C922.85,-125.91 1054.52,-119.03 1165.25,-97 1176.18,-94.83 1197.15,-89.09 1218.93,-82.81"/>
<polygon fill="#86efac" stroke="#86efac" stroke-width="1.4" points="1219.68,-86.24 1228.31,-80.09 1217.73,-79.52 1219.68,-86.24"/>
</g>
<!-- UI -->
<g id="node11" class="node">
<title>UI</title>
<path fill="#13291f" stroke="#22c55e" d="M1390.5,-138C1390.5,-138 1195.25,-138 1195.25,-138 1189.25,-138 1183.25,-132 1183.25,-126 1183.25,-126 1183.25,-114 1183.25,-114 1183.25,-108 1189.25,-102 1195.25,-102 1195.25,-102 1390.5,-102 1390.5,-102 1396.5,-102 1402.5,-108 1402.5,-114 1402.5,-114 1402.5,-126 1402.5,-126 1402.5,-132 1396.5,-138 1390.5,-138"/>
<text text-anchor="middle" x="1292.88" y="-115.33" font-family="Helvetica,sans-Serif" font-size="14.00" fill="#eafff3">Lustre / Wisp / TUI / Pi web&#45;ui</text>
</g>
<!-- A2&#45;&gt;UI -->
<g id="edge12" class="edge">
<title>A2&#45;&gt;UI</title>
<path fill="none" stroke="#86efac" stroke-width="1.4" d="M1019.41,-169.96C1061.45,-164.06 1116.63,-155.82 1165.25,-147 1175.64,-145.11 1186.49,-143.01 1197.27,-140.83"/>
<polygon fill="#86efac" stroke="#86efac" stroke-width="1.4" points="1197.75,-144.31 1206.85,-138.87 1196.35,-137.45 1197.75,-144.31"/>
</g>
<!-- Moz&#45;&gt;Zenoh -->
<g id="edge10" class="edge">
<title>Moz&#45;&gt;Zenoh</title>
<path fill="none" stroke="#86efac" stroke-width="1.4" d="M830.86,-77.76C848.47,-79.13 868.62,-80.69 887.28,-82.14"/>
<polygon fill="#86efac" stroke="#86efac" stroke-width="1.4" points="886.94,-85.62 897.18,-82.9 887.48,-78.64 886.94,-85.62"/>
</g>
<!-- Moz&#45;&gt;Smriti -->
<g id="edge14" class="edge">
<title>Moz&#45;&gt;Smriti</title>
<path fill="none" stroke="#86efac" stroke-width="1.4" d="M831.11,-65.84C847.54,-63.45 866.02,-61.18 883,-60 982.89,-53.08 1096.85,-54.09 1179.03,-56.39"/>
<polygon fill="#86efac" stroke="#86efac" stroke-width="1.4" points="1178.71,-59.89 1188.81,-56.68 1178.91,-52.89 1178.71,-59.89"/>
</g>
<!-- Zenoh&#45;&gt;Smriti -->
<g id="edge16" class="edge">
<title>Zenoh&#45;&gt;Smriti</title>
<path fill="none" stroke="#86efac" stroke-width="1.4" d="M1002.72,-79.66C1013.99,-78.21 1025.89,-76.81 1037,-75.75 1083.28,-71.35 1134.42,-68.08 1178.67,-65.76"/>
<polygon fill="#86efac" stroke="#86efac" stroke-width="1.4" points="1178.73,-69.26 1188.54,-65.25 1178.37,-62.27 1178.73,-69.26"/>
<text text-anchor="middle" x="1101.12" y="-79.7" font-family="Times,serif" font-size="14.00">audit / correlation</text>
</g>
<!-- Zenoh&#45;&gt;UI -->
<g id="edge6" class="edge">
<title>Zenoh&#45;&gt;UI</title>
<path fill="none" stroke="#86efac" stroke-width="1.4" d="M1002.88,-91.94C1047.23,-96.25 1113.33,-102.66 1171.12,-108.28"/>
<polygon fill="#86efac" stroke="#86efac" stroke-width="1.4" points="1170.53,-111.73 1180.82,-109.22 1171.21,-104.77 1170.53,-111.73"/>
</g>
<!-- OTel&#45;&gt;Zenoh -->
<g id="edge8" class="edge">
<title>OTel&#45;&gt;Zenoh</title>
<path fill="none" stroke="#86efac" stroke-width="1.4" d="M827.3,-36.49C847.86,-44.96 872.43,-55.07 894.17,-64.02"/>
<polygon fill="#86efac" stroke="#86efac" stroke-width="1.4" points="892.71,-67.2 903.29,-67.77 895.37,-60.73 892.71,-67.2"/>
</g>
<!-- OTel&#45;&gt;Smriti -->
<g id="edge15" class="edge">
<title>OTel&#45;&gt;Smriti</title>
<path fill="none" stroke="#86efac" stroke-width="1.4" d="M827.14,-21.78C905.16,-28.36 1068.27,-42.13 1178.95,-51.47"/>
<polygon fill="#86efac" stroke="#86efac" stroke-width="1.4" points="1178.46,-54.94 1188.72,-52.29 1179.05,-47.97 1178.46,-54.94"/>
</g>
</g>
</svg>
