<?xml version="1.0" encoding="UTF-8" standalone="no"?>
<!DOCTYPE svg PUBLIC "-//W3C//DTD SVG 1.1//EN"
 "http://www.w3.org/Graphics/SVG/1.1/DTD/svg11.dtd">
<!-- Generated by graphviz version 12.2.1 (0)
 -->
<!-- Title: G Pages: 1 -->
<svg width="1295pt" height="196pt"
 viewBox="0.00 0.00 1295.25 196.25" xmlns="http://www.w3.org/2000/svg" xmlns:xlink="http://www.w3.org/1999/xlink">
<g id="graph0" class="graph" transform="scale(1 1) rotate(0) translate(4 192.25)">
<title>G</title>
<polygon fill="#0b1020" stroke="none" points="-4,4 -4,-192.25 1291.25,-192.25 1291.25,4 -4,4"/>
<text text-anchor="middle" x="643.62" y="-170.95" font-family="Helvetica,sans-Serif" font-size="14.00">Sequence — Prompt to Federated Outcome</text>
<!-- U -->
<g id="node1" class="node">
<title>U</title>
<path fill="#1f2937" stroke="#f59e0b" d="M42,-109C42,-109 12,-109 12,-109 6,-109 0,-103 0,-97 0,-97 0,-85 0,-85 0,-79 6,-73 12,-73 12,-73 42,-73 42,-73 48,-73 54,-79 54,-85 54,-85 54,-97 54,-97 54,-103 48,-109 42,-109"/>
<text text-anchor="middle" x="27" y="-86.33" font-family="Helvetica,sans-Serif" font-size="14.00" fill="#fff7ed">User</text>
</g>
<!-- C -->
<g id="node2" class="node">
<title>C</title>
<path fill="#1f2937" stroke="#f59e0b" d="M220,-109C220,-109 154.5,-109 154.5,-109 148.5,-109 142.5,-103 142.5,-97 142.5,-97 142.5,-85 142.5,-85 142.5,-79 148.5,-73 154.5,-73 154.5,-73 220,-73 220,-73 226,-73 232,-79 232,-85 232,-85 232,-97 232,-97 232,-103 226,-109 220,-109"/>
<text text-anchor="middle" x="187.25" y="-86.33" font-family="Helvetica,sans-Serif" font-size="14.00" fill="#fff7ed">Claude / Pi</text>
</g>
<!-- U&#45;&gt;C -->
<g id="edge1" class="edge">
<title>U&#45;&gt;C</title>
<path fill="none" stroke="#fbbf24" stroke-width="1.4" d="M54.49,-91C75.07,-91 104.36,-91 130.09,-91"/>
<polygon fill="#fbbf24" stroke="#fbbf24" stroke-width="1.4" points="129.88,-94.5 139.88,-91 129.88,-87.5 129.88,-94.5"/>
<text text-anchor="middle" x="98.25" y="-94.95" font-family="Times,serif" font-size="14.00">prompt</text>
</g>
<!-- R -->
<g id="node3" class="node">
<title>R</title>
<path fill="#1f2937" stroke="#f59e0b" d="M445.5,-163C445.5,-163 393.5,-163 393.5,-163 387.5,-163 381.5,-157 381.5,-151 381.5,-151 381.5,-139 381.5,-139 381.5,-133 387.5,-127 393.5,-127 393.5,-127 445.5,-127 445.5,-127 451.5,-127 457.5,-133 457.5,-139 457.5,-139 457.5,-151 457.5,-151 457.5,-157 451.5,-163 445.5,-163"/>
<text text-anchor="middle" x="419.5" y="-140.32" font-family="Helvetica,sans-Serif" font-size="14.00" fill="#fff7ed">ZK recall</text>
</g>
<!-- C&#45;&gt;R -->
<g id="edge2" class="edge">
<title>C&#45;&gt;R</title>
<path fill="none" stroke="#fbbf24" stroke-width="1.4" d="M232.22,-106.76C238.16,-108.65 244.2,-110.45 250,-112 289.63,-122.57 335.34,-131.31 369.14,-137.14"/>
<polygon fill="#fbbf24" stroke="#fbbf24" stroke-width="1.4" points="368.49,-140.57 378.94,-138.79 369.66,-133.67 368.49,-140.57"/>
<text text-anchor="middle" x="300.62" y="-137.63" font-family="Times,serif" font-size="14.00">context</text>
</g>
<!-- G -->
<g id="node4" class="node">
<title>G</title>
<path fill="#1f2937" stroke="#f59e0b" d="M447,-109C447,-109 392,-109 392,-109 386,-109 380,-103 380,-97 380,-97 380,-85 380,-85 380,-79 386,-73 392,-73 392,-73 447,-73 447,-73 453,-73 459,-79 459,-85 459,-85 459,-97 459,-97 459,-103 453,-109 447,-109"/>
<text text-anchor="middle" x="419.5" y="-86.33" font-family="Helvetica,sans-Serif" font-size="14.00" fill="#fff7ed">Guardian</text>
</g>
<!-- C&#45;&gt;G -->
<g id="edge3" class="edge">
<title>C&#45;&gt;G</title>
<path fill="none" stroke="#fbbf24" stroke-width="1.4" d="M232.37,-91C270.95,-91 326.98,-91 367.48,-91"/>
<polygon fill="#fbbf24" stroke="#fbbf24" stroke-width="1.4" points="367.39,-94.5 377.39,-91 367.39,-87.5 367.39,-94.5"/>
<text text-anchor="middle" x="300.62" y="-94.95" font-family="Times,serif" font-size="14.00">privileged op?</text>
</g>
<!-- P -->
<g id="node5" class="node">
<title>P</title>
<path fill="#1f2937" stroke="#f59e0b" d="M657.5,-72C657.5,-72 594.25,-72 594.25,-72 588.25,-72 582.25,-66 582.25,-60 582.25,-60 582.25,-48 582.25,-48 582.25,-42 588.25,-36 594.25,-36 594.25,-36 657.5,-36 657.5,-36 663.5,-36 669.5,-42 669.5,-48 669.5,-48 669.5,-60 669.5,-60 669.5,-66 663.5,-72 657.5,-72"/>
<text text-anchor="middle" x="625.88" y="-49.33" font-family="Helvetica,sans-Serif" font-size="14.00" fill="#fff7ed">Pi runtime</text>
</g>
<!-- C&#45;&gt;P -->
<g id="edge5" class="edge">
<title>C&#45;&gt;P</title>
<path fill="none" stroke="#fbbf24" stroke-width="1.4" d="M232.33,-77.08C268.65,-66.37 321.72,-52.48 369.25,-46.75 413.6,-41.41 425.1,-45.71 469.75,-46.75 503.03,-47.53 540.3,-49.24 569.97,-50.81"/>
<polygon fill="#fbbf24" stroke="#fbbf24" stroke-width="1.4" points="569.47,-54.29 579.65,-51.33 569.85,-47.3 569.47,-54.29"/>
<text text-anchor="middle" x="419.5" y="-50.7" font-family="Times,serif" font-size="14.00">RPC / tool call</text>
</g>
<!-- G&#45;&gt;P -->
<g id="edge4" class="edge">
<title>G&#45;&gt;P</title>
<path fill="none" stroke="#fbbf24" stroke-width="1.4" d="M459.42,-83.95C490.71,-78.29 535.04,-70.26 569.94,-63.94"/>
<polygon fill="#fbbf24" stroke="#fbbf24" stroke-width="1.4" points="570.56,-67.39 579.77,-62.17 569.31,-60.5 570.56,-67.39"/>
<text text-anchor="middle" x="526" y="-81.93" font-family="Times,serif" font-size="14.00">allow/deny</text>
</g>
<!-- M -->
<g id="node6" class="node">
<title>M</title>
<path fill="#1f2937" stroke="#f59e0b" d="M824.75,-125C824.75,-125 794.75,-125 794.75,-125 788.75,-125 782.75,-119 782.75,-113 782.75,-113 782.75,-101 782.75,-101 782.75,-95 788.75,-89 794.75,-89 794.75,-89 824.75,-89 824.75,-89 830.75,-89 836.75,-95 836.75,-101 836.75,-101 836.75,-113 836.75,-113 836.75,-119 830.75,-125 824.75,-125"/>
<text text-anchor="middle" x="809.75" y="-102.33" font-family="Helvetica,sans-Serif" font-size="14.00" fill="#fff7ed">MoZ</text>
</g>
<!-- P&#45;&gt;M -->
<g id="edge6" class="edge">
<title>P&#45;&gt;M</title>
<path fill="none" stroke="#fbbf24" stroke-width="1.4" d="M669.98,-66.56C700.63,-75.49 741.42,-87.38 770.83,-95.95"/>
<polygon fill="#fbbf24" stroke="#fbbf24" stroke-width="1.4" points="769.67,-99.26 780.25,-98.7 771.63,-92.54 769.67,-99.26"/>
<text text-anchor="middle" x="715.25" y="-90.76" font-family="Times,serif" font-size="14.00">tool req</text>
</g>
<!-- Z -->
<g id="node7" class="node">
<title>Z</title>
<path fill="#1f2937" stroke="#f59e0b" d="M999.75,-85C999.75,-85 963.5,-85 963.5,-85 957.5,-85 951.5,-79 951.5,-73 951.5,-73 951.5,-61 951.5,-61 951.5,-55 957.5,-49 963.5,-49 963.5,-49 999.75,-49 999.75,-49 1005.75,-49 1011.75,-55 1011.75,-61 1011.75,-61 1011.75,-73 1011.75,-73 1011.75,-79 1005.75,-85 999.75,-85"/>
<text text-anchor="middle" x="981.62" y="-62.33" font-family="Helvetica,sans-Serif" font-size="14.00" fill="#fff7ed">Zenoh</text>
</g>
<!-- P&#45;&gt;Z -->
<g id="edge8" class="edge">
<title>P&#45;&gt;Z</title>
<path fill="none" stroke="#fbbf24" stroke-width="1.4" d="M669.9,-55.58C738.54,-58.1 871.96,-63.01 939.43,-65.49"/>
<polygon fill="#fbbf24" stroke="#fbbf24" stroke-width="1.4" points="938.99,-68.97 949.11,-65.84 939.25,-61.98 938.99,-68.97"/>
<text text-anchor="middle" x="809.75" y="-66.37" font-family="Times,serif" font-size="14.00">events + OoZ</text>
</g>
<!-- D -->
<g id="node9" class="node">
<title>D</title>
<path fill="#1f2937" stroke="#f59e0b" d="M1275.25,-36C1275.25,-36 1171.5,-36 1171.5,-36 1165.5,-36 1159.5,-30 1159.5,-24 1159.5,-24 1159.5,-12 1159.5,-12 1159.5,-6 1165.5,0 1171.5,0 1171.5,0 1275.25,0 1275.25,0 1281.25,0 1287.25,-6 1287.25,-12 1287.25,-12 1287.25,-24 1287.25,-24 1287.25,-30 1281.25,-36 1275.25,-36"/>
<text text-anchor="middle" x="1223.38" y="-13.32" font-family="Helvetica,sans-Serif" font-size="14.00" fill="#fff7ed">Dashboard / TUI</text>
</g>
<!-- P&#45;&gt;D -->
<g id="edge11" class="edge">
<title>P&#45;&gt;D</title>
<path fill="none" stroke="#fbbf24" stroke-width="1.4" d="M669.76,-49.98C743.33,-43.24 898.39,-29.75 1029.75,-23 1068.47,-21.01 1111.61,-19.8 1147.24,-19.06"/>
<polygon fill="#fbbf24" stroke="#fbbf24" stroke-width="1.4" points="1146.96,-22.57 1156.89,-18.88 1146.83,-15.57 1146.96,-22.57"/>
<text text-anchor="middle" x="905" y="-36.46" font-family="Times,serif" font-size="14.00">result</text>
</g>
<!-- M&#45;&gt;Z -->
<g id="edge7" class="edge">
<title>M&#45;&gt;Z</title>
<path fill="none" stroke="#fbbf24" stroke-width="1.4" d="M836.92,-100.84C864.32,-94.39 907.72,-84.17 939.66,-76.65"/>
<polygon fill="#fbbf24" stroke="#fbbf24" stroke-width="1.4" points="940.29,-80.09 949.22,-74.39 938.69,-73.28 940.29,-80.09"/>
<text text-anchor="middle" x="905" y="-94.53" font-family="Times,serif" font-size="14.00">pub/sub</text>
</g>
<!-- S -->
<g id="node8" class="node">
<title>S</title>
<path fill="#1f2937" stroke="#f59e0b" d="M1251.25,-99C1251.25,-99 1195.5,-99 1195.5,-99 1189.5,-99 1183.5,-93 1183.5,-87 1183.5,-87 1183.5,-75 1183.5,-75 1183.5,-69 1189.5,-63 1195.5,-63 1195.5,-63 1251.25,-63 1251.25,-63 1257.25,-63 1263.25,-69 1263.25,-75 1263.25,-75 1263.25,-87 1263.25,-87 1263.25,-93 1257.25,-99 1251.25,-99"/>
<text text-anchor="middle" x="1223.38" y="-76.33" font-family="Helvetica,sans-Serif" font-size="14.00" fill="#fff7ed">Smriti.db</text>
</g>
<!-- Z&#45;&gt;S -->
<g id="edge9" class="edge">
<title>Z&#45;&gt;S</title>
<path fill="none" stroke="#fbbf24" stroke-width="1.4" d="M1012.02,-68.72C1051.68,-71.03 1122.91,-75.19 1171.39,-78.02"/>
<polygon fill="#fbbf24" stroke="#fbbf24" stroke-width="1.4" points="1170.89,-81.5 1181.07,-78.59 1171.29,-74.51 1170.89,-81.5"/>
<text text-anchor="middle" x="1085.62" y="-80.02" font-family="Times,serif" font-size="14.00">audit + metrics</text>
</g>
<!-- Z&#45;&gt;D -->
<g id="edge10" class="edge">
<title>Z&#45;&gt;D</title>
<path fill="none" stroke="#fbbf24" stroke-width="1.4" d="M1012.22,-54.45C1017.97,-52.32 1023.99,-50.31 1029.75,-48.75 1067.93,-38.43 1111.37,-31.13 1147.32,-26.24"/>
<polygon fill="#fbbf24" stroke="#fbbf24" stroke-width="1.4" points="1147.65,-29.72 1157.11,-24.95 1146.73,-22.78 1147.65,-29.72"/>
<text text-anchor="middle" x="1085.62" y="-52.7" font-family="Times,serif" font-size="14.00">live state</text>
</g>
</g>
</svg>
