<?xml version="1.0" encoding="UTF-8" standalone="no"?>
<!DOCTYPE svg PUBLIC "-//W3C//DTD SVG 1.1//EN"
 "http://www.w3.org/Graphics/SVG/1.1/DTD/svg11.dtd">
<!-- Generated by graphviz version 12.2.1 (0)
 -->
<!-- Title: DecideAct Pages: 1 -->
<svg width="1224pt" height="296pt"
 viewBox="0.00 0.00 1224.00 296.00" xmlns="http://www.w3.org/2000/svg" xmlns:xlink="http://www.w3.org/1999/xlink">
<g id="graph0" class="graph" transform="scale(1 1) rotate(0) translate(4 292)">
<title>DecideAct</title>
<polygon fill="#0a0e17" stroke="none" points="-4,4 -4,-292 1220,-292 1220,4 -4,4"/>
<g id="clust1" class="cluster">
<title>cluster_before</title>
<polygon fill="#0a0e17" stroke="#ff4757" stroke-dasharray="5,2" points="8,-8 8,-92 880.75,-92 880.75,-8 8,-8"/>
<text text-anchor="middle" x="444.38" y="-74.7" font-family="Helvetica,sans-Serif" font-size="14.00" fill="#ff4757">BEFORE (pass&#45;4/5)</text>
</g>
<g id="clust2" class="cluster">
<title>cluster_after</title>
<polygon fill="#0a0e17" stroke="#3dd68c" points="8,-100 8,-280 1208,-280 1208,-100 8,-100"/>
<text text-anchor="middle" x="608" y="-262.7" font-family="Helvetica,sans-Serif" font-size="14.00" fill="#3dd68c">AFTER (pass&#45;6 FINDING&#45;B closure)</text>
</g>
<!-- B_Router -->
<g id="node1" class="node">
<title>B_Router</title>
<path fill="#141922" stroke="#1e2a3a" d="M124.25,-58.25C124.25,-58.25 28,-58.25 28,-58.25 22,-58.25 16,-52.25 16,-46.25 16,-46.25 16,-27.75 16,-27.75 16,-21.75 22,-15.75 28,-15.75 28,-15.75 124.25,-15.75 124.25,-15.75 130.25,-15.75 136.25,-21.75 136.25,-27.75 136.25,-27.75 136.25,-46.25 136.25,-46.25 136.25,-52.25 130.25,-58.25 124.25,-58.25"/>
<text text-anchor="middle" x="76.12" y="-40.95" font-family="Helvetica,sans-Serif" font-size="14.00" fill="#e0e6ed">router.gleam</text>
<text text-anchor="middle" x="76.12" y="-23.7" font-family="Helvetica,sans-Serif" font-size="14.00" fill="#e0e6ed">/ooda endpoint</text>
</g>
<!-- B_Engine -->
<g id="node2" class="node">
<title>B_Engine</title>
<path fill="#141922" stroke="#1e2a3a" d="M286.5,-58.25C286.5,-58.25 208.25,-58.25 208.25,-58.25 202.25,-58.25 196.25,-52.25 196.25,-46.25 196.25,-46.25 196.25,-27.75 196.25,-27.75 196.25,-21.75 202.25,-15.75 208.25,-15.75 208.25,-15.75 286.5,-15.75 286.5,-15.75 292.5,-15.75 298.5,-21.75 298.5,-27.75 298.5,-27.75 298.5,-46.25 298.5,-46.25 298.5,-52.25 292.5,-58.25 286.5,-58.25"/>
<text text-anchor="middle" x="247.38" y="-40.95" font-family="Helvetica,sans-Serif" font-size="14.00" fill="#e0e6ed">rules/engine</text>
<text text-anchor="middle" x="247.38" y="-23.7" font-family="Helvetica,sans-Serif" font-size="14.00" fill="#e0e6ed">evaluate()</text>
</g>
<!-- B_Router&#45;&gt;B_Engine -->
<g id="edge1" class="edge">
<title>B_Router&#45;&gt;B_Engine</title>
<path fill="none" stroke="#00d4aa" d="M136.32,-37C151.97,-37 168.9,-37 184.67,-37"/>
<polygon fill="#00d4aa" stroke="#00d4aa" points="184.41,-40.5 194.41,-37 184.41,-33.5 184.41,-40.5"/>
<text text-anchor="middle" x="166.25" y="-40.25" font-family="Helvetica,sans-Serif" font-size="10.00" fill="#7a8fa6">facts</text>
</g>
<!-- B_JSON -->
<g id="node3" class="node">
<title>B_JSON</title>
<path fill="#141922" stroke="#1e2a3a" d="M559.38,-58.25C559.38,-58.25 436.88,-58.25 436.88,-58.25 430.88,-58.25 424.88,-52.25 424.88,-46.25 424.88,-46.25 424.88,-27.75 424.88,-27.75 424.88,-21.75 430.88,-15.75 436.88,-15.75 436.88,-15.75 559.38,-15.75 559.38,-15.75 565.38,-15.75 571.38,-21.75 571.38,-27.75 571.38,-27.75 571.38,-46.25 571.38,-46.25 571.38,-52.25 565.38,-58.25 559.38,-58.25"/>
<text text-anchor="middle" x="498.12" y="-40.95" font-family="Helvetica,sans-Serif" font-size="14.00" fill="#e0e6ed">JSON response</text>
<text text-anchor="middle" x="498.12" y="-23.7" font-family="Helvetica,sans-Serif" font-size="14.00" fill="#e0e6ed">{decision, reason}</text>
</g>
<!-- B_Engine&#45;&gt;B_JSON -->
<g id="edge2" class="edge">
<title>B_Engine&#45;&gt;B_JSON</title>
<path fill="none" stroke="#00d4aa" d="M298.71,-37C331.66,-37 375.51,-37 413.6,-37"/>
<polygon fill="#00d4aa" stroke="#00d4aa" points="413.19,-40.5 423.19,-37 413.19,-33.5 413.19,-40.5"/>
<text text-anchor="middle" x="342.75" y="-40.25" font-family="Helvetica,sans-Serif" font-size="10.00" fill="#7a8fa6">RuleResult</text>
</g>
<!-- B_Void -->
<g id="node4" class="node">
<title>B_Void</title>
<path fill="#2a0e0e" stroke="#ff4757" d="M860.75,-55C860.75,-55 745.75,-55 745.75,-55 739.75,-55 733.75,-49 733.75,-43 733.75,-43 733.75,-31 733.75,-31 733.75,-25 739.75,-19 745.75,-19 745.75,-19 860.75,-19 860.75,-19 866.75,-19 872.75,-25 872.75,-31 872.75,-31 872.75,-43 872.75,-43 872.75,-49 866.75,-55 860.75,-55"/>
<text text-anchor="middle" x="803.25" y="-32.33" font-family="Helvetica,sans-Serif" font-size="14.00" fill="#e0e6ed">∅ no action taken</text>
</g>
<!-- B_JSON&#45;&gt;B_Void -->
<g id="edge3" class="edge">
<title>B_JSON&#45;&gt;B_Void</title>
<path fill="none" stroke="#00d4aa" stroke-dasharray="5,2" d="M571.73,-37C617.04,-37 675.4,-37 722.07,-37"/>
<polygon fill="#00d4aa" stroke="#00d4aa" points="721.85,-40.5 731.85,-37 721.85,-33.5 721.85,-40.5"/>
<text text-anchor="middle" x="660.25" y="-40.25" font-family="Helvetica,sans-Serif" font-size="10.00" fill="#7a8fa6">client ignores</text>
</g>
<!-- A_Router -->
<g id="node5" class="node">
<title>A_Router</title>
<path fill="#0e2a1e" stroke="#3dd68c" d="M124.25,-196.25C124.25,-196.25 28,-196.25 28,-196.25 22,-196.25 16,-190.25 16,-184.25 16,-184.25 16,-165.75 16,-165.75 16,-159.75 22,-153.75 28,-153.75 28,-153.75 124.25,-153.75 124.25,-153.75 130.25,-153.75 136.25,-159.75 136.25,-165.75 136.25,-165.75 136.25,-184.25 136.25,-184.25 136.25,-190.25 130.25,-196.25 124.25,-196.25"/>
<text text-anchor="middle" x="76.12" y="-178.95" font-family="Helvetica,sans-Serif" font-size="14.00" fill="#e0e6ed">router.gleam</text>
<text text-anchor="middle" x="76.12" y="-161.7" font-family="Helvetica,sans-Serif" font-size="14.00" fill="#e0e6ed">/ooda endpoint</text>
</g>
<!-- A_Engine -->
<g id="node6" class="node">
<title>A_Engine</title>
<path fill="#141922" stroke="#1e2a3a" d="M286.5,-196.25C286.5,-196.25 208.25,-196.25 208.25,-196.25 202.25,-196.25 196.25,-190.25 196.25,-184.25 196.25,-184.25 196.25,-165.75 196.25,-165.75 196.25,-159.75 202.25,-153.75 208.25,-153.75 208.25,-153.75 286.5,-153.75 286.5,-153.75 292.5,-153.75 298.5,-159.75 298.5,-165.75 298.5,-165.75 298.5,-184.25 298.5,-184.25 298.5,-190.25 292.5,-196.25 286.5,-196.25"/>
<text text-anchor="middle" x="247.38" y="-178.95" font-family="Helvetica,sans-Serif" font-size="14.00" fill="#e0e6ed">rules/engine</text>
<text text-anchor="middle" x="247.38" y="-161.7" font-family="Helvetica,sans-Serif" font-size="14.00" fill="#e0e6ed">evaluate()</text>
</g>
<!-- A_Router&#45;&gt;A_Engine -->
<g id="edge4" class="edge">
<title>A_Router&#45;&gt;A_Engine</title>
<path fill="none" stroke="#00d4aa" d="M136.32,-175C151.97,-175 168.9,-175 184.67,-175"/>
<polygon fill="#00d4aa" stroke="#00d4aa" points="184.41,-178.5 194.41,-175 184.41,-171.5 184.41,-178.5"/>
<text text-anchor="middle" x="166.25" y="-178.25" font-family="Helvetica,sans-Serif" font-size="10.00" fill="#7a8fa6">facts</text>
</g>
<!-- A_Dispatcher -->
<g id="node7" class="node">
<title>A_Dispatcher</title>
<path fill="#0e2a1e" stroke="#3dd68c" d="M597.25,-196.25C597.25,-196.25 399,-196.25 399,-196.25 393,-196.25 387,-190.25 387,-184.25 387,-184.25 387,-165.75 387,-165.75 387,-159.75 393,-153.75 399,-153.75 399,-153.75 597.25,-153.75 597.25,-153.75 603.25,-153.75 609.25,-159.75 609.25,-165.75 609.25,-165.75 609.25,-184.25 609.25,-184.25 609.25,-190.25 603.25,-196.25 597.25,-196.25"/>
<text text-anchor="middle" x="498.12" y="-178.95" font-family="Helvetica,sans-Serif" font-size="14.00" fill="#e0e6ed">rules/dispatcher</text>
<text text-anchor="middle" x="498.12" y="-161.7" font-family="Helvetica,sans-Serif" font-size="14.00" fill="#e0e6ed">decision_to_action + dispatch</text>
</g>
<!-- A_Engine&#45;&gt;A_Dispatcher -->
<g id="edge5" class="edge">
<title>A_Engine&#45;&gt;A_Dispatcher</title>
<path fill="none" stroke="#00d4aa" d="M298.71,-175C320.99,-175 348.24,-175 375.33,-175"/>
<polygon fill="#00d4aa" stroke="#00d4aa" points="374.99,-178.5 384.99,-175 374.99,-171.5 374.99,-178.5"/>
<text text-anchor="middle" x="342.75" y="-178.25" font-family="Helvetica,sans-Serif" font-size="10.00" fill="#7a8fa6">RuleResult</text>
</g>
<!-- A_Action -->
<g id="node8" class="node">
<title>A_Action</title>
<path fill="#141922" stroke="#1e2a3a" d="M883.25,-204.88C883.25,-204.88 723.25,-204.88 723.25,-204.88 717.25,-204.88 711.25,-198.88 711.25,-192.88 711.25,-192.88 711.25,-157.12 711.25,-157.12 711.25,-151.12 717.25,-145.12 723.25,-145.12 723.25,-145.12 883.25,-145.12 883.25,-145.12 889.25,-145.12 895.25,-151.12 895.25,-157.12 895.25,-157.12 895.25,-192.88 895.25,-192.88 895.25,-198.88 889.25,-204.88 883.25,-204.88"/>
<text text-anchor="middle" x="803.25" y="-187.57" font-family="Helvetica,sans-Serif" font-size="14.00" fill="#e0e6ed">Action:</text>
<text text-anchor="middle" x="803.25" y="-170.32" font-family="Helvetica,sans-Serif" font-size="14.00" fill="#e0e6ed">EmergencyStop|Restart|</text>
<text text-anchor="middle" x="803.25" y="-153.07" font-family="Helvetica,sans-Serif" font-size="14.00" fill="#e0e6ed">ScaleDown|Escalate|...</text>
</g>
<!-- A_Dispatcher&#45;&gt;A_Action -->
<g id="edge6" class="edge">
<title>A_Dispatcher&#45;&gt;A_Action</title>
<path fill="none" stroke="#00d4aa" d="M609.42,-175C638.86,-175 670.55,-175 699.56,-175"/>
<polygon fill="#00d4aa" stroke="#00d4aa" points="699.45,-178.5 709.45,-175 699.45,-171.5 699.45,-178.5"/>
<text text-anchor="middle" x="660.25" y="-178.25" font-family="Helvetica,sans-Serif" font-size="10.00" fill="#7a8fa6">typed</text>
</g>
<!-- A_Zenoh -->
<g id="node9" class="node">
<title>A_Zenoh</title>
<path fill="#141922" stroke="#1e2a3a" d="M1188,-185.5C1188,-185.5 995,-185.5 995,-185.5 989,-185.5 983,-179.5 983,-173.5 983,-173.5 983,-120.5 983,-120.5 983,-114.5 989,-108.5 995,-108.5 995,-108.5 1188,-108.5 1188,-108.5 1194,-108.5 1200,-114.5 1200,-120.5 1200,-120.5 1200,-173.5 1200,-173.5 1200,-179.5 1194,-185.5 1188,-185.5"/>
<text text-anchor="middle" x="1091.5" y="-168.2" font-family="Helvetica,sans-Serif" font-size="14.00" fill="#e0e6ed">Zenoh put</text>
<text text-anchor="middle" x="1091.5" y="-150.95" font-family="Helvetica,sans-Serif" font-size="14.00" fill="#e0e6ed">indrajaal/l0/const/emergency</text>
<text text-anchor="middle" x="1091.5" y="-133.7" font-family="Helvetica,sans-Serif" font-size="14.00" fill="#e0e6ed">indrajaal/l4/system/restart</text>
<text text-anchor="middle" x="1091.5" y="-116.45" font-family="Helvetica,sans-Serif" font-size="14.00" fill="#e0e6ed">indrajaal/l5/cog/escalate</text>
</g>
<!-- A_Action&#45;&gt;A_Zenoh -->
<g id="edge7" class="edge">
<title>A_Action&#45;&gt;A_Zenoh</title>
<path fill="none" stroke="#00d4aa" d="M895.61,-166.06C919.7,-163.71 946.04,-161.13 971.36,-158.65"/>
<polygon fill="#00d4aa" stroke="#00d4aa" points="971.4,-162.17 981.02,-157.71 970.72,-155.2 971.4,-162.17"/>
<text text-anchor="middle" x="939.12" y="-167.58" font-family="Helvetica,sans-Serif" font-size="10.00" fill="#7a8fa6">side&#45;effect</text>
</g>
<!-- A_JSON -->
<g id="node10" class="node">
<title>A_JSON</title>
<path fill="#0e2a1e" stroke="#3dd68c" d="M1178.25,-246.25C1178.25,-246.25 1004.75,-246.25 1004.75,-246.25 998.75,-246.25 992.75,-240.25 992.75,-234.25 992.75,-234.25 992.75,-215.75 992.75,-215.75 992.75,-209.75 998.75,-203.75 1004.75,-203.75 1004.75,-203.75 1178.25,-203.75 1178.25,-203.75 1184.25,-203.75 1190.25,-209.75 1190.25,-215.75 1190.25,-215.75 1190.25,-234.25 1190.25,-234.25 1190.25,-240.25 1184.25,-246.25 1178.25,-246.25"/>
<text text-anchor="middle" x="1091.5" y="-228.95" font-family="Helvetica,sans-Serif" font-size="14.00" fill="#e0e6ed">JSON response</text>
<text text-anchor="middle" x="1091.5" y="-211.7" font-family="Helvetica,sans-Serif" font-size="14.00" fill="#e0e6ed">{decision, reason, action}</text>
</g>
<!-- A_Action&#45;&gt;A_JSON -->
<g id="edge8" class="edge">
<title>A_Action&#45;&gt;A_JSON</title>
<path fill="none" stroke="#00d4aa" d="M895.61,-190.96C922.91,-195.73 953.11,-201 981.43,-205.95"/>
<polygon fill="#00d4aa" stroke="#00d4aa" points="980.65,-209.37 991.1,-207.64 981.85,-202.47 980.65,-209.37"/>
<text text-anchor="middle" x="939.12" y="-206.24" font-family="Helvetica,sans-Serif" font-size="10.00" fill="#7a8fa6">log string</text>
</g>
</g>
</svg>
