<?xml version="1.0" encoding="UTF-8" standalone="no"?>
<!DOCTYPE svg PUBLIC "-//W3C//DTD SVG 1.1//EN"
 "http://www.w3.org/Graphics/SVG/1.1/DTD/svg11.dtd">
<!-- Generated by graphviz version 12.2.1 (0)
 -->
<!-- Title: FMEA Pages: 1 -->
<svg width="692pt" height="388pt"
 viewBox="0.00 0.00 692.00 388.12" xmlns="http://www.w3.org/2000/svg" xmlns:xlink="http://www.w3.org/1999/xlink">
<g id="graph0" class="graph" transform="scale(1 1) rotate(0) translate(4 384.12)">
<title>FMEA</title>
<polygon fill="#0a0e17" stroke="none" points="-4,4 -4,-384.12 688,-384.12 688,4 -4,4"/>
<!-- A -->
<g id="node1" class="node">
<title>A</title>
<path fill="#2a1e0e" stroke="#f5a623" d="M174.62,-42.5C174.62,-42.5 24.38,-42.5 24.38,-42.5 18.38,-42.5 12.38,-36.5 12.38,-30.5 12.38,-30.5 12.38,-12 12.38,-12 12.38,-6 18.38,0 24.38,0 24.38,0 174.62,0 174.62,0 180.62,0 186.62,-6 186.62,-12 186.62,-12 186.62,-30.5 186.62,-30.5 186.62,-36.5 180.62,-42.5 174.62,-42.5"/>
<text text-anchor="middle" x="99.5" y="-25.2" font-family="Helvetica,sans-Serif" font-size="14.00" fill="#e0e6ed">A: zenoh_otel.publish()</text>
<text text-anchor="middle" x="99.5" y="-7.95" font-family="Helvetica,sans-Serif" font-size="14.00" fill="#e0e6ed">pre&#45;p5=900</text>
</g>
<!-- A5 -->
<g id="node2" class="node">
<title>A5</title>
<path fill="#0e2a1e" stroke="#3dd68c" d="M344.38,-39.25C344.38,-39.25 278.88,-39.25 278.88,-39.25 272.88,-39.25 266.88,-33.25 266.88,-27.25 266.88,-27.25 266.88,-15.25 266.88,-15.25 266.88,-9.25 272.88,-3.25 278.88,-3.25 278.88,-3.25 344.38,-3.25 344.38,-3.25 350.38,-3.25 356.38,-9.25 356.38,-15.25 356.38,-15.25 356.38,-27.25 356.38,-27.25 356.38,-33.25 350.38,-39.25 344.38,-39.25"/>
<text text-anchor="middle" x="311.62" y="-16.57" font-family="Helvetica,sans-Serif" font-size="14.00" fill="#e0e6ed">pass&#45;5: 90</text>
</g>
<!-- A&#45;&gt;A5 -->
<g id="edge1" class="edge">
<title>A&#45;&gt;A5</title>
<path fill="none" stroke="#00d4aa" d="M186.88,-21.25C209.99,-21.25 234.35,-21.25 255.28,-21.25"/>
<polygon fill="#00d4aa" stroke="#00d4aa" points="255.02,-24.75 265.02,-21.25 255.02,-17.75 255.02,-24.75"/>
</g>
<!-- A6 -->
<g id="node3" class="node">
<title>A6</title>
<path fill="#0e2a1e" stroke="#3dd68c" d="M612,-42.5C612,-42.5 496.25,-42.5 496.25,-42.5 490.25,-42.5 484.25,-36.5 484.25,-30.5 484.25,-30.5 484.25,-12 484.25,-12 484.25,-6 490.25,0 496.25,0 496.25,0 612,0 612,0 618,0 624,-6 624,-12 624,-12 624,-30.5 624,-30.5 624,-36.5 618,-42.5 612,-42.5"/>
<text text-anchor="middle" x="554.12" y="-25.2" font-family="Helvetica,sans-Serif" font-size="14.00" fill="#e0e6ed">pass&#45;6: 30</text>
<text text-anchor="middle" x="554.12" y="-7.95" font-family="Helvetica,sans-Serif" font-size="14.00" fill="#e0e6ed">(emit_span wired)</text>
</g>
<!-- A5&#45;&gt;A6 -->
<g id="edge2" class="edge">
<title>A5&#45;&gt;A6</title>
<path fill="none" stroke="#00d4aa" d="M356.74,-21.25C389.07,-21.25 433.89,-21.25 472.54,-21.25"/>
<polygon fill="#00d4aa" stroke="#00d4aa" points="472.28,-24.75 482.28,-21.25 472.28,-17.75 472.28,-24.75"/>
</g>
<!-- B -->
<g id="node4" class="node">
<title>B</title>
<path fill="#2a0e0e" stroke="#ff4757" d="M184.38,-103.5C184.38,-103.5 14.62,-103.5 14.62,-103.5 8.62,-103.5 2.62,-97.5 2.62,-91.5 2.62,-91.5 2.62,-73 2.62,-73 2.62,-67 8.62,-61 14.62,-61 14.62,-61 184.38,-61 184.38,-61 190.38,-61 196.38,-67 196.38,-73 196.38,-73 196.38,-91.5 196.38,-91.5 196.38,-97.5 190.38,-103.5 184.38,-103.5"/>
<text text-anchor="middle" x="99.5" y="-86.2" font-family="Helvetica,sans-Serif" font-size="14.00" fill="#e0e6ed">B: RETE&#45;UL no dispatcher</text>
<text text-anchor="middle" x="99.5" y="-68.95" font-family="Helvetica,sans-Serif" font-size="14.00" fill="#e0e6ed">pre&#45;p5=216</text>
</g>
<!-- B5 -->
<g id="node5" class="node">
<title>B5</title>
<path fill="#2a1e0e" stroke="#f5a623" d="M348.88,-103.5C348.88,-103.5 274.38,-103.5 274.38,-103.5 268.38,-103.5 262.38,-97.5 262.38,-91.5 262.38,-91.5 262.38,-73 262.38,-73 262.38,-67 268.38,-61 274.38,-61 274.38,-61 348.88,-61 348.88,-61 354.88,-61 360.88,-67 360.88,-73 360.88,-73 360.88,-91.5 360.88,-91.5 360.88,-97.5 354.88,-103.5 348.88,-103.5"/>
<text text-anchor="middle" x="311.62" y="-86.2" font-family="Helvetica,sans-Serif" font-size="14.00" fill="#e0e6ed">pass&#45;5: 216</text>
<text text-anchor="middle" x="311.62" y="-68.95" font-family="Helvetica,sans-Serif" font-size="14.00" fill="#e0e6ed">(queued)</text>
</g>
<!-- B&#45;&gt;B5 -->
<g id="edge3" class="edge">
<title>B&#45;&gt;B5</title>
<path fill="none" stroke="#00d4aa" d="M196.65,-82.25C215.08,-82.25 233.89,-82.25 250.77,-82.25"/>
<polygon fill="#00d4aa" stroke="#00d4aa" points="250.61,-85.75 260.61,-82.25 250.61,-78.75 250.61,-85.75"/>
</g>
<!-- B6 -->
<g id="node6" class="node">
<title>B6</title>
<path fill="#0e2a1e" stroke="#3dd68c" d="M645,-103.5C645,-103.5 463.25,-103.5 463.25,-103.5 457.25,-103.5 451.25,-97.5 451.25,-91.5 451.25,-91.5 451.25,-73 451.25,-73 451.25,-67 457.25,-61 463.25,-61 463.25,-61 645,-61 645,-61 651,-61 657,-67 657,-73 657,-73 657,-91.5 657,-91.5 657,-97.5 651,-103.5 645,-103.5"/>
<text text-anchor="middle" x="554.12" y="-86.2" font-family="Helvetica,sans-Serif" font-size="14.00" fill="#e0e6ed">pass&#45;6: 60</text>
<text text-anchor="middle" x="554.12" y="-68.95" font-family="Helvetica,sans-Serif" font-size="14.00" fill="#e0e6ed">(dispatcher wired in router)</text>
</g>
<!-- B5&#45;&gt;B6 -->
<g id="edge4" class="edge">
<title>B5&#45;&gt;B6</title>
<path fill="none" stroke="#00d4aa" d="M361.29,-82.25C383.97,-82.25 411.99,-82.25 439.55,-82.25"/>
<polygon fill="#00d4aa" stroke="#00d4aa" points="439.38,-85.75 449.38,-82.25 439.38,-78.75 439.38,-85.75"/>
</g>
<!-- C -->
<g id="node7" class="node">
<title>C</title>
<path fill="#2a0e0e" stroke="#ff4757" d="M172,-164.5C172,-164.5 27,-164.5 27,-164.5 21,-164.5 15,-158.5 15,-152.5 15,-152.5 15,-134 15,-134 15,-128 21,-122 27,-122 27,-122 172,-122 172,-122 178,-122 184,-128 184,-134 184,-134 184,-152.5 184,-152.5 184,-158.5 178,-164.5 172,-164.5"/>
<text text-anchor="middle" x="99.5" y="-147.2" font-family="Helvetica,sans-Serif" font-size="14.00" fill="#e0e6ed">C: pi_session NIF stub</text>
<text text-anchor="middle" x="99.5" y="-129.95" font-family="Helvetica,sans-Serif" font-size="14.00" fill="#e0e6ed">pre&#45;p5=175</text>
</g>
<!-- C5 -->
<g id="node8" class="node">
<title>C5</title>
<path fill="#2a1e0e" stroke="#f5a623" d="M348.88,-164.5C348.88,-164.5 274.38,-164.5 274.38,-164.5 268.38,-164.5 262.38,-158.5 262.38,-152.5 262.38,-152.5 262.38,-134 262.38,-134 262.38,-128 268.38,-122 274.38,-122 274.38,-122 348.88,-122 348.88,-122 354.88,-122 360.88,-128 360.88,-134 360.88,-134 360.88,-152.5 360.88,-152.5 360.88,-158.5 354.88,-164.5 348.88,-164.5"/>
<text text-anchor="middle" x="311.62" y="-147.2" font-family="Helvetica,sans-Serif" font-size="14.00" fill="#e0e6ed">pass&#45;5: 175</text>
<text text-anchor="middle" x="311.62" y="-129.95" font-family="Helvetica,sans-Serif" font-size="14.00" fill="#e0e6ed">(queued)</text>
</g>
<!-- C&#45;&gt;C5 -->
<g id="edge5" class="edge">
<title>C&#45;&gt;C5</title>
<path fill="none" stroke="#00d4aa" d="M184.45,-143.25C206.53,-143.25 229.91,-143.25 250.47,-143.25"/>
<polygon fill="#00d4aa" stroke="#00d4aa" points="250.38,-146.75 260.38,-143.25 250.38,-139.75 250.38,-146.75"/>
</g>
<!-- C6 -->
<g id="node9" class="node">
<title>C6</title>
<path fill="#2a1e0e" stroke="#f5a623" d="M595.88,-164.5C595.88,-164.5 512.38,-164.5 512.38,-164.5 506.38,-164.5 500.38,-158.5 500.38,-152.5 500.38,-152.5 500.38,-134 500.38,-134 500.38,-128 506.38,-122 512.38,-122 512.38,-122 595.88,-122 595.88,-122 601.88,-122 607.88,-128 607.88,-134 607.88,-134 607.88,-152.5 607.88,-152.5 607.88,-158.5 601.88,-164.5 595.88,-164.5"/>
<text text-anchor="middle" x="554.12" y="-147.2" font-family="Helvetica,sans-Serif" font-size="14.00" fill="#e0e6ed">pass&#45;6: 175</text>
<text text-anchor="middle" x="554.12" y="-129.95" font-family="Helvetica,sans-Serif" font-size="14.00" fill="#e0e6ed">(still queued)</text>
</g>
<!-- C5&#45;&gt;C6 -->
<g id="edge6" class="edge">
<title>C5&#45;&gt;C6</title>
<path fill="none" stroke="#00d4aa" d="M361.29,-143.25C397.98,-143.25 448.63,-143.25 488.67,-143.25"/>
<polygon fill="#00d4aa" stroke="#00d4aa" points="488.42,-146.75 498.42,-143.25 488.42,-139.75 488.42,-146.75"/>
</g>
<!-- D -->
<g id="node10" class="node">
<title>D</title>
<path fill="#2a0e0e" stroke="#ff4757" d="M184.38,-233.5C184.38,-233.5 14.62,-233.5 14.62,-233.5 8.62,-233.5 2.62,-227.5 2.62,-221.5 2.62,-221.5 2.62,-203 2.62,-203 2.62,-197 8.62,-191 14.62,-191 14.62,-191 184.38,-191 184.38,-191 190.38,-191 196.38,-197 196.38,-203 196.38,-203 196.38,-221.5 196.38,-221.5 196.38,-227.5 190.38,-233.5 184.38,-233.5"/>
<text text-anchor="middle" x="99.5" y="-216.2" font-family="Helvetica,sans-Serif" font-size="14.00" fill="#e0e6ed">D: claude_metrics orphan</text>
<text text-anchor="middle" x="99.5" y="-198.95" font-family="Helvetica,sans-Serif" font-size="14.00" fill="#e0e6ed">pre&#45;p5=144</text>
</g>
<!-- D5 -->
<g id="node11" class="node">
<title>D5</title>
<path fill="#2a1e0e" stroke="#f5a623" d="M348.88,-230.25C348.88,-230.25 274.38,-230.25 274.38,-230.25 268.38,-230.25 262.38,-224.25 262.38,-218.25 262.38,-218.25 262.38,-206.25 262.38,-206.25 262.38,-200.25 268.38,-194.25 274.38,-194.25 274.38,-194.25 348.88,-194.25 348.88,-194.25 354.88,-194.25 360.88,-200.25 360.88,-206.25 360.88,-206.25 360.88,-218.25 360.88,-218.25 360.88,-224.25 354.88,-230.25 348.88,-230.25"/>
<text text-anchor="middle" x="311.62" y="-207.57" font-family="Helvetica,sans-Serif" font-size="14.00" fill="#e0e6ed">pass&#45;5: 144</text>
</g>
<!-- D&#45;&gt;D5 -->
<g id="edge7" class="edge">
<title>D&#45;&gt;D5</title>
<path fill="none" stroke="#00d4aa" d="M196.65,-212.25C215.08,-212.25 233.89,-212.25 250.77,-212.25"/>
<polygon fill="#00d4aa" stroke="#00d4aa" points="250.61,-215.75 260.61,-212.25 250.61,-208.75 250.61,-215.75"/>
</g>
<!-- D6 -->
<g id="node12" class="node">
<title>D6</title>
<path fill="#0e2a1e" stroke="#3dd68c" d="M672,-242.12C672,-242.12 436.25,-242.12 436.25,-242.12 430.25,-242.12 424.25,-236.12 424.25,-230.12 424.25,-230.12 424.25,-194.38 424.25,-194.38 424.25,-188.38 430.25,-182.38 436.25,-182.38 436.25,-182.38 672,-182.38 672,-182.38 678,-182.38 684,-188.38 684,-194.38 684,-194.38 684,-230.12 684,-230.12 684,-236.12 678,-242.12 672,-242.12"/>
<text text-anchor="middle" x="554.12" y="-224.82" font-family="Helvetica,sans-Serif" font-size="14.00" fill="#e0e6ed">pass&#45;6: 50</text>
<text text-anchor="middle" x="554.12" y="-207.57" font-family="Helvetica,sans-Serif" font-size="14.00" fill="#e0e6ed">(verified wired:</text>
<text text-anchor="middle" x="554.12" y="-190.32" font-family="Helvetica,sans-Serif" font-size="14.00" fill="#e0e6ed">guard_grid_actor+otp_app+router)</text>
</g>
<!-- D5&#45;&gt;D6 -->
<g id="edge8" class="edge">
<title>D5&#45;&gt;D6</title>
<path fill="none" stroke="#00d4aa" d="M361.29,-212.25C376.52,-212.25 394.16,-212.25 412.45,-212.25"/>
<polygon fill="#00d4aa" stroke="#00d4aa" points="412.4,-215.75 422.4,-212.25 412.4,-208.75 412.4,-215.75"/>
</g>
<!-- embed -->
<g id="node13" class="node">
<title>embed</title>
<path fill="#2a1e0e" stroke="#f5a623" d="M167.12,-302.5C167.12,-302.5 31.88,-302.5 31.88,-302.5 25.88,-302.5 19.88,-296.5 19.88,-290.5 19.88,-290.5 19.88,-272 19.88,-272 19.88,-266 25.88,-260 31.88,-260 31.88,-260 167.12,-260 167.12,-260 173.12,-260 179.12,-266 179.12,-272 179.12,-272 179.12,-290.5 179.12,-290.5 179.12,-296.5 173.12,-302.5 167.12,-302.5"/>
<text text-anchor="middle" x="99.5" y="-285.2" font-family="Helvetica,sans-Serif" font-size="14.00" fill="#e0e6ed">embed_refresh hang</text>
<text text-anchor="middle" x="99.5" y="-267.95" font-family="Helvetica,sans-Serif" font-size="14.00" fill="#e0e6ed">(new pass&#45;5)</text>
</g>
<!-- embed5 -->
<g id="node14" class="node">
<title>embed5</title>
<path fill="#2a1e0e" stroke="#f5a623" d="M355.25,-302.5C355.25,-302.5 268,-302.5 268,-302.5 262,-302.5 256,-296.5 256,-290.5 256,-290.5 256,-272 256,-272 256,-266 262,-260 268,-260 268,-260 355.25,-260 355.25,-260 361.25,-260 367.25,-266 367.25,-272 367.25,-272 367.25,-290.5 367.25,-290.5 367.25,-296.5 361.25,-302.5 355.25,-302.5"/>
<text text-anchor="middle" x="311.62" y="-285.2" font-family="Helvetica,sans-Serif" font-size="14.00" fill="#e0e6ed">pass&#45;5: 80</text>
<text text-anchor="middle" x="311.62" y="-267.95" font-family="Helvetica,sans-Serif" font-size="14.00" fill="#e0e6ed">(lifeline reset)</text>
</g>
<!-- embed&#45;&gt;embed5 -->
<g id="edge9" class="edge">
<title>embed&#45;&gt;embed5</title>
<path fill="none" stroke="#00d4aa" d="M179.34,-281.25C200.66,-281.25 223.52,-281.25 244.09,-281.25"/>
<polygon fill="#00d4aa" stroke="#00d4aa" points="244.07,-284.75 254.07,-281.25 244.07,-277.75 244.07,-284.75"/>
</g>
<!-- embed6 -->
<g id="node15" class="node">
<title>embed6</title>
<path fill="#2a1e0e" stroke="#f5a623" d="M616.5,-302.5C616.5,-302.5 491.75,-302.5 491.75,-302.5 485.75,-302.5 479.75,-296.5 479.75,-290.5 479.75,-290.5 479.75,-272 479.75,-272 479.75,-266 485.75,-260 491.75,-260 491.75,-260 616.5,-260 616.5,-260 622.5,-260 628.5,-266 628.5,-272 628.5,-272 628.5,-290.5 628.5,-290.5 628.5,-296.5 622.5,-302.5 616.5,-302.5"/>
<text text-anchor="middle" x="554.12" y="-285.2" font-family="Helvetica,sans-Serif" font-size="14.00" fill="#e0e6ed">pass&#45;6: 80</text>
<text text-anchor="middle" x="554.12" y="-267.95" font-family="Helvetica,sans-Serif" font-size="14.00" fill="#e0e6ed">(need ollama retry)</text>
</g>
<!-- embed5&#45;&gt;embed6 -->
<g id="edge10" class="edge">
<title>embed5&#45;&gt;embed6</title>
<path fill="none" stroke="#00d4aa" d="M367.5,-281.25C397.27,-281.25 434.72,-281.25 468.17,-281.25"/>
<polygon fill="#00d4aa" stroke="#00d4aa" points="467.83,-284.75 477.83,-281.25 467.83,-277.75 467.83,-284.75"/>
</g>
<!-- GAP1 -->
<g id="node16" class="node">
<title>GAP1</title>
<path fill="lightgrey" stroke="black" d="M187,-371.5C187,-371.5 12,-371.5 12,-371.5 6,-371.5 0,-365.5 0,-359.5 0,-359.5 0,-341 0,-341 0,-335 6,-329 12,-329 12,-329 187,-329 187,-329 193,-329 199,-335 199,-341 199,-341 199,-359.5 199,-359.5 199,-365.5 193,-371.5 187,-371.5"/>
<text text-anchor="middle" x="99.5" y="-354.2" font-family="Helvetica,sans-Serif" font-size="14.00" fill="#e0e6ed">GAP&#45;1: Pi actor private fns</text>
<text text-anchor="middle" x="99.5" y="-336.95" font-family="Helvetica,sans-Serif" font-size="14.00" fill="#e0e6ed">pre&#45;p6=100</text>
</g>
<!-- GAP16 -->
<g id="node17" class="node">
<title>GAP16</title>
<path fill="#0e2a1e" stroke="#3dd68c" d="M376.25,-380.12C376.25,-380.12 247,-380.12 247,-380.12 241,-380.12 235,-374.12 235,-368.12 235,-368.12 235,-332.38 235,-332.38 235,-326.38 241,-320.38 247,-320.38 247,-320.38 376.25,-320.38 376.25,-320.38 382.25,-320.38 388.25,-326.38 388.25,-332.38 388.25,-332.38 388.25,-368.12 388.25,-368.12 388.25,-374.12 382.25,-380.12 376.25,-380.12"/>
<text text-anchor="middle" x="311.62" y="-362.82" font-family="Helvetica,sans-Serif" font-size="14.00" fill="#e0e6ed">pass&#45;6: 30</text>
<text text-anchor="middle" x="311.62" y="-345.57" font-family="Helvetica,sans-Serif" font-size="14.00" fill="#e0e6ed">(made public,</text>
<text text-anchor="middle" x="311.62" y="-328.32" font-family="Helvetica,sans-Serif" font-size="14.00" fill="#e0e6ed">pluggable into OTP)</text>
</g>
<!-- GAP1&#45;&gt;GAP16 -->
<g id="edge11" class="edge">
<title>GAP1&#45;&gt;GAP16</title>
<path fill="none" stroke="#00d4aa" d="M199.41,-350.25C207.35,-350.25 215.33,-350.25 223.18,-350.25"/>
<polygon fill="#00d4aa" stroke="#00d4aa" points="223.05,-353.75 233.05,-350.25 223.05,-346.75 223.05,-353.75"/>
</g>
</g>
</svg>
