<?xml version="1.0" encoding="UTF-8" standalone="no"?>
<!DOCTYPE svg PUBLIC "-//W3C//DTD SVG 1.1//EN"
 "http://www.w3.org/Graphics/SVG/1.1/DTD/svg11.dtd">
<!-- Generated by graphviz version 12.2.1 (0)
 -->
<!-- Title: ControlPlane Pages: 1 -->
<svg width="2331pt" height="556pt"
 viewBox="0.00 0.00 2331.00 555.75" xmlns="http://www.w3.org/2000/svg" xmlns:xlink="http://www.w3.org/1999/xlink">
<g id="graph0" class="graph" transform="scale(1 1) rotate(0) translate(4 551.75)">
<title>ControlPlane</title>
<polygon fill="#0a0e17" stroke="none" points="-4,4 -4,-551.75 2327,-551.75 2327,4 -4,4"/>
<g id="clust1" class="cluster">
<title>cluster_l0</title>
<polygon fill="#0a0e17" stroke="#ff4757" points="8,-230.25 8,-422 141,-422 141,-230.25 8,-230.25"/>
<text text-anchor="middle" x="74.5" y="-404.7" font-family="Helvetica,sans-Serif" font-size="14.00" fill="#ff4757">L0 Constitutional</text>
</g>
<g id="clust2" class="cluster">
<title>cluster_l4</title>
<polygon fill="#0a0e17" stroke="#00d4aa" points="903,-456 903,-539.75 1856,-539.75 1856,-456 903,-456"/>
<text text-anchor="middle" x="1379.5" y="-522.45" font-family="Helvetica,sans-Serif" font-size="14.00" fill="#00d4aa">L4 System Orchestration</text>
</g>
<g id="clust3" class="cluster">
<title>cluster_l5</title>
<polygon fill="#0a0e17" stroke="#f5a623" points="503,-341.5 503,-425.25 1157,-425.25 1157,-341.5 503,-341.5"/>
<text text-anchor="middle" x="830" y="-407.95" font-family="Helvetica,sans-Serif" font-size="14.00" fill="#f5a623">L5 Cognition</text>
</g>
<g id="clust4" class="cluster">
<title>cluster_l6</title>
<polygon fill="#0a0e17" stroke="#3dd68c" points="149,-8 149,-425.25 323,-425.25 323,-8 149,-8"/>
<text text-anchor="middle" x="236" y="-407.95" font-family="Helvetica,sans-Serif" font-size="14.00" fill="#3dd68c">L6 Ecosystem / Mesh</text>
</g>
<g id="clust5" class="cluster">
<title>cluster_l3</title>
<polygon fill="#0a0e17" stroke="#9b6cff" points="1639,-227 1639,-310.75 2067,-310.75 2067,-227 1639,-227"/>
<text text-anchor="middle" x="1853" y="-293.45" font-family="Helvetica,sans-Serif" font-size="14.00" fill="#9b6cff">L3 Transaction</text>
</g>
<g id="clust6" class="cluster">
<title>cluster_l2</title>
<polygon fill="#0a0e17" stroke="#00bfff" points="1165,-344.75 1165,-422 1772,-422 1772,-344.75 1165,-344.75"/>
<text text-anchor="middle" x="1468.5" y="-404.7" font-family="Helvetica,sans-Serif" font-size="14.00" fill="#00bfff">L2 Component (Apps)</text>
</g>
<g id="clust7" class="cluster">
<title>cluster_obs</title>
<polygon fill="#0a0e17" stroke="#7a8fa6" points="1995,-341.5 1995,-425.25 2315,-425.25 2315,-341.5 1995,-341.5"/>
<text text-anchor="middle" x="2155" y="-407.95" font-family="Helvetica,sans-Serif" font-size="14.00" fill="#7a8fa6">Observability</text>
</g>
<!-- SafetyKernel -->
<g id="node1" class="node">
<title>SafetyKernel</title>
<path fill="#1a0e0e" stroke="#ff4757" stroke-width="1.5" d="M120.5,-388.75C120.5,-388.75 41.5,-388.75 41.5,-388.75 35.5,-388.75 29.5,-382.75 29.5,-376.75 29.5,-376.75 29.5,-364.75 29.5,-364.75 29.5,-358.75 35.5,-352.75 41.5,-352.75 41.5,-352.75 120.5,-352.75 120.5,-352.75 126.5,-352.75 132.5,-358.75 132.5,-364.75 132.5,-364.75 132.5,-376.75 132.5,-376.75 132.5,-382.75 126.5,-388.75 120.5,-388.75"/>
<text text-anchor="middle" x="81" y="-366.07" font-family="Helvetica,sans-Serif" font-size="14.00" fill="#e0e6ed">SafetyKernel</text>
</g>
<!-- Guardian -->
<g id="node2" class="node">
<title>Guardian</title>
<path fill="#1a0e0e" stroke="#ff4757" stroke-width="1.5" d="M108.5,-274.25C108.5,-274.25 53.5,-274.25 53.5,-274.25 47.5,-274.25 41.5,-268.25 41.5,-262.25 41.5,-262.25 41.5,-250.25 41.5,-250.25 41.5,-244.25 47.5,-238.25 53.5,-238.25 53.5,-238.25 108.5,-238.25 108.5,-238.25 114.5,-238.25 120.5,-244.25 120.5,-250.25 120.5,-250.25 120.5,-262.25 120.5,-262.25 120.5,-268.25 114.5,-274.25 108.5,-274.25"/>
<text text-anchor="middle" x="81" y="-251.57" font-family="Helvetica,sans-Serif" font-size="14.00" fill="#e0e6ed">Guardian</text>
</g>
<!-- SafetyKernel&#45;&gt;Guardian -->
<g id="edge2" class="edge">
<title>SafetyKernel&#45;&gt;Guardian</title>
<path fill="none" stroke="#00d4aa" d="M81,-352.66C81,-334.99 81,-307.07 81,-285.99"/>
<polygon fill="#00d4aa" stroke="#00d4aa" points="84.5,-286.01 81,-276.01 77.5,-286.01 84.5,-286.01"/>
<text text-anchor="middle" x="105.38" y="-322" font-family="Helvetica,sans-Serif" font-size="10.00" fill="#7a8fa6">invariants</text>
</g>
<!-- Ignition -->
<g id="node3" class="node">
<title>Ignition</title>
<path fill="#141922" stroke="#1e2a3a" stroke-width="1.5" d="M1112.88,-506.5C1112.88,-506.5 1069.12,-506.5 1069.12,-506.5 1063.12,-506.5 1057.12,-500.5 1057.12,-494.5 1057.12,-494.5 1057.12,-476 1057.12,-476 1057.12,-470 1063.12,-464 1069.12,-464 1069.12,-464 1112.88,-464 1112.88,-464 1118.88,-464 1124.88,-470 1124.88,-476 1124.88,-476 1124.88,-494.5 1124.88,-494.5 1124.88,-500.5 1118.88,-506.5 1112.88,-506.5"/>
<text text-anchor="middle" x="1091" y="-489.2" font-family="Helvetica,sans-Serif" font-size="14.00" fill="#e0e6ed">ignition</text>
<text text-anchor="middle" x="1091" y="-471.95" font-family="Helvetica,sans-Serif" font-size="14.00" fill="#e0e6ed">(Rust)</text>
</g>
<!-- Ignition&#45;&gt;SafetyKernel -->
<g id="edge1" class="edge">
<title>Ignition&#45;&gt;SafetyKernel</title>
<path fill="none" stroke="#00d4aa" d="M1064.41,-463.53C1059.22,-460.45 1053.64,-457.73 1048,-456 977.74,-434.4 456.79,-467.52 386.5,-446 376.6,-442.97 376.87,-436.38 367,-433.25 319.95,-418.31 191.09,-442.92 145,-425.25 129.48,-419.3 115.02,-407.94 103.78,-397.2"/>
<polygon fill="#00d4aa" stroke="#00d4aa" points="106.45,-394.92 96.92,-390.3 101.48,-399.86 106.45,-394.92"/>
<text text-anchor="middle" x="406.75" y="-436.5" font-family="Helvetica,sans-Serif" font-size="10.00" fill="#7a8fa6">preflight</text>
</g>
<!-- CortexFsharp -->
<g id="node9" class="node">
<title>CortexFsharp</title>
<path fill="#141922" stroke="#1e2a3a" stroke-width="1.5" d="M769.38,-392C769.38,-392 668.62,-392 668.62,-392 662.62,-392 656.62,-386 656.62,-380 656.62,-380 656.62,-361.5 656.62,-361.5 656.62,-355.5 662.62,-349.5 668.62,-349.5 668.62,-349.5 769.38,-349.5 769.38,-349.5 775.38,-349.5 781.38,-355.5 781.38,-361.5 781.38,-361.5 781.38,-380 781.38,-380 781.38,-386 775.38,-392 769.38,-392"/>
<text text-anchor="middle" x="719" y="-374.7" font-family="Helvetica,sans-Serif" font-size="14.00" fill="#e0e6ed">indrajaal&#45;cortex</text>
<text text-anchor="middle" x="719" y="-357.45" font-family="Helvetica,sans-Serif" font-size="14.00" fill="#e0e6ed">(dotnet F#)</text>
</g>
<!-- Ignition&#45;&gt;CortexFsharp -->
<g id="edge8" class="edge">
<title>Ignition&#45;&gt;CortexFsharp</title>
<path fill="none" stroke="#00d4aa" d="M1063.84,-463.55C1058.8,-460.55 1053.41,-457.86 1048,-456 995.28,-437.91 978.35,-452.55 923,-446 864.03,-439.02 845.76,-448.24 791,-425.25 776.24,-419.05 761.72,-409.21 749.64,-399.64"/>
<polygon fill="#00d4aa" stroke="#00d4aa" points="752.01,-397.06 742.07,-393.41 747.56,-402.47 752.01,-397.06"/>
</g>
<!-- Ollama -->
<g id="node10" class="node">
<title>Ollama</title>
<path fill="#141922" stroke="#1e2a3a" stroke-width="1.5" d="M626.5,-388.75C626.5,-388.75 523.5,-388.75 523.5,-388.75 517.5,-388.75 511.5,-382.75 511.5,-376.75 511.5,-376.75 511.5,-364.75 511.5,-364.75 511.5,-358.75 517.5,-352.75 523.5,-352.75 523.5,-352.75 626.5,-352.75 626.5,-352.75 632.5,-352.75 638.5,-358.75 638.5,-364.75 638.5,-364.75 638.5,-376.75 638.5,-376.75 638.5,-382.75 632.5,-388.75 626.5,-388.75"/>
<text text-anchor="middle" x="575" y="-366.07" font-family="Helvetica,sans-Serif" font-size="14.00" fill="#e0e6ed">indrajaal&#45;ollama</text>
</g>
<!-- Ignition&#45;&gt;Ollama -->
<g id="edge6" class="edge">
<title>Ignition&#45;&gt;Ollama</title>
<path fill="none" stroke="#00d4aa" d="M1064.37,-463.65C1059.19,-460.56 1053.61,-457.81 1048,-456 997.83,-439.83 863.5,-450.73 811,-446 769.89,-442.29 759.96,-438.39 719,-433.25 687.49,-429.29 677.58,-436.8 648,-425.25 630.99,-418.61 614.39,-406.98 601.32,-396.25"/>
<polygon fill="#00d4aa" stroke="#00d4aa" points="603.91,-393.86 594.03,-390.02 599.36,-399.18 603.91,-393.86"/>
</g>
<!-- MLr1 -->
<g id="node11" class="node">
<title>MLr1</title>
<path fill="#141922" stroke="#1e2a3a" stroke-width="1.5" d="M886.25,-388.75C886.25,-388.75 811.75,-388.75 811.75,-388.75 805.75,-388.75 799.75,-382.75 799.75,-376.75 799.75,-376.75 799.75,-364.75 799.75,-364.75 799.75,-358.75 805.75,-352.75 811.75,-352.75 811.75,-352.75 886.25,-352.75 886.25,-352.75 892.25,-352.75 898.25,-358.75 898.25,-364.75 898.25,-364.75 898.25,-376.75 898.25,-376.75 898.25,-382.75 892.25,-388.75 886.25,-388.75"/>
<text text-anchor="middle" x="849" y="-366.07" font-family="Helvetica,sans-Serif" font-size="14.00" fill="#e0e6ed">ml&#45;runner&#45;1</text>
</g>
<!-- Ignition&#45;&gt;MLr1 -->
<g id="edge9" class="edge">
<title>Ignition&#45;&gt;MLr1</title>
<path fill="none" stroke="#00d4aa" d="M1062.66,-463.59C1057.92,-460.74 1052.94,-458.08 1048,-456 989.29,-431.27 964.61,-454.46 908,-425.25 894.46,-418.27 881.65,-407.39 871.45,-397.26"/>
<polygon fill="#00d4aa" stroke="#00d4aa" points="874.04,-394.9 864.58,-390.12 868.99,-399.75 874.04,-394.9"/>
</g>
<!-- MLr2 -->
<g id="node12" class="node">
<title>MLr2</title>
<path fill="#141922" stroke="#1e2a3a" stroke-width="1.5" d="M1003.25,-388.75C1003.25,-388.75 928.75,-388.75 928.75,-388.75 922.75,-388.75 916.75,-382.75 916.75,-376.75 916.75,-376.75 916.75,-364.75 916.75,-364.75 916.75,-358.75 922.75,-352.75 928.75,-352.75 928.75,-352.75 1003.25,-352.75 1003.25,-352.75 1009.25,-352.75 1015.25,-358.75 1015.25,-364.75 1015.25,-364.75 1015.25,-376.75 1015.25,-376.75 1015.25,-382.75 1009.25,-388.75 1003.25,-388.75"/>
<text text-anchor="middle" x="966" y="-366.07" font-family="Helvetica,sans-Serif" font-size="14.00" fill="#e0e6ed">ml&#45;runner&#45;2</text>
</g>
<!-- Ignition&#45;&gt;MLr2 -->
<g id="edge10" class="edge">
<title>Ignition&#45;&gt;MLr2</title>
<path fill="none" stroke="#00d4aa" d="M1067.75,-463.54C1055.09,-452.24 1039.16,-438 1025,-425.25 1014.67,-415.95 1003.35,-405.7 993.42,-396.68"/>
<polygon fill="#00d4aa" stroke="#00d4aa" points="995.98,-394.28 986.22,-390.15 991.27,-399.46 995.98,-394.28"/>
</g>
<!-- Mojo -->
<g id="node13" class="node">
<title>Mojo</title>
<path fill="#141922" stroke="#1e2a3a" stroke-width="1.5" d="M1136.5,-388.75C1136.5,-388.75 1045.5,-388.75 1045.5,-388.75 1039.5,-388.75 1033.5,-382.75 1033.5,-376.75 1033.5,-376.75 1033.5,-364.75 1033.5,-364.75 1033.5,-358.75 1039.5,-352.75 1045.5,-352.75 1045.5,-352.75 1136.5,-352.75 1136.5,-352.75 1142.5,-352.75 1148.5,-358.75 1148.5,-364.75 1148.5,-364.75 1148.5,-376.75 1148.5,-376.75 1148.5,-382.75 1142.5,-388.75 1136.5,-388.75"/>
<text text-anchor="middle" x="1091" y="-366.07" font-family="Helvetica,sans-Serif" font-size="14.00" fill="#e0e6ed">indrajaal&#45;mojo</text>
</g>
<!-- Ignition&#45;&gt;Mojo -->
<g id="edge7" class="edge">
<title>Ignition&#45;&gt;Mojo</title>
<path fill="none" stroke="#00d4aa" d="M1091,-463.62C1091,-445.86 1091,-420.06 1091,-400.32"/>
<polygon fill="#00d4aa" stroke="#00d4aa" points="1094.5,-400.45 1091,-390.45 1087.5,-400.45 1094.5,-400.45"/>
</g>
<!-- ZR -->
<g id="node14" class="node">
<title>ZR</title>
<path fill="#141922" stroke="#1e2a3a" stroke-width="1.5" d="M302.62,-274.25C302.62,-274.25 221.38,-274.25 221.38,-274.25 215.38,-274.25 209.38,-268.25 209.38,-262.25 209.38,-262.25 209.38,-250.25 209.38,-250.25 209.38,-244.25 215.38,-238.25 221.38,-238.25 221.38,-238.25 302.62,-238.25 302.62,-238.25 308.62,-238.25 314.62,-244.25 314.62,-250.25 314.62,-250.25 314.62,-262.25 314.62,-262.25 314.62,-268.25 308.62,-274.25 302.62,-274.25"/>
<text text-anchor="middle" x="262" y="-251.57" font-family="Helvetica,sans-Serif" font-size="14.00" fill="#e0e6ed">zenoh&#45;router</text>
</g>
<!-- Ignition&#45;&gt;ZR -->
<g id="edge3" class="edge">
<title>Ignition&#45;&gt;ZR</title>
<path fill="none" stroke="#00d4aa" d="M1064.4,-463.57C1059.21,-460.49 1053.63,-457.76 1048,-456 1004.61,-442.44 684.37,-448.78 639,-446 615.46,-444.56 446.25,-439.88 427.75,-425.25 396.88,-400.84 423.59,-372.22 399,-341.5 377.24,-314.32 344.18,-293.63 315.98,-279.56"/>
<polygon fill="#00d4aa" stroke="#00d4aa" points="317.74,-276.52 307.21,-275.33 314.7,-282.82 317.74,-276.52"/>
<text text-anchor="middle" x="463.38" y="-367.62" font-family="Helvetica,sans-Serif" font-size="10.00" fill="#7a8fa6">launch wave&#45;1</text>
</g>
<!-- Bridge -->
<g id="node18" class="node">
<title>Bridge</title>
<path fill="#141922" stroke="#1e2a3a" stroke-width="1.5" d="M248.88,-392C248.88,-392 169.12,-392 169.12,-392 163.12,-392 157.12,-386 157.12,-380 157.12,-380 157.12,-361.5 157.12,-361.5 157.12,-355.5 163.12,-349.5 169.12,-349.5 169.12,-349.5 248.88,-349.5 248.88,-349.5 254.88,-349.5 260.88,-355.5 260.88,-361.5 260.88,-361.5 260.88,-380 260.88,-380 260.88,-386 254.88,-392 248.88,-392"/>
<text text-anchor="middle" x="209" y="-374.7" font-family="Helvetica,sans-Serif" font-size="14.00" fill="#e0e6ed">cepaf&#45;bridge</text>
<text text-anchor="middle" x="209" y="-357.45" font-family="Helvetica,sans-Serif" font-size="14.00" fill="#e0e6ed">(dotnet F#)</text>
</g>
<!-- Ignition&#45;&gt;Bridge -->
<g id="edge15" class="edge">
<title>Ignition&#45;&gt;Bridge</title>
<path fill="none" stroke="#00d4aa" d="M1064.41,-463.54C1059.22,-460.46 1053.63,-457.74 1048,-456 985.45,-436.71 522.85,-460.42 459,-446 445.66,-442.99 444.28,-436.49 431,-433.25 397.28,-425.02 307.41,-437.68 275,-425.25 260.66,-419.75 247.06,-409.87 235.97,-400.08"/>
<polygon fill="#00d4aa" stroke="#00d4aa" points="238.47,-397.62 228.77,-393.37 233.7,-402.75 238.47,-397.62"/>
</g>
<!-- DB -->
<g id="node19" class="node">
<title>DB</title>
<path fill="#141922" stroke="#1e2a3a" stroke-width="1.5" d="M1775.25,-277.5C1775.25,-277.5 1658.75,-277.5 1658.75,-277.5 1652.75,-277.5 1646.75,-271.5 1646.75,-265.5 1646.75,-265.5 1646.75,-247 1646.75,-247 1646.75,-241 1652.75,-235 1658.75,-235 1658.75,-235 1775.25,-235 1775.25,-235 1781.25,-235 1787.25,-241 1787.25,-247 1787.25,-247 1787.25,-265.5 1787.25,-265.5 1787.25,-271.5 1781.25,-277.5 1775.25,-277.5"/>
<text text-anchor="middle" x="1717" y="-260.2" font-family="Helvetica,sans-Serif" font-size="14.00" fill="#e0e6ed">indrajaal&#45;db&#45;prod</text>
<text text-anchor="middle" x="1717" y="-242.95" font-family="Helvetica,sans-Serif" font-size="14.00" fill="#e0e6ed">(Timescale :5433)</text>
</g>
<!-- Ignition&#45;&gt;DB -->
<g id="edge4" class="edge">
<title>Ignition&#45;&gt;DB</title>
<path fill="none" stroke="#00d4aa" d="M1117.61,-463.59C1122.79,-460.5 1128.38,-457.77 1134,-456 1202.12,-434.57 1727.34,-477.52 1776,-425.25 1812.41,-386.14 1772.75,-323.25 1743.15,-286.53"/>
<polygon fill="#00d4aa" stroke="#00d4aa" points="1745.94,-284.41 1736.86,-278.95 1740.56,-288.88 1745.94,-284.41"/>
<text text-anchor="middle" x="1826.21" y="-367.62" font-family="Helvetica,sans-Serif" font-size="10.00" fill="#7a8fa6">launch wave&#45;1</text>
</g>
<!-- App1 -->
<g id="node22" class="node">
<title>App1</title>
<path fill="#141922" stroke="#1e2a3a" stroke-width="1.5" d="M1751.62,-388.75C1751.62,-388.75 1652.38,-388.75 1652.38,-388.75 1646.38,-388.75 1640.38,-382.75 1640.38,-376.75 1640.38,-376.75 1640.38,-364.75 1640.38,-364.75 1640.38,-358.75 1646.38,-352.75 1652.38,-352.75 1652.38,-352.75 1751.62,-352.75 1751.62,-352.75 1757.62,-352.75 1763.62,-358.75 1763.62,-364.75 1763.62,-364.75 1763.62,-376.75 1763.62,-376.75 1763.62,-382.75 1757.62,-388.75 1751.62,-388.75"/>
<text text-anchor="middle" x="1702" y="-366.07" font-family="Helvetica,sans-Serif" font-size="14.00" fill="#e0e6ed">ex&#45;app&#45;1 :4000</text>
</g>
<!-- Ignition&#45;&gt;App1 -->
<g id="edge11" class="edge">
<title>Ignition&#45;&gt;App1</title>
<path fill="none" stroke="#00d4aa" d="M1117.64,-463.68C1122.82,-460.59 1128.39,-457.83 1134,-456 1177.58,-441.81 1294.25,-448.74 1340,-446 1469.87,-438.23 1510.32,-471.3 1632,-425.25 1648.58,-418.98 1664.49,-407.42 1676.94,-396.65"/>
<polygon fill="#00d4aa" stroke="#00d4aa" points="1679.17,-399.36 1684.24,-390.05 1674.47,-394.17 1679.17,-399.36"/>
</g>
<!-- App2 -->
<g id="node23" class="node">
<title>App2</title>
<path fill="#141922" stroke="#1e2a3a" stroke-width="1.5" d="M1284.62,-388.75C1284.62,-388.75 1185.38,-388.75 1185.38,-388.75 1179.38,-388.75 1173.38,-382.75 1173.38,-376.75 1173.38,-376.75 1173.38,-364.75 1173.38,-364.75 1173.38,-358.75 1179.38,-352.75 1185.38,-352.75 1185.38,-352.75 1284.62,-352.75 1284.62,-352.75 1290.62,-352.75 1296.62,-358.75 1296.62,-364.75 1296.62,-364.75 1296.62,-376.75 1296.62,-376.75 1296.62,-382.75 1290.62,-388.75 1284.62,-388.75"/>
<text text-anchor="middle" x="1235" y="-366.07" font-family="Helvetica,sans-Serif" font-size="14.00" fill="#e0e6ed">ex&#45;app&#45;2 :4003</text>
</g>
<!-- Ignition&#45;&gt;App2 -->
<g id="edge12" class="edge">
<title>Ignition&#45;&gt;App2</title>
<path fill="none" stroke="#00d4aa" d="M1117.41,-463.62C1141.85,-444.52 1178.2,-416.12 1204.01,-395.96"/>
<polygon fill="#00d4aa" stroke="#00d4aa" points="1206.08,-398.79 1211.8,-389.87 1201.77,-393.27 1206.08,-398.79"/>
</g>
<!-- App3 -->
<g id="node24" class="node">
<title>App3</title>
<path fill="#141922" stroke="#1e2a3a" stroke-width="1.5" d="M1610.62,-388.75C1610.62,-388.75 1511.38,-388.75 1511.38,-388.75 1505.38,-388.75 1499.38,-382.75 1499.38,-376.75 1499.38,-376.75 1499.38,-364.75 1499.38,-364.75 1499.38,-358.75 1505.38,-352.75 1511.38,-352.75 1511.38,-352.75 1610.62,-352.75 1610.62,-352.75 1616.62,-352.75 1622.62,-358.75 1622.62,-364.75 1622.62,-364.75 1622.62,-376.75 1622.62,-376.75 1622.62,-382.75 1616.62,-388.75 1610.62,-388.75"/>
<text text-anchor="middle" x="1561" y="-366.07" font-family="Helvetica,sans-Serif" font-size="14.00" fill="#e0e6ed">ex&#45;app&#45;3 :4004</text>
</g>
<!-- Ignition&#45;&gt;App3 -->
<g id="edge13" class="edge">
<title>Ignition&#45;&gt;App3</title>
<path fill="none" stroke="#00d4aa" d="M1118.17,-463.57C1123.21,-460.57 1128.6,-457.87 1134,-456 1152.81,-449.48 1472.43,-432.43 1491,-425.25 1507.41,-418.9 1523.22,-407.45 1535.64,-396.76"/>
<polygon fill="#00d4aa" stroke="#00d4aa" points="1537.82,-399.5 1542.92,-390.22 1533.15,-394.3 1537.82,-399.5"/>
</g>
<!-- Chaya -->
<g id="node25" class="node">
<title>Chaya</title>
<path fill="#141922" stroke="#1e2a3a" stroke-width="1.5" d="M1469.75,-388.75C1469.75,-388.75 1326.25,-388.75 1326.25,-388.75 1320.25,-388.75 1314.25,-382.75 1314.25,-376.75 1314.25,-376.75 1314.25,-364.75 1314.25,-364.75 1314.25,-358.75 1320.25,-352.75 1326.25,-352.75 1326.25,-352.75 1469.75,-352.75 1469.75,-352.75 1475.75,-352.75 1481.75,-358.75 1481.75,-364.75 1481.75,-364.75 1481.75,-376.75 1481.75,-376.75 1481.75,-382.75 1475.75,-388.75 1469.75,-388.75"/>
<text text-anchor="middle" x="1398" y="-366.07" font-family="Helvetica,sans-Serif" font-size="14.00" fill="#e0e6ed">indrajaal&#45;chaya :4002</text>
</g>
<!-- Ignition&#45;&gt;Chaya -->
<g id="edge14" class="edge">
<title>Ignition&#45;&gt;Chaya</title>
<path fill="none" stroke="#00d4aa" d="M1118.79,-463.7C1123.68,-460.76 1128.86,-458.05 1134,-456 1206.14,-427.26 1233.1,-452.01 1306,-425.25 1326.44,-417.75 1347.56,-405.81 1364.41,-395.11"/>
<polygon fill="#00d4aa" stroke="#00d4aa" points="1366.05,-398.22 1372.52,-389.83 1362.23,-392.35 1366.05,-398.22"/>
</g>
<!-- Obs -->
<g id="node26" class="node">
<title>Obs</title>
<path fill="#141922" stroke="#1e2a3a" stroke-width="1.5" d="M2295.38,-392C2295.38,-392 2014.62,-392 2014.62,-392 2008.62,-392 2002.62,-386 2002.62,-380 2002.62,-380 2002.62,-361.5 2002.62,-361.5 2002.62,-355.5 2008.62,-349.5 2014.62,-349.5 2014.62,-349.5 2295.38,-349.5 2295.38,-349.5 2301.38,-349.5 2307.38,-355.5 2307.38,-361.5 2307.38,-361.5 2307.38,-380 2307.38,-380 2307.38,-386 2301.38,-392 2295.38,-392"/>
<text text-anchor="middle" x="2155" y="-374.7" font-family="Helvetica,sans-Serif" font-size="14.00" fill="#e0e6ed">obs&#45;prod</text>
<text text-anchor="middle" x="2155" y="-357.45" font-family="Helvetica,sans-Serif" font-size="14.00" fill="#e0e6ed">Grafana :3000 / OTEL :4317 / Prom :9090</text>
</g>
<!-- Ignition&#45;&gt;Obs -->
<g id="edge5" class="edge">
<title>Ignition&#45;&gt;Obs</title>
<path fill="none" stroke="#00d4aa" d="M1117.59,-463.53C1122.78,-460.45 1128.36,-457.73 1134,-456 1170.12,-444.91 1776.47,-450.32 1814,-446 1902.27,-435.84 2001.32,-412.96 2069.82,-395.26"/>
<polygon fill="#00d4aa" stroke="#00d4aa" points="2070.29,-398.75 2079.08,-392.85 2068.52,-391.98 2070.29,-398.75"/>
<text text-anchor="middle" x="1925.21" y="-436.5" font-family="Helvetica,sans-Serif" font-size="10.00" fill="#7a8fa6">launch wave&#45;1</text>
</g>
<!-- SaPlanServe -->
<g id="node4" class="node">
<title>SaPlanServe</title>
<path fill="#141922" stroke="#1e2a3a" stroke-width="1.5" d="M1285.38,-503.25C1285.38,-503.25 1154.62,-503.25 1154.62,-503.25 1148.62,-503.25 1142.62,-497.25 1142.62,-491.25 1142.62,-491.25 1142.62,-479.25 1142.62,-479.25 1142.62,-473.25 1148.62,-467.25 1154.62,-467.25 1154.62,-467.25 1285.38,-467.25 1285.38,-467.25 1291.38,-467.25 1297.38,-473.25 1297.38,-479.25 1297.38,-479.25 1297.38,-491.25 1297.38,-491.25 1297.38,-497.25 1291.38,-503.25 1285.38,-503.25"/>
<text text-anchor="middle" x="1220" y="-480.57" font-family="Helvetica,sans-Serif" font-size="14.00" fill="#e0e6ed">sa&#45;plan serve :4200</text>
</g>
<!-- PlanningDB -->
<g id="node20" class="node">
<title>PlanningDB</title>
<path fill="#141922" stroke="#1e2a3a" stroke-width="1.5" d="M1950.88,-277.5C1950.88,-277.5 1817.12,-277.5 1817.12,-277.5 1811.12,-277.5 1805.12,-271.5 1805.12,-265.5 1805.12,-265.5 1805.12,-247 1805.12,-247 1805.12,-241 1811.12,-235 1817.12,-235 1817.12,-235 1950.88,-235 1950.88,-235 1956.88,-235 1962.88,-241 1962.88,-247 1962.88,-247 1962.88,-265.5 1962.88,-265.5 1962.88,-271.5 1956.88,-277.5 1950.88,-277.5"/>
<text text-anchor="middle" x="1884" y="-260.2" font-family="Helvetica,sans-Serif" font-size="14.00" fill="#e0e6ed">planning.db</text>
<text text-anchor="middle" x="1884" y="-242.95" font-family="Helvetica,sans-Serif" font-size="14.00" fill="#e0e6ed">(SQLite, 2943 tasks)</text>
</g>
<!-- SaPlanServe&#45;&gt;PlanningDB -->
<g id="edge16" class="edge">
<title>SaPlanServe&#45;&gt;PlanningDB</title>
<path fill="none" stroke="#00d4aa" d="M1264.45,-466.89C1277.62,-462.5 1292.21,-458.37 1306,-456 1367.42,-445.45 1823.38,-470.71 1866,-425.25 1900.03,-388.95 1896.87,-326.99 1890.86,-289.31"/>
<polygon fill="#00d4aa" stroke="#00d4aa" points="1894.31,-288.72 1889.11,-279.49 1887.41,-289.95 1894.31,-288.72"/>
</g>
<!-- SaPlanTLS -->
<g id="node5" class="node">
<title>SaPlanTLS</title>
<path fill="#141922" stroke="#1e2a3a" stroke-width="1.5" d="M1478.88,-503.25C1478.88,-503.25 1327.12,-503.25 1327.12,-503.25 1321.12,-503.25 1315.12,-497.25 1315.12,-491.25 1315.12,-491.25 1315.12,-479.25 1315.12,-479.25 1315.12,-473.25 1321.12,-467.25 1327.12,-467.25 1327.12,-467.25 1478.88,-467.25 1478.88,-467.25 1484.88,-467.25 1490.88,-473.25 1490.88,-479.25 1490.88,-479.25 1490.88,-491.25 1490.88,-491.25 1490.88,-497.25 1484.88,-503.25 1478.88,-503.25"/>
<text text-anchor="middle" x="1403" y="-480.57" font-family="Helvetica,sans-Serif" font-size="14.00" fill="#e0e6ed">sa&#45;plan tls serve :8443</text>
</g>
<!-- SaPlanTLS&#45;&gt;PlanningDB -->
<g id="edge17" class="edge">
<title>SaPlanTLS&#45;&gt;PlanningDB</title>
<path fill="none" stroke="#00d4aa" d="M1453.79,-466.77C1468.52,-462.44 1484.75,-458.36 1500,-456 1522.68,-452.48 1896.97,-462.42 1913,-446 1954.1,-403.9 1924.28,-329.47 1902.12,-287.76"/>
<polygon fill="#00d4aa" stroke="#00d4aa" points="1905.31,-286.3 1897.43,-279.22 1899.18,-289.67 1905.31,-286.3"/>
</g>
<!-- Scheduler -->
<g id="node6" class="node">
<title>Scheduler</title>
<path fill="#141922" stroke="#1e2a3a" stroke-width="1.5" d="M1664.75,-503.25C1664.75,-503.25 1521.25,-503.25 1521.25,-503.25 1515.25,-503.25 1509.25,-497.25 1509.25,-491.25 1509.25,-491.25 1509.25,-479.25 1509.25,-479.25 1509.25,-473.25 1515.25,-467.25 1521.25,-467.25 1521.25,-467.25 1664.75,-467.25 1664.75,-467.25 1670.75,-467.25 1676.75,-473.25 1676.75,-479.25 1676.75,-479.25 1676.75,-491.25 1676.75,-491.25 1676.75,-497.25 1670.75,-503.25 1664.75,-503.25"/>
<text text-anchor="middle" x="1593" y="-480.57" font-family="Helvetica,sans-Serif" font-size="14.00" fill="#e0e6ed">sa&#45;plan scheduler&#45;run</text>
</g>
<!-- Scheduler&#45;&gt;PlanningDB -->
<g id="edge18" class="edge">
<title>Scheduler&#45;&gt;PlanningDB</title>
<path fill="none" stroke="#00d4aa" d="M1641.13,-466.89C1655.1,-462.56 1670.5,-458.45 1685,-456 1699.58,-453.53 1940.74,-456.65 1951,-446 1990.23,-405.26 1973.76,-370.53 1951,-318.75 1945.34,-305.88 1935.51,-294.52 1925.1,-285.18"/>
<polygon fill="#00d4aa" stroke="#00d4aa" points="1927.37,-282.51 1917.45,-278.79 1922.88,-287.88 1927.37,-282.51"/>
</g>
<!-- Cortex -->
<g id="node7" class="node">
<title>Cortex</title>
<path fill="#141922" stroke="#1e2a3a" stroke-width="1.5" d="M1026.88,-506.5C1026.88,-506.5 923.12,-506.5 923.12,-506.5 917.12,-506.5 911.12,-500.5 911.12,-494.5 911.12,-494.5 911.12,-476 911.12,-476 911.12,-470 917.12,-464 923.12,-464 923.12,-464 1026.88,-464 1026.88,-464 1032.88,-464 1038.88,-470 1038.88,-476 1038.88,-476 1038.88,-494.5 1038.88,-494.5 1038.88,-500.5 1032.88,-506.5 1026.88,-506.5"/>
<text text-anchor="middle" x="975" y="-489.2" font-family="Helvetica,sans-Serif" font-size="14.00" fill="#e0e6ed">sa&#45;plan daemon</text>
<text text-anchor="middle" x="975" y="-471.95" font-family="Helvetica,sans-Serif" font-size="14.00" fill="#e0e6ed">(Zenoh listener)</text>
</g>
<!-- Cortex&#45;&gt;Ollama -->
<g id="edge20" class="edge">
<title>Cortex&#45;&gt;Ollama</title>
<path fill="none" stroke="#00d4aa" d="M910.85,-482.79C751.81,-478.85 350.68,-466.89 331,-446 327.11,-441.88 327.09,-437.35 331,-433.25 343.74,-419.88 479.5,-431.14 497,-425.25 515.38,-419.06 533.41,-407.19 547.49,-396.2"/>
<polygon fill="#00d4aa" stroke="#00d4aa" points="549.41,-399.15 554.97,-390.13 545,-393.72 549.41,-399.15"/>
<text text-anchor="middle" x="349" y="-436.5" font-family="Helvetica,sans-Serif" font-size="10.00" fill="#7a8fa6">hedged</text>
</g>
<!-- Cortex&#45;&gt;Ollama -->
<g id="edge21" class="edge">
<title>Cortex&#45;&gt;Ollama</title>
<path fill="none" stroke="#00d4aa" d="M910.78,-480.51C833.42,-475.28 708.52,-464.31 665.75,-446 639.7,-434.85 615.14,-413.87 598.16,-397.05"/>
<polygon fill="#00d4aa" stroke="#00d4aa" points="601.01,-394.96 591.52,-390.26 596.01,-399.86 601.01,-394.96"/>
<text text-anchor="middle" x="692.38" y="-436.5" font-family="Helvetica,sans-Serif" font-size="10.00" fill="#7a8fa6">openrouter</text>
</g>
<!-- Cortex&#45;&gt;ZR -->
<g id="edge19" class="edge">
<title>Cortex&#45;&gt;ZR</title>
<path fill="none" stroke="#00d4aa" d="M910.88,-483.85C756.53,-482.41 373.35,-475.83 324,-446 296.11,-429.14 275.61,-334.31 266.79,-285.82"/>
<polygon fill="#00d4aa" stroke="#00d4aa" points="270.25,-285.29 265.06,-276.05 263.36,-286.51 270.25,-285.29"/>
<text text-anchor="middle" x="350.54" y="-367.62" font-family="Helvetica,sans-Serif" font-size="10.00" fill="#7a8fa6">sub indrajaal/l5/**</text>
</g>
<!-- TsDaemon -->
<g id="node8" class="node">
<title>TsDaemon</title>
<path fill="#141922" stroke="#1e2a3a" stroke-width="1.5" d="M1835.62,-503.25C1835.62,-503.25 1706.38,-503.25 1706.38,-503.25 1700.38,-503.25 1694.38,-497.25 1694.38,-491.25 1694.38,-491.25 1694.38,-479.25 1694.38,-479.25 1694.38,-473.25 1700.38,-467.25 1706.38,-467.25 1706.38,-467.25 1835.62,-467.25 1835.62,-467.25 1841.62,-467.25 1847.62,-473.25 1847.62,-479.25 1847.62,-479.25 1847.62,-491.25 1847.62,-491.25 1847.62,-497.25 1841.62,-503.25 1835.62,-503.25"/>
<text text-anchor="middle" x="1771" y="-480.57" font-family="Helvetica,sans-Serif" font-size="14.00" fill="#e0e6ed">timestamp_daemon</text>
</g>
<!-- TsDaemon&#45;&gt;Obs -->
<g id="edge22" class="edge">
<title>TsDaemon&#45;&gt;Obs</title>
<path fill="none" stroke="#00d4aa" d="M1848.12,-483.22C1934.23,-480.74 2067.03,-472.57 2109,-446 2124.82,-435.98 2136.08,-418.35 2143.5,-402.78"/>
<polygon fill="#00d4aa" stroke="#00d4aa" points="2146.62,-404.4 2147.43,-393.84 2140.2,-401.59 2146.62,-404.4"/>
<text text-anchor="middle" x="2152.14" y="-436.5" font-family="Helvetica,sans-Serif" font-size="10.00" fill="#7a8fa6">OTEL traces</text>
</g>
<!-- CortexFsharp&#45;&gt;ZR -->
<g id="edge23" class="edge">
<title>CortexFsharp&#45;&gt;ZR</title>
<path fill="none" stroke="#00d4aa" d="M670.1,-349.09C662.76,-346.34 655.23,-343.71 648,-341.5 536.56,-307.42 403.03,-281.47 325.81,-267.87"/>
<polygon fill="#00d4aa" stroke="#00d4aa" points="326.78,-264.48 316.32,-266.21 325.57,-271.38 326.78,-264.48"/>
</g>
<!-- ZR1 -->
<g id="node15" class="node">
<title>ZR1</title>
<path fill="#141922" stroke="#1e2a3a" stroke-width="1.5" d="M263,-198C263,-198 169,-198 169,-198 163,-198 157,-192 157,-186 157,-186 157,-174 157,-174 157,-168 163,-162 169,-162 169,-162 263,-162 263,-162 269,-162 275,-168 275,-174 275,-174 275,-186 275,-186 275,-192 269,-198 263,-198"/>
<text text-anchor="middle" x="216" y="-175.32" font-family="Helvetica,sans-Serif" font-size="14.00" fill="#e0e6ed">zenoh&#45;router&#45;1</text>
</g>
<!-- ZR&#45;&gt;ZR1 -->
<g id="edge33" class="edge">
<title>ZR&#45;&gt;ZR1</title>
<path fill="none" stroke="#00d4aa" d="M245.42,-228.49C241.25,-221.75 236.77,-214.52 232.6,-207.79"/>
<polygon fill="#00d4aa" stroke="#00d4aa" points="242.29,-230.08 250.53,-236.74 248.24,-226.4 242.29,-230.08"/>
<polygon fill="#00d4aa" stroke="#00d4aa" points="235.81,-206.33 227.57,-199.67 229.86,-210.02 235.81,-206.33"/>
</g>
<!-- ZR2 -->
<g id="node16" class="node">
<title>ZR2</title>
<path fill="#141922" stroke="#1e2a3a" stroke-width="1.5" d="M283,-125C283,-125 189,-125 189,-125 183,-125 177,-119 177,-113 177,-113 177,-101 177,-101 177,-95 183,-89 189,-89 189,-89 283,-89 283,-89 289,-89 295,-95 295,-101 295,-101 295,-113 295,-113 295,-119 289,-125 283,-125"/>
<text text-anchor="middle" x="236" y="-102.33" font-family="Helvetica,sans-Serif" font-size="14.00" fill="#e0e6ed">zenoh&#45;router&#45;2</text>
</g>
<!-- ZR&#45;&gt;ZR2 -->
<g id="edge34" class="edge">
<title>ZR&#45;&gt;ZR2</title>
<path fill="none" stroke="#00d4aa" d="M276.93,-227.72C285.13,-208.85 292.15,-183.45 284,-162 280,-151.47 272.9,-141.68 265.36,-133.41"/>
<polygon fill="#00d4aa" stroke="#00d4aa" points="273.82,-226.1 272.71,-236.63 280.15,-229.09 273.82,-226.1"/>
<polygon fill="#00d4aa" stroke="#00d4aa" points="268.03,-131.14 258.53,-126.46 263.04,-136.04 268.03,-131.14"/>
</g>
<!-- ZR3 -->
<g id="node17" class="node">
<title>ZR3</title>
<path fill="#141922" stroke="#1e2a3a" stroke-width="1.5" d="M283,-52C283,-52 189,-52 189,-52 183,-52 177,-46 177,-40 177,-40 177,-28 177,-28 177,-22 183,-16 189,-16 189,-16 283,-16 283,-16 289,-16 295,-22 295,-28 295,-28 295,-40 295,-40 295,-46 289,-52 283,-52"/>
<text text-anchor="middle" x="236" y="-29.32" font-family="Helvetica,sans-Serif" font-size="14.00" fill="#e0e6ed">zenoh&#45;router&#45;3</text>
</g>
<!-- ZR&#45;&gt;ZR3 -->
<g id="edge35" class="edge">
<title>ZR&#45;&gt;ZR3</title>
<path fill="none" stroke="#00d4aa" d="M279.72,-228.3C299.59,-194.44 326.29,-135.16 304,-89 298.27,-77.14 288.53,-67.08 278.18,-58.98"/>
<polygon fill="#00d4aa" stroke="#00d4aa" points="276.85,-226.3 274.63,-236.66 282.82,-229.95 276.85,-226.3"/>
<polygon fill="#00d4aa" stroke="#00d4aa" points="280.4,-56.26 270.24,-53.25 276.3,-61.94 280.4,-56.26"/>
</g>
<!-- ZR1&#45;&gt;ZR2 -->
<g id="edge36" class="edge">
<title>ZR1&#45;&gt;ZR2</title>
<path fill="none" stroke="#00d4aa" d="M223.92,-150.87C225.31,-145.96 226.75,-140.84 228.13,-135.93"/>
<polygon fill="#00d4aa" stroke="#00d4aa" points="220.59,-149.78 221.25,-160.36 227.33,-151.68 220.59,-149.78"/>
<polygon fill="#00d4aa" stroke="#00d4aa" points="231.45,-137.06 230.79,-126.49 224.71,-135.16 231.45,-137.06"/>
</g>
<!-- ZR1&#45;&gt;ZR3 -->
<g id="edge38" class="edge">
<title>ZR1&#45;&gt;ZR3</title>
<path fill="none" stroke="#00d4aa" d="M186.64,-153.59C179.1,-145.32 172,-135.53 168,-125 162.31,-110.04 161.04,-103.41 168,-89 173.73,-77.14 183.47,-67.08 193.82,-58.98"/>
<polygon fill="#00d4aa" stroke="#00d4aa" points="183.97,-155.86 193.47,-160.54 188.96,-150.96 183.97,-155.86"/>
<polygon fill="#00d4aa" stroke="#00d4aa" points="195.7,-61.94 201.76,-53.25 191.6,-56.26 195.7,-61.94"/>
</g>
<!-- ZR2&#45;&gt;ZR3 -->
<g id="edge37" class="edge">
<title>ZR2&#45;&gt;ZR3</title>
<path fill="none" stroke="#00d4aa" d="M236,-77.58C236,-72.84 236,-67.94 236,-63.21"/>
<polygon fill="#00d4aa" stroke="#00d4aa" points="232.5,-77.3 236,-87.3 239.5,-77.3 232.5,-77.3"/>
<polygon fill="#00d4aa" stroke="#00d4aa" points="239.5,-63.54 236,-53.54 232.5,-63.54 239.5,-63.54"/>
</g>
<!-- Bridge&#45;&gt;ZR -->
<g id="edge24" class="edge">
<title>Bridge&#45;&gt;ZR</title>
<path fill="none" stroke="#00d4aa" d="M218.72,-349.12C227.24,-331.03 239.7,-304.59 249.06,-284.71"/>
<polygon fill="#00d4aa" stroke="#00d4aa" points="252.16,-286.35 253.26,-275.81 245.83,-283.36 252.16,-286.35"/>
</g>
<!-- Smriti -->
<g id="node21" class="node">
<title>Smriti</title>
<path fill="#141922" stroke="#1e2a3a" stroke-width="1.5" d="M2047.12,-277.5C2047.12,-277.5 1992.88,-277.5 1992.88,-277.5 1986.88,-277.5 1980.88,-271.5 1980.88,-265.5 1980.88,-265.5 1980.88,-247 1980.88,-247 1980.88,-241 1986.88,-235 1992.88,-235 1992.88,-235 2047.12,-235 2047.12,-235 2053.12,-235 2059.12,-241 2059.12,-247 2059.12,-247 2059.12,-265.5 2059.12,-265.5 2059.12,-271.5 2053.12,-277.5 2047.12,-277.5"/>
<text text-anchor="middle" x="2020" y="-260.2" font-family="Helvetica,sans-Serif" font-size="14.00" fill="#e0e6ed">smriti.db</text>
<text text-anchor="middle" x="2020" y="-242.95" font-family="Helvetica,sans-Serif" font-size="14.00" fill="#e0e6ed">(SQLite)</text>
</g>
<!-- App1&#45;&gt;ZR -->
<g id="edge25" class="edge">
<title>App1&#45;&gt;ZR</title>
<path fill="none" stroke="#00d4aa" d="M1664.9,-352.36C1654.47,-348.14 1642.97,-344.1 1632,-341.5 1511.37,-312.92 1477.67,-327.29 1354,-318.75 963.93,-291.81 494.87,-268.42 326.25,-260.3"/>
<polygon fill="#00d4aa" stroke="#00d4aa" points="326.54,-256.81 316.38,-259.82 326.2,-263.8 326.54,-256.81"/>
</g>
<!-- App1&#45;&gt;DB -->
<g id="edge29" class="edge">
<title>App1&#45;&gt;DB</title>
<path fill="none" stroke="#00d4aa" d="M1704.28,-352.66C1706.51,-335.91 1709.97,-309.96 1712.72,-289.35"/>
<polygon fill="#00d4aa" stroke="#00d4aa" points="1716.19,-289.82 1714.04,-279.44 1709.25,-288.89 1716.19,-289.82"/>
</g>
<!-- App2&#45;&gt;ZR -->
<g id="edge26" class="edge">
<title>App2&#45;&gt;ZR</title>
<path fill="none" stroke="#00d4aa" d="M1195.3,-352.31C1184.37,-348.14 1172.39,-344.14 1161,-341.5 1113.18,-330.42 1099.88,-336.02 1051,-331.5 781.77,-306.59 460.93,-276.17 326.38,-263.38"/>
<polygon fill="#00d4aa" stroke="#00d4aa" points="326.89,-259.91 316.6,-262.45 326.23,-266.88 326.89,-259.91"/>
</g>
<!-- App2&#45;&gt;DB -->
<g id="edge30" class="edge">
<title>App2&#45;&gt;DB</title>
<path fill="none" stroke="#00d4aa" d="M1274.53,-352.34C1284.36,-348.42 1294.96,-344.52 1305,-341.5 1417.44,-307.62 1551.25,-283.05 1635.17,-269.47"/>
<polygon fill="#00d4aa" stroke="#00d4aa" points="1635.61,-272.95 1644.93,-267.91 1634.5,-266.04 1635.61,-272.95"/>
</g>
<!-- App3&#45;&gt;ZR -->
<g id="edge27" class="edge">
<title>App3&#45;&gt;ZR</title>
<path fill="none" stroke="#00d4aa" d="M1523.52,-352.27C1513.19,-348.1 1501.83,-344.11 1491,-341.5 1380.38,-314.86 1349.45,-327.39 1236,-318.75 893.38,-292.65 482.35,-269.31 326.32,-260.73"/>
<polygon fill="#00d4aa" stroke="#00d4aa" points="326.78,-257.25 316.6,-260.2 326.39,-264.24 326.78,-257.25"/>
</g>
<!-- App3&#45;&gt;DB -->
<g id="edge31" class="edge">
<title>App3&#45;&gt;DB</title>
<path fill="none" stroke="#00d4aa" d="M1585.03,-352.42C1610.17,-334.29 1649.99,-305.58 1679.32,-284.43"/>
<polygon fill="#00d4aa" stroke="#00d4aa" points="1681.15,-287.42 1687.21,-278.73 1677.05,-281.74 1681.15,-287.42"/>
</g>
<!-- Chaya&#45;&gt;ZR -->
<g id="edge28" class="edge">
<title>Chaya&#45;&gt;ZR</title>
<path fill="none" stroke="#00d4aa" d="M1348.36,-352.35C1334.78,-348.18 1319.95,-344.17 1306,-341.5 939.96,-271.4 490.85,-259.54 326.31,-257.6"/>
<polygon fill="#00d4aa" stroke="#00d4aa" points="326.51,-254.1 316.47,-257.49 326.43,-261.1 326.51,-254.1"/>
</g>
<!-- Chaya&#45;&gt;DB -->
<g id="edge32" class="edge">
<title>Chaya&#45;&gt;DB</title>
<path fill="none" stroke="#00d4aa" d="M1447.49,-352.3C1501.15,-333.37 1587.18,-303.03 1647.58,-281.73"/>
<polygon fill="#00d4aa" stroke="#00d4aa" points="1648.47,-285.13 1656.74,-278.5 1646.15,-278.53 1648.47,-285.13"/>
</g>
<!-- Grafana_user -->
<g id="node27" class="node">
<title>Grafana_user</title>
<path fill="#141922" stroke="#1e2a3a" stroke-width="1.5" d="M2197.5,-274.25C2197.5,-274.25 2112.5,-274.25 2112.5,-274.25 2106.5,-274.25 2100.5,-268.25 2100.5,-262.25 2100.5,-262.25 2100.5,-250.25 2100.5,-250.25 2100.5,-244.25 2106.5,-238.25 2112.5,-238.25 2112.5,-238.25 2197.5,-238.25 2197.5,-238.25 2203.5,-238.25 2209.5,-244.25 2209.5,-250.25 2209.5,-250.25 2209.5,-262.25 2209.5,-262.25 2209.5,-268.25 2203.5,-274.25 2197.5,-274.25"/>
<text text-anchor="middle" x="2155" y="-251.57" font-family="Helvetica,sans-Serif" font-size="14.00" fill="#e0e6ed">Grafana_user</text>
</g>
<!-- Obs&#45;&gt;Grafana_user -->
<g id="edge39" class="edge">
<title>Obs&#45;&gt;Grafana_user</title>
<path fill="none" stroke="#00d4aa" stroke-dasharray="5,2" d="M2155,-349.12C2155,-331.36 2155,-305.56 2155,-285.82"/>
<polygon fill="#00d4aa" stroke="#00d4aa" points="2158.5,-285.95 2155,-275.95 2151.5,-285.95 2158.5,-285.95"/>
</g>
</g>
</svg>
