<?xml version="1.0" encoding="UTF-8" standalone="no"?>
<!DOCTYPE svg PUBLIC "-//W3C//DTD SVG 1.1//EN"
 "http://www.w3.org/Graphics/SVG/1.1/DTD/svg11.dtd">
<!-- Generated by graphviz version 12.2.1 (0)
 -->
<!-- Title: DataPlane Pages: 1 -->
<svg width="988pt" height="443pt"
 viewBox="0.00 0.00 988.00 443.25" xmlns="http://www.w3.org/2000/svg" xmlns:xlink="http://www.w3.org/1999/xlink">
<g id="graph0" class="graph" transform="scale(1 1) rotate(0) translate(4 439.25)">
<title>DataPlane</title>
<polygon fill="#0a0e17" stroke="none" points="-4,4 -4,-439.25 984,-439.25 984,4 -4,4"/>
<!-- User -->
<g id="node1" class="node">
<title>User</title>
<path fill="#1a2a3a" stroke="#1e2a3a" d="M42,-192C42,-192 12,-192 12,-192 6,-192 0,-186 0,-180 0,-180 0,-168 0,-168 0,-162 6,-156 12,-156 12,-156 42,-156 42,-156 48,-156 54,-162 54,-168 54,-168 54,-180 54,-180 54,-186 48,-192 42,-192"/>
<text text-anchor="middle" x="27" y="-169.32" font-family="Helvetica,sans-Serif" font-size="14.00" fill="#e0e6ed">User</text>
</g>
<!-- Tailscale -->
<g id="node2" class="node">
<title>Tailscale</title>
<path fill="#141922" stroke="#1e2a3a" d="M305.5,-327.25C305.5,-327.25 153.75,-327.25 153.75,-327.25 147.75,-327.25 141.75,-321.25 141.75,-315.25 141.75,-315.25 141.75,-296.75 141.75,-296.75 141.75,-290.75 147.75,-284.75 153.75,-284.75 153.75,-284.75 305.5,-284.75 305.5,-284.75 311.5,-284.75 317.5,-290.75 317.5,-296.75 317.5,-296.75 317.5,-315.25 317.5,-315.25 317.5,-321.25 311.5,-327.25 305.5,-327.25"/>
<text text-anchor="middle" x="229.62" y="-309.95" font-family="Helvetica,sans-Serif" font-size="14.00" fill="#e0e6ed">Tailscale</text>
<text text-anchor="middle" x="229.62" y="-292.7" font-family="Helvetica,sans-Serif" font-size="14.00" fill="#e0e6ed">vm&#45;1.tail55d152.ts.net</text>
</g>
<!-- User&#45;&gt;Tailscale -->
<g id="edge1" class="edge">
<title>User&#45;&gt;Tailscale</title>
<path fill="none" stroke="#00d4aa" d="M54.23,-191.26C87.79,-213.34 146.34,-251.86 186.26,-278.12"/>
<polygon fill="#00d4aa" stroke="#00d4aa" points="184.19,-280.95 194.46,-283.52 188.03,-275.1 184.19,-280.95"/>
<text text-anchor="middle" x="97.88" y="-239.29" font-family="Helvetica,sans-Serif" font-size="10.00" fill="#7a8fa6">HTTPS</text>
</g>
<!-- App -->
<g id="node12" class="node">
<title>App</title>
<path fill="#141922" stroke="#1e2a3a" d="M296.12,-126.25C296.12,-126.25 163.12,-126.25 163.12,-126.25 157.12,-126.25 151.12,-120.25 151.12,-114.25 151.12,-114.25 151.12,-95.75 151.12,-95.75 151.12,-89.75 157.12,-83.75 163.12,-83.75 163.12,-83.75 296.12,-83.75 296.12,-83.75 302.12,-83.75 308.12,-89.75 308.12,-95.75 308.12,-95.75 308.12,-114.25 308.12,-114.25 308.12,-120.25 302.12,-126.25 296.12,-126.25"/>
<text text-anchor="middle" x="229.62" y="-108.95" font-family="Helvetica,sans-Serif" font-size="14.00" fill="#e0e6ed">Elixir apps</text>
<text text-anchor="middle" x="229.62" y="-91.7" font-family="Helvetica,sans-Serif" font-size="14.00" fill="#e0e6ed">(ex&#45;app&#45;1..3, chaya)</text>
</g>
<!-- User&#45;&gt;App -->
<g id="edge9" class="edge">
<title>User&#45;&gt;App</title>
<path fill="none" stroke="#00d4aa" d="M54.23,-164.98C79.74,-156.21 119.68,-142.47 154.91,-130.35"/>
<polygon fill="#00d4aa" stroke="#00d4aa" points="155.93,-133.7 164.24,-127.14 153.65,-127.08 155.93,-133.7"/>
<text text-anchor="middle" x="97.88" y="-160.58" font-family="Helvetica,sans-Serif" font-size="10.00" fill="#7a8fa6">4000&#45;4004</text>
</g>
<!-- TLS -->
<g id="node3" class="node">
<title>TLS</title>
<path fill="#141922" stroke="#1e2a3a" d="M572.75,-435.25C572.75,-435.25 404.5,-435.25 404.5,-435.25 398.5,-435.25 392.5,-429.25 392.5,-423.25 392.5,-423.25 392.5,-404.75 392.5,-404.75 392.5,-398.75 398.5,-392.75 404.5,-392.75 404.5,-392.75 572.75,-392.75 572.75,-392.75 578.75,-392.75 584.75,-398.75 584.75,-404.75 584.75,-404.75 584.75,-423.25 584.75,-423.25 584.75,-429.25 578.75,-435.25 572.75,-435.25"/>
<text text-anchor="middle" x="488.62" y="-417.95" font-family="Helvetica,sans-Serif" font-size="14.00" fill="#e0e6ed">sa&#45;plan&#45;daemon tls serve</text>
<text text-anchor="middle" x="488.62" y="-400.7" font-family="Helvetica,sans-Serif" font-size="14.00" fill="#e0e6ed">:8443 self&#45;signed</text>
</g>
<!-- Tailscale&#45;&gt;TLS -->
<g id="edge2" class="edge">
<title>Tailscale&#45;&gt;TLS</title>
<path fill="none" stroke="#00d4aa" d="M272.23,-327.62C304.54,-343.95 350.73,-366.34 392.5,-383 397.16,-384.86 401.99,-386.7 406.87,-388.49"/>
<polygon fill="#00d4aa" stroke="#00d4aa" points="405.62,-391.76 416.21,-391.83 407.98,-385.16 405.62,-391.76"/>
</g>
<!-- Web -->
<g id="node5" class="node">
<title>Web</title>
<path fill="#141922" stroke="#1e2a3a" d="M829.5,-374.25C829.5,-374.25 686,-374.25 686,-374.25 680,-374.25 674,-368.25 674,-362.25 674,-362.25 674,-343.75 674,-343.75 674,-337.75 680,-331.75 686,-331.75 686,-331.75 829.5,-331.75 829.5,-331.75 835.5,-331.75 841.5,-337.75 841.5,-343.75 841.5,-343.75 841.5,-362.25 841.5,-362.25 841.5,-368.25 835.5,-374.25 829.5,-374.25"/>
<text text-anchor="middle" x="757.75" y="-356.95" font-family="Helvetica,sans-Serif" font-size="14.00" fill="#e0e6ed">Agentic Dashboard</text>
<text text-anchor="middle" x="757.75" y="-339.7" font-family="Helvetica,sans-Serif" font-size="14.00" fill="#e0e6ed">(Rust&#45;rendered HTML)</text>
</g>
<!-- TLS&#45;&gt;Web -->
<g id="edge3" class="edge">
<title>TLS&#45;&gt;Web</title>
<path fill="none" stroke="#00d4aa" d="M584.56,-392.32C609.9,-386.53 637.27,-380.28 662.57,-374.51"/>
<polygon fill="#00d4aa" stroke="#00d4aa" points="663.21,-377.95 672.18,-372.31 661.65,-371.13 663.21,-377.95"/>
</g>
<!-- Api -->
<g id="node6" class="node">
<title>Api</title>
<path fill="#141922" stroke="#1e2a3a" d="M831.75,-435.25C831.75,-435.25 683.75,-435.25 683.75,-435.25 677.75,-435.25 671.75,-429.25 671.75,-423.25 671.75,-423.25 671.75,-404.75 671.75,-404.75 671.75,-398.75 677.75,-392.75 683.75,-392.75 683.75,-392.75 831.75,-392.75 831.75,-392.75 837.75,-392.75 843.75,-398.75 843.75,-404.75 843.75,-404.75 843.75,-423.25 843.75,-423.25 843.75,-429.25 837.75,-435.25 831.75,-435.25"/>
<text text-anchor="middle" x="757.75" y="-417.95" font-family="Helvetica,sans-Serif" font-size="14.00" fill="#e0e6ed">/api/tasks/* /api/health</text>
<text text-anchor="middle" x="757.75" y="-400.7" font-family="Helvetica,sans-Serif" font-size="14.00" fill="#e0e6ed">/api/metrics</text>
</g>
<!-- TLS&#45;&gt;Api -->
<g id="edge4" class="edge">
<title>TLS&#45;&gt;Api</title>
<path fill="none" stroke="#00d4aa" d="M584.93,-414C609.25,-414 635.41,-414 659.81,-414"/>
<polygon fill="#00d4aa" stroke="#00d4aa" points="659.74,-417.5 669.74,-414 659.74,-410.5 659.74,-417.5"/>
</g>
<!-- HTTP -->
<g id="node4" class="node">
<title>HTTP</title>
<path fill="#141922" stroke="#1e2a3a" d="M531.5,-374.25C531.5,-374.25 445.75,-374.25 445.75,-374.25 439.75,-374.25 433.75,-368.25 433.75,-362.25 433.75,-362.25 433.75,-343.75 433.75,-343.75 433.75,-337.75 439.75,-331.75 445.75,-331.75 445.75,-331.75 531.5,-331.75 531.5,-331.75 537.5,-331.75 543.5,-337.75 543.5,-343.75 543.5,-343.75 543.5,-362.25 543.5,-362.25 543.5,-368.25 537.5,-374.25 531.5,-374.25"/>
<text text-anchor="middle" x="488.62" y="-356.95" font-family="Helvetica,sans-Serif" font-size="14.00" fill="#e0e6ed">sa&#45;plan serve</text>
<text text-anchor="middle" x="488.62" y="-339.7" font-family="Helvetica,sans-Serif" font-size="14.00" fill="#e0e6ed">:4200</text>
</g>
<!-- HTTP&#45;&gt;Web -->
<g id="edge5" class="edge">
<title>HTTP&#45;&gt;Web</title>
<path fill="none" stroke="#00d4aa" d="M543.68,-353C577.68,-353 622.48,-353 662.23,-353"/>
<polygon fill="#00d4aa" stroke="#00d4aa" points="662.05,-356.5 672.05,-353 662.05,-349.5 662.05,-356.5"/>
</g>
<!-- HTTP&#45;&gt;Api -->
<g id="edge6" class="edge">
<title>HTTP&#45;&gt;Api</title>
<path fill="none" stroke="#00d4aa" d="M543.68,-365.34C577.12,-372.98 621.02,-383.01 660.28,-391.97"/>
<polygon fill="#00d4aa" stroke="#00d4aa" points="659.48,-395.38 670.01,-394.19 661.04,-388.55 659.48,-395.38"/>
</g>
<!-- PlanningDB -->
<g id="node7" class="node">
<title>PlanningDB</title>
<path fill="#141922" stroke="#1e2a3a" d="M968,-401C968,-401 892.75,-401 892.75,-401 886.75,-401 880.75,-395 880.75,-389 880.75,-389 880.75,-377 880.75,-377 880.75,-371 886.75,-365 892.75,-365 892.75,-365 968,-365 968,-365 974,-365 980,-371 980,-377 980,-377 980,-389 980,-389 980,-395 974,-401 968,-401"/>
<text text-anchor="middle" x="930.38" y="-378.32" font-family="Helvetica,sans-Serif" font-size="14.00" fill="#e0e6ed">planning.db</text>
</g>
<!-- Web&#45;&gt;PlanningDB -->
<g id="edge8" class="edge">
<title>Web&#45;&gt;PlanningDB</title>
<path fill="none" stroke="#00d4aa" d="M841.56,-367.56C850.88,-369.2 860.23,-370.84 869.18,-372.42"/>
<polygon fill="#00d4aa" stroke="#00d4aa" points="868.32,-375.82 878.77,-374.1 869.53,-368.92 868.32,-375.82"/>
</g>
<!-- Api&#45;&gt;PlanningDB -->
<g id="edge7" class="edge">
<title>Api&#45;&gt;PlanningDB</title>
<path fill="none" stroke="#00d4aa" d="M844.06,-398.5C852.56,-396.96 861.05,-395.41 869.21,-393.93"/>
<polygon fill="#00d4aa" stroke="#00d4aa" points="869.78,-397.39 878.99,-392.15 868.53,-390.5 869.78,-397.39"/>
</g>
<!-- Cortex -->
<g id="node8" class="node">
<title>Cortex</title>
<path fill="#141922" stroke="#1e2a3a" d="M299.88,-228.25C299.88,-228.25 159.38,-228.25 159.38,-228.25 153.38,-228.25 147.38,-222.25 147.38,-216.25 147.38,-216.25 147.38,-197.75 147.38,-197.75 147.38,-191.75 153.38,-185.75 159.38,-185.75 159.38,-185.75 299.88,-185.75 299.88,-185.75 305.88,-185.75 311.88,-191.75 311.88,-197.75 311.88,-197.75 311.88,-216.25 311.88,-216.25 311.88,-222.25 305.88,-228.25 299.88,-228.25"/>
<text text-anchor="middle" x="229.62" y="-210.95" font-family="Helvetica,sans-Serif" font-size="14.00" fill="#e0e6ed">Neuromorphic Cortex</text>
<text text-anchor="middle" x="229.62" y="-193.7" font-family="Helvetica,sans-Serif" font-size="14.00" fill="#e0e6ed">sa&#45;plan daemon</text>
</g>
<!-- Zenoh -->
<g id="node9" class="node">
<title>Zenoh</title>
<path fill="#141922" stroke="#1e2a3a" d="M557,-154.25C557,-154.25 420.25,-154.25 420.25,-154.25 414.25,-154.25 408.25,-148.25 408.25,-142.25 408.25,-142.25 408.25,-123.75 408.25,-123.75 408.25,-117.75 414.25,-111.75 420.25,-111.75 420.25,-111.75 557,-111.75 557,-111.75 563,-111.75 569,-117.75 569,-123.75 569,-123.75 569,-142.25 569,-142.25 569,-148.25 563,-154.25 557,-154.25"/>
<text text-anchor="middle" x="488.62" y="-136.95" font-family="Helvetica,sans-Serif" font-size="14.00" fill="#e0e6ed">Zenoh mesh</text>
<text text-anchor="middle" x="488.62" y="-119.7" font-family="Helvetica,sans-Serif" font-size="14.00" fill="#e0e6ed">4 routers, 6 sessions</text>
</g>
<!-- Cortex&#45;&gt;Zenoh -->
<g id="edge12" class="edge">
<title>Cortex&#45;&gt;Zenoh</title>
<path fill="none" stroke="#00d4aa" d="M293.34,-185.26C307.17,-180.7 321.78,-176.04 335.5,-172 355.25,-166.18 376.58,-160.4 396.85,-155.14"/>
<polygon fill="#00d4aa" stroke="#00d4aa" points="397.71,-158.54 406.52,-152.66 395.96,-151.76 397.71,-158.54"/>
</g>
<!-- Gemini -->
<g id="node10" class="node">
<title>Gemini</title>
<path fill="#141922" stroke="#1e2a3a" d="M534.88,-252.25C534.88,-252.25 442.38,-252.25 442.38,-252.25 436.38,-252.25 430.38,-246.25 430.38,-240.25 430.38,-240.25 430.38,-221.75 430.38,-221.75 430.38,-215.75 436.38,-209.75 442.38,-209.75 442.38,-209.75 534.88,-209.75 534.88,-209.75 540.88,-209.75 546.88,-215.75 546.88,-221.75 546.88,-221.75 546.88,-240.25 546.88,-240.25 546.88,-246.25 540.88,-252.25 534.88,-252.25"/>
<text text-anchor="middle" x="488.62" y="-234.95" font-family="Helvetica,sans-Serif" font-size="14.00" fill="#e0e6ed">OpenRouter</text>
<text text-anchor="middle" x="488.62" y="-217.7" font-family="Helvetica,sans-Serif" font-size="14.00" fill="#e0e6ed">gemini&#45;3&#45;flash</text>
</g>
<!-- Cortex&#45;&gt;Gemini -->
<g id="edge13" class="edge">
<title>Cortex&#45;&gt;Gemini</title>
<path fill="none" stroke="#00d4aa" d="M312.29,-214.63C346.61,-217.83 386.09,-221.52 418.88,-224.58"/>
<polygon fill="#00d4aa" stroke="#00d4aa" points="418.4,-228.05 428.68,-225.5 419.05,-221.08 418.4,-228.05"/>
<text text-anchor="middle" x="355" y="-222.97" font-family="Helvetica,sans-Serif" font-size="10.00" fill="#7a8fa6">hedged</text>
</g>
<!-- Ollama -->
<g id="node11" class="node">
<title>Ollama</title>
<path fill="#141922" stroke="#1e2a3a" d="M534.88,-313.25C534.88,-313.25 442.38,-313.25 442.38,-313.25 436.38,-313.25 430.38,-307.25 430.38,-301.25 430.38,-301.25 430.38,-282.75 430.38,-282.75 430.38,-276.75 436.38,-270.75 442.38,-270.75 442.38,-270.75 534.88,-270.75 534.88,-270.75 540.88,-270.75 546.88,-276.75 546.88,-282.75 546.88,-282.75 546.88,-301.25 546.88,-301.25 546.88,-307.25 540.88,-313.25 534.88,-313.25"/>
<text text-anchor="middle" x="488.62" y="-295.95" font-family="Helvetica,sans-Serif" font-size="14.00" fill="#e0e6ed">Ollama cluster</text>
<text text-anchor="middle" x="488.62" y="-278.7" font-family="Helvetica,sans-Serif" font-size="14.00" fill="#e0e6ed">(3 runners)</text>
</g>
<!-- Cortex&#45;&gt;Ollama -->
<g id="edge14" class="edge">
<title>Cortex&#45;&gt;Ollama</title>
<path fill="none" stroke="#00d4aa" d="M295.18,-228.65C324.82,-238.56 360.43,-250.42 392.5,-261 401.12,-263.84 410.18,-266.82 419.15,-269.75"/>
<polygon fill="#00d4aa" stroke="#00d4aa" points="417.98,-273.05 428.57,-272.82 420.15,-266.39 417.98,-273.05"/>
<text text-anchor="middle" x="355" y="-256.97" font-family="Helvetica,sans-Serif" font-size="10.00" fill="#7a8fa6">fallback</text>
</g>
<!-- Obs -->
<g id="node14" class="node">
<title>Obs</title>
<path fill="#141922" stroke="#1e2a3a" d="M821.62,-154.25C821.62,-154.25 693.88,-154.25 693.88,-154.25 687.88,-154.25 681.88,-148.25 681.88,-142.25 681.88,-142.25 681.88,-123.75 681.88,-123.75 681.88,-117.75 687.88,-111.75 693.88,-111.75 693.88,-111.75 821.62,-111.75 821.62,-111.75 827.62,-111.75 833.62,-117.75 833.62,-123.75 833.62,-123.75 833.62,-142.25 833.62,-142.25 833.62,-148.25 827.62,-154.25 821.62,-154.25"/>
<text text-anchor="middle" x="757.75" y="-136.95" font-family="Helvetica,sans-Serif" font-size="14.00" fill="#e0e6ed">Obs stack</text>
<text text-anchor="middle" x="757.75" y="-119.7" font-family="Helvetica,sans-Serif" font-size="14.00" fill="#e0e6ed">Grafana/Prom/OTEL</text>
</g>
<!-- Cortex&#45;&gt;Obs -->
<g id="edge16" class="edge">
<title>Cortex&#45;&gt;Obs</title>
<path fill="none" stroke="#00d4aa" d="M312.36,-198C384.23,-189.81 491.61,-176.9 584.75,-163 612.68,-158.83 643.06,-153.72 670.41,-148.91"/>
<polygon fill="#00d4aa" stroke="#00d4aa" points="670.8,-152.4 680.04,-147.21 669.58,-145.51 670.8,-152.4"/>
</g>
<!-- Zenoh&#45;&gt;App -->
<g id="edge18" class="edge">
<title>Zenoh&#45;&gt;App</title>
<path fill="none" stroke="#00d4aa" d="M419.12,-111.26C404.54,-107.52 389.13,-104.2 374.5,-102.25 356.95,-99.91 338.08,-99.07 319.98,-99.09"/>
<polygon fill="#00d4aa" stroke="#00d4aa" points="320,-95.59 310.04,-99.2 320.07,-102.59 320,-95.59"/>
<text text-anchor="middle" x="355" y="-105.5" font-family="Helvetica,sans-Serif" font-size="10.00" fill="#7a8fa6">sub/pub</text>
</g>
<!-- Zenoh&#45;&gt;Obs -->
<g id="edge17" class="edge">
<title>Zenoh&#45;&gt;Obs</title>
<path fill="none" stroke="#00d4aa" d="M569.41,-133C601.18,-133 637.82,-133 670.22,-133"/>
<polygon fill="#00d4aa" stroke="#00d4aa" points="669.98,-136.5 679.98,-133 669.98,-129.5 669.98,-136.5"/>
<text text-anchor="middle" x="628.25" y="-136.25" font-family="Helvetica,sans-Serif" font-size="10.00" fill="#7a8fa6">span relay</text>
</g>
<!-- App&#45;&gt;Zenoh -->
<g id="edge11" class="edge">
<title>App&#45;&gt;Zenoh</title>
<path fill="none" stroke="#00d4aa" d="M308.47,-115.75C317.58,-116.9 326.74,-118.01 335.5,-119 355.2,-121.22 376.36,-123.34 396.46,-125.22"/>
<polygon fill="#00d4aa" stroke="#00d4aa" points="396.03,-128.7 406.31,-126.14 396.68,-121.73 396.03,-128.7"/>
</g>
<!-- DB -->
<g id="node13" class="node">
<title>DB</title>
<path fill="#141922" stroke="#1e2a3a" d="M541.62,-36C541.62,-36 435.62,-36 435.62,-36 429.62,-36 423.62,-30 423.62,-24 423.62,-24 423.62,-12 423.62,-12 423.62,-6 429.62,0 435.62,0 435.62,0 541.62,0 541.62,0 547.62,0 553.62,-6 553.62,-12 553.62,-12 553.62,-24 553.62,-24 553.62,-30 547.62,-36 541.62,-36"/>
<text text-anchor="middle" x="488.62" y="-13.32" font-family="Helvetica,sans-Serif" font-size="14.00" fill="#e0e6ed">Timescale :5433</text>
</g>
<!-- App&#45;&gt;DB -->
<g id="edge10" class="edge">
<title>App&#45;&gt;DB</title>
<path fill="none" stroke="#00d4aa" d="M274.62,-83.35C293.14,-74.74 315.09,-65.2 335.5,-58 360.07,-49.33 387.45,-41.57 412.13,-35.24"/>
<polygon fill="#00d4aa" stroke="#00d4aa" points="412.96,-38.64 421.8,-32.81 411.25,-31.86 412.96,-38.64"/>
</g>
<!-- App&#45;&gt;Obs -->
<g id="edge15" class="edge">
<title>App&#45;&gt;Obs</title>
<path fill="none" stroke="#00d4aa" d="M308.5,-97.47C317.6,-96.62 326.76,-95.78 335.5,-95 445.86,-85.14 474.77,-76.79 584.75,-90.25 614.54,-93.9 646.61,-100.97 674.88,-108.33"/>
<polygon fill="#00d4aa" stroke="#00d4aa" points="673.9,-111.69 684.47,-110.88 675.7,-104.93 673.9,-111.69"/>
<text text-anchor="middle" x="488.62" y="-93.5" font-family="Helvetica,sans-Serif" font-size="10.00" fill="#7a8fa6">OTEL</text>
</g>
</g>
</svg>
