<?xml version="1.0" encoding="UTF-8" standalone="no"?>
<!DOCTYPE svg PUBLIC "-//W3C//DTD SVG 1.1//EN"
 "http://www.w3.org/Graphics/SVG/1.1/DTD/svg11.dtd">
<!-- Generated by graphviz version 12.2.1 (0)
 -->
<!-- Title: Fractal Pages: 1 -->
<svg width="1920pt" height="114pt"
 viewBox="0.00 0.00 1919.50 113.75" xmlns="http://www.w3.org/2000/svg" xmlns:xlink="http://www.w3.org/1999/xlink">
<g id="graph0" class="graph" transform="scale(1 1) rotate(0) translate(4 109.75)">
<title>Fractal</title>
<polygon fill="#0a0e17" stroke="none" points="-4,4 -4,-109.75 1915.5,-109.75 1915.5,4 -4,4"/>
<!-- L0 -->
<g id="node1" class="node">
<title>L0</title>
<path fill="#2a0e0e" stroke="#ff4757" d="M175,-51.12C175,-51.12 12,-51.12 12,-51.12 6,-51.12 0,-45.12 0,-39.12 0,-39.12 0,-20.62 0,-20.62 0,-14.62 6,-8.62 12,-8.62 12,-8.62 175,-8.62 175,-8.62 181,-8.62 187,-14.62 187,-20.62 187,-20.62 187,-39.12 187,-39.12 187,-45.12 181,-51.12 175,-51.12"/>
<text text-anchor="middle" x="93.5" y="-33.83" font-family="Helvetica,sans-Serif" font-size="14.00" fill="#e0e6ed">L0 Constitutional</text>
<text text-anchor="middle" x="93.5" y="-16.57" font-family="Helvetica,sans-Serif" font-size="14.00" fill="#e0e6ed">SafetyKernel + Guardian</text>
</g>
<!-- L1 -->
<g id="node2" class="node">
<title>L1</title>
<path fill="#2a1e0e" stroke="#f5a623" d="M422.25,-92.12C422.25,-92.12 236,-92.12 236,-92.12 230,-92.12 224,-86.12 224,-80.12 224,-80.12 224,-61.62 224,-61.62 224,-55.62 230,-49.62 236,-49.62 236,-49.62 422.25,-49.62 422.25,-49.62 428.25,-49.62 434.25,-55.62 434.25,-61.62 434.25,-61.62 434.25,-80.12 434.25,-80.12 434.25,-86.12 428.25,-92.12 422.25,-92.12"/>
<text text-anchor="middle" x="329.12" y="-74.83" font-family="Helvetica,sans-Serif" font-size="14.00" fill="#e0e6ed">L1 Atomic Debug</text>
<text text-anchor="middle" x="329.12" y="-57.58" font-family="Helvetica,sans-Serif" font-size="14.00" fill="#e0e6ed">timestamp_daemon + OTEL</text>
</g>
<!-- L0&#45;&gt;L1 -->
<g id="edge1" class="edge">
<title>L0&#45;&gt;L1</title>
<path fill="none" stroke="#00d4aa" stroke-width="2" d="M187.17,-46.14C195.03,-47.52 203.04,-48.92 211.05,-50.33"/>
<polygon fill="#00d4aa" stroke="#00d4aa" stroke-width="2" points="210.19,-53.73 220.64,-52.01 211.4,-46.84 210.19,-53.73"/>
</g>
<!-- L2 -->
<g id="node3" class="node">
<title>L2</title>
<path fill="#0e2a2a" stroke="#00bfff" d="M684.5,-105.75C684.5,-105.75 483.25,-105.75 483.25,-105.75 477.25,-105.75 471.25,-99.75 471.25,-93.75 471.25,-93.75 471.25,-58 471.25,-58 471.25,-52 477.25,-46 483.25,-46 483.25,-46 684.5,-46 684.5,-46 690.5,-46 696.5,-52 696.5,-58 696.5,-58 696.5,-93.75 696.5,-93.75 696.5,-99.75 690.5,-105.75 684.5,-105.75"/>
<text text-anchor="middle" x="583.88" y="-88.45" font-family="Helvetica,sans-Serif" font-size="14.00" fill="#e0e6ed">L2 Component</text>
<text text-anchor="middle" x="583.88" y="-71.2" font-family="Helvetica,sans-Serif" font-size="14.00" fill="#e0e6ed">57 Lustre + 34 Wisp + 50 TUI</text>
<text text-anchor="middle" x="583.88" y="-53.95" font-family="Helvetica,sans-Serif" font-size="14.00" fill="#e0e6ed">+ 4 Elixir app replicas</text>
</g>
<!-- L1&#45;&gt;L2 -->
<g id="edge2" class="edge">
<title>L1&#45;&gt;L2</title>
<path fill="none" stroke="#00d4aa" stroke-width="2" d="M434.39,-72.94C442.23,-73.09 450.2,-73.25 458.16,-73.41"/>
<polygon fill="#00d4aa" stroke="#00d4aa" stroke-width="2" points="457.98,-76.9 468.04,-73.6 458.11,-69.91 457.98,-76.9"/>
</g>
<!-- L3 -->
<g id="node4" class="node">
<title>L3</title>
<path fill="#1e0e2a" stroke="#9b6cff" d="M904,-105.75C904,-105.75 745.5,-105.75 745.5,-105.75 739.5,-105.75 733.5,-99.75 733.5,-93.75 733.5,-93.75 733.5,-58 733.5,-58 733.5,-52 739.5,-46 745.5,-46 745.5,-46 904,-46 904,-46 910,-46 916,-52 916,-58 916,-58 916,-93.75 916,-93.75 916,-99.75 910,-105.75 904,-105.75"/>
<text text-anchor="middle" x="824.75" y="-88.45" font-family="Helvetica,sans-Serif" font-size="14.00" fill="#e0e6ed">L3 Transaction</text>
<text text-anchor="middle" x="824.75" y="-71.2" font-family="Helvetica,sans-Serif" font-size="14.00" fill="#e0e6ed">smriti.db + planning.db</text>
<text text-anchor="middle" x="824.75" y="-53.95" font-family="Helvetica,sans-Serif" font-size="14.00" fill="#e0e6ed">+ Timescale</text>
</g>
<!-- L2&#45;&gt;L3 -->
<g id="edge3" class="edge">
<title>L2&#45;&gt;L3</title>
<path fill="none" stroke="#00d4aa" stroke-width="2" d="M696.97,-75.88C704.73,-75.88 712.54,-75.88 720.26,-75.88"/>
<polygon fill="#00d4aa" stroke="#00d4aa" stroke-width="2" points="720.11,-79.38 730.11,-75.88 720.11,-72.38 720.11,-79.38"/>
</g>
<!-- L4 -->
<g id="node5" class="node">
<title>L4</title>
<path fill="#0e2a1e" stroke="#00d4aa" d="M1246.25,-105.75C1246.25,-105.75 1113.25,-105.75 1113.25,-105.75 1107.25,-105.75 1101.25,-99.75 1101.25,-93.75 1101.25,-93.75 1101.25,-58 1101.25,-58 1101.25,-52 1107.25,-46 1113.25,-46 1113.25,-46 1246.25,-46 1246.25,-46 1252.25,-46 1258.25,-52 1258.25,-58 1258.25,-58 1258.25,-93.75 1258.25,-93.75 1258.25,-99.75 1252.25,-105.75 1246.25,-105.75"/>
<text text-anchor="middle" x="1179.75" y="-88.45" font-family="Helvetica,sans-Serif" font-size="14.00" fill="#e0e6ed">L4 System</text>
<text text-anchor="middle" x="1179.75" y="-71.2" font-family="Helvetica,sans-Serif" font-size="14.00" fill="#e0e6ed">ignition + scheduler</text>
<text text-anchor="middle" x="1179.75" y="-53.95" font-family="Helvetica,sans-Serif" font-size="14.00" fill="#e0e6ed">+ sa&#45;plan serve/tls</text>
</g>
<!-- L3&#45;&gt;L4 -->
<g id="edge4" class="edge">
<title>L3&#45;&gt;L4</title>
<path fill="none" stroke="#00d4aa" stroke-width="2" d="M916.2,-75.88C968.94,-75.88 1035.26,-75.88 1088.05,-75.88"/>
<polygon fill="#00d4aa" stroke="#00d4aa" stroke-width="2" points="1087.79,-79.38 1097.79,-75.88 1087.79,-72.38 1087.79,-79.38"/>
</g>
<!-- L5 -->
<g id="node6" class="node">
<title>L5</title>
<path fill="#2a1e0e" stroke="#f5a623" d="M1450,-105.75C1450,-105.75 1307.25,-105.75 1307.25,-105.75 1301.25,-105.75 1295.25,-99.75 1295.25,-93.75 1295.25,-93.75 1295.25,-58 1295.25,-58 1295.25,-52 1301.25,-46 1307.25,-46 1307.25,-46 1450,-46 1450,-46 1456,-46 1462,-52 1462,-58 1462,-58 1462,-93.75 1462,-93.75 1462,-99.75 1456,-105.75 1450,-105.75"/>
<text text-anchor="middle" x="1378.62" y="-88.45" font-family="Helvetica,sans-Serif" font-size="14.00" fill="#e0e6ed">L5 Cognition</text>
<text text-anchor="middle" x="1378.62" y="-71.2" font-family="Helvetica,sans-Serif" font-size="14.00" fill="#e0e6ed">Cortex Zenoh listener</text>
<text text-anchor="middle" x="1378.62" y="-53.95" font-family="Helvetica,sans-Serif" font-size="14.00" fill="#e0e6ed">+ Ollama + Gemini</text>
</g>
<!-- L4&#45;&gt;L5 -->
<g id="edge5" class="edge">
<title>L4&#45;&gt;L5</title>
<path fill="none" stroke="#00d4aa" stroke-width="2" d="M1258.56,-75.88C1266.3,-75.88 1274.21,-75.88 1282.1,-75.88"/>
<polygon fill="#00d4aa" stroke="#00d4aa" stroke-width="2" points="1281.85,-79.38 1291.85,-75.88 1281.85,-72.38 1281.85,-79.38"/>
</g>
<!-- L6 -->
<g id="node7" class="node">
<title>L6</title>
<path fill="#0e1e2a" stroke="#3dd68c" d="M1677.75,-105.75C1677.75,-105.75 1511,-105.75 1511,-105.75 1505,-105.75 1499,-99.75 1499,-93.75 1499,-93.75 1499,-58 1499,-58 1499,-52 1505,-46 1511,-46 1511,-46 1677.75,-46 1677.75,-46 1683.75,-46 1689.75,-52 1689.75,-58 1689.75,-58 1689.75,-93.75 1689.75,-93.75 1689.75,-99.75 1683.75,-105.75 1677.75,-105.75"/>
<text text-anchor="middle" x="1594.38" y="-88.45" font-family="Helvetica,sans-Serif" font-size="14.00" fill="#e0e6ed">L6 Ecosystem</text>
<text text-anchor="middle" x="1594.38" y="-71.2" font-family="Helvetica,sans-Serif" font-size="14.00" fill="#e0e6ed">Zenoh 4x + cepaf&#45;bridge</text>
<text text-anchor="middle" x="1594.38" y="-53.95" font-family="Helvetica,sans-Serif" font-size="14.00" fill="#e0e6ed">+ cortex (F#)</text>
</g>
<!-- L5&#45;&gt;L6 -->
<g id="edge6" class="edge">
<title>L5&#45;&gt;L6</title>
<path fill="none" stroke="#00d4aa" stroke-width="2" d="M1462.27,-75.88C1470.04,-75.88 1477.99,-75.88 1485.94,-75.88"/>
<polygon fill="#00d4aa" stroke="#00d4aa" stroke-width="2" points="1485.83,-79.38 1495.83,-75.88 1485.83,-72.38 1485.83,-79.38"/>
</g>
<!-- L7 -->
<g id="node8" class="node">
<title>L7</title>
<path fill="#2a0e2a" stroke="#ff4788" d="M1899.5,-59.75C1899.5,-59.75 1738.75,-59.75 1738.75,-59.75 1732.75,-59.75 1726.75,-53.75 1726.75,-47.75 1726.75,-47.75 1726.75,-12 1726.75,-12 1726.75,-6 1732.75,0 1738.75,0 1738.75,0 1899.5,0 1899.5,0 1905.5,0 1911.5,-6 1911.5,-12 1911.5,-12 1911.5,-47.75 1911.5,-47.75 1911.5,-53.75 1905.5,-59.75 1899.5,-59.75"/>
<text text-anchor="middle" x="1819.12" y="-42.45" font-family="Helvetica,sans-Serif" font-size="14.00" fill="#e0e6ed">L7 Federation</text>
<text text-anchor="middle" x="1819.12" y="-25.2" font-family="Helvetica,sans-Serif" font-size="14.00" fill="#e0e6ed">timestamp_daemon NTP</text>
<text text-anchor="middle" x="1819.12" y="-7.95" font-family="Helvetica,sans-Serif" font-size="14.00" fill="#e0e6ed">+ Tailscale + MoZ</text>
</g>
<!-- L6&#45;&gt;L7 -->
<g id="edge7" class="edge">
<title>L6&#45;&gt;L7</title>
<path fill="none" stroke="#00d4aa" stroke-width="2" d="M1690.16,-56.3C1697.92,-54.7 1705.78,-53.07 1713.6,-51.46"/>
<polygon fill="#00d4aa" stroke="#00d4aa" stroke-width="2" points="1714.21,-54.91 1723.29,-49.46 1712.79,-48.05 1714.21,-54.91"/>
</g>
<!-- L7&#45;&gt;L0 -->
<g id="edge8" class="edge">
<title>L7&#45;&gt;L0</title>
<path fill="none" stroke="#ff4757" stroke-dasharray="5,2" d="M1726.34,-22.7C1686.16,-20.14 1638.46,-17.88 1595.38,-17.88 328.12,-17.88 328.12,-17.88 328.12,-17.88 285.8,-17.88 239.22,-19.86 198.87,-22.22"/>
<polygon fill="#ff4757" stroke="#ff4757" points="198.67,-18.73 188.89,-22.82 199.09,-25.71 198.67,-18.73"/>
<text text-anchor="middle" x="1008.62" y="-21.82" font-family="Times,serif" font-size="14.00">invariants propagate</text>
</g>
</g>
</svg>
