<?xml version="1.0" encoding="UTF-8" standalone="no"?>
<!DOCTYPE svg PUBLIC "-//W3C//DTD SVG 1.1//EN"
 "http://www.w3.org/Graphics/SVG/1.1/DTD/svg11.dtd">
<!-- Generated by graphviz version 12.2.1 (0)
 -->
<!-- Title: MSC Pages: 1 -->
<svg width="1312pt" height="298pt"
 viewBox="0.00 0.00 1312.31 298.25" xmlns="http://www.w3.org/2000/svg" xmlns:xlink="http://www.w3.org/1999/xlink">
<g id="graph0" class="graph" transform="scale(1 1) rotate(0) translate(4 294.25)">
<title>MSC</title>
<polygon fill="#0a0e17" stroke="none" points="-4,4 -4,-294.25 1308.31,-294.25 1308.31,4 -4,4"/>
<!-- User -->
<g id="node1" class="node">
<title>User</title>
<path fill="#1a2a3a" stroke="#1e2a3a" d="M864.61,-290.25C864.61,-290.25 834.61,-290.25 834.61,-290.25 828.61,-290.25 822.61,-284.25 822.61,-278.25 822.61,-278.25 822.61,-266.25 822.61,-266.25 822.61,-260.25 828.61,-254.25 834.61,-254.25 834.61,-254.25 864.61,-254.25 864.61,-254.25 870.61,-254.25 876.61,-260.25 876.61,-266.25 876.61,-266.25 876.61,-278.25 876.61,-278.25 876.61,-284.25 870.61,-290.25 864.61,-290.25"/>
<text text-anchor="middle" x="849.61" y="-267.57" font-family="Times,serif" font-size="14.00" fill="#e0e6ed">User</text>
</g>
<!-- Igni -->
<g id="node2" class="node">
<title>Igni</title>
<path fill="#141922" stroke="#1e2a3a" d="M466.98,-205.5C466.98,-205.5 420.23,-205.5 420.23,-205.5 414.23,-205.5 408.23,-199.5 408.23,-193.5 408.23,-193.5 408.23,-181.5 408.23,-181.5 408.23,-175.5 414.23,-169.5 420.23,-169.5 420.23,-169.5 466.98,-169.5 466.98,-169.5 472.98,-169.5 478.98,-175.5 478.98,-181.5 478.98,-181.5 478.98,-193.5 478.98,-193.5 478.98,-199.5 472.98,-205.5 466.98,-205.5"/>
<text text-anchor="middle" x="443.61" y="-182.82" font-family="Times,serif" font-size="14.00" fill="#e0e6ed">ignition</text>
</g>
<!-- User&#45;&gt;Igni -->
<g id="edge1" class="edge">
<title>User&#45;&gt;Igni</title>
<path fill="none" stroke="#00d4aa" d="M822.13,-269.87C753.73,-266.18 577.33,-255.08 521.86,-236.25 505.48,-230.69 488.92,-221.26 475.27,-212.23"/>
<polygon fill="#00d4aa" stroke="#00d4aa" points="477.36,-209.42 467.14,-206.65 473.4,-215.19 477.36,-209.42"/>
<text text-anchor="middle" x="550.73" y="-226.75" font-family="Helvetica,sans-Serif" font-size="10.00" fill="#7a8fa6">1. sa&#45;up full</text>
</g>
<!-- Cortex -->
<g id="node7" class="node">
<title>Cortex</title>
<path fill="#141922" stroke="#1e2a3a" d="M761.61,-205.5C761.61,-205.5 721.61,-205.5 721.61,-205.5 715.61,-205.5 709.61,-199.5 709.61,-193.5 709.61,-193.5 709.61,-181.5 709.61,-181.5 709.61,-175.5 715.61,-169.5 721.61,-169.5 721.61,-169.5 761.61,-169.5 761.61,-169.5 767.61,-169.5 773.61,-175.5 773.61,-181.5 773.61,-181.5 773.61,-193.5 773.61,-193.5 773.61,-199.5 767.61,-205.5 761.61,-205.5"/>
<text text-anchor="middle" x="741.61" y="-182.82" font-family="Times,serif" font-size="14.00" fill="#e0e6ed">Cortex</text>
</g>
<!-- User&#45;&gt;Cortex -->
<g id="edge13" class="edge">
<title>User&#45;&gt;Cortex</title>
<path fill="none" stroke="#00d4aa" d="M822.37,-268.2C786.44,-263.56 726.15,-253.38 712.86,-236.25 707.68,-229.59 709.37,-221.92 713.84,-214.71"/>
<polygon fill="#00d4aa" stroke="#00d4aa" points="716.37,-217.16 719.76,-207.13 710.85,-212.86 716.37,-217.16"/>
<text text-anchor="middle" x="761.23" y="-226.75" font-family="Helvetica,sans-Serif" font-size="10.00" fill="#7a8fa6">13. sa&#45;plan daemon</text>
</g>
<!-- Tsd -->
<g id="node9" class="node">
<title>Tsd</title>
<path fill="#141922" stroke="#1e2a3a" d="M961.36,-205.5C961.36,-205.5 829.86,-205.5 829.86,-205.5 823.86,-205.5 817.86,-199.5 817.86,-193.5 817.86,-193.5 817.86,-181.5 817.86,-181.5 817.86,-175.5 823.86,-169.5 829.86,-169.5 829.86,-169.5 961.36,-169.5 961.36,-169.5 967.36,-169.5 973.36,-175.5 973.36,-181.5 973.36,-181.5 973.36,-193.5 973.36,-193.5 973.36,-199.5 967.36,-205.5 961.36,-205.5"/>
<text text-anchor="middle" x="895.61" y="-182.82" font-family="Times,serif" font-size="14.00" fill="#e0e6ed">timestamp_daemon</text>
</g>
<!-- User&#45;&gt;Tsd -->
<g id="edge11" class="edge">
<title>User&#45;&gt;Tsd</title>
<path fill="none" stroke="#00d4aa" d="M823.95,-253.96C814,-245.06 806.47,-233.92 813.36,-223.5 816.05,-219.42 819.33,-215.82 823.01,-212.63"/>
<polygon fill="#00d4aa" stroke="#00d4aa" points="824.96,-215.54 830.99,-206.83 820.85,-209.88 824.96,-215.54"/>
<text text-anchor="middle" x="847.48" y="-226.75" font-family="Helvetica,sans-Serif" font-size="10.00" fill="#7a8fa6">11. launch tsd</text>
</g>
<!-- SaPlan -->
<g id="node10" class="node">
<title>SaPlan</title>
<path fill="#141922" stroke="#1e2a3a" d="M1122.86,-205.5C1122.86,-205.5 1036.36,-205.5 1036.36,-205.5 1030.36,-205.5 1024.36,-199.5 1024.36,-193.5 1024.36,-193.5 1024.36,-181.5 1024.36,-181.5 1024.36,-175.5 1030.36,-169.5 1036.36,-169.5 1036.36,-169.5 1122.86,-169.5 1122.86,-169.5 1128.86,-169.5 1134.86,-175.5 1134.86,-181.5 1134.86,-181.5 1134.86,-193.5 1134.86,-193.5 1134.86,-199.5 1128.86,-205.5 1122.86,-205.5"/>
<text text-anchor="middle" x="1079.61" y="-182.82" font-family="Times,serif" font-size="14.00" fill="#e0e6ed">sa&#45;plan serve</text>
</g>
<!-- User&#45;&gt;SaPlan -->
<g id="edge10" class="edge">
<title>User&#45;&gt;SaPlan</title>
<path fill="none" stroke="#00d4aa" d="M863.64,-253.84C873.65,-241.85 886.56,-227.41 893.61,-223.5 898.99,-220.51 961.92,-209.01 1013.11,-200"/>
<polygon fill="#00d4aa" stroke="#00d4aa" points="1013.43,-203.5 1022.67,-198.32 1012.22,-196.6 1013.43,-203.5"/>
<text text-anchor="middle" x="928.11" y="-226.75" font-family="Helvetica,sans-Serif" font-size="10.00" fill="#7a8fa6">10. ps confirm</text>
</g>
<!-- User&#45;&gt;SaPlan -->
<g id="edge17" class="edge">
<title>User&#45;&gt;SaPlan</title>
<path fill="none" stroke="#00d4aa" d="M877.04,-265.71C900.07,-260.34 933.32,-250.83 959.61,-236.25 967.26,-232.01 966.98,-227.8 974.61,-223.5 986.63,-216.73 1000.16,-211 1013.42,-206.26"/>
<polygon fill="#00d4aa" stroke="#00d4aa" points="1014.19,-209.7 1022.53,-203.17 1011.93,-203.07 1014.19,-209.7"/>
<text text-anchor="middle" x="1039.11" y="-226.75" font-family="Helvetica,sans-Serif" font-size="10.00" fill="#7a8fa6">17. add 15 P5&#45;CHILD tasks</text>
</g>
<!-- User&#45;&gt;SaPlan -->
<g id="edge19" class="edge">
<title>User&#45;&gt;SaPlan</title>
<path fill="none" stroke="#00d4aa" d="M876.68,-271.73C935.45,-272.12 1071.79,-269.36 1100.61,-236.25 1105.84,-230.24 1104.99,-222.72 1101.63,-215.43"/>
<polygon fill="#00d4aa" stroke="#00d4aa" points="1104.76,-213.86 1096.6,-207.11 1098.77,-217.48 1104.76,-213.86"/>
<text text-anchor="middle" x="1150.84" y="-226.75" font-family="Helvetica,sans-Serif" font-size="10.00" fill="#7a8fa6">19. GET /task&#45;id/…/</text>
</g>
<!-- Igni&#45;&gt;User -->
<g id="edge9" class="edge">
<title>Igni&#45;&gt;User</title>
<path fill="none" stroke="#00d4aa" d="M479.42,-197C506.33,-203.61 544.01,-213.34 576.61,-223.5 592.51,-228.46 595.7,-232.18 611.86,-236.25 680.86,-253.62 763.44,-263.38 810.88,-267.96"/>
<polygon fill="#00d4aa" stroke="#00d4aa" points="810.37,-271.43 820.65,-268.87 811.02,-264.46 810.37,-271.43"/>
<text text-anchor="middle" x="660.23" y="-226.75" font-family="Helvetica,sans-Serif" font-size="10.00" fill="#7a8fa6">9. 13/18 verify PASS</text>
</g>
<!-- Igni&#45;&gt;Igni -->
<g id="edge2" class="edge">
<title>Igni&#45;&gt;Igni</title>
<path fill="none" stroke="#00d4aa" d="M479.31,-194.23C481.08,-193.68 482.58,-192.94 483.15,-191.45"/>
<polygon fill="#00d4aa" stroke="#00d4aa" points="486.5,-190.42 479.82,-182.19 479.91,-192.79 486.5,-190.42"/>
<text text-anchor="middle" x="541.86" y="-184.38" font-family="Helvetica,sans-Serif" font-size="10.00" fill="#7a8fa6">2. preflight (21 checks)</text>
</g>
<!-- Podman -->
<g id="node3" class="node">
<title>Podman</title>
<path fill="#141922" stroke="#1e2a3a" d="M358.11,-120.75C358.11,-120.75 309.11,-120.75 309.11,-120.75 303.11,-120.75 297.11,-114.75 297.11,-108.75 297.11,-108.75 297.11,-96.75 297.11,-96.75 297.11,-90.75 303.11,-84.75 309.11,-84.75 309.11,-84.75 358.11,-84.75 358.11,-84.75 364.11,-84.75 370.11,-90.75 370.11,-96.75 370.11,-96.75 370.11,-108.75 370.11,-108.75 370.11,-114.75 364.11,-120.75 358.11,-120.75"/>
<text text-anchor="middle" x="333.61" y="-98.08" font-family="Times,serif" font-size="14.00" fill="#e0e6ed">Podman</text>
</g>
<!-- Igni&#45;&gt;Podman -->
<g id="edge3" class="edge">
<title>Igni&#45;&gt;Podman</title>
<path fill="none" stroke="#00d4aa" d="M407.77,-186.36C307.9,-185.61 31.97,-180.87 4.86,-151.5 -33.96,-109.47 184.83,-103.91 285.26,-103.53"/>
<polygon fill="#00d4aa" stroke="#00d4aa" points="285.11,-107.03 295.1,-103.51 285.09,-100.03 285.11,-107.03"/>
<text text-anchor="middle" x="81.73" y="-142" font-family="Helvetica,sans-Serif" font-size="10.00" fill="#7a8fa6">3. wave&#45;1: ZR, DB, Obs, Ollama</text>
</g>
<!-- Igni&#45;&gt;Podman -->
<g id="edge6" class="edge">
<title>Igni&#45;&gt;Podman</title>
<path fill="none" stroke="#00d4aa" d="M407.89,-184.52C337.4,-180.23 185.82,-169.07 170.36,-151.5 136.06,-112.53 225.83,-104.57 285.46,-103.4"/>
<polygon fill="#00d4aa" stroke="#00d4aa" points="285.47,-106.9 295.42,-103.27 285.38,-99.9 285.47,-106.9"/>
<text text-anchor="middle" x="247.98" y="-142" font-family="Helvetica,sans-Serif" font-size="10.00" fill="#7a8fa6">6. wave&#45;2: Mojo, Cortex, MLr1/2</text>
</g>
<!-- Igni&#45;&gt;Podman -->
<g id="edge7" class="edge">
<title>Igni&#45;&gt;Podman</title>
<path fill="none" stroke="#00d4aa" d="M407.85,-184.37C384.26,-180.94 354.75,-172.41 338.11,-151.5 333.79,-146.07 331.8,-139.13 331.09,-132.22"/>
<polygon fill="#00d4aa" stroke="#00d4aa" points="334.59,-132.36 330.93,-122.42 327.59,-132.48 334.59,-132.36"/>
<text text-anchor="middle" x="386.86" y="-142" font-family="Helvetica,sans-Serif" font-size="10.00" fill="#7a8fa6">7. wave&#45;3: ex&#45;app&#45;1</text>
</g>
<!-- Igni&#45;&gt;Podman -->
<g id="edge8" class="edge">
<title>Igni&#45;&gt;Podman</title>
<path fill="none" stroke="#00d4aa" d="M443.59,-169.18C442.69,-159.19 439.97,-147 432.61,-138.75 419.54,-124.11 399.95,-115.59 381.64,-110.64"/>
<polygon fill="#00d4aa" stroke="#00d4aa" points="382.49,-107.24 371.95,-108.34 380.87,-114.05 382.49,-107.24"/>
<text text-anchor="middle" x="529.04" y="-142" font-family="Helvetica,sans-Serif" font-size="10.00" fill="#7a8fa6">8. wave&#45;4: chaya, ex&#45;app&#45;2/3, bridge</text>
</g>
<!-- ZR -->
<g id="node4" class="node">
<title>ZR</title>
<path fill="#141922" stroke="#1e2a3a" d="M673.36,-36C673.36,-36 589.86,-36 589.86,-36 583.86,-36 577.86,-30 577.86,-24 577.86,-24 577.86,-12 577.86,-12 577.86,-6 583.86,0 589.86,0 589.86,0 673.36,0 673.36,0 679.36,0 685.36,-6 685.36,-12 685.36,-12 685.36,-24 685.36,-24 685.36,-30 679.36,-36 673.36,-36"/>
<text text-anchor="middle" x="631.61" y="-13.32" font-family="Times,serif" font-size="14.00" fill="#e0e6ed">zenoh&#45;router</text>
</g>
<!-- Igni&#45;&gt;ZR -->
<g id="edge5" class="edge">
<title>Igni&#45;&gt;ZR</title>
<path fill="none" stroke="#00d4aa" d="M479.45,-184.32C525.39,-180.73 601.33,-171.83 619.61,-151.5 626.39,-143.96 629.51,-84.39 630.81,-47.74"/>
<polygon fill="#00d4aa" stroke="#00d4aa" points="634.3,-47.92 631.13,-37.81 627.3,-47.69 634.3,-47.92"/>
<text text-anchor="middle" x="672.94" y="-99.62" font-family="Helvetica,sans-Serif" font-size="10.00" fill="#7a8fa6">5. verify mesh 6/6</text>
</g>
<!-- Podman&#45;&gt;ZR -->
<g id="edge4" class="edge">
<title>Podman&#45;&gt;ZR</title>
<path fill="none" stroke="#00d4aa" d="M370.44,-91.52C419.34,-77.94 506.47,-53.75 566.56,-37.06"/>
<polygon fill="#00d4aa" stroke="#00d4aa" points="567.29,-40.49 575.99,-34.44 565.42,-33.75 567.29,-40.49"/>
<text text-anchor="middle" x="536.82" y="-57.25" font-family="Helvetica,sans-Serif" font-size="10.00" fill="#7a8fa6">4. container up</text>
</g>
<!-- DB -->
<g id="node5" class="node">
<title>DB</title>
<path fill="#141922" stroke="#1e2a3a" d="M1094.61,-120.75C1094.61,-120.75 1064.61,-120.75 1064.61,-120.75 1058.61,-120.75 1052.61,-114.75 1052.61,-108.75 1052.61,-108.75 1052.61,-96.75 1052.61,-96.75 1052.61,-90.75 1058.61,-84.75 1064.61,-84.75 1064.61,-84.75 1094.61,-84.75 1094.61,-84.75 1100.61,-84.75 1106.61,-90.75 1106.61,-96.75 1106.61,-96.75 1106.61,-108.75 1106.61,-108.75 1106.61,-114.75 1100.61,-120.75 1094.61,-120.75"/>
<text text-anchor="middle" x="1079.61" y="-98.08" font-family="Times,serif" font-size="14.00" fill="#e0e6ed">DB</text>
</g>
<!-- Obs -->
<g id="node6" class="node">
<title>Obs</title>
<path fill="#141922" stroke="#1e2a3a" d="M984.61,-120.75C984.61,-120.75 954.61,-120.75 954.61,-120.75 948.61,-120.75 942.61,-114.75 942.61,-108.75 942.61,-108.75 942.61,-96.75 942.61,-96.75 942.61,-90.75 948.61,-84.75 954.61,-84.75 954.61,-84.75 984.61,-84.75 984.61,-84.75 990.61,-84.75 996.61,-90.75 996.61,-96.75 996.61,-96.75 996.61,-108.75 996.61,-108.75 996.61,-114.75 990.61,-120.75 984.61,-120.75"/>
<text text-anchor="middle" x="969.61" y="-98.08" font-family="Times,serif" font-size="14.00" fill="#e0e6ed">Obs</text>
</g>
<!-- Cortex&#45;&gt;ZR -->
<g id="edge14" class="edge">
<title>Cortex&#45;&gt;ZR</title>
<path fill="none" stroke="#00d4aa" d="M741.71,-169.27C741.06,-147.83 737.32,-110.89 720.61,-84.75 709.53,-67.43 692.16,-53.11 675.7,-42.29"/>
<polygon fill="#00d4aa" stroke="#00d4aa" points="677.79,-39.47 667.45,-37.14 674.08,-45.41 677.79,-39.47"/>
<text text-anchor="middle" x="788.24" y="-99.62" font-family="Helvetica,sans-Serif" font-size="10.00" fill="#7a8fa6">14. sub indrajaal/l5/**</text>
</g>
<!-- Ollama -->
<g id="node8" class="node">
<title>Ollama</title>
<path fill="#141922" stroke="#1e2a3a" d="M901.73,-120.75C901.73,-120.75 859.48,-120.75 859.48,-120.75 853.48,-120.75 847.48,-114.75 847.48,-108.75 847.48,-108.75 847.48,-96.75 847.48,-96.75 847.48,-90.75 853.48,-84.75 859.48,-84.75 859.48,-84.75 901.73,-84.75 901.73,-84.75 907.73,-84.75 913.73,-90.75 913.73,-96.75 913.73,-96.75 913.73,-108.75 913.73,-108.75 913.73,-114.75 907.73,-120.75 901.73,-120.75"/>
<text text-anchor="middle" x="880.61" y="-98.08" font-family="Times,serif" font-size="14.00" fill="#e0e6ed">Ollama</text>
</g>
<!-- Cortex&#45;&gt;Ollama -->
<g id="edge15" class="edge">
<title>Cortex&#45;&gt;Ollama</title>
<path fill="none" stroke="#00d4aa" d="M741.79,-169.22C742.83,-158.99 745.9,-146.53 754.11,-138.75 780.44,-113.78 800.12,-129.44 836.45,-121.71"/>
<polygon fill="#00d4aa" stroke="#00d4aa" points="836.94,-125.2 845.7,-119.24 835.14,-118.44 836.94,-125.2"/>
<text text-anchor="middle" x="798.36" y="-142" font-family="Helvetica,sans-Serif" font-size="10.00" fill="#7a8fa6">15. warm cascade</text>
</g>
<!-- Ollama&#45;&gt;Cortex -->
<g id="edge16" class="edge">
<title>Ollama&#45;&gt;Cortex</title>
<path fill="none" stroke="#00d4aa" d="M865.98,-121.2C854.9,-134.36 841.28,-150.35 839.61,-151.5 823.28,-162.72 802.97,-170.75 785.08,-176.26"/>
<polygon fill="#00d4aa" stroke="#00d4aa" points="784.11,-172.9 775.48,-179.03 786.05,-179.62 784.11,-172.9"/>
<text text-anchor="middle" x="904.04" y="-142" font-family="Helvetica,sans-Serif" font-size="10.00" fill="#7a8fa6">16. 1273 ms (hedged)</text>
</g>
<!-- Tsd&#45;&gt;Obs -->
<g id="edge12" class="edge">
<title>Tsd&#45;&gt;Obs</title>
<path fill="none" stroke="#00d4aa" d="M938.71,-169C946.24,-164.29 953.34,-158.5 958.61,-151.5 962.8,-145.93 965.44,-139.02 967.08,-132.22"/>
<polygon fill="#00d4aa" stroke="#00d4aa" points="970.49,-133.04 968.76,-122.59 963.59,-131.84 970.49,-133.04"/>
<text text-anchor="middle" x="999.28" y="-142" font-family="Helvetica,sans-Serif" font-size="10.00" fill="#7a8fa6">12. OTEL span</text>
</g>
<!-- SaPlan&#45;&gt;User -->
<g id="edge20" class="edge">
<title>SaPlan&#45;&gt;User</title>
<path fill="none" stroke="#00d4aa" d="M1135.03,-193.49C1176,-199.27 1221.08,-211.41 1198.61,-236.25 1178.1,-258.92 975.03,-267.56 888.42,-270.23"/>
<polygon fill="#00d4aa" stroke="#00d4aa" points="888.41,-266.73 878.52,-270.53 888.61,-273.73 888.41,-266.73"/>
<text text-anchor="middle" x="1254.44" y="-226.75" font-family="Helvetica,sans-Serif" font-size="10.00" fill="#7a8fa6">20. HTML dashboard</text>
</g>
<!-- SaPlan&#45;&gt;DB -->
<g id="edge18" class="edge">
<title>SaPlan&#45;&gt;DB</title>
<path fill="none" stroke="#00d4aa" d="M1079.61,-169.35C1079.61,-158.66 1079.61,-144.64 1079.61,-132.3"/>
<polygon fill="#00d4aa" stroke="#00d4aa" points="1083.11,-132.67 1079.61,-122.67 1076.11,-132.67 1083.11,-132.67"/>
<text text-anchor="middle" x="1135.86" y="-142" font-family="Helvetica,sans-Serif" font-size="10.00" fill="#7a8fa6">18. insert (2927→2943)</text>
</g>
</g>
</svg>
