<?xml version="1.0" encoding="UTF-8" standalone="no"?>
<!DOCTYPE svg PUBLIC "-//W3C//DTD SVG 1.1//EN"
 "http://www.w3.org/Graphics/SVG/1.1/DTD/svg11.dtd">
<!-- Generated by graphviz version 12.2.1 (0)
 -->
<!-- Title: SM Pages: 1 -->
<svg width="1618pt" height="121pt"
 viewBox="0.00 0.00 1617.50 121.00" xmlns="http://www.w3.org/2000/svg" xmlns:xlink="http://www.w3.org/1999/xlink">
<g id="graph0" class="graph" transform="scale(1 1) rotate(0) translate(4 117)">
<title>SM</title>
<polygon fill="#0a0e17" stroke="none" points="-4,4 -4,-117 1613.5,-117 1613.5,4 -4,4"/>
<!-- Dark -->
<g id="node1" class="node">
<title>Dark</title>
<path fill="#2a0e0e" stroke="#ff4757" d="M100,-42.5C100,-42.5 12,-42.5 12,-42.5 6,-42.5 0,-36.5 0,-30.5 0,-30.5 0,-12 0,-12 0,-6 6,0 12,0 12,0 100,0 100,0 106,0 112,-6 112,-12 112,-12 112,-30.5 112,-30.5 112,-36.5 106,-42.5 100,-42.5"/>
<text text-anchor="middle" x="56" y="-25.2" font-family="Times,serif" font-size="14.00" fill="#e0e6ed">Dark</text>
<text text-anchor="middle" x="56" y="-7.95" font-family="Times,serif" font-size="14.00" fill="#e0e6ed">(no daemons)</text>
</g>
<!-- Preflight -->
<g id="node2" class="node">
<title>Preflight</title>
<path fill="#141922" stroke="#1e2a3a" d="M284.75,-39.25C284.75,-39.25 230.5,-39.25 230.5,-39.25 224.5,-39.25 218.5,-33.25 218.5,-27.25 218.5,-27.25 218.5,-15.25 218.5,-15.25 218.5,-9.25 224.5,-3.25 230.5,-3.25 230.5,-3.25 284.75,-3.25 284.75,-3.25 290.75,-3.25 296.75,-9.25 296.75,-15.25 296.75,-15.25 296.75,-27.25 296.75,-27.25 296.75,-33.25 290.75,-39.25 284.75,-39.25"/>
<text text-anchor="middle" x="257.62" y="-16.57" font-family="Times,serif" font-size="14.00" fill="#e0e6ed">Preflight</text>
</g>
<!-- Dark&#45;&gt;Preflight -->
<g id="edge1" class="edge">
<title>Dark&#45;&gt;Preflight</title>
<path fill="none" stroke="#00d4aa" d="M112.34,-21.25C141.95,-21.25 178.13,-21.25 206.85,-21.25"/>
<polygon fill="#00d4aa" stroke="#00d4aa" points="206.75,-24.75 216.75,-21.25 206.75,-17.75 206.75,-24.75"/>
<text text-anchor="middle" x="165.25" y="-24.5" font-family="Helvetica,sans-Serif" font-size="10.00" fill="#7a8fa6">sa&#45;up preflight</text>
</g>
<!-- Preflight&#45;&gt;Dark -->
<g id="edge3" class="edge">
<title>Preflight&#45;&gt;Dark</title>
<path fill="none" stroke="#00d4aa" d="M218.01,-8.14C212.2,-6.63 206.24,-5.34 200.5,-4.5 169.5,0.03 161.13,-0.97 130,-4.5 127.82,-4.75 125.61,-5.03 123.38,-5.36"/>
<polygon fill="#00d4aa" stroke="#00d4aa" points="122.96,-1.88 113.67,-6.97 124.11,-8.78 122.96,-1.88"/>
<text text-anchor="middle" x="165.25" y="-7.75" font-family="Helvetica,sans-Serif" font-size="10.00" fill="#7a8fa6">FAIL</text>
</g>
<!-- LaunchWave1 -->
<g id="node3" class="node">
<title>LaunchWave1</title>
<path fill="#141922" stroke="#1e2a3a" d="M447.75,-42.5C447.75,-42.5 404,-42.5 404,-42.5 398,-42.5 392,-36.5 392,-30.5 392,-30.5 392,-12 392,-12 392,-6 398,0 404,0 404,0 447.75,0 447.75,0 453.75,0 459.75,-6 459.75,-12 459.75,-12 459.75,-30.5 459.75,-30.5 459.75,-36.5 453.75,-42.5 447.75,-42.5"/>
<text text-anchor="middle" x="425.88" y="-25.2" font-family="Times,serif" font-size="14.00" fill="#e0e6ed">Launch</text>
<text text-anchor="middle" x="425.88" y="-7.95" font-family="Times,serif" font-size="14.00" fill="#e0e6ed">Wave&#45;1</text>
</g>
<!-- Preflight&#45;&gt;LaunchWave1 -->
<g id="edge2" class="edge">
<title>Preflight&#45;&gt;LaunchWave1</title>
<path fill="none" stroke="#00d4aa" d="M297.18,-21.25C321.97,-21.25 354.27,-21.25 380.18,-21.25"/>
<polygon fill="#00d4aa" stroke="#00d4aa" points="380.07,-24.75 390.07,-21.25 380.07,-17.75 380.07,-24.75"/>
<text text-anchor="middle" x="344.38" y="-24.5" font-family="Helvetica,sans-Serif" font-size="10.00" fill="#7a8fa6">6/6 crit pass</text>
</g>
<!-- LaunchWave2 -->
<g id="node4" class="node">
<title>LaunchWave2</title>
<path fill="#141922" stroke="#1e2a3a" d="M660.25,-39.25C660.25,-39.25 569.25,-39.25 569.25,-39.25 563.25,-39.25 557.25,-33.25 557.25,-27.25 557.25,-27.25 557.25,-15.25 557.25,-15.25 557.25,-9.25 563.25,-3.25 569.25,-3.25 569.25,-3.25 660.25,-3.25 660.25,-3.25 666.25,-3.25 672.25,-9.25 672.25,-15.25 672.25,-15.25 672.25,-27.25 672.25,-27.25 672.25,-33.25 666.25,-39.25 660.25,-39.25"/>
<text text-anchor="middle" x="614.75" y="-16.57" font-family="Times,serif" font-size="14.00" fill="#e0e6ed">LaunchWave2</text>
</g>
<!-- LaunchWave1&#45;&gt;LaunchWave2 -->
<g id="edge4" class="edge">
<title>LaunchWave1&#45;&gt;LaunchWave2</title>
<path fill="none" stroke="#00d4aa" d="M459.85,-21.25C483.53,-21.25 516.29,-21.25 545.51,-21.25"/>
<polygon fill="#00d4aa" stroke="#00d4aa" points="545.41,-24.75 555.41,-21.25 545.41,-17.75 545.41,-24.75"/>
<text text-anchor="middle" x="508.5" y="-24.5" font-family="Helvetica,sans-Serif" font-size="10.00" fill="#7a8fa6">ZR mesh 6/6</text>
</g>
<!-- LaunchWave3 -->
<g id="node5" class="node">
<title>LaunchWave3</title>
<path fill="#141922" stroke="#1e2a3a" d="M812.25,-39.25C812.25,-39.25 721.25,-39.25 721.25,-39.25 715.25,-39.25 709.25,-33.25 709.25,-27.25 709.25,-27.25 709.25,-15.25 709.25,-15.25 709.25,-9.25 715.25,-3.25 721.25,-3.25 721.25,-3.25 812.25,-3.25 812.25,-3.25 818.25,-3.25 824.25,-9.25 824.25,-15.25 824.25,-15.25 824.25,-27.25 824.25,-27.25 824.25,-33.25 818.25,-39.25 812.25,-39.25"/>
<text text-anchor="middle" x="766.75" y="-16.57" font-family="Times,serif" font-size="14.00" fill="#e0e6ed">LaunchWave3</text>
</g>
<!-- LaunchWave2&#45;&gt;LaunchWave3 -->
<g id="edge5" class="edge">
<title>LaunchWave2&#45;&gt;LaunchWave3</title>
<path fill="none" stroke="#00d4aa" d="M672.46,-21.25C680.67,-21.25 689.2,-21.25 697.61,-21.25"/>
<polygon fill="#00d4aa" stroke="#00d4aa" points="697.45,-24.75 707.45,-21.25 697.45,-17.75 697.45,-24.75"/>
</g>
<!-- LaunchWave4 -->
<g id="node6" class="node">
<title>LaunchWave4</title>
<path fill="#141922" stroke="#1e2a3a" d="M964.25,-39.25C964.25,-39.25 873.25,-39.25 873.25,-39.25 867.25,-39.25 861.25,-33.25 861.25,-27.25 861.25,-27.25 861.25,-15.25 861.25,-15.25 861.25,-9.25 867.25,-3.25 873.25,-3.25 873.25,-3.25 964.25,-3.25 964.25,-3.25 970.25,-3.25 976.25,-9.25 976.25,-15.25 976.25,-15.25 976.25,-27.25 976.25,-27.25 976.25,-33.25 970.25,-39.25 964.25,-39.25"/>
<text text-anchor="middle" x="918.75" y="-16.57" font-family="Times,serif" font-size="14.00" fill="#e0e6ed">LaunchWave4</text>
</g>
<!-- LaunchWave3&#45;&gt;LaunchWave4 -->
<g id="edge6" class="edge">
<title>LaunchWave3&#45;&gt;LaunchWave4</title>
<path fill="none" stroke="#00d4aa" d="M824.46,-21.25C832.67,-21.25 841.2,-21.25 849.61,-21.25"/>
<polygon fill="#00d4aa" stroke="#00d4aa" points="849.45,-24.75 859.45,-21.25 849.45,-17.75 849.45,-24.75"/>
</g>
<!-- Verify -->
<g id="node7" class="node">
<title>Verify</title>
<path fill="#141922" stroke="#1e2a3a" d="M1085.25,-39.25C1085.25,-39.25 1051.25,-39.25 1051.25,-39.25 1045.25,-39.25 1039.25,-33.25 1039.25,-27.25 1039.25,-27.25 1039.25,-15.25 1039.25,-15.25 1039.25,-9.25 1045.25,-3.25 1051.25,-3.25 1051.25,-3.25 1085.25,-3.25 1085.25,-3.25 1091.25,-3.25 1097.25,-9.25 1097.25,-15.25 1097.25,-15.25 1097.25,-27.25 1097.25,-27.25 1097.25,-33.25 1091.25,-39.25 1085.25,-39.25"/>
<text text-anchor="middle" x="1068.25" y="-16.57" font-family="Times,serif" font-size="14.00" fill="#e0e6ed">Verify</text>
</g>
<!-- LaunchWave4&#45;&gt;Verify -->
<g id="edge7" class="edge">
<title>LaunchWave4&#45;&gt;Verify</title>
<path fill="none" stroke="#00d4aa" d="M976.36,-21.25C993.45,-21.25 1011.84,-21.25 1027.58,-21.25"/>
<polygon fill="#00d4aa" stroke="#00d4aa" points="1027.52,-24.75 1037.52,-21.25 1027.52,-17.75 1027.52,-24.75"/>
<text text-anchor="middle" x="1007.75" y="-24.5" font-family="Helvetica,sans-Serif" font-size="10.00" fill="#7a8fa6">all up</text>
</g>
<!-- Operational -->
<g id="node8" class="node">
<title>Operational</title>
<path fill="#0e2a1e" stroke="#3dd68c" d="M1256.5,-82.25C1256.5,-82.25 1180.5,-82.25 1180.5,-82.25 1174.5,-82.25 1168.5,-76.25 1168.5,-70.25 1168.5,-70.25 1168.5,-58.25 1168.5,-58.25 1168.5,-52.25 1174.5,-46.25 1180.5,-46.25 1180.5,-46.25 1256.5,-46.25 1256.5,-46.25 1262.5,-46.25 1268.5,-52.25 1268.5,-58.25 1268.5,-58.25 1268.5,-70.25 1268.5,-70.25 1268.5,-76.25 1262.5,-82.25 1256.5,-82.25"/>
<text text-anchor="middle" x="1218.5" y="-59.58" font-family="Times,serif" font-size="14.00" fill="#e0e6ed">Operational</text>
</g>
<!-- Verify&#45;&gt;Operational -->
<g id="edge8" class="edge">
<title>Verify&#45;&gt;Operational</title>
<path fill="none" stroke="#00d4aa" d="M1097.48,-29.44C1114.36,-34.33 1136.47,-40.75 1157.11,-46.73"/>
<polygon fill="#00d4aa" stroke="#00d4aa" points="1156.02,-50.06 1166.6,-49.49 1157.97,-43.34 1156.02,-50.06"/>
<text text-anchor="middle" x="1132.88" y="-47.29" font-family="Helvetica,sans-Serif" font-size="10.00" fill="#7a8fa6">≥14/18</text>
</g>
<!-- Degraded -->
<g id="node9" class="node">
<title>Degraded</title>
<path fill="#2a1e0e" stroke="#f5a623" d="M1442.75,-61.25C1442.75,-61.25 1381,-61.25 1381,-61.25 1375,-61.25 1369,-55.25 1369,-49.25 1369,-49.25 1369,-37.25 1369,-37.25 1369,-31.25 1375,-25.25 1381,-25.25 1381,-25.25 1442.75,-25.25 1442.75,-25.25 1448.75,-25.25 1454.75,-31.25 1454.75,-37.25 1454.75,-37.25 1454.75,-49.25 1454.75,-49.25 1454.75,-55.25 1448.75,-61.25 1442.75,-61.25"/>
<text text-anchor="middle" x="1411.88" y="-38.58" font-family="Times,serif" font-size="14.00" fill="#e0e6ed">Degraded</text>
</g>
<!-- Verify&#45;&gt;Degraded -->
<g id="edge9" class="edge">
<title>Verify&#45;&gt;Degraded</title>
<path fill="none" stroke="#00d4aa" d="M1097.43,-19.72C1148.37,-17.45 1259.01,-14.78 1351,-28.25 1353.15,-28.56 1355.33,-28.92 1357.53,-29.32"/>
<polygon fill="#00d4aa" stroke="#00d4aa" points="1356.59,-32.7 1367.08,-31.24 1357.97,-25.83 1356.59,-32.7"/>
<text text-anchor="middle" x="1218.5" y="-23.29" font-family="Helvetica,sans-Serif" font-size="10.00" fill="#7a8fa6">13/18</text>
</g>
<!-- Operational&#45;&gt;Operational -->
<g id="edge10" class="edge">
<title>Operational&#45;&gt;Operational</title>
<path fill="none" stroke="#00d4aa" d="M1203.01,-82.4C1200.63,-91.79 1205.79,-100.25 1218.5,-100.25 1225.65,-100.25 1230.41,-97.57 1232.78,-93.56"/>
<polygon fill="#00d4aa" stroke="#00d4aa" points="1236.23,-94.23 1233.83,-83.91 1229.27,-93.47 1236.23,-94.23"/>
<text text-anchor="middle" x="1218.5" y="-103.5" font-family="Helvetica,sans-Serif" font-size="10.00" fill="#7a8fa6">OODA tick</text>
</g>
<!-- Operational&#45;&gt;Degraded -->
<g id="edge11" class="edge">
<title>Operational&#45;&gt;Degraded</title>
<path fill="none" stroke="#00d4aa" d="M1268.9,-60.43C1293.6,-58.34 1323.92,-55.52 1351,-52.25 1353.15,-51.99 1355.35,-51.71 1357.56,-51.43"/>
<polygon fill="#00d4aa" stroke="#00d4aa" points="1357.79,-54.93 1367.22,-50.11 1356.84,-47.99 1357.79,-54.93"/>
<text text-anchor="middle" x="1318.75" y="-61.84" font-family="Helvetica,sans-Serif" font-size="10.00" fill="#7a8fa6">container fail</text>
</g>
<!-- Apoptosis -->
<g id="node10" class="node">
<title>Apoptosis</title>
<path fill="#2a0e0e" stroke="#ff4757" d="M1597.5,-93.25C1597.5,-93.25 1535.75,-93.25 1535.75,-93.25 1529.75,-93.25 1523.75,-87.25 1523.75,-81.25 1523.75,-81.25 1523.75,-69.25 1523.75,-69.25 1523.75,-63.25 1529.75,-57.25 1535.75,-57.25 1535.75,-57.25 1597.5,-57.25 1597.5,-57.25 1603.5,-57.25 1609.5,-63.25 1609.5,-69.25 1609.5,-69.25 1609.5,-81.25 1609.5,-81.25 1609.5,-87.25 1603.5,-93.25 1597.5,-93.25"/>
<text text-anchor="middle" x="1566.62" y="-70.58" font-family="Times,serif" font-size="14.00" fill="#e0e6ed">Apoptosis</text>
</g>
<!-- Operational&#45;&gt;Apoptosis -->
<g id="edge13" class="edge">
<title>Operational&#45;&gt;Apoptosis</title>
<path fill="none" stroke="#00d4aa" d="M1268.79,-73.15C1274.74,-73.99 1280.75,-74.72 1286.5,-75.25 1383.55,-84.21 1408.34,-82.5 1505.75,-79.25 1507.81,-79.18 1509.91,-79.1 1512.02,-79.01"/>
<polygon fill="#00d4aa" stroke="#00d4aa" points="1512.13,-82.51 1521.93,-78.5 1511.77,-75.52 1512.13,-82.51"/>
<text text-anchor="middle" x="1411.88" y="-85.12" font-family="Helvetica,sans-Serif" font-size="10.00" fill="#7a8fa6">emergency</text>
</g>
<!-- Degraded&#45;&gt;Operational -->
<g id="edge12" class="edge">
<title>Degraded&#45;&gt;Operational</title>
<path fill="none" stroke="#00d4aa" d="M1368.75,-35.16C1344.48,-31.85 1313.52,-29.95 1286.5,-35.5 1279.58,-36.92 1272.5,-39.09 1265.65,-41.61"/>
<polygon fill="#00d4aa" stroke="#00d4aa" points="1264.54,-38.28 1256.54,-45.24 1267.13,-44.79 1264.54,-38.28"/>
<text text-anchor="middle" x="1318.75" y="-38.75" font-family="Helvetica,sans-Serif" font-size="10.00" fill="#7a8fa6">relaunch</text>
</g>
<!-- Degraded&#45;&gt;Apoptosis -->
<g id="edge14" class="edge">
<title>Degraded&#45;&gt;Apoptosis</title>
<path fill="none" stroke="#00d4aa" d="M1455.02,-52.08C1472.73,-55.79 1493.53,-60.15 1512.29,-64.08"/>
<polygon fill="#00d4aa" stroke="#00d4aa" points="1511.37,-67.46 1521.87,-66.08 1512.8,-60.61 1511.37,-67.46"/>
<text text-anchor="middle" x="1489.25" y="-65.37" font-family="Helvetica,sans-Serif" font-size="10.00" fill="#7a8fa6">critical</text>
</g>
</g>
</svg>
