<svg width="2400" height="1600" viewBox="0 0 2400 1600" xmlns="http://www.w3.org/2000/svg">
  <defs>
    <linearGradient id="gold" x1="0%" y1="0%" x2="100%" y2="100%">
      <stop offset="0%" stop-color="#FFD700"/>
      <stop offset="50%" stop-color="#DAA520"/>
      <stop offset="100%" stop-color="#B8860B"/>
    </linearGradient>
    <linearGradient id="obsidian" x1="0%" y1="0%" x2="0%" y2="100%">
      <stop offset="0%" stop-color="#121212"/>
      <stop offset="100%" stop-color="#212121"/>
    </linearGradient>
    <style>
      .bg { fill: #FAFAFA; }
      .title { font-family: 'Georgia', serif; font-size: 80px; fill: url(#obsidian); font-weight: bold; letter-spacing: 12px; }
      .subtitle { font-family: 'Courier New', monospace; font-size: 24px; fill: #D32F2F; letter-spacing: 4px; }
      .data-text { font-family: 'Roboto', sans-serif; font-size: 14px; fill: #424242; }
      .data-val { font-family: 'Courier New', monospace; font-size: 16px; fill: #0D47A1; font-weight: bold; }
      .ray { stroke: url(#gold); stroke-width: 2; fill: none; opacity: 0.7; }
      .ring { stroke: #121212; fill: none; stroke-width: 1; opacity: 0.2; }
      .accent { fill: #00C853; }
    </style>
  </defs>
  
  <rect width="2400" height="1600" class="bg"/>
  
  <!-- Sunburst Data Rays -->
  <g transform="translate(1200, 900)">
    <!-- 10 Evolutions of Rings -->
    <circle r="150" class="ring" stroke-width="4"/><circle r="250" class="ring"/><circle r="350" class="ring" stroke-dasharray="5,5"/><circle r="450" class="ring"/><circle r="550" class="ring" stroke-dasharray="1,10"/><circle r="650" class="ring"/><circle r="750" class="ring" stroke-width="2"/>
    
    <circle r="150" fill="url(#obsidian)"/>
    <text x="0" y="10" text-anchor="middle" fill="#FFD700" font-family="Georgia" font-size="32">v22.5.0</text>
    
    <!-- Generating 50+ Data Rays -->
    <!-- Day 1: 2026-04-04 -->
    <g transform="rotate(-150)"><line x1="150" y1="0" x2="650" y2="0" class="ray"/><circle cx="650" cy="0" r="5" class="accent"/><text x="660" y="5" class="data-val">2026-04-04: Batch 4 Fractal Analysis</text></g>
    <g transform="rotate(-140)"><line x1="150" y1="0" x2="550" y2="0" class="ray"/><text x="560" y="5" class="data-text">Metric: 1559 tests passed</text></g>
    <g transform="rotate(-130)"><line x1="150" y1="0" x2="450" y2="0" class="ray"/><text x="460" y="5" class="data-text">ITQS: 0.736</text></g>
    <g transform="rotate(-120)"><line x1="150" y1="0" x2="750" y2="0" class="ray"/><text x="760" y="5" class="data-text">CCM: 0.770</text></g>
    <g transform="rotate(-110)"><line x1="150" y1="0" x2="350" y2="0" class="ray"/><text x="360" y="5" class="data-text">Tab Coverage: 100%</text></g>
    
    <!-- Day 2: 2026-04-05 -->
    <g transform="rotate(-90)"><line x1="150" y1="0" x2="650" y2="0" class="ray" stroke-width="4"/><circle cx="650" cy="0" r="8" fill="#D32F2F"/><text x="665" y="5" class="data-val">2026-04-05: Biomorphic Evolution Math Opt</text></g>
    <g transform="rotate(-80)"><line x1="150" y1="0" x2="550" y2="0" class="ray"/><text x="560" y="5" class="data-text">SC-HMI-010: Symbiotic Alignment</text></g>
    <g transform="rotate(-70)"><line x1="150" y1="0" x2="450" y2="0" class="ray"/><text x="460" y="5" class="data-text">SC-GLM-UI-001: Triple Stack</text></g>
    <g transform="rotate(-60)"><line x1="150" y1="0" x2="750" y2="0" class="ray"/><text x="760" y="5" class="data-text">AOR-GLM-001: Gleam Core Logic</text></g>
    <g transform="rotate(-50)"><line x1="150" y1="0" x2="350" y2="0" class="ray"/><text x="360" y="5" class="data-text">Shannon Entropy: H ≥ 2.5</text></g>

    <!-- Day 3: 2026-04-06 -->
    <g transform="rotate(-30)"><line x1="150" y1="0" x2="650" y2="0" class="ray" stroke-width="4"/><circle cx="650" cy="0" r="8" fill="#1976D2"/><text x="665" y="5" class="data-val">2026-04-06: Max Parallelization Throughput</text></g>
    <g transform="rotate(-20)"><line x1="150" y1="0" x2="550" y2="0" class="ray"/><text x="560" y="5" class="data-text">OODA Cycle: &lt; 30ms latency</text></g>
    <g transform="rotate(-10)"><line x1="150" y1="0" x2="450" y2="0" class="ray"/><text x="460" y="5" class="data-text">Inference Tiers: 5</text></g>
    <g transform="rotate(0)"><line x1="150" y1="0" x2="750" y2="0" class="ray"/><text x="760" y="5" class="data-text">SC-ULTRA-001: Immutable Goal</text></g>
    <g transform="rotate(10)"><line x1="150" y1="0" x2="350" y2="0" class="ray"/><text x="360" y="5" class="data-text">Mesh: 16-Container Ignition</text></g>

    <!-- Day 4: 2026-04-08 -->
    <g transform="rotate(30)"><line x1="150" y1="0" x2="650" y2="0" class="ray" stroke-width="4"/><circle cx="650" cy="0" r="8" fill="#FBC02D"/><text x="665" y="5" class="data-val">2026-04-08: OpenClaw Perception Ultrathink</text></g>
    <g transform="rotate(40)"><line x1="150" y1="0" x2="550" y2="0" class="ray"/><text x="560" y="5" class="data-text">L0 Constitutional: 3 Agents</text></g>
    <g transform="rotate(50)"><line x1="150" y1="0" x2="450" y2="0" class="ray"/><text x="460" y="5" class="data-text">L1 Atomic Debug: 4 Agents</text></g>
    <g transform="rotate(60)"><line x1="150" y1="0" x2="750" y2="0" class="ray"/><text x="760" y="5" class="data-text">L2 Component: 4 Agents</text></g>
    <g transform="rotate(70)"><line x1="150" y1="0" x2="350" y2="0" class="ray"/><text x="360" y="5" class="data-text">L3 Transaction: 3 Agents</text></g>

    <!-- Day 5: 2026-04-10 -->
    <g transform="rotate(90)"><line x1="150" y1="0" x2="650" y2="0" class="ray" stroke-width="4"/><circle cx="650" cy="0" r="8" fill="#388E3C"/><text x="665" y="5" class="data-val">2026-04-10: C3I Root Sync</text></g>
    <g transform="rotate(100)"><line x1="150" y1="0" x2="550" y2="0" class="ray"/><text x="560" y="5" class="data-text">Rust Cortex: 9104 LOC, 31 modules</text></g>
    <g transform="rotate(110)"><line x1="150" y1="0" x2="450" y2="0" class="ray"/><text x="460" y="5" class="data-text">RETE-UL Rules: 52</text></g>
    <g transform="rotate(120)"><line x1="150" y1="0" x2="750" y2="0" class="ray"/><text x="760" y="5" class="data-text">MCP Tools: 73 Configured</text></g>
    <g transform="rotate(130)"><line x1="150" y1="0" x2="350" y2="0" class="ray"/><text x="360" y="5" class="data-text">SC-ZMOF-001: Zenoh Backplane</text></g>

    <!-- Day 6: 2026-04-12 -->
    <g transform="rotate(150)"><line x1="150" y1="0" x2="650" y2="0" class="ray" stroke-width="4"/><circle cx="650" cy="0" r="8" fill="#8E24AA"/><text x="665" y="5" class="data-val">2026-04-12: Grand Unification (Art Deco)</text></g>
    <g transform="rotate(160)"><line x1="150" y1="0" x2="550" y2="0" class="ray"/><text x="560" y="5" class="data-text">Artifacts Synced: 123 (30A/75R/18S)</text></g>
    <g transform="rotate(170)"><line x1="150" y1="0" x2="450" y2="0" class="ray"/><text x="460" y="5" class="data-text">Smriti.db: 2710 Tasks Verified</text></g>
    <g transform="rotate(180)"><line x1="150" y1="0" x2="750" y2="0" class="ray"/><text x="760" y="5" class="data-text">Active Hooks: SessionStart, PostToolUse, Stop</text></g>
    <g transform="rotate(190)"><line x1="150" y1="0" x2="350" y2="0" class="ray"/><text x="360" y="5" class="data-text">Adaptation Speed: λ ≥ 0.099</text></g>
  </g>

  <!-- Header -->
  <text x="120" y="150" class="title">THE NEUROMORPHIC AWAKENING</text>
  <text x="120" y="210" class="subtitle">VARIANT I / INDRAJAAL TIMELINE / C3I DATA-VIZ</text>
  <text x="120" y="250" class="data-text">A chronological sunburst detailing the exact metrics of the biomorphic evolution (April 2026).</text>
</svg>