<svg width="1920" height="1200" viewBox="0 0 1920 1200" xmlns="http://www.w3.org/2000/svg">
  <defs>
    <pattern id="netPattern" x="0" y="0" width="300" height="173.2" patternUnits="userSpaceOnUse">
      <g transform="translate(150, 86.6)">
        <!-- The Jewel (Faceted) -->
        <polygon points="0,-60 52,-30 52,30 0,60 -52,30 -52,-30" fill="none" stroke="#DAA520" stroke-width="1" />
        <path d="M 0,-60 L 0,60 M -52,-30 L 52,30 M -52,30 L 52,-30" stroke="#DAA520" stroke-width="0.5" opacity="0.3" />
        <polygon points="0,-30 26,-15 26,15 0,30 -26,15 -26,-15" fill="#0F52BA" opacity="0.1" />
        
        <!-- Flow Particles (Zenoh) -->
        <circle r="1.5" fill="#FFD700">
          <animateMotion path="M 0,-60 L 0,-100" dur="2s" repeatCount="indefinite" />
        </circle>
        <circle r="1.5" fill="#FFD700">
          <animateMotion path="M 52,-30 L 100,-58" dur="2.5s" repeatCount="indefinite" />
        </circle>
      </g>
    </pattern>
    <style>
      .bg { fill: #FFFFFF; }
      .title-text { font-family: 'Roboto', sans-serif; font-weight: 900; font-size: 56px; fill: #0F52BA; letter-spacing: 6px; }
      .desc-text { font-family: 'Roboto', sans-serif; font-size: 28px; fill: #DAA520; font-weight: 300; }
      .core-glow { fill: url(#glowGrad); }
    </style>
    <radialGradient id="glowGrad">
      <stop offset="0%" stop-color="white" stop-opacity="1" />
      <stop offset="100%" stop-color="white" stop-opacity="0" />
    </radialGradient>
  </defs>

  <rect width="1920" height="1200" class="bg" />
  <rect width="1920" height="1200" fill="url(#netPattern)" opacity="0.8" />

  <!-- Immersive Smriti Core (Fractal) -->
  <g transform="translate(960, 600)">
    <circle r="500" class="core-glow" />
    
    <!-- Recursive Jewels -->
    <g transform="scale(4)">
       <polygon points="0,-60 52,-30 52,30 0,60 -52,30 -52,-30" fill="#0F52BA" stroke="#DAA520" stroke-width="3" />
       <g transform="scale(0.5) rotate(30)">
         <polygon points="0,-60 52,-30 52,30 0,60 -52,30 -52,-30" fill="none" stroke="white" stroke-width="2" />
       </g>
       <text x="0" y="5" text-anchor="middle" font-family="monospace" font-size="10" fill="white" font-weight="bold">SMRITI</text>
    </g>

    <!-- Fractal Rings -->
    <circle r="300" fill="none" stroke="#0F52BA" stroke-width="1" opacity="0.4" />
    <circle r="350" fill="none" stroke="#0F52BA" stroke-width="0.5" opacity="0.2" stroke-dasharray="20,10" />
    <g>
      <circle r="400" fill="none" stroke="#DAA520" stroke-width="2" opacity="0.6" />
      <animateTransform attributeName="transform" type="rotate" from="0" to="360" dur="40s" repeatCount="indefinite" />
    </g>
  </g>

  <!-- Art Deco Corner Accents -->
  <g fill="#0F52BA">
    <path d="M 0,0 L 300,0 L 0,300 Z" opacity="0.9" />
    <path d="M 50,50 L 250,50 L 50,250 Z" fill="white" opacity="0.2" />
    <path d="M 1920,0 L 1620,0 L 1920,300 Z" opacity="0.9" />
    <path d="M 0,1200 L 300,1200 L 0,900 Z" opacity="0.9" />
    <path d="M 1920,1200 L 1620,1200 L 1920,900 Z" opacity="0.9" />
  </g>

  <rect x="60" y="60" width="700" height="160" fill="white" opacity="0.95" stroke="#0F52BA" stroke-width="2" />
  <text x="90" y="130" class="title-text">THE SHIMMERING NET</text>
  <text x="90" y="180" class="desc-text">Regression 20: Non-Dual Consensus Reached</text>
</svg>
