<svg width="2400" height="1600" viewBox="0 0 2400 1600" xmlns="http://www.w3.org/2000/svg">
  <defs>
    <linearGradient id="cosmic" x1="0%" y1="0%" x2="100%" y2="100%">
      <stop offset="0%" stop-color="#000000"/>
      <stop offset="50%" stop-color="#1A237E"/>
      <stop offset="100%" stop-color="#311B92"/>
    </linearGradient>
    <linearGradient id="gold" x1="0%" y1="0%" x2="100%" y2="100%">
      <stop offset="0%" stop-color="#FFD700"/>
      <stop offset="50%" stop-color="#FFB90F"/>
      <stop offset="100%" stop-color="#8B6508"/>
    </linearGradient>
    <style>
      .bg { fill: #FAFAFA; }
      .title { font-family: 'Georgia', serif; font-size: 80px; fill: #1A237E; font-weight: bold; letter-spacing: 12px; }
      .subtitle { font-family: 'Courier New', monospace; font-size: 24px; fill: #B71C1C; letter-spacing: 4px; }
      .spiral { stroke: url(#gold); stroke-width: 8; fill: none; opacity: 0.8; }
      .data-text { font-family: 'Roboto', sans-serif; font-size: 16px; fill: #424242; }
      .data-val { font-family: 'Courier New', monospace; font-size: 20px; fill: #FFD700; font-weight: bold; }
      .node { fill: url(#cosmic); stroke: url(#gold); stroke-width: 4; }
      .stamp-text { font-family: 'Courier New', monospace; font-size: 14px; fill: #FFFFFF; font-weight: bold; }
    </style>
  </defs>

  <rect width="2400" height="1600" class="bg"/>

  <text x="120" y="150" class="title">THE INDRAJAAL SYNTHESIS</text>
  <text x="120" y="210" class="subtitle">VARIANT V / ULTRATHINK MANDATE &amp; METRICS / C3I DATA-VIZ</text>

  <!-- Fibonacci Golden Ratio Spiral Base -->
  <g transform="translate(1400, 800)">
    <!-- Approximated Fibonacci Spiral with Nodes -->
    <path d="M 0,0 A 10,10 0 0,1 10,-10 A 20,20 0 0,1 30,10 A 40,40 0 0,1 -10,50 A 80,80 0 0,1 -90,-30 A 160,160 0 0,1 70,-190 A 320,320 0 0,1 390,130 A 640,640 0 0,1 -250,770 A 1280,1280 0 0,1 -1530,-510" class="spiral"/>

    <!-- Data Nodes along the spiral -->
    <!-- Node 1 -->
    <g transform="translate(10, -10)">
      <circle r="15" class="node"/>
    </g>

    <!-- Node 2 -->
    <g transform="translate(30, 10)">
      <circle r="25" class="node"/>
      <text x="0" y="5" text-anchor="middle" class="stamp-text">Ω₀</text>
    </g>

    <!-- Node 3 -->
    <g transform="translate(-10, 50)">
      <circle r="40" class="node"/>
      <text x="0" y="-5" text-anchor="middle" class="stamp-text">SC-HMI</text>
      <text x="0" y="15" text-anchor="middle" fill="white" font-size="12">010</text>
      <text x="50" y="50" class="data-val">Symbiotic Alignment</text>
    </g>

    <!-- Node 4 -->
    <g transform="translate(-90, -30)">
      <circle r="60" class="node"/>
      <text x="0" y="-5" text-anchor="middle" class="stamp-text">SC-GLM</text>
      <text x="0" y="15" text-anchor="middle" fill="white" font-size="12">CMP-001</text>
      <text x="-70" y="-70" class="data-val" text-anchor="end">0 Warnings</text>
    </g>

    <!-- Node 5 -->
    <g transform="translate(70, -190)">
      <circle r="80" class="node"/>
      <text x="0" y="-5" text-anchor="middle" class="stamp-text">SC-ASSP</text>
      <text x="0" y="15" text-anchor="middle" fill="white" font-size="12">001</text>
      <text x="90" y="-90" class="data-val">Active State Sync</text>
      <text x="90" y="-70" class="data-text">Smriti.db 2710 Tasks</text>
    </g>

    <!-- Node 6 -->
    <g transform="translate(390, 130)">
      <circle r="120" class="node"/>
      <text x="0" y="-20" text-anchor="middle" class="stamp-text">SC-ZK</text>
      <text x="0" y="5" text-anchor="middle" fill="white" font-size="16">001</text>
      <text x="0" y="30" text-anchor="middle" fill="white" font-size="12">Zettelkasten</text>
      <text x="130" y="130" class="data-val">WarmRecall Ingestion</text>
      <text x="130" y="150" class="data-text">UserPromptSubmit Hook</text>
    </g>

    <!-- Node 7 -->
    <g transform="translate(-250, 770)">
      <circle r="200" class="node"/>
      <text x="0" y="-30" text-anchor="middle" class="stamp-text" font-size="24">SC-ULTRA</text>
      <text x="0" y="10" text-anchor="middle" fill="white" font-size="24">001</text>
      <text x="0" y="50" text-anchor="middle" fill="white" font-size="18">Immutable Goal</text>
      <text x="-220" y="220" class="data-val" text-anchor="end">H = 2.67 bits</text>
      <text x="-220" y="250" class="data-text" text-anchor="end">CCM = 0.770 | ITQS = 0.736</text>
      <text x="-220" y="280" class="data-text" text-anchor="end">Attention Budget: &lt; 5 min/day</text>
      <text x="-220" y="310" class="data-text" text-anchor="end">1559 Tests Passed (100%)</text>
      <text x="-220" y="340" class="data-text" text-anchor="end">100% Tab Coverage</text>
    </g>
  </g>

  <!-- Outer Decor -->
  <path d="M 120,1500 L 2280,1500" stroke="#1A237E" stroke-width="4"/>
  <text x="120" y="1480" font-family="Roboto" font-size="18" fill="#424242">Indrajaal v22.5.0-CORTEX | IEC 61508 SIL-6 | ISO 27001 | DO-178C DAL-A</text>
</svg>