<?xml version="1.0" encoding="UTF-8" standalone="no"?>
<!DOCTYPE svg PUBLIC "-//W3C//DTD SVG 1.1//EN"
 "http://www.w3.org/Graphics/SVG/1.1/DTD/svg11.dtd">
<!-- Generated by graphviz version 12.2.1 (0)
 -->
<!-- Title: causal Pages: 1 -->
<svg width="1180pt" height="726pt"
 viewBox="0.00 0.00 1179.60 725.60" xmlns="http://www.w3.org/2000/svg" xmlns:xlink="http://www.w3.org/1999/xlink">
<g id="graph0" class="graph" transform="scale(1 1) rotate(0) translate(28.8 696.8)">
<title>causal</title>
<polygon fill="#0a0e17" stroke="none" points="-28.8,28.8 -28.8,-696.8 1150.8,-696.8 1150.8,28.8 -28.8,28.8"/>
<g id="clust1" class="cluster">
<title>cluster_blastradius</title>
<polygon fill="#0a0e17" stroke="#e74c3c" stroke-dasharray="5,2" points="187.75,-181 187.75,-263 692.88,-263 692.88,-181 187.75,-181"/>
<text text-anchor="middle" x="440.31" y="-245.7" font-family="Helvetica,sans-Serif" font-size="14.00" fill="#e74c3c">High blast&#45;radius (top 3)</text>
</g>
<!-- Login -->
<g id="node1" class="node">
<title>Login</title>
<path fill="#1e2a3a" stroke="#00d4aa" d="M258.25,-225C258.25,-225 207.75,-225 207.75,-225 201.75,-225 195.75,-219 195.75,-213 195.75,-213 195.75,-201 195.75,-201 195.75,-195 201.75,-189 207.75,-189 207.75,-189 258.25,-189 258.25,-189 264.25,-189 270.25,-195 270.25,-201 270.25,-201 270.25,-213 270.25,-213 270.25,-219 264.25,-225 258.25,-225"/>
<text text-anchor="middle" x="233" y="-210.05" font-family="Helvetica,sans-Serif" font-size="11.00" fill="#e0e6ed">Auth/Login</text>
<text text-anchor="middle" x="233" y="-196.55" font-family="Helvetica,sans-Serif" font-size="11.00" fill="#e0e6ed">T1&#45;T16</text>
</g>
<!-- ChatList -->
<g id="node2" class="node">
<title>ChatList</title>
<path fill="#1e2a3a" stroke="#00d4aa" d="M476.5,-230C476.5,-230 414,-230 414,-230 408,-230 402,-224 402,-218 402,-218 402,-206 402,-206 402,-200 408,-194 414,-194 414,-194 476.5,-194 476.5,-194 482.5,-194 488.5,-200 488.5,-206 488.5,-206 488.5,-218 488.5,-218 488.5,-224 482.5,-230 476.5,-230"/>
<text text-anchor="middle" x="445.25" y="-215.05" font-family="Helvetica,sans-Serif" font-size="11.00" fill="#e0e6ed">ChatList/Nav</text>
<text text-anchor="middle" x="445.25" y="-201.55" font-family="Helvetica,sans-Serif" font-size="11.00" fill="#e0e6ed">T17&#45;T36</text>
</g>
<!-- Login&#45;&gt;ChatList -->
<g id="edge1" class="edge">
<title>Login&#45;&gt;ChatList</title>
<path fill="none" stroke="#7a8fa6" d="M270.62,-207.87C303.68,-208.66 352.73,-209.82 390.28,-210.72"/>
<polygon fill="#7a8fa6" stroke="#7a8fa6" points="389.94,-214.21 400.02,-210.95 390.1,-207.21 389.94,-214.21"/>
<text text-anchor="middle" x="337.25" y="-213.08" font-family="Times,serif" font-size="9.00" fill="#7a8fa6">post&#45;login screen</text>
</g>
<!-- ChatView -->
<g id="node3" class="node">
<title>ChatView</title>
<path fill="#1e2a3a" stroke="#00d4aa" d="M672.88,-225C672.88,-225 622.38,-225 622.38,-225 616.38,-225 610.38,-219 610.38,-213 610.38,-213 610.38,-201 610.38,-201 610.38,-195 616.38,-189 622.38,-189 622.38,-189 672.88,-189 672.88,-189 678.88,-189 684.88,-195 684.88,-201 684.88,-201 684.88,-213 684.88,-213 684.88,-219 678.88,-225 672.88,-225"/>
<text text-anchor="middle" x="647.62" y="-210.05" font-family="Helvetica,sans-Serif" font-size="11.00" fill="#e0e6ed">Messaging</text>
<text text-anchor="middle" x="647.62" y="-196.55" font-family="Helvetica,sans-Serif" font-size="11.00" fill="#e0e6ed">T37&#45;T66</text>
</g>
<!-- ChatList&#45;&gt;ChatView -->
<g id="edge2" class="edge">
<title>ChatList&#45;&gt;ChatView</title>
<path fill="none" stroke="#7a8fa6" d="M488.74,-210.94C520.91,-210.14 565.11,-209.03 598.56,-208.2"/>
<polygon fill="#7a8fa6" stroke="#7a8fa6" points="598.49,-211.7 608.4,-207.95 598.31,-204.7 598.49,-211.7"/>
<text text-anchor="middle" x="547.25" y="-212.94" font-family="Times,serif" font-size="9.00" fill="#7a8fa6">open&#45;room key</text>
</g>
<!-- Spaces -->
<g id="node8" class="node">
<title>Spaces</title>
<path fill="#141922" stroke="#1e2a3a" d="M1101.38,-260C1101.38,-260 1052.38,-260 1052.38,-260 1046.38,-260 1040.38,-254 1040.38,-248 1040.38,-248 1040.38,-236 1040.38,-236 1040.38,-230 1046.38,-224 1052.38,-224 1052.38,-224 1101.38,-224 1101.38,-224 1107.38,-224 1113.38,-230 1113.38,-236 1113.38,-236 1113.38,-248 1113.38,-248 1113.38,-254 1107.38,-260 1101.38,-260"/>
<text text-anchor="middle" x="1076.88" y="-245.05" font-family="Helvetica,sans-Serif" font-size="11.00" fill="#e0e6ed">Spaces</text>
<text text-anchor="middle" x="1076.88" y="-231.55" font-family="Helvetica,sans-Serif" font-size="11.00" fill="#e0e6ed">T129&#45;T136</text>
</g>
<!-- ChatList&#45;&gt;Spaces -->
<g id="edge5" class="edge">
<title>ChatList&#45;&gt;Spaces</title>
<path fill="none" stroke="#7a8fa6" d="M471.96,-230.37C484.17,-238.58 499.2,-247.97 513.5,-255 598.58,-296.79 620.86,-310.76 714.25,-327 828.69,-346.9 961.11,-296.72 1029.55,-265.23"/>
<polygon fill="#7a8fa6" stroke="#7a8fa6" points="1031.04,-268.4 1038.61,-260.99 1028.07,-262.06 1031.04,-268.4"/>
<text text-anchor="middle" x="760.75" y="-334.23" font-family="Times,serif" font-size="9.00" fill="#7a8fa6">space&#45;rail</text>
</g>
<!-- Notif -->
<g id="node10" class="node">
<title>Notif</title>
<path fill="#141922" stroke="#1e2a3a" d="M1107.38,-457C1107.38,-457 1046.38,-457 1046.38,-457 1040.38,-457 1034.38,-451 1034.38,-445 1034.38,-445 1034.38,-433 1034.38,-433 1034.38,-427 1040.38,-421 1046.38,-421 1046.38,-421 1107.38,-421 1107.38,-421 1113.38,-421 1119.38,-427 1119.38,-433 1119.38,-433 1119.38,-445 1119.38,-445 1119.38,-451 1113.38,-457 1107.38,-457"/>
<text text-anchor="middle" x="1076.88" y="-442.05" font-family="Helvetica,sans-Serif" font-size="11.00" fill="#e0e6ed">Notifications</text>
<text text-anchor="middle" x="1076.88" y="-428.55" font-family="Helvetica,sans-Serif" font-size="11.00" fill="#e0e6ed">T157&#45;T162</text>
</g>
<!-- ChatList&#45;&gt;Notif -->
<g id="edge6" class="edge">
<title>ChatList&#45;&gt;Notif</title>
<path fill="none" stroke="#7a8fa6" d="M457.65,-230.23C469.68,-248.21 490.1,-275.46 513.5,-293 560.04,-327.87 755.23,-400.56 832.25,-418 896.65,-432.58 972.72,-437.2 1022.51,-438.57"/>
<polygon fill="#7a8fa6" stroke="#7a8fa6" points="1022.37,-442.07 1032.45,-438.81 1022.53,-435.07 1022.37,-442.07"/>
<text text-anchor="middle" x="760.75" y="-413.9" font-family="Times,serif" font-size="9.00" fill="#7a8fa6">badge</text>
</g>
<!-- Search -->
<g id="node11" class="node">
<title>Search</title>
<path fill="#141922" stroke="#1e2a3a" d="M898.5,-279C898.5,-279 849.5,-279 849.5,-279 843.5,-279 837.5,-273 837.5,-267 837.5,-267 837.5,-255 837.5,-255 837.5,-249 843.5,-243 849.5,-243 849.5,-243 898.5,-243 898.5,-243 904.5,-243 910.5,-249 910.5,-255 910.5,-255 910.5,-267 910.5,-267 910.5,-273 904.5,-279 898.5,-279"/>
<text text-anchor="middle" x="874" y="-264.05" font-family="Helvetica,sans-Serif" font-size="11.00" fill="#e0e6ed">Search</text>
<text text-anchor="middle" x="874" y="-250.55" font-family="Helvetica,sans-Serif" font-size="11.00" fill="#e0e6ed">T163&#45;T170</text>
</g>
<!-- ChatList&#45;&gt;Search -->
<g id="edge3" class="edge">
<title>ChatList&#45;&gt;Search</title>
<path fill="none" stroke="#7a8fa6" d="M488.8,-222.83C496.97,-224.71 505.47,-226.53 513.5,-228 624.37,-248.32 756.89,-256.38 825.92,-259.37"/>
<polygon fill="#7a8fa6" stroke="#7a8fa6" points="825.6,-262.86 835.74,-259.78 825.89,-255.87 825.6,-262.86"/>
<text text-anchor="middle" x="647.62" y="-253.52" font-family="Times,serif" font-size="9.00" fill="#7a8fa6">search&#45;button key</text>
</g>
<!-- MultiAcct -->
<g id="node12" class="node">
<title>MultiAcct</title>
<path fill="#141922" stroke="#1e2a3a" d="M1110,-611C1110,-611 1043.75,-611 1043.75,-611 1037.75,-611 1031.75,-605 1031.75,-599 1031.75,-599 1031.75,-587 1031.75,-587 1031.75,-581 1037.75,-575 1043.75,-575 1043.75,-575 1110,-575 1110,-575 1116,-575 1122,-581 1122,-587 1122,-587 1122,-599 1122,-599 1122,-605 1116,-611 1110,-611"/>
<text text-anchor="middle" x="1076.88" y="-596.05" font-family="Helvetica,sans-Serif" font-size="11.00" fill="#e0e6ed">Multi&#45;account</text>
<text text-anchor="middle" x="1076.88" y="-582.55" font-family="Helvetica,sans-Serif" font-size="11.00" fill="#e0e6ed">T171&#45;T176</text>
</g>
<!-- ChatList&#45;&gt;MultiAcct -->
<g id="edge4" class="edge">
<title>ChatList&#45;&gt;MultiAcct</title>
<path fill="none" stroke="#7a8fa6" d="M454.31,-230.23C465.64,-254.82 487.78,-299.42 513.5,-333 589.13,-431.75 609.37,-461.13 714.25,-528 809.15,-588.51 945.02,-596.49 1020.3,-595.6"/>
<polygon fill="#7a8fa6" stroke="#7a8fa6" points="1019.96,-599.11 1029.89,-595.43 1019.83,-592.11 1019.96,-599.11"/>
<text text-anchor="middle" x="760.75" y="-571.17" font-family="Times,serif" font-size="9.00" fill="#7a8fa6">account&#45;chooser</text>
</g>
<!-- Media -->
<g id="node4" class="node">
<title>Media</title>
<path fill="#141922" stroke="#1e2a3a" d="M891.75,-149C891.75,-149 856.25,-149 856.25,-149 850.25,-149 844.25,-143 844.25,-137 844.25,-137 844.25,-125 844.25,-125 844.25,-119 850.25,-113 856.25,-113 856.25,-113 891.75,-113 891.75,-113 897.75,-113 903.75,-119 903.75,-125 903.75,-125 903.75,-137 903.75,-137 903.75,-143 897.75,-149 891.75,-149"/>
<text text-anchor="middle" x="874" y="-134.05" font-family="Helvetica,sans-Serif" font-size="11.00" fill="#e0e6ed">Media</text>
<text text-anchor="middle" x="874" y="-120.55" font-family="Helvetica,sans-Serif" font-size="11.00" fill="#e0e6ed">T67&#45;T86</text>
</g>
<!-- ChatView&#45;&gt;Media -->
<g id="edge7" class="edge">
<title>ChatView&#45;&gt;Media</title>
<path fill="none" stroke="#7a8fa6" d="M675.1,-188.59C686.69,-181.23 700.71,-173.21 714.25,-167.75 753.09,-152.09 800.1,-142.25 832.84,-136.74"/>
<polygon fill="#7a8fa6" stroke="#7a8fa6" points="832.98,-140.26 842.29,-135.21 831.86,-133.35 832.98,-140.26"/>
<text text-anchor="middle" x="760.75" y="-170.45" font-family="Times,serif" font-size="9.00" fill="#7a8fa6">message&#45;bubble key</text>
</g>
<!-- Encryption -->
<g id="node5" class="node">
<title>Encryption</title>
<path fill="#141922" stroke="#1e2a3a" d="M1102.12,-166C1102.12,-166 1051.62,-166 1051.62,-166 1045.62,-166 1039.62,-160 1039.62,-154 1039.62,-154 1039.62,-142 1039.62,-142 1039.62,-136 1045.62,-130 1051.62,-130 1051.62,-130 1102.12,-130 1102.12,-130 1108.12,-130 1114.12,-136 1114.12,-142 1114.12,-142 1114.12,-154 1114.12,-154 1114.12,-160 1108.12,-166 1102.12,-166"/>
<text text-anchor="middle" x="1076.88" y="-151.05" font-family="Helvetica,sans-Serif" font-size="11.00" fill="#e0e6ed">Encryption</text>
<text text-anchor="middle" x="1076.88" y="-137.55" font-family="Helvetica,sans-Serif" font-size="11.00" fill="#e0e6ed">T87&#45;T100</text>
</g>
<!-- ChatView&#45;&gt;Encryption -->
<g id="edge8" class="edge">
<title>ChatView&#45;&gt;Encryption</title>
<path fill="none" stroke="#7a8fa6" d="M661.3,-188.59C673.31,-172.33 692.68,-148.95 714.25,-134 760.55,-101.91 776.9,-98.21 832.25,-87.75 868.72,-80.86 879.24,-81.11 915.75,-87.75 955.39,-94.96 997.99,-111.45 1029.27,-125.36"/>
<polygon fill="#7a8fa6" stroke="#7a8fa6" points="1027.5,-128.4 1038.05,-129.33 1030.39,-122.02 1027.5,-128.4"/>
<text text-anchor="middle" x="874" y="-90.45" font-family="Times,serif" font-size="9.00" fill="#7a8fa6">lock&#45;icon</text>
</g>
<!-- Calls -->
<g id="node6" class="node">
<title>Calls</title>
<path fill="#141922" stroke="#1e2a3a" d="M898.5,-403C898.5,-403 849.5,-403 849.5,-403 843.5,-403 837.5,-397 837.5,-391 837.5,-391 837.5,-379 837.5,-379 837.5,-373 843.5,-367 849.5,-367 849.5,-367 898.5,-367 898.5,-367 904.5,-367 910.5,-373 910.5,-379 910.5,-379 910.5,-391 910.5,-391 910.5,-397 904.5,-403 898.5,-403"/>
<text text-anchor="middle" x="874" y="-388.05" font-family="Helvetica,sans-Serif" font-size="11.00" fill="#e0e6ed">Calls</text>
<text text-anchor="middle" x="874" y="-374.55" font-family="Helvetica,sans-Serif" font-size="11.00" fill="#e0e6ed">T101&#45;T108</text>
</g>
<!-- ChatView&#45;&gt;Calls -->
<g id="edge9" class="edge">
<title>ChatView&#45;&gt;Calls</title>
<path fill="none" stroke="#7a8fa6" d="M675.38,-225.48C687.26,-233.65 701.42,-243.35 714.25,-252 755.38,-279.75 769.49,-281.57 807.25,-313.75 822.91,-327.1 838.6,-343.94 850.73,-357.9"/>
<polygon fill="#7a8fa6" stroke="#7a8fa6" points="848.01,-360.1 857.16,-365.44 853.33,-355.56 848.01,-360.1"/>
<text text-anchor="middle" x="760.75" y="-316.45" font-family="Times,serif" font-size="9.00" fill="#7a8fa6">call&#45;button</text>
</g>
<!-- RoomMgmt -->
<g id="node7" class="node">
<title>RoomMgmt</title>
<path fill="#141922" stroke="#1e2a3a" d="M903.75,-214C903.75,-214 844.25,-214 844.25,-214 838.25,-214 832.25,-208 832.25,-202 832.25,-202 832.25,-190 832.25,-190 832.25,-184 838.25,-178 844.25,-178 844.25,-178 903.75,-178 903.75,-178 909.75,-178 915.75,-184 915.75,-190 915.75,-190 915.75,-202 915.75,-202 915.75,-208 909.75,-214 903.75,-214"/>
<text text-anchor="middle" x="874" y="-199.05" font-family="Helvetica,sans-Serif" font-size="11.00" fill="#e0e6ed">Room mgmt</text>
<text text-anchor="middle" x="874" y="-185.55" font-family="Helvetica,sans-Serif" font-size="11.00" fill="#e0e6ed">T109&#45;T128</text>
</g>
<!-- ChatView&#45;&gt;RoomMgmt -->
<g id="edge10" class="edge">
<title>ChatView&#45;&gt;RoomMgmt</title>
<path fill="none" stroke="#7a8fa6" d="M685.05,-194.98C694.46,-192.4 704.64,-190.06 714.25,-188.75 749.52,-183.94 789.56,-185.82 820.6,-188.87"/>
<polygon fill="#7a8fa6" stroke="#7a8fa6" points="820.21,-192.34 830.53,-189.92 820.95,-185.38 820.21,-192.34"/>
<text text-anchor="middle" x="760.75" y="-191.45" font-family="Times,serif" font-size="9.00" fill="#7a8fa6">header&#45;tap</text>
</g>
<!-- ChatView&#45;&gt;Search -->
<g id="edge11" class="edge">
<title>ChatView&#45;&gt;Search</title>
<path fill="none" stroke="#7a8fa6" d="M685.37,-210.81C717.86,-214.74 766.32,-221.98 807.25,-233.75 813.56,-235.57 820.09,-237.8 826.47,-240.21"/>
<polygon fill="#7a8fa6" stroke="#7a8fa6" points="825.01,-243.39 835.6,-243.81 827.58,-236.88 825.01,-243.39"/>
<text text-anchor="middle" x="760.75" y="-236.45" font-family="Times,serif" font-size="9.00" fill="#7a8fa6">in&#45;room search</text>
</g>
<!-- Calls&#45;&gt;Notif -->
<g id="edge17" class="edge">
<title>Calls&#45;&gt;Notif</title>
<path fill="none" stroke="#7a8fa6" d="M910.87,-387.8C937.73,-390.57 975.14,-395.89 1006.75,-405.75 1015.24,-408.4 1024.01,-411.93 1032.33,-415.7"/>
<polygon fill="#7a8fa6" stroke="#7a8fa6" points="1030.67,-418.79 1041.21,-419.91 1033.67,-412.46 1030.67,-418.79"/>
<text text-anchor="middle" x="973.75" y="-408.45" font-family="Times,serif" font-size="9.00" fill="#7a8fa6">ringing</text>
</g>
<!-- RoomMgmt&#45;&gt;Encryption -->
<g id="edge12" class="edge">
<title>RoomMgmt&#45;&gt;Encryption</title>
<path fill="none" stroke="#7a8fa6" d="M916.13,-186.17C948.62,-178.41 994,-167.56 1028.09,-159.42"/>
<polygon fill="#7a8fa6" stroke="#7a8fa6" points="1028.8,-162.85 1037.71,-157.12 1027.17,-156.04 1028.8,-162.85"/>
<text text-anchor="middle" x="973.75" y="-181.8" font-family="Times,serif" font-size="9.00" fill="#7a8fa6">device&#45;list</text>
</g>
<!-- RoomMgmt&#45;&gt;Spaces -->
<g id="edge13" class="edge">
<title>RoomMgmt&#45;&gt;Spaces</title>
<path fill="none" stroke="#7a8fa6" d="M916.13,-205.42C948.93,-212.93 994.86,-223.45 1029.06,-231.28"/>
<polygon fill="#7a8fa6" stroke="#7a8fa6" points="1028.17,-234.67 1038.7,-233.49 1029.73,-227.84 1028.17,-234.67"/>
<text text-anchor="middle" x="973.75" y="-228.51" font-family="Times,serif" font-size="9.00" fill="#7a8fa6">space settings</text>
</g>
<!-- Settings -->
<g id="node9" class="node">
<title>Settings</title>
<path fill="#141922" stroke="#1e2a3a" d="M898.5,-558C898.5,-558 849.5,-558 849.5,-558 843.5,-558 837.5,-552 837.5,-546 837.5,-546 837.5,-534 837.5,-534 837.5,-528 843.5,-522 849.5,-522 849.5,-522 898.5,-522 898.5,-522 904.5,-522 910.5,-528 910.5,-534 910.5,-534 910.5,-546 910.5,-546 910.5,-552 904.5,-558 898.5,-558"/>
<text text-anchor="middle" x="874" y="-543.05" font-family="Helvetica,sans-Serif" font-size="11.00" fill="#e0e6ed">Settings</text>
<text text-anchor="middle" x="874" y="-529.55" font-family="Helvetica,sans-Serif" font-size="11.00" fill="#e0e6ed">T137&#45;T156</text>
</g>
<!-- Settings&#45;&gt;Encryption -->
<g id="edge14" class="edge">
<title>Settings&#45;&gt;Encryption</title>
<path fill="none" stroke="#7a8fa6" d="M897.69,-521.54C933.6,-492.1 1000.17,-436.55 1006.75,-424 1051.19,-339.18 997.35,-299.37 1031.75,-210 1036.51,-197.63 1044.31,-185.44 1052.04,-175.18"/>
<polygon fill="#7a8fa6" stroke="#7a8fa6" points="1054.63,-177.56 1058.09,-167.54 1049.14,-173.21 1054.63,-177.56"/>
<text text-anchor="middle" x="973.75" y="-487.95" font-family="Times,serif" font-size="9.00" fill="#7a8fa6">recovery key</text>
</g>
<!-- Settings&#45;&gt;Notif -->
<g id="edge15" class="edge">
<title>Settings&#45;&gt;Notif</title>
<path fill="none" stroke="#7a8fa6" d="M910.76,-533.49C938.23,-527.48 976.48,-516.89 1006.75,-500 1023.1,-490.88 1038.95,-477.35 1051.33,-465.35"/>
<polygon fill="#7a8fa6" stroke="#7a8fa6" points="1053.65,-467.98 1058.25,-458.43 1048.7,-463.03 1053.65,-467.98"/>
<text text-anchor="middle" x="973.75" y="-527.71" font-family="Times,serif" font-size="9.00" fill="#7a8fa6">rules</text>
</g>
<!-- Settings&#45;&gt;MultiAcct -->
<g id="edge16" class="edge">
<title>Settings&#45;&gt;MultiAcct</title>
<path fill="none" stroke="#7a8fa6" d="M910.91,-549.48C941.36,-557.51 985.52,-569.16 1020.5,-578.39"/>
<polygon fill="#7a8fa6" stroke="#7a8fa6" points="1019.47,-581.74 1030.04,-580.91 1021.26,-574.97 1019.47,-581.74"/>
<text text-anchor="middle" x="973.75" y="-577.04" font-family="Times,serif" font-size="9.00" fill="#7a8fa6">device list</text>
</g>
<!-- Responsive -->
<g id="node13" class="node">
<title>Responsive</title>
<path fill="#141922" stroke="#1e2a3a" d="M260.5,-153C260.5,-153 205.5,-153 205.5,-153 199.5,-153 193.5,-147 193.5,-141 193.5,-141 193.5,-129 193.5,-129 193.5,-123 199.5,-117 205.5,-117 205.5,-117 260.5,-117 260.5,-117 266.5,-117 272.5,-123 272.5,-129 272.5,-129 272.5,-141 272.5,-141 272.5,-147 266.5,-153 260.5,-153"/>
<text text-anchor="middle" x="233" y="-138.05" font-family="Helvetica,sans-Serif" font-size="11.00" fill="#e0e6ed">Responsive</text>
<text text-anchor="middle" x="233" y="-124.55" font-family="Helvetica,sans-Serif" font-size="11.00" fill="#e0e6ed">T177&#45;T188</text>
</g>
<!-- Responsive&#45;&gt;ChatList -->
<g id="edge24" class="edge">
<title>Responsive&#45;&gt;ChatList</title>
<path fill="none" stroke="#7a8fa6" d="M272.56,-149.12C305.8,-161.29 354.1,-178.99 391.02,-192.51"/>
<polygon fill="#7a8fa6" stroke="#7a8fa6" points="389.58,-195.7 400.17,-195.86 391.98,-189.13 389.58,-195.7"/>
<text text-anchor="middle" x="337.25" y="-189.79" font-family="Times,serif" font-size="9.00" fill="#7a8fa6">layout pivot</text>
</g>
<!-- Responsive&#45;&gt;ChatView -->
<g id="edge25" class="edge">
<title>Responsive&#45;&gt;ChatView</title>
<path fill="none" stroke="#7a8fa6" d="M272.86,-139.73C301.64,-143.27 341.78,-148.3 377,-153 426.61,-159.63 439.34,-159.36 488.5,-168.75 525.93,-175.9 567.83,-186.14 599.09,-194.23"/>
<polygon fill="#7a8fa6" stroke="#7a8fa6" points="598.08,-197.58 608.64,-196.72 599.84,-190.81 598.08,-197.58"/>
<text text-anchor="middle" x="445.25" y="-171.45" font-family="Times,serif" font-size="9.00" fill="#7a8fa6">layout pivot</text>
</g>
<!-- Cross -->
<g id="node14" class="node">
<title>Cross</title>
<path fill="#1e2a3a" stroke="#f5a623" d="M75.25,-271C75.25,-271 12,-271 12,-271 6,-271 0,-265 0,-259 0,-259 0,-247 0,-247 0,-241 6,-235 12,-235 12,-235 75.25,-235 75.25,-235 81.25,-235 87.25,-241 87.25,-247 87.25,-247 87.25,-259 87.25,-259 87.25,-265 81.25,-271 75.25,-271"/>
<text text-anchor="middle" x="43.62" y="-256.05" font-family="Helvetica,sans-Serif" font-size="11.00" fill="#e0e6ed">Cross&#45;screen</text>
<text text-anchor="middle" x="43.62" y="-242.55" font-family="Helvetica,sans-Serif" font-size="11.00" fill="#e0e6ed">T189&#45;T196</text>
</g>
<!-- Cross&#45;&gt;Login -->
<g id="edge18" class="edge">
<title>Cross&#45;&gt;Login</title>
<path fill="none" stroke="#7a8fa6" d="M87.53,-241.96C95.73,-239.88 104.25,-237.73 112.25,-235.75 135.93,-229.89 162.29,-223.54 184.24,-218.3"/>
<polygon fill="#7a8fa6" stroke="#7a8fa6" points="184.89,-221.75 193.81,-216.02 183.27,-214.94 184.89,-221.75"/>
<text text-anchor="middle" x="140.38" y="-238.45" font-family="Times,serif" font-size="9.00" fill="#7a8fa6">full lifecycle</text>
</g>
<!-- Cross&#45;&gt;ChatList -->
<g id="edge19" class="edge">
<title>Cross&#45;&gt;ChatList</title>
<path fill="none" stroke="#7a8fa6" d="M87.74,-252.74C151.46,-251.72 274.33,-247.28 377,-229 381.53,-228.19 386.22,-227.25 390.9,-226.22"/>
<polygon fill="#7a8fa6" stroke="#7a8fa6" points="391.33,-229.72 400.28,-224.06 389.75,-222.89 391.33,-229.72"/>
</g>
<!-- Cross&#45;&gt;ChatView -->
<g id="edge20" class="edge">
<title>Cross&#45;&gt;ChatView</title>
<path fill="none" stroke="#7a8fa6" d="M55.08,-234.66C75.48,-200.97 124.22,-130.19 187.75,-103 281.7,-62.79 437.83,-110.48 581,-167 591.41,-171.11 602.04,-176.82 611.63,-182.64"/>
<polygon fill="#7a8fa6" stroke="#7a8fa6" points="609.6,-185.49 619.92,-187.87 613.33,-179.57 609.6,-185.49"/>
</g>
<!-- Cross&#45;&gt;Encryption -->
<g id="edge21" class="edge">
<title>Cross&#45;&gt;Encryption</title>
<path fill="none" stroke="#7a8fa6" d="M48.66,-234.8C62.68,-176.79 115.03,0 232,0 232,0 232,0 875,0 955.34,0 1024.71,-77.69 1056.83,-120.49"/>
<polygon fill="#7a8fa6" stroke="#7a8fa6" points="1053.84,-122.33 1062.57,-128.33 1059.49,-118.2 1053.84,-122.33"/>
</g>
<!-- Cross&#45;&gt;Calls -->
<g id="edge22" class="edge">
<title>Cross&#45;&gt;Calls</title>
<path fill="none" stroke="#7a8fa6" d="M71.04,-271.26C76.7,-275.75 82.42,-280.78 87.25,-286 166.77,-371.88 114.96,-506 232,-506 232,-506 232,-506 648.62,-506 728.04,-506 806.35,-446.56 846.1,-411"/>
<polygon fill="#7a8fa6" stroke="#7a8fa6" points="848.3,-413.73 853.32,-404.4 843.58,-408.56 848.3,-413.73"/>
</g>
<!-- Cross&#45;&gt;Settings -->
<g id="edge23" class="edge">
<title>Cross&#45;&gt;Settings</title>
<path fill="none" stroke="#7a8fa6" d="M74.48,-271.45C79.39,-275.68 83.94,-280.56 87.25,-286 119.4,-338.89 92.92,-364.2 112.25,-423 150.09,-538.14 110.8,-668 232,-668 232,-668 232,-668 648.62,-668 729.93,-668 808.6,-603.81 847.6,-566.34"/>
<polygon fill="#7a8fa6" stroke="#7a8fa6" points="849.99,-568.9 854.67,-559.4 845.08,-563.91 849.99,-568.9"/>
</g>
<!-- Misc -->
<g id="node15" class="node">
<title>Misc</title>
<path fill="#141922" stroke="#1e2a3a" d="M74.12,-336C74.12,-336 13.12,-336 13.12,-336 7.12,-336 1.12,-330 1.12,-324 1.12,-324 1.12,-312 1.12,-312 1.12,-306 7.12,-300 13.12,-300 13.12,-300 74.12,-300 74.12,-300 80.12,-300 86.12,-306 86.12,-312 86.12,-312 86.12,-324 86.12,-324 86.12,-330 80.12,-336 74.12,-336"/>
<text text-anchor="middle" x="43.62" y="-321.05" font-family="Helvetica,sans-Serif" font-size="11.00" fill="#e0e6ed">Misc/custom</text>
<text text-anchor="middle" x="43.62" y="-307.55" font-family="Helvetica,sans-Serif" font-size="11.00" fill="#e0e6ed">T197&#45;T200</text>
</g>
</g>
</svg>
