<?xml version="1.0" encoding="UTF-8" standalone="no"?>
<!DOCTYPE svg PUBLIC "-//W3C//DTD SVG 1.1//EN"
 "http://www.w3.org/Graphics/SVG/1.1/DTD/svg11.dtd">
<!-- Generated by graphviz version 12.2.1 (0)
 -->
<!-- Title: G10DispatcherFixed Pages: 1 -->
<svg width="1240pt" height="328pt"
 viewBox="0.00 0.00 1240.00 327.50" xmlns="http://www.w3.org/2000/svg" xmlns:xlink="http://www.w3.org/1999/xlink">
<g id="graph0" class="graph" transform="scale(1 1) rotate(0) translate(4 323.5)">
<title>G10DispatcherFixed</title>
<polygon fill="#fafafa" stroke="none" points="-4,4 -4,-323.5 1236,-323.5 1236,4 -4,4"/>
<text text-anchor="middle" x="616" y="-300.3" font-family="Helvetica,sans-Serif" font-size="16.00">G10 — Post&#45;Pass&#45;10 Dispatcher Fixed (commit 106862017d)</text>
<g id="clust1" class="cluster">
<title>cluster_workers</title>
<path fill="#e8f5e9" stroke="#1b5e20" d="M313.38,-8C313.38,-8 785.5,-8 785.5,-8 791.5,-8 797.5,-14 797.5,-20 797.5,-20 797.5,-184 797.5,-184 797.5,-190 791.5,-196 785.5,-196 785.5,-196 313.38,-196 313.38,-196 307.38,-196 301.38,-190 301.38,-184 301.38,-184 301.38,-20 301.38,-20 301.38,-14 307.38,-8 313.38,-8"/>
<text text-anchor="middle" x="549.44" y="-176.8" font-family="Helvetica,sans-Serif" font-size="16.00">workers.rs (AUTHORITATIVE — Pass&#45;10 fix)</text>
</g>
<g id="clust2" class="cluster">
<title>cluster_sched</title>
<path fill="#f3e5f5" stroke="#6a1b9a" d="M12,-204C12,-204 472,-204 472,-204 478,-204 484,-210 484,-216 484,-216 484,-272 484,-272 484,-278 478,-284 472,-284 472,-284 12,-284 12,-284 6,-284 0,-278 0,-272 0,-272 0,-216 0,-216 0,-210 6,-204 12,-204"/>
<text text-anchor="middle" x="242" y="-264.8" font-family="Helvetica,sans-Serif" font-size="16.00">scheduler.rs (legacy — still has handler for legacy callers)</text>
</g>
<!-- oban -->
<g id="node1" class="node">
<title>oban</title>
<path fill="#fce4ec" stroke="#ad1457" d="M196.88,-106.84C196.88,-109.15 171.1,-111.03 139.38,-111.03 107.65,-111.03 81.88,-109.15 81.88,-106.84 81.88,-106.84 81.88,-69.16 81.88,-69.16 81.88,-66.85 107.65,-64.97 139.38,-64.97 171.1,-64.97 196.88,-66.85 196.88,-69.16 196.88,-69.16 196.88,-106.84 196.88,-106.84"/>
<path fill="none" stroke="#ad1457" d="M196.88,-106.84C196.88,-104.53 171.1,-102.66 139.38,-102.66 107.65,-102.66 81.88,-104.53 81.88,-106.84"/>
<text text-anchor="middle" x="139.38" y="-91.25" font-family="Helvetica,sans-Serif" font-size="10.00">oban_jobs table</text>
<text text-anchor="middle" x="139.38" y="-78.5" font-family="Helvetica,sans-Serif" font-size="10.00">worker=&#39;gleam_run&#39;</text>
</g>
<!-- workers_disp -->
<g id="node2" class="node">
<title>workers_disp</title>
<path fill="#a5d6a7" stroke="black" d="M398.88,-106C398.88,-106 321.38,-106 321.38,-106 315.38,-106 309.38,-100 309.38,-94 309.38,-94 309.38,-82 309.38,-82 309.38,-76 315.38,-70 321.38,-70 321.38,-70 398.88,-70 398.88,-70 404.88,-70 410.88,-76 410.88,-82 410.88,-82 410.88,-94 410.88,-94 410.88,-100 404.88,-106 398.88,-106"/>
<text text-anchor="middle" x="360.12" y="-84.88" font-family="Helvetica,sans-Serif" font-size="10.00">workers::dispatch</text>
</g>
<!-- oban&#45;&gt;workers_disp -->
<g id="edge6" class="edge">
<title>oban&#45;&gt;workers_disp</title>
<path fill="none" stroke="#1b5e20" stroke-width="2" d="M197.28,-88C227.63,-88 265.04,-88 296.25,-88"/>
<polygon fill="#1b5e20" stroke="#1b5e20" stroke-width="2" points="296.18,-91.5 306.18,-88 296.18,-84.5 296.18,-91.5"/>
<text text-anchor="middle" x="253.12" y="-90.7" font-family="Helvetica,sans-Serif" font-size="9.00">claim → dispatch</text>
</g>
<!-- http_h -->
<g id="node3" class="node">
<title>http_h</title>
<path fill="#c8e6c9" stroke="black" d="M608.62,-52C608.62,-52 552.88,-52 552.88,-52 546.88,-52 540.88,-46 540.88,-40 540.88,-40 540.88,-28 540.88,-28 540.88,-22 546.88,-16 552.88,-16 552.88,-16 608.62,-16 608.62,-16 614.62,-16 620.62,-22 620.62,-28 620.62,-28 620.62,-40 620.62,-40 620.62,-46 614.62,-52 608.62,-52"/>
<text text-anchor="middle" x="580.75" y="-30.88" font-family="Helvetica,sans-Serif" font-size="10.00">http_probe ✓</text>
</g>
<!-- workers_disp&#45;&gt;http_h -->
<g id="edge1" class="edge">
<title>workers_disp&#45;&gt;http_h</title>
<path fill="none" stroke="#2e7d32" d="M411.28,-75.61C446.77,-66.84 494.17,-55.14 529.65,-46.37"/>
<polygon fill="#2e7d32" stroke="#2e7d32" points="530.38,-49.8 539.25,-44 528.7,-43 530.38,-49.8"/>
</g>
<!-- file_h -->
<g id="node4" class="node">
<title>file_h</title>
<path fill="#c8e6c9" stroke="black" d="M606.75,-106C606.75,-106 554.75,-106 554.75,-106 548.75,-106 542.75,-100 542.75,-94 542.75,-94 542.75,-82 542.75,-82 542.75,-76 548.75,-70 554.75,-70 554.75,-70 606.75,-70 606.75,-70 612.75,-70 618.75,-76 618.75,-82 618.75,-82 618.75,-94 618.75,-94 618.75,-100 612.75,-106 606.75,-106"/>
<text text-anchor="middle" x="580.75" y="-84.88" font-family="Helvetica,sans-Serif" font-size="10.00">file_check ✓</text>
</g>
<!-- workers_disp&#45;&gt;file_h -->
<g id="edge2" class="edge">
<title>workers_disp&#45;&gt;file_h</title>
<path fill="none" stroke="#2e7d32" d="M411.28,-88C447.34,-88 495.69,-88 531.35,-88"/>
<polygon fill="#2e7d32" stroke="#2e7d32" points="530.93,-91.5 540.93,-88 530.93,-84.5 530.93,-91.5"/>
</g>
<!-- gleam_h -->
<g id="node5" class="node">
<title>gleam_h</title>
<path fill="#66bb6a" stroke="#1b5e20" stroke-width="2" d="M628.5,-160C628.5,-160 533,-160 533,-160 527,-160 521,-154 521,-148 521,-148 521,-136 521,-136 521,-130 527,-124 533,-124 533,-124 628.5,-124 628.5,-124 634.5,-124 640.5,-130 640.5,-136 640.5,-136 640.5,-148 640.5,-148 640.5,-154 634.5,-160 628.5,-160"/>
<text text-anchor="middle" x="580.75" y="-145.25" font-family="Helvetica,sans-Serif" font-size="10.00" fill="white">gleam_run ✓</text>
<text text-anchor="middle" x="580.75" y="-132.5" font-family="Helvetica,sans-Serif" font-size="10.00" fill="white">★ NEW match arm ★</text>
</g>
<!-- workers_disp&#45;&gt;gleam_h -->
<g id="edge3" class="edge">
<title>workers_disp&#45;&gt;gleam_h</title>
<path fill="none" stroke="#1b5e20" stroke-width="3" d="M411.28,-100.39C439.38,-107.33 474.93,-116.11 506.13,-123.82"/>
<polygon fill="#1b5e20" stroke="#1b5e20" stroke-width="3" points="505.16,-127.18 515.71,-126.18 506.84,-120.39 505.16,-127.18"/>
</g>
<!-- runproc -->
<g id="node6" class="node">
<title>runproc</title>
<path fill="#a5d6a7" stroke="black" d="M777.5,-160C777.5,-160 689.5,-160 689.5,-160 683.5,-160 677.5,-154 677.5,-148 677.5,-148 677.5,-136 677.5,-136 677.5,-130 683.5,-124 689.5,-124 689.5,-124 777.5,-124 777.5,-124 783.5,-124 789.5,-130 789.5,-136 789.5,-136 789.5,-148 789.5,-148 789.5,-154 783.5,-160 777.5,-160"/>
<text text-anchor="middle" x="733.5" y="-145.25" font-family="Helvetica,sans-Serif" font-size="10.00">process_runner::run</text>
<text text-anchor="middle" x="733.5" y="-132.5" font-family="Helvetica,sans-Serif" font-size="10.00">+ telemetry</text>
</g>
<!-- gleam_h&#45;&gt;runproc -->
<g id="edge4" class="edge">
<title>gleam_h&#45;&gt;runproc</title>
<path fill="none" stroke="#1b5e20" stroke-width="2" d="M641.33,-142C648.92,-142 656.74,-142 664.45,-142"/>
<polygon fill="#1b5e20" stroke="#1b5e20" stroke-width="2" points="664.25,-145.5 674.25,-142 664.25,-138.5 664.25,-145.5"/>
</g>
<!-- ok -->
<g id="node9" class="node">
<title>ok</title>
<path fill="#c8e6c9" stroke="#1b5e20" d="M962.25,-160.84C962.25,-163.15 938.33,-165.03 908.88,-165.03 879.42,-165.03 855.5,-163.15 855.5,-160.84 855.5,-160.84 855.5,-123.16 855.5,-123.16 855.5,-120.85 879.42,-118.97 908.88,-118.97 938.33,-118.97 962.25,-120.85 962.25,-123.16 962.25,-123.16 962.25,-160.84 962.25,-160.84"/>
<path fill="none" stroke="#1b5e20" d="M962.25,-160.84C962.25,-158.53 938.33,-156.66 908.88,-156.66 879.42,-156.66 855.5,-158.53 855.5,-160.84"/>
<text text-anchor="middle" x="908.88" y="-145.25" font-family="Helvetica,sans-Serif" font-size="10.00">mark_completed</text>
<text text-anchor="middle" x="908.88" y="-132.5" font-family="Helvetica,sans-Serif" font-size="10.00">state=&#39;completed&#39;</text>
</g>
<!-- runproc&#45;&gt;ok -->
<g id="edge7" class="edge">
<title>runproc&#45;&gt;ok</title>
<path fill="none" stroke="#2e7d32" stroke-width="2" d="M789.83,-142C806.5,-142 824.95,-142 842.21,-142"/>
<polygon fill="#2e7d32" stroke="#2e7d32" stroke-width="2" points="842.11,-145.5 852.11,-142 842.11,-138.5 842.11,-145.5"/>
<text text-anchor="middle" x="822.5" y="-144.7" font-family="Helvetica,sans-Serif" font-size="9.00">exit=0</text>
</g>
<!-- sched_disp -->
<g id="node7" class="node">
<title>sched_disp</title>
<path fill="#e1bee7" stroke="black" d="M183.38,-248C183.38,-248 95.38,-248 95.38,-248 89.38,-248 83.38,-242 83.38,-236 83.38,-236 83.38,-224 83.38,-224 83.38,-218 89.38,-212 95.38,-212 95.38,-212 183.38,-212 183.38,-212 189.38,-212 195.38,-218 195.38,-224 195.38,-224 195.38,-236 195.38,-236 195.38,-242 189.38,-248 183.38,-248"/>
<text text-anchor="middle" x="139.38" y="-226.88" font-family="Helvetica,sans-Serif" font-size="10.00">dispatch (workflow)</text>
</g>
<!-- gleam_in_sched -->
<g id="node8" class="node">
<title>gleam_in_sched</title>
<path fill="#ce93d8" stroke="black" d="M387.62,-248C387.62,-248 332.62,-248 332.62,-248 326.62,-248 320.62,-242 320.62,-236 320.62,-236 320.62,-224 320.62,-224 320.62,-218 326.62,-212 332.62,-212 332.62,-212 387.62,-212 387.62,-212 393.62,-212 399.62,-218 399.62,-224 399.62,-224 399.62,-236 399.62,-236 399.62,-242 393.62,-248 387.62,-248"/>
<text text-anchor="middle" x="360.12" y="-233.25" font-family="Helvetica,sans-Serif" font-size="10.00">gleam_run ✓</text>
<text text-anchor="middle" x="360.12" y="-220.5" font-family="Helvetica,sans-Serif" font-size="10.00">(parity)</text>
</g>
<!-- sched_disp&#45;&gt;gleam_in_sched -->
<g id="edge5" class="edge">
<title>sched_disp&#45;&gt;gleam_in_sched</title>
<path fill="none" stroke="black" d="M195.86,-230C230.62,-230 275.06,-230 308.8,-230"/>
<polygon fill="black" stroke="black" points="308.74,-233.5 318.74,-230 308.74,-226.5 308.74,-233.5"/>
</g>
<!-- note -->
<g id="node10" class="node">
<title>note</title>
<polygon fill="#dcedc8" stroke="#558b2f" points="1226,-171.5 999.25,-171.5 999.25,-112.5 1232,-112.5 1232,-165.5 1226,-171.5"/>
<polyline fill="none" stroke="#558b2f" points="1226,-171.5 1226,-165.5"/>
<polyline fill="none" stroke="#558b2f" points="1232,-165.5 1226,-165.5"/>
<text text-anchor="middle" x="1115.62" y="-158" font-family="Helvetica,sans-Serif" font-size="10.00">Pass&#45;10 commit: 106862017d</text>
<text text-anchor="middle" x="1115.62" y="-145.25" font-family="Helvetica,sans-Serif" font-size="10.00">• Added gleam_run match arm to workers.rs</text>
<text text-anchor="middle" x="1115.62" y="-132.5" font-family="Helvetica,sans-Serif" font-size="10.00">• Both dispatchers now have parity</text>
<text text-anchor="middle" x="1115.62" y="-119.75" font-family="Helvetica,sans-Serif" font-size="10.00">• workers.rs is authoritative for oban path</text>
</g>
<!-- ok&#45;&gt;note -->
</g>
</svg>
