<?xml version="1.0" encoding="UTF-8" standalone="no"?>
<!DOCTYPE svg PUBLIC "-//W3C//DTD SVG 1.1//EN"
 "http://www.w3.org/Graphics/SVG/1.1/DTD/svg11.dtd">
<!-- Generated by graphviz version 12.2.1 (0)
 -->
<!-- Title: G11StateMachineFull Pages: 1 -->
<svg width="812pt" height="663pt"
 viewBox="0.00 0.00 811.70 662.56" xmlns="http://www.w3.org/2000/svg" xmlns:xlink="http://www.w3.org/1999/xlink">
<g id="graph0" class="graph" transform="scale(1 1) rotate(0) translate(4 658.56)">
<title>G11StateMachineFull</title>
<polygon fill="#fafafa" stroke="none" points="-4,4 -4,-658.56 807.7,-658.56 807.7,4 -4,4"/>
<text text-anchor="middle" x="401.85" y="-635.36" font-family="Helvetica,sans-Serif" font-size="16.00">G11 — Consolidated 8&#45;State oban_jobs Lifecycle (Pass&#45;9 + Pass&#45;10 paths)</text>
<g id="clust1" class="cluster">
<title>cluster_legend</title>
<path fill="#fff8e1" stroke="#fbc02d" d="M633.7,-463.06C633.7,-463.06 783.7,-463.06 783.7,-463.06 789.7,-463.06 795.7,-469.06 795.7,-475.06 795.7,-475.06 795.7,-607.06 795.7,-607.06 795.7,-613.06 789.7,-619.06 783.7,-619.06 783.7,-619.06 633.7,-619.06 633.7,-619.06 627.7,-619.06 621.7,-613.06 621.7,-607.06 621.7,-607.06 621.7,-475.06 621.7,-475.06 621.7,-469.06 627.7,-463.06 633.7,-463.06"/>
<text text-anchor="middle" x="708.7" y="-605.56" font-family="Helvetica,sans-Serif" font-size="10.00">Pass annotations</text>
</g>
<!-- scheduled -->
<g id="node1" class="node">
<title>scheduled</title>
<ellipse fill="#bbdefb" stroke="black" cx="529.7" cy="-572.31" rx="40.08" ry="18"/>
<text text-anchor="middle" x="529.7" y="-569.18" font-family="Helvetica,sans-Serif" font-size="10.00">scheduled</text>
</g>
<!-- available -->
<g id="node2" class="node">
<title>available</title>
<ellipse fill="#90caf9" stroke="black" cx="428.7" cy="-489.06" rx="37.32" ry="18"/>
<text text-anchor="middle" x="428.7" y="-485.93" font-family="Helvetica,sans-Serif" font-size="10.00">available</text>
</g>
<!-- scheduled&#45;&gt;available -->
<g id="edge1" class="edge">
<title>scheduled&#45;&gt;available</title>
<path fill="none" stroke="black" d="M510.7,-556.03C495.23,-543.58 473.18,-525.84 455.85,-511.9"/>
<polygon fill="black" stroke="black" points="458.44,-509.49 448.45,-505.95 454.05,-514.94 458.44,-509.49"/>
<text text-anchor="middle" x="535.12" y="-527.76" font-family="Helvetica,sans-Serif" font-size="9.00">scheduled_at ≤ now()</text>
</g>
<!-- cancelled -->
<g id="node8" class="node">
<title>cancelled</title>
<ellipse fill="#cfd8dc" stroke="black" cx="521.7" cy="-261.35" rx="38.24" ry="38.24"/>
<ellipse fill="none" stroke="black" cx="521.7" cy="-261.35" rx="42.24" ry="42.24"/>
<text text-anchor="middle" x="521.7" y="-258.23" font-family="Helvetica,sans-Serif" font-size="10.00">cancelled</text>
</g>
<!-- scheduled&#45;&gt;cancelled -->
<g id="edge12" class="edge">
<title>scheduled&#45;&gt;cancelled</title>
<path fill="none" stroke="black" d="M560.1,-560.37C570.78,-554.88 581.63,-547.06 587.7,-536.31 590.16,-531.95 588.18,-530.04 587.7,-525.06 580.78,-453.07 575.27,-435.21 556.7,-365.31 552.01,-347.65 545.86,-328.62 540.03,-311.79"/>
<polygon fill="black" stroke="black" points="543.38,-310.78 536.76,-302.51 536.78,-313.11 543.38,-310.78"/>
<text text-anchor="middle" x="604.07" y="-433.26" font-family="Helvetica,sans-Serif" font-size="9.00">user cancel</text>
</g>
<!-- executing -->
<g id="node3" class="node">
<title>executing</title>
<ellipse fill="#fff59d" stroke="#f57f17" stroke-width="2" cx="238.7" cy="-383.31" rx="38.7" ry="18"/>
<text text-anchor="middle" x="238.7" y="-380.18" font-family="Helvetica,sans-Serif" font-size="10.00">executing</text>
</g>
<!-- available&#45;&gt;executing -->
<g id="edge2" class="edge">
<title>available&#45;&gt;executing</title>
<path fill="none" stroke="#1565c0" stroke-width="2" d="M395.34,-480.74C376.48,-475.39 353.3,-466.64 335.95,-453.06 321.61,-441.83 326.58,-431.11 312.7,-419.31 303.65,-411.62 292.63,-405.22 281.88,-400.09"/>
<polygon fill="#1565c0" stroke="#1565c0" stroke-width="2" points="283.32,-396.89 272.76,-396.05 280.49,-403.3 283.32,-396.89"/>
<text text-anchor="middle" x="375.33" y="-433.26" font-family="Helvetica,sans-Serif" font-size="9.00">claim_next_jobs()</text>
</g>
<!-- available&#45;&gt;cancelled -->
<g id="edge11" class="edge">
<title>available&#45;&gt;cancelled</title>
<path fill="none" stroke="black" d="M440.46,-471.64C458.01,-446.27 490.82,-395.43 507.7,-347.31 511.3,-337.05 513.98,-325.76 515.98,-314.86"/>
<polygon fill="black" stroke="black" points="519.4,-315.62 517.58,-305.19 512.5,-314.48 519.4,-315.62"/>
<text text-anchor="middle" x="526.56" y="-380.38" font-family="Helvetica,sans-Serif" font-size="9.00">user cancel</text>
</g>
<!-- executing&#45;&gt;available -->
<g id="edge6" class="edge">
<title>executing&#45;&gt;available</title>
<path fill="none" stroke="#6a1b9a" stroke-width="2" stroke-dasharray="5,2" d="M225.17,-401.04C214.68,-416.16 203.87,-438.23 216.45,-453.06 236.81,-477.05 322.31,-484.62 378.39,-486.99"/>
<polygon fill="#6a1b9a" stroke="#6a1b9a" stroke-width="2" points="378.11,-490.49 388.24,-487.36 378.37,-483.49 378.11,-490.49"/>
<text text-anchor="middle" x="262.58" y="-444.51" font-family="Helvetica,sans-Serif" font-size="9.00" fill="#4a148c">★Pass&#45;9★</text>
<text text-anchor="middle" x="262.58" y="-433.26" font-family="Helvetica,sans-Serif" font-size="9.00" fill="#4a148c">lifeline_reset_stuck()</text>
<text text-anchor="middle" x="262.58" y="-422.01" font-family="Helvetica,sans-Serif" font-size="9.00" fill="#4a148c">stuck &gt; 5min</text>
</g>
<!-- completed -->
<g id="node4" class="node">
<title>completed</title>
<ellipse fill="#a5d6a7" stroke="#1b5e20" cx="355.7" cy="-261.35" rx="41.45" ry="41.45"/>
<ellipse fill="none" stroke="#1b5e20" cx="355.7" cy="-261.35" rx="45.45" ry="45.45"/>
<text text-anchor="middle" x="355.7" y="-258.23" font-family="Helvetica,sans-Serif" font-size="10.00">completed</text>
</g>
<!-- executing&#45;&gt;completed -->
<g id="edge3" class="edge">
<title>executing&#45;&gt;completed</title>
<path fill="none" stroke="#2e7d32" stroke-width="2" d="M241.49,-364.39C244.23,-352.01 249.5,-335.85 259.45,-324.81 271.76,-311.15 281,-316.39 296.7,-306.81 301.2,-304.06 305.77,-301.06 310.27,-297.94"/>
<polygon fill="#2e7d32" stroke="#2e7d32" stroke-width="2" points="312.05,-300.98 318.15,-292.31 307.98,-295.28 312.05,-300.98"/>
<text text-anchor="middle" x="301.08" y="-338.76" font-family="Helvetica,sans-Serif" font-size="9.00">mark_completed()</text>
<text text-anchor="middle" x="301.08" y="-327.51" font-family="Helvetica,sans-Serif" font-size="9.00">exit=0</text>
</g>
<!-- failed -->
<g id="node5" class="node">
<title>failed</title>
<ellipse fill="#ffab91" stroke="black" cx="59.7" cy="-261.35" rx="27" ry="18"/>
<text text-anchor="middle" x="59.7" y="-258.23" font-family="Helvetica,sans-Serif" font-size="10.00">failed</text>
</g>
<!-- executing&#45;&gt;failed -->
<g id="edge4" class="edge">
<title>executing&#45;&gt;failed</title>
<path fill="none" stroke="black" d="M200.77,-378.17C175.25,-373.84 141.93,-365.06 117.45,-347.31 96.96,-332.45 81.44,-307.95 71.67,-289.07"/>
<polygon fill="black" stroke="black" points="74.94,-287.78 67.39,-280.35 68.66,-290.87 74.94,-287.78"/>
<text text-anchor="middle" x="147.08" y="-338.76" font-family="Helvetica,sans-Serif" font-size="9.00">mark_failed()</text>
<text text-anchor="middle" x="147.08" y="-327.51" font-family="Helvetica,sans-Serif" font-size="9.00">exit≠0</text>
</g>
<!-- retryable -->
<g id="node6" class="node">
<title>retryable</title>
<ellipse fill="#ffcc80" stroke="black" cx="168.7" cy="-150.65" rx="36.86" ry="18"/>
<text text-anchor="middle" x="168.7" y="-147.53" font-family="Helvetica,sans-Serif" font-size="10.00">retryable</text>
</g>
<!-- executing&#45;&gt;retryable -->
<g id="edge5" class="edge">
<title>executing&#45;&gt;retryable</title>
<path fill="none" stroke="#f57f17" stroke-width="2" d="M228.07,-365.25C219.24,-350.35 206.98,-327.86 199.7,-306.81 181.93,-255.42 187.87,-239.86 176.7,-186.65 176.34,-184.91 175.95,-183.13 175.56,-181.33"/>
<polygon fill="#f57f17" stroke="#f57f17" stroke-width="2" points="179,-180.66 173.39,-171.67 172.17,-182.19 179,-180.66"/>
<text text-anchor="middle" x="250.7" y="-269.68" font-family="Helvetica,sans-Serif" font-size="9.00" fill="#e65100">★Pass&#45;10★</text>
<text text-anchor="middle" x="250.7" y="-258.43" font-family="Helvetica,sans-Serif" font-size="9.00" fill="#e65100">unknown_worker error</text>
<text text-anchor="middle" x="250.7" y="-247.18" font-family="Helvetica,sans-Serif" font-size="9.00" fill="#e65100">or process_runner err</text>
</g>
<!-- executing&#45;&gt;cancelled -->
<g id="edge13" class="edge">
<title>executing&#45;&gt;cancelled</title>
<path fill="none" stroke="black" d="M273.68,-374.79C294.72,-369.26 321.45,-360.4 342.7,-347.31 354.81,-339.85 353.56,-332.6 365.45,-324.81 366.67,-324.01 426.82,-300.04 472.12,-282.04"/>
<polygon fill="black" stroke="black" points="473.29,-285.34 481.29,-278.4 470.7,-278.84 473.29,-285.34"/>
<text text-anchor="middle" x="386.08" y="-333.13" font-family="Helvetica,sans-Serif" font-size="9.00">kill signal</text>
</g>
<!-- failed&#45;&gt;retryable -->
<g id="edge7" class="edge">
<title>failed&#45;&gt;retryable</title>
<path fill="none" stroke="black" d="M54.9,-243.36C51.41,-227.16 49.15,-202.89 61.2,-186.65 65.33,-181.08 97.63,-171 125.76,-163.09"/>
<polygon fill="black" stroke="black" points="126.5,-166.51 135.2,-160.47 124.63,-159.77 126.5,-166.51"/>
<text text-anchor="middle" x="118.95" y="-189.35" font-family="Helvetica,sans-Serif" font-size="9.00">attempt &lt; max_attempts</text>
</g>
<!-- discarded -->
<g id="node7" class="node">
<title>discarded</title>
<ellipse fill="#ef9a9a" stroke="#b71c1c" cx="42.7" cy="-42.7" rx="38.7" ry="38.7"/>
<ellipse fill="none" stroke="#b71c1c" cx="42.7" cy="-42.7" rx="42.7" ry="42.7"/>
<text text-anchor="middle" x="42.7" y="-39.58" font-family="Helvetica,sans-Serif" font-size="10.00">discarded</text>
</g>
<!-- failed&#45;&gt;discarded -->
<g id="edge10" class="edge">
<title>failed&#45;&gt;discarded</title>
<path fill="none" stroke="#c62828" d="M57.17,-243.16C55.41,-230.63 53.13,-213.25 51.7,-197.9 48.58,-164.43 46.36,-126.76 44.9,-97.04"/>
<polygon fill="#c62828" stroke="#c62828" points="48.41,-96.98 44.44,-87.16 41.41,-97.31 48.41,-96.98"/>
<text text-anchor="middle" x="82.17" y="-147.73" font-family="Helvetica,sans-Serif" font-size="9.00">permanent fail</text>
</g>
<!-- retryable&#45;&gt;available -->
<g id="edge8" class="edge">
<title>retryable&#45;&gt;available</title>
<path fill="none" stroke="black" d="M204.23,-156.06C264.71,-164.36 383.65,-184.34 409.7,-215.9 417.36,-225.19 424.84,-391.43 427.59,-459.43"/>
<polygon fill="black" stroke="black" points="424.09,-459.56 427.99,-469.41 431.09,-459.28 424.09,-459.56"/>
<text text-anchor="middle" x="461.32" y="-338.76" font-family="Helvetica,sans-Serif" font-size="9.00">retry_ready</text>
<text text-anchor="middle" x="461.32" y="-327.51" font-family="Helvetica,sans-Serif" font-size="9.00">(backoff elapsed)</text>
</g>
<!-- retryable&#45;&gt;discarded -->
<g id="edge9" class="edge">
<title>retryable&#45;&gt;discarded</title>
<path fill="none" stroke="#c62828" d="M150.65,-134.47C133.23,-119.82 106.24,-97.13 83.6,-78.1"/>
<polygon fill="#c62828" stroke="#c62828" points="85.92,-75.47 76.01,-71.71 81.41,-80.83 85.92,-75.47"/>
<text text-anchor="middle" x="182.1" y="-106.1" font-family="Helvetica,sans-Serif" font-size="9.00">attempt ≥ max_attempts</text>
</g>
<!-- p9 -->
<g id="node9" class="node">
<title>p9</title>
<polygon fill="#e1bee7" stroke="black" points="773.33,-590.31 638.08,-590.31 638.08,-554.31 779.33,-554.31 779.33,-584.31 773.33,-590.31"/>
<polyline fill="none" stroke="black" points="773.33,-590.31 773.33,-584.31"/>
<polyline fill="none" stroke="black" points="779.33,-584.31 773.33,-584.31"/>
<text text-anchor="middle" x="708.7" y="-575.56" font-family="Helvetica,sans-Serif" font-size="10.00">Pass&#45;9: lifeline reset</text>
<text text-anchor="middle" x="708.7" y="-562.81" font-family="Helvetica,sans-Serif" font-size="10.00">stuck threads → available</text>
</g>
<!-- p10 -->
<g id="node10" class="node">
<title>p10</title>
<polygon fill="#fff59d" stroke="black" points="781.2,-507.06 630.2,-507.06 630.2,-471.06 787.2,-471.06 787.2,-501.06 781.2,-507.06"/>
<polyline fill="none" stroke="black" points="781.2,-507.06 781.2,-501.06"/>
<polyline fill="none" stroke="black" points="787.2,-501.06 781.2,-501.06"/>
<text text-anchor="middle" x="708.7" y="-492.31" font-family="Helvetica,sans-Serif" font-size="10.00">Pass&#45;10: dispatcher fix</text>
<text text-anchor="middle" x="708.7" y="-479.56" font-family="Helvetica,sans-Serif" font-size="10.00">unknown_worker → retryable</text>
</g>
<!-- p9&#45;&gt;p10 -->
</g>
</svg>
