<?xml version="1.0" encoding="UTF-8" standalone="no"?>
<!DOCTYPE svg PUBLIC "-//W3C//DTD SVG 1.1//EN"
 "http://www.w3.org/Graphics/SVG/1.1/DTD/svg11.dtd">
<!-- Generated by graphviz version 12.2.1 (0)
 -->
<!-- Title: G11FmeaRpn Pages: 1 -->
<svg width="811pt" height="340pt"
 viewBox="0.00 0.00 810.67 340.18" xmlns="http://www.w3.org/2000/svg" xmlns:xlink="http://www.w3.org/1999/xlink">
<g id="graph0" class="graph" transform="scale(1 1) rotate(0) translate(4 336.18)">
<title>G11FmeaRpn</title>
<polygon fill="#fafafa" stroke="none" points="-4,4 -4,-336.18 806.67,-336.18 806.67,4 -4,4"/>
<text text-anchor="middle" x="401.33" y="-312.98" font-family="Helvetica,sans-Serif" font-size="16.00">G11 — Pass&#45;11 FMEA RPN reduction (4218 → 1247, −70%)</text>
<g id="clust1" class="cluster">
<title>cluster_before</title>
<path fill="#ffebee" stroke="#c62828" d="M108,-206.93C108,-206.93 743,-206.93 743,-206.93 749,-206.93 755,-212.93 755,-218.93 755,-218.93 755,-284.68 755,-284.68 755,-290.68 749,-296.68 743,-296.68 743,-296.68 108,-296.68 108,-296.68 102,-296.68 96,-290.68 96,-284.68 96,-284.68 96,-218.93 96,-218.93 96,-212.93 102,-206.93 108,-206.93"/>
<text text-anchor="middle" x="425.5" y="-277.48" font-family="Helvetica,sans-Serif" font-size="16.00">Before Pass&#45;11 (post Pass&#45;10 fix, no formal proof)</text>
</g>
<g id="clust2" class="cluster">
<title>cluster_after</title>
<path fill="#e8f5e9" stroke="#2e7d32" d="M20,-87.93C20,-87.93 655,-87.93 655,-87.93 661,-87.93 667,-93.93 667,-99.93 667,-99.93 667,-165.68 667,-165.68 667,-171.68 661,-177.68 655,-177.68 655,-177.68 20,-177.68 20,-177.68 14,-177.68 8,-171.68 8,-165.68 8,-165.68 8,-99.93 8,-99.93 8,-93.93 14,-87.93 20,-87.93"/>
<text text-anchor="middle" x="337.5" y="-158.48" font-family="Helvetica,sans-Serif" font-size="16.00">After Pass&#45;11 (formal verification)</text>
</g>
<!-- b1 -->
<g id="node1" class="node">
<title>b1</title>
<path fill="#ef9a9a" stroke="black" d="M212.12,-261.18C212.12,-261.18 115.88,-261.18 115.88,-261.18 109.88,-261.18 103.88,-255.18 103.88,-249.18 103.88,-249.18 103.88,-226.93 103.88,-226.93 103.88,-220.93 109.88,-214.93 115.88,-214.93 115.88,-214.93 212.12,-214.93 212.12,-214.93 218.12,-214.93 224.12,-220.93 224.12,-226.93 224.12,-226.93 224.12,-249.18 224.12,-249.18 224.12,-255.18 218.12,-261.18 212.12,-261.18"/>
<text text-anchor="middle" x="164" y="-247.68" font-family="Helvetica,sans-Serif" font-size="10.00">Dispatcher mismatch</text>
<text text-anchor="middle" x="164" y="-234.93" font-family="Helvetica,sans-Serif" font-size="10.00">S9 O7 D10</text>
<text text-anchor="middle" x="164" y="-222.18" font-family="Helvetica,sans-Serif" font-size="10.00">RPN 630</text>
</g>
<!-- a1 -->
<g id="node6" class="node">
<title>a1</title>
<path fill="#a5d6a7" stroke="black" d="M124.12,-142.18C124.12,-142.18 27.88,-142.18 27.88,-142.18 21.88,-142.18 15.88,-136.18 15.88,-130.18 15.88,-130.18 15.88,-107.93 15.88,-107.93 15.88,-101.93 21.88,-95.93 27.88,-95.93 27.88,-95.93 124.12,-95.93 124.12,-95.93 130.12,-95.93 136.12,-101.93 136.12,-107.93 136.12,-107.93 136.12,-130.18 136.12,-130.18 136.12,-136.18 130.12,-142.18 124.12,-142.18"/>
<text text-anchor="middle" x="76" y="-128.68" font-family="Helvetica,sans-Serif" font-size="10.00">Dispatcher mismatch</text>
<text text-anchor="middle" x="76" y="-115.93" font-family="Helvetica,sans-Serif" font-size="10.00">S9 O1 D2</text>
<text text-anchor="middle" x="76" y="-103.18" font-family="Helvetica,sans-Serif" font-size="10.00">RPN 18</text>
</g>
<!-- b1&#45;&gt;a1 -->
<g id="edge1" class="edge">
<title>b1&#45;&gt;a1</title>
<path fill="none" stroke="#558b2f" d="M147.03,-214.5C133.58,-196.61 114.62,-171.41 99.68,-151.54"/>
<polygon fill="#558b2f" stroke="#558b2f" points="102.63,-149.64 93.82,-143.76 97.04,-153.85 102.63,-149.64"/>
<text text-anchor="middle" x="153.27" y="-188.38" font-family="Helvetica,sans-Serif" font-size="9.00">TLA+ inv</text>
</g>
<!-- total_b -->
<g id="node11" class="node">
<title>total_b</title>
<path fill="#c62828" stroke="black" d="M793.63,-126.95C793.63,-126.95 780.37,-138.52 780.37,-138.52 775.85,-142.46 765.33,-146.41 759.33,-146.41 759.33,-146.41 720.67,-146.41 720.67,-146.41 714.67,-146.41 704.15,-142.46 699.63,-138.52 699.63,-138.52 686.37,-126.95 686.37,-126.95 681.85,-123 681.85,-115.11 686.37,-111.17 686.37,-111.17 699.63,-99.6 699.63,-99.6 704.15,-95.65 714.67,-91.71 720.67,-91.71 720.67,-91.71 759.33,-91.71 759.33,-91.71 765.33,-91.71 775.85,-95.65 780.37,-99.6 780.37,-99.6 793.63,-111.17 793.63,-111.17 798.15,-115.11 798.15,-123 793.63,-126.95"/>
<text text-anchor="middle" x="740" y="-122.31" font-family="Helvetica,sans-Serif" font-size="10.00" fill="white">ΣRPN before</text>
<text text-anchor="middle" x="740" y="-109.56" font-family="Helvetica,sans-Serif" font-size="10.00" fill="white">4218</text>
</g>
<!-- b1&#45;&gt;total_b -->
<!-- b2 -->
<g id="node2" class="node">
<title>b2</title>
<path fill="#ef9a9a" stroke="black" d="M343.75,-261.18C343.75,-261.18 254.25,-261.18 254.25,-261.18 248.25,-261.18 242.25,-255.18 242.25,-249.18 242.25,-249.18 242.25,-226.93 242.25,-226.93 242.25,-220.93 248.25,-214.93 254.25,-214.93 254.25,-214.93 343.75,-214.93 343.75,-214.93 349.75,-214.93 355.75,-220.93 355.75,-226.93 355.75,-226.93 355.75,-249.18 355.75,-249.18 355.75,-255.18 349.75,-261.18 343.75,-261.18"/>
<text text-anchor="middle" x="299" y="-247.68" font-family="Helvetica,sans-Serif" font-size="10.00">Worker drop silently</text>
<text text-anchor="middle" x="299" y="-234.93" font-family="Helvetica,sans-Serif" font-size="10.00">S9 O5 D9</text>
<text text-anchor="middle" x="299" y="-222.18" font-family="Helvetica,sans-Serif" font-size="10.00">RPN 405</text>
</g>
<!-- a2 -->
<g id="node7" class="node">
<title>a2</title>
<path fill="#a5d6a7" stroke="black" d="M255.75,-142.18C255.75,-142.18 166.25,-142.18 166.25,-142.18 160.25,-142.18 154.25,-136.18 154.25,-130.18 154.25,-130.18 154.25,-107.93 154.25,-107.93 154.25,-101.93 160.25,-95.93 166.25,-95.93 166.25,-95.93 255.75,-95.93 255.75,-95.93 261.75,-95.93 267.75,-101.93 267.75,-107.93 267.75,-107.93 267.75,-130.18 267.75,-130.18 267.75,-136.18 261.75,-142.18 255.75,-142.18"/>
<text text-anchor="middle" x="211" y="-128.68" font-family="Helvetica,sans-Serif" font-size="10.00">Worker drop silently</text>
<text text-anchor="middle" x="211" y="-115.93" font-family="Helvetica,sans-Serif" font-size="10.00">S9 O2 D3</text>
<text text-anchor="middle" x="211" y="-103.18" font-family="Helvetica,sans-Serif" font-size="10.00">RPN 54</text>
</g>
<!-- b2&#45;&gt;a2 -->
<g id="edge2" class="edge">
<title>b2&#45;&gt;a2</title>
<path fill="none" stroke="#558b2f" d="M282.03,-214.5C268.58,-196.61 249.62,-171.41 234.68,-151.54"/>
<polygon fill="#558b2f" stroke="#558b2f" points="237.63,-149.64 228.82,-143.76 232.04,-153.85 237.63,-149.64"/>
<text text-anchor="middle" x="291.27" y="-188.38" font-family="Helvetica,sans-Serif" font-size="9.00">Agda total</text>
</g>
<!-- b2&#45;&gt;total_b -->
<!-- b3 -->
<g id="node3" class="node">
<title>b3</title>
<path fill="#ef9a9a" stroke="black" d="M480.38,-261.18C480.38,-261.18 385.62,-261.18 385.62,-261.18 379.62,-261.18 373.62,-255.18 373.62,-249.18 373.62,-249.18 373.62,-226.93 373.62,-226.93 373.62,-220.93 379.62,-214.93 385.62,-214.93 385.62,-214.93 480.38,-214.93 480.38,-214.93 486.38,-214.93 492.38,-220.93 492.38,-226.93 492.38,-226.93 492.38,-249.18 492.38,-249.18 492.38,-255.18 486.38,-261.18 480.38,-261.18"/>
<text text-anchor="middle" x="433" y="-247.68" font-family="Helvetica,sans-Serif" font-size="10.00">Stuck job lifeline gap</text>
<text text-anchor="middle" x="433" y="-234.93" font-family="Helvetica,sans-Serif" font-size="10.00">S7 O6 D8</text>
<text text-anchor="middle" x="433" y="-222.18" font-family="Helvetica,sans-Serif" font-size="10.00">RPN 336</text>
</g>
<!-- a3 -->
<g id="node8" class="node">
<title>a3</title>
<path fill="#c5e1a5" stroke="black" d="M392.38,-142.18C392.38,-142.18 297.62,-142.18 297.62,-142.18 291.62,-142.18 285.62,-136.18 285.62,-130.18 285.62,-130.18 285.62,-107.93 285.62,-107.93 285.62,-101.93 291.62,-95.93 297.62,-95.93 297.62,-95.93 392.38,-95.93 392.38,-95.93 398.38,-95.93 404.38,-101.93 404.38,-107.93 404.38,-107.93 404.38,-130.18 404.38,-130.18 404.38,-136.18 398.38,-142.18 392.38,-142.18"/>
<text text-anchor="middle" x="345" y="-128.68" font-family="Helvetica,sans-Serif" font-size="10.00">Stuck job lifeline gap</text>
<text text-anchor="middle" x="345" y="-115.93" font-family="Helvetica,sans-Serif" font-size="10.00">S7 O3 D4</text>
<text text-anchor="middle" x="345" y="-103.18" font-family="Helvetica,sans-Serif" font-size="10.00">RPN 84</text>
</g>
<!-- b3&#45;&gt;a3 -->
<g id="edge3" class="edge">
<title>b3&#45;&gt;a3</title>
<path fill="none" stroke="#558b2f" d="M416.03,-214.5C402.58,-196.61 383.62,-171.41 368.68,-151.54"/>
<polygon fill="#558b2f" stroke="#558b2f" points="371.63,-149.64 362.82,-143.76 366.04,-153.85 371.63,-149.64"/>
<text text-anchor="middle" x="429.02" y="-188.38" font-family="Helvetica,sans-Serif" font-size="9.00">lifeline reset</text>
</g>
<!-- b3&#45;&gt;total_b -->
<!-- b4 -->
<g id="node4" class="node">
<title>b4</title>
<path fill="#ef9a9a" stroke="black" d="M623.38,-261.18C623.38,-261.18 522.62,-261.18 522.62,-261.18 516.62,-261.18 510.62,-255.18 510.62,-249.18 510.62,-249.18 510.62,-226.93 510.62,-226.93 510.62,-220.93 516.62,-214.93 522.62,-214.93 522.62,-214.93 623.38,-214.93 623.38,-214.93 629.38,-214.93 635.38,-220.93 635.38,-226.93 635.38,-226.93 635.38,-249.18 635.38,-249.18 635.38,-255.18 629.38,-261.18 623.38,-261.18"/>
<text text-anchor="middle" x="573" y="-247.68" font-family="Helvetica,sans-Serif" font-size="10.00">Unknown registry drift</text>
<text text-anchor="middle" x="573" y="-234.93" font-family="Helvetica,sans-Serif" font-size="10.00">S8 O5 D8</text>
<text text-anchor="middle" x="573" y="-222.18" font-family="Helvetica,sans-Serif" font-size="10.00">RPN 320</text>
</g>
<!-- a4 -->
<g id="node9" class="node">
<title>a4</title>
<path fill="#a5d6a7" stroke="black" d="M535.38,-142.18C535.38,-142.18 434.62,-142.18 434.62,-142.18 428.62,-142.18 422.62,-136.18 422.62,-130.18 422.62,-130.18 422.62,-107.93 422.62,-107.93 422.62,-101.93 428.62,-95.93 434.62,-95.93 434.62,-95.93 535.38,-95.93 535.38,-95.93 541.38,-95.93 547.38,-101.93 547.38,-107.93 547.38,-107.93 547.38,-130.18 547.38,-130.18 547.38,-136.18 541.38,-142.18 535.38,-142.18"/>
<text text-anchor="middle" x="485" y="-128.68" font-family="Helvetica,sans-Serif" font-size="10.00">Unknown registry drift</text>
<text text-anchor="middle" x="485" y="-115.93" font-family="Helvetica,sans-Serif" font-size="10.00">S8 O1 D2</text>
<text text-anchor="middle" x="485" y="-103.18" font-family="Helvetica,sans-Serif" font-size="10.00">RPN 16</text>
</g>
<!-- b4&#45;&gt;a4 -->
<g id="edge4" class="edge">
<title>b4&#45;&gt;a4</title>
<path fill="none" stroke="#558b2f" d="M556.03,-214.5C542.58,-196.61 523.62,-171.41 508.68,-151.54"/>
<polygon fill="#558b2f" stroke="#558b2f" points="511.63,-149.64 502.82,-143.76 506.04,-153.85 511.63,-149.64"/>
<text text-anchor="middle" x="567.9" y="-188.38" font-family="Helvetica,sans-Serif" font-size="9.00">STAMP +10</text>
</g>
<!-- b4&#45;&gt;total_b -->
<!-- b5 -->
<g id="node5" class="node">
<title>b5</title>
<path fill="#ffcdd2" stroke="black" d="M735,-256.06C735,-256.06 665,-256.06 665,-256.06 659,-256.06 653,-250.06 653,-244.06 653,-244.06 653,-232.06 653,-232.06 653,-226.06 659,-220.06 665,-220.06 665,-220.06 735,-220.06 735,-220.06 741,-220.06 747,-226.06 747,-232.06 747,-232.06 747,-244.06 747,-244.06 747,-250.06 741,-256.06 735,-256.06"/>
<text text-anchor="middle" x="700" y="-241.31" font-family="Helvetica,sans-Serif" font-size="10.00">Other 11 modes</text>
<text text-anchor="middle" x="700" y="-228.56" font-family="Helvetica,sans-Serif" font-size="10.00">ΣRPN 2527</text>
</g>
<!-- a5 -->
<g id="node10" class="node">
<title>a5</title>
<path fill="#dcedc8" stroke="black" d="M647,-137.06C647,-137.06 577,-137.06 577,-137.06 571,-137.06 565,-131.06 565,-125.06 565,-125.06 565,-113.06 565,-113.06 565,-107.06 571,-101.06 577,-101.06 577,-101.06 647,-101.06 647,-101.06 653,-101.06 659,-107.06 659,-113.06 659,-113.06 659,-125.06 659,-125.06 659,-131.06 653,-137.06 647,-137.06"/>
<text text-anchor="middle" x="612" y="-122.31" font-family="Helvetica,sans-Serif" font-size="10.00">Other 11 modes</text>
<text text-anchor="middle" x="612" y="-109.56" font-family="Helvetica,sans-Serif" font-size="10.00">ΣRPN 1075</text>
</g>
<!-- b5&#45;&gt;a5 -->
<g id="edge5" class="edge">
<title>b5&#45;&gt;a5</title>
<path fill="none" stroke="#558b2f" d="M679.38,-219.74C672.02,-213.03 663.96,-205.02 657.5,-196.93 645.23,-181.58 633.95,-162.58 625.7,-147.32"/>
<polygon fill="#558b2f" stroke="#558b2f" points="628.95,-145.99 621.2,-138.77 622.76,-149.25 628.95,-145.99"/>
<text text-anchor="middle" x="689.75" y="-188.38" font-family="Helvetica,sans-Serif" font-size="9.00">full&#45;system val</text>
</g>
<!-- b5&#45;&gt;total_b -->
<!-- total_a -->
<g id="node12" class="node">
<title>total_a</title>
<path fill="#2e7d32" stroke="black" d="M401.5,-35.03C401.5,-35.03 387.09,-47.03 387.09,-47.03 382.48,-50.87 371.86,-54.71 365.86,-54.71 365.86,-54.71 324.14,-54.71 324.14,-54.71 318.14,-54.71 307.52,-50.87 302.91,-47.03 302.91,-47.03 288.5,-35.03 288.5,-35.03 283.88,-31.19 283.88,-23.51 288.5,-19.68 288.5,-19.68 302.91,-7.68 302.91,-7.68 307.52,-3.84 318.14,0 324.14,0 324.14,0 365.86,0 365.86,0 371.86,0 382.48,-3.84 387.09,-7.68 387.09,-7.68 401.5,-19.68 401.5,-19.68 406.12,-23.51 406.12,-31.19 401.5,-35.03"/>
<text text-anchor="middle" x="345" y="-30.6" font-family="Helvetica,sans-Serif" font-size="10.00" fill="white">ΣRPN after</text>
<text text-anchor="middle" x="345" y="-17.85" font-family="Helvetica,sans-Serif" font-size="10.00" fill="white">1247 (−70%)</text>
</g>
<!-- a1&#45;&gt;total_a -->
<!-- a2&#45;&gt;total_a -->
<!-- a3&#45;&gt;total_a -->
<!-- a4&#45;&gt;total_a -->
<!-- a5&#45;&gt;total_a -->
</g>
</svg>
