<?xml version="1.0" encoding="UTF-8" standalone="no"?>
<!DOCTYPE svg PUBLIC "-//W3C//DTD SVG 1.1//EN"
 "http://www.w3.org/Graphics/SVG/1.1/DTD/svg11.dtd">
<!-- Generated by graphviz version 12.2.1 (0)
 -->
<!-- Title: G12FractalL0L7Pass11 Pages: 1 -->
<svg width="5611pt" height="440pt"
 viewBox="0.00 0.00 5610.50 440.38" xmlns="http://www.w3.org/2000/svg" xmlns:xlink="http://www.w3.org/1999/xlink">
<g id="graph0" class="graph" transform="scale(1 1) rotate(0) translate(4 436.38)">
<title>G12FractalL0L7Pass11</title>
<polygon fill="#fafafa" stroke="none" points="-4,4 -4,-436.38 5606.5,-436.38 5606.5,4 -4,4"/>
<text text-anchor="middle" x="2801.25" y="-413.18" font-family="Helvetica,sans-Serif" font-size="16.00">G12 — Pass&#45;11 Fractal Coverage Matrix (L0–L7 × Components) with SC&#45;DISP&#45;REGISTRY&#45;001..010</text>
<g id="clust10" class="cluster">
<title>cluster_legend</title>
<path fill="#f5f5f5" stroke="#9e9e9e" d="M5420.5,-8C5420.5,-8 5582.5,-8 5582.5,-8 5588.5,-8 5594.5,-14 5594.5,-20 5594.5,-20 5594.5,-384.88 5594.5,-384.88 5594.5,-390.88 5588.5,-396.88 5582.5,-396.88 5582.5,-396.88 5420.5,-396.88 5420.5,-396.88 5414.5,-396.88 5408.5,-390.88 5408.5,-384.88 5408.5,-384.88 5408.5,-20 5408.5,-20 5408.5,-14 5414.5,-8 5420.5,-8"/>
<text text-anchor="middle" x="5501.5" y="-383.38" font-family="Helvetica,sans-Serif" font-size="10.00">Legend / Pass&#45;11 STAMP family</text>
</g>
<!-- hdr_layer -->
<g id="node1" class="node">
<title>hdr_layer</title>
<path fill="#37474f" stroke="black" stroke-width="2" d="M67,-368.12C67,-368.12 12,-368.12 12,-368.12 6,-368.12 0,-362.12 0,-356.12 0,-356.12 0,-344.12 0,-344.12 0,-338.12 6,-332.12 12,-332.12 12,-332.12 67,-332.12 67,-332.12 73,-332.12 79,-338.12 79,-344.12 79,-344.12 79,-356.12 79,-356.12 79,-362.12 73,-368.12 67,-368.12"/>
<text text-anchor="middle" x="39.5" y="-347" font-family="Helvetica,sans-Serif" font-size="10.00" fill="white">Fractal Layer</text>
</g>
<!-- hdr_sched -->
<g id="node2" class="node">
<title>hdr_sched</title>
<path fill="#37474f" stroke="black" d="M149.5,-368.12C149.5,-368.12 109.5,-368.12 109.5,-368.12 103.5,-368.12 97.5,-362.12 97.5,-356.12 97.5,-356.12 97.5,-344.12 97.5,-344.12 97.5,-338.12 103.5,-332.12 109.5,-332.12 109.5,-332.12 149.5,-332.12 149.5,-332.12 155.5,-332.12 161.5,-338.12 161.5,-344.12 161.5,-344.12 161.5,-356.12 161.5,-356.12 161.5,-362.12 155.5,-368.12 149.5,-368.12"/>
<text text-anchor="middle" x="129.5" y="-347" font-family="Helvetica,sans-Serif" font-size="10.00" fill="white">Scheduler</text>
</g>
<!-- hdr_oban -->
<g id="node3" class="node">
<title>hdr_oban</title>
<path fill="#37474f" stroke="black" d="M221.5,-368.12C221.5,-368.12 191.5,-368.12 191.5,-368.12 185.5,-368.12 179.5,-362.12 179.5,-356.12 179.5,-356.12 179.5,-344.12 179.5,-344.12 179.5,-338.12 185.5,-332.12 191.5,-332.12 191.5,-332.12 221.5,-332.12 221.5,-332.12 227.5,-332.12 233.5,-338.12 233.5,-344.12 233.5,-344.12 233.5,-356.12 233.5,-356.12 233.5,-362.12 227.5,-368.12 221.5,-368.12"/>
<text text-anchor="middle" x="206.5" y="-347" font-family="Helvetica,sans-Serif" font-size="10.00" fill="white">OBAN</text>
</g>
<!-- hdr_disp -->
<g id="node4" class="node">
<title>hdr_disp</title>
<path fill="#37474f" stroke="black" d="M345.12,-368.12C345.12,-368.12 263.88,-368.12 263.88,-368.12 257.88,-368.12 251.88,-362.12 251.88,-356.12 251.88,-356.12 251.88,-344.12 251.88,-344.12 251.88,-338.12 257.88,-332.12 263.88,-332.12 263.88,-332.12 345.12,-332.12 345.12,-332.12 351.12,-332.12 357.12,-338.12 357.12,-344.12 357.12,-344.12 357.12,-356.12 357.12,-356.12 357.12,-362.12 351.12,-368.12 345.12,-368.12"/>
<text text-anchor="middle" x="304.5" y="-347" font-family="Helvetica,sans-Serif" font-size="10.00" fill="white">Worker Dispatcher</text>
</g>
<!-- hdr_pr -->
<g id="node5" class="node">
<title>hdr_pr</title>
<path fill="#37474f" stroke="black" d="M454,-368.12C454,-368.12 387,-368.12 387,-368.12 381,-368.12 375,-362.12 375,-356.12 375,-356.12 375,-344.12 375,-344.12 375,-338.12 381,-332.12 387,-332.12 387,-332.12 454,-332.12 454,-332.12 460,-332.12 466,-338.12 466,-344.12 466,-344.12 466,-356.12 466,-356.12 466,-362.12 460,-368.12 454,-368.12"/>
<text text-anchor="middle" x="420.5" y="-347" font-family="Helvetica,sans-Serif" font-size="10.00" fill="white">Process Runner</text>
</g>
<!-- hdr_tel -->
<g id="node6" class="node">
<title>hdr_tel</title>
<path fill="#37474f" stroke="black" d="M536.88,-368.12C536.88,-368.12 496.12,-368.12 496.12,-368.12 490.12,-368.12 484.12,-362.12 484.12,-356.12 484.12,-356.12 484.12,-344.12 484.12,-344.12 484.12,-338.12 490.12,-332.12 496.12,-332.12 496.12,-332.12 536.88,-332.12 536.88,-332.12 542.88,-332.12 548.88,-338.12 548.88,-344.12 548.88,-344.12 548.88,-356.12 548.88,-356.12 548.88,-362.12 542.88,-368.12 536.88,-368.12"/>
<text text-anchor="middle" x="516.5" y="-347" font-family="Helvetica,sans-Serif" font-size="10.00" fill="white">Telemetry</text>
</g>
<!-- hdr_per -->
<g id="node7" class="node">
<title>hdr_per</title>
<path fill="#37474f" stroke="black" d="M627.62,-368.12C627.62,-368.12 579.38,-368.12 579.38,-368.12 573.38,-368.12 567.38,-362.12 567.38,-356.12 567.38,-356.12 567.38,-344.12 567.38,-344.12 567.38,-338.12 573.38,-332.12 579.38,-332.12 579.38,-332.12 627.62,-332.12 627.62,-332.12 633.62,-332.12 639.62,-338.12 639.62,-344.12 639.62,-344.12 639.62,-356.12 639.62,-356.12 639.62,-362.12 633.62,-368.12 627.62,-368.12"/>
<text text-anchor="middle" x="603.5" y="-347" font-family="Helvetica,sans-Serif" font-size="10.00" fill="white">Persistence</text>
</g>
<!-- l0 -->
<g id="node8" class="node">
<title>l0</title>
<path fill="#cfd8dc" stroke="black" stroke-width="2" d="M743.75,-368.12C743.75,-368.12 669.25,-368.12 669.25,-368.12 663.25,-368.12 657.25,-362.12 657.25,-356.12 657.25,-356.12 657.25,-344.12 657.25,-344.12 657.25,-338.12 663.25,-332.12 669.25,-332.12 669.25,-332.12 743.75,-332.12 743.75,-332.12 749.75,-332.12 755.75,-338.12 755.75,-344.12 755.75,-344.12 755.75,-356.12 755.75,-356.12 755.75,-362.12 749.75,-368.12 743.75,-368.12"/>
<text text-anchor="middle" x="706.5" y="-347" font-family="Helvetica,sans-Serif" font-size="10.00">L0 Constitutional</text>
</g>
<!-- l0a -->
<g id="node9" class="node">
<title>l0a</title>
<path fill="#eeeeee" stroke="black" d="M815.5,-368.12C815.5,-368.12 785.5,-368.12 785.5,-368.12 779.5,-368.12 773.5,-362.12 773.5,-356.12 773.5,-356.12 773.5,-344.12 773.5,-344.12 773.5,-338.12 779.5,-332.12 785.5,-332.12 785.5,-332.12 815.5,-332.12 815.5,-332.12 821.5,-332.12 827.5,-338.12 827.5,-344.12 827.5,-344.12 827.5,-356.12 827.5,-356.12 827.5,-362.12 821.5,-368.12 815.5,-368.12"/>
<text text-anchor="middle" x="800.5" y="-347" font-family="Helvetica,sans-Serif" font-size="10.00">n/a</text>
</g>
<!-- l0b -->
<g id="node10" class="node">
<title>l0b</title>
<path fill="#eeeeee" stroke="black" d="M887.5,-368.12C887.5,-368.12 857.5,-368.12 857.5,-368.12 851.5,-368.12 845.5,-362.12 845.5,-356.12 845.5,-356.12 845.5,-344.12 845.5,-344.12 845.5,-338.12 851.5,-332.12 857.5,-332.12 857.5,-332.12 887.5,-332.12 887.5,-332.12 893.5,-332.12 899.5,-338.12 899.5,-344.12 899.5,-344.12 899.5,-356.12 899.5,-356.12 899.5,-362.12 893.5,-368.12 887.5,-368.12"/>
<text text-anchor="middle" x="872.5" y="-347" font-family="Helvetica,sans-Serif" font-size="10.00">n/a</text>
</g>
<!-- l0c -->
<g id="node11" class="node">
<title>l0c</title>
<path fill="#eeeeee" stroke="black" d="M959.5,-368.12C959.5,-368.12 929.5,-368.12 929.5,-368.12 923.5,-368.12 917.5,-362.12 917.5,-356.12 917.5,-356.12 917.5,-344.12 917.5,-344.12 917.5,-338.12 923.5,-332.12 929.5,-332.12 929.5,-332.12 959.5,-332.12 959.5,-332.12 965.5,-332.12 971.5,-338.12 971.5,-344.12 971.5,-344.12 971.5,-356.12 971.5,-356.12 971.5,-362.12 965.5,-368.12 959.5,-368.12"/>
<text text-anchor="middle" x="944.5" y="-347" font-family="Helvetica,sans-Serif" font-size="10.00">n/a</text>
</g>
<!-- l0d -->
<g id="node12" class="node">
<title>l0d</title>
<path fill="#eeeeee" stroke="black" d="M1031.5,-368.12C1031.5,-368.12 1001.5,-368.12 1001.5,-368.12 995.5,-368.12 989.5,-362.12 989.5,-356.12 989.5,-356.12 989.5,-344.12 989.5,-344.12 989.5,-338.12 995.5,-332.12 1001.5,-332.12 1001.5,-332.12 1031.5,-332.12 1031.5,-332.12 1037.5,-332.12 1043.5,-338.12 1043.5,-344.12 1043.5,-344.12 1043.5,-356.12 1043.5,-356.12 1043.5,-362.12 1037.5,-368.12 1031.5,-368.12"/>
<text text-anchor="middle" x="1016.5" y="-347" font-family="Helvetica,sans-Serif" font-size="10.00">n/a</text>
</g>
<!-- l0e -->
<g id="node13" class="node">
<title>l0e</title>
<path fill="#a5d6a7" stroke="black" d="M1109.62,-368.12C1109.62,-368.12 1073.38,-368.12 1073.38,-368.12 1067.38,-368.12 1061.38,-362.12 1061.38,-356.12 1061.38,-356.12 1061.38,-344.12 1061.38,-344.12 1061.38,-338.12 1067.38,-332.12 1073.38,-332.12 1073.38,-332.12 1109.62,-332.12 1109.62,-332.12 1115.62,-332.12 1121.62,-338.12 1121.62,-344.12 1121.62,-344.12 1121.62,-356.12 1121.62,-356.12 1121.62,-362.12 1115.62,-368.12 1109.62,-368.12"/>
<text text-anchor="middle" x="1091.5" y="-353.38" font-family="Helvetica,sans-Serif" font-size="10.00">Guardian</text>
<text text-anchor="middle" x="1091.5" y="-340.62" font-family="Helvetica,sans-Serif" font-size="10.00">spans</text>
</g>
<!-- l0f -->
<g id="node14" class="node">
<title>l0f</title>
<path fill="#a5d6a7" stroke="black" d="M1186.88,-368.12C1186.88,-368.12 1152.12,-368.12 1152.12,-368.12 1146.12,-368.12 1140.12,-362.12 1140.12,-356.12 1140.12,-356.12 1140.12,-344.12 1140.12,-344.12 1140.12,-338.12 1146.12,-332.12 1152.12,-332.12 1152.12,-332.12 1186.88,-332.12 1186.88,-332.12 1192.88,-332.12 1198.88,-338.12 1198.88,-344.12 1198.88,-344.12 1198.88,-356.12 1198.88,-356.12 1198.88,-362.12 1192.88,-368.12 1186.88,-368.12"/>
<text text-anchor="middle" x="1169.5" y="-347" font-family="Helvetica,sans-Serif" font-size="10.00">audit log</text>
</g>
<!-- l1 -->
<g id="node15" class="node">
<title>l1</title>
<path fill="#cfd8dc" stroke="black" stroke-width="2" d="M1289.62,-368.12C1289.62,-368.12 1229.38,-368.12 1229.38,-368.12 1223.38,-368.12 1217.38,-362.12 1217.38,-356.12 1217.38,-356.12 1217.38,-344.12 1217.38,-344.12 1217.38,-338.12 1223.38,-332.12 1229.38,-332.12 1229.38,-332.12 1289.62,-332.12 1289.62,-332.12 1295.62,-332.12 1301.62,-338.12 1301.62,-344.12 1301.62,-344.12 1301.62,-356.12 1301.62,-356.12 1301.62,-362.12 1295.62,-368.12 1289.62,-368.12"/>
<text text-anchor="middle" x="1259.5" y="-347" font-family="Helvetica,sans-Serif" font-size="10.00">L1 Atomic/NIF</text>
</g>
<!-- l1a -->
<g id="node16" class="node">
<title>l1a</title>
<path fill="#eeeeee" stroke="black" d="M1361.5,-368.12C1361.5,-368.12 1331.5,-368.12 1331.5,-368.12 1325.5,-368.12 1319.5,-362.12 1319.5,-356.12 1319.5,-356.12 1319.5,-344.12 1319.5,-344.12 1319.5,-338.12 1325.5,-332.12 1331.5,-332.12 1331.5,-332.12 1361.5,-332.12 1361.5,-332.12 1367.5,-332.12 1373.5,-338.12 1373.5,-344.12 1373.5,-344.12 1373.5,-356.12 1373.5,-356.12 1373.5,-362.12 1367.5,-368.12 1361.5,-368.12"/>
<text text-anchor="middle" x="1346.5" y="-347" font-family="Helvetica,sans-Serif" font-size="10.00">n/a</text>
</g>
<!-- l1b -->
<g id="node17" class="node">
<title>l1b</title>
<path fill="#eeeeee" stroke="black" d="M1433.5,-368.12C1433.5,-368.12 1403.5,-368.12 1403.5,-368.12 1397.5,-368.12 1391.5,-362.12 1391.5,-356.12 1391.5,-356.12 1391.5,-344.12 1391.5,-344.12 1391.5,-338.12 1397.5,-332.12 1403.5,-332.12 1403.5,-332.12 1433.5,-332.12 1433.5,-332.12 1439.5,-332.12 1445.5,-338.12 1445.5,-344.12 1445.5,-344.12 1445.5,-356.12 1445.5,-356.12 1445.5,-362.12 1439.5,-368.12 1433.5,-368.12"/>
<text text-anchor="middle" x="1418.5" y="-347" font-family="Helvetica,sans-Serif" font-size="10.00">n/a</text>
</g>
<!-- l1c -->
<g id="node18" class="node">
<title>l1c</title>
<path fill="#eeeeee" stroke="black" d="M1505.5,-368.12C1505.5,-368.12 1475.5,-368.12 1475.5,-368.12 1469.5,-368.12 1463.5,-362.12 1463.5,-356.12 1463.5,-356.12 1463.5,-344.12 1463.5,-344.12 1463.5,-338.12 1469.5,-332.12 1475.5,-332.12 1475.5,-332.12 1505.5,-332.12 1505.5,-332.12 1511.5,-332.12 1517.5,-338.12 1517.5,-344.12 1517.5,-344.12 1517.5,-356.12 1517.5,-356.12 1517.5,-362.12 1511.5,-368.12 1505.5,-368.12"/>
<text text-anchor="middle" x="1490.5" y="-347" font-family="Helvetica,sans-Serif" font-size="10.00">n/a</text>
</g>
<!-- l1d -->
<g id="node19" class="node">
<title>l1d</title>
<path fill="#a5d6a7" stroke="black" d="M1577.5,-368.12C1577.5,-368.12 1547.5,-368.12 1547.5,-368.12 1541.5,-368.12 1535.5,-362.12 1535.5,-356.12 1535.5,-356.12 1535.5,-344.12 1535.5,-344.12 1535.5,-338.12 1541.5,-332.12 1547.5,-332.12 1547.5,-332.12 1577.5,-332.12 1577.5,-332.12 1583.5,-332.12 1589.5,-338.12 1589.5,-344.12 1589.5,-344.12 1589.5,-356.12 1589.5,-356.12 1589.5,-362.12 1583.5,-368.12 1577.5,-368.12"/>
<text text-anchor="middle" x="1562.5" y="-353.38" font-family="Helvetica,sans-Serif" font-size="10.00">spawn</text>
<text text-anchor="middle" x="1562.5" y="-340.62" font-family="Helvetica,sans-Serif" font-size="10.00">NIF</text>
</g>
<!-- l1e -->
<g id="node20" class="node">
<title>l1e</title>
<path fill="#a5d6a7" stroke="black" d="M1649.5,-368.12C1649.5,-368.12 1619.5,-368.12 1619.5,-368.12 1613.5,-368.12 1607.5,-362.12 1607.5,-356.12 1607.5,-356.12 1607.5,-344.12 1607.5,-344.12 1607.5,-338.12 1613.5,-332.12 1619.5,-332.12 1619.5,-332.12 1649.5,-332.12 1649.5,-332.12 1655.5,-332.12 1661.5,-338.12 1661.5,-344.12 1661.5,-344.12 1661.5,-356.12 1661.5,-356.12 1661.5,-362.12 1655.5,-368.12 1649.5,-368.12"/>
<text text-anchor="middle" x="1634.5" y="-353.38" font-family="Helvetica,sans-Serif" font-size="10.00">OTel</text>
<text text-anchor="middle" x="1634.5" y="-340.62" font-family="Helvetica,sans-Serif" font-size="10.00">NIF</text>
</g>
<!-- l1f -->
<g id="node21" class="node">
<title>l1f</title>
<path fill="#a5d6a7" stroke="black" d="M1721.5,-368.12C1721.5,-368.12 1691.5,-368.12 1691.5,-368.12 1685.5,-368.12 1679.5,-362.12 1679.5,-356.12 1679.5,-356.12 1679.5,-344.12 1679.5,-344.12 1679.5,-338.12 1685.5,-332.12 1691.5,-332.12 1691.5,-332.12 1721.5,-332.12 1721.5,-332.12 1727.5,-332.12 1733.5,-338.12 1733.5,-344.12 1733.5,-344.12 1733.5,-356.12 1733.5,-356.12 1733.5,-362.12 1727.5,-368.12 1721.5,-368.12"/>
<text text-anchor="middle" x="1706.5" y="-353.38" font-family="Helvetica,sans-Serif" font-size="10.00">SQLite</text>
<text text-anchor="middle" x="1706.5" y="-340.62" font-family="Helvetica,sans-Serif" font-size="10.00">NIF</text>
</g>
<!-- l2 -->
<g id="node22" class="node">
<title>l2</title>
<path fill="#cfd8dc" stroke="black" stroke-width="2" d="M1825.75,-368.12C1825.75,-368.12 1763.25,-368.12 1763.25,-368.12 1757.25,-368.12 1751.25,-362.12 1751.25,-356.12 1751.25,-356.12 1751.25,-344.12 1751.25,-344.12 1751.25,-338.12 1757.25,-332.12 1763.25,-332.12 1763.25,-332.12 1825.75,-332.12 1825.75,-332.12 1831.75,-332.12 1837.75,-338.12 1837.75,-344.12 1837.75,-344.12 1837.75,-356.12 1837.75,-356.12 1837.75,-362.12 1831.75,-368.12 1825.75,-368.12"/>
<text text-anchor="middle" x="1794.5" y="-347" font-family="Helvetica,sans-Serif" font-size="10.00">L2 Component</text>
</g>
<!-- l2a -->
<g id="node23" class="node">
<title>l2a</title>
<path fill="#a5d6a7" stroke="black" d="M1897.5,-368.12C1897.5,-368.12 1867.5,-368.12 1867.5,-368.12 1861.5,-368.12 1855.5,-362.12 1855.5,-356.12 1855.5,-356.12 1855.5,-344.12 1855.5,-344.12 1855.5,-338.12 1861.5,-332.12 1867.5,-332.12 1867.5,-332.12 1897.5,-332.12 1897.5,-332.12 1903.5,-332.12 1909.5,-338.12 1909.5,-344.12 1909.5,-344.12 1909.5,-356.12 1909.5,-356.12 1909.5,-362.12 1903.5,-368.12 1897.5,-368.12"/>
<text text-anchor="middle" x="1882.5" y="-347" font-family="Helvetica,sans-Serif" font-size="10.00">tick</text>
</g>
<!-- l2b -->
<g id="node24" class="node">
<title>l2b</title>
<path fill="#a5d6a7" stroke="black" d="M1969.62,-368.12C1969.62,-368.12 1939.38,-368.12 1939.38,-368.12 1933.38,-368.12 1927.38,-362.12 1927.38,-356.12 1927.38,-356.12 1927.38,-344.12 1927.38,-344.12 1927.38,-338.12 1933.38,-332.12 1939.38,-332.12 1939.38,-332.12 1969.62,-332.12 1969.62,-332.12 1975.62,-332.12 1981.62,-338.12 1981.62,-344.12 1981.62,-344.12 1981.62,-356.12 1981.62,-356.12 1981.62,-362.12 1975.62,-368.12 1969.62,-368.12"/>
<text text-anchor="middle" x="1954.5" y="-353.38" font-family="Helvetica,sans-Serif" font-size="10.00">row</text>
<text text-anchor="middle" x="1954.5" y="-340.62" font-family="Helvetica,sans-Serif" font-size="10.00">schema</text>
</g>
<!-- l2c -->
<g id="node25" class="node">
<title>l2c</title>
<path fill="#a5d6a7" stroke="black" d="M2041.5,-368.12C2041.5,-368.12 2011.5,-368.12 2011.5,-368.12 2005.5,-368.12 1999.5,-362.12 1999.5,-356.12 1999.5,-356.12 1999.5,-344.12 1999.5,-344.12 1999.5,-338.12 2005.5,-332.12 2011.5,-332.12 2011.5,-332.12 2041.5,-332.12 2041.5,-332.12 2047.5,-332.12 2053.5,-338.12 2053.5,-344.12 2053.5,-344.12 2053.5,-356.12 2053.5,-356.12 2053.5,-362.12 2047.5,-368.12 2041.5,-368.12"/>
<text text-anchor="middle" x="2026.5" y="-353.38" font-family="Helvetica,sans-Serif" font-size="10.00">match</text>
<text text-anchor="middle" x="2026.5" y="-340.62" font-family="Helvetica,sans-Serif" font-size="10.00">arms</text>
</g>
<!-- l2d -->
<g id="node26" class="node">
<title>l2d</title>
<path fill="#a5d6a7" stroke="black" d="M2117.5,-368.12C2117.5,-368.12 2083.5,-368.12 2083.5,-368.12 2077.5,-368.12 2071.5,-362.12 2071.5,-356.12 2071.5,-356.12 2071.5,-344.12 2071.5,-344.12 2071.5,-338.12 2077.5,-332.12 2083.5,-332.12 2083.5,-332.12 2117.5,-332.12 2117.5,-332.12 2123.5,-332.12 2129.5,-338.12 2129.5,-344.12 2129.5,-344.12 2129.5,-356.12 2129.5,-356.12 2129.5,-362.12 2123.5,-368.12 2117.5,-368.12"/>
<text text-anchor="middle" x="2100.5" y="-347" font-family="Helvetica,sans-Serif" font-size="10.00">RunSpec</text>
</g>
<!-- l2e -->
<g id="node27" class="node">
<title>l2e</title>
<path fill="#a5d6a7" stroke="black" d="M2197,-368.12C2197,-368.12 2160,-368.12 2160,-368.12 2154,-368.12 2148,-362.12 2148,-356.12 2148,-356.12 2148,-344.12 2148,-344.12 2148,-338.12 2154,-332.12 2160,-332.12 2160,-332.12 2197,-332.12 2197,-332.12 2203,-332.12 2209,-338.12 2209,-344.12 2209,-344.12 2209,-356.12 2209,-356.12 2209,-362.12 2203,-368.12 2197,-368.12"/>
<text text-anchor="middle" x="2178.5" y="-347" font-family="Helvetica,sans-Serif" font-size="10.00">envelope</text>
</g>
<!-- l2f -->
<g id="node28" class="node">
<title>l2f</title>
<path fill="#a5d6a7" stroke="black" d="M2269.62,-368.12C2269.62,-368.12 2239.38,-368.12 2239.38,-368.12 2233.38,-368.12 2227.38,-362.12 2227.38,-356.12 2227.38,-356.12 2227.38,-344.12 2227.38,-344.12 2227.38,-338.12 2233.38,-332.12 2239.38,-332.12 2239.38,-332.12 2269.62,-332.12 2269.62,-332.12 2275.62,-332.12 2281.62,-338.12 2281.62,-344.12 2281.62,-344.12 2281.62,-356.12 2281.62,-356.12 2281.62,-362.12 2275.62,-368.12 2269.62,-368.12"/>
<text text-anchor="middle" x="2254.5" y="-347" font-family="Helvetica,sans-Serif" font-size="10.00">schema</text>
</g>
<!-- l3 -->
<g id="node29" class="node">
<title>l3</title>
<path fill="#cfd8dc" stroke="black" stroke-width="2" d="M2373.38,-368.12C2373.38,-368.12 2311.62,-368.12 2311.62,-368.12 2305.62,-368.12 2299.62,-362.12 2299.62,-356.12 2299.62,-356.12 2299.62,-344.12 2299.62,-344.12 2299.62,-338.12 2305.62,-332.12 2311.62,-332.12 2311.62,-332.12 2373.38,-332.12 2373.38,-332.12 2379.38,-332.12 2385.38,-338.12 2385.38,-344.12 2385.38,-344.12 2385.38,-356.12 2385.38,-356.12 2385.38,-362.12 2379.38,-368.12 2373.38,-368.12"/>
<text text-anchor="middle" x="2342.5" y="-347" font-family="Helvetica,sans-Serif" font-size="10.00">L3 Transaction</text>
</g>
<!-- l3a -->
<g id="node30" class="node">
<title>l3a</title>
<path fill="#a5d6a7" stroke="black" d="M2445.5,-368.12C2445.5,-368.12 2415.5,-368.12 2415.5,-368.12 2409.5,-368.12 2403.5,-362.12 2403.5,-356.12 2403.5,-356.12 2403.5,-344.12 2403.5,-344.12 2403.5,-338.12 2409.5,-332.12 2415.5,-332.12 2415.5,-332.12 2445.5,-332.12 2445.5,-332.12 2451.5,-332.12 2457.5,-338.12 2457.5,-344.12 2457.5,-344.12 2457.5,-356.12 2457.5,-356.12 2457.5,-362.12 2451.5,-368.12 2445.5,-368.12"/>
<text text-anchor="middle" x="2430.5" y="-353.38" font-family="Helvetica,sans-Serif" font-size="10.00">claim</text>
<text text-anchor="middle" x="2430.5" y="-340.62" font-family="Helvetica,sans-Serif" font-size="10.00">txn</text>
</g>
<!-- l3b -->
<g id="node31" class="node">
<title>l3b</title>
<path fill="#a5d6a7" stroke="black" d="M2517.5,-368.12C2517.5,-368.12 2487.5,-368.12 2487.5,-368.12 2481.5,-368.12 2475.5,-362.12 2475.5,-356.12 2475.5,-356.12 2475.5,-344.12 2475.5,-344.12 2475.5,-338.12 2481.5,-332.12 2487.5,-332.12 2487.5,-332.12 2517.5,-332.12 2517.5,-332.12 2523.5,-332.12 2529.5,-338.12 2529.5,-344.12 2529.5,-344.12 2529.5,-356.12 2529.5,-356.12 2529.5,-362.12 2523.5,-368.12 2517.5,-368.12"/>
<text text-anchor="middle" x="2502.5" y="-353.38" font-family="Helvetica,sans-Serif" font-size="10.00">state</text>
<text text-anchor="middle" x="2502.5" y="-340.62" font-family="Helvetica,sans-Serif" font-size="10.00">txn</text>
</g>
<!-- l3c -->
<g id="node32" class="node">
<title>l3c</title>
<path fill="#a5d6a7" stroke="black" d="M2593.12,-368.12C2593.12,-368.12 2559.88,-368.12 2559.88,-368.12 2553.88,-368.12 2547.88,-362.12 2547.88,-356.12 2547.88,-356.12 2547.88,-344.12 2547.88,-344.12 2547.88,-338.12 2553.88,-332.12 2559.88,-332.12 2559.88,-332.12 2593.12,-332.12 2593.12,-332.12 2599.12,-332.12 2605.12,-338.12 2605.12,-344.12 2605.12,-344.12 2605.12,-356.12 2605.12,-356.12 2605.12,-362.12 2599.12,-368.12 2593.12,-368.12"/>
<text text-anchor="middle" x="2576.5" y="-353.38" font-family="Helvetica,sans-Serif" font-size="10.00">dispatch</text>
<text text-anchor="middle" x="2576.5" y="-340.62" font-family="Helvetica,sans-Serif" font-size="10.00">result</text>
</g>
<!-- l3d -->
<g id="node33" class="node">
<title>l3d</title>
<path fill="#a5d6a7" stroke="black" d="M2665.5,-368.12C2665.5,-368.12 2635.5,-368.12 2635.5,-368.12 2629.5,-368.12 2623.5,-362.12 2623.5,-356.12 2623.5,-356.12 2623.5,-344.12 2623.5,-344.12 2623.5,-338.12 2629.5,-332.12 2635.5,-332.12 2635.5,-332.12 2665.5,-332.12 2665.5,-332.12 2671.5,-332.12 2677.5,-338.12 2677.5,-344.12 2677.5,-344.12 2677.5,-356.12 2677.5,-356.12 2677.5,-362.12 2671.5,-368.12 2665.5,-368.12"/>
<text text-anchor="middle" x="2650.5" y="-353.38" font-family="Helvetica,sans-Serif" font-size="10.00">exit</text>
<text text-anchor="middle" x="2650.5" y="-340.62" font-family="Helvetica,sans-Serif" font-size="10.00">record</text>
</g>
<!-- l3e -->
<g id="node34" class="node">
<title>l3e</title>
<path fill="#a5d6a7" stroke="black" d="M2737.5,-368.12C2737.5,-368.12 2707.5,-368.12 2707.5,-368.12 2701.5,-368.12 2695.5,-362.12 2695.5,-356.12 2695.5,-356.12 2695.5,-344.12 2695.5,-344.12 2695.5,-338.12 2701.5,-332.12 2707.5,-332.12 2707.5,-332.12 2737.5,-332.12 2737.5,-332.12 2743.5,-332.12 2749.5,-338.12 2749.5,-344.12 2749.5,-344.12 2749.5,-356.12 2749.5,-356.12 2749.5,-362.12 2743.5,-368.12 2737.5,-368.12"/>
<text text-anchor="middle" x="2722.5" y="-353.38" font-family="Helvetica,sans-Serif" font-size="10.00">span</text>
<text text-anchor="middle" x="2722.5" y="-340.62" font-family="Helvetica,sans-Serif" font-size="10.00">finish</text>
</g>
<!-- l3f -->
<g id="node35" class="node">
<title>l3f</title>
<path fill="#a5d6a7" stroke="black" d="M2809.5,-368.12C2809.5,-368.12 2779.5,-368.12 2779.5,-368.12 2773.5,-368.12 2767.5,-362.12 2767.5,-356.12 2767.5,-356.12 2767.5,-344.12 2767.5,-344.12 2767.5,-338.12 2773.5,-332.12 2779.5,-332.12 2779.5,-332.12 2809.5,-332.12 2809.5,-332.12 2815.5,-332.12 2821.5,-338.12 2821.5,-344.12 2821.5,-344.12 2821.5,-356.12 2821.5,-356.12 2821.5,-362.12 2815.5,-368.12 2809.5,-368.12"/>
<text text-anchor="middle" x="2794.5" y="-353.38" font-family="Helvetica,sans-Serif" font-size="10.00">WAL</text>
<text text-anchor="middle" x="2794.5" y="-340.62" font-family="Helvetica,sans-Serif" font-size="10.00">commit</text>
</g>
<!-- l4 -->
<g id="node36" class="node">
<title>l4</title>
<path fill="#fff59d" stroke="#f57f17" stroke-width="3" d="M2953.25,-368.12C2953.25,-368.12 2851.75,-368.12 2851.75,-368.12 2845.75,-368.12 2839.75,-362.12 2839.75,-356.12 2839.75,-356.12 2839.75,-344.12 2839.75,-344.12 2839.75,-338.12 2845.75,-332.12 2851.75,-332.12 2851.75,-332.12 2953.25,-332.12 2953.25,-332.12 2959.25,-332.12 2965.25,-338.12 2965.25,-344.12 2965.25,-344.12 2965.25,-356.12 2965.25,-356.12 2965.25,-362.12 2959.25,-368.12 2953.25,-368.12"/>
<text text-anchor="middle" x="2902.5" y="-347" font-family="Helvetica,sans-Serif" font-size="10.00">L4 System ★Pass&#45;11★</text>
</g>
<!-- l4a -->
<g id="node37" class="node">
<title>l4a</title>
<path fill="#a5d6a7" stroke="#1b5e20" stroke-width="2" d="M3077.5,-379.62C3077.5,-379.62 2995.5,-379.62 2995.5,-379.62 2989.5,-379.62 2983.5,-373.62 2983.5,-367.62 2983.5,-367.62 2983.5,-332.62 2983.5,-332.62 2983.5,-326.62 2989.5,-320.62 2995.5,-320.62 2995.5,-320.62 3077.5,-320.62 3077.5,-320.62 3083.5,-320.62 3089.5,-326.62 3089.5,-332.62 3089.5,-332.62 3089.5,-367.62 3089.5,-367.62 3089.5,-373.62 3083.5,-379.62 3077.5,-379.62"/>
<text text-anchor="middle" x="3036.5" y="-366.12" font-family="Helvetica,sans-Serif" font-size="10.00">scheduler&#45;tick</text>
<text text-anchor="middle" x="3036.5" y="-353.38" font-family="Helvetica,sans-Serif" font-size="10.00">lifeline</text>
<text text-anchor="middle" x="3036.5" y="-340.62" font-family="Helvetica,sans-Serif" font-size="10.00">SC&#45;DISP&#45;REGISTRY</text>
<text text-anchor="middle" x="3036.5" y="-327.88" font-family="Helvetica,sans-Serif" font-size="10.00">&#45;001..003</text>
</g>
<!-- l4b -->
<g id="node38" class="node">
<title>l4b</title>
<path fill="#a5d6a7" stroke="#1b5e20" stroke-width="2" d="M3201.5,-379.62C3201.5,-379.62 3119.5,-379.62 3119.5,-379.62 3113.5,-379.62 3107.5,-373.62 3107.5,-367.62 3107.5,-367.62 3107.5,-332.62 3107.5,-332.62 3107.5,-326.62 3113.5,-320.62 3119.5,-320.62 3119.5,-320.62 3201.5,-320.62 3201.5,-320.62 3207.5,-320.62 3213.5,-326.62 3213.5,-332.62 3213.5,-332.62 3213.5,-367.62 3213.5,-367.62 3213.5,-373.62 3207.5,-379.62 3201.5,-379.62"/>
<text text-anchor="middle" x="3160.5" y="-366.12" font-family="Helvetica,sans-Serif" font-size="10.00">oban_jobs</text>
<text text-anchor="middle" x="3160.5" y="-353.38" font-family="Helvetica,sans-Serif" font-size="10.00">table</text>
<text text-anchor="middle" x="3160.5" y="-340.62" font-family="Helvetica,sans-Serif" font-size="10.00">SC&#45;DISP&#45;REGISTRY</text>
<text text-anchor="middle" x="3160.5" y="-327.88" font-family="Helvetica,sans-Serif" font-size="10.00">&#45;004</text>
</g>
<!-- l4c -->
<g id="node39" class="node">
<title>l4c</title>
<path fill="#66bb6a" stroke="#1b5e20" stroke-width="3" d="M3325.5,-379.62C3325.5,-379.62 3243.5,-379.62 3243.5,-379.62 3237.5,-379.62 3231.5,-373.62 3231.5,-367.62 3231.5,-367.62 3231.5,-332.62 3231.5,-332.62 3231.5,-326.62 3237.5,-320.62 3243.5,-320.62 3243.5,-320.62 3325.5,-320.62 3325.5,-320.62 3331.5,-320.62 3337.5,-326.62 3337.5,-332.62 3337.5,-332.62 3337.5,-367.62 3337.5,-367.62 3337.5,-373.62 3331.5,-379.62 3325.5,-379.62"/>
<text text-anchor="middle" x="3284.5" y="-366.12" font-family="Helvetica,sans-Serif" font-size="10.00" fill="white">workers::dispatch</text>
<text text-anchor="middle" x="3284.5" y="-353.38" font-family="Helvetica,sans-Serif" font-size="10.00" fill="white">★Pass&#45;10 fix★</text>
<text text-anchor="middle" x="3284.5" y="-340.62" font-family="Helvetica,sans-Serif" font-size="10.00" fill="white">SC&#45;DISP&#45;REGISTRY</text>
<text text-anchor="middle" x="3284.5" y="-327.88" font-family="Helvetica,sans-Serif" font-size="10.00" fill="white">&#45;005..007</text>
</g>
<!-- l4d -->
<g id="node40" class="node">
<title>l4d</title>
<path fill="#a5d6a7" stroke="#1b5e20" stroke-width="2" d="M3449.5,-379.62C3449.5,-379.62 3367.5,-379.62 3367.5,-379.62 3361.5,-379.62 3355.5,-373.62 3355.5,-367.62 3355.5,-367.62 3355.5,-332.62 3355.5,-332.62 3355.5,-326.62 3361.5,-320.62 3367.5,-320.62 3367.5,-320.62 3449.5,-320.62 3449.5,-320.62 3455.5,-320.62 3461.5,-326.62 3461.5,-332.62 3461.5,-332.62 3461.5,-367.62 3461.5,-367.62 3461.5,-373.62 3455.5,-379.62 3449.5,-379.62"/>
<text text-anchor="middle" x="3408.5" y="-366.12" font-family="Helvetica,sans-Serif" font-size="10.00">process_runner</text>
<text text-anchor="middle" x="3408.5" y="-353.38" font-family="Helvetica,sans-Serif" font-size="10.00">timeout/heartbeat</text>
<text text-anchor="middle" x="3408.5" y="-340.62" font-family="Helvetica,sans-Serif" font-size="10.00">SC&#45;DISP&#45;REGISTRY</text>
<text text-anchor="middle" x="3408.5" y="-327.88" font-family="Helvetica,sans-Serif" font-size="10.00">&#45;008</text>
</g>
<!-- l4e -->
<g id="node41" class="node">
<title>l4e</title>
<path fill="#a5d6a7" stroke="#1b5e20" stroke-width="2" d="M3573.5,-386C3573.5,-386 3491.5,-386 3491.5,-386 3485.5,-386 3479.5,-380 3479.5,-374 3479.5,-374 3479.5,-326.25 3479.5,-326.25 3479.5,-320.25 3485.5,-314.25 3491.5,-314.25 3491.5,-314.25 3573.5,-314.25 3573.5,-314.25 3579.5,-314.25 3585.5,-320.25 3585.5,-326.25 3585.5,-326.25 3585.5,-374 3585.5,-374 3585.5,-380 3579.5,-386 3573.5,-386"/>
<text text-anchor="middle" x="3532.5" y="-372.5" font-family="Helvetica,sans-Serif" font-size="10.00">Zenoh</text>
<text text-anchor="middle" x="3532.5" y="-359.75" font-family="Helvetica,sans-Serif" font-size="10.00">indrajaal/l4/</text>
<text text-anchor="middle" x="3532.5" y="-347" font-family="Helvetica,sans-Serif" font-size="10.00">sched/**</text>
<text text-anchor="middle" x="3532.5" y="-334.25" font-family="Helvetica,sans-Serif" font-size="10.00">SC&#45;DISP&#45;REGISTRY</text>
<text text-anchor="middle" x="3532.5" y="-321.5" font-family="Helvetica,sans-Serif" font-size="10.00">&#45;009</text>
</g>
<!-- l4f -->
<g id="node42" class="node">
<title>l4f</title>
<path fill="#a5d6a7" stroke="#1b5e20" stroke-width="2" d="M3697.5,-373.25C3697.5,-373.25 3615.5,-373.25 3615.5,-373.25 3609.5,-373.25 3603.5,-367.25 3603.5,-361.25 3603.5,-361.25 3603.5,-339 3603.5,-339 3603.5,-333 3609.5,-327 3615.5,-327 3615.5,-327 3697.5,-327 3697.5,-327 3703.5,-327 3709.5,-333 3709.5,-339 3709.5,-339 3709.5,-361.25 3709.5,-361.25 3709.5,-367.25 3703.5,-373.25 3697.5,-373.25"/>
<text text-anchor="middle" x="3656.5" y="-359.75" font-family="Helvetica,sans-Serif" font-size="10.00">durable log</text>
<text text-anchor="middle" x="3656.5" y="-347" font-family="Helvetica,sans-Serif" font-size="10.00">SC&#45;DISP&#45;REGISTRY</text>
<text text-anchor="middle" x="3656.5" y="-334.25" font-family="Helvetica,sans-Serif" font-size="10.00">&#45;010</text>
</g>
<!-- l5 -->
<g id="node43" class="node">
<title>l5</title>
<path fill="#cfd8dc" stroke="black" stroke-width="2" d="M3791.88,-368.12C3791.88,-368.12 3739.12,-368.12 3739.12,-368.12 3733.12,-368.12 3727.12,-362.12 3727.12,-356.12 3727.12,-356.12 3727.12,-344.12 3727.12,-344.12 3727.12,-338.12 3733.12,-332.12 3739.12,-332.12 3739.12,-332.12 3791.88,-332.12 3791.88,-332.12 3797.88,-332.12 3803.88,-338.12 3803.88,-344.12 3803.88,-344.12 3803.88,-356.12 3803.88,-356.12 3803.88,-362.12 3797.88,-368.12 3791.88,-368.12"/>
<text text-anchor="middle" x="3765.5" y="-347" font-family="Helvetica,sans-Serif" font-size="10.00">L5 Cognitive</text>
</g>
<!-- l5a -->
<g id="node44" class="node">
<title>l5a</title>
<path fill="#a5d6a7" stroke="black" d="M3863.5,-368.12C3863.5,-368.12 3833.5,-368.12 3833.5,-368.12 3827.5,-368.12 3821.5,-362.12 3821.5,-356.12 3821.5,-356.12 3821.5,-344.12 3821.5,-344.12 3821.5,-338.12 3827.5,-332.12 3833.5,-332.12 3833.5,-332.12 3863.5,-332.12 3863.5,-332.12 3869.5,-332.12 3875.5,-338.12 3875.5,-344.12 3875.5,-344.12 3875.5,-356.12 3875.5,-356.12 3875.5,-362.12 3869.5,-368.12 3863.5,-368.12"/>
<text text-anchor="middle" x="3848.5" y="-353.38" font-family="Helvetica,sans-Serif" font-size="10.00">RETE</text>
<text text-anchor="middle" x="3848.5" y="-340.62" font-family="Helvetica,sans-Serif" font-size="10.00">rules</text>
</g>
<!-- l5b -->
<g id="node45" class="node">
<title>l5b</title>
<path fill="#fff59d" stroke="black" d="M3935.5,-368.12C3935.5,-368.12 3905.5,-368.12 3905.5,-368.12 3899.5,-368.12 3893.5,-362.12 3893.5,-356.12 3893.5,-356.12 3893.5,-344.12 3893.5,-344.12 3893.5,-338.12 3899.5,-332.12 3905.5,-332.12 3905.5,-332.12 3935.5,-332.12 3935.5,-332.12 3941.5,-332.12 3947.5,-338.12 3947.5,-344.12 3947.5,-344.12 3947.5,-356.12 3947.5,-356.12 3947.5,-362.12 3941.5,-368.12 3935.5,-368.12"/>
<text text-anchor="middle" x="3920.5" y="-353.38" font-family="Helvetica,sans-Serif" font-size="10.00">job</text>
<text text-anchor="middle" x="3920.5" y="-340.62" font-family="Helvetica,sans-Serif" font-size="10.00">cortex</text>
</g>
<!-- l5c -->
<g id="node46" class="node">
<title>l5c</title>
<path fill="#a5d6a7" stroke="black" d="M4007.5,-368.12C4007.5,-368.12 3977.5,-368.12 3977.5,-368.12 3971.5,-368.12 3965.5,-362.12 3965.5,-356.12 3965.5,-356.12 3965.5,-344.12 3965.5,-344.12 3965.5,-338.12 3971.5,-332.12 3977.5,-332.12 3977.5,-332.12 4007.5,-332.12 4007.5,-332.12 4013.5,-332.12 4019.5,-338.12 4019.5,-344.12 4019.5,-344.12 4019.5,-356.12 4019.5,-356.12 4019.5,-362.12 4013.5,-368.12 4007.5,-368.12"/>
<text text-anchor="middle" x="3992.5" y="-353.38" font-family="Helvetica,sans-Serif" font-size="10.00">OODA</text>
<text text-anchor="middle" x="3992.5" y="-340.62" font-family="Helvetica,sans-Serif" font-size="10.00">classify</text>
</g>
<!-- l5d -->
<g id="node47" class="node">
<title>l5d</title>
<path fill="#fff59d" stroke="black" d="M4083.88,-368.12C4083.88,-368.12 4049.12,-368.12 4049.12,-368.12 4043.12,-368.12 4037.12,-362.12 4037.12,-356.12 4037.12,-356.12 4037.12,-344.12 4037.12,-344.12 4037.12,-338.12 4043.12,-332.12 4049.12,-332.12 4049.12,-332.12 4083.88,-332.12 4083.88,-332.12 4089.88,-332.12 4095.88,-338.12 4095.88,-344.12 4095.88,-344.12 4095.88,-356.12 4095.88,-356.12 4095.88,-362.12 4089.88,-368.12 4083.88,-368.12"/>
<text text-anchor="middle" x="4066.5" y="-347" font-family="Helvetica,sans-Serif" font-size="10.00">ruliology</text>
</g>
<!-- l5e -->
<g id="node48" class="node">
<title>l5e</title>
<path fill="#a5d6a7" stroke="black" d="M4155.5,-368.12C4155.5,-368.12 4125.5,-368.12 4125.5,-368.12 4119.5,-368.12 4113.5,-362.12 4113.5,-356.12 4113.5,-356.12 4113.5,-344.12 4113.5,-344.12 4113.5,-338.12 4119.5,-332.12 4125.5,-332.12 4125.5,-332.12 4155.5,-332.12 4155.5,-332.12 4161.5,-332.12 4167.5,-338.12 4167.5,-344.12 4167.5,-344.12 4167.5,-356.12 4167.5,-356.12 4167.5,-362.12 4161.5,-368.12 4155.5,-368.12"/>
<text text-anchor="middle" x="4140.5" y="-353.38" font-family="Helvetica,sans-Serif" font-size="10.00">span</text>
<text text-anchor="middle" x="4140.5" y="-340.62" font-family="Helvetica,sans-Serif" font-size="10.00">cortex</text>
</g>
<!-- l5f -->
<g id="node49" class="node">
<title>l5f</title>
<path fill="#a5d6a7" stroke="black" d="M4227.5,-368.12C4227.5,-368.12 4197.5,-368.12 4197.5,-368.12 4191.5,-368.12 4185.5,-362.12 4185.5,-356.12 4185.5,-356.12 4185.5,-344.12 4185.5,-344.12 4185.5,-338.12 4191.5,-332.12 4197.5,-332.12 4197.5,-332.12 4227.5,-332.12 4227.5,-332.12 4233.5,-332.12 4239.5,-338.12 4239.5,-344.12 4239.5,-344.12 4239.5,-356.12 4239.5,-356.12 4239.5,-362.12 4233.5,-368.12 4227.5,-368.12"/>
<text text-anchor="middle" x="4212.5" y="-353.38" font-family="Helvetica,sans-Serif" font-size="10.00">ZK</text>
<text text-anchor="middle" x="4212.5" y="-340.62" font-family="Helvetica,sans-Serif" font-size="10.00">ingest</text>
</g>
<!-- l6 -->
<g id="node50" class="node">
<title>l6</title>
<path fill="#cfd8dc" stroke="black" stroke-width="2" d="M4329.25,-368.12C4329.25,-368.12 4269.75,-368.12 4269.75,-368.12 4263.75,-368.12 4257.75,-362.12 4257.75,-356.12 4257.75,-356.12 4257.75,-344.12 4257.75,-344.12 4257.75,-338.12 4263.75,-332.12 4269.75,-332.12 4269.75,-332.12 4329.25,-332.12 4329.25,-332.12 4335.25,-332.12 4341.25,-338.12 4341.25,-344.12 4341.25,-344.12 4341.25,-356.12 4341.25,-356.12 4341.25,-362.12 4335.25,-368.12 4329.25,-368.12"/>
<text text-anchor="middle" x="4299.5" y="-347" font-family="Helvetica,sans-Serif" font-size="10.00">L6 Ecosystem</text>
</g>
<!-- l6a -->
<g id="node51" class="node">
<title>l6a</title>
<path fill="#fff59d" stroke="black" d="M4401.5,-368.12C4401.5,-368.12 4371.5,-368.12 4371.5,-368.12 4365.5,-368.12 4359.5,-362.12 4359.5,-356.12 4359.5,-356.12 4359.5,-344.12 4359.5,-344.12 4359.5,-338.12 4365.5,-332.12 4371.5,-332.12 4371.5,-332.12 4401.5,-332.12 4401.5,-332.12 4407.5,-332.12 4413.5,-338.12 4413.5,-344.12 4413.5,-344.12 4413.5,-356.12 4413.5,-356.12 4413.5,-362.12 4407.5,-368.12 4401.5,-368.12"/>
<text text-anchor="middle" x="4386.5" y="-353.38" font-family="Helvetica,sans-Serif" font-size="10.00">quorum</text>
<text text-anchor="middle" x="4386.5" y="-340.62" font-family="Helvetica,sans-Serif" font-size="10.00">fan&#45;out</text>
</g>
<!-- l6b -->
<g id="node52" class="node">
<title>l6b</title>
<path fill="#ef9a9a" stroke="#b71c1c" d="M4489.12,-368.12C4489.12,-368.12 4443.88,-368.12 4443.88,-368.12 4437.88,-368.12 4431.88,-362.12 4431.88,-356.12 4431.88,-356.12 4431.88,-344.12 4431.88,-344.12 4431.88,-338.12 4437.88,-332.12 4443.88,-332.12 4443.88,-332.12 4489.12,-332.12 4489.12,-332.12 4495.12,-332.12 4501.12,-338.12 4501.12,-344.12 4501.12,-344.12 4501.12,-356.12 4501.12,-356.12 4501.12,-362.12 4495.12,-368.12 4489.12,-368.12"/>
<text text-anchor="middle" x="4466.5" y="-353.38" font-family="Helvetica,sans-Serif" font-size="10.00">multi&#45;node</text>
<text text-anchor="middle" x="4466.5" y="-340.62" font-family="Helvetica,sans-Serif" font-size="10.00">claim</text>
</g>
<!-- l6c -->
<g id="node53" class="node">
<title>l6c</title>
<path fill="#fff59d" stroke="black" d="M4566.25,-368.12C4566.25,-368.12 4530.75,-368.12 4530.75,-368.12 4524.75,-368.12 4518.75,-362.12 4518.75,-356.12 4518.75,-356.12 4518.75,-344.12 4518.75,-344.12 4518.75,-338.12 4524.75,-332.12 4530.75,-332.12 4530.75,-332.12 4566.25,-332.12 4566.25,-332.12 4572.25,-332.12 4578.25,-338.12 4578.25,-344.12 4578.25,-344.12 4578.25,-356.12 4578.25,-356.12 4578.25,-362.12 4572.25,-368.12 4566.25,-368.12"/>
<text text-anchor="middle" x="4548.5" y="-353.38" font-family="Helvetica,sans-Serif" font-size="10.00">per&#45;node</text>
<text text-anchor="middle" x="4548.5" y="-340.62" font-family="Helvetica,sans-Serif" font-size="10.00">dispatch</text>
</g>
<!-- l6d -->
<g id="node54" class="node">
<title>l6d</title>
<path fill="#ef9a9a" stroke="#b71c1c" d="M4653.12,-368.12C4653.12,-368.12 4607.88,-368.12 4607.88,-368.12 4601.88,-368.12 4595.88,-362.12 4595.88,-356.12 4595.88,-356.12 4595.88,-344.12 4595.88,-344.12 4595.88,-338.12 4601.88,-332.12 4607.88,-332.12 4607.88,-332.12 4653.12,-332.12 4653.12,-332.12 4659.12,-332.12 4665.12,-338.12 4665.12,-344.12 4665.12,-344.12 4665.12,-356.12 4665.12,-356.12 4665.12,-362.12 4659.12,-368.12 4653.12,-368.12"/>
<text text-anchor="middle" x="4630.5" y="-353.38" font-family="Helvetica,sans-Serif" font-size="10.00">cross&#45;node</text>
<text text-anchor="middle" x="4630.5" y="-340.62" font-family="Helvetica,sans-Serif" font-size="10.00">spawn</text>
</g>
<!-- l6e -->
<g id="node55" class="node">
<title>l6e</title>
<path fill="#a5d6a7" stroke="black" d="M4725.5,-368.12C4725.5,-368.12 4695.5,-368.12 4695.5,-368.12 4689.5,-368.12 4683.5,-362.12 4683.5,-356.12 4683.5,-356.12 4683.5,-344.12 4683.5,-344.12 4683.5,-338.12 4689.5,-332.12 4695.5,-332.12 4695.5,-332.12 4725.5,-332.12 4725.5,-332.12 4731.5,-332.12 4737.5,-338.12 4737.5,-344.12 4737.5,-344.12 4737.5,-356.12 4737.5,-356.12 4737.5,-362.12 4731.5,-368.12 4725.5,-368.12"/>
<text text-anchor="middle" x="4710.5" y="-353.38" font-family="Helvetica,sans-Serif" font-size="10.00">mesh</text>
<text text-anchor="middle" x="4710.5" y="-340.62" font-family="Helvetica,sans-Serif" font-size="10.00">spans</text>
</g>
<!-- l6f -->
<g id="node56" class="node">
<title>l6f</title>
<path fill="#fff59d" stroke="black" d="M4797.5,-368.12C4797.5,-368.12 4767.5,-368.12 4767.5,-368.12 4761.5,-368.12 4755.5,-362.12 4755.5,-356.12 4755.5,-356.12 4755.5,-344.12 4755.5,-344.12 4755.5,-338.12 4761.5,-332.12 4767.5,-332.12 4767.5,-332.12 4797.5,-332.12 4797.5,-332.12 4803.5,-332.12 4809.5,-338.12 4809.5,-344.12 4809.5,-344.12 4809.5,-356.12 4809.5,-356.12 4809.5,-362.12 4803.5,-368.12 4797.5,-368.12"/>
<text text-anchor="middle" x="4782.5" y="-353.38" font-family="Helvetica,sans-Serif" font-size="10.00">CRDT</text>
<text text-anchor="middle" x="4782.5" y="-340.62" font-family="Helvetica,sans-Serif" font-size="10.00">log</text>
</g>
<!-- l7 -->
<g id="node57" class="node">
<title>l7</title>
<path fill="#cfd8dc" stroke="black" stroke-width="2" d="M4897.5,-368.12C4897.5,-368.12 4839.5,-368.12 4839.5,-368.12 4833.5,-368.12 4827.5,-362.12 4827.5,-356.12 4827.5,-356.12 4827.5,-344.12 4827.5,-344.12 4827.5,-338.12 4833.5,-332.12 4839.5,-332.12 4839.5,-332.12 4897.5,-332.12 4897.5,-332.12 4903.5,-332.12 4909.5,-338.12 4909.5,-344.12 4909.5,-344.12 4909.5,-356.12 4909.5,-356.12 4909.5,-362.12 4903.5,-368.12 4897.5,-368.12"/>
<text text-anchor="middle" x="4868.5" y="-347" font-family="Helvetica,sans-Serif" font-size="10.00">L7 Federation</text>
</g>
<!-- l7a -->
<g id="node58" class="node">
<title>l7a</title>
<path fill="#fff59d" stroke="black" d="M4971,-368.12C4971,-368.12 4940,-368.12 4940,-368.12 4934,-368.12 4928,-362.12 4928,-356.12 4928,-356.12 4928,-344.12 4928,-344.12 4928,-338.12 4934,-332.12 4940,-332.12 4940,-332.12 4971,-332.12 4971,-332.12 4977,-332.12 4983,-338.12 4983,-344.12 4983,-344.12 4983,-356.12 4983,-356.12 4983,-362.12 4977,-368.12 4971,-368.12"/>
<text text-anchor="middle" x="4955.5" y="-353.38" font-family="Helvetica,sans-Serif" font-size="10.00">leader</text>
<text text-anchor="middle" x="4955.5" y="-340.62" font-family="Helvetica,sans-Serif" font-size="10.00">election</text>
</g>
<!-- l7b -->
<g id="node59" class="node">
<title>l7b</title>
<path fill="#ef9a9a" stroke="#b71c1c" d="M5052.12,-368.12C5052.12,-368.12 5012.88,-368.12 5012.88,-368.12 5006.88,-368.12 5000.88,-362.12 5000.88,-356.12 5000.88,-356.12 5000.88,-344.12 5000.88,-344.12 5000.88,-338.12 5006.88,-332.12 5012.88,-332.12 5012.88,-332.12 5052.12,-332.12 5052.12,-332.12 5058.12,-332.12 5064.12,-338.12 5064.12,-344.12 5064.12,-344.12 5064.12,-356.12 5064.12,-356.12 5064.12,-362.12 5058.12,-368.12 5052.12,-368.12"/>
<text text-anchor="middle" x="5032.5" y="-353.38" font-family="Helvetica,sans-Serif" font-size="10.00">federated</text>
<text text-anchor="middle" x="5032.5" y="-340.62" font-family="Helvetica,sans-Serif" font-size="10.00">queue</text>
</g>
<!-- l7c -->
<g id="node60" class="node">
<title>l7c</title>
<path fill="#ef9a9a" stroke="#b71c1c" d="M5133.12,-368.12C5133.12,-368.12 5093.88,-368.12 5093.88,-368.12 5087.88,-368.12 5081.88,-362.12 5081.88,-356.12 5081.88,-356.12 5081.88,-344.12 5081.88,-344.12 5081.88,-338.12 5087.88,-332.12 5093.88,-332.12 5093.88,-332.12 5133.12,-332.12 5133.12,-332.12 5139.12,-332.12 5145.12,-338.12 5145.12,-344.12 5145.12,-344.12 5145.12,-356.12 5145.12,-356.12 5145.12,-362.12 5139.12,-368.12 5133.12,-368.12"/>
<text text-anchor="middle" x="5113.5" y="-353.38" font-family="Helvetica,sans-Serif" font-size="10.00">federated</text>
<text text-anchor="middle" x="5113.5" y="-340.62" font-family="Helvetica,sans-Serif" font-size="10.00">dispatch</text>
</g>
<!-- l7d -->
<g id="node61" class="node">
<title>l7d</title>
<path fill="#ef9a9a" stroke="#b71c1c" d="M5225.38,-368.12C5225.38,-368.12 5175.62,-368.12 5175.62,-368.12 5169.62,-368.12 5163.62,-362.12 5163.62,-356.12 5163.62,-356.12 5163.62,-344.12 5163.62,-344.12 5163.62,-338.12 5169.62,-332.12 5175.62,-332.12 5175.62,-332.12 5225.38,-332.12 5225.38,-332.12 5231.38,-332.12 5237.38,-338.12 5237.38,-344.12 5237.38,-344.12 5237.38,-356.12 5237.38,-356.12 5237.38,-362.12 5231.38,-368.12 5225.38,-368.12"/>
<text text-anchor="middle" x="5200.5" y="-353.38" font-family="Helvetica,sans-Serif" font-size="10.00">cross&#45;realm</text>
<text text-anchor="middle" x="5200.5" y="-340.62" font-family="Helvetica,sans-Serif" font-size="10.00">runner</text>
</g>
<!-- l7e -->
<g id="node62" class="node">
<title>l7e</title>
<path fill="#fff59d" stroke="black" d="M5307.12,-368.12C5307.12,-368.12 5267.88,-368.12 5267.88,-368.12 5261.88,-368.12 5255.88,-362.12 5255.88,-356.12 5255.88,-356.12 5255.88,-344.12 5255.88,-344.12 5255.88,-338.12 5261.88,-332.12 5267.88,-332.12 5267.88,-332.12 5307.12,-332.12 5307.12,-332.12 5313.12,-332.12 5319.12,-338.12 5319.12,-344.12 5319.12,-344.12 5319.12,-356.12 5319.12,-356.12 5319.12,-362.12 5313.12,-368.12 5307.12,-368.12"/>
<text text-anchor="middle" x="5287.5" y="-353.38" font-family="Helvetica,sans-Serif" font-size="10.00">federated</text>
<text text-anchor="middle" x="5287.5" y="-340.62" font-family="Helvetica,sans-Serif" font-size="10.00">OTel</text>
</g>
<!-- l7f -->
<g id="node63" class="node">
<title>l7f</title>
<path fill="#fff59d" stroke="black" d="M5388.12,-368.12C5388.12,-368.12 5348.88,-368.12 5348.88,-368.12 5342.88,-368.12 5336.88,-362.12 5336.88,-356.12 5336.88,-356.12 5336.88,-344.12 5336.88,-344.12 5336.88,-338.12 5342.88,-332.12 5348.88,-332.12 5348.88,-332.12 5388.12,-332.12 5388.12,-332.12 5394.12,-332.12 5400.12,-338.12 5400.12,-344.12 5400.12,-344.12 5400.12,-356.12 5400.12,-356.12 5400.12,-362.12 5394.12,-368.12 5388.12,-368.12"/>
<text text-anchor="middle" x="5368.5" y="-353.38" font-family="Helvetica,sans-Serif" font-size="10.00">federated</text>
<text text-anchor="middle" x="5368.5" y="-340.62" font-family="Helvetica,sans-Serif" font-size="10.00">audit</text>
</g>
<!-- lg_g -->
<g id="node64" class="node">
<title>lg_g</title>
<path fill="#a5d6a7" stroke="black" d="M5538,-368.12C5538,-368.12 5465,-368.12 5465,-368.12 5459,-368.12 5453,-362.12 5453,-356.12 5453,-356.12 5453,-344.12 5453,-344.12 5453,-338.12 5459,-332.12 5465,-332.12 5465,-332.12 5538,-332.12 5538,-332.12 5544,-332.12 5550,-338.12 5550,-344.12 5550,-344.12 5550,-356.12 5550,-356.12 5550,-362.12 5544,-368.12 5538,-368.12"/>
<text text-anchor="middle" x="5501.5" y="-347" font-family="Helvetica,sans-Serif" font-size="10.00">green = covered</text>
</g>
<!-- lg_y -->
<g id="node65" class="node">
<title>lg_y</title>
<path fill="#fff59d" stroke="black" d="M5536.5,-278.25C5536.5,-278.25 5466.5,-278.25 5466.5,-278.25 5460.5,-278.25 5454.5,-272.25 5454.5,-266.25 5454.5,-266.25 5454.5,-254.25 5454.5,-254.25 5454.5,-248.25 5460.5,-242.25 5466.5,-242.25 5466.5,-242.25 5536.5,-242.25 5536.5,-242.25 5542.5,-242.25 5548.5,-248.25 5548.5,-254.25 5548.5,-254.25 5548.5,-266.25 5548.5,-266.25 5548.5,-272.25 5542.5,-278.25 5536.5,-278.25"/>
<text text-anchor="middle" x="5501.5" y="-257.12" font-family="Helvetica,sans-Serif" font-size="10.00">yellow = partial</text>
</g>
<!-- lg_g&#45;&gt;lg_y -->
<!-- lg_r -->
<g id="node66" class="node">
<title>lg_r</title>
<path fill="#ef9a9a" stroke="black" d="M5521.5,-206.25C5521.5,-206.25 5481.5,-206.25 5481.5,-206.25 5475.5,-206.25 5469.5,-200.25 5469.5,-194.25 5469.5,-194.25 5469.5,-182.25 5469.5,-182.25 5469.5,-176.25 5475.5,-170.25 5481.5,-170.25 5481.5,-170.25 5521.5,-170.25 5521.5,-170.25 5527.5,-170.25 5533.5,-176.25 5533.5,-182.25 5533.5,-182.25 5533.5,-194.25 5533.5,-194.25 5533.5,-200.25 5527.5,-206.25 5521.5,-206.25"/>
<text text-anchor="middle" x="5501.5" y="-185.12" font-family="Helvetica,sans-Serif" font-size="10.00">red = gap</text>
</g>
<!-- lg_y&#45;&gt;lg_r -->
<!-- lg_n -->
<g id="node67" class="node">
<title>lg_n</title>
<path fill="#eeeeee" stroke="black" d="M5523,-134.25C5523,-134.25 5480,-134.25 5480,-134.25 5474,-134.25 5468,-128.25 5468,-122.25 5468,-122.25 5468,-110.25 5468,-110.25 5468,-104.25 5474,-98.25 5480,-98.25 5480,-98.25 5523,-98.25 5523,-98.25 5529,-98.25 5535,-104.25 5535,-110.25 5535,-110.25 5535,-122.25 5535,-122.25 5535,-128.25 5529,-134.25 5523,-134.25"/>
<text text-anchor="middle" x="5501.5" y="-113.12" font-family="Helvetica,sans-Serif" font-size="10.00">grey = n/a</text>
</g>
<!-- lg_r&#45;&gt;lg_n -->
<!-- lg_s -->
<g id="node68" class="node">
<title>lg_s</title>
<polygon fill="#fff59d" stroke="#f57f17" stroke-width="2" points="5580.75,-62.25 5416.25,-62.25 5416.25,-16 5586.75,-16 5586.75,-56.25 5580.75,-62.25"/>
<polyline fill="none" stroke="#f57f17" stroke-width="2" points="5580.75,-62.25 5580.75,-56.25"/>
<polyline fill="none" stroke="#f57f17" stroke-width="2" points="5586.75,-56.25 5580.75,-56.25"/>
<text text-anchor="middle" x="5501.5" y="-48.75" font-family="Helvetica,sans-Serif" font-size="10.00">SC&#45;DISP&#45;REGISTRY&#45;001..010</text>
<text text-anchor="middle" x="5501.5" y="-36" font-family="Helvetica,sans-Serif" font-size="10.00">new family covering L4&#45;System</text>
<text text-anchor="middle" x="5501.5" y="-23.25" font-family="Helvetica,sans-Serif" font-size="10.00">dispatch registry parity</text>
</g>
<!-- lg_n&#45;&gt;lg_s -->
</g>
</svg>
