<?xml version="1.0" encoding="UTF-8" standalone="no"?>
<!DOCTYPE svg PUBLIC "-//W3C//DTD SVG 1.1//EN"
 "http://www.w3.org/Graphics/SVG/1.1/DTD/svg11.dtd">
<!-- Generated by graphviz version 12.2.1 (0)
 -->
<!-- Title: G13DataflowEndToEnd Pages: 1 -->
<svg width="1196pt" height="552pt"
 viewBox="0.00 0.00 1196.25 551.86" xmlns="http://www.w3.org/2000/svg" xmlns:xlink="http://www.w3.org/1999/xlink">
<g id="graph0" class="graph" transform="scale(1 1) rotate(0) translate(4 547.86)">
<title>G13DataflowEndToEnd</title>
<polygon fill="#fafafa" stroke="none" points="-4,4 -4,-547.86 1192.25,-547.86 1192.25,4 -4,4"/>
<text text-anchor="middle" x="594.12" y="-524.66" font-family="Helvetica,sans-Serif" font-size="16.00">G13 — End&#45;to&#45;End Dataflow (operator → cortex → scheduler → workers → telemetry → dashboard)</text>
<g id="clust1" class="cluster">
<title>cluster_legend</title>
<path fill="#f5f5f5" stroke="#9e9e9e" d="M20,-437.36C20,-437.36 1033.25,-437.36 1033.25,-437.36 1039.25,-437.36 1045.25,-443.36 1045.25,-449.36 1045.25,-449.36 1045.25,-496.36 1045.25,-496.36 1045.25,-502.36 1039.25,-508.36 1033.25,-508.36 1033.25,-508.36 20,-508.36 20,-508.36 14,-508.36 8,-502.36 8,-496.36 8,-496.36 8,-449.36 8,-449.36 8,-443.36 14,-437.36 20,-437.36"/>
<text text-anchor="middle" x="526.62" y="-495.81" font-family="Helvetica,sans-Serif" font-size="9.00">Legend</text>
</g>
<!-- op -->
<g id="node1" class="node">
<title>op</title>
<path fill="#fff9c4" stroke="#f9a825" d="M297,-108.36C297,-108.36 260,-108.36 260,-108.36 254,-108.36 248,-102.36 248,-96.36 248,-96.36 248,-84.36 248,-84.36 248,-78.36 254,-72.36 260,-72.36 260,-72.36 297,-72.36 297,-72.36 303,-72.36 309,-78.36 309,-84.36 309,-84.36 309,-96.36 309,-96.36 309,-102.36 303,-108.36 297,-108.36"/>
<text text-anchor="middle" x="278.5" y="-93.61" font-family="Helvetica,sans-Serif" font-size="10.00">Operator</text>
<text text-anchor="middle" x="278.5" y="-80.86" font-family="Helvetica,sans-Serif" font-size="10.00">(SSH/CLI)</text>
</g>
<!-- cortex -->
<g id="node3" class="node">
<title>cortex</title>
<path fill="#d1c4e9" stroke="#4527a0" d="M520.75,-83.48C520.75,-83.48 460.5,-83.48 460.5,-83.48 454.5,-83.48 448.5,-77.48 448.5,-71.48 448.5,-71.48 448.5,-49.23 448.5,-49.23 448.5,-43.23 454.5,-37.23 460.5,-37.23 460.5,-37.23 520.75,-37.23 520.75,-37.23 526.75,-37.23 532.75,-43.23 532.75,-49.23 532.75,-49.23 532.75,-71.48 532.75,-71.48 532.75,-77.48 526.75,-83.48 520.75,-83.48"/>
<text text-anchor="middle" x="490.62" y="-69.98" font-family="Helvetica,sans-Serif" font-size="10.00">cortex.rs</text>
<text text-anchor="middle" x="490.62" y="-57.23" font-family="Helvetica,sans-Serif" font-size="10.00">intent classify</text>
<text text-anchor="middle" x="490.62" y="-44.48" font-family="Helvetica,sans-Serif" font-size="10.00">(1567 LOC)</text>
</g>
<!-- op&#45;&gt;cortex -->
<g id="edge1" class="edge">
<title>op&#45;&gt;cortex</title>
<path fill="none" stroke="#37474f" d="M309.16,-86.12C342.28,-81.39 396.54,-73.65 436.92,-67.88"/>
<polygon fill="#37474f" stroke="#37474f" points="437.28,-71.37 446.68,-66.49 436.29,-64.44 437.28,-71.37"/>
<text text-anchor="middle" x="385.5" y="-92.88" font-family="Helvetica,sans-Serif" font-size="9.00">text intent</text>
<text text-anchor="middle" x="385.5" y="-81.63" font-family="Helvetica,sans-Serif" font-size="9.00">(JSON)</text>
</g>
<!-- tg -->
<g id="node2" class="node">
<title>tg</title>
<path fill="#fff9c4" stroke="#f9a825" d="M297,-54.36C297,-54.36 260,-54.36 260,-54.36 254,-54.36 248,-48.36 248,-42.36 248,-42.36 248,-30.36 248,-30.36 248,-24.36 254,-18.36 260,-18.36 260,-18.36 297,-18.36 297,-18.36 303,-18.36 309,-24.36 309,-30.36 309,-30.36 309,-42.36 309,-42.36 309,-48.36 303,-54.36 297,-54.36"/>
<text text-anchor="middle" x="278.5" y="-39.61" font-family="Helvetica,sans-Serif" font-size="10.00">Telegram</text>
<text text-anchor="middle" x="278.5" y="-26.86" font-family="Helvetica,sans-Serif" font-size="10.00">long&#45;poll</text>
</g>
<!-- tg&#45;&gt;cortex -->
<g id="edge2" class="edge">
<title>tg&#45;&gt;cortex</title>
<path fill="none" stroke="#37474f" d="M309.32,-37.38C336.95,-38.58 379.13,-41.05 415.5,-45.86 422.5,-46.78 429.83,-47.96 437.04,-49.24"/>
<polygon fill="#37474f" stroke="#37474f" points="436.26,-52.66 446.73,-51.05 437.54,-45.77 436.26,-52.66"/>
<text text-anchor="middle" x="385.5" y="-59.81" font-family="Helvetica,sans-Serif" font-size="9.00">webhook</text>
<text text-anchor="middle" x="385.5" y="-48.56" font-family="Helvetica,sans-Serif" font-size="9.00">(JSON)</text>
</g>
<!-- rag -->
<g id="node4" class="node">
<title>rag</title>
<path fill="#d1c4e9" stroke="#4527a0" d="M792.5,-40.36C792.5,-40.36 703,-40.36 703,-40.36 697,-40.36 691,-34.36 691,-28.36 691,-28.36 691,-16.36 691,-16.36 691,-10.36 697,-4.36 703,-4.36 703,-4.36 792.5,-4.36 792.5,-4.36 798.5,-4.36 804.5,-10.36 804.5,-16.36 804.5,-16.36 804.5,-28.36 804.5,-28.36 804.5,-34.36 798.5,-40.36 792.5,-40.36"/>
<text text-anchor="middle" x="747.75" y="-25.61" font-family="Helvetica,sans-Serif" font-size="10.00">rag.rs</text>
<text text-anchor="middle" x="747.75" y="-12.86" font-family="Helvetica,sans-Serif" font-size="10.00">FTS5 + embeddings</text>
</g>
<!-- cortex&#45;&gt;rag -->
<g id="edge3" class="edge">
<title>cortex&#45;&gt;rag</title>
<path fill="none" stroke="#37474f" d="M516.57,-36.9C530.04,-25.85 547.59,-13.87 565.75,-8.11 602.35,3.5 645.1,0.83 679.87,-5.15"/>
<polygon fill="#37474f" stroke="#37474f" points="678.89,-8.53 689.36,-6.92 680.17,-1.65 678.89,-8.53"/>
<text text-anchor="middle" x="616.38" y="-10.81" font-family="Helvetica,sans-Serif" font-size="9.00">query</text>
</g>
<!-- smriti -->
<g id="node5" class="node">
<title>smriti</title>
<path fill="#a5d6a7" stroke="#1b5e20" d="M999.38,-84.36C999.38,-84.36 944.38,-84.36 944.38,-84.36 938.38,-84.36 932.38,-78.36 932.38,-72.36 932.38,-72.36 932.38,-60.36 932.38,-60.36 932.38,-54.36 938.38,-48.36 944.38,-48.36 944.38,-48.36 999.38,-48.36 999.38,-48.36 1005.38,-48.36 1011.38,-54.36 1011.38,-60.36 1011.38,-60.36 1011.38,-72.36 1011.38,-72.36 1011.38,-78.36 1005.38,-84.36 999.38,-84.36"/>
<text text-anchor="middle" x="971.88" y="-69.61" font-family="Helvetica,sans-Serif" font-size="10.00">Smriti.db</text>
<text text-anchor="middle" x="971.88" y="-56.86" font-family="Helvetica,sans-Serif" font-size="10.00">(SQLite WAL)</text>
</g>
<!-- cortex&#45;&gt;smriti -->
<g id="edge7" class="edge">
<title>cortex&#45;&gt;smriti</title>
<path fill="none" stroke="#37474f" d="M533.16,-63.64C543.78,-64.34 555.18,-64.99 565.75,-65.36 693.62,-69.82 844.33,-68.45 920.85,-67.28"/>
<polygon fill="#37474f" stroke="#37474f" points="920.58,-70.78 930.52,-67.12 920.47,-63.78 920.58,-70.78"/>
<text text-anchor="middle" x="747.75" y="-82.39" font-family="Helvetica,sans-Serif" font-size="9.00">task INSERT</text>
<text text-anchor="middle" x="747.75" y="-71.14" font-family="Helvetica,sans-Serif" font-size="9.00">(sqlite row)</text>
</g>
<!-- zenoh -->
<g id="node13" class="node">
<title>zenoh</title>
<path fill="#bbdefb" stroke="#0d47a1" stroke-width="2" d="M793.62,-156.36C793.62,-156.36 701.88,-156.36 701.88,-156.36 695.88,-156.36 689.88,-150.36 689.88,-144.36 689.88,-144.36 689.88,-132.36 689.88,-132.36 689.88,-126.36 695.88,-120.36 701.88,-120.36 701.88,-120.36 793.62,-120.36 793.62,-120.36 799.62,-120.36 805.62,-126.36 805.62,-132.36 805.62,-132.36 805.62,-144.36 805.62,-144.36 805.62,-150.36 799.62,-156.36 793.62,-156.36"/>
<text text-anchor="middle" x="747.75" y="-141.61" font-family="Helvetica,sans-Serif" font-size="10.00">Zenoh router</text>
<text text-anchor="middle" x="747.75" y="-128.86" font-family="Helvetica,sans-Serif" font-size="10.00">indrajaal/l4/sched/**</text>
</g>
<!-- cortex&#45;&gt;zenoh -->
<g id="edge18" class="edge">
<title>cortex&#45;&gt;zenoh</title>
<path fill="none" stroke="#37474f" d="M533.14,-78.55C543.65,-82.77 555.02,-87.01 565.75,-90.36 609.77,-104.11 622.47,-101.08 667,-113.11 670.69,-114.1 674.46,-115.16 678.26,-116.26"/>
<polygon fill="#37474f" stroke="#37474f" points="676.96,-119.52 687.54,-119 678.94,-112.81 676.96,-119.52"/>
<text text-anchor="middle" x="616.38" y="-115.81" font-family="Helvetica,sans-Serif" font-size="9.00">trace span</text>
</g>
<!-- rag&#45;&gt;cortex -->
<g id="edge6" class="edge">
<title>rag&#45;&gt;cortex</title>
<path fill="none" stroke="#37474f" d="M690.65,-26.98C654.78,-30.36 607.34,-35.62 565.75,-42.86 558.74,-44.08 551.4,-45.56 544.18,-47.14"/>
<polygon fill="#37474f" stroke="#37474f" points="543.46,-43.71 534.48,-49.34 545,-50.54 543.46,-43.71"/>
<text text-anchor="middle" x="616.38" y="-56.81" font-family="Helvetica,sans-Serif" font-size="9.00">ranked</text>
<text text-anchor="middle" x="616.38" y="-45.56" font-family="Helvetica,sans-Serif" font-size="9.00">holons</text>
</g>
<!-- rag&#45;&gt;smriti -->
<g id="edge4" class="edge">
<title>rag&#45;&gt;smriti</title>
<path fill="none" stroke="#37474f" d="M804.66,-14.64C830.56,-12.79 861.5,-13.05 888.5,-20.11 905.39,-24.53 922.47,-33.26 936.67,-41.97"/>
<polygon fill="#37474f" stroke="#37474f" points="934.42,-44.68 944.73,-47.12 938.19,-38.78 934.42,-44.68"/>
<text text-anchor="middle" x="858.5" y="-22.81" font-family="Helvetica,sans-Serif" font-size="9.00">FTS5 SELECT</text>
</g>
<!-- smriti&#45;&gt;rag -->
<g id="edge5" class="edge">
<title>smriti&#45;&gt;rag</title>
<path fill="none" stroke="#37474f" d="M931.99,-58.65C899.94,-52.31 853.77,-43.16 815.79,-35.64"/>
<polygon fill="#37474f" stroke="#37474f" points="816.78,-32.27 806.29,-33.76 815.42,-39.13 816.78,-32.27"/>
<text text-anchor="middle" x="858.5" y="-52.29" font-family="Helvetica,sans-Serif" font-size="9.00">rows</text>
</g>
<!-- dash -->
<g id="node14" class="node">
<title>dash</title>
<path fill="#fff9c4" stroke="#f9a825" d="M1176.25,-120.36C1176.25,-120.36 1127.25,-120.36 1127.25,-120.36 1121.25,-120.36 1115.25,-114.36 1115.25,-108.36 1115.25,-108.36 1115.25,-96.36 1115.25,-96.36 1115.25,-90.36 1121.25,-84.36 1127.25,-84.36 1127.25,-84.36 1176.25,-84.36 1176.25,-84.36 1182.25,-84.36 1188.25,-90.36 1188.25,-96.36 1188.25,-96.36 1188.25,-108.36 1188.25,-108.36 1188.25,-114.36 1182.25,-120.36 1176.25,-120.36"/>
<text text-anchor="middle" x="1151.75" y="-105.61" font-family="Helvetica,sans-Serif" font-size="10.00">Dashboard</text>
<text text-anchor="middle" x="1151.75" y="-92.86" font-family="Helvetica,sans-Serif" font-size="10.00">:4200/:8443</text>
</g>
<!-- smriti&#45;&gt;dash -->
<g id="edge20" class="edge">
<title>smriti&#45;&gt;dash</title>
<path fill="none" stroke="#37474f" d="M1011.47,-74.17C1038.62,-79.67 1075.11,-87.05 1103.92,-92.88"/>
<polygon fill="#37474f" stroke="#37474f" points="1102.97,-96.26 1113.47,-94.81 1104.36,-89.4 1102.97,-96.26"/>
<text text-anchor="middle" x="1076.25" y="-104.66" font-family="Helvetica,sans-Serif" font-size="9.00">HTTP /api</text>
<text text-anchor="middle" x="1076.25" y="-93.41" font-family="Helvetica,sans-Serif" font-size="9.00">(JSON)</text>
</g>
<!-- cron -->
<g id="node6" class="node">
<title>cron</title>
<path fill="#fff59d" stroke="#f57f17" stroke-width="2" d="M93.12,-424.36C93.12,-424.36 32.12,-424.36 32.12,-424.36 26.12,-424.36 20.12,-418.36 20.12,-412.36 20.12,-412.36 20.12,-400.36 20.12,-400.36 20.12,-394.36 26.12,-388.36 32.12,-388.36 32.12,-388.36 93.12,-388.36 93.12,-388.36 99.12,-388.36 105.12,-394.36 105.12,-400.36 105.12,-400.36 105.12,-412.36 105.12,-412.36 105.12,-418.36 99.12,-424.36 93.12,-424.36"/>
<text text-anchor="middle" x="62.62" y="-409.61" font-family="Helvetica,sans-Serif" font-size="10.00">cron timer</text>
<text text-anchor="middle" x="62.62" y="-396.86" font-family="Helvetica,sans-Serif" font-size="10.00">scheduler&#45;tick</text>
</g>
<!-- wsched -->
<g id="node7" class="node">
<title>wsched</title>
<path fill="#a5d6a7" stroke="#1b5e20" d="M323.62,-424.36C323.62,-424.36 233.38,-424.36 233.38,-424.36 227.38,-424.36 221.38,-418.36 221.38,-412.36 221.38,-412.36 221.38,-400.36 221.38,-400.36 221.38,-394.36 227.38,-388.36 233.38,-388.36 233.38,-388.36 323.62,-388.36 323.62,-388.36 329.62,-388.36 335.62,-394.36 335.62,-400.36 335.62,-400.36 335.62,-412.36 335.62,-412.36 335.62,-418.36 329.62,-424.36 323.62,-424.36"/>
<text text-anchor="middle" x="278.5" y="-409.61" font-family="Helvetica,sans-Serif" font-size="10.00">workflow_schedules</text>
<text text-anchor="middle" x="278.5" y="-396.86" font-family="Helvetica,sans-Serif" font-size="10.00">(table)</text>
</g>
<!-- cron&#45;&gt;wsched -->
<g id="edge8" class="edge">
<title>cron&#45;&gt;wsched</title>
<path fill="none" stroke="#37474f" d="M105.88,-406.36C135.52,-406.36 175.78,-406.36 209.86,-406.36"/>
<polygon fill="#37474f" stroke="#37474f" points="209.64,-409.86 219.64,-406.36 209.64,-402.86 209.64,-409.86"/>
<text text-anchor="middle" x="164.38" y="-420.31" font-family="Helvetica,sans-Serif" font-size="9.00">next_run&lt;=now</text>
<text text-anchor="middle" x="164.38" y="-409.06" font-family="Helvetica,sans-Serif" font-size="9.00">(SELECT)</text>
</g>
<!-- enq -->
<g id="node8" class="node">
<title>enq</title>
<path fill="#fff59d" stroke="#f57f17" d="M507.62,-424.36C507.62,-424.36 473.62,-424.36 473.62,-424.36 467.62,-424.36 461.62,-418.36 461.62,-412.36 461.62,-412.36 461.62,-400.36 461.62,-400.36 461.62,-394.36 467.62,-388.36 473.62,-388.36 473.62,-388.36 507.62,-388.36 507.62,-388.36 513.62,-388.36 519.62,-394.36 519.62,-400.36 519.62,-400.36 519.62,-412.36 519.62,-412.36 519.62,-418.36 513.62,-424.36 507.62,-424.36"/>
<text text-anchor="middle" x="490.62" y="-409.61" font-family="Helvetica,sans-Serif" font-size="10.00">enqueue</text>
<text text-anchor="middle" x="490.62" y="-396.86" font-family="Helvetica,sans-Serif" font-size="10.00">row</text>
</g>
<!-- wsched&#45;&gt;enq -->
<g id="edge9" class="edge">
<title>wsched&#45;&gt;enq</title>
<path fill="none" stroke="#37474f" d="M336.09,-406.36C372.14,-406.36 417.94,-406.36 450.1,-406.36"/>
<polygon fill="#37474f" stroke="#37474f" points="449.78,-409.86 459.78,-406.36 449.78,-402.86 449.78,-409.86"/>
<text text-anchor="middle" x="385.5" y="-409.06" font-family="Helvetica,sans-Serif" font-size="9.00">schedule row</text>
</g>
<!-- obanjobs -->
<g id="node9" class="node">
<title>obanjobs</title>
<path fill="#a5d6a7" stroke="#1b5e20" d="M798.5,-365.36C798.5,-365.36 697,-365.36 697,-365.36 691,-365.36 685,-359.36 685,-353.36 685,-353.36 685,-341.36 685,-341.36 685,-335.36 691,-329.36 697,-329.36 697,-329.36 798.5,-329.36 798.5,-329.36 804.5,-329.36 810.5,-335.36 810.5,-341.36 810.5,-341.36 810.5,-353.36 810.5,-353.36 810.5,-359.36 804.5,-365.36 798.5,-365.36"/>
<text text-anchor="middle" x="747.75" y="-350.61" font-family="Helvetica,sans-Serif" font-size="10.00">oban_jobs</text>
<text text-anchor="middle" x="747.75" y="-337.86" font-family="Helvetica,sans-Serif" font-size="10.00">(executing/completed)</text>
</g>
<!-- enq&#45;&gt;obanjobs -->
<g id="edge10" class="edge">
<title>enq&#45;&gt;obanjobs</title>
<path fill="none" stroke="#37474f" d="M519.9,-399.82C556.71,-391.31 622.37,-376.12 673.61,-364.27"/>
<polygon fill="#37474f" stroke="#37474f" points="674.21,-367.73 683.16,-362.06 672.63,-360.91 674.21,-367.73"/>
<text text-anchor="middle" x="616.38" y="-402.87" font-family="Helvetica,sans-Serif" font-size="9.00">INSERT</text>
<text text-anchor="middle" x="616.38" y="-391.62" font-family="Helvetica,sans-Serif" font-size="9.00">(JSONB args)</text>
</g>
<!-- disp -->
<g id="node10" class="node">
<title>disp</title>
<path fill="#66bb6a" stroke="#1b5e20" stroke-width="3" d="M325.5,-263.48C325.5,-263.48 231.5,-263.48 231.5,-263.48 225.5,-263.48 219.5,-257.48 219.5,-251.48 219.5,-251.48 219.5,-229.23 219.5,-229.23 219.5,-223.23 225.5,-217.23 231.5,-217.23 231.5,-217.23 325.5,-217.23 325.5,-217.23 331.5,-217.23 337.5,-223.23 337.5,-229.23 337.5,-229.23 337.5,-251.48 337.5,-251.48 337.5,-257.48 331.5,-263.48 325.5,-263.48"/>
<text text-anchor="middle" x="278.5" y="-249.98" font-family="Helvetica,sans-Serif" font-size="10.00" fill="white">workers::dispatch</text>
<text text-anchor="middle" x="278.5" y="-237.23" font-family="Helvetica,sans-Serif" font-size="10.00" fill="white">★Pass&#45;10 fix★</text>
<text text-anchor="middle" x="278.5" y="-224.48" font-family="Helvetica,sans-Serif" font-size="10.00" fill="white">(match&#45;arm registry)</text>
</g>
<!-- obanjobs&#45;&gt;disp -->
<g id="edge11" class="edge">
<title>obanjobs&#45;&gt;disp</title>
<path fill="none" stroke="#37474f" d="M684.71,-346.04C649.55,-344.42 604.9,-340.91 565.75,-333.36 469.58,-314.8 448.38,-298.42 355.5,-267.36 353.54,-266.7 351.56,-266.04 349.56,-265.36"/>
<polygon fill="#37474f" stroke="#37474f" points="350.78,-262.08 340.19,-262.14 348.51,-268.7 350.78,-262.08"/>
<text text-anchor="middle" x="490.62" y="-343.62" font-family="Helvetica,sans-Serif" font-size="9.00">claim</text>
<text text-anchor="middle" x="490.62" y="-332.37" font-family="Helvetica,sans-Serif" font-size="9.00">(SELECT FOR UPDATE)</text>
</g>
<!-- pr -->
<g id="node11" class="node">
<title>pr</title>
<path fill="#ce93d8" stroke="#4a148c" stroke-width="2" d="M533.88,-263.48C533.88,-263.48 447.38,-263.48 447.38,-263.48 441.38,-263.48 435.38,-257.48 435.38,-251.48 435.38,-251.48 435.38,-229.23 435.38,-229.23 435.38,-223.23 441.38,-217.23 447.38,-217.23 447.38,-217.23 533.88,-217.23 533.88,-217.23 539.88,-217.23 545.88,-223.23 545.88,-229.23 545.88,-229.23 545.88,-251.48 545.88,-251.48 545.88,-257.48 539.88,-263.48 533.88,-263.48"/>
<text text-anchor="middle" x="490.62" y="-249.98" font-family="Helvetica,sans-Serif" font-size="10.00">process_runner</text>
<text text-anchor="middle" x="490.62" y="-237.23" font-family="Helvetica,sans-Serif" font-size="10.00">timeout / heartbeat</text>
<text text-anchor="middle" x="490.62" y="-224.48" font-family="Helvetica,sans-Serif" font-size="10.00">★Pass&#45;9 join()★</text>
</g>
<!-- disp&#45;&gt;pr -->
<g id="edge12" class="edge">
<title>disp&#45;&gt;pr</title>
<path fill="none" stroke="#37474f" d="M338.87,-240.36C365.21,-240.36 396.3,-240.36 423.38,-240.36"/>
<polygon fill="#37474f" stroke="#37474f" points="423.21,-243.86 433.21,-240.36 423.21,-236.86 423.21,-243.86"/>
<text text-anchor="middle" x="385.5" y="-254.31" font-family="Helvetica,sans-Serif" font-size="9.00">RunSpec</text>
<text text-anchor="middle" x="385.5" y="-243.06" font-family="Helvetica,sans-Serif" font-size="9.00">(struct)</text>
</g>
<!-- disp&#45;&gt;zenoh -->
<g id="edge17" class="edge">
<title>disp&#45;&gt;zenoh</title>
<path fill="none" stroke="#1565c0" d="M338.68,-217.98C367.14,-207.58 401.88,-195.44 433.5,-185.86 491.53,-168.28 505.92,-162.18 565.75,-152.36 602.49,-146.33 643.87,-142.88 677.78,-140.92"/>
<polygon fill="#1565c0" stroke="#1565c0" points="677.67,-144.43 687.47,-140.39 677.29,-137.44 677.67,-144.43"/>
<text text-anchor="middle" x="490.62" y="-199.81" font-family="Helvetica,sans-Serif" font-size="9.00">dispatch span</text>
<text text-anchor="middle" x="490.62" y="-188.56" font-family="Helvetica,sans-Serif" font-size="9.00">(OTel)</text>
</g>
<!-- pr&#45;&gt;obanjobs -->
<g id="edge15" class="edge">
<title>pr&#45;&gt;obanjobs</title>
<path fill="none" stroke="#37474f" d="M546.8,-261.77C581.47,-275.41 627.05,-293.7 667,-310.86 676.86,-315.1 687.34,-319.77 697.35,-324.31"/>
<polygon fill="#37474f" stroke="#37474f" points="695.64,-327.38 706.19,-328.35 698.55,-321.01 695.64,-327.38"/>
<text text-anchor="middle" x="616.38" y="-324.81" font-family="Helvetica,sans-Serif" font-size="9.00">UPDATE state</text>
<text text-anchor="middle" x="616.38" y="-313.56" font-family="Helvetica,sans-Serif" font-size="9.00">(completed/failed)</text>
</g>
<!-- gleam -->
<g id="node12" class="node">
<title>gleam</title>
<path fill="#e1bee7" stroke="#4a148c" d="M783.5,-258.36C783.5,-258.36 712,-258.36 712,-258.36 706,-258.36 700,-252.36 700,-246.36 700,-246.36 700,-234.36 700,-234.36 700,-228.36 706,-222.36 712,-222.36 712,-222.36 783.5,-222.36 783.5,-222.36 789.5,-222.36 795.5,-228.36 795.5,-234.36 795.5,-234.36 795.5,-246.36 795.5,-246.36 795.5,-252.36 789.5,-258.36 783.5,-258.36"/>
<text text-anchor="middle" x="747.75" y="-243.61" font-family="Helvetica,sans-Serif" font-size="10.00">gleam build/test</text>
<text text-anchor="middle" x="747.75" y="-230.86" font-family="Helvetica,sans-Serif" font-size="10.00">(subprocess)</text>
</g>
<!-- pr&#45;&gt;gleam -->
<g id="edge13" class="edge">
<title>pr&#45;&gt;gleam</title>
<path fill="none" stroke="#37474f" d="M546.68,-241.18C553.11,-241.26 559.57,-241.32 565.75,-241.36 610.75,-241.66 622,-241.64 667,-241.36 673.82,-241.32 680.98,-241.25 688.08,-241.18"/>
<polygon fill="#37474f" stroke="#37474f" points="688.05,-244.68 698.01,-241.07 687.97,-237.68 688.05,-244.68"/>
<text text-anchor="middle" x="616.38" y="-255.53" font-family="Helvetica,sans-Serif" font-size="9.00">spawn</text>
<text text-anchor="middle" x="616.38" y="-244.28" font-family="Helvetica,sans-Serif" font-size="9.00">(stdin/stdout)</text>
</g>
<!-- pr&#45;&gt;zenoh -->
<g id="edge16" class="edge">
<title>pr&#45;&gt;zenoh</title>
<path fill="none" stroke="#1565c0" stroke-width="2" d="M516.92,-216.41C530.48,-204.75 548.01,-191.44 565.75,-182.86 600.52,-166.05 642.21,-155.24 676.81,-148.49"/>
<polygon fill="#1565c0" stroke="#1565c0" stroke-width="2" points="677.04,-152.01 686.23,-146.74 675.76,-145.12 677.04,-152.01"/>
<text text-anchor="middle" x="616.38" y="-196.81" font-family="Helvetica,sans-Serif" font-size="9.00">JSONL envelope</text>
<text text-anchor="middle" x="616.38" y="-185.56" font-family="Helvetica,sans-Serif" font-size="9.00">{at,urn,run_id,phase}</text>
</g>
<!-- gleam&#45;&gt;pr -->
<g id="edge14" class="edge">
<title>gleam&#45;&gt;pr</title>
<path fill="none" stroke="#37474f" d="M699.68,-222.66C689.08,-219.42 677.77,-216.54 667,-214.86 622.54,-207.92 610.13,-207.44 565.75,-214.86 563.09,-215.3 560.39,-215.83 557.69,-216.43"/>
<polygon fill="#37474f" stroke="#37474f" points="556.87,-213.03 548.03,-218.86 558.58,-219.82 556.87,-213.03"/>
<text text-anchor="middle" x="616.38" y="-228.81" font-family="Helvetica,sans-Serif" font-size="9.00">exit code</text>
<text text-anchor="middle" x="616.38" y="-217.56" font-family="Helvetica,sans-Serif" font-size="9.00">+ stdout/stderr</text>
</g>
<!-- zenoh&#45;&gt;dash -->
<g id="edge19" class="edge">
<title>zenoh&#45;&gt;dash</title>
<path fill="none" stroke="#37474f" d="M806.43,-137.59C875.82,-135.97 995.66,-130.93 1097.25,-115.36 1099.41,-115.03 1101.61,-114.65 1103.83,-114.24"/>
<polygon fill="#37474f" stroke="#37474f" points="1104.37,-117.7 1113.46,-112.26 1102.96,-110.85 1104.37,-117.7"/>
<text text-anchor="middle" x="971.88" y="-147.57" font-family="Helvetica,sans-Serif" font-size="9.00">PUT subscribe</text>
<text text-anchor="middle" x="971.88" y="-136.32" font-family="Helvetica,sans-Serif" font-size="9.00">(JSON)</text>
</g>
<!-- lg_y -->
<g id="node15" class="node">
<title>lg_y</title>
<path fill="#fff59d" stroke="#1565c0" d="M97.25,-481.36C97.25,-481.36 28,-481.36 28,-481.36 22,-481.36 16,-475.36 16,-469.36 16,-469.36 16,-457.36 16,-457.36 16,-451.36 22,-445.36 28,-445.36 28,-445.36 97.25,-445.36 97.25,-445.36 103.25,-445.36 109.25,-451.36 109.25,-457.36 109.25,-457.36 109.25,-469.36 109.25,-469.36 109.25,-475.36 103.25,-481.36 97.25,-481.36"/>
<text text-anchor="middle" x="62.62" y="-460.23" font-family="Helvetica,sans-Serif" font-size="10.00">cron / scheduler</text>
</g>
<!-- lg_p -->
<g id="node16" class="node">
<title>lg_p</title>
<path fill="#d1c4e9" stroke="#1565c0" d="M316.88,-481.36C316.88,-481.36 240.12,-481.36 240.12,-481.36 234.12,-481.36 228.12,-475.36 228.12,-469.36 228.12,-469.36 228.12,-457.36 228.12,-457.36 228.12,-451.36 234.12,-445.36 240.12,-445.36 240.12,-445.36 316.88,-445.36 316.88,-445.36 322.88,-445.36 328.88,-451.36 328.88,-457.36 328.88,-457.36 328.88,-469.36 328.88,-469.36 328.88,-475.36 322.88,-481.36 316.88,-481.36"/>
<text text-anchor="middle" x="278.5" y="-460.23" font-family="Helvetica,sans-Serif" font-size="10.00">cortex / cognitive</text>
</g>
<!-- lg_y&#45;&gt;lg_p -->
<!-- lg_g -->
<g id="node17" class="node">
<title>lg_g</title>
<path fill="#a5d6a7" stroke="#1565c0" d="M535.75,-481.36C535.75,-481.36 445.5,-481.36 445.5,-481.36 439.5,-481.36 433.5,-475.36 433.5,-469.36 433.5,-469.36 433.5,-457.36 433.5,-457.36 433.5,-451.36 439.5,-445.36 445.5,-445.36 445.5,-445.36 535.75,-445.36 535.75,-445.36 541.75,-445.36 547.75,-451.36 547.75,-457.36 547.75,-457.36 547.75,-469.36 547.75,-469.36 547.75,-475.36 541.75,-481.36 535.75,-481.36"/>
<text text-anchor="middle" x="490.62" y="-460.23" font-family="Helvetica,sans-Serif" font-size="10.00">persistence (SQLite)</text>
</g>
<!-- lg_p&#45;&gt;lg_g -->
<!-- lg_b -->
<g id="node18" class="node">
<title>lg_b</title>
<path fill="#bbdefb" stroke="#1565c0" d="M788.38,-481.36C788.38,-481.36 707.12,-481.36 707.12,-481.36 701.12,-481.36 695.12,-475.36 695.12,-469.36 695.12,-469.36 695.12,-457.36 695.12,-457.36 695.12,-451.36 701.12,-445.36 707.12,-445.36 707.12,-445.36 788.38,-445.36 788.38,-445.36 794.38,-445.36 800.38,-451.36 800.38,-457.36 800.38,-457.36 800.38,-469.36 800.38,-469.36 800.38,-475.36 794.38,-481.36 788.38,-481.36"/>
<text text-anchor="middle" x="747.75" y="-460.23" font-family="Helvetica,sans-Serif" font-size="10.00">telemetry (Zenoh)</text>
</g>
<!-- lg_g&#45;&gt;lg_b -->
<!-- lg_v -->
<g id="node19" class="node">
<title>lg_v</title>
<path fill="#ce93d8" stroke="#1565c0" d="M1025.25,-481.36C1025.25,-481.36 918.5,-481.36 918.5,-481.36 912.5,-481.36 906.5,-475.36 906.5,-469.36 906.5,-469.36 906.5,-457.36 906.5,-457.36 906.5,-451.36 912.5,-445.36 918.5,-445.36 918.5,-445.36 1025.25,-445.36 1025.25,-445.36 1031.25,-445.36 1037.25,-451.36 1037.25,-457.36 1037.25,-457.36 1037.25,-469.36 1037.25,-469.36 1037.25,-475.36 1031.25,-481.36 1025.25,-481.36"/>
<text text-anchor="middle" x="971.88" y="-460.23" font-family="Helvetica,sans-Serif" font-size="10.00">process_runner / Pass&#45;9</text>
</g>
<!-- lg_b&#45;&gt;lg_v -->
</g>
</svg>
