<?xml version="1.0" encoding="UTF-8" standalone="no"?>
<!DOCTYPE svg PUBLIC "-//W3C//DTD SVG 1.1//EN"
 "http://www.w3.org/Graphics/SVG/1.1/DTD/svg11.dtd">
<!-- Generated by graphviz version 12.2.1 (0)
 -->
<!-- Title: G14ControlFlowSchedulerTick Pages: 1 -->
<svg width="705pt" height="1237pt"
 viewBox="0.00 0.00 705.00 1237.06" xmlns="http://www.w3.org/2000/svg" xmlns:xlink="http://www.w3.org/1999/xlink">
<g id="graph0" class="graph" transform="scale(1 1) rotate(0) translate(4 1233.06)">
<title>G14ControlFlowSchedulerTick</title>
<polygon fill="#fafafa" stroke="none" points="-4,4 -4,-1233.06 701,-1233.06 701,4 -4,4"/>
<text text-anchor="middle" x="348.5" y="-1209.86" font-family="Helvetica,sans-Serif" font-size="16.00">G14 — Scheduler Tick Control Flow (Pass&#45;9 join() + Pass&#45;10 dispatch fix highlighted)</text>
<g id="clust1" class="cluster">
<title>cluster_legend</title>
<path fill="#f5f5f5" stroke="#9e9e9e" d="M319.4,-871.88C319.4,-871.88 457.4,-871.88 457.4,-871.88 463.4,-871.88 469.4,-877.88 469.4,-883.88 469.4,-883.88 469.4,-1181.56 469.4,-1181.56 469.4,-1187.56 463.4,-1193.56 457.4,-1193.56 457.4,-1193.56 319.4,-1193.56 319.4,-1193.56 313.4,-1193.56 307.4,-1187.56 307.4,-1181.56 307.4,-1181.56 307.4,-883.88 307.4,-883.88 307.4,-877.88 313.4,-871.88 319.4,-871.88"/>
<text text-anchor="middle" x="388.4" y="-1181.01" font-family="Helvetica,sans-Serif" font-size="9.00">Legend</text>
</g>
<!-- start -->
<g id="node1" class="node">
<title>start</title>
<ellipse fill="#fff59d" stroke="#f57f17" cx="226.4" cy="-1148.31" rx="46.85" ry="23.69"/>
<text text-anchor="middle" x="226.4" y="-1151.56" font-family="Helvetica,sans-Serif" font-size="10.00">cron timer</text>
<text text-anchor="middle" x="226.4" y="-1138.81" font-family="Helvetica,sans-Serif" font-size="10.00">fires</text>
</g>
<!-- tick -->
<g id="node2" class="node">
<title>tick</title>
<path fill="#e3f2fd" stroke="#1565c0" d="M261.4,-1087.63C261.4,-1087.63 191.4,-1087.63 191.4,-1087.63 185.4,-1087.63 179.4,-1081.63 179.4,-1075.63 179.4,-1075.63 179.4,-1063.63 179.4,-1063.63 179.4,-1057.63 185.4,-1051.63 191.4,-1051.63 191.4,-1051.63 261.4,-1051.63 261.4,-1051.63 267.4,-1051.63 273.4,-1057.63 273.4,-1063.63 273.4,-1063.63 273.4,-1075.63 273.4,-1075.63 273.4,-1081.63 267.4,-1087.63 261.4,-1087.63"/>
<text text-anchor="middle" x="226.4" y="-1072.88" font-family="Helvetica,sans-Serif" font-size="10.00">scheduler_tick()</text>
<text text-anchor="middle" x="226.4" y="-1060.13" font-family="Helvetica,sans-Serif" font-size="10.00">entry</text>
</g>
<!-- start&#45;&gt;tick -->
<g id="edge1" class="edge">
<title>start&#45;&gt;tick</title>
<path fill="none" stroke="#37474f" d="M226.4,-1124.31C226.4,-1116.48 226.4,-1107.63 226.4,-1099.41"/>
<polygon fill="#37474f" stroke="#37474f" points="229.9,-1099.52 226.4,-1089.52 222.9,-1099.52 229.9,-1099.52"/>
</g>
<!-- claim -->
<g id="node3" class="node">
<title>claim</title>
<path fill="#a5d6a7" stroke="#1b5e20" d="M287.28,-1014.63C287.28,-1014.63 165.53,-1014.63 165.53,-1014.63 159.53,-1014.63 153.53,-1008.63 153.53,-1002.63 153.53,-1002.63 153.53,-980.38 153.53,-980.38 153.53,-974.38 159.53,-968.38 165.53,-968.38 165.53,-968.38 287.28,-968.38 287.28,-968.38 293.28,-968.38 299.28,-974.38 299.28,-980.38 299.28,-980.38 299.28,-1002.63 299.28,-1002.63 299.28,-1008.63 293.28,-1014.63 287.28,-1014.63"/>
<text text-anchor="middle" x="226.4" y="-1001.13" font-family="Helvetica,sans-Serif" font-size="10.00">claim_next_jobs()</text>
<text text-anchor="middle" x="226.4" y="-988.38" font-family="Helvetica,sans-Serif" font-size="10.00">SELECT executing&lt;=now</text>
<text text-anchor="middle" x="226.4" y="-975.63" font-family="Helvetica,sans-Serif" font-size="10.00">FOR UPDATE SKIP LOCKED</text>
</g>
<!-- tick&#45;&gt;claim -->
<g id="edge2" class="edge">
<title>tick&#45;&gt;claim</title>
<path fill="none" stroke="#37474f" d="M226.4,-1051.35C226.4,-1043.93 226.4,-1034.99 226.4,-1026.35"/>
<polygon fill="#37474f" stroke="#37474f" points="229.9,-1026.43 226.4,-1016.43 222.9,-1026.43 229.9,-1026.43"/>
</g>
<!-- none -->
<g id="node4" class="node">
<title>none</title>
<path fill="#ffe0b2" stroke="#e65100" d="M215.92,-925.54C215.92,-925.54 176.64,-903.71 176.64,-903.71 171.4,-900.79 171.4,-894.96 176.64,-892.04 176.64,-892.04 215.92,-870.21 215.92,-870.21 221.16,-867.29 231.65,-867.29 236.89,-870.21 236.89,-870.21 276.17,-892.04 276.17,-892.04 281.41,-894.96 281.41,-900.79 276.17,-903.71 276.17,-903.71 236.89,-925.54 236.89,-925.54 231.65,-928.46 221.16,-928.46 215.92,-925.54"/>
<text text-anchor="middle" x="226.4" y="-901.13" font-family="Helvetica,sans-Serif" font-size="10.00">0 jobs</text>
<text text-anchor="middle" x="226.4" y="-888.38" font-family="Helvetica,sans-Serif" font-size="10.00">claimed?</text>
</g>
<!-- claim&#45;&gt;none -->
<g id="edge3" class="edge">
<title>claim&#45;&gt;none</title>
<path fill="none" stroke="#37474f" d="M226.4,-968.32C226.4,-960.66 226.4,-951.79 226.4,-943"/>
<polygon fill="#37474f" stroke="#37474f" points="229.9,-943.11 226.4,-933.11 222.9,-943.11 229.9,-943.11"/>
</g>
<!-- ret -->
<g id="node5" class="node">
<title>ret</title>
<ellipse fill="#eeeeee" stroke="#1565c0" cx="207.4" cy="-783.63" rx="50.56" ry="23.69"/>
<text text-anchor="middle" x="207.4" y="-786.88" font-family="Helvetica,sans-Serif" font-size="10.00">tick returns</text>
<text text-anchor="middle" x="207.4" y="-774.13" font-family="Helvetica,sans-Serif" font-size="10.00">idle</text>
</g>
<!-- none&#45;&gt;ret -->
<g id="edge4" class="edge">
<title>none&#45;&gt;ret</title>
<path fill="none" stroke="#37474f" d="M221.31,-866.8C218.81,-851.99 215.78,-834.09 213.18,-818.78"/>
<polygon fill="#37474f" stroke="#37474f" points="216.68,-818.43 211.56,-809.16 209.77,-819.6 216.68,-818.43"/>
<text text-anchor="middle" x="224.97" y="-837.83" font-family="Helvetica,sans-Serif" font-size="9.00">yes</text>
</g>
<!-- forloop -->
<g id="node6" class="node">
<title>forloop</title>
<path fill="#e1bee7" stroke="#4a148c" d="M508.74,-817.13C508.74,-817.13 338.13,-817.13 338.13,-817.13 332.13,-817.13 322.54,-812.32 318.95,-807.51 318.95,-807.51 283.25,-759.74 283.25,-759.74 279.66,-754.93 282.07,-750.13 288.07,-750.13 288.07,-750.13 458.68,-750.13 458.68,-750.13 464.68,-750.13 474.27,-754.93 477.86,-759.74 477.86,-759.74 513.56,-807.51 513.56,-807.51 517.15,-812.32 514.74,-817.13 508.74,-817.13"/>
<text text-anchor="middle" x="398.4" y="-786.88" font-family="Helvetica,sans-Serif" font-size="10.00">for&#45;each&#45;job</text>
<text text-anchor="middle" x="398.4" y="-774.13" font-family="Helvetica,sans-Serif" font-size="10.00">spawn worker thread</text>
</g>
<!-- none&#45;&gt;forloop -->
<g id="edge5" class="edge">
<title>none&#45;&gt;forloop</title>
<path fill="none" stroke="#37474f" d="M253.66,-879.09C276.38,-864.26 309.58,-842.59 338.46,-823.75"/>
<polygon fill="#37474f" stroke="#37474f" points="340.34,-826.7 346.8,-818.3 336.51,-820.84 340.34,-826.7"/>
<text text-anchor="middle" x="323.19" y="-837.83" font-family="Helvetica,sans-Serif" font-size="9.00">no</text>
</g>
<!-- spawn -->
<g id="node7" class="node">
<title>spawn</title>
<path fill="#ce93d8" stroke="#4a148c" stroke-width="2" d="M453.65,-702.88C453.65,-702.88 343.15,-702.88 343.15,-702.88 337.15,-702.88 331.15,-696.88 331.15,-690.88 331.15,-690.88 331.15,-668.63 331.15,-668.63 331.15,-662.63 337.15,-656.63 343.15,-656.63 343.15,-656.63 453.65,-656.63 453.65,-656.63 459.65,-656.63 465.65,-662.63 465.65,-668.63 465.65,-668.63 465.65,-690.88 465.65,-690.88 465.65,-696.88 459.65,-702.88 453.65,-702.88"/>
<text text-anchor="middle" x="398.4" y="-689.38" font-family="Helvetica,sans-Serif" font-size="10.00">thread::spawn(move || {</text>
<text text-anchor="middle" x="398.4" y="-676.63" font-family="Helvetica,sans-Serif" font-size="10.00"> &#160;workers::dispatch(job)</text>
<text text-anchor="middle" x="398.4" y="-663.88" font-family="Helvetica,sans-Serif" font-size="10.00">})</text>
</g>
<!-- forloop&#45;&gt;spawn -->
<g id="edge6" class="edge">
<title>forloop&#45;&gt;spawn</title>
<path fill="none" stroke="#37474f" d="M398.4,-749.83C398.4,-738.69 398.4,-726.22 398.4,-714.98"/>
<polygon fill="#37474f" stroke="#37474f" points="401.9,-715.32 398.4,-705.32 394.9,-715.32 401.9,-715.32"/>
<text text-anchor="middle" x="418.28" y="-723.58" font-family="Helvetica,sans-Serif" font-size="9.00">thread N</text>
</g>
<!-- dispatch -->
<g id="node8" class="node">
<title>dispatch</title>
<path fill="#66bb6a" stroke="#1b5e20" stroke-width="3" d="M448.4,-619.63C448.4,-619.63 348.4,-619.63 348.4,-619.63 342.4,-619.63 336.4,-613.63 336.4,-607.63 336.4,-607.63 336.4,-534.38 336.4,-534.38 336.4,-528.38 342.4,-522.38 348.4,-522.38 348.4,-522.38 448.4,-522.38 448.4,-522.38 454.4,-522.38 460.4,-528.38 460.4,-534.38 460.4,-534.38 460.4,-607.63 460.4,-607.63 460.4,-613.63 454.4,-619.63 448.4,-619.63"/>
<text text-anchor="middle" x="398.4" y="-606.13" font-family="Helvetica,sans-Serif" font-size="10.00" fill="white">workers::dispatch(job)</text>
<text text-anchor="middle" x="398.4" y="-593.38" font-family="Helvetica,sans-Serif" font-size="10.00" fill="white">★Pass&#45;10 fix★</text>
<text text-anchor="middle" x="398.4" y="-580.63" font-family="Helvetica,sans-Serif" font-size="10.00" fill="white">match job.worker {</text>
<text text-anchor="middle" x="398.4" y="-567.88" font-family="Helvetica,sans-Serif" font-size="10.00" fill="white"> &#160;&quot;gleam_run&quot; =&gt; …</text>
<text text-anchor="middle" x="398.4" y="-555.13" font-family="Helvetica,sans-Serif" font-size="10.00" fill="white"> &#160;&quot;http_post&quot; &#160;=&gt; …</text>
<text text-anchor="middle" x="398.4" y="-542.38" font-family="Helvetica,sans-Serif" font-size="10.00" fill="white"> &#160;…registry…</text>
<text text-anchor="middle" x="398.4" y="-529.63" font-family="Helvetica,sans-Serif" font-size="10.00" fill="white">}</text>
</g>
<!-- spawn&#45;&gt;dispatch -->
<g id="edge7" class="edge">
<title>spawn&#45;&gt;dispatch</title>
<path fill="none" stroke="#37474f" d="M398.4,-655.85C398.4,-648.77 398.4,-640.62 398.4,-632.24"/>
<polygon fill="#37474f" stroke="#37474f" points="401.9,-632.27 398.4,-622.27 394.9,-632.27 401.9,-632.27"/>
</g>
<!-- arm_known -->
<g id="node9" class="node">
<title>arm_known</title>
<path fill="#a5d6a7" stroke="#1b5e20" d="M325.5,-478.6C325.5,-478.6 296.31,-458.65 296.31,-458.65 291.36,-455.26 291.36,-448.49 296.31,-445.1 296.31,-445.1 325.5,-425.15 325.5,-425.15 330.45,-421.76 340.36,-421.76 345.31,-425.15 345.31,-425.15 374.5,-445.1 374.5,-445.1 379.45,-448.49 379.45,-455.26 374.5,-458.65 374.5,-458.65 345.31,-478.6 345.31,-478.6 340.36,-481.99 330.45,-481.99 325.5,-478.6"/>
<text text-anchor="middle" x="335.4" y="-455.13" font-family="Helvetica,sans-Serif" font-size="10.00">known</text>
<text text-anchor="middle" x="335.4" y="-442.38" font-family="Helvetica,sans-Serif" font-size="10.00">worker</text>
</g>
<!-- dispatch&#45;&gt;arm_known -->
<g id="edge8" class="edge">
<title>dispatch&#45;&gt;arm_known</title>
<path fill="none" stroke="#37474f" d="M372.05,-521.01C365.93,-509.63 359.55,-497.76 353.85,-487.17"/>
<polygon fill="#37474f" stroke="#37474f" points="356.96,-485.56 349.14,-478.41 350.79,-488.88 356.96,-485.56"/>
</g>
<!-- arm_unknown -->
<g id="node10" class="node">
<title>arm_unknown</title>
<path fill="#ef9a9a" stroke="#b71c1c" d="M451.92,-479.54C451.92,-479.54 412.64,-457.71 412.64,-457.71 407.4,-454.79 407.4,-448.96 412.64,-446.04 412.64,-446.04 451.92,-424.21 451.92,-424.21 457.16,-421.29 467.65,-421.29 472.89,-424.21 472.89,-424.21 512.17,-446.04 512.17,-446.04 517.41,-448.96 517.41,-454.79 512.17,-457.71 512.17,-457.71 472.89,-479.54 472.89,-479.54 467.65,-482.46 457.16,-482.46 451.92,-479.54"/>
<text text-anchor="middle" x="462.4" y="-455.13" font-family="Helvetica,sans-Serif" font-size="10.00">unknown</text>
<text text-anchor="middle" x="462.4" y="-442.38" font-family="Helvetica,sans-Serif" font-size="10.00">worker</text>
</g>
<!-- dispatch&#45;&gt;arm_unknown -->
<g id="edge9" class="edge">
<title>dispatch&#45;&gt;arm_unknown</title>
<path fill="none" stroke="#37474f" d="M425.17,-521.01C431.24,-509.91 437.56,-498.35 443.23,-487.96"/>
<polygon fill="#37474f" stroke="#37474f" points="446.21,-489.81 447.93,-479.36 440.07,-486.45 446.21,-489.81"/>
</g>
<!-- run_pr -->
<g id="node11" class="node">
<title>run_pr</title>
<path fill="#ce93d8" stroke="#4a148c" d="M394.4,-381.38C394.4,-381.38 276.4,-381.38 276.4,-381.38 270.4,-381.38 264.4,-375.38 264.4,-369.38 264.4,-369.38 264.4,-357.38 264.4,-357.38 264.4,-351.38 270.4,-345.38 276.4,-345.38 276.4,-345.38 394.4,-345.38 394.4,-345.38 400.4,-345.38 406.4,-351.38 406.4,-357.38 406.4,-357.38 406.4,-369.38 406.4,-369.38 406.4,-375.38 400.4,-381.38 394.4,-381.38"/>
<text text-anchor="middle" x="335.4" y="-366.63" font-family="Helvetica,sans-Serif" font-size="10.00">process_runner::run(spec)</text>
<text text-anchor="middle" x="335.4" y="-353.88" font-family="Helvetica,sans-Serif" font-size="10.00">timeout/heartbeat</text>
</g>
<!-- arm_known&#45;&gt;run_pr -->
<g id="edge10" class="edge">
<title>arm_known&#45;&gt;run_pr</title>
<path fill="none" stroke="#37474f" d="M335.4,-418.17C335.4,-409.91 335.4,-401.11 335.4,-393.06"/>
<polygon fill="#37474f" stroke="#37474f" points="338.9,-393.12 335.4,-383.12 331.9,-393.12 338.9,-393.12"/>
</g>
<!-- mark_err -->
<g id="node14" class="node">
<title>mark_err</title>
<path fill="#ef9a9a" stroke="#b71c1c" d="M513.03,-203.63C513.03,-203.63 389.78,-203.63 389.78,-203.63 383.78,-203.63 377.78,-197.63 377.78,-191.63 377.78,-191.63 377.78,-179.63 377.78,-179.63 377.78,-173.63 383.78,-167.63 389.78,-167.63 389.78,-167.63 513.03,-167.63 513.03,-167.63 519.03,-167.63 525.03,-173.63 525.03,-179.63 525.03,-179.63 525.03,-191.63 525.03,-191.63 525.03,-197.63 519.03,-203.63 513.03,-203.63"/>
<text text-anchor="middle" x="451.4" y="-182.5" font-family="Helvetica,sans-Serif" font-size="10.00">mark_failed(job, retryable)</text>
</g>
<!-- arm_unknown&#45;&gt;mark_err -->
<g id="edge12" class="edge">
<title>arm_unknown&#45;&gt;mark_err</title>
<path fill="none" stroke="#37474f" d="M461.07,-418.74C458.9,-366.75 454.67,-265.03 452.6,-215.33"/>
<polygon fill="#37474f" stroke="#37474f" points="456.1,-215.24 452.19,-205.39 449.1,-215.53 456.1,-215.24"/>
<text text-anchor="middle" x="500.35" y="-318.83" font-family="Helvetica,sans-Serif" font-size="9.00">&quot;unknown_worker&quot;</text>
<text text-anchor="middle" x="500.35" y="-307.58" font-family="Helvetica,sans-Serif" font-size="9.00">retryable=false</text>
</g>
<!-- outcome -->
<g id="node12" class="node">
<title>outcome</title>
<path fill="#fff59d" stroke="#f57f17" d="M393.78,-286.88C393.78,-286.88 275.03,-286.88 275.03,-286.88 269.03,-286.88 263.03,-280.88 263.03,-274.88 263.03,-274.88 263.03,-262.88 263.03,-262.88 263.03,-256.88 269.03,-250.88 275.03,-250.88 275.03,-250.88 393.78,-250.88 393.78,-250.88 399.78,-250.88 405.78,-256.88 405.78,-262.88 405.78,-262.88 405.78,-274.88 405.78,-274.88 405.78,-280.88 399.78,-286.88 393.78,-286.88"/>
<text text-anchor="middle" x="334.4" y="-272.13" font-family="Helvetica,sans-Serif" font-size="10.00">Outcome::{Ok, TimedOut,</text>
<text text-anchor="middle" x="334.4" y="-259.38" font-family="Helvetica,sans-Serif" font-size="10.00"> &#160;Failed, Crashed}</text>
</g>
<!-- run_pr&#45;&gt;outcome -->
<g id="edge11" class="edge">
<title>run_pr&#45;&gt;outcome</title>
<path fill="none" stroke="#37474f" d="M335.22,-344.98C335.07,-331.93 334.88,-313.78 334.71,-298.59"/>
<polygon fill="#37474f" stroke="#37474f" points="338.22,-298.67 334.61,-288.71 331.22,-298.75 338.22,-298.67"/>
</g>
<!-- mark_ok -->
<g id="node13" class="node">
<title>mark_ok</title>
<path fill="#a5d6a7" stroke="#1b5e20" d="M347.9,-203.63C347.9,-203.63 250.9,-203.63 250.9,-203.63 244.9,-203.63 238.9,-197.63 238.9,-191.63 238.9,-191.63 238.9,-179.63 238.9,-179.63 238.9,-173.63 244.9,-167.63 250.9,-167.63 250.9,-167.63 347.9,-167.63 347.9,-167.63 353.9,-167.63 359.9,-173.63 359.9,-179.63 359.9,-179.63 359.9,-191.63 359.9,-191.63 359.9,-197.63 353.9,-203.63 347.9,-203.63"/>
<text text-anchor="middle" x="299.4" y="-188.88" font-family="Helvetica,sans-Serif" font-size="10.00">mark_completed(job)</text>
<text text-anchor="middle" x="299.4" y="-176.13" font-family="Helvetica,sans-Serif" font-size="10.00">UPDATE oban_jobs</text>
</g>
<!-- outcome&#45;&gt;mark_ok -->
<g id="edge13" class="edge">
<title>outcome&#45;&gt;mark_ok</title>
<path fill="none" stroke="#37474f" d="M312.7,-250.6C307.76,-245.47 303.15,-239.44 300.4,-232.88 298.1,-227.37 297.05,-221.16 296.72,-215.12"/>
<polygon fill="#37474f" stroke="#37474f" points="300.21,-215.49 296.82,-205.46 293.22,-215.42 300.21,-215.49"/>
<text text-anchor="middle" x="306.4" y="-224.33" font-family="Helvetica,sans-Serif" font-size="9.00">Ok</text>
</g>
<!-- outcome&#45;&gt;mark_err -->
<g id="edge14" class="edge">
<title>outcome&#45;&gt;mark_err</title>
<path fill="none" stroke="#37474f" d="M330.4,-250.42C329.28,-240.99 329.74,-229.66 335.9,-221.63 340.65,-215.44 352.4,-209.89 366.68,-205.13"/>
<polygon fill="#37474f" stroke="#37474f" points="367.49,-208.55 376.02,-202.26 365.43,-201.86 367.49,-208.55"/>
<text text-anchor="middle" x="392.15" y="-224.33" font-family="Helvetica,sans-Serif" font-size="9.00">TimedOut|Failed|Crashed</text>
</g>
<!-- join -->
<g id="node15" class="node">
<title>join</title>
<path fill="#ce93d8" stroke="#4a148c" stroke-width="3" d="M418.4,-130.63C418.4,-130.63 330.4,-130.63 330.4,-130.63 324.4,-130.63 318.4,-124.63 318.4,-118.63 318.4,-118.63 318.4,-96.38 318.4,-96.38 318.4,-90.38 324.4,-84.38 330.4,-84.38 330.4,-84.38 418.4,-84.38 418.4,-84.38 424.4,-84.38 430.4,-90.38 430.4,-96.38 430.4,-96.38 430.4,-118.63 430.4,-118.63 430.4,-124.63 424.4,-130.63 418.4,-130.63"/>
<text text-anchor="middle" x="374.4" y="-117.13" font-family="Helvetica,sans-Serif" font-size="10.00">JoinHandle::join()</text>
<text text-anchor="middle" x="374.4" y="-104.38" font-family="Helvetica,sans-Serif" font-size="10.00">★Pass&#45;9 add★</text>
<text text-anchor="middle" x="374.4" y="-91.63" font-family="Helvetica,sans-Serif" font-size="10.00">(no orphan threads)</text>
</g>
<!-- mark_ok&#45;&gt;join -->
<g id="edge15" class="edge">
<title>mark_ok&#45;&gt;join</title>
<path fill="none" stroke="#37474f" d="M316.42,-167.35C324.38,-159.28 334.11,-149.4 343.31,-140.06"/>
<polygon fill="#37474f" stroke="#37474f" points="345.61,-142.71 350.14,-133.13 340.62,-137.8 345.61,-142.71"/>
</g>
<!-- mark_err&#45;&gt;join -->
<g id="edge16" class="edge">
<title>mark_err&#45;&gt;join</title>
<path fill="none" stroke="#37474f" d="M433.93,-167.35C425.76,-159.28 415.77,-149.4 406.33,-140.06"/>
<polygon fill="#37474f" stroke="#37474f" points="408.88,-137.66 399.3,-133.12 403.96,-142.64 408.88,-137.66"/>
</g>
<!-- done -->
<g id="node16" class="node">
<title>done</title>
<ellipse fill="#eeeeee" stroke="#1565c0" cx="374.4" cy="-23.69" rx="50.56" ry="23.69"/>
<text text-anchor="middle" x="374.4" y="-26.94" font-family="Helvetica,sans-Serif" font-size="10.00">tick returns</text>
<text text-anchor="middle" x="374.4" y="-14.19" font-family="Helvetica,sans-Serif" font-size="10.00">N handled</text>
</g>
<!-- join&#45;&gt;done -->
<g id="edge17" class="edge">
<title>join&#45;&gt;done</title>
<path fill="none" stroke="#37474f" d="M374.4,-83.28C374.4,-75.78 374.4,-67.31 374.4,-59.19"/>
<polygon fill="#37474f" stroke="#37474f" points="377.9,-59.2 374.4,-49.2 370.9,-59.2 377.9,-59.2"/>
</g>
<!-- lg_p9 -->
<g id="node17" class="node">
<title>lg_p9</title>
<path fill="#ce93d8" stroke="#1565c0" d="M432.78,-1166.31C432.78,-1166.31 344.03,-1166.31 344.03,-1166.31 338.03,-1166.31 332.03,-1160.31 332.03,-1154.31 332.03,-1154.31 332.03,-1142.31 332.03,-1142.31 332.03,-1136.31 338.03,-1130.31 344.03,-1130.31 344.03,-1130.31 432.78,-1130.31 432.78,-1130.31 438.78,-1130.31 444.78,-1136.31 444.78,-1142.31 444.78,-1142.31 444.78,-1154.31 444.78,-1154.31 444.78,-1160.31 438.78,-1166.31 432.78,-1166.31"/>
<text text-anchor="middle" x="388.4" y="-1145.19" font-family="Helvetica,sans-Serif" font-size="10.00">Pass&#45;9 (join orphan)</text>
</g>
<!-- lg_p10 -->
<g id="node18" class="node">
<title>lg_p10</title>
<path fill="#66bb6a" stroke="#1565c0" d="M449.28,-1087.63C449.28,-1087.63 327.53,-1087.63 327.53,-1087.63 321.53,-1087.63 315.53,-1081.63 315.53,-1075.63 315.53,-1075.63 315.53,-1063.63 315.53,-1063.63 315.53,-1057.63 321.53,-1051.63 327.53,-1051.63 327.53,-1051.63 449.28,-1051.63 449.28,-1051.63 455.28,-1051.63 461.28,-1057.63 461.28,-1063.63 461.28,-1063.63 461.28,-1075.63 461.28,-1075.63 461.28,-1081.63 455.28,-1087.63 449.28,-1087.63"/>
<text text-anchor="middle" x="388.4" y="-1066.5" font-family="Helvetica,sans-Serif" font-size="10.00" fill="white">Pass&#45;10 (dispatch registry)</text>
</g>
<!-- lg_p9&#45;&gt;lg_p10 -->
<!-- lg_ok -->
<g id="node19" class="node">
<title>lg_ok</title>
<path fill="#a5d6a7" stroke="#1565c0" d="M415.9,-1009.5C415.9,-1009.5 360.9,-1009.5 360.9,-1009.5 354.9,-1009.5 348.9,-1003.5 348.9,-997.5 348.9,-997.5 348.9,-985.5 348.9,-985.5 348.9,-979.5 354.9,-973.5 360.9,-973.5 360.9,-973.5 415.9,-973.5 415.9,-973.5 421.9,-973.5 427.9,-979.5 427.9,-985.5 427.9,-985.5 427.9,-997.5 427.9,-997.5 427.9,-1003.5 421.9,-1009.5 415.9,-1009.5"/>
<text text-anchor="middle" x="388.4" y="-988.38" font-family="Helvetica,sans-Serif" font-size="10.00">success path</text>
</g>
<!-- lg_p10&#45;&gt;lg_ok -->
<!-- lg_err -->
<g id="node20" class="node">
<title>lg_err</title>
<path fill="#ef9a9a" stroke="#1565c0" d="M412.53,-915.88C412.53,-915.88 364.28,-915.88 364.28,-915.88 358.28,-915.88 352.28,-909.88 352.28,-903.88 352.28,-903.88 352.28,-891.88 352.28,-891.88 352.28,-885.88 358.28,-879.88 364.28,-879.88 364.28,-879.88 412.53,-879.88 412.53,-879.88 418.53,-879.88 424.53,-885.88 424.53,-891.88 424.53,-891.88 424.53,-903.88 424.53,-903.88 424.53,-909.88 418.53,-915.88 412.53,-915.88"/>
<text text-anchor="middle" x="388.4" y="-894.75" font-family="Helvetica,sans-Serif" font-size="10.00">failure path</text>
</g>
<!-- lg_ok&#45;&gt;lg_err -->
</g>
</svg>
