<?xml version="1.0" encoding="UTF-8" standalone="no"?>
<!DOCTYPE svg PUBLIC "-//W3C//DTD SVG 1.1//EN"
 "http://www.w3.org/Graphics/SVG/1.1/DTD/svg11.dtd">
<!-- Generated by graphviz version 12.2.1 (0)
 -->
<!-- Title: G15ZenohTopicFamily Pages: 1 -->
<svg width="593pt" height="755pt"
 viewBox="0.00 0.00 593.25 754.50" xmlns="http://www.w3.org/2000/svg" xmlns:xlink="http://www.w3.org/1999/xlink">
<g id="graph0" class="graph" transform="scale(1 1) rotate(0) translate(4 750.5)">
<title>G15ZenohTopicFamily</title>
<polygon fill="#fafafa" stroke="none" points="-4,4 -4,-750.5 589.25,-750.5 589.25,4 -4,4"/>
<text text-anchor="middle" x="292.62" y="-727.3" font-family="Helvetica,sans-Serif" font-size="16.00">G15 — Zenoh Topic Family (12 topics) with Publishers and Subscribers</text>
<g id="clust1" class="cluster">
<title>cluster_pub</title>
<path fill="#fff9c4" stroke="#f9a825" d="M67.5,-46C67.5,-46 161,-46 161,-46 167,-46 173,-52 173,-58 173,-58 173,-486 173,-486 173,-492 167,-498 161,-498 161,-498 67.5,-498 67.5,-498 61.5,-498 55.5,-492 55.5,-486 55.5,-486 55.5,-58 55.5,-58 55.5,-52 61.5,-46 67.5,-46"/>
<text text-anchor="middle" x="114.25" y="-483.55" font-family="Helvetica,sans-Serif" font-size="11.00">Publishers</text>
</g>
<g id="clust2" class="cluster">
<title>cluster_sub</title>
<path fill="#e8f5e9" stroke="#2e7d32" d="M451.25,-235C451.25,-235 517.75,-235 517.75,-235 523.75,-235 529.75,-241 529.75,-247 529.75,-247 529.75,-513 529.75,-513 529.75,-519 523.75,-525 517.75,-525 517.75,-525 451.25,-525 451.25,-525 445.25,-525 439.25,-519 439.25,-513 439.25,-513 439.25,-247 439.25,-247 439.25,-241 445.25,-235 451.25,-235"/>
<text text-anchor="middle" x="484.5" y="-510.55" font-family="Helvetica,sans-Serif" font-size="11.00">Subscribers</text>
</g>
<g id="clust3" class="cluster">
<title>cluster_legend</title>
<path fill="#f5f5f5" stroke="#9e9e9e" d="M85.88,-640C85.88,-640 346.12,-640 346.12,-640 352.12,-640 358.12,-646 358.12,-652 358.12,-652 358.12,-699 358.12,-699 358.12,-705 352.12,-711 346.12,-711 346.12,-711 85.88,-711 85.88,-711 79.88,-711 73.88,-705 73.88,-699 73.88,-699 73.88,-652 73.88,-652 73.88,-646 79.88,-640 85.88,-640"/>
<text text-anchor="middle" x="216" y="-698.45" font-family="Helvetica,sans-Serif" font-size="9.00">Legend</text>
</g>
<!-- pub_sap -->
<g id="node1" class="node">
<title>pub_sap</title>
<path fill="#ffe082" stroke="#f57f17" d="M150,-360C150,-360 78.5,-360 78.5,-360 72.5,-360 66.5,-354 66.5,-348 66.5,-348 66.5,-336 66.5,-336 66.5,-330 72.5,-324 78.5,-324 78.5,-324 150,-324 150,-324 156,-324 162,-330 162,-336 162,-336 162,-348 162,-348 162,-354 156,-360 150,-360"/>
<text text-anchor="middle" x="114.25" y="-338.88" font-family="Helvetica,sans-Serif" font-size="10.00">sa&#45;plan&#45;daemon</text>
</g>
<!-- t1 -->
<g id="node9" class="node">
<title>t1</title>
<path fill="#bbdefb" stroke="#0d47a1" d="M388.38,-360C388.38,-360 223.88,-360 223.88,-360 217.88,-360 211.88,-354 211.88,-348 211.88,-348 211.88,-336 211.88,-336 211.88,-330 217.88,-324 223.88,-324 223.88,-324 388.38,-324 388.38,-324 394.38,-324 400.38,-330 400.38,-336 400.38,-336 400.38,-348 400.38,-348 400.38,-354 394.38,-360 388.38,-360"/>
<text text-anchor="middle" x="306.12" y="-338.88" font-family="Helvetica,sans-Serif" font-size="10.00">indrajaal/l4/sched/job/{id}/{phase}</text>
</g>
<!-- pub_sap&#45;&gt;t1 -->
<g id="edge1" class="edge">
<title>pub_sap&#45;&gt;t1</title>
<path fill="none" stroke="#37474f" d="M162.19,-342C173.94,-342 187.03,-342 200.37,-342"/>
<polygon fill="#37474f" stroke="#37474f" points="200.11,-345.5 210.11,-342 200.11,-338.5 200.11,-345.5"/>
</g>
<!-- t2 -->
<g id="node10" class="node">
<title>t2</title>
<path fill="#bbdefb" stroke="#0d47a1" d="M399.25,-468C399.25,-468 213,-468 213,-468 207,-468 201,-462 201,-456 201,-456 201,-444 201,-444 201,-438 207,-432 213,-432 213,-432 399.25,-432 399.25,-432 405.25,-432 411.25,-438 411.25,-444 411.25,-444 411.25,-456 411.25,-456 411.25,-462 405.25,-468 399.25,-468"/>
<text text-anchor="middle" x="306.12" y="-446.88" font-family="Helvetica,sans-Serif" font-size="10.00">indrajaal/l4/sched/run/{run_id}/{phase}</text>
</g>
<!-- pub_sap&#45;&gt;t2 -->
<g id="edge2" class="edge">
<title>pub_sap&#45;&gt;t2</title>
<path fill="none" stroke="#37474f" d="M162.1,-360.5C166.02,-363.03 169.73,-365.86 173,-369 192.5,-387.72 179.86,-406.15 201,-423 202.15,-423.92 203.33,-424.8 204.53,-425.66"/>
<polygon fill="#37474f" stroke="#37474f" points="202.57,-428.56 212.91,-430.86 206.26,-422.61 202.57,-428.56"/>
</g>
<!-- t8 -->
<g id="node16" class="node">
<title>t8</title>
<path fill="#bbdefb" stroke="#0d47a1" d="M359.88,-198C359.88,-198 252.38,-198 252.38,-198 246.38,-198 240.38,-192 240.38,-186 240.38,-186 240.38,-174 240.38,-174 240.38,-168 246.38,-162 252.38,-162 252.38,-162 359.88,-162 359.88,-162 365.88,-162 371.88,-168 371.88,-174 371.88,-174 371.88,-186 371.88,-186 371.88,-192 365.88,-198 359.88,-198"/>
<text text-anchor="middle" x="306.12" y="-176.88" font-family="Helvetica,sans-Serif" font-size="10.00">indrajaal/health/{node}</text>
</g>
<!-- pub_sap&#45;&gt;t8 -->
<g id="edge15" class="edge">
<title>pub_sap&#45;&gt;t8</title>
<path fill="none" stroke="#37474f" stroke-dasharray="5,2" d="M162.34,-324.63C166.31,-321.85 169.96,-318.66 173,-315 204.7,-276.87 165.94,-242.06 201,-207 208.92,-199.08 218.85,-193.38 229.41,-189.31"/>
<polygon fill="#37474f" stroke="#37474f" points="230.3,-192.7 238.69,-186.23 228.1,-186.06 230.3,-192.7"/>
</g>
<!-- t9 -->
<g id="node17" class="node">
<title>t9</title>
<path fill="#bbdefb" stroke="#0d47a1" d="M365.12,-414C365.12,-414 247.12,-414 247.12,-414 241.12,-414 235.12,-408 235.12,-402 235.12,-402 235.12,-390 235.12,-390 235.12,-384 241.12,-378 247.12,-378 247.12,-378 365.12,-378 365.12,-378 371.12,-378 377.12,-384 377.12,-390 377.12,-390 377.12,-402 377.12,-402 377.12,-408 371.12,-414 365.12,-414"/>
<text text-anchor="middle" x="306.12" y="-392.88" font-family="Helvetica,sans-Serif" font-size="10.00">indrajaal/plan/spans/{tid}</text>
</g>
<!-- pub_sap&#45;&gt;t9 -->
<g id="edge3" class="edge">
<title>pub_sap&#45;&gt;t9</title>
<path fill="none" stroke="#37474f" d="M162.3,-357.29C174.83,-361.23 188.4,-365.38 201,-369 208.38,-371.12 216.08,-373.25 223.8,-375.34"/>
<polygon fill="#37474f" stroke="#37474f" points="222.67,-378.66 233.24,-377.87 224.48,-371.9 222.67,-378.66"/>
</g>
<!-- t12 -->
<g id="node20" class="node">
<title>t12</title>
<path fill="#bbdefb" stroke="#0d47a1" d="M389.5,-252C389.5,-252 222.75,-252 222.75,-252 216.75,-252 210.75,-246 210.75,-240 210.75,-240 210.75,-228 210.75,-228 210.75,-222 216.75,-216 222.75,-216 222.75,-216 389.5,-216 389.5,-216 395.5,-216 401.5,-222 401.5,-228 401.5,-228 401.5,-240 401.5,-240 401.5,-246 395.5,-252 389.5,-252"/>
<text text-anchor="middle" x="306.12" y="-230.88" font-family="Helvetica,sans-Serif" font-size="10.00">indrajaal/l5/scripts/evolution/{tid}/*</text>
</g>
<!-- pub_sap&#45;&gt;t12 -->
<g id="edge14" class="edge">
<title>pub_sap&#45;&gt;t12</title>
<path fill="none" stroke="#37474f" d="M162.1,-323.5C166.02,-320.97 169.73,-318.14 173,-315 192.5,-296.28 179.86,-277.85 201,-261 202.15,-260.08 203.33,-259.2 204.53,-258.34"/>
<polygon fill="#37474f" stroke="#37474f" points="206.26,-261.39 212.91,-253.14 202.57,-255.44 206.26,-261.39"/>
</g>
<!-- pub_cor -->
<g id="node2" class="node">
<title>pub_cor</title>
<path fill="#d1c4e9" stroke="#4527a0" d="M131.62,-468C131.62,-468 96.88,-468 96.88,-468 90.88,-468 84.88,-462 84.88,-456 84.88,-456 84.88,-444 84.88,-444 84.88,-438 90.88,-432 96.88,-432 96.88,-432 131.62,-432 131.62,-432 137.62,-432 143.62,-438 143.62,-444 143.62,-444 143.62,-456 143.62,-456 143.62,-462 137.62,-468 131.62,-468"/>
<text text-anchor="middle" x="114.25" y="-446.88" font-family="Helvetica,sans-Serif" font-size="10.00">cortex.rs</text>
</g>
<!-- t6 -->
<g id="node14" class="node">
<title>t6</title>
<path fill="#bbdefb" stroke="#0d47a1" d="M375.62,-522C375.62,-522 236.62,-522 236.62,-522 230.62,-522 224.62,-516 224.62,-510 224.62,-510 224.62,-498 224.62,-498 224.62,-492 230.62,-486 236.62,-486 236.62,-486 375.62,-486 375.62,-486 381.62,-486 387.62,-492 387.62,-498 387.62,-498 387.62,-510 387.62,-510 387.62,-516 381.62,-522 375.62,-522"/>
<text text-anchor="middle" x="306.12" y="-500.88" font-family="Helvetica,sans-Serif" font-size="10.00">indrajaal/l4/sre/ooda/snapshot</text>
</g>
<!-- pub_cor&#45;&gt;t6 -->
<g id="edge8" class="edge">
<title>pub_cor&#45;&gt;t6</title>
<path fill="none" stroke="#37474f" d="M144.11,-459.49C160.69,-464.85 181.95,-471.53 201,-477 207.54,-478.88 214.32,-480.76 221.15,-482.62"/>
<polygon fill="#37474f" stroke="#37474f" points="219.87,-485.9 230.43,-485.12 221.69,-479.14 219.87,-485.9"/>
</g>
<!-- t7 -->
<g id="node15" class="node">
<title>t7</title>
<path fill="#bbdefb" stroke="#0d47a1" d="M383.12,-576C383.12,-576 229.12,-576 229.12,-576 223.12,-576 217.12,-570 217.12,-564 217.12,-564 217.12,-552 217.12,-552 217.12,-546 223.12,-540 229.12,-540 229.12,-540 383.12,-540 383.12,-540 389.12,-540 395.12,-546 395.12,-552 395.12,-552 395.12,-564 395.12,-564 395.12,-570 389.12,-576 383.12,-576"/>
<text text-anchor="middle" x="306.12" y="-554.88" font-family="Helvetica,sans-Serif" font-size="10.00">indrajaal/otel/spans/{page}/{op}</text>
</g>
<!-- pub_cor&#45;&gt;t7 -->
<g id="edge9" class="edge">
<title>pub_cor&#45;&gt;t7</title>
<path fill="none" stroke="#37474f" d="M129.7,-468.25C145.34,-486.77 171.97,-514.94 201,-531 203.54,-532.4 206.15,-533.74 208.82,-535"/>
<polygon fill="#37474f" stroke="#37474f" points="207.41,-538.2 217.97,-538.96 210.18,-531.78 207.41,-538.2"/>
</g>
<!-- t11 -->
<g id="node19" class="node">
<title>t11</title>
<path fill="#bbdefb" stroke="#0d47a1" d="M365.5,-630C365.5,-630 246.75,-630 246.75,-630 240.75,-630 234.75,-624 234.75,-618 234.75,-618 234.75,-606 234.75,-606 234.75,-600 240.75,-594 246.75,-594 246.75,-594 365.5,-594 365.5,-594 371.5,-594 377.5,-600 377.5,-606 377.5,-606 377.5,-618 377.5,-618 377.5,-624 371.5,-630 365.5,-630"/>
<text text-anchor="middle" x="306.12" y="-608.88" font-family="Helvetica,sans-Serif" font-size="10.00">indrajaal/l5/cog/trace/{id}</text>
</g>
<!-- pub_cor&#45;&gt;t11 -->
<g id="edge7" class="edge">
<title>pub_cor&#45;&gt;t11</title>
<path fill="none" stroke="#37474f" d="M121.8,-468.42C133.18,-497.73 159.47,-554.77 201,-585 207.88,-590.01 215.6,-594.09 223.65,-597.41"/>
<polygon fill="#37474f" stroke="#37474f" points="222.38,-600.67 232.97,-600.84 224.79,-594.1 222.38,-600.67"/>
</g>
<!-- pub_pr -->
<g id="node3" class="node">
<title>pub_pr</title>
<path fill="#ce93d8" stroke="#4a148c" d="M147.38,-198C147.38,-198 81.12,-198 81.12,-198 75.12,-198 69.12,-192 69.12,-186 69.12,-186 69.12,-174 69.12,-174 69.12,-168 75.12,-162 81.12,-162 81.12,-162 147.38,-162 147.38,-162 153.38,-162 159.38,-168 159.38,-174 159.38,-174 159.38,-186 159.38,-186 159.38,-192 153.38,-198 147.38,-198"/>
<text text-anchor="middle" x="114.25" y="-176.88" font-family="Helvetica,sans-Serif" font-size="10.00">process_runner</text>
</g>
<!-- t3 -->
<g id="node11" class="node">
<title>t3</title>
<path fill="#bbdefb" stroke="#0d47a1" d="M394.38,-144C394.38,-144 217.88,-144 217.88,-144 211.88,-144 205.88,-138 205.88,-132 205.88,-132 205.88,-120 205.88,-120 205.88,-114 211.88,-108 217.88,-108 217.88,-108 394.38,-108 394.38,-108 400.38,-108 406.38,-114 406.38,-120 406.38,-120 406.38,-132 406.38,-132 406.38,-138 400.38,-144 394.38,-144"/>
<text text-anchor="middle" x="306.12" y="-122.88" font-family="Helvetica,sans-Serif" font-size="10.00">indrajaal/l4/sched/proc/{pid}/{phase}</text>
</g>
<!-- pub_pr&#45;&gt;t3 -->
<g id="edge4" class="edge">
<title>pub_pr&#45;&gt;t3</title>
<path fill="none" stroke="#37474f" d="M159.62,-165.55C172.89,-161.36 187.5,-156.87 201,-153 207.54,-151.12 214.32,-149.24 221.15,-147.38"/>
<polygon fill="#37474f" stroke="#37474f" points="221.69,-150.86 230.43,-144.88 219.87,-144.1 221.69,-150.86"/>
</g>
<!-- pub_disp -->
<g id="node4" class="node">
<title>pub_disp</title>
<path fill="#66bb6a" stroke="#1b5e20" d="M153,-414C153,-414 75.5,-414 75.5,-414 69.5,-414 63.5,-408 63.5,-402 63.5,-402 63.5,-390 63.5,-390 63.5,-384 69.5,-378 75.5,-378 75.5,-378 153,-378 153,-378 159,-378 165,-384 165,-390 165,-390 165,-402 165,-402 165,-408 159,-414 153,-414"/>
<text text-anchor="middle" x="114.25" y="-392.88" font-family="Helvetica,sans-Serif" font-size="10.00" fill="white">workers::dispatch</text>
</g>
<!-- pub_disp&#45;&gt;t1 -->
<g id="edge5" class="edge">
<title>pub_disp&#45;&gt;t1</title>
<path fill="none" stroke="#37474f" d="M165.45,-379.72C177.09,-376.08 189.45,-372.31 201,-369 207.54,-367.12 214.32,-365.24 221.15,-363.38"/>
<polygon fill="#37474f" stroke="#37474f" points="221.69,-366.86 230.43,-360.88 219.87,-360.1 221.69,-366.86"/>
</g>
<!-- pub_disp&#45;&gt;t2 -->
<g id="edge6" class="edge">
<title>pub_disp&#45;&gt;t2</title>
<path fill="none" stroke="#37474f" d="M165.45,-412.28C177.09,-415.92 189.45,-419.69 201,-423 207.54,-424.88 214.32,-426.76 221.15,-428.62"/>
<polygon fill="#37474f" stroke="#37474f" points="219.87,-431.9 230.43,-431.12 221.69,-425.14 219.87,-431.9"/>
</g>
<!-- pub_gw -->
<g id="node5" class="node">
<title>pub_gw</title>
<path fill="#ffcc80" stroke="#e65100" d="M131.25,-252C131.25,-252 97.25,-252 97.25,-252 91.25,-252 85.25,-246 85.25,-240 85.25,-240 85.25,-228 85.25,-228 85.25,-222 91.25,-216 97.25,-216 97.25,-216 131.25,-216 131.25,-216 137.25,-216 143.25,-222 143.25,-228 143.25,-228 143.25,-240 143.25,-240 143.25,-246 137.25,-252 131.25,-252"/>
<text text-anchor="middle" x="114.25" y="-230.88" font-family="Helvetica,sans-Serif" font-size="10.00">gateway</text>
</g>
<!-- pub_gw&#45;&gt;t8 -->
<g id="edge10" class="edge">
<title>pub_gw&#45;&gt;t8</title>
<path fill="none" stroke="#37474f" d="M143.72,-224.63C160.36,-219.26 181.8,-212.51 201,-207 210.03,-204.41 219.54,-201.79 228.98,-199.26"/>
<polygon fill="#37474f" stroke="#37474f" points="229.77,-202.67 238.54,-196.73 227.97,-195.91 229.77,-202.67"/>
</g>
<!-- pub_grd -->
<g id="node6" class="node">
<title>pub_grd</title>
<path fill="#ef9a9a" stroke="#b71c1c" d="M132.38,-306C132.38,-306 96.12,-306 96.12,-306 90.12,-306 84.12,-300 84.12,-294 84.12,-294 84.12,-282 84.12,-282 84.12,-276 90.12,-270 96.12,-270 96.12,-270 132.38,-270 132.38,-270 138.38,-270 144.38,-276 144.38,-282 144.38,-282 144.38,-294 144.38,-294 144.38,-300 138.38,-306 132.38,-306"/>
<text text-anchor="middle" x="114.25" y="-284.88" font-family="Helvetica,sans-Serif" font-size="10.00">Guardian</text>
</g>
<!-- t10 -->
<g id="node18" class="node">
<title>t10</title>
<path fill="#ef9a9a" stroke="#b71c1c" d="M368.5,-306C368.5,-306 243.75,-306 243.75,-306 237.75,-306 231.75,-300 231.75,-294 231.75,-294 231.75,-282 231.75,-282 231.75,-276 237.75,-270 243.75,-270 243.75,-270 368.5,-270 368.5,-270 374.5,-270 380.5,-276 380.5,-282 380.5,-282 380.5,-294 380.5,-294 380.5,-300 374.5,-306 368.5,-306"/>
<text text-anchor="middle" x="306.12" y="-284.88" font-family="Helvetica,sans-Serif" font-size="10.00">indrajaal/l0/const/tool_gate</text>
</g>
<!-- pub_grd&#45;&gt;t10 -->
<g id="edge11" class="edge">
<title>pub_grd&#45;&gt;t10</title>
<path fill="none" stroke="#37474f" d="M144.5,-288C164.8,-288 192.96,-288 220.03,-288"/>
<polygon fill="#37474f" stroke="#37474f" points="220.03,-291.5 230.03,-288 220.03,-284.5 220.03,-291.5"/>
</g>
<!-- pub_marn -->
<g id="node7" class="node">
<title>pub_marn</title>
<path fill="#80deea" stroke="#006064" d="M149.25,-90C149.25,-90 79.25,-90 79.25,-90 73.25,-90 67.25,-84 67.25,-78 67.25,-78 67.25,-66 67.25,-66 67.25,-60 73.25,-54 79.25,-54 79.25,-54 149.25,-54 149.25,-54 155.25,-54 161.25,-60 161.25,-66 161.25,-66 161.25,-78 161.25,-78 161.25,-84 155.25,-90 149.25,-90"/>
<text text-anchor="middle" x="114.25" y="-68.88" font-family="Helvetica,sans-Serif" font-size="10.00">Marionette MCP</text>
</g>
<!-- t5 -->
<g id="node13" class="node">
<title>t5</title>
<path fill="#bbdefb" stroke="#0d47a1" d="M398.12,-36C398.12,-36 214.12,-36 214.12,-36 208.12,-36 202.12,-30 202.12,-24 202.12,-24 202.12,-12 202.12,-12 202.12,-6 208.12,0 214.12,0 214.12,0 398.12,0 398.12,0 404.12,0 410.12,-6 410.12,-12 410.12,-12 410.12,-24 410.12,-24 410.12,-30 404.12,-36 398.12,-36"/>
<text text-anchor="middle" x="306.12" y="-14.88" font-family="Helvetica,sans-Serif" font-size="10.00">indrajaal/l5/test/marionette/{ses}/{op}</text>
</g>
<!-- pub_marn&#45;&gt;t5 -->
<g id="edge12" class="edge">
<title>pub_marn&#45;&gt;t5</title>
<path fill="none" stroke="#37474f" d="M161.4,-56.99C174.19,-52.96 188.1,-48.7 201,-45 207.54,-43.12 214.32,-41.24 221.15,-39.38"/>
<polygon fill="#37474f" stroke="#37474f" points="221.69,-42.86 230.43,-36.88 219.87,-36.1 221.69,-42.86"/>
</g>
<!-- pub_pat -->
<g id="node8" class="node">
<title>pub_pat</title>
<path fill="#80deea" stroke="#006064" d="M136.5,-144C136.5,-144 92,-144 92,-144 86,-144 80,-138 80,-132 80,-132 80,-120 80,-120 80,-114 86,-108 92,-108 92,-108 136.5,-108 136.5,-108 142.5,-108 148.5,-114 148.5,-120 148.5,-120 148.5,-132 148.5,-132 148.5,-138 142.5,-144 136.5,-144"/>
<text text-anchor="middle" x="114.25" y="-122.88" font-family="Helvetica,sans-Serif" font-size="10.00">Patrol MCP</text>
</g>
<!-- t4 -->
<g id="node12" class="node">
<title>t4</title>
<path fill="#bbdefb" stroke="#0d47a1" d="M393.62,-90C393.62,-90 218.62,-90 218.62,-90 212.62,-90 206.62,-84 206.62,-78 206.62,-78 206.62,-66 206.62,-66 206.62,-60 212.62,-54 218.62,-54 218.62,-54 393.62,-54 393.62,-54 399.62,-54 405.62,-60 405.62,-66 405.62,-66 405.62,-78 405.62,-78 405.62,-84 399.62,-90 393.62,-90"/>
<text text-anchor="middle" x="306.12" y="-68.88" font-family="Helvetica,sans-Serif" font-size="10.00">indrajaal/l5/test/patrol/{run}/{phase}</text>
</g>
<!-- pub_pat&#45;&gt;t4 -->
<g id="edge13" class="edge">
<title>pub_pat&#45;&gt;t4</title>
<path fill="none" stroke="#37474f" d="M148.93,-114.95C164.69,-109.9 183.75,-103.95 201,-99 207.54,-97.12 214.32,-95.24 221.15,-93.38"/>
<polygon fill="#37474f" stroke="#37474f" points="221.69,-96.86 230.43,-90.88 219.87,-90.1 221.69,-96.86"/>
</g>
<!-- sub_dash -->
<g id="node21" class="node">
<title>sub_dash</title>
<path fill="#a5d6a7" stroke="#1b5e20" d="M509,-333C509,-333 460,-333 460,-333 454,-333 448,-327 448,-321 448,-321 448,-309 448,-309 448,-303 454,-297 460,-297 460,-297 509,-297 509,-297 515,-297 521,-303 521,-309 521,-309 521,-321 521,-321 521,-327 515,-333 509,-333"/>
<text text-anchor="middle" x="484.5" y="-318.25" font-family="Helvetica,sans-Serif" font-size="10.00">Dashboard</text>
<text text-anchor="middle" x="484.5" y="-305.5" font-family="Helvetica,sans-Serif" font-size="10.00">:4200/:8443</text>
</g>
<!-- t1&#45;&gt;sub_dash -->
<g id="edge16" class="edge">
<title>t1&#45;&gt;sub_dash</title>
<path fill="none" stroke="#37474f" d="M400.74,-327.67C413.1,-325.78 425.31,-323.91 436.41,-322.21"/>
<polygon fill="#37474f" stroke="#37474f" points="436.68,-325.71 446.04,-320.73 435.62,-318.79 436.68,-325.71"/>
</g>
<!-- sub_audit -->
<g id="node24" class="node">
<title>sub_audit</title>
<path fill="#a5d6a7" stroke="#1b5e20" d="M503,-387C503,-387 466,-387 466,-387 460,-387 454,-381 454,-375 454,-375 454,-363 454,-363 454,-357 460,-351 466,-351 466,-351 503,-351 503,-351 509,-351 515,-357 515,-363 515,-363 515,-375 515,-375 515,-381 509,-387 503,-387"/>
<text text-anchor="middle" x="484.5" y="-365.88" font-family="Helvetica,sans-Serif" font-size="10.00">audit_log</text>
</g>
<!-- t1&#45;&gt;sub_audit -->
<g id="edge17" class="edge">
<title>t1&#45;&gt;sub_audit</title>
<path fill="none" stroke="#37474f" d="M400.74,-356.33C415.51,-358.59 430.07,-360.82 442.77,-362.77"/>
<polygon fill="#37474f" stroke="#37474f" points="441.95,-366.18 452.36,-364.23 443.01,-359.26 441.95,-366.18"/>
</g>
<!-- t2&#45;&gt;sub_dash -->
<g id="edge18" class="edge">
<title>t2&#45;&gt;sub_dash</title>
<path fill="none" stroke="#37474f" d="M399.61,-431.76C403.77,-429.2 407.68,-426.29 411.25,-423 439.23,-397.15 415.36,-371.67 439.25,-342 439.49,-341.7 439.74,-341.4 439.99,-341.1"/>
<polygon fill="#37474f" stroke="#37474f" points="442.36,-343.68 447.17,-334.23 437.52,-338.62 442.36,-343.68"/>
</g>
<!-- sub_kpi -->
<g id="node25" class="node">
<title>sub_kpi</title>
<path fill="#a5d6a7" stroke="#1b5e20" d="M504.5,-441C504.5,-441 464.5,-441 464.5,-441 458.5,-441 452.5,-435 452.5,-429 452.5,-429 452.5,-417 452.5,-417 452.5,-411 458.5,-405 464.5,-405 464.5,-405 504.5,-405 504.5,-405 510.5,-405 516.5,-411 516.5,-417 516.5,-417 516.5,-429 516.5,-429 516.5,-435 510.5,-441 504.5,-441"/>
<text text-anchor="middle" x="484.5" y="-426.25" font-family="Helvetica,sans-Serif" font-size="10.00">OODA KPI</text>
<text text-anchor="middle" x="484.5" y="-413.5" font-family="Helvetica,sans-Serif" font-size="10.00">rollup</text>
</g>
<!-- t2&#45;&gt;sub_kpi -->
<g id="edge19" class="edge">
<title>t2&#45;&gt;sub_kpi</title>
<path fill="none" stroke="#37474f" d="M411.51,-434.02C421.75,-432.45 431.69,-430.93 440.74,-429.55"/>
<polygon fill="#37474f" stroke="#37474f" points="441.25,-433.01 450.6,-428.04 440.19,-426.09 441.25,-433.01"/>
</g>
<!-- t3&#45;&gt;sub_dash -->
<g id="edge20" class="edge">
<title>t3&#45;&gt;sub_dash</title>
<path fill="none" stroke="#37474f" d="M401.06,-144.33C404.73,-146.88 408.16,-149.75 411.25,-153 453.5,-197.38 403.96,-237.91 439.25,-288 439.47,-288.32 439.7,-288.63 439.94,-288.94"/>
<polygon fill="#37474f" stroke="#37474f" points="437.32,-291.28 446.78,-296.04 442.36,-286.42 437.32,-291.28"/>
</g>
<!-- t4&#45;&gt;sub_dash -->
<g id="edge22" class="edge">
<title>t4&#45;&gt;sub_dash</title>
<path fill="none" stroke="#37474f" d="M401.74,-90.45C405.18,-92.97 408.38,-95.81 411.25,-99 468.01,-162.16 392.36,-217.2 439.25,-288 439.46,-288.32 439.68,-288.64 439.91,-288.96"/>
<polygon fill="#37474f" stroke="#37474f" points="437.23,-291.22 446.61,-296.16 442.36,-286.46 437.23,-291.22"/>
</g>
<!-- sub_obs -->
<g id="node23" class="node">
<title>sub_obs</title>
<path fill="#a5d6a7" stroke="#1b5e20" d="M509.75,-279C509.75,-279 459.25,-279 459.25,-279 453.25,-279 447.25,-273 447.25,-267 447.25,-267 447.25,-255 447.25,-255 447.25,-249 453.25,-243 459.25,-243 459.25,-243 509.75,-243 509.75,-243 515.75,-243 521.75,-249 521.75,-255 521.75,-255 521.75,-267 521.75,-267 521.75,-273 515.75,-279 509.75,-279"/>
<text text-anchor="middle" x="484.5" y="-264.25" font-family="Helvetica,sans-Serif" font-size="10.00">zenoh_test_</text>
<text text-anchor="middle" x="484.5" y="-251.5" font-family="Helvetica,sans-Serif" font-size="10.00">observer</text>
</g>
<!-- t4&#45;&gt;sub_obs -->
<g id="edge21" class="edge">
<title>t4&#45;&gt;sub_obs</title>
<path fill="none" stroke="#37474f" d="M398.78,-90.34C403.21,-92.87 407.4,-95.74 411.25,-99 451.86,-133.38 470.57,-195.16 478.44,-231.68"/>
<polygon fill="#37474f" stroke="#37474f" points="474.93,-231.99 480.33,-241.1 481.79,-230.61 474.93,-231.99"/>
</g>
<!-- t5&#45;&gt;sub_dash -->
<g id="edge24" class="edge">
<title>t5&#45;&gt;sub_dash</title>
<path fill="none" stroke="#37474f" d="M401.87,-36.33C405.28,-38.88 408.43,-41.76 411.25,-45 482.6,-127.03 380.69,-196.4 439.25,-288 439.46,-288.33 439.67,-288.65 439.89,-288.97"/>
<polygon fill="#37474f" stroke="#37474f" points="437.18,-291.19 446.5,-296.22 442.36,-286.48 437.18,-291.19"/>
</g>
<!-- t5&#45;&gt;sub_obs -->
<g id="edge23" class="edge">
<title>t5&#45;&gt;sub_obs</title>
<path fill="none" stroke="#37474f" d="M400.13,-36.5C404.1,-38.99 407.84,-41.81 411.25,-45 464.46,-94.65 478.5,-184.56 482.2,-231.17"/>
<polygon fill="#37474f" stroke="#37474f" points="478.7,-231.32 482.86,-241.06 485.68,-230.85 478.7,-231.32"/>
</g>
<!-- t6&#45;&gt;sub_dash -->
<g id="edge26" class="edge">
<title>t6&#45;&gt;sub_dash</title>
<path fill="none" stroke="#37474f" d="M388.12,-492.94C396.76,-489.02 404.75,-483.83 411.25,-477 453.5,-432.62 403.96,-392.09 439.25,-342 439.47,-341.68 439.7,-341.37 439.94,-341.06"/>
<polygon fill="#37474f" stroke="#37474f" points="442.36,-343.58 446.78,-333.96 437.32,-338.72 442.36,-343.58"/>
</g>
<!-- t6&#45;&gt;sub_kpi -->
<g id="edge25" class="edge">
<title>t6&#45;&gt;sub_kpi</title>
<path fill="none" stroke="#37474f" d="M388.06,-487.48C396.12,-484.52 404,-481.06 411.25,-477 426.33,-468.55 425.57,-460.57 439.25,-450 440.54,-449 441.87,-448.01 443.23,-447.03"/>
<polygon fill="#37474f" stroke="#37474f" points="444.91,-450.12 451.2,-441.6 440.96,-444.34 444.91,-450.12"/>
</g>
<!-- sub_pi -->
<g id="node22" class="node">
<title>sub_pi</title>
<path fill="#a5d6a7" stroke="#1b5e20" d="M505.62,-495C505.62,-495 463.38,-495 463.38,-495 457.38,-495 451.38,-489 451.38,-483 451.38,-483 451.38,-471 451.38,-471 451.38,-465 457.38,-459 463.38,-459 463.38,-459 505.62,-459 505.62,-459 511.62,-459 517.62,-465 517.62,-471 517.62,-471 517.62,-483 517.62,-483 517.62,-489 511.62,-495 505.62,-495"/>
<text text-anchor="middle" x="484.5" y="-480.25" font-family="Helvetica,sans-Serif" font-size="10.00">Pi runtime</text>
<text text-anchor="middle" x="484.5" y="-467.5" font-family="Helvetica,sans-Serif" font-size="10.00">bridge</text>
</g>
<!-- t7&#45;&gt;sub_pi -->
<g id="edge28" class="edge">
<title>t7&#45;&gt;sub_pi</title>
<path fill="none" stroke="#37474f" d="M390.31,-539.58C397.52,-537.04 404.6,-534.19 411.25,-531 426.7,-523.58 442.14,-512.64 454.76,-502.54"/>
<polygon fill="#37474f" stroke="#37474f" points="456.76,-505.42 462.24,-496.36 452.31,-500.03 456.76,-505.42"/>
</g>
<!-- t7&#45;&gt;sub_obs -->
<g id="edge27" class="edge">
<title>t7&#45;&gt;sub_obs</title>
<path fill="none" stroke="#37474f" d="M395.4,-543.98C401.32,-540.48 406.72,-536.21 411.25,-531 482.6,-448.97 380.69,-379.6 439.25,-288 439.38,-287.79 439.52,-287.58 439.66,-287.38"/>
<polygon fill="#37474f" stroke="#37474f" points="442.06,-289.94 446.1,-280.15 436.84,-285.28 442.06,-289.94"/>
</g>
<!-- t8&#45;&gt;sub_dash -->
<g id="edge29" class="edge">
<title>t8&#45;&gt;sub_dash</title>
<path fill="none" stroke="#37474f" d="M372.35,-186.59C386.53,-190.67 400.48,-197.05 411.25,-207 439.23,-232.85 415.36,-258.33 439.25,-288 439.49,-288.3 439.74,-288.6 439.99,-288.9"/>
<polygon fill="#37474f" stroke="#37474f" points="437.52,-291.38 447.17,-295.77 442.36,-286.32 437.52,-291.38"/>
</g>
<!-- t9&#45;&gt;sub_audit -->
<g id="edge30" class="edge">
<title>t9&#45;&gt;sub_audit</title>
<path fill="none" stroke="#37474f" d="M377.59,-385.21C399.63,-381.84 423.2,-378.23 442.5,-375.28"/>
<polygon fill="#37474f" stroke="#37474f" points="442.77,-378.78 452.12,-373.8 441.71,-371.86 442.77,-378.78"/>
</g>
<!-- t10&#45;&gt;sub_dash -->
<g id="edge32" class="edge">
<title>t10&#45;&gt;sub_dash</title>
<path fill="none" stroke="#37474f" d="M380.9,-299.29C399.62,-302.16 419.22,-305.16 436.22,-307.76"/>
<polygon fill="#37474f" stroke="#37474f" points="435.62,-311.21 446.03,-309.26 436.68,-304.29 435.62,-311.21"/>
</g>
<!-- t10&#45;&gt;sub_audit -->
<g id="edge31" class="edge">
<title>t10&#45;&gt;sub_audit</title>
<path fill="none" stroke="#37474f" d="M380.95,-302.06C391.47,-305.5 401.88,-309.75 411.25,-315 426.33,-323.45 425.57,-331.43 439.25,-342 440.96,-343.32 442.74,-344.63 444.56,-345.92"/>
<polygon fill="#37474f" stroke="#37474f" points="442.35,-348.65 452.6,-351.32 446.25,-342.84 442.35,-348.65"/>
</g>
<!-- t11&#45;&gt;sub_pi -->
<g id="edge33" class="edge">
<title>t11&#45;&gt;sub_pi</title>
<path fill="none" stroke="#37474f" d="M377.99,-601.07C389.77,-597.23 401.35,-592.03 411.25,-585 439.45,-564.98 459.79,-530.2 471.56,-505.53"/>
<polygon fill="#37474f" stroke="#37474f" points="474.63,-507.24 475.6,-496.69 468.26,-504.33 474.63,-507.24"/>
</g>
<!-- t11&#45;&gt;sub_audit -->
<g id="edge34" class="edge">
<title>t11&#45;&gt;sub_audit</title>
<path fill="none" stroke="#37474f" d="M377.78,-605.53C390.43,-601.33 402.39,-594.86 411.25,-585 468.01,-521.84 392.36,-466.8 439.25,-396 440.86,-393.57 442.77,-391.32 444.88,-389.25"/>
<polygon fill="#37474f" stroke="#37474f" points="446.99,-392.05 452.6,-383.06 442.61,-386.59 446.99,-392.05"/>
</g>
<!-- t12&#45;&gt;sub_dash -->
<g id="edge35" class="edge">
<title>t12&#45;&gt;sub_dash</title>
<path fill="none" stroke="#37474f" d="M393.19,-252.48C399.46,-254.98 405.55,-257.81 411.25,-261 426.33,-269.45 425.57,-277.43 439.25,-288 440.21,-288.74 441.19,-289.48 442.19,-290.22"/>
<polygon fill="#37474f" stroke="#37474f" points="440.05,-292.99 450.26,-295.79 444.02,-287.22 440.05,-292.99"/>
</g>
<!-- lg_b -->
<g id="node26" class="node">
<title>lg_b</title>
<path fill="#bbdefb" stroke="black" d="M134.62,-684C134.62,-684 93.88,-684 93.88,-684 87.88,-684 81.88,-678 81.88,-672 81.88,-672 81.88,-660 81.88,-660 81.88,-654 87.88,-648 93.88,-648 93.88,-648 134.62,-648 134.62,-648 140.62,-648 146.62,-654 146.62,-660 146.62,-660 146.62,-672 146.62,-672 146.62,-678 140.62,-684 134.62,-684"/>
<text text-anchor="middle" x="114.25" y="-662.88" font-family="Helvetica,sans-Serif" font-size="10.00">data topic</text>
</g>
<!-- lg_r -->
<g id="node27" class="node">
<title>lg_r</title>
<path fill="#ef9a9a" stroke="black" d="M338.12,-684C338.12,-684 274.12,-684 274.12,-684 268.12,-684 262.12,-678 262.12,-672 262.12,-672 262.12,-660 262.12,-660 262.12,-654 268.12,-648 274.12,-648 274.12,-648 338.12,-648 338.12,-648 344.12,-648 350.12,-654 350.12,-660 350.12,-660 350.12,-672 350.12,-672 350.12,-678 344.12,-684 338.12,-684"/>
<text text-anchor="middle" x="306.12" y="-662.88" font-family="Helvetica,sans-Serif" font-size="10.00">L0 safety topic</text>
</g>
<!-- lg_b&#45;&gt;lg_r -->
</g>
</svg>
