<?xml version="1.0" encoding="UTF-8" standalone="no"?>
<!DOCTYPE svg PUBLIC "-//W3C//DTD SVG 1.1//EN"
 "http://www.w3.org/Graphics/SVG/1.1/DTD/svg11.dtd">
<!-- Generated by graphviz version 12.2.1 (0)
 -->
<!-- Title: G16SequenceUC1 Pages: 1 -->
<svg width="1817pt" height="733pt"
 viewBox="0.00 0.00 1817.38 733.00" xmlns="http://www.w3.org/2000/svg" xmlns:xlink="http://www.w3.org/1999/xlink">
<g id="graph0" class="graph" transform="scale(1 1) rotate(0) translate(4 729)">
<title>G16SequenceUC1</title>
<polygon fill="#fafafa" stroke="none" points="-4,4 -4,-729 1813.38,-729 1813.38,4 -4,4"/>
<text text-anchor="middle" x="904.69" y="-706.75" font-family="Helvetica,sans-Serif" font-size="15.00">G16 — UC&#45;1 Sequence: cron tick → enqueue → execute → complete (8 lifelines)</text>
<g id="clust2" class="cluster">
<title>cluster_legend</title>
<path fill="#f5f5f5" stroke="#9e9e9e" d="M159.62,-596C159.62,-596 307.12,-596 307.12,-596 313.12,-596 319.12,-602 319.12,-608 319.12,-608 319.12,-679 319.12,-679 319.12,-685 313.12,-691 307.12,-691 307.12,-691 159.62,-691 159.62,-691 153.62,-691 147.62,-685 147.62,-679 147.62,-679 147.62,-608 147.62,-608 147.62,-602 153.62,-596 159.62,-596"/>
<text text-anchor="middle" x="233.38" y="-678.45" font-family="Helvetica,sans-Serif" font-size="9.00">Legend</text>
</g>
<!-- ll_op -->
<g id="node1" class="node">
<title>ll_op</title>
<path fill="#fff9c4" stroke="#f9a825" d="M250.75,-532C250.75,-532 216,-532 216,-532 210,-532 204,-526 204,-520 204,-520 204,-508 204,-508 204,-502 210,-496 216,-496 216,-496 250.75,-496 250.75,-496 256.75,-496 262.75,-502 262.75,-508 262.75,-508 262.75,-520 262.75,-520 262.75,-526 256.75,-532 250.75,-532"/>
<text text-anchor="middle" x="233.38" y="-510.88" font-family="Helvetica,sans-Serif" font-size="10.00">Operator</text>
</g>
<!-- ll_sch -->
<g id="node2" class="node">
<title>ll_sch</title>
<path fill="#fff59d" stroke="#f57f17" d="M262.75,-460C262.75,-460 204,-460 204,-460 198,-460 192,-454 192,-448 192,-448 192,-436 192,-436 192,-430 198,-424 204,-424 204,-424 262.75,-424 262.75,-424 268.75,-424 274.75,-430 274.75,-436 274.75,-436 274.75,-448 274.75,-448 274.75,-454 268.75,-460 262.75,-460"/>
<text text-anchor="middle" x="233.38" y="-438.88" font-family="Helvetica,sans-Serif" font-size="10.00">scheduler&#45;run</text>
</g>
<!-- ll_op&#45;&gt;ll_sch -->
<g id="edge11" class="edge">
<title>ll_op&#45;&gt;ll_sch</title>
<path fill="none" stroke="black" d="M233.38,-495.59C233.38,-488.28 233.38,-479.69 233.38,-471.56"/>
<polygon fill="black" stroke="black" points="236.88,-471.68 233.38,-461.68 229.88,-471.68 236.88,-471.68"/>
<text text-anchor="middle" x="224.75" y="-475.07" font-family="Helvetica,sans-Serif" font-size="9.00">1: cron tick</text>
</g>
<!-- ll_db -->
<g id="node3" class="node">
<title>ll_db</title>
<path fill="#a5d6a7" stroke="#1b5e20" d="M256.38,-388C256.38,-388 210.38,-388 210.38,-388 204.38,-388 198.38,-382 198.38,-376 198.38,-376 198.38,-364 198.38,-364 198.38,-358 204.38,-352 210.38,-352 210.38,-352 256.38,-352 256.38,-352 262.38,-352 268.38,-358 268.38,-364 268.38,-364 268.38,-376 268.38,-376 268.38,-382 262.38,-388 256.38,-388"/>
<text text-anchor="middle" x="233.38" y="-366.88" font-family="Helvetica,sans-Serif" font-size="10.00">db (SQLite)</text>
</g>
<!-- ll_sch&#45;&gt;ll_db -->
<g id="edge12" class="edge">
<title>ll_sch&#45;&gt;ll_db</title>
<path fill="none" stroke="black" d="M233.38,-423.59C233.38,-416.28 233.38,-407.69 233.38,-399.56"/>
<polygon fill="black" stroke="black" points="236.88,-399.68 233.38,-389.68 229.88,-399.68 236.88,-399.68"/>
<text text-anchor="middle" x="224.75" y="-403.07" font-family="Helvetica,sans-Serif" font-size="9.00">2: SELECT due</text>
</g>
<!-- ll_oban -->
<g id="node4" class="node">
<title>ll_oban</title>
<path fill="#a5d6a7" stroke="#1b5e20" d="M254.12,-36C254.12,-36 212.62,-36 212.62,-36 206.62,-36 200.62,-30 200.62,-24 200.62,-24 200.62,-12 200.62,-12 200.62,-6 206.62,0 212.62,0 212.62,0 254.12,0 254.12,0 260.12,0 266.12,-6 266.12,-12 266.12,-12 266.12,-24 266.12,-24 266.12,-30 260.12,-36 254.12,-36"/>
<text text-anchor="middle" x="233.38" y="-14.88" font-family="Helvetica,sans-Serif" font-size="10.00">oban_jobs</text>
</g>
<!-- ll_sch&#45;&gt;ll_oban -->
<g id="edge13" class="edge">
<title>ll_sch&#45;&gt;ll_oban</title>
<path fill="none" stroke="black" d="M191.75,-424.85C176.91,-417.57 160.65,-408.16 147.62,-397 113.03,-367.36 100.91,-357.88 86.65,-314.62 48.16,-197.95 63.99,-135 147.62,-45 158.38,-33.43 174.03,-26.79 189.03,-22.99"/>
<polygon fill="black" stroke="black" points="189.74,-26.41 198.8,-20.91 188.29,-19.56 189.74,-26.41"/>
<text text-anchor="middle" x="93.75" y="-306.07" font-family="Helvetica,sans-Serif" font-size="9.00">3: INSERT job</text>
</g>
<!-- ll_sch&#45;&gt;ll_oban -->
<g id="edge14" class="edge">
<title>ll_sch&#45;&gt;ll_oban</title>
<path fill="none" stroke="#1b5e20" d="M191.75,-424.85C176.91,-417.57 160.65,-408.16 147.62,-397 113.03,-367.36 100.91,-357.88 86.65,-314.62 48.16,-197.95 63.99,-135 147.62,-45 158.38,-33.43 174.03,-26.79 189.03,-22.99"/>
<polygon fill="#1b5e20" stroke="#1b5e20" points="189.74,-26.41 198.8,-20.91 188.29,-19.56 189.74,-26.41"/>
<text text-anchor="middle" x="93.75" y="-306.07" font-family="Helvetica,sans-Serif" font-size="9.00">4: claim</text>
</g>
<!-- ll_disp -->
<g id="node5" class="node">
<title>ll_disp</title>
<path fill="#66bb6a" stroke="#1b5e20" d="M272.12,-262C272.12,-262 194.62,-262 194.62,-262 188.62,-262 182.62,-256 182.62,-250 182.62,-250 182.62,-238 182.62,-238 182.62,-232 188.62,-226 194.62,-226 194.62,-226 272.12,-226 272.12,-226 278.12,-226 284.12,-232 284.12,-238 284.12,-238 284.12,-250 284.12,-250 284.12,-256 278.12,-262 272.12,-262"/>
<text text-anchor="middle" x="233.38" y="-240.88" font-family="Helvetica,sans-Serif" font-size="10.00" fill="white">workers::dispatch</text>
</g>
<!-- ll_oban&#45;&gt;ll_disp -->
<g id="edge15" class="edge">
<title>ll_oban&#45;&gt;ll_disp</title>
<path fill="none" stroke="black" d="M200.35,-23.53C183.48,-27.51 163.27,-34.15 147.62,-45 100.13,-77.95 44.23,-101.57 73.15,-151.62 94.35,-188.32 136.27,-211.73 171.92,-225.8"/>
<polygon fill="black" stroke="black" points="170.26,-228.91 180.85,-229.16 172.72,-222.36 170.26,-228.91"/>
<text text-anchor="middle" x="93.75" y="-143.07" font-family="Helvetica,sans-Serif" font-size="9.00">5: dispatch(job)</text>
</g>
<!-- ll_disp&#45;&gt;ll_oban -->
<g id="edge19" class="edge">
<title>ll_disp&#45;&gt;ll_oban</title>
<path fill="none" stroke="black" d="M182.26,-229.7C144.75,-216.22 96.44,-191.94 73.15,-151.62 44.23,-101.57 100.13,-77.95 147.62,-45 159.97,-36.44 175.16,-30.5 189.3,-26.42"/>
<polygon fill="black" stroke="black" points="190.09,-29.83 198.88,-23.91 188.32,-23.05 190.09,-29.83"/>
<text text-anchor="middle" x="93.75" y="-143.07" font-family="Helvetica,sans-Serif" font-size="9.00">9: mark_completed</text>
</g>
<!-- ll_pr -->
<g id="node6" class="node">
<title>ll_pr</title>
<path fill="#ce93d8" stroke="#4a148c" d="M266.5,-334C266.5,-334 200.25,-334 200.25,-334 194.25,-334 188.25,-328 188.25,-322 188.25,-322 188.25,-310 188.25,-310 188.25,-304 194.25,-298 200.25,-298 200.25,-298 266.5,-298 266.5,-298 272.5,-298 278.5,-304 278.5,-310 278.5,-310 278.5,-322 278.5,-322 278.5,-328 272.5,-334 266.5,-334"/>
<text text-anchor="middle" x="233.38" y="-312.88" font-family="Helvetica,sans-Serif" font-size="10.00">process_runner</text>
</g>
<!-- ll_disp&#45;&gt;ll_pr -->
<g id="edge16" class="edge">
<title>ll_disp&#45;&gt;ll_pr</title>
<path fill="none" stroke="black" d="M250.96,-262.32C252.23,-269.32 252.65,-278.07 252.23,-286.24"/>
<polygon fill="black" stroke="black" points="248.77,-285.67 251.16,-296 255.73,-286.44 248.77,-285.67"/>
<text text-anchor="middle" x="242" y="-277.07" font-family="Helvetica,sans-Serif" font-size="9.00">6: run(spec)</text>
</g>
<!-- ll_zen -->
<g id="node7" class="node">
<title>ll_zen</title>
<path fill="#bbdefb" stroke="#0d47a1" d="M248.38,-162C248.38,-162 218.38,-162 218.38,-162 212.38,-162 206.38,-156 206.38,-150 206.38,-150 206.38,-138 206.38,-138 206.38,-132 212.38,-126 218.38,-126 218.38,-126 248.38,-126 248.38,-126 254.38,-126 260.38,-132 260.38,-138 260.38,-138 260.38,-150 260.38,-150 260.38,-156 254.38,-162 248.38,-162"/>
<text text-anchor="middle" x="233.38" y="-140.88" font-family="Helvetica,sans-Serif" font-size="10.00">Zenoh</text>
</g>
<!-- ll_disp&#45;&gt;ll_zen -->
<g id="edge20" class="edge">
<title>ll_disp&#45;&gt;ll_zen</title>
<path fill="none" stroke="black" d="M233.38,-225.77C233.38,-211.29 233.38,-190.72 233.38,-173.84"/>
<polygon fill="black" stroke="black" points="236.88,-173.86 233.38,-163.86 229.88,-173.86 236.88,-173.86"/>
<text text-anchor="middle" x="224.75" y="-191.07" font-family="Helvetica,sans-Serif" font-size="9.00">10: job/done</text>
</g>
<!-- ll_pr&#45;&gt;ll_disp -->
<g id="edge18" class="edge">
<title>ll_pr&#45;&gt;ll_disp</title>
<path fill="none" stroke="black" d="M233.38,-297.59C233.38,-290.28 233.38,-281.69 233.38,-273.56"/>
<polygon fill="black" stroke="black" points="236.88,-273.68 233.38,-263.68 229.88,-273.68 236.88,-273.68"/>
<text text-anchor="middle" x="224.75" y="-277.07" font-family="Helvetica,sans-Serif" font-size="9.00">8: outcome=Ok</text>
</g>
<!-- ll_pr&#45;&gt;ll_zen -->
<g id="edge17" class="edge">
<title>ll_pr&#45;&gt;ll_zen</title>
<path fill="none" stroke="black" d="M188.02,-298.12C132.99,-273.8 51.88,-227.86 88.9,-180.38 113.43,-148.9 160.88,-142.15 194.71,-141.76"/>
<polygon fill="black" stroke="black" points="194.5,-145.26 204.53,-141.84 194.56,-138.26 194.5,-145.26"/>
<text text-anchor="middle" x="93.75" y="-183.07" font-family="Helvetica,sans-Serif" font-size="9.00">7: proc/start</text>
</g>
<!-- ll_dash -->
<g id="node8" class="node">
<title>ll_dash</title>
<path fill="#fff9c4" stroke="#f9a825" d="M255.62,-90C255.62,-90 211.12,-90 211.12,-90 205.12,-90 199.12,-84 199.12,-78 199.12,-78 199.12,-66 199.12,-66 199.12,-60 205.12,-54 211.12,-54 211.12,-54 255.62,-54 255.62,-54 261.62,-54 267.62,-60 267.62,-66 267.62,-66 267.62,-78 267.62,-78 267.62,-84 261.62,-90 255.62,-90"/>
<text text-anchor="middle" x="233.38" y="-68.88" font-family="Helvetica,sans-Serif" font-size="10.00">Dashboard</text>
</g>
<!-- ll_zen&#45;&gt;ll_dash -->
<g id="edge21" class="edge">
<title>ll_zen&#45;&gt;ll_dash</title>
<path fill="none" stroke="black" d="M233.38,-125.59C233.38,-118.28 233.38,-109.69 233.38,-101.56"/>
<polygon fill="black" stroke="black" points="236.88,-101.68 233.38,-91.68 229.88,-101.68 236.88,-101.68"/>
<text text-anchor="middle" x="224.75" y="-105.08" font-family="Helvetica,sans-Serif" font-size="9.00">11: WS push</text>
</g>
<!-- s1 -->
<g id="node9" class="node">
<title>s1</title>
<polygon fill="#fff9c4" stroke="black" points="271.38,-586 189.38,-586 189.38,-550 277.38,-550 277.38,-580 271.38,-586"/>
<polyline fill="none" stroke="black" points="271.38,-586 271.38,-580"/>
<polyline fill="none" stroke="black" points="277.38,-580 271.38,-580"/>
<text text-anchor="middle" x="233.38" y="-571.25" font-family="Helvetica,sans-Serif" font-size="10.00">1: cron fires</text>
<text text-anchor="middle" x="233.38" y="-558.5" font-family="Helvetica,sans-Serif" font-size="10.00">(due schedule)</text>
</g>
<!-- s2 -->
<g id="node10" class="node">
<title>s2</title>
<polygon fill="#e3f2fd" stroke="black" points="476.62,-591.12 348.12,-591.12 348.12,-544.88 482.62,-544.88 482.62,-585.12 476.62,-591.12"/>
<polyline fill="none" stroke="black" points="476.62,-591.12 476.62,-585.12"/>
<polyline fill="none" stroke="black" points="482.62,-585.12 476.62,-585.12"/>
<text text-anchor="middle" x="415.38" y="-577.62" font-family="Helvetica,sans-Serif" font-size="10.00">2: SELECT</text>
<text text-anchor="middle" x="415.38" y="-564.88" font-family="Helvetica,sans-Serif" font-size="10.00">workflow_schedules</text>
<text text-anchor="middle" x="415.38" y="-552.12" font-family="Helvetica,sans-Serif" font-size="10.00">WHERE next_run&lt;=now</text>
</g>
<!-- s1&#45;&gt;s2 -->
<!-- s3 -->
<g id="node11" class="node">
<title>s3</title>
<polygon fill="#e8f5e9" stroke="black" points="615.12,-591.12 519.62,-591.12 519.62,-544.88 621.12,-544.88 621.12,-585.12 615.12,-591.12"/>
<polyline fill="none" stroke="black" points="615.12,-591.12 615.12,-585.12"/>
<polyline fill="none" stroke="black" points="621.12,-585.12 615.12,-585.12"/>
<text text-anchor="middle" x="570.38" y="-577.62" font-family="Helvetica,sans-Serif" font-size="10.00">3: INSERT</text>
<text text-anchor="middle" x="570.38" y="-564.88" font-family="Helvetica,sans-Serif" font-size="10.00">oban_jobs</text>
<text text-anchor="middle" x="570.38" y="-552.12" font-family="Helvetica,sans-Serif" font-size="10.00">(state=available)</text>
</g>
<!-- s2&#45;&gt;s3 -->
<!-- s4 -->
<g id="node12" class="node">
<title>s4</title>
<polygon fill="#e8f5e9" stroke="black" points="773.12,-591.12 658.12,-591.12 658.12,-544.88 779.12,-544.88 779.12,-585.12 773.12,-591.12"/>
<polyline fill="none" stroke="black" points="773.12,-591.12 773.12,-585.12"/>
<polyline fill="none" stroke="black" points="779.12,-585.12 773.12,-585.12"/>
<text text-anchor="middle" x="718.62" y="-577.62" font-family="Helvetica,sans-Serif" font-size="10.00">4: claim</text>
<text text-anchor="middle" x="718.62" y="-564.88" font-family="Helvetica,sans-Serif" font-size="10.00">(SELECT FOR UPDATE</text>
<text text-anchor="middle" x="718.62" y="-552.12" font-family="Helvetica,sans-Serif" font-size="10.00">SKIP LOCKED)</text>
</g>
<!-- s3&#45;&gt;s4 -->
<!-- s5 -->
<g id="node13" class="node">
<title>s5</title>
<polygon fill="#c8e6c9" stroke="black" points="915.38,-586 816.12,-586 816.12,-550 921.38,-550 921.38,-580 915.38,-586"/>
<polyline fill="none" stroke="black" points="915.38,-586 915.38,-580"/>
<polyline fill="none" stroke="black" points="921.38,-580 915.38,-580"/>
<text text-anchor="middle" x="868.75" y="-571.25" font-family="Helvetica,sans-Serif" font-size="10.00">5: dispatch(job)</text>
<text text-anchor="middle" x="868.75" y="-558.5" font-family="Helvetica,sans-Serif" font-size="10.00">match worker arm</text>
</g>
<!-- s4&#45;&gt;s5 -->
<!-- s6 -->
<g id="node14" class="node">
<title>s6</title>
<polygon fill="#f3e5f5" stroke="black" points="1060.62,-586 958.38,-586 958.38,-550 1066.62,-550 1066.62,-580 1060.62,-586"/>
<polyline fill="none" stroke="black" points="1060.62,-586 1060.62,-580"/>
<polyline fill="none" stroke="black" points="1066.62,-580 1060.62,-580"/>
<text text-anchor="middle" x="1012.5" y="-571.25" font-family="Helvetica,sans-Serif" font-size="10.00">6: process_runner</text>
<text text-anchor="middle" x="1012.5" y="-558.5" font-family="Helvetica,sans-Serif" font-size="10.00">spawn gleam build</text>
</g>
<!-- s5&#45;&gt;s6 -->
<!-- s7 -->
<g id="node15" class="node">
<title>s7</title>
<polygon fill="#e1f5fe" stroke="black" points="1233.62,-586 1103.62,-586 1103.62,-550 1239.62,-550 1239.62,-580 1233.62,-586"/>
<polyline fill="none" stroke="black" points="1233.62,-586 1233.62,-580"/>
<polyline fill="none" stroke="black" points="1239.62,-580 1233.62,-580"/>
<text text-anchor="middle" x="1171.62" y="-571.25" font-family="Helvetica,sans-Serif" font-size="10.00">7: PUT</text>
<text text-anchor="middle" x="1171.62" y="-558.5" font-family="Helvetica,sans-Serif" font-size="10.00">l4/sched/proc/{pid}/start</text>
</g>
<!-- s6&#45;&gt;s7 -->
<!-- s8 -->
<g id="node16" class="node">
<title>s8</title>
<polygon fill="#f3e5f5" stroke="black" points="1346.62,-586 1276.62,-586 1276.62,-550 1352.62,-550 1352.62,-580 1346.62,-586"/>
<polyline fill="none" stroke="black" points="1346.62,-586 1346.62,-580"/>
<polyline fill="none" stroke="black" points="1352.62,-580 1346.62,-580"/>
<text text-anchor="middle" x="1314.62" y="-571.25" font-family="Helvetica,sans-Serif" font-size="10.00">8: exit ok</text>
<text text-anchor="middle" x="1314.62" y="-558.5" font-family="Helvetica,sans-Serif" font-size="10.00">+ stdout log</text>
</g>
<!-- s7&#45;&gt;s8 -->
<!-- s9 -->
<g id="node17" class="node">
<title>s9</title>
<polygon fill="#e8f5e9" stroke="black" points="1518.88,-586 1389.62,-586 1389.62,-550 1524.88,-550 1524.88,-580 1518.88,-586"/>
<polyline fill="none" stroke="black" points="1518.88,-586 1518.88,-580"/>
<polyline fill="none" stroke="black" points="1524.88,-580 1518.88,-580"/>
<text text-anchor="middle" x="1457.25" y="-571.25" font-family="Helvetica,sans-Serif" font-size="10.00">9: UPDATE</text>
<text text-anchor="middle" x="1457.25" y="-558.5" font-family="Helvetica,sans-Serif" font-size="10.00">oban_jobs.completed_at</text>
</g>
<!-- s8&#45;&gt;s9 -->
<!-- s10 -->
<g id="node18" class="node">
<title>s10</title>
<polygon fill="#e1f5fe" stroke="black" points="1681.38,-586 1561.88,-586 1561.88,-550 1687.38,-550 1687.38,-580 1681.38,-586"/>
<polyline fill="none" stroke="black" points="1681.38,-586 1681.38,-580"/>
<polyline fill="none" stroke="black" points="1687.38,-580 1681.38,-580"/>
<text text-anchor="middle" x="1624.62" y="-571.25" font-family="Helvetica,sans-Serif" font-size="10.00">10: PUT</text>
<text text-anchor="middle" x="1624.62" y="-558.5" font-family="Helvetica,sans-Serif" font-size="10.00">l4/sched/job/{id}/done</text>
</g>
<!-- s9&#45;&gt;s10 -->
<!-- s11 -->
<g id="node19" class="node">
<title>s11</title>
<polygon fill="#fffde7" stroke="black" points="1803.38,-591.12 1724.38,-591.12 1724.38,-544.88 1809.38,-544.88 1809.38,-585.12 1803.38,-591.12"/>
<polyline fill="none" stroke="black" points="1803.38,-591.12 1803.38,-585.12"/>
<polyline fill="none" stroke="black" points="1809.38,-585.12 1803.38,-585.12"/>
<text text-anchor="middle" x="1766.88" y="-577.62" font-family="Helvetica,sans-Serif" font-size="10.00">11: dashboard</text>
<text text-anchor="middle" x="1766.88" y="-564.88" font-family="Helvetica,sans-Serif" font-size="10.00">live update</text>
<text text-anchor="middle" x="1766.88" y="-552.12" font-family="Helvetica,sans-Serif" font-size="10.00">(WS push)</text>
</g>
<!-- s10&#45;&gt;s11 -->
<!-- lg_h -->
<g id="node20" class="node">
<title>lg_h</title>
<polygon fill="none" stroke="#f57f17" points="305.12,-663.5 155.62,-663.5 155.62,-604.5 311.12,-604.5 311.12,-657.5 305.12,-663.5"/>
<polyline fill="none" stroke="#f57f17" points="305.12,-663.5 305.12,-657.5"/>
<polyline fill="none" stroke="#f57f17" points="311.12,-657.5 305.12,-657.5"/>
<text text-anchor="middle" x="233.38" y="-650" font-family="Helvetica,sans-Serif" font-size="10.00">happy path UC&#45;1</text>
<text text-anchor="middle" x="233.38" y="-637.25" font-family="Helvetica,sans-Serif" font-size="10.00">(scheduler claims a known</text>
<text text-anchor="middle" x="233.38" y="-624.5" font-family="Helvetica,sans-Serif" font-size="10.00">worker, runner ok, telemetry</text>
<text text-anchor="middle" x="233.38" y="-611.75" font-family="Helvetica,sans-Serif" font-size="10.00">flows to dashboard)</text>
</g>
</g>
</svg>
