<?xml version="1.0" encoding="UTF-8" standalone="no"?>
<!DOCTYPE svg PUBLIC "-//W3C//DTD SVG 1.1//EN"
 "http://www.w3.org/Graphics/SVG/1.1/DTD/svg11.dtd">
<!-- Generated by graphviz version 12.2.1 (0)
 -->
<!-- Title: G17SequenceUC5 Pages: 1 -->
<svg width="889pt" height="455pt"
 viewBox="0.00 0.00 888.81 455.00" xmlns="http://www.w3.org/2000/svg" xmlns:xlink="http://www.w3.org/1999/xlink">
<g id="graph0" class="graph" transform="scale(1 1) rotate(0) translate(4 451)">
<title>G17SequenceUC5</title>
<polygon fill="#fafafa" stroke="none" points="-4,4 -4,-451 884.81,-451 884.81,4 -4,4"/>
<text text-anchor="middle" x="440.4" y="-428.75" font-family="Helvetica,sans-Serif" font-size="15.00">G17 — UC&#45;5 Unknown&#45;Worker Path: PRE&#45;PASS&#45;10 (BROKEN, red) vs POST&#45;PASS&#45;10 (FIXED, green)</text>
<g id="clust1" class="cluster">
<title>cluster_pre</title>
<path fill="#ffebee" stroke="#b71c1c" d="M25.65,-8C25.65,-8 829.18,-8 829.18,-8 835.18,-8 841.18,-14 841.18,-20 841.18,-20 841.18,-177 841.18,-177 841.18,-183 835.18,-189 829.18,-189 829.18,-189 25.65,-189 25.65,-189 19.65,-189 13.65,-183 13.65,-177 13.65,-177 13.65,-20 13.65,-20 13.65,-14 19.65,-8 25.65,-8"/>
<text text-anchor="middle" x="427.42" y="-173.6" font-family="Helvetica,sans-Serif" font-size="12.00" fill="#b71c1c">PRE&#45;PASS&#45;10 — BROKEN (silent fall&#45;through, retryable=true loop)</text>
</g>
<g id="clust2" class="cluster">
<title>cluster_post</title>
<path fill="#e8f5e9" stroke="#1b5e20" d="M25.65,-197C25.65,-197 860.81,-197 860.81,-197 866.81,-197 872.81,-203 872.81,-209 872.81,-209 872.81,-322 872.81,-322 872.81,-328 866.81,-334 860.81,-334 860.81,-334 25.65,-334 25.65,-334 19.65,-334 13.65,-328 13.65,-322 13.65,-322 13.65,-209 13.65,-209 13.65,-203 19.65,-197 25.65,-197"/>
<text text-anchor="middle" x="443.23" y="-318.6" font-family="Helvetica,sans-Serif" font-size="12.00" fill="#1b5e20">POST&#45;PASS&#45;10 — FIXED (registry match&#45;arm + retryable=false)</text>
</g>
<g id="clust3" class="cluster">
<title>cluster_legend</title>
<path fill="#f5f5f5" stroke="#9e9e9e" d="M20,-342C20,-342 236.62,-342 236.62,-342 242.62,-342 248.62,-348 248.62,-354 248.62,-354 248.62,-401 248.62,-401 248.62,-407 242.62,-413 236.62,-413 236.62,-413 20,-413 20,-413 14,-413 8,-407 8,-401 8,-401 8,-354 8,-354 8,-348 14,-342 20,-342"/>
<text text-anchor="middle" x="128.31" y="-400.45" font-family="Helvetica,sans-Serif" font-size="9.00">Legend</text>
</g>
<!-- pre_op -->
<g id="node1" class="node">
<title>pre_op</title>
<path fill="#fff9c4" stroke="black" d="M68.4,-86C68.4,-86 33.65,-86 33.65,-86 27.65,-86 21.65,-80 21.65,-74 21.65,-74 21.65,-62 21.65,-62 21.65,-56 27.65,-50 33.65,-50 33.65,-50 68.4,-50 68.4,-50 74.4,-50 80.4,-56 80.4,-62 80.4,-62 80.4,-74 80.4,-74 80.4,-80 74.4,-86 68.4,-86"/>
<text text-anchor="middle" x="51.03" y="-64.88" font-family="Helvetica,sans-Serif" font-size="10.00">Operator</text>
</g>
<!-- pre_sch -->
<g id="node2" class="node">
<title>pre_sch</title>
<path fill="#fff59d" stroke="black" d="M232.56,-86C232.56,-86 193.31,-86 193.31,-86 187.31,-86 181.31,-80 181.31,-74 181.31,-74 181.31,-62 181.31,-62 181.31,-56 187.31,-50 193.31,-50 193.31,-50 232.56,-50 232.56,-50 238.56,-50 244.56,-56 244.56,-62 244.56,-62 244.56,-74 244.56,-74 244.56,-80 238.56,-86 232.56,-86"/>
<text text-anchor="middle" x="212.93" y="-64.88" font-family="Helvetica,sans-Serif" font-size="10.00">scheduler</text>
</g>
<!-- pre_op&#45;&gt;pre_sch -->
<g id="edge1" class="edge">
<title>pre_op&#45;&gt;pre_sch</title>
<path fill="none" stroke="black" d="M80.62,-68C105.3,-68 141.3,-68 169.37,-68"/>
<polygon fill="black" stroke="black" points="169.35,-71.5 179.35,-68 169.35,-64.5 169.35,-71.5"/>
<text text-anchor="middle" x="133.68" y="-81.95" font-family="Helvetica,sans-Serif" font-size="9.00">1: enqueue</text>
<text text-anchor="middle" x="133.68" y="-70.7" font-family="Helvetica,sans-Serif" font-size="9.00">&quot;vibe_check&quot;</text>
</g>
<!-- pre_oban -->
<g id="node3" class="node">
<title>pre_oban</title>
<path fill="#a5d6a7" stroke="black" d="M394.81,-86C394.81,-86 353.31,-86 353.31,-86 347.31,-86 341.31,-80 341.31,-74 341.31,-74 341.31,-62 341.31,-62 341.31,-56 347.31,-50 353.31,-50 353.31,-50 394.81,-50 394.81,-50 400.81,-50 406.81,-56 406.81,-62 406.81,-62 406.81,-74 406.81,-74 406.81,-80 400.81,-86 394.81,-86"/>
<text text-anchor="middle" x="374.06" y="-64.88" font-family="Helvetica,sans-Serif" font-size="10.00">oban_jobs</text>
</g>
<!-- pre_sch&#45;&gt;pre_oban -->
<g id="edge2" class="edge">
<title>pre_sch&#45;&gt;pre_oban</title>
<path fill="none" stroke="black" d="M244.99,-68C269.1,-68 302.82,-68 329.6,-68"/>
<polygon fill="black" stroke="black" points="329.47,-71.5 339.47,-68 329.47,-64.5 329.47,-71.5"/>
<text text-anchor="middle" x="292.93" y="-70.7" font-family="Helvetica,sans-Serif" font-size="9.00">2: INSERT job</text>
</g>
<!-- pre_disp -->
<g id="node4" class="node">
<title>pre_disp</title>
<path fill="#ef9a9a" stroke="#b71c1c" stroke-width="2" d="M614.81,-86C614.81,-86 537.31,-86 537.31,-86 531.31,-86 525.31,-80 525.31,-74 525.31,-74 525.31,-62 525.31,-62 525.31,-56 531.31,-50 537.31,-50 537.31,-50 614.81,-50 614.81,-50 620.81,-50 626.81,-56 626.81,-62 626.81,-62 626.81,-74 626.81,-74 626.81,-80 620.81,-86 614.81,-86"/>
<text text-anchor="middle" x="576.06" y="-71.25" font-family="Helvetica,sans-Serif" font-size="10.00">workers::dispatch</text>
<text text-anchor="middle" x="576.06" y="-58.5" font-family="Helvetica,sans-Serif" font-size="10.00">(no registry)</text>
</g>
<!-- pre_oban&#45;&gt;pre_disp -->
<g id="edge3" class="edge">
<title>pre_oban&#45;&gt;pre_disp</title>
<path fill="none" stroke="black" d="M396.4,-49.72C404.71,-43.73 414.67,-37.83 424.81,-34.75 459.9,-24.1 471.59,-26.46 507.31,-34.75 516.29,-36.84 525.46,-40.29 534.02,-44.2"/>
<polygon fill="black" stroke="black" points="532.24,-47.22 542.77,-48.47 535.32,-40.93 532.24,-47.22"/>
<text text-anchor="middle" x="466.06" y="-37.45" font-family="Helvetica,sans-Serif" font-size="9.00">3: claim+dispatch</text>
</g>
<!-- pre_oban&#45;&gt;pre_disp -->
<g id="edge6" class="edge">
<title>pre_oban&#45;&gt;pre_disp</title>
<path fill="none" stroke="#b71c1c" stroke-dasharray="5,2" d="M407.16,-66.15C413.03,-65.88 419.1,-65.64 424.81,-65.5 461.46,-64.58 470.65,-64.82 507.31,-65.5 509.21,-65.54 511.14,-65.58 513.09,-65.62"/>
<polygon fill="#b71c1c" stroke="#b71c1c" points="512.78,-69.11 522.87,-65.88 512.97,-62.12 512.78,-69.11"/>
<text text-anchor="middle" x="466.06" y="-79.45" font-family="Helvetica,sans-Serif" font-size="9.00">6: tick again</text>
<text text-anchor="middle" x="466.06" y="-68.2" font-family="Helvetica,sans-Serif" font-size="9.00">(infinite re&#45;claim)</text>
</g>
<!-- pre_disp&#45;&gt;pre_oban -->
<g id="edge5" class="edge">
<title>pre_disp&#45;&gt;pre_oban</title>
<path fill="none" stroke="#b71c1c" stroke-width="2" d="M528.23,-86.89C521.31,-89 514.2,-90.82 507.31,-92 471.17,-98.21 460.55,-100.17 424.81,-92 422.97,-91.58 421.12,-91.08 419.27,-90.52"/>
<polygon fill="#b71c1c" stroke="#b71c1c" stroke-width="2" points="420.64,-87.3 410.05,-87.11 418.21,-93.86 420.64,-87.3"/>
<text text-anchor="middle" x="466.06" y="-133.87" font-family="Helvetica,sans-Serif" font-size="9.00">5: leave job</text>
<text text-anchor="middle" x="466.06" y="-122.62" font-family="Helvetica,sans-Serif" font-size="9.00">as executing</text>
<text text-anchor="middle" x="466.06" y="-111.37" font-family="Helvetica,sans-Serif" font-size="9.00">(retryable=true)</text>
<text text-anchor="middle" x="466.06" y="-100.12" font-family="Helvetica,sans-Serif" font-size="9.00">★BUG★</text>
</g>
<!-- pre_log -->
<g id="node5" class="node">
<title>pre_log</title>
<path fill="#ffe0b2" stroke="black" d="M821.18,-86C821.18,-86 791.18,-86 791.18,-86 785.18,-86 779.18,-80 779.18,-74 779.18,-74 779.18,-62 779.18,-62 779.18,-56 785.18,-50 791.18,-50 791.18,-50 821.18,-50 821.18,-50 827.18,-50 833.18,-56 833.18,-62 833.18,-62 833.18,-74 833.18,-74 833.18,-80 827.18,-86 821.18,-86"/>
<text text-anchor="middle" x="806.18" y="-71.25" font-family="Helvetica,sans-Serif" font-size="10.00">log line</text>
<text text-anchor="middle" x="806.18" y="-58.5" font-family="Helvetica,sans-Serif" font-size="10.00">(only)</text>
</g>
<!-- pre_disp&#45;&gt;pre_log -->
<g id="edge4" class="edge">
<title>pre_disp&#45;&gt;pre_log</title>
<path fill="none" stroke="#b71c1c" d="M627.69,-68C670.04,-68 729.49,-68 767.68,-68"/>
<polygon fill="#b71c1c" stroke="#b71c1c" points="767.29,-71.5 777.29,-68 767.29,-64.5 767.29,-71.5"/>
<text text-anchor="middle" x="687.18" y="-81.95" font-family="Helvetica,sans-Serif" font-size="9.00">4: warn:</text>
<text text-anchor="middle" x="687.18" y="-70.7" font-family="Helvetica,sans-Serif" font-size="9.00">&quot;unknown worker&quot;</text>
</g>
<!-- post_disp -->
<g id="node9" class="node">
<title>post_disp</title>
<path fill="#66bb6a" stroke="#1b5e20" stroke-width="3" d="M614.81,-241C614.81,-241 537.31,-241 537.31,-241 531.31,-241 525.31,-235 525.31,-229 525.31,-229 525.31,-217 525.31,-217 525.31,-211 531.31,-205 537.31,-205 537.31,-205 614.81,-205 614.81,-205 620.81,-205 626.81,-211 626.81,-217 626.81,-217 626.81,-229 626.81,-229 626.81,-235 620.81,-241 614.81,-241"/>
<text text-anchor="middle" x="576.06" y="-226.25" font-family="Helvetica,sans-Serif" font-size="10.00" fill="white">workers::dispatch</text>
<text text-anchor="middle" x="576.06" y="-213.5" font-family="Helvetica,sans-Serif" font-size="10.00" fill="white">★registry★</text>
</g>
<!-- pre_disp&#45;&gt;post_disp -->
<g id="edge13" class="edge">
<title>pre_disp&#45;&gt;post_disp</title>
<path fill="none" stroke="#f57f17" stroke-width="2" stroke-dasharray="5,2" d="M576.06,-86.7C576.06,-112.51 576.06,-159.43 576.06,-190.91"/>
<polygon fill="#f57f17" stroke="#f57f17" stroke-width="2" points="572.56,-190.72 576.06,-200.72 579.56,-190.72 572.56,-190.72"/>
<text text-anchor="middle" x="561.81" y="-148.2" font-family="Helvetica,sans-Serif" font-size="9.00" fill="#f57f17">Pass&#45;10 fix</text>
<text text-anchor="middle" x="561.81" y="-136.95" font-family="Helvetica,sans-Serif" font-size="9.00" fill="#f57f17">(SC&#45;DISP&#45;REGISTRY&#45;005..007)</text>
</g>
<!-- post_op -->
<g id="node6" class="node">
<title>post_op</title>
<path fill="#fff9c4" stroke="black" d="M68.4,-258C68.4,-258 33.65,-258 33.65,-258 27.65,-258 21.65,-252 21.65,-246 21.65,-246 21.65,-234 21.65,-234 21.65,-228 27.65,-222 33.65,-222 33.65,-222 68.4,-222 68.4,-222 74.4,-222 80.4,-228 80.4,-234 80.4,-234 80.4,-246 80.4,-246 80.4,-252 74.4,-258 68.4,-258"/>
<text text-anchor="middle" x="51.03" y="-236.88" font-family="Helvetica,sans-Serif" font-size="10.00">Operator</text>
</g>
<!-- post_sch -->
<g id="node7" class="node">
<title>post_sch</title>
<path fill="#fff59d" stroke="black" d="M232.56,-258C232.56,-258 193.31,-258 193.31,-258 187.31,-258 181.31,-252 181.31,-246 181.31,-246 181.31,-234 181.31,-234 181.31,-228 187.31,-222 193.31,-222 193.31,-222 232.56,-222 232.56,-222 238.56,-222 244.56,-228 244.56,-234 244.56,-234 244.56,-246 244.56,-246 244.56,-252 238.56,-258 232.56,-258"/>
<text text-anchor="middle" x="212.93" y="-236.88" font-family="Helvetica,sans-Serif" font-size="10.00">scheduler</text>
</g>
<!-- post_op&#45;&gt;post_sch -->
<g id="edge7" class="edge">
<title>post_op&#45;&gt;post_sch</title>
<path fill="none" stroke="black" d="M80.62,-240C105.3,-240 141.3,-240 169.37,-240"/>
<polygon fill="black" stroke="black" points="169.35,-243.5 179.35,-240 169.35,-236.5 169.35,-243.5"/>
<text text-anchor="middle" x="133.68" y="-253.95" font-family="Helvetica,sans-Serif" font-size="9.00">1: enqueue</text>
<text text-anchor="middle" x="133.68" y="-242.7" font-family="Helvetica,sans-Serif" font-size="9.00">&quot;vibe_check&quot;</text>
</g>
<!-- post_oban -->
<g id="node8" class="node">
<title>post_oban</title>
<path fill="#a5d6a7" stroke="black" d="M394.81,-258C394.81,-258 353.31,-258 353.31,-258 347.31,-258 341.31,-252 341.31,-246 341.31,-246 341.31,-234 341.31,-234 341.31,-228 347.31,-222 353.31,-222 353.31,-222 394.81,-222 394.81,-222 400.81,-222 406.81,-228 406.81,-234 406.81,-234 406.81,-246 406.81,-246 406.81,-252 400.81,-258 394.81,-258"/>
<text text-anchor="middle" x="374.06" y="-236.88" font-family="Helvetica,sans-Serif" font-size="10.00">oban_jobs</text>
</g>
<!-- post_sch&#45;&gt;post_oban -->
<g id="edge8" class="edge">
<title>post_sch&#45;&gt;post_oban</title>
<path fill="none" stroke="black" d="M244.99,-240C269.1,-240 302.82,-240 329.6,-240"/>
<polygon fill="black" stroke="black" points="329.47,-243.5 339.47,-240 329.47,-236.5 329.47,-243.5"/>
<text text-anchor="middle" x="292.93" y="-242.7" font-family="Helvetica,sans-Serif" font-size="9.00">2: INSERT job</text>
</g>
<!-- post_oban&#45;&gt;post_disp -->
<g id="edge9" class="edge">
<title>post_oban&#45;&gt;post_disp</title>
<path fill="none" stroke="black" d="M407.08,-227.94C412.9,-226.2 418.98,-224.69 424.81,-223.75 453.42,-219.12 485.51,-218.37 512.66,-219"/>
<polygon fill="black" stroke="black" points="512.35,-222.49 522.45,-219.3 512.57,-215.5 512.35,-222.49"/>
<text text-anchor="middle" x="466.06" y="-226.45" font-family="Helvetica,sans-Serif" font-size="9.00">3: claim+dispatch</text>
</g>
<!-- post_disp&#45;&gt;post_oban -->
<g id="edge11" class="edge">
<title>post_disp&#45;&gt;post_oban</title>
<path fill="none" stroke="#1b5e20" stroke-width="2" d="M524.11,-232.8C518.46,-233.65 512.77,-234.42 507.31,-235 478.32,-238.1 445.58,-239.36 419.93,-239.83"/>
<polygon fill="#1b5e20" stroke="#1b5e20" stroke-width="2" points="420.19,-236.33 410.24,-239.97 420.29,-243.33 420.19,-236.33"/>
<text text-anchor="middle" x="466.06" y="-253.67" font-family="Helvetica,sans-Serif" font-size="9.00">5: mark_failed</text>
<text text-anchor="middle" x="466.06" y="-242.42" font-family="Helvetica,sans-Serif" font-size="9.00">(terminal)</text>
</g>
<!-- post_disp&#45;&gt;post_disp -->
<g id="edge10" class="edge">
<title>post_disp&#45;&gt;post_disp</title>
<path fill="none" stroke="#1b5e20" stroke-width="2" d="M555.84,-242.26C553.64,-251.19 560.37,-259 576.06,-259 583.41,-259 588.8,-257.28 592.22,-254.54"/>
<polygon fill="#1b5e20" stroke="#1b5e20" stroke-width="2" points="595.51,-255.73 595.33,-245.13 588.87,-253.53 595.51,-255.73"/>
<text text-anchor="middle" x="576.06" y="-295.45" font-family="Helvetica,sans-Serif" font-size="9.00">4: match&#45;arm</text>
<text text-anchor="middle" x="576.06" y="-284.2" font-family="Helvetica,sans-Serif" font-size="9.00">=&gt; _ unknown</text>
<text text-anchor="middle" x="576.06" y="-272.95" font-family="Helvetica,sans-Serif" font-size="9.00">=&gt; Outcome::Failed</text>
<text text-anchor="middle" x="576.06" y="-261.7" font-family="Helvetica,sans-Serif" font-size="9.00">(retryable=false)</text>
</g>
<!-- post_zen -->
<g id="node10" class="node">
<title>post_zen</title>
<path fill="#bbdefb" stroke="black" d="M852.81,-241C852.81,-241 759.56,-241 759.56,-241 753.56,-241 747.56,-235 747.56,-229 747.56,-229 747.56,-217 747.56,-217 747.56,-211 753.56,-205 759.56,-205 759.56,-205 852.81,-205 852.81,-205 858.81,-205 864.81,-211 864.81,-217 864.81,-217 864.81,-229 864.81,-229 864.81,-235 858.81,-241 852.81,-241"/>
<text text-anchor="middle" x="806.18" y="-226.25" font-family="Helvetica,sans-Serif" font-size="10.00">Zenoh</text>
<text text-anchor="middle" x="806.18" y="-213.5" font-family="Helvetica,sans-Serif" font-size="10.00">l4/sched/job/.../failed</text>
</g>
<!-- post_disp&#45;&gt;post_zen -->
<g id="edge12" class="edge">
<title>post_disp&#45;&gt;post_zen</title>
<path fill="none" stroke="#1b5e20" d="M628.25,-223C660,-223 701.2,-223 735.85,-223"/>
<polygon fill="#1b5e20" stroke="#1b5e20" points="735.82,-226.5 745.82,-223 735.82,-219.5 735.82,-226.5"/>
<text text-anchor="middle" x="687.18" y="-236.95" font-family="Helvetica,sans-Serif" font-size="9.00">6: PUT failed</text>
<text text-anchor="middle" x="687.18" y="-225.7" font-family="Helvetica,sans-Serif" font-size="9.00">+reason</text>
</g>
<!-- lg_red -->
<g id="node11" class="node">
<title>lg_red</title>
<ellipse fill="#ef9a9a" stroke="#b71c1c" cx="51.03" cy="-368" rx="35.03" ry="18"/>
<text text-anchor="middle" x="51.03" y="-364.88" font-family="Helvetica,sans-Serif" font-size="10.00">BROKEN</text>
</g>
<!-- lg_green -->
<g id="node12" class="node">
<title>lg_green</title>
<ellipse fill="#66bb6a" stroke="#1b5e20" cx="212.93" cy="-368" rx="27.69" ry="18"/>
<text text-anchor="middle" x="212.93" y="-364.88" font-family="Helvetica,sans-Serif" font-size="10.00" fill="white">FIXED</text>
</g>
<!-- lg_red&#45;&gt;lg_green -->
</g>
</svg>
