<?xml version="1.0" encoding="UTF-8" standalone="no"?>
<!DOCTYPE svg PUBLIC "-//W3C//DTD SVG 1.1//EN"
 "http://www.w3.org/Graphics/SVG/1.1/DTD/svg11.dtd">
<!-- Generated by graphviz version 12.2.1 (0)
 -->
<!-- Title: G18UCFluffyChatEndUserJourney Pages: 1 -->
<svg width="827pt" height="707pt"
 viewBox="0.00 0.00 827.00 707.12" xmlns="http://www.w3.org/2000/svg" xmlns:xlink="http://www.w3.org/1999/xlink">
<g id="graph0" class="graph" transform="scale(1 1) rotate(0) translate(4 703.12)">
<title>G18UCFluffyChatEndUserJourney</title>
<polygon fill="#fafafa" stroke="none" points="-4,4 -4,-703.12 823,-703.12 823,4 -4,4"/>
<text text-anchor="middle" x="409.5" y="-680.88" font-family="Helvetica,sans-Serif" font-size="15.00">G18 — FluffyChat End&#45;User UX Journey (7 screens, mapped to Marionette CATALOG.md T&#45;IDs)</text>
<g id="clust1" class="cluster">
<title>cluster_marionette</title>
<path fill="#f5f5f5" stroke="#9e9e9e" d="M20,-8C20,-8 286,-8 286,-8 292,-8 298,-14 298,-20 298,-20 298,-360.5 298,-360.5 298,-366.5 292,-372.5 286,-372.5 286,-372.5 20,-372.5 20,-372.5 14,-372.5 8,-366.5 8,-360.5 8,-360.5 8,-20 8,-20 8,-14 14,-8 20,-8"/>
<text text-anchor="middle" x="153" y="-359" font-family="Helvetica,sans-Serif" font-size="10.00">Marionette discovery — interactive elements per screen</text>
</g>
<g id="clust2" class="cluster">
<title>cluster_legend</title>
<path fill="#f5f5f5" stroke="#9e9e9e" d="M709,-299.75C709,-299.75 799,-299.75 799,-299.75 805,-299.75 811,-305.75 811,-311.75 811,-311.75 811,-653.12 811,-653.12 811,-659.12 805,-665.12 799,-665.12 799,-665.12 709,-665.12 709,-665.12 703,-665.12 697,-659.12 697,-653.12 697,-653.12 697,-311.75 697,-311.75 697,-305.75 703,-299.75 709,-299.75"/>
<text text-anchor="middle" x="754" y="-652.58" font-family="Helvetica,sans-Serif" font-size="9.00">Legend</text>
</g>
<!-- s0 -->
<g id="node1" class="node">
<title>s0</title>
<path fill="#fff9c4" stroke="#f9a825" d="M641.88,-643C641.88,-643 550.12,-643 550.12,-643 544.12,-643 538.12,-637 538.12,-631 538.12,-631 538.12,-608.75 538.12,-608.75 538.12,-602.75 544.12,-596.75 550.12,-596.75 550.12,-596.75 641.88,-596.75 641.88,-596.75 647.88,-596.75 653.88,-602.75 653.88,-608.75 653.88,-608.75 653.88,-631 653.88,-631 653.88,-637 647.88,-643 641.88,-643"/>
<text text-anchor="middle" x="596" y="-629.5" font-family="Helvetica,sans-Serif" font-size="10.00">0. Launch FluffyChat</text>
<text text-anchor="middle" x="596" y="-616.75" font-family="Helvetica,sans-Serif" font-size="10.00">(cold start)</text>
<text text-anchor="middle" x="596" y="-604" font-family="Helvetica,sans-Serif" font-size="10.00">T&#45;FC&#45;LAUNCH&#45;001</text>
</g>
<!-- s1 -->
<g id="node2" class="node">
<title>s1</title>
<path fill="#bbdefb" stroke="#1565c0" d="M560,-549.5C560,-549.5 472,-549.5 472,-549.5 466,-549.5 460,-543.5 460,-537.5 460,-537.5 460,-515.25 460,-515.25 460,-509.25 466,-503.25 472,-503.25 472,-503.25 560,-503.25 560,-503.25 566,-503.25 572,-509.25 572,-515.25 572,-515.25 572,-537.5 572,-537.5 572,-543.5 566,-549.5 560,-549.5"/>
<text text-anchor="middle" x="516" y="-536" font-family="Helvetica,sans-Serif" font-size="10.00">1. Onboarding</text>
<text text-anchor="middle" x="516" y="-523.25" font-family="Helvetica,sans-Serif" font-size="10.00">(welcome carousel)</text>
<text text-anchor="middle" x="516" y="-510.5" font-family="Helvetica,sans-Serif" font-size="10.00">T&#45;FC&#45;ONB&#45;002..004</text>
</g>
<!-- s0&#45;&gt;s1 -->
<g id="edge1" class="edge">
<title>s0&#45;&gt;s1</title>
<path fill="none" stroke="#37474f" d="M576.22,-596.26C566.15,-584.73 553.75,-570.55 542.83,-558.06"/>
<polygon fill="#37474f" stroke="#37474f" points="545.76,-556.1 536.54,-550.87 540.49,-560.7 545.76,-556.1"/>
<text text-anchor="middle" x="579.16" y="-570.2" font-family="Helvetica,sans-Serif" font-size="9.00">first run</text>
</g>
<!-- s2 -->
<g id="node3" class="node">
<title>s2</title>
<path fill="#bbdefb" stroke="#1565c0" d="M435.88,-456C435.88,-456 320.12,-456 320.12,-456 314.12,-456 308.12,-450 308.12,-444 308.12,-444 308.12,-421.75 308.12,-421.75 308.12,-415.75 314.12,-409.75 320.12,-409.75 320.12,-409.75 435.88,-409.75 435.88,-409.75 441.88,-409.75 447.88,-415.75 447.88,-421.75 447.88,-421.75 447.88,-444 447.88,-444 447.88,-450 441.88,-456 435.88,-456"/>
<text text-anchor="middle" x="378" y="-442.5" font-family="Helvetica,sans-Serif" font-size="10.00">2. Login / Sign&#45;up</text>
<text text-anchor="middle" x="378" y="-429.75" font-family="Helvetica,sans-Serif" font-size="10.00">(homeserver picker, SSO)</text>
<text text-anchor="middle" x="378" y="-417" font-family="Helvetica,sans-Serif" font-size="10.00">T&#45;FC&#45;LOGIN&#45;010..014</text>
</g>
<!-- s1&#45;&gt;s2 -->
<g id="edge2" class="edge">
<title>s1&#45;&gt;s2</title>
<path fill="none" stroke="#37474f" d="M481.89,-502.76C463.59,-490.62 440.85,-475.55 421.31,-462.59"/>
<polygon fill="#37474f" stroke="#37474f" points="423.25,-459.68 412.98,-457.07 419.38,-465.51 423.25,-459.68"/>
<text text-anchor="middle" x="486.01" y="-476.7" font-family="Helvetica,sans-Serif" font-size="9.00">&quot;Get Started&quot;</text>
</g>
<!-- s3 -->
<g id="node4" class="node">
<title>s3</title>
<path fill="#a5d6a7" stroke="#1b5e20" d="M434,-348.88C434,-348.88 322,-348.88 322,-348.88 316,-348.88 310,-342.88 310,-336.88 310,-336.88 310,-314.62 310,-314.62 310,-308.62 316,-302.62 322,-302.62 322,-302.62 434,-302.62 434,-302.62 440,-302.62 446,-308.62 446,-314.62 446,-314.62 446,-336.88 446,-336.88 446,-342.88 440,-348.88 434,-348.88"/>
<text text-anchor="middle" x="378" y="-335.38" font-family="Helvetica,sans-Serif" font-size="10.00">3. DM start</text>
<text text-anchor="middle" x="378" y="-322.62" font-family="Helvetica,sans-Serif" font-size="10.00">(pick contact, send msg)</text>
<text text-anchor="middle" x="378" y="-309.88" font-family="Helvetica,sans-Serif" font-size="10.00">T&#45;FC&#45;DM&#45;020..025</text>
</g>
<!-- s2&#45;&gt;s3 -->
<g id="edge3" class="edge">
<title>s2&#45;&gt;s3</title>
<path fill="none" stroke="#37474f" d="M378,-409.32C378,-395.05 378,-376.34 378,-360.34"/>
<polygon fill="#37474f" stroke="#37474f" points="381.5,-360.78 378,-350.78 374.5,-360.78 381.5,-360.78"/>
<text text-anchor="middle" x="395.25" y="-383.2" font-family="Helvetica,sans-Serif" font-size="9.00">auth ok</text>
</g>
<!-- m1 -->
<g id="node9" class="node">
<title>m1</title>
<polygon fill="#fffde7" stroke="#1565c0" points="283.75,-343.75 152.25,-343.75 152.25,-307.75 289.75,-307.75 289.75,-337.75 283.75,-343.75"/>
<polyline fill="none" stroke="#1565c0" points="283.75,-343.75 283.75,-337.75"/>
<polyline fill="none" stroke="#1565c0" points="289.75,-337.75 283.75,-337.75"/>
<text text-anchor="middle" x="221" y="-329" font-family="Helvetica,sans-Serif" font-size="10.00">2: TextField(homeserver)</text>
<text text-anchor="middle" x="221" y="-316.25" font-family="Helvetica,sans-Serif" font-size="10.00"> &#160;&#160;FilledButton(continue)</text>
</g>
<!-- s2&#45;&gt;m1 -->
<g id="edge13" class="edge">
<title>s2&#45;&gt;m1</title>
<path fill="none" stroke="#9e9e9e" stroke-dasharray="5,2" d="M344.32,-409.32C318.32,-391.91 282.46,-367.9 256.1,-350.26"/>
<polygon fill="#9e9e9e" stroke="#9e9e9e" points="258.38,-347.56 248.12,-344.91 254.48,-353.38 258.38,-347.56"/>
</g>
<!-- s4 -->
<g id="node5" class="node">
<title>s4</title>
<path fill="#a5d6a7" stroke="#1b5e20" d="M445.88,-244.12C445.88,-244.12 318.12,-244.12 318.12,-244.12 312.12,-244.12 306.12,-238.12 306.12,-232.12 306.12,-232.12 306.12,-209.88 306.12,-209.88 306.12,-203.88 312.12,-197.88 318.12,-197.88 318.12,-197.88 445.88,-197.88 445.88,-197.88 451.88,-197.88 457.88,-203.88 457.88,-209.88 457.88,-209.88 457.88,-232.12 457.88,-232.12 457.88,-238.12 451.88,-244.12 445.88,-244.12"/>
<text text-anchor="middle" x="382" y="-230.62" font-family="Helvetica,sans-Serif" font-size="10.00">4. Encrypted Chat</text>
<text text-anchor="middle" x="382" y="-217.88" font-family="Helvetica,sans-Serif" font-size="10.00">(verify session, key backup)</text>
<text text-anchor="middle" x="382" y="-205.12" font-family="Helvetica,sans-Serif" font-size="10.00">T&#45;FC&#45;E2EE&#45;030..036</text>
</g>
<!-- s3&#45;&gt;s4 -->
<g id="edge4" class="edge">
<title>s3&#45;&gt;s4</title>
<path fill="none" stroke="#37474f" d="M378.88,-302.2C379.41,-288.55 380.1,-270.88 380.69,-255.61"/>
<polygon fill="#37474f" stroke="#37474f" points="384.17,-256.14 381.07,-246.01 377.18,-255.86 384.17,-256.14"/>
<text text-anchor="middle" x="397.98" y="-276.07" font-family="Helvetica,sans-Serif" font-size="9.00">encrypt</text>
<text text-anchor="middle" x="397.98" y="-264.82" font-family="Helvetica,sans-Serif" font-size="9.00">room</text>
</g>
<!-- m2 -->
<g id="node10" class="node">
<title>m2</title>
<polygon fill="#fffde7" stroke="#1565c0" points="276.12,-239 173.88,-239 173.88,-203 282.12,-203 282.12,-233 276.12,-239"/>
<polyline fill="none" stroke="#1565c0" points="276.12,-239 276.12,-233"/>
<polyline fill="none" stroke="#1565c0" points="282.12,-233 276.12,-233"/>
<text text-anchor="middle" x="228" y="-224.25" font-family="Helvetica,sans-Serif" font-size="10.00">3: ListTile(contact)</text>
<text text-anchor="middle" x="228" y="-211.5" font-family="Helvetica,sans-Serif" font-size="10.00"> &#160;&#160;IconButton(send)</text>
</g>
<!-- s3&#45;&gt;m2 -->
<g id="edge14" class="edge">
<title>s3&#45;&gt;m2</title>
<path fill="none" stroke="#9e9e9e" stroke-dasharray="5,2" d="M345.08,-302.2C320.72,-285.51 287.6,-262.82 262.8,-245.84"/>
<polygon fill="#9e9e9e" stroke="#9e9e9e" points="264.88,-243.02 254.65,-240.26 260.92,-248.8 264.88,-243.02"/>
</g>
<!-- s5 -->
<g id="node6" class="node">
<title>s5</title>
<path fill="#ce93d8" stroke="#4a148c" d="M421.88,-150.62C421.88,-150.62 318.12,-150.62 318.12,-150.62 312.12,-150.62 306.12,-144.62 306.12,-138.62 306.12,-138.62 306.12,-116.38 306.12,-116.38 306.12,-110.38 312.12,-104.38 318.12,-104.38 318.12,-104.38 421.88,-104.38 421.88,-104.38 427.88,-104.38 433.88,-110.38 433.88,-116.38 433.88,-116.38 433.88,-138.62 433.88,-138.62 433.88,-144.62 427.88,-150.62 421.88,-150.62"/>
<text text-anchor="middle" x="370" y="-137.12" font-family="Helvetica,sans-Serif" font-size="10.00">5. Voice / Video Call</text>
<text text-anchor="middle" x="370" y="-124.38" font-family="Helvetica,sans-Serif" font-size="10.00">(WebRTC, push&#45;to&#45;talk)</text>
<text text-anchor="middle" x="370" y="-111.62" font-family="Helvetica,sans-Serif" font-size="10.00">T&#45;FC&#45;CALL&#45;040..044</text>
</g>
<!-- s4&#45;&gt;s5 -->
<g id="edge5" class="edge">
<title>s4&#45;&gt;s5</title>
<path fill="none" stroke="#37474f" d="M359.09,-197.52C354.96,-192.16 351.25,-186.16 349,-179.88 346.87,-173.92 347.21,-167.65 348.89,-161.6"/>
<polygon fill="#37474f" stroke="#37474f" points="352.07,-163.08 352.57,-152.5 345.58,-160.46 352.07,-163.08"/>
<text text-anchor="middle" x="365.5" y="-171.32" font-family="Helvetica,sans-Serif" font-size="9.00">tap call</text>
</g>
<!-- s6 -->
<g id="node7" class="node">
<title>s6</title>
<path fill="#bbdefb" stroke="#1565c0" d="M605.62,-150.62C605.62,-150.62 464.38,-150.62 464.38,-150.62 458.38,-150.62 452.38,-144.62 452.38,-138.62 452.38,-138.62 452.38,-116.38 452.38,-116.38 452.38,-110.38 458.38,-104.38 464.38,-104.38 464.38,-104.38 605.62,-104.38 605.62,-104.38 611.62,-104.38 617.62,-110.38 617.62,-116.38 617.62,-116.38 617.62,-138.62 617.62,-138.62 617.62,-144.62 611.62,-150.62 605.62,-150.62"/>
<text text-anchor="middle" x="535" y="-137.12" font-family="Helvetica,sans-Serif" font-size="10.00">6. Settings</text>
<text text-anchor="middle" x="535" y="-124.38" font-family="Helvetica,sans-Serif" font-size="10.00">(notifications, theme, account)</text>
<text text-anchor="middle" x="535" y="-111.62" font-family="Helvetica,sans-Serif" font-size="10.00">T&#45;FC&#45;SET&#45;050..057</text>
</g>
<!-- s4&#45;&gt;s6 -->
<g id="edge7" class="edge">
<title>s4&#45;&gt;s6</title>
<path fill="none" stroke="#37474f" d="M419.82,-197.38C440.31,-185.13 465.82,-169.87 487.62,-156.83"/>
<polygon fill="#37474f" stroke="#37474f" points="489.27,-159.93 496.05,-151.79 485.67,-153.92 489.27,-159.93"/>
<text text-anchor="middle" x="486.79" y="-171.32" font-family="Helvetica,sans-Serif" font-size="9.00">cog icon</text>
</g>
<!-- m3 -->
<g id="node11" class="node">
<title>m3</title>
<polygon fill="#fffde7" stroke="#1565c0" points="281.75,-145.5 168.25,-145.5 168.25,-109.5 287.75,-109.5 287.75,-139.5 281.75,-145.5"/>
<polyline fill="none" stroke="#1565c0" points="281.75,-145.5 281.75,-139.5"/>
<polyline fill="none" stroke="#1565c0" points="287.75,-139.5 281.75,-139.5"/>
<text text-anchor="middle" x="228" y="-130.75" font-family="Helvetica,sans-Serif" font-size="10.00">4: IconButton(verify)</text>
<text text-anchor="middle" x="228" y="-118" font-family="Helvetica,sans-Serif" font-size="10.00"> &#160;&#160;Switch(key backup)</text>
</g>
<!-- s4&#45;&gt;m3 -->
<g id="edge15" class="edge">
<title>s4&#45;&gt;m3</title>
<path fill="none" stroke="#9e9e9e" stroke-dasharray="5,2" d="M343.93,-197.38C320.55,-183.49 290.67,-165.74 267.1,-151.73"/>
<polygon fill="#9e9e9e" stroke="#9e9e9e" points="269.11,-148.86 258.73,-146.76 265.54,-154.87 269.11,-148.86"/>
</g>
<!-- s5&#45;&gt;s4 -->
<g id="edge6" class="edge">
<title>s5&#45;&gt;s4</title>
<path fill="none" stroke="#37474f" d="M377.9,-150.74C379.6,-156.49 381.14,-162.73 382,-168.62 382.81,-174.18 383.23,-180.11 383.39,-185.89"/>
<polygon fill="#37474f" stroke="#37474f" points="379.89,-185.88 383.41,-195.88 386.89,-185.87 379.89,-185.88"/>
<text text-anchor="middle" x="400.74" y="-171.32" font-family="Helvetica,sans-Serif" font-size="9.00">end call</text>
</g>
<!-- s7 -->
<g id="node8" class="node">
<title>s7</title>
<path fill="#fff9c4" stroke="#f9a825" d="M676.62,-57.12C676.62,-57.12 559.38,-57.12 559.38,-57.12 553.38,-57.12 547.38,-51.12 547.38,-45.12 547.38,-45.12 547.38,-22.88 547.38,-22.88 547.38,-16.88 553.38,-10.88 559.38,-10.88 559.38,-10.88 676.62,-10.88 676.62,-10.88 682.62,-10.88 688.62,-16.88 688.62,-22.88 688.62,-22.88 688.62,-45.12 688.62,-45.12 688.62,-51.12 682.62,-57.12 676.62,-57.12"/>
<text text-anchor="middle" x="618" y="-43.62" font-family="Helvetica,sans-Serif" font-size="10.00">7. Logout / Wipe</text>
<text text-anchor="middle" x="618" y="-30.88" font-family="Helvetica,sans-Serif" font-size="10.00">(clear session, key purge)</text>
<text text-anchor="middle" x="618" y="-18.12" font-family="Helvetica,sans-Serif" font-size="10.00">T&#45;FC&#45;OUT&#45;060..062</text>
</g>
<!-- s6&#45;&gt;s7 -->
<g id="edge8" class="edge">
<title>s6&#45;&gt;s7</title>
<path fill="none" stroke="#37474f" d="M555.52,-103.88C565.97,-92.36 578.83,-78.18 590.17,-65.68"/>
<polygon fill="#37474f" stroke="#37474f" points="592.58,-68.24 596.7,-58.48 587.39,-63.53 592.58,-68.24"/>
<text text-anchor="middle" x="601.34" y="-77.83" font-family="Helvetica,sans-Serif" font-size="9.00">&quot;Logout&quot;</text>
</g>
<!-- m4 -->
<g id="node12" class="node">
<title>m4</title>
<polygon fill="#fffde7" stroke="#1565c0" points="277.12,-52 186.88,-52 186.88,-16 283.12,-16 283.12,-46 277.12,-52"/>
<polyline fill="none" stroke="#1565c0" points="277.12,-52 277.12,-46"/>
<polyline fill="none" stroke="#1565c0" points="283.12,-46 277.12,-46"/>
<text text-anchor="middle" x="235" y="-37.25" font-family="Helvetica,sans-Serif" font-size="10.00">6: ListTile×8</text>
<text text-anchor="middle" x="235" y="-24.5" font-family="Helvetica,sans-Serif" font-size="10.00"> &#160;&#160;Switch(theme)</text>
</g>
<!-- s6&#45;&gt;m4 -->
<g id="edge16" class="edge">
<title>s6&#45;&gt;m4</title>
<path fill="none" stroke="#9e9e9e" stroke-dasharray="5,2" d="M460.84,-103.88C409.49,-88.22 342.05,-67.65 294.27,-53.08"/>
<polygon fill="#9e9e9e" stroke="#9e9e9e" points="295.52,-49.8 284.93,-50.23 293.48,-56.49 295.52,-49.8"/>
</g>
<!-- s7&#45;&gt;s0 -->
<g id="edge9" class="edge">
<title>s7&#45;&gt;s0</title>
<path fill="none" stroke="#37474f" stroke-dasharray="5,2" d="M628.91,-57.36C636.77,-75.53 646,-102.08 646,-126.5 646,-527.38 646,-527.38 646,-527.38 646,-549.01 635.1,-570.4 623.48,-587.04"/>
<polygon fill="#37474f" stroke="#37474f" points="620.68,-584.93 617.53,-595.05 626.3,-589.11 620.68,-584.93"/>
<text text-anchor="middle" x="667.38" y="-322.82" font-family="Helvetica,sans-Serif" font-size="9.00">re&#45;launch</text>
</g>
<!-- m1&#45;&gt;m2 -->
<!-- m2&#45;&gt;m3 -->
<!-- m3&#45;&gt;m4 -->
<!-- lg_y -->
<g id="node13" class="node">
<title>lg_y</title>
<path fill="#fff9c4" stroke="#1565c0" d="M773.62,-637.88C773.62,-637.88 734.38,-637.88 734.38,-637.88 728.38,-637.88 722.38,-631.88 722.38,-625.88 722.38,-625.88 722.38,-613.88 722.38,-613.88 722.38,-607.88 728.38,-601.88 734.38,-601.88 734.38,-601.88 773.62,-601.88 773.62,-601.88 779.62,-601.88 785.62,-607.88 785.62,-613.88 785.62,-613.88 785.62,-625.88 785.62,-625.88 785.62,-631.88 779.62,-637.88 773.62,-637.88"/>
<text text-anchor="middle" x="754" y="-616.75" font-family="Helvetica,sans-Serif" font-size="10.00">entry/exit</text>
</g>
<!-- lg_b -->
<g id="node14" class="node">
<title>lg_b</title>
<path fill="#bbdefb" stroke="#1565c0" d="M784.12,-544.38C784.12,-544.38 723.88,-544.38 723.88,-544.38 717.88,-544.38 711.88,-538.38 711.88,-532.38 711.88,-532.38 711.88,-520.38 711.88,-520.38 711.88,-514.38 717.88,-508.38 723.88,-508.38 723.88,-508.38 784.12,-508.38 784.12,-508.38 790.12,-508.38 796.12,-514.38 796.12,-520.38 796.12,-520.38 796.12,-532.38 796.12,-532.38 796.12,-538.38 790.12,-544.38 784.12,-544.38"/>
<text text-anchor="middle" x="754" y="-523.25" font-family="Helvetica,sans-Serif" font-size="10.00">onboarding/UI</text>
</g>
<!-- lg_y&#45;&gt;lg_b -->
<!-- lg_g -->
<g id="node15" class="node">
<title>lg_g</title>
<path fill="#a5d6a7" stroke="#1565c0" d="M791.25,-450.88C791.25,-450.88 716.75,-450.88 716.75,-450.88 710.75,-450.88 704.75,-444.88 704.75,-438.88 704.75,-438.88 704.75,-426.88 704.75,-426.88 704.75,-420.88 710.75,-414.88 716.75,-414.88 716.75,-414.88 791.25,-414.88 791.25,-414.88 797.25,-414.88 803.25,-420.88 803.25,-426.88 803.25,-426.88 803.25,-438.88 803.25,-438.88 803.25,-444.88 797.25,-450.88 791.25,-450.88"/>
<text text-anchor="middle" x="754" y="-429.75" font-family="Helvetica,sans-Serif" font-size="10.00">core value (chat)</text>
</g>
<!-- lg_b&#45;&gt;lg_g -->
<!-- lg_v -->
<g id="node16" class="node">
<title>lg_v</title>
<path fill="#ce93d8" stroke="#1565c0" d="M782.62,-343.75C782.62,-343.75 725.38,-343.75 725.38,-343.75 719.38,-343.75 713.38,-337.75 713.38,-331.75 713.38,-331.75 713.38,-319.75 713.38,-319.75 713.38,-313.75 719.38,-307.75 725.38,-307.75 725.38,-307.75 782.62,-307.75 782.62,-307.75 788.62,-307.75 794.62,-313.75 794.62,-319.75 794.62,-319.75 794.62,-331.75 794.62,-331.75 794.62,-337.75 788.62,-343.75 782.62,-343.75"/>
<text text-anchor="middle" x="754" y="-322.62" font-family="Helvetica,sans-Serif" font-size="10.00">real&#45;time call</text>
</g>
<!-- lg_g&#45;&gt;lg_v -->
</g>
</svg>
