<?xml version="1.0" encoding="UTF-8" standalone="no"?>
<!DOCTYPE svg PUBLIC "-//W3C//DTD SVG 1.1//EN"
 "http://www.w3.org/Graphics/SVG/1.1/DTD/svg11.dtd">
<!-- Generated by graphviz version 12.2.1 (0)
 -->
<!-- Title: G19CXOperatorJourney Pages: 1 -->
<svg width="1637pt" height="200pt"
 viewBox="0.00 0.00 1637.25 200.00" xmlns="http://www.w3.org/2000/svg" xmlns:xlink="http://www.w3.org/1999/xlink">
<g id="graph0" class="graph" transform="scale(1 1) rotate(0) translate(4 196)">
<title>G19CXOperatorJourney</title>
<polygon fill="#fafafa" stroke="none" points="-4,4 -4,-196 1633.25,-196 1633.25,4 -4,4"/>
<text text-anchor="middle" x="814.62" y="-173.75" font-family="Helvetica,sans-Serif" font-size="15.00">G19 — Operator CX Journey (8 steps, tool names on transitions)</text>
<g id="clust1" class="cluster">
<title>cluster_legend</title>
<path fill="#f5f5f5" stroke="#9e9e9e" d="M20,-87C20,-87 954,-87 954,-87 960,-87 966,-93 966,-99 966,-99 966,-146 966,-146 966,-152 960,-158 954,-158 954,-158 20,-158 20,-158 14,-158 8,-152 8,-146 8,-146 8,-99 8,-99 8,-93 14,-87 20,-87"/>
<text text-anchor="middle" x="487" y="-145.45" font-family="Helvetica,sans-Serif" font-size="9.00">Legend</text>
</g>
<!-- o1 -->
<g id="node1" class="node">
<title>o1</title>
<path fill="#fff9c4" stroke="#f9a825" d="M67.5,-36C67.5,-36 18.5,-36 18.5,-36 12.5,-36 6.5,-30 6.5,-24 6.5,-24 6.5,-12 6.5,-12 6.5,-6 12.5,0 18.5,0 18.5,0 67.5,0 67.5,0 73.5,0 79.5,-6 79.5,-12 79.5,-12 79.5,-24 79.5,-24 79.5,-30 73.5,-36 67.5,-36"/>
<text text-anchor="middle" x="43" y="-21.25" font-family="Helvetica,sans-Serif" font-size="10.00">1. ssh vm&#45;1</text>
<text text-anchor="middle" x="43" y="-8.5" font-family="Helvetica,sans-Serif" font-size="10.00">(Tailscale)</text>
</g>
<!-- o2 -->
<g id="node2" class="node">
<title>o2</title>
<path fill="#bbdefb" stroke="#1565c0" d="M232,-36C232,-36 171,-36 171,-36 165,-36 159,-30 159,-24 159,-24 159,-12 159,-12 159,-6 165,0 171,0 171,0 232,0 232,0 238,0 244,-6 244,-12 244,-12 244,-24 244,-24 244,-30 238,-36 232,-36"/>
<text text-anchor="middle" x="201.5" y="-21.25" font-family="Helvetica,sans-Serif" font-size="10.00">2. /sa&#45;plan list</text>
<text text-anchor="middle" x="201.5" y="-8.5" font-family="Helvetica,sans-Serif" font-size="10.00">pending tasks</text>
</g>
<!-- o1&#45;&gt;o2 -->
<g id="edge1" class="edge">
<title>o1&#45;&gt;o2</title>
<path fill="none" stroke="#37474f" d="M79.9,-18C99.88,-18 125.14,-18 147.36,-18"/>
<polygon fill="#37474f" stroke="#37474f" points="147.15,-21.5 157.15,-18 147.15,-14.5 147.15,-21.5"/>
<text text-anchor="middle" x="119.25" y="-20.7" font-family="Helvetica,sans-Serif" font-size="9.00">ssh + zsh</text>
</g>
<!-- o3 -->
<g id="node3" class="node">
<title>o3</title>
<path fill="#fff59d" stroke="#f57f17" d="M442.62,-66C442.62,-66 386.88,-66 386.88,-66 380.88,-66 374.88,-60 374.88,-54 374.88,-54 374.88,-42 374.88,-42 374.88,-36 380.88,-30 386.88,-30 386.88,-30 442.62,-30 442.62,-30 448.62,-30 454.62,-36 454.62,-42 454.62,-42 454.62,-54 454.62,-54 454.62,-60 448.62,-66 442.62,-66"/>
<text text-anchor="middle" x="414.75" y="-51.25" font-family="Helvetica,sans-Serif" font-size="10.00">3. claim task</text>
<text text-anchor="middle" x="414.75" y="-38.5" font-family="Helvetica,sans-Serif" font-size="10.00">(in_progress)</text>
</g>
<!-- o2&#45;&gt;o3 -->
<g id="edge2" class="edge">
<title>o2&#45;&gt;o3</title>
<path fill="none" stroke="#37474f" d="M244.49,-23.96C278.69,-28.82 327.08,-35.69 363.37,-40.85"/>
<polygon fill="#37474f" stroke="#37474f" points="362.8,-44.3 373.19,-42.24 363.79,-37.37 362.8,-44.3"/>
<text text-anchor="middle" x="301" y="-51.39" font-family="Helvetica,sans-Serif" font-size="9.00">./sa&#45;plan update</text>
<text text-anchor="middle" x="301" y="-40.14" font-family="Helvetica,sans-Serif" font-size="9.00">&lt;id&gt; in_progress</text>
</g>
<!-- o4 -->
<g id="node4" class="node">
<title>o4</title>
<path fill="#80deea" stroke="#006064" stroke-width="2" d="M731.25,-69C731.25,-69 608,-69 608,-69 602,-69 596,-63 596,-57 596,-57 596,-45 596,-45 596,-39 602,-33 608,-33 608,-33 731.25,-33 731.25,-33 737.25,-33 743.25,-39 743.25,-45 743.25,-45 743.25,-57 743.25,-57 743.25,-63 737.25,-69 731.25,-69"/>
<text text-anchor="middle" x="669.62" y="-54.25" font-family="Helvetica,sans-Serif" font-size="10.00">4. /marionette&#45;explore</text>
<text text-anchor="middle" x="669.62" y="-41.5" font-family="Helvetica,sans-Serif" font-size="10.00">fluffychat onboarding&#45;login</text>
</g>
<!-- o3&#45;&gt;o4 -->
<g id="edge3" class="edge">
<title>o3&#45;&gt;o4</title>
<path fill="none" stroke="#37474f" d="M454.98,-48.47C489.24,-48.87 540.15,-49.48 583.68,-49.99"/>
<polygon fill="#37474f" stroke="#37474f" points="583.6,-53.49 593.64,-50.11 583.68,-46.49 583.6,-53.49"/>
<text text-anchor="middle" x="533.75" y="-52.56" font-family="Helvetica,sans-Serif" font-size="9.00">/marionette&#45;explore</text>
</g>
<!-- o5 -->
<g id="node5" class="node">
<title>o5</title>
<path fill="#a5d6a7" stroke="#1b5e20" d="M961.75,-77.12C961.75,-77.12 877.5,-77.12 877.5,-77.12 871.5,-77.12 865.5,-71.12 865.5,-65.12 865.5,-65.12 865.5,-42.88 865.5,-42.88 865.5,-36.88 871.5,-30.88 877.5,-30.88 877.5,-30.88 961.75,-30.88 961.75,-30.88 967.75,-30.88 973.75,-36.88 973.75,-42.88 973.75,-42.88 973.75,-65.12 973.75,-65.12 973.75,-71.12 967.75,-77.12 961.75,-77.12"/>
<text text-anchor="middle" x="919.62" y="-63.62" font-family="Helvetica,sans-Serif" font-size="10.00">5. review evidence</text>
<text text-anchor="middle" x="919.62" y="-50.88" font-family="Helvetica,sans-Serif" font-size="10.00">(screenshots, logs,</text>
<text text-anchor="middle" x="919.62" y="-38.12" font-family="Helvetica,sans-Serif" font-size="10.00">interactive tree)</text>
</g>
<!-- o4&#45;&gt;o5 -->
<g id="edge4" class="edge">
<title>o4&#45;&gt;o5</title>
<path fill="none" stroke="#37474f" d="M744.03,-51.89C778.93,-52.31 820.29,-52.81 853.99,-53.22"/>
<polygon fill="#37474f" stroke="#37474f" points="853.55,-56.71 863.6,-53.33 853.64,-49.71 853.55,-56.71"/>
<text text-anchor="middle" x="804.38" y="-67.06" font-family="Helvetica,sans-Serif" font-size="9.00">docs/cache/</text>
<text text-anchor="middle" x="804.38" y="-55.81" font-family="Helvetica,sans-Serif" font-size="9.00">marionette/&lt;run&gt;/</text>
</g>
<!-- o6 -->
<g id="node6" class="node">
<title>o6</title>
<path fill="#a5d6a7" stroke="#1b5e20" d="M1176.5,-69C1176.5,-69 1096,-69 1096,-69 1090,-69 1084,-63 1084,-57 1084,-57 1084,-45 1084,-45 1084,-39 1090,-33 1096,-33 1096,-33 1176.5,-33 1176.5,-33 1182.5,-33 1188.5,-39 1188.5,-45 1188.5,-45 1188.5,-57 1188.5,-57 1188.5,-63 1182.5,-69 1176.5,-69"/>
<text text-anchor="middle" x="1136.25" y="-54.25" font-family="Helvetica,sans-Serif" font-size="10.00">6. close task</text>
<text text-anchor="middle" x="1136.25" y="-41.5" font-family="Helvetica,sans-Serif" font-size="10.00">update completed</text>
</g>
<!-- o5&#45;&gt;o6 -->
<g id="edge5" class="edge">
<title>o5&#45;&gt;o6</title>
<path fill="none" stroke="#37474f" d="M974.23,-53.25C1004.09,-52.83 1041.42,-52.31 1072.61,-51.88"/>
<polygon fill="#37474f" stroke="#37474f" points="1072.34,-55.38 1082.29,-51.74 1072.24,-48.38 1072.34,-55.38"/>
<text text-anchor="middle" x="1028.88" y="-66.89" font-family="Helvetica,sans-Serif" font-size="9.00">./sa&#45;plan update</text>
<text text-anchor="middle" x="1028.88" y="-55.64" font-family="Helvetica,sans-Serif" font-size="9.00">&lt;id&gt; completed</text>
</g>
<!-- o7 -->
<g id="node7" class="node">
<title>o7</title>
<path fill="#ce93d8" stroke="#4a148c" d="M1431,-66C1431,-66 1348.25,-66 1348.25,-66 1342.25,-66 1336.25,-60 1336.25,-54 1336.25,-54 1336.25,-42 1336.25,-42 1336.25,-36 1342.25,-30 1348.25,-30 1348.25,-30 1431,-30 1431,-30 1437,-30 1443,-36 1443,-42 1443,-42 1443,-54 1443,-54 1443,-60 1437,-66 1431,-66"/>
<text text-anchor="middle" x="1389.62" y="-51.25" font-family="Helvetica,sans-Serif" font-size="10.00">7. email closure</text>
<text text-anchor="middle" x="1389.62" y="-38.5" font-family="Helvetica,sans-Serif" font-size="10.00">+ journal attached</text>
</g>
<!-- o6&#45;&gt;o7 -->
<g id="edge6" class="edge">
<title>o6&#45;&gt;o7</title>
<path fill="none" stroke="#37474f" d="M1188.73,-50.39C1228.07,-49.92 1282.52,-49.27 1324.66,-48.76"/>
<polygon fill="#37474f" stroke="#37474f" points="1324.45,-52.27 1334.41,-48.65 1324.37,-45.27 1324.45,-52.27"/>
<text text-anchor="middle" x="1262.38" y="-64.06" font-family="Helvetica,sans-Serif" font-size="9.00">sa&#45;plan&#45;daemon</text>
<text text-anchor="middle" x="1262.38" y="-52.81" font-family="Helvetica,sans-Serif" font-size="9.00">send&#45;email &#45;a journal.md</text>
</g>
<!-- o8 -->
<g id="node8" class="node">
<title>o8</title>
<path fill="#d1c4e9" stroke="#4527a0" d="M1617.25,-36C1617.25,-36 1563,-36 1563,-36 1557,-36 1551,-30 1551,-24 1551,-24 1551,-12 1551,-12 1551,-6 1557,0 1563,0 1563,0 1617.25,0 1617.25,0 1623.25,0 1629.25,-6 1629.25,-12 1629.25,-12 1629.25,-24 1629.25,-24 1629.25,-30 1623.25,-36 1617.25,-36"/>
<text text-anchor="middle" x="1590.12" y="-21.25" font-family="Helvetica,sans-Serif" font-size="10.00">8. ZK ingest</text>
<text text-anchor="middle" x="1590.12" y="-8.5" font-family="Helvetica,sans-Serif" font-size="10.00">(both brains)</text>
</g>
<!-- o7&#45;&gt;o8 -->
<g id="edge7" class="edge">
<title>o7&#45;&gt;o8</title>
<path fill="none" stroke="#37474f" d="M1443.3,-40.04C1473.11,-35.53 1510.17,-29.93 1539.47,-25.5"/>
<polygon fill="#37474f" stroke="#37474f" points="1539.83,-28.99 1549.2,-24.03 1538.78,-22.07 1539.83,-28.99"/>
<text text-anchor="middle" x="1497" y="-50.52" font-family="Helvetica,sans-Serif" font-size="9.00">sa&#45;plan&#45;daemon</text>
<text text-anchor="middle" x="1497" y="-39.27" font-family="Helvetica,sans-Serif" font-size="9.00">ingest&#45;docs</text>
</g>
<!-- o8&#45;&gt;o2 -->
<g id="edge8" class="edge">
<title>o8&#45;&gt;o2</title>
<path fill="none" stroke="#9e9e9e" stroke-dasharray="5,2" d="M1550.77,-13.07C1510.85,-8.37 1446.46,-2 1390.62,-2 413.75,-2 413.75,-2 413.75,-2 359.68,-2 298.04,-7.28 255.36,-11.77"/>
<polygon fill="#9e9e9e" stroke="#9e9e9e" points="255.19,-8.27 245.62,-12.82 255.94,-15.23 255.19,-8.27"/>
<text text-anchor="middle" x="919.62" y="-4.7" font-family="Helvetica,sans-Serif" font-size="9.00">next task</text>
</g>
<!-- lg_y -->
<g id="node9" class="node">
<title>lg_y</title>
<path fill="#fff9c4" stroke="#1565c0" d="M58,-131C58,-131 28,-131 28,-131 22,-131 16,-125 16,-119 16,-119 16,-107 16,-107 16,-101 22,-95 28,-95 28,-95 58,-95 58,-95 64,-95 70,-101 70,-107 70,-107 70,-119 70,-119 70,-125 64,-131 58,-131"/>
<text text-anchor="middle" x="43" y="-109.88" font-family="Helvetica,sans-Serif" font-size="10.00">entry</text>
</g>
<!-- lg_b -->
<g id="node10" class="node">
<title>lg_b</title>
<path fill="#bbdefb" stroke="#1565c0" d="M218.5,-131C218.5,-131 184.5,-131 184.5,-131 178.5,-131 172.5,-125 172.5,-119 172.5,-119 172.5,-107 172.5,-107 172.5,-101 178.5,-95 184.5,-95 184.5,-95 218.5,-95 218.5,-95 224.5,-95 230.5,-101 230.5,-107 230.5,-107 230.5,-119 230.5,-119 230.5,-125 224.5,-131 218.5,-131"/>
<text text-anchor="middle" x="201.5" y="-109.88" font-family="Helvetica,sans-Serif" font-size="10.00">planning</text>
</g>
<!-- lg_y&#45;&gt;lg_b -->
<!-- lg_t -->
<g id="node11" class="node">
<title>lg_t</title>
<path fill="#80deea" stroke="#1565c0" d="M459.5,-131C459.5,-131 370,-131 370,-131 364,-131 358,-125 358,-119 358,-119 358,-107 358,-107 358,-101 364,-95 370,-95 370,-95 459.5,-95 459.5,-95 465.5,-95 471.5,-101 471.5,-107 471.5,-107 471.5,-119 471.5,-119 471.5,-125 465.5,-131 459.5,-131"/>
<text text-anchor="middle" x="414.75" y="-109.88" font-family="Helvetica,sans-Serif" font-size="10.00">testing (Marionette)</text>
</g>
<!-- lg_b&#45;&gt;lg_t -->
<!-- lg_g -->
<g id="node12" class="node">
<title>lg_g</title>
<path fill="#a5d6a7" stroke="#1565c0" d="M706.88,-131C706.88,-131 632.38,-131 632.38,-131 626.38,-131 620.38,-125 620.38,-119 620.38,-119 620.38,-107 620.38,-107 620.38,-101 626.38,-95 632.38,-95 632.38,-95 706.88,-95 706.88,-95 712.88,-95 718.88,-101 718.88,-107 718.88,-107 718.88,-119 718.88,-119 718.88,-125 712.88,-131 706.88,-131"/>
<text text-anchor="middle" x="669.62" y="-109.88" font-family="Helvetica,sans-Serif" font-size="10.00">evidence/closure</text>
</g>
<!-- lg_t&#45;&gt;lg_g -->
<!-- lg_v -->
<g id="node13" class="node">
<title>lg_v</title>
<path fill="#d1c4e9" stroke="#1565c0" d="M946,-131C946,-131 893.25,-131 893.25,-131 887.25,-131 881.25,-125 881.25,-119 881.25,-119 881.25,-107 881.25,-107 881.25,-101 887.25,-95 893.25,-95 893.25,-95 946,-95 946,-95 952,-95 958,-101 958,-107 958,-107 958,-119 958,-119 958,-125 952,-131 946,-131"/>
<text text-anchor="middle" x="919.62" y="-109.88" font-family="Helvetica,sans-Serif" font-size="10.00">notify/ingest</text>
</g>
<!-- lg_g&#45;&gt;lg_v -->
</g>
</svg>
