<?xml version="1.0" encoding="UTF-8" standalone="no"?>
<!DOCTYPE svg PUBLIC "-//W3C//DTD SVG 1.1//EN"
 "http://www.w3.org/Graphics/SVG/1.1/DTD/svg11.dtd">
<!-- Generated by graphviz version 12.2.1 (0)
 -->
<!-- Title: rete Pages: 1 -->
<svg width="2112pt" height="311pt"
 viewBox="0.00 0.00 2112.10 310.85" xmlns="http://www.w3.org/2000/svg" xmlns:xlink="http://www.w3.org/1999/xlink">
<g id="graph0" class="graph" transform="scale(1 1) rotate(0) translate(28.8 282.05)">
<title>rete</title>
<polygon fill="#0a0e17" stroke="none" points="-28.8,28.8 -28.8,-282.05 2083.3,-282.05 2083.3,28.8 -28.8,28.8"/>
<!-- src -->
<g id="node1" class="node">
<title>src</title>
<path fill="#1e2a3a" stroke="#00d4aa" d="M1014.12,-216.75C1014.12,-216.75 1171.12,-216.75 1171.12,-216.75 1177.12,-216.75 1183.12,-222.75 1183.12,-228.75 1183.12,-228.75 1183.12,-240.75 1183.12,-240.75 1183.12,-246.75 1177.12,-252.75 1171.12,-252.75 1171.12,-252.75 1014.12,-252.75 1014.12,-252.75 1008.12,-252.75 1002.12,-246.75 1002.12,-240.75 1002.12,-240.75 1002.12,-228.75 1002.12,-228.75 1002.12,-222.75 1008.12,-216.75 1014.12,-216.75"/>
<text text-anchor="middle" x="1092.62" y="-237.8" font-family="Helvetica,sans-Serif" font-size="11.00" fill="#e0e6ed">Zenoh subscription</text>
<text text-anchor="middle" x="1092.62" y="-224.3" font-family="Helvetica,sans-Serif" font-size="11.00" fill="#e0e6ed">indrajaal/l5/test/marionette/**</text>
</g>
<!-- r95a -->
<g id="node2" class="node">
<title>r95a</title>
<path fill="#141922" stroke="#ff4757" d="M12,-88.75C12,-88.75 279.25,-88.75 279.25,-88.75 285.25,-88.75 291.25,-94.75 291.25,-100.75 291.25,-100.75 291.25,-162.75 291.25,-162.75 291.25,-168.75 285.25,-174.75 279.25,-174.75 279.25,-174.75 12,-174.75 12,-174.75 6,-174.75 0,-168.75 0,-162.75 0,-162.75 0,-100.75 0,-100.75 0,-94.75 6,-88.75 12,-88.75"/>
<text text-anchor="middle" x="145.62" y="-160.3" font-family="Helvetica,sans-Serif" font-size="11.00" fill="#e0e6ed">MarionetteDiscoveryFirst</text>
<polyline fill="none" stroke="#ff4757" points="0,-153.25 291.25,-153.25"/>
<text text-anchor="middle" x="145.62" y="-138.8" font-family="Helvetica,sans-Serif" font-size="11.00" fill="#e0e6ed">salience 95</text>
<polyline fill="none" stroke="#ff4757" points="0,-131.75 291.25,-131.75"/>
<text text-anchor="middle" x="145.62" y="-117.3" font-family="Helvetica,sans-Serif" font-size="11.00" fill="#e0e6ed">tap/text/gesture before any\ndiscovery in session</text>
<polyline fill="none" stroke="#ff4757" points="0,-110.25 291.25,-110.25"/>
<text text-anchor="middle" x="145.62" y="-95.8" font-family="Helvetica,sans-Serif" font-size="11.00" fill="#e0e6ed">warn + log</text>
</g>
<!-- src&#45;&gt;r95a -->
<g id="edge1" class="edge">
<title>src&#45;&gt;r95a</title>
<path fill="none" stroke="#7a8fa6" d="M1001.89,-232.52C855.02,-229.3 556.53,-217.61 307.62,-175.25 305.97,-174.97 304.3,-174.68 302.63,-174.38"/>
<polygon fill="#7a8fa6" stroke="#7a8fa6" points="303.48,-170.98 293,-172.57 302.18,-177.85 303.48,-170.98"/>
</g>
<!-- r95b -->
<g id="node3" class="node">
<title>r95b</title>
<path fill="#141922" stroke="#ff4757" d="M335.25,-88.75C335.25,-88.75 460,-88.75 460,-88.75 466,-88.75 472,-94.75 472,-100.75 472,-100.75 472,-162.75 472,-162.75 472,-168.75 466,-174.75 460,-174.75 460,-174.75 335.25,-174.75 335.25,-174.75 329.25,-174.75 323.25,-168.75 323.25,-162.75 323.25,-162.75 323.25,-100.75 323.25,-100.75 323.25,-94.75 329.25,-88.75 335.25,-88.75"/>
<text text-anchor="middle" x="397.62" y="-160.3" font-family="Helvetica,sans-Serif" font-size="11.00" fill="#e0e6ed">MarionetteReleaseBlock</text>
<polyline fill="none" stroke="#ff4757" points="323.25,-153.25 472,-153.25"/>
<text text-anchor="middle" x="397.62" y="-138.8" font-family="Helvetica,sans-Serif" font-size="11.00" fill="#e0e6ed">salience 95</text>
<polyline fill="none" stroke="#ff4757" points="323.25,-131.75 472,-131.75"/>
<text text-anchor="middle" x="397.62" y="-117.3" font-family="Helvetica,sans-Serif" font-size="11.00" fill="#e0e6ed">build_mode != debug</text>
<polyline fill="none" stroke="#ff4757" points="323.25,-110.25 472,-110.25"/>
<text text-anchor="middle" x="397.62" y="-95.8" font-family="Helvetica,sans-Serif" font-size="11.00" fill="#e0e6ed">refuse + apoptosis</text>
</g>
<!-- src&#45;&gt;r95b -->
<g id="edge2" class="edge">
<title>src&#45;&gt;r95b</title>
<path fill="none" stroke="#7a8fa6" d="M1001.69,-234.61C881.76,-233.57 665.15,-224.15 487.62,-175.25 486.04,-174.81 484.44,-174.35 482.84,-173.86"/>
<polygon fill="#7a8fa6" stroke="#7a8fa6" points="484.3,-170.66 473.71,-170.81 482.08,-177.3 484.3,-170.66"/>
</g>
<!-- r90 -->
<g id="node4" class="node">
<title>r90</title>
<path fill="#141922" stroke="#ff4757" d="M516.12,-88.75C516.12,-88.75 655.12,-88.75 655.12,-88.75 661.12,-88.75 667.12,-94.75 667.12,-100.75 667.12,-100.75 667.12,-162.75 667.12,-162.75 667.12,-168.75 661.12,-174.75 655.12,-174.75 655.12,-174.75 516.12,-174.75 516.12,-174.75 510.12,-174.75 504.12,-168.75 504.12,-162.75 504.12,-162.75 504.12,-100.75 504.12,-100.75 504.12,-94.75 510.12,-88.75 516.12,-88.75"/>
<text text-anchor="middle" x="585.62" y="-160.3" font-family="Helvetica,sans-Serif" font-size="11.00" fill="#e0e6ed">MarionetteFailureCapture</text>
<polyline fill="none" stroke="#ff4757" points="504.12,-153.25 667.12,-153.25"/>
<text text-anchor="middle" x="585.62" y="-138.8" font-family="Helvetica,sans-Serif" font-size="11.00" fill="#e0e6ed">salience 90</text>
<polyline fill="none" stroke="#ff4757" points="504.12,-131.75 667.12,-131.75"/>
<text text-anchor="middle" x="585.62" y="-117.3" font-family="Helvetica,sans-Serif" font-size="11.00" fill="#e0e6ed">failed run lacking evidence</text>
<polyline fill="none" stroke="#ff4757" points="504.12,-110.25 667.12,-110.25"/>
<text text-anchor="middle" x="585.62" y="-95.8" font-family="Helvetica,sans-Serif" font-size="11.00" fill="#e0e6ed">force capture</text>
</g>
<!-- src&#45;&gt;r90 -->
<g id="edge3" class="edge">
<title>src&#45;&gt;r90</title>
<path fill="none" stroke="#7a8fa6" d="M1001.99,-227.9C917.92,-220.82 789.99,-205.81 682.62,-175.25 681.23,-174.85 679.83,-174.44 678.43,-174.01"/>
<polygon fill="#7a8fa6" stroke="#7a8fa6" points="679.65,-170.73 669.05,-170.95 677.47,-177.38 679.65,-170.73"/>
</g>
<!-- r85 -->
<g id="node5" class="node">
<title>r85</title>
<path fill="#141922" stroke="#f5a623" d="M710.75,-88.75C710.75,-88.75 844.5,-88.75 844.5,-88.75 850.5,-88.75 856.5,-94.75 856.5,-100.75 856.5,-100.75 856.5,-162.75 856.5,-162.75 856.5,-168.75 850.5,-174.75 844.5,-174.75 844.5,-174.75 710.75,-174.75 710.75,-174.75 704.75,-174.75 698.75,-168.75 698.75,-162.75 698.75,-162.75 698.75,-100.75 698.75,-100.75 698.75,-94.75 704.75,-88.75 710.75,-88.75"/>
<text text-anchor="middle" x="777.62" y="-160.3" font-family="Helvetica,sans-Serif" font-size="11.00" fill="#e0e6ed">MarionetteParityRequired</text>
<polyline fill="none" stroke="#f5a623" points="698.75,-153.25 856.5,-153.25"/>
<text text-anchor="middle" x="777.62" y="-138.8" font-family="Helvetica,sans-Serif" font-size="11.00" fill="#e0e6ed">salience 85</text>
<polyline fill="none" stroke="#f5a623" points="698.75,-131.75 856.5,-131.75"/>
<text text-anchor="middle" x="777.62" y="-117.3" font-family="Helvetica,sans-Serif" font-size="11.00" fill="#e0e6ed">starred missing platforms</text>
<polyline fill="none" stroke="#f5a623" points="698.75,-110.25 856.5,-110.25"/>
<text text-anchor="middle" x="777.62" y="-95.8" font-family="Helvetica,sans-Serif" font-size="11.00" fill="#e0e6ed">reschedule</text>
</g>
<!-- src&#45;&gt;r85 -->
<g id="edge4" class="edge">
<title>src&#45;&gt;r85</title>
<path fill="none" stroke="#7a8fa6" d="M1014.83,-216.3C972.31,-205.96 919.01,-191.67 872.62,-175.25 870.84,-174.62 869.04,-173.97 867.23,-173.3"/>
<polygon fill="#7a8fa6" stroke="#7a8fa6" points="868.81,-170.15 858.22,-169.84 866.31,-176.69 868.81,-170.15"/>
</g>
<!-- r80 -->
<g id="node6" class="node">
<title>r80</title>
<path fill="#141922" stroke="#f5a623" d="M900.88,-88.75C900.88,-88.75 1062.38,-88.75 1062.38,-88.75 1068.38,-88.75 1074.38,-94.75 1074.38,-100.75 1074.38,-100.75 1074.38,-162.75 1074.38,-162.75 1074.38,-168.75 1068.38,-174.75 1062.38,-174.75 1062.38,-174.75 900.88,-174.75 900.88,-174.75 894.88,-174.75 888.88,-168.75 888.88,-162.75 888.88,-162.75 888.88,-100.75 888.88,-100.75 888.88,-94.75 894.88,-88.75 900.88,-88.75"/>
<text text-anchor="middle" x="981.62" y="-160.3" font-family="Helvetica,sans-Serif" font-size="11.00" fill="#e0e6ed">MarionetteLogCollectorMissing</text>
<polyline fill="none" stroke="#f5a623" points="888.88,-153.25 1074.38,-153.25"/>
<text text-anchor="middle" x="981.62" y="-138.8" font-family="Helvetica,sans-Serif" font-size="11.00" fill="#e0e6ed">salience 80</text>
<polyline fill="none" stroke="#f5a623" points="888.88,-131.75 1074.38,-131.75"/>
<text text-anchor="middle" x="981.62" y="-117.3" font-family="Helvetica,sans-Serif" font-size="11.00" fill="#e0e6ed">binding no logCollector</text>
<polyline fill="none" stroke="#f5a623" points="888.88,-110.25 1074.38,-110.25"/>
<text text-anchor="middle" x="981.62" y="-95.8" font-family="Helvetica,sans-Serif" font-size="11.00" fill="#e0e6ed">P2 advisory</text>
</g>
<!-- src&#45;&gt;r80 -->
<g id="edge5" class="edge">
<title>src&#45;&gt;r80</title>
<path fill="none" stroke="#7a8fa6" d="M1073.54,-216.39C1063.17,-206.95 1049.77,-194.75 1036.42,-182.61"/>
<polygon fill="#7a8fa6" stroke="#7a8fa6" points="1039.01,-180.23 1029.26,-176.09 1034.3,-185.41 1039.01,-180.23"/>
</g>
<!-- r75a -->
<g id="node7" class="node">
<title>r75a</title>
<path fill="#141922" stroke="#f5a623" d="M1118,-88.75C1118,-88.75 1289.25,-88.75 1289.25,-88.75 1295.25,-88.75 1301.25,-94.75 1301.25,-100.75 1301.25,-100.75 1301.25,-162.75 1301.25,-162.75 1301.25,-168.75 1295.25,-174.75 1289.25,-174.75 1289.25,-174.75 1118,-174.75 1118,-174.75 1112,-174.75 1106,-168.75 1106,-162.75 1106,-162.75 1106,-100.75 1106,-100.75 1106,-94.75 1112,-88.75 1118,-88.75"/>
<text text-anchor="middle" x="1203.62" y="-160.3" font-family="Helvetica,sans-Serif" font-size="11.00" fill="#e0e6ed">MarionetteCustomExtRegistered</text>
<polyline fill="none" stroke="#f5a623" points="1106,-153.25 1301.25,-153.25"/>
<text text-anchor="middle" x="1203.62" y="-138.8" font-family="Helvetica,sans-Serif" font-size="11.00" fill="#e0e6ed">salience 75</text>
<polyline fill="none" stroke="#f5a623" points="1106,-131.75 1301.25,-131.75"/>
<text text-anchor="middle" x="1203.62" y="-117.3" font-family="Helvetica,sans-Serif" font-size="11.00" fill="#e0e6ed">extensions but no doc</text>
<polyline fill="none" stroke="#f5a623" points="1106,-110.25 1301.25,-110.25"/>
<text text-anchor="middle" x="1203.62" y="-95.8" font-family="Helvetica,sans-Serif" font-size="11.00" fill="#e0e6ed">open task</text>
</g>
<!-- src&#45;&gt;r75a -->
<g id="edge6" class="edge">
<title>src&#45;&gt;r75a</title>
<path fill="none" stroke="#7a8fa6" d="M1111.71,-216.39C1122.08,-206.95 1135.48,-194.75 1148.83,-182.61"/>
<polygon fill="#7a8fa6" stroke="#7a8fa6" points="1150.95,-185.41 1155.99,-176.09 1146.24,-180.23 1150.95,-185.41"/>
</g>
<!-- r75b -->
<g id="node8" class="node">
<title>r75b</title>
<path fill="#141922" stroke="#f5a623" d="M1345.12,-88.75C1345.12,-88.75 1484.12,-88.75 1484.12,-88.75 1490.12,-88.75 1496.12,-94.75 1496.12,-100.75 1496.12,-100.75 1496.12,-162.75 1496.12,-162.75 1496.12,-168.75 1490.12,-174.75 1484.12,-174.75 1484.12,-174.75 1345.12,-174.75 1345.12,-174.75 1339.12,-174.75 1333.12,-168.75 1333.12,-162.75 1333.12,-162.75 1333.12,-100.75 1333.12,-100.75 1333.12,-94.75 1339.12,-88.75 1345.12,-88.75"/>
<text text-anchor="middle" x="1414.62" y="-160.3" font-family="Helvetica,sans-Serif" font-size="11.00" fill="#e0e6ed">MarionetteSelectorDrift</text>
<polyline fill="none" stroke="#f5a623" points="1333.12,-153.25 1496.12,-153.25"/>
<text text-anchor="middle" x="1414.62" y="-138.8" font-family="Helvetica,sans-Serif" font-size="11.00" fill="#e0e6ed">salience 75</text>
<polyline fill="none" stroke="#f5a623" points="1333.12,-131.75 1496.12,-131.75"/>
<text text-anchor="middle" x="1414.62" y="-117.3" font-family="Helvetica,sans-Serif" font-size="11.00" fill="#e0e6ed">tree diff &gt;30 pct Hamming</text>
<polyline fill="none" stroke="#f5a623" points="1333.12,-110.25 1496.12,-110.25"/>
<text text-anchor="middle" x="1414.62" y="-95.8" font-family="Helvetica,sans-Serif" font-size="11.00" fill="#e0e6ed">flag P1 + pause</text>
</g>
<!-- src&#45;&gt;r75b -->
<g id="edge7" class="edge">
<title>src&#45;&gt;r75b</title>
<path fill="none" stroke="#7a8fa6" d="M1172.42,-216.27C1215.85,-205.94 1270.24,-191.67 1317.62,-175.25 1319.17,-174.71 1320.73,-174.16 1322.29,-173.6"/>
<polygon fill="#7a8fa6" stroke="#7a8fa6" points="1323.13,-177.02 1331.28,-170.25 1320.68,-170.47 1323.13,-177.02"/>
</g>
<!-- r70 -->
<g id="node9" class="node">
<title>r70</title>
<path fill="#141922" stroke="#1e2a3a" d="M1540.5,-88.75C1540.5,-88.75 1666.75,-88.75 1666.75,-88.75 1672.75,-88.75 1678.75,-94.75 1678.75,-100.75 1678.75,-100.75 1678.75,-162.75 1678.75,-162.75 1678.75,-168.75 1672.75,-174.75 1666.75,-174.75 1666.75,-174.75 1540.5,-174.75 1540.5,-174.75 1534.5,-174.75 1528.5,-168.75 1528.5,-162.75 1528.5,-162.75 1528.5,-100.75 1528.5,-100.75 1528.5,-94.75 1534.5,-88.75 1540.5,-88.75"/>
<text text-anchor="middle" x="1603.62" y="-160.3" font-family="Helvetica,sans-Serif" font-size="11.00" fill="#e0e6ed">MarionetteBackpressure</text>
<polyline fill="none" stroke="#1e2a3a" points="1528.5,-153.25 1678.75,-153.25"/>
<text text-anchor="middle" x="1603.62" y="-138.8" font-family="Helvetica,sans-Serif" font-size="11.00" fill="#e0e6ed">salience 70</text>
<polyline fill="none" stroke="#1e2a3a" points="1528.5,-131.75 1678.75,-131.75"/>
<text text-anchor="middle" x="1603.62" y="-117.3" font-family="Helvetica,sans-Serif" font-size="11.00" fill="#e0e6ed">queue &gt;100 msgs</text>
<polyline fill="none" stroke="#1e2a3a" points="1528.5,-110.25 1678.75,-110.25"/>
<text text-anchor="middle" x="1603.62" y="-95.8" font-family="Helvetica,sans-Serif" font-size="11.00" fill="#e0e6ed">drop screenshots</text>
</g>
<!-- src&#45;&gt;r70 -->
<g id="edge8" class="edge">
<title>src&#45;&gt;r70</title>
<path fill="none" stroke="#7a8fa6" d="M1183.33,-228.79C1269.3,-222.3 1401.34,-207.65 1511.62,-175.25 1513.6,-174.67 1515.58,-174.06 1517.57,-173.41"/>
<polygon fill="#7a8fa6" stroke="#7a8fa6" points="1518.53,-176.78 1526.81,-170.18 1516.22,-170.17 1518.53,-176.78"/>
</g>
<!-- r65 -->
<g id="node10" class="node">
<title>r65</title>
<path fill="#141922" stroke="#1e2a3a" d="M1722.62,-88.75C1722.62,-88.75 1864.62,-88.75 1864.62,-88.75 1870.62,-88.75 1876.62,-94.75 1876.62,-100.75 1876.62,-100.75 1876.62,-162.75 1876.62,-162.75 1876.62,-168.75 1870.62,-174.75 1864.62,-174.75 1864.62,-174.75 1722.62,-174.75 1722.62,-174.75 1716.62,-174.75 1710.62,-168.75 1710.62,-162.75 1710.62,-162.75 1710.62,-100.75 1710.62,-100.75 1710.62,-94.75 1716.62,-88.75 1722.62,-88.75"/>
<text text-anchor="middle" x="1793.62" y="-160.3" font-family="Helvetica,sans-Serif" font-size="11.00" fill="#e0e6ed">MarionetteFlakeQuarantine</text>
<polyline fill="none" stroke="#1e2a3a" points="1710.62,-153.25 1876.62,-153.25"/>
<text text-anchor="middle" x="1793.62" y="-138.8" font-family="Helvetica,sans-Serif" font-size="11.00" fill="#e0e6ed">salience 65</text>
<polyline fill="none" stroke="#1e2a3a" points="1710.62,-131.75 1876.62,-131.75"/>
<text text-anchor="middle" x="1793.62" y="-117.3" font-family="Helvetica,sans-Serif" font-size="11.00" fill="#e0e6ed">TID failed 3/10</text>
<polyline fill="none" stroke="#1e2a3a" points="1710.62,-110.25 1876.62,-110.25"/>
<text text-anchor="middle" x="1793.62" y="-95.8" font-family="Helvetica,sans-Serif" font-size="11.00" fill="#e0e6ed">quarantine + RCA</text>
</g>
<!-- src&#45;&gt;r65 -->
<g id="edge9" class="edge">
<title>src&#45;&gt;r65</title>
<path fill="none" stroke="#7a8fa6" d="M1183.62,-233.57C1302.83,-231.38 1517.52,-220.7 1694.62,-175.25 1696.24,-174.84 1697.86,-174.4 1699.49,-173.94"/>
<polygon fill="#7a8fa6" stroke="#7a8fa6" points="1700.28,-177.36 1708.82,-171.09 1698.23,-170.67 1700.28,-177.36"/>
</g>
<!-- r60 -->
<g id="node11" class="node">
<title>r60</title>
<path fill="#141922" stroke="#1e2a3a" d="M1920.75,-88.75C1920.75,-88.75 2042.5,-88.75 2042.5,-88.75 2048.5,-88.75 2054.5,-94.75 2054.5,-100.75 2054.5,-100.75 2054.5,-162.75 2054.5,-162.75 2054.5,-168.75 2048.5,-174.75 2042.5,-174.75 2042.5,-174.75 1920.75,-174.75 1920.75,-174.75 1914.75,-174.75 1908.75,-168.75 1908.75,-162.75 1908.75,-162.75 1908.75,-100.75 1908.75,-100.75 1908.75,-94.75 1914.75,-88.75 1920.75,-88.75"/>
<text text-anchor="middle" x="1981.62" y="-160.3" font-family="Helvetica,sans-Serif" font-size="11.00" fill="#e0e6ed">MarionetteEntropyFloor</text>
<polyline fill="none" stroke="#1e2a3a" points="1908.75,-153.25 2054.5,-153.25"/>
<text text-anchor="middle" x="1981.62" y="-138.8" font-family="Helvetica,sans-Serif" font-size="11.00" fill="#e0e6ed">salience 60</text>
<polyline fill="none" stroke="#1e2a3a" points="1908.75,-131.75 2054.5,-131.75"/>
<text text-anchor="middle" x="1981.62" y="-117.3" font-family="Helvetica,sans-Serif" font-size="11.00" fill="#e0e6ed">weekly H &lt;2.5 bits</text>
<polyline fill="none" stroke="#1e2a3a" points="1908.75,-110.25 2054.5,-110.25"/>
<text text-anchor="middle" x="1981.62" y="-95.8" font-family="Helvetica,sans-Serif" font-size="11.00" fill="#e0e6ed">broaden mix</text>
</g>
<!-- src&#45;&gt;r60 -->
<g id="edge10" class="edge">
<title>src&#45;&gt;r60</title>
<path fill="none" stroke="#7a8fa6" d="M1183.52,-231.39C1363.92,-226.01 1761.13,-210.45 1892.62,-175.25 1894.44,-174.76 1896.27,-174.24 1898.1,-173.68"/>
<polygon fill="#7a8fa6" stroke="#7a8fa6" points="1898.8,-177.14 1907.17,-170.65 1896.58,-170.5 1898.8,-177.14"/>
</g>
<!-- agent -->
<g id="node12" class="node">
<title>agent</title>
<path fill="#1e2a3a" stroke="#9b59b6" d="M517.25,-0.5C517.25,-0.5 654,-0.5 654,-0.5 660,-0.5 666,-6.5 666,-12.5 666,-12.5 666,-24.5 666,-24.5 666,-30.5 660,-36.5 654,-36.5 654,-36.5 517.25,-36.5 517.25,-36.5 511.25,-36.5 505.25,-30.5 505.25,-24.5 505.25,-24.5 505.25,-12.5 505.25,-12.5 505.25,-6.5 511.25,-0.5 517.25,-0.5"/>
<text text-anchor="middle" x="585.62" y="-21.55" font-family="Helvetica,sans-Serif" font-size="11.00" fill="#e0e6ed">Marionette&#45;explorer agent</text>
<text text-anchor="middle" x="585.62" y="-8.05" font-family="Helvetica,sans-Serif" font-size="11.00" fill="#e0e6ed">(advisory back&#45;channel)</text>
</g>
<!-- r95a&#45;&gt;agent -->
<g id="edge11" class="edge">
<title>r95a&#45;&gt;agent</title>
<path fill="none" stroke="#7a8fa6" d="M291.75,-92.31C297.11,-90.94 302.41,-89.58 307.62,-88.25 373.09,-71.57 447.39,-53.22 502.69,-39.68"/>
<polygon fill="#7a8fa6" stroke="#7a8fa6" points="503.49,-43.09 512.37,-37.32 501.83,-36.29 503.49,-43.09"/>
<text text-anchor="middle" x="449.06" y="-59.7" font-family="Times,serif" font-size="9.00" fill="#7a8fa6">advisory</text>
</g>
<!-- r95b&#45;&gt;agent -->
<g id="edge12" class="edge">
<title>r95b&#45;&gt;agent</title>
<path fill="none" stroke="#7a8fa6" d="M469.24,-88.37C495.51,-72.82 524.27,-55.81 546.62,-42.58"/>
<polygon fill="#7a8fa6" stroke="#7a8fa6" points="548.28,-45.66 555.11,-37.56 544.72,-39.64 548.28,-45.66"/>
</g>
<!-- r90&#45;&gt;agent -->
<g id="edge13" class="edge">
<title>r90&#45;&gt;agent</title>
<path fill="none" stroke="#7a8fa6" d="M585.62,-88.37C585.62,-74.93 585.62,-60.38 585.62,-48.14"/>
<polygon fill="#7a8fa6" stroke="#7a8fa6" points="589.13,-48.3 585.63,-38.3 582.13,-48.3 589.13,-48.3"/>
</g>
<!-- r85&#45;&gt;agent -->
<g id="edge14" class="edge">
<title>r85&#45;&gt;agent</title>
<path fill="none" stroke="#7a8fa6" d="M704.49,-88.37C677.53,-72.75 648.03,-55.66 625.15,-42.4"/>
<polygon fill="#7a8fa6" stroke="#7a8fa6" points="627.18,-39.53 616.77,-37.55 623.67,-45.59 627.18,-39.53"/>
</g>
<!-- r75b&#45;&gt;agent -->
<g id="edge15" class="edge">
<title>r75b&#45;&gt;agent</title>
<path fill="none" stroke="#7a8fa6" d="M1332.71,-92.73C1327.66,-91.06 1322.61,-89.54 1317.62,-88.25 1092.79,-30.05 817.79,-19.85 677.5,-18.82"/>
<polygon fill="#7a8fa6" stroke="#7a8fa6" points="677.94,-15.32 667.92,-18.76 677.9,-22.32 677.94,-15.32"/>
</g>
</g>
</svg>
