<?xml version="1.0" encoding="UTF-8" standalone="no"?>
<!DOCTYPE svg PUBLIC "-//W3C//DTD SVG 1.1//EN"
 "http://www.w3.org/Graphics/SVG/1.1/DTD/svg11.dtd">
<!-- Generated by graphviz version 12.2.1 (0)
 -->
<!-- Title: G20CXDeveloperJourney Pages: 1 -->
<svg width="1635pt" height="217pt"
 viewBox="0.00 0.00 1635.25 217.12" xmlns="http://www.w3.org/2000/svg" xmlns:xlink="http://www.w3.org/1999/xlink">
<g id="graph0" class="graph" transform="scale(1 1) rotate(0) translate(4 213.12)">
<title>G20CXDeveloperJourney</title>
<polygon fill="#fafafa" stroke="none" points="-4,4 -4,-213.12 1631.25,-213.12 1631.25,4 -4,4"/>
<text text-anchor="middle" x="813.62" y="-190.88" font-family="Helvetica,sans-Serif" font-size="15.00">G20 — Developer CX Journey (Marionette discover → Patrol regress → commit)</text>
<g id="clust1" class="cluster">
<title>cluster_legend</title>
<path fill="#f5f5f5" stroke="#9e9e9e" d="M20,-104.12C20,-104.12 840.38,-104.12 840.38,-104.12 846.38,-104.12 852.38,-110.12 852.38,-116.12 852.38,-116.12 852.38,-163.12 852.38,-163.12 852.38,-169.12 846.38,-175.12 840.38,-175.12 840.38,-175.12 20,-175.12 20,-175.12 14,-175.12 8,-169.12 8,-163.12 8,-163.12 8,-116.12 8,-116.12 8,-110.12 14,-104.12 20,-104.12"/>
<text text-anchor="middle" x="430.19" y="-162.57" font-family="Helvetica,sans-Serif" font-size="9.00">Legend</text>
</g>
<!-- d1 -->
<g id="node1" class="node">
<title>d1</title>
<path fill="#fff9c4" stroke="#f9a825" d="M72,-41.12C72,-41.12 14,-41.12 14,-41.12 8,-41.12 2,-35.12 2,-29.12 2,-29.12 2,-17.12 2,-17.12 2,-11.12 8,-5.12 14,-5.12 14,-5.12 72,-5.12 72,-5.12 78,-5.12 84,-11.12 84,-17.12 84,-17.12 84,-29.13 84,-29.13 84,-35.12 78,-41.12 72,-41.12"/>
<text text-anchor="middle" x="43" y="-26.38" font-family="Helvetica,sans-Serif" font-size="10.00">1. edit Flutter</text>
<text text-anchor="middle" x="43" y="-13.62" font-family="Helvetica,sans-Serif" font-size="10.00">widget (.dart)</text>
</g>
<!-- d2 -->
<g id="node2" class="node">
<title>d2</title>
<path fill="#bbdefb" stroke="#1565c0" d="M252.25,-41.12C252.25,-41.12 200.25,-41.12 200.25,-41.12 194.25,-41.12 188.25,-35.12 188.25,-29.12 188.25,-29.12 188.25,-17.12 188.25,-17.12 188.25,-11.12 194.25,-5.12 200.25,-5.12 200.25,-5.12 252.25,-5.12 252.25,-5.12 258.25,-5.12 264.25,-11.12 264.25,-17.12 264.25,-17.12 264.25,-29.13 264.25,-29.13 264.25,-35.12 258.25,-41.12 252.25,-41.12"/>
<text text-anchor="middle" x="226.25" y="-26.38" font-family="Helvetica,sans-Serif" font-size="10.00">2. flutter run</text>
<text text-anchor="middle" x="226.25" y="-13.62" font-family="Helvetica,sans-Serif" font-size="10.00">&#45;&#45;debug</text>
</g>
<!-- d1&#45;&gt;d2 -->
<g id="edge1" class="edge">
<title>d1&#45;&gt;d2</title>
<path fill="none" stroke="#37474f" d="M84.23,-23.12C111.45,-23.12 147.57,-23.12 176.44,-23.12"/>
<polygon fill="#37474f" stroke="#37474f" points="176.4,-26.63 186.4,-23.13 176.4,-19.63 176.4,-26.63"/>
<text text-anchor="middle" x="130.12" y="-37.08" font-family="Helvetica,sans-Serif" font-size="9.00">save</text>
<text text-anchor="middle" x="130.12" y="-25.82" font-family="Helvetica,sans-Serif" font-size="9.00">+ hot&#45;reload</text>
</g>
<!-- d3 -->
<g id="node3" class="node">
<title>d3</title>
<path fill="#80deea" stroke="#006064" stroke-width="2" d="M444.5,-46.25C444.5,-46.25 373.75,-46.25 373.75,-46.25 367.75,-46.25 361.75,-40.25 361.75,-34.25 361.75,-34.25 361.75,-12 361.75,-12 361.75,-6 367.75,0 373.75,0 373.75,0 444.5,0 444.5,0 450.5,0 456.5,-6 456.5,-12 456.5,-12 456.5,-34.25 456.5,-34.25 456.5,-40.25 450.5,-46.25 444.5,-46.25"/>
<text text-anchor="middle" x="409.12" y="-32.75" font-family="Helvetica,sans-Serif" font-size="10.00">3. Marionette</text>
<text text-anchor="middle" x="409.12" y="-20" font-family="Helvetica,sans-Serif" font-size="10.00">get_interactive_</text>
<text text-anchor="middle" x="409.12" y="-7.25" font-family="Helvetica,sans-Serif" font-size="10.00">elements()</text>
</g>
<!-- d2&#45;&gt;d3 -->
<g id="edge2" class="edge">
<title>d2&#45;&gt;d3</title>
<path fill="none" stroke="#37474f" d="M264.73,-23.12C289.28,-23.12 321.88,-23.12 349.79,-23.12"/>
<polygon fill="#37474f" stroke="#37474f" points="349.51,-26.63 359.51,-23.13 349.51,-19.63 349.51,-26.63"/>
<text text-anchor="middle" x="319" y="-37.08" font-family="Helvetica,sans-Serif" font-size="9.00">VM Service</text>
<text text-anchor="middle" x="319" y="-25.82" font-family="Helvetica,sans-Serif" font-size="9.00">attach</text>
</g>
<!-- d4 -->
<g id="node4" class="node">
<title>d4</title>
<path fill="#a5d6a7" stroke="#1b5e20" d="M654,-80.12C654,-80.12 558.5,-80.12 558.5,-80.12 552.5,-80.12 546.5,-74.12 546.5,-68.12 546.5,-68.12 546.5,-56.12 546.5,-56.12 546.5,-50.12 552.5,-44.12 558.5,-44.12 558.5,-44.12 654,-44.12 654,-44.12 660,-44.12 666,-50.12 666,-56.12 666,-56.12 666,-68.12 666,-68.12 666,-74.12 660,-80.12 654,-80.12"/>
<text text-anchor="middle" x="606.25" y="-65.38" font-family="Helvetica,sans-Serif" font-size="10.00">4. discover</text>
<text text-anchor="middle" x="606.25" y="-52.62" font-family="Helvetica,sans-Serif" font-size="10.00">ValueKey(&#39;login_btn&#39;)</text>
</g>
<!-- d3&#45;&gt;d4 -->
<g id="edge3" class="edge">
<title>d3&#45;&gt;d4</title>
<path fill="none" stroke="#37474f" d="M457.36,-32.57C480.64,-37.22 509.2,-42.93 534.98,-48.08"/>
<polygon fill="#37474f" stroke="#37474f" points="534.25,-51.5 544.74,-50.03 535.62,-44.64 534.25,-51.5"/>
<text text-anchor="middle" x="501.5" y="-60.07" font-family="Helvetica,sans-Serif" font-size="9.00">tree.json</text>
<text text-anchor="middle" x="501.5" y="-48.82" font-family="Helvetica,sans-Serif" font-size="9.00">docs/cache/</text>
</g>
<!-- d5 -->
<g id="node5" class="node">
<title>d5</title>
<path fill="#80deea" stroke="#006064" d="M847,-94.25C847,-94.25 762,-94.25 762,-94.25 756,-94.25 750,-88.25 750,-82.25 750,-82.25 750,-60 750,-60 750,-54 756,-48 762,-48 762,-48 847,-48 847,-48 853,-48 859,-54 859,-60 859,-60 859,-82.25 859,-82.25 859,-88.25 853,-94.25 847,-94.25"/>
<text text-anchor="middle" x="804.5" y="-80.75" font-family="Helvetica,sans-Serif" font-size="10.00">5. translate to</text>
<text text-anchor="middle" x="804.5" y="-68" font-family="Helvetica,sans-Serif" font-size="10.00">Patrol case</text>
<text text-anchor="middle" x="804.5" y="-55.25" font-family="Helvetica,sans-Serif" font-size="10.00">(integration_test/*)</text>
</g>
<!-- d4&#45;&gt;d5 -->
<g id="edge4" class="edge">
<title>d4&#45;&gt;d5</title>
<path fill="none" stroke="#37474f" d="M666.4,-64.84C689.19,-65.88 715.33,-67.08 738.64,-68.15"/>
<polygon fill="#37474f" stroke="#37474f" points="738.16,-71.63 748.31,-68.59 738.48,-64.64 738.16,-71.63"/>
<text text-anchor="middle" x="708" y="-81.65" font-family="Helvetica,sans-Serif" font-size="9.00">copy key</text>
<text text-anchor="middle" x="708" y="-70.4" font-family="Helvetica,sans-Serif" font-size="9.00">as selector</text>
</g>
<!-- d6 -->
<g id="node6" class="node">
<title>d6</title>
<path fill="#ffe0b2" stroke="#e65100" d="M1044.5,-80.12C1044.5,-80.12 958,-80.12 958,-80.12 952,-80.12 946,-74.12 946,-68.12 946,-68.12 946,-56.12 946,-56.12 946,-50.12 952,-44.12 958,-44.12 958,-44.12 1044.5,-44.12 1044.5,-44.12 1050.5,-44.12 1056.5,-50.12 1056.5,-56.12 1056.5,-56.12 1056.5,-68.12 1056.5,-68.12 1056.5,-74.12 1050.5,-80.12 1044.5,-80.12"/>
<text text-anchor="middle" x="1001.25" y="-65.38" font-family="Helvetica,sans-Serif" font-size="10.00">6. cargo build</text>
<text text-anchor="middle" x="1001.25" y="-52.62" font-family="Helvetica,sans-Serif" font-size="10.00">(planning_daemon)</text>
</g>
<!-- d5&#45;&gt;d6 -->
<g id="edge5" class="edge">
<title>d5&#45;&gt;d6</title>
<path fill="none" stroke="#37474f" d="M859.49,-68.63C882.72,-67.56 910.08,-66.29 934.48,-65.16"/>
<polygon fill="#37474f" stroke="#37474f" points="934.48,-68.67 944.3,-64.71 934.15,-61.68 934.48,-68.67"/>
<text text-anchor="middle" x="902.5" y="-81.65" font-family="Helvetica,sans-Serif" font-size="9.00">cargo build</text>
<text text-anchor="middle" x="902.5" y="-70.4" font-family="Helvetica,sans-Serif" font-size="9.00">&#45;&#45;release</text>
</g>
<!-- d7 -->
<g id="node7" class="node">
<title>d7</title>
<path fill="#66bb6a" stroke="#1b5e20" stroke-width="2" d="M1266,-41.12C1266,-41.12 1156.25,-41.12 1156.25,-41.12 1150.25,-41.12 1144.25,-35.12 1144.25,-29.12 1144.25,-29.12 1144.25,-17.12 1144.25,-17.12 1144.25,-11.12 1150.25,-5.12 1156.25,-5.12 1156.25,-5.12 1266,-5.12 1266,-5.12 1272,-5.12 1278,-11.12 1278,-17.12 1278,-17.12 1278,-29.13 1278,-29.13 1278,-35.12 1272,-41.12 1266,-41.12"/>
<text text-anchor="middle" x="1211.12" y="-26.38" font-family="Helvetica,sans-Serif" font-size="10.00" fill="white">7. cargo test &#45;&#45;test</text>
<text text-anchor="middle" x="1211.12" y="-13.62" font-family="Helvetica,sans-Serif" font-size="10.00" fill="white">dispatcher_registry_test</text>
</g>
<!-- d6&#45;&gt;d7 -->
<g id="edge6" class="edge">
<title>d6&#45;&gt;d7</title>
<path fill="none" stroke="#37474f" d="M1056.87,-51.88C1079.82,-47.57 1106.94,-42.48 1131.95,-37.79"/>
<polygon fill="#37474f" stroke="#37474f" points="1132.59,-41.23 1141.77,-35.95 1131.3,-34.35 1132.59,-41.23"/>
<text text-anchor="middle" x="1100.38" y="-51.1" font-family="Helvetica,sans-Serif" font-size="9.00">green build</text>
</g>
<!-- d7&#45;&gt;d3 -->
<g id="edge9" class="edge">
<title>d7&#45;&gt;d3</title>
<path fill="none" stroke="#b71c1c" stroke-dasharray="5,2" d="M1143.29,-15.36C1102.58,-11.28 1049.49,-7.13 1002.25,-7.12 605.25,-7.12 605.25,-7.12 605.25,-7.12 559.16,-7.13 507.14,-11.61 468.41,-15.84"/>
<polygon fill="#b71c1c" stroke="#b71c1c" points="468.4,-12.32 458.86,-16.91 469.18,-19.27 468.4,-12.32"/>
<text text-anchor="middle" x="804.5" y="-21.07" font-family="Helvetica,sans-Serif" font-size="9.00" fill="#b71c1c">test fails →</text>
<text text-anchor="middle" x="804.5" y="-9.82" font-family="Helvetica,sans-Serif" font-size="9.00" fill="#b71c1c">rediscover</text>
</g>
<!-- d8 -->
<g id="node8" class="node">
<title>d8</title>
<path fill="#ce93d8" stroke="#4a148c" d="M1408.75,-41.12C1408.75,-41.12 1367.25,-41.12 1367.25,-41.12 1361.25,-41.12 1355.25,-35.12 1355.25,-29.12 1355.25,-29.12 1355.25,-17.12 1355.25,-17.12 1355.25,-11.12 1361.25,-5.12 1367.25,-5.12 1367.25,-5.12 1408.75,-5.12 1408.75,-5.12 1414.75,-5.12 1420.75,-11.12 1420.75,-17.12 1420.75,-17.12 1420.75,-29.13 1420.75,-29.13 1420.75,-35.12 1414.75,-41.12 1408.75,-41.12"/>
<text text-anchor="middle" x="1388" y="-26.38" font-family="Helvetica,sans-Serif" font-size="10.00">8. commit</text>
<text text-anchor="middle" x="1388" y="-13.62" font-family="Helvetica,sans-Serif" font-size="10.00">ICP v2.0</text>
</g>
<!-- d7&#45;&gt;d8 -->
<g id="edge7" class="edge">
<title>d7&#45;&gt;d8</title>
<path fill="none" stroke="#37474f" d="M1278.74,-23.12C1300.42,-23.12 1323.92,-23.12 1343.46,-23.12"/>
<polygon fill="#37474f" stroke="#37474f" points="1343.26,-26.63 1353.26,-23.13 1343.26,-19.63 1343.26,-26.63"/>
<text text-anchor="middle" x="1316.62" y="-37.08" font-family="Helvetica,sans-Serif" font-size="9.00">0 failures</text>
<text text-anchor="middle" x="1316.62" y="-25.82" font-family="Helvetica,sans-Serif" font-size="9.00">git add</text>
</g>
<!-- d9 -->
<g id="node9" class="node">
<title>d9</title>
<path fill="#d1c4e9" stroke="#4527a0" d="M1615.25,-41.12C1615.25,-41.12 1518.25,-41.12 1518.25,-41.12 1512.25,-41.12 1506.25,-35.12 1506.25,-29.12 1506.25,-29.12 1506.25,-17.12 1506.25,-17.12 1506.25,-11.12 1512.25,-5.12 1518.25,-5.12 1518.25,-5.12 1615.25,-5.12 1615.25,-5.12 1621.25,-5.12 1627.25,-11.12 1627.25,-17.12 1627.25,-17.12 1627.25,-29.13 1627.25,-29.13 1627.25,-35.12 1621.25,-41.12 1615.25,-41.12"/>
<text text-anchor="middle" x="1566.75" y="-26.38" font-family="Helvetica,sans-Serif" font-size="10.00">9. push</text>
<text text-anchor="middle" x="1566.75" y="-13.62" font-family="Helvetica,sans-Serif" font-size="10.00">multiverse/&lt;branch&gt;</text>
</g>
<!-- d8&#45;&gt;d9 -->
<g id="edge8" class="edge">
<title>d8&#45;&gt;d9</title>
<path fill="none" stroke="#37474f" d="M1421.01,-23.12C1441.63,-23.12 1469.29,-23.12 1494.9,-23.12"/>
<polygon fill="#37474f" stroke="#37474f" points="1494.59,-26.63 1504.59,-23.13 1494.59,-19.63 1494.59,-26.63"/>
<text text-anchor="middle" x="1463.5" y="-25.82" font-family="Helvetica,sans-Serif" font-size="9.00">git push &#45;u</text>
</g>
<!-- lg_y -->
<g id="node10" class="node">
<title>lg_y</title>
<path fill="#fff9c4" stroke="#1565c0" d="M58,-148.12C58,-148.12 28,-148.12 28,-148.12 22,-148.12 16,-142.12 16,-136.12 16,-136.12 16,-124.12 16,-124.12 16,-118.12 22,-112.12 28,-112.12 28,-112.12 58,-112.12 58,-112.12 64,-112.12 70,-118.12 70,-124.12 70,-124.12 70,-136.12 70,-136.12 70,-142.12 64,-148.12 58,-148.12"/>
<text text-anchor="middle" x="43" y="-127" font-family="Helvetica,sans-Serif" font-size="10.00">edit</text>
</g>
<!-- lg_t -->
<g id="node11" class="node">
<title>lg_t</title>
<path fill="#80deea" stroke="#1565c0" d="M264.25,-148.12C264.25,-148.12 188.25,-148.12 188.25,-148.12 182.25,-148.12 176.25,-142.12 176.25,-136.12 176.25,-136.12 176.25,-124.12 176.25,-124.12 176.25,-118.12 182.25,-112.12 188.25,-112.12 188.25,-112.12 264.25,-112.12 264.25,-112.12 270.25,-112.12 276.25,-118.12 276.25,-124.12 276.25,-124.12 276.25,-136.12 276.25,-136.12 276.25,-142.12 270.25,-148.12 264.25,-148.12"/>
<text text-anchor="middle" x="226.25" y="-127" font-family="Helvetica,sans-Serif" font-size="10.00">Marionette/Patrol</text>
</g>
<!-- lg_y&#45;&gt;lg_t -->
<!-- lg_o -->
<g id="node12" class="node">
<title>lg_o</title>
<path fill="#ffe0b2" stroke="#1565c0" d="M432.12,-148.12C432.12,-148.12 386.12,-148.12 386.12,-148.12 380.12,-148.12 374.12,-142.12 374.12,-136.12 374.12,-136.12 374.12,-124.12 374.12,-124.12 374.12,-118.12 380.12,-112.12 386.12,-112.12 386.12,-112.12 432.12,-112.12 432.12,-112.12 438.12,-112.12 444.12,-118.12 444.12,-124.12 444.12,-124.12 444.12,-136.12 444.12,-136.12 444.12,-142.12 438.12,-148.12 432.12,-148.12"/>
<text text-anchor="middle" x="409.12" y="-127" font-family="Helvetica,sans-Serif" font-size="10.00">cargo build</text>
</g>
<!-- lg_t&#45;&gt;lg_o -->
<!-- lg_g -->
<g id="node13" class="node">
<title>lg_g</title>
<path fill="#66bb6a" stroke="#1565c0" d="M639.38,-148.12C639.38,-148.12 573.12,-148.12 573.12,-148.12 567.12,-148.12 561.12,-142.12 561.12,-136.12 561.12,-136.12 561.12,-124.12 561.12,-124.12 561.12,-118.12 567.12,-112.12 573.12,-112.12 573.12,-112.12 639.38,-112.12 639.38,-112.12 645.38,-112.12 651.38,-118.12 651.38,-124.12 651.38,-124.12 651.38,-136.12 651.38,-136.12 651.38,-142.12 645.38,-148.12 639.38,-148.12"/>
<text text-anchor="middle" x="606.25" y="-127" font-family="Helvetica,sans-Serif" font-size="10.00" fill="white">cargo test pass</text>
</g>
<!-- lg_o&#45;&gt;lg_g -->
<!-- lg_v -->
<g id="node14" class="node">
<title>lg_v</title>
<path fill="#d1c4e9" stroke="#1565c0" d="M832.38,-148.12C832.38,-148.12 776.62,-148.12 776.62,-148.12 770.62,-148.12 764.62,-142.12 764.62,-136.12 764.62,-136.12 764.62,-124.12 764.62,-124.12 764.62,-118.12 770.62,-112.12 776.62,-112.12 776.62,-112.12 832.38,-112.12 832.38,-112.12 838.38,-112.12 844.38,-118.12 844.38,-124.12 844.38,-124.12 844.38,-136.12 844.38,-136.12 844.38,-142.12 838.38,-148.12 832.38,-148.12"/>
<text text-anchor="middle" x="804.5" y="-127" font-family="Helvetica,sans-Serif" font-size="10.00">commit/push</text>
</g>
<!-- lg_g&#45;&gt;lg_v -->
</g>
</svg>
