<?xml version="1.0" encoding="UTF-8" standalone="no"?>
<!DOCTYPE svg PUBLIC "-//W3C//DTD SVG 1.1//EN"
 "http://www.w3.org/Graphics/SVG/1.1/DTD/svg11.dtd">
<!-- Generated by graphviz version 12.2.1 (0)
 -->
<!-- Title: G21FractalSymbiosisL0L7 Pages: 1 -->
<svg width="5464pt" height="409pt"
 viewBox="0.00 0.00 5464.00 409.25" xmlns="http://www.w3.org/2000/svg" xmlns:xlink="http://www.w3.org/1999/xlink">
<g id="graph0" class="graph" transform="scale(1 1) rotate(0) translate(4 405.25)">
<title>G21FractalSymbiosisL0L7</title>
<polygon fill="#fafafa" stroke="none" points="-4,4 -4,-405.25 5460,-405.25 5460,4 -4,4"/>
<text text-anchor="middle" x="2728" y="-383" font-family="Helvetica,sans-Serif" font-size="15.00">G21 — Fractal Symbiosis L0–L7 × Components (color&#45;coded by Pass touched: 9 purple, 10 yellow, 11 green, 12 blue)</text>
<g id="clust10" class="cluster">
<title>cluster_legend</title>
<path fill="#f5f5f5" stroke="#9e9e9e" d="M5192,-8C5192,-8 5436,-8 5436,-8 5442,-8 5448,-14 5448,-20 5448,-20 5448,-355.25 5448,-355.25 5448,-361.25 5442,-367.25 5436,-367.25 5436,-367.25 5192,-367.25 5192,-367.25 5186,-367.25 5180,-361.25 5180,-355.25 5180,-355.25 5180,-20 5180,-20 5180,-14 5186,-8 5192,-8"/>
<text text-anchor="middle" x="5314" y="-354.7" font-family="Helvetica,sans-Serif" font-size="9.00">Legend — color = which Pass primarily touched the cell</text>
</g>
<!-- hL -->
<g id="node1" class="node">
<title>hL</title>
<path fill="#37474f" stroke="black" stroke-width="2" d="M42,-340C42,-340 12,-340 12,-340 6,-340 0,-334 0,-328 0,-328 0,-316 0,-316 0,-310 6,-304 12,-304 12,-304 42,-304 42,-304 48,-304 54,-310 54,-316 54,-316 54,-328 54,-328 54,-334 48,-340 42,-340"/>
<text text-anchor="middle" x="27" y="-318.88" font-family="Helvetica,sans-Serif" font-size="10.00" fill="white">Layer</text>
</g>
<!-- hC1 -->
<g id="node2" class="node">
<title>hC1</title>
<path fill="#37474f" stroke="black" d="M142,-340C142,-340 84,-340 84,-340 78,-340 72,-334 72,-328 72,-328 72,-316 72,-316 72,-310 78,-304 84,-304 84,-304 142,-304 142,-304 148,-304 154,-310 154,-316 154,-316 154,-328 154,-328 154,-334 148,-340 142,-340"/>
<text text-anchor="middle" x="113" y="-318.88" font-family="Helvetica,sans-Serif" font-size="10.00" fill="white">Component A</text>
</g>
<!-- hC2 -->
<g id="node3" class="node">
<title>hC2</title>
<path fill="#37474f" stroke="black" d="M242,-340C242,-340 184,-340 184,-340 178,-340 172,-334 172,-328 172,-328 172,-316 172,-316 172,-310 178,-304 184,-304 184,-304 242,-304 242,-304 248,-304 254,-310 254,-316 254,-316 254,-328 254,-328 254,-334 248,-340 242,-340"/>
<text text-anchor="middle" x="213" y="-318.88" font-family="Helvetica,sans-Serif" font-size="10.00" fill="white">Component B</text>
</g>
<!-- hC3 -->
<g id="node4" class="node">
<title>hC3</title>
<path fill="#37474f" stroke="black" d="M342,-340C342,-340 284,-340 284,-340 278,-340 272,-334 272,-328 272,-328 272,-316 272,-316 272,-310 278,-304 284,-304 284,-304 342,-304 342,-304 348,-304 354,-310 354,-316 354,-316 354,-328 354,-328 354,-334 348,-340 342,-340"/>
<text text-anchor="middle" x="313" y="-318.88" font-family="Helvetica,sans-Serif" font-size="10.00" fill="white">Component C</text>
</g>
<!-- hC4 -->
<g id="node5" class="node">
<title>hC4</title>
<path fill="#37474f" stroke="black" d="M442.38,-340C442.38,-340 383.62,-340 383.62,-340 377.62,-340 371.62,-334 371.62,-328 371.62,-328 371.62,-316 371.62,-316 371.62,-310 377.62,-304 383.62,-304 383.62,-304 442.38,-304 442.38,-304 448.38,-304 454.38,-310 454.38,-316 454.38,-316 454.38,-328 454.38,-328 454.38,-334 448.38,-340 442.38,-340"/>
<text text-anchor="middle" x="413" y="-318.88" font-family="Helvetica,sans-Serif" font-size="10.00" fill="white">Component D</text>
</g>
<!-- hC5 -->
<g id="node6" class="node">
<title>hC5</title>
<path fill="#37474f" stroke="black" d="M541.62,-340C541.62,-340 484.38,-340 484.38,-340 478.38,-340 472.38,-334 472.38,-328 472.38,-328 472.38,-316 472.38,-316 472.38,-310 478.38,-304 484.38,-304 484.38,-304 541.62,-304 541.62,-304 547.62,-304 553.62,-310 553.62,-316 553.62,-316 553.62,-328 553.62,-328 553.62,-334 547.62,-340 541.62,-340"/>
<text text-anchor="middle" x="513" y="-318.88" font-family="Helvetica,sans-Serif" font-size="10.00" fill="white">Component E</text>
</g>
<!-- l0 -->
<g id="node7" class="node">
<title>l0</title>
<path fill="#cfd8dc" stroke="black" stroke-width="2" d="M658.25,-340C658.25,-340 583.75,-340 583.75,-340 577.75,-340 571.75,-334 571.75,-328 571.75,-328 571.75,-316 571.75,-316 571.75,-310 577.75,-304 583.75,-304 583.75,-304 658.25,-304 658.25,-304 664.25,-304 670.25,-310 670.25,-316 670.25,-316 670.25,-328 670.25,-328 670.25,-334 664.25,-340 658.25,-340"/>
<text text-anchor="middle" x="621" y="-318.88" font-family="Helvetica,sans-Serif" font-size="10.00">L0 Constitutional</text>
</g>
<!-- l0a -->
<g id="node8" class="node">
<title>l0a</title>
<path fill="#a5d6a7" stroke="black" d="M761.5,-340C761.5,-340 700.5,-340 700.5,-340 694.5,-340 688.5,-334 688.5,-328 688.5,-328 688.5,-316 688.5,-316 688.5,-310 694.5,-304 700.5,-304 700.5,-304 761.5,-304 761.5,-304 767.5,-304 773.5,-310 773.5,-316 773.5,-316 773.5,-328 773.5,-328 773.5,-334 767.5,-340 761.5,-340"/>
<text text-anchor="middle" x="731" y="-318.88" font-family="Helvetica,sans-Serif" font-size="10.00">Guardian gate</text>
</g>
<!-- l0b -->
<g id="node9" class="node">
<title>l0b</title>
<path fill="#bbdefb" stroke="black" d="M862,-340C862,-340 804,-340 804,-340 798,-340 792,-334 792,-328 792,-328 792,-316 792,-316 792,-310 798,-304 804,-304 804,-304 862,-304 862,-304 868,-304 874,-310 874,-316 874,-316 874,-328 874,-328 874,-334 868,-340 862,-340"/>
<text text-anchor="middle" x="833" y="-318.88" font-family="Helvetica,sans-Serif" font-size="10.00">Psi invariants</text>
</g>
<!-- l0c -->
<g id="node10" class="node">
<title>l0c</title>
<path fill="#a5d6a7" stroke="black" d="M938.38,-340C938.38,-340 903.62,-340 903.62,-340 897.62,-340 891.62,-334 891.62,-328 891.62,-328 891.62,-316 891.62,-316 891.62,-310 897.62,-304 903.62,-304 903.62,-304 938.38,-304 938.38,-304 944.38,-304 950.38,-310 950.38,-316 950.38,-316 950.38,-328 950.38,-328 950.38,-334 944.38,-340 938.38,-340"/>
<text text-anchor="middle" x="921" y="-318.88" font-family="Helvetica,sans-Serif" font-size="10.00">audit log</text>
</g>
<!-- l0d -->
<g id="node11" class="node">
<title>l0d</title>
<path fill="#bbdefb" stroke="black" d="M1051.75,-340C1051.75,-340 980.25,-340 980.25,-340 974.25,-340 968.25,-334 968.25,-328 968.25,-328 968.25,-316 968.25,-316 968.25,-310 974.25,-304 980.25,-304 980.25,-304 1051.75,-304 1051.75,-304 1057.75,-304 1063.75,-310 1063.75,-316 1063.75,-316 1063.75,-328 1063.75,-328 1063.75,-334 1057.75,-340 1051.75,-340"/>
<text text-anchor="middle" x="1016" y="-318.88" font-family="Helvetica,sans-Serif" font-size="10.00">tool_gate Zenoh</text>
</g>
<!-- l0e -->
<g id="node12" class="node">
<title>l0e</title>
<path fill="#eeeeee" stroke="black" d="M1143.88,-340C1143.88,-340 1094.12,-340 1094.12,-340 1088.12,-340 1082.12,-334 1082.12,-328 1082.12,-328 1082.12,-316 1082.12,-316 1082.12,-310 1088.12,-304 1094.12,-304 1094.12,-304 1143.88,-304 1143.88,-304 1149.88,-304 1155.88,-310 1155.88,-316 1155.88,-316 1155.88,-328 1155.88,-328 1155.88,-334 1149.88,-340 1143.88,-340"/>
<text text-anchor="middle" x="1119" y="-318.88" font-family="Helvetica,sans-Serif" font-size="10.00">2oo3 voting</text>
</g>
<!-- l1 -->
<g id="node13" class="node">
<title>l1</title>
<path fill="#cfd8dc" stroke="black" stroke-width="2" d="M1246.12,-340C1246.12,-340 1185.88,-340 1185.88,-340 1179.88,-340 1173.88,-334 1173.88,-328 1173.88,-328 1173.88,-316 1173.88,-316 1173.88,-310 1179.88,-304 1185.88,-304 1185.88,-304 1246.12,-304 1246.12,-304 1252.12,-304 1258.12,-310 1258.12,-316 1258.12,-316 1258.12,-328 1258.12,-328 1258.12,-334 1252.12,-340 1246.12,-340"/>
<text text-anchor="middle" x="1216" y="-318.88" font-family="Helvetica,sans-Serif" font-size="10.00">L1 Atomic/NIF</text>
</g>
<!-- l1a -->
<g id="node14" class="node">
<title>l1a</title>
<path fill="#ce93d8" stroke="black" d="M1331.5,-340C1331.5,-340 1288.5,-340 1288.5,-340 1282.5,-340 1276.5,-334 1276.5,-328 1276.5,-328 1276.5,-316 1276.5,-316 1276.5,-310 1282.5,-304 1288.5,-304 1288.5,-304 1331.5,-304 1331.5,-304 1337.5,-304 1343.5,-310 1343.5,-316 1343.5,-316 1343.5,-328 1343.5,-328 1343.5,-334 1337.5,-340 1331.5,-340"/>
<text text-anchor="middle" x="1310" y="-318.88" font-family="Helvetica,sans-Serif" font-size="10.00">spawn NIF</text>
</g>
<!-- l1b -->
<g id="node15" class="node">
<title>l1b</title>
<path fill="#a5d6a7" stroke="black" d="M1406.25,-340C1406.25,-340 1373.75,-340 1373.75,-340 1367.75,-340 1361.75,-334 1361.75,-328 1361.75,-328 1361.75,-316 1361.75,-316 1361.75,-310 1367.75,-304 1373.75,-304 1373.75,-304 1406.25,-304 1406.25,-304 1412.25,-304 1418.25,-310 1418.25,-316 1418.25,-316 1418.25,-328 1418.25,-328 1418.25,-334 1412.25,-340 1406.25,-340"/>
<text text-anchor="middle" x="1390" y="-318.88" font-family="Helvetica,sans-Serif" font-size="10.00">OTel NIF</text>
</g>
<!-- l1c -->
<g id="node16" class="node">
<title>l1c</title>
<path fill="#a5d6a7" stroke="black" d="M1491.5,-340C1491.5,-340 1448.5,-340 1448.5,-340 1442.5,-340 1436.5,-334 1436.5,-328 1436.5,-328 1436.5,-316 1436.5,-316 1436.5,-310 1442.5,-304 1448.5,-304 1448.5,-304 1491.5,-304 1491.5,-304 1497.5,-304 1503.5,-310 1503.5,-316 1503.5,-316 1503.5,-328 1503.5,-328 1503.5,-334 1497.5,-340 1491.5,-340"/>
<text text-anchor="middle" x="1470" y="-318.88" font-family="Helvetica,sans-Serif" font-size="10.00">SQLite NIF</text>
</g>
<!-- l1d -->
<g id="node17" class="node">
<title>l1d</title>
<path fill="#a5d6a7" stroke="black" d="M1572.62,-340C1572.62,-340 1533.38,-340 1533.38,-340 1527.38,-340 1521.38,-334 1521.38,-328 1521.38,-328 1521.38,-316 1521.38,-316 1521.38,-310 1527.38,-304 1533.38,-304 1533.38,-304 1572.62,-304 1572.62,-304 1578.62,-304 1584.62,-310 1584.62,-316 1584.62,-316 1584.62,-328 1584.62,-328 1584.62,-334 1578.62,-340 1572.62,-340"/>
<text text-anchor="middle" x="1553" y="-318.88" font-family="Helvetica,sans-Serif" font-size="10.00">zenoh_nif</text>
</g>
<!-- l1e -->
<g id="node18" class="node">
<title>l1e</title>
<path fill="#bbdefb" stroke="black" d="M1661.38,-340C1661.38,-340 1614.62,-340 1614.62,-340 1608.62,-340 1602.62,-334 1602.62,-328 1602.62,-328 1602.62,-316 1602.62,-316 1602.62,-310 1608.62,-304 1614.62,-304 1614.62,-304 1661.38,-304 1661.38,-304 1667.38,-304 1673.38,-310 1673.38,-316 1673.38,-316 1673.38,-328 1673.38,-328 1673.38,-334 1667.38,-340 1661.38,-340"/>
<text text-anchor="middle" x="1638" y="-325.25" font-family="Helvetica,sans-Serif" font-size="10.00">VM Service</text>
<text text-anchor="middle" x="1638" y="-312.5" font-family="Helvetica,sans-Serif" font-size="10.00">(dart)</text>
</g>
<!-- l2 -->
<g id="node19" class="node">
<title>l2</title>
<path fill="#cfd8dc" stroke="black" stroke-width="2" d="M1766.25,-340C1766.25,-340 1703.75,-340 1703.75,-340 1697.75,-340 1691.75,-334 1691.75,-328 1691.75,-328 1691.75,-316 1691.75,-316 1691.75,-310 1697.75,-304 1703.75,-304 1703.75,-304 1766.25,-304 1766.25,-304 1772.25,-304 1778.25,-310 1778.25,-316 1778.25,-316 1778.25,-328 1778.25,-328 1778.25,-334 1772.25,-340 1766.25,-340"/>
<text text-anchor="middle" x="1735" y="-318.88" font-family="Helvetica,sans-Serif" font-size="10.00">L2 Component</text>
</g>
<!-- l2a -->
<g id="node20" class="node">
<title>l2a</title>
<path fill="#fff59d" stroke="black" d="M1865.62,-340C1865.62,-340 1808.38,-340 1808.38,-340 1802.38,-340 1796.38,-334 1796.38,-328 1796.38,-328 1796.38,-316 1796.38,-316 1796.38,-310 1802.38,-304 1808.38,-304 1808.38,-304 1865.62,-304 1865.62,-304 1871.62,-304 1877.62,-310 1877.62,-316 1877.62,-316 1877.62,-328 1877.62,-328 1877.62,-334 1871.62,-340 1865.62,-340"/>
<text text-anchor="middle" x="1837" y="-318.88" font-family="Helvetica,sans-Serif" font-size="10.00">oban schema</text>
</g>
<!-- l2b -->
<g id="node21" class="node">
<title>l2b</title>
<path fill="#ce93d8" stroke="black" d="M1942,-340C1942,-340 1908,-340 1908,-340 1902,-340 1896,-334 1896,-328 1896,-328 1896,-316 1896,-316 1896,-310 1902,-304 1908,-304 1908,-304 1942,-304 1942,-304 1948,-304 1954,-310 1954,-316 1954,-316 1954,-328 1954,-328 1954,-334 1948,-340 1942,-340"/>
<text text-anchor="middle" x="1925" y="-318.88" font-family="Helvetica,sans-Serif" font-size="10.00">RunSpec</text>
</g>
<!-- l2c -->
<g id="node22" class="node">
<title>l2c</title>
<path fill="#a5d6a7" stroke="black" d="M2045.5,-340C2045.5,-340 1984.5,-340 1984.5,-340 1978.5,-340 1972.5,-334 1972.5,-328 1972.5,-328 1972.5,-316 1972.5,-316 1972.5,-310 1978.5,-304 1984.5,-304 1984.5,-304 2045.5,-304 2045.5,-304 2051.5,-304 2057.5,-310 2057.5,-316 2057.5,-316 2057.5,-328 2057.5,-328 2057.5,-334 2051.5,-340 2045.5,-340"/>
<text text-anchor="middle" x="2015" y="-318.88" font-family="Helvetica,sans-Serif" font-size="10.00">OTel envelope</text>
</g>
<!-- l2d -->
<g id="node23" class="node">
<title>l2d</title>
<path fill="#a5d6a7" stroke="black" d="M2142.12,-340C2142.12,-340 2087.88,-340 2087.88,-340 2081.88,-340 2075.88,-334 2075.88,-328 2075.88,-328 2075.88,-316 2075.88,-316 2075.88,-310 2081.88,-304 2087.88,-304 2087.88,-304 2142.12,-304 2142.12,-304 2148.12,-304 2154.12,-310 2154.12,-316 2154.12,-316 2154.12,-328 2154.12,-328 2154.12,-334 2148.12,-340 2142.12,-340"/>
<text text-anchor="middle" x="2115" y="-318.88" font-family="Helvetica,sans-Serif" font-size="10.00">A2UI catalog</text>
</g>
<!-- l2e -->
<g id="node24" class="node">
<title>l2e</title>
<path fill="#bbdefb" stroke="black" d="M2245.88,-340C2245.88,-340 2184.12,-340 2184.12,-340 2178.12,-340 2172.12,-334 2172.12,-328 2172.12,-328 2172.12,-316 2172.12,-316 2172.12,-310 2178.12,-304 2184.12,-304 2184.12,-304 2245.88,-304 2245.88,-304 2251.88,-304 2257.88,-310 2257.88,-316 2257.88,-316 2257.88,-328 2257.88,-328 2257.88,-334 2251.88,-340 2245.88,-340"/>
<text text-anchor="middle" x="2215" y="-318.88" font-family="Helvetica,sans-Serif" font-size="10.00">MarionetteCfg</text>
</g>
<!-- l3 -->
<g id="node25" class="node">
<title>l3</title>
<path fill="#cfd8dc" stroke="black" stroke-width="2" d="M2349.88,-340C2349.88,-340 2288.12,-340 2288.12,-340 2282.12,-340 2276.12,-334 2276.12,-328 2276.12,-328 2276.12,-316 2276.12,-316 2276.12,-310 2282.12,-304 2288.12,-304 2288.12,-304 2349.88,-304 2349.88,-304 2355.88,-304 2361.88,-310 2361.88,-316 2361.88,-316 2361.88,-328 2361.88,-328 2361.88,-334 2355.88,-340 2349.88,-340"/>
<text text-anchor="middle" x="2319" y="-318.88" font-family="Helvetica,sans-Serif" font-size="10.00">L3 Transaction</text>
</g>
<!-- l3a -->
<g id="node26" class="node">
<title>l3a</title>
<path fill="#fff59d" stroke="black" d="M2456,-340C2456,-340 2392,-340 2392,-340 2386,-340 2380,-334 2380,-328 2380,-328 2380,-316 2380,-316 2380,-310 2386,-304 2392,-304 2392,-304 2456,-304 2456,-304 2462,-304 2468,-310 2468,-316 2468,-316 2468,-328 2468,-328 2468,-334 2462,-340 2456,-340"/>
<text text-anchor="middle" x="2424" y="-325.25" font-family="Helvetica,sans-Serif" font-size="10.00">claim txn</text>
<text text-anchor="middle" x="2424" y="-312.5" font-family="Helvetica,sans-Serif" font-size="10.00">(SKIP LOCKED)</text>
</g>
<!-- l3b -->
<g id="node27" class="node">
<title>l3b</title>
<path fill="#a5d6a7" stroke="black" d="M2533.75,-340C2533.75,-340 2498.25,-340 2498.25,-340 2492.25,-340 2486.25,-334 2486.25,-328 2486.25,-328 2486.25,-316 2486.25,-316 2486.25,-310 2492.25,-304 2498.25,-304 2498.25,-304 2533.75,-304 2533.75,-304 2539.75,-304 2545.75,-310 2545.75,-316 2545.75,-316 2545.75,-328 2545.75,-328 2545.75,-334 2539.75,-340 2533.75,-340"/>
<text text-anchor="middle" x="2516" y="-318.88" font-family="Helvetica,sans-Serif" font-size="10.00">state txn</text>
</g>
<!-- l3c -->
<g id="node28" class="node">
<title>l3c</title>
<path fill="#a5d6a7" stroke="black" d="M2629.75,-340C2629.75,-340 2576.25,-340 2576.25,-340 2570.25,-340 2564.25,-334 2564.25,-328 2564.25,-328 2564.25,-316 2564.25,-316 2564.25,-310 2570.25,-304 2576.25,-304 2576.25,-304 2629.75,-304 2629.75,-304 2635.75,-304 2641.75,-310 2641.75,-316 2641.75,-316 2641.75,-328 2641.75,-328 2641.75,-334 2635.75,-340 2629.75,-340"/>
<text text-anchor="middle" x="2603" y="-318.88" font-family="Helvetica,sans-Serif" font-size="10.00">WAL commit</text>
</g>
<!-- l3d -->
<g id="node29" class="node">
<title>l3d</title>
<path fill="#a5d6a7" stroke="black" d="M2716.25,-340C2716.25,-340 2671.75,-340 2671.75,-340 2665.75,-340 2659.75,-334 2659.75,-328 2659.75,-328 2659.75,-316 2659.75,-316 2659.75,-310 2665.75,-304 2671.75,-304 2671.75,-304 2716.25,-304 2716.25,-304 2722.25,-304 2728.25,-310 2728.25,-316 2728.25,-316 2728.25,-328 2728.25,-328 2728.25,-334 2722.25,-340 2716.25,-340"/>
<text text-anchor="middle" x="2694" y="-318.88" font-family="Helvetica,sans-Serif" font-size="10.00">span finish</text>
</g>
<!-- l3e -->
<g id="node30" class="node">
<title>l3e</title>
<path fill="#a5d6a7" stroke="black" d="M2811.38,-340C2811.38,-340 2758.62,-340 2758.62,-340 2752.62,-340 2746.62,-334 2746.62,-328 2746.62,-328 2746.62,-316 2746.62,-316 2746.62,-310 2752.62,-304 2758.62,-304 2758.62,-304 2811.38,-304 2811.38,-304 2817.38,-304 2823.38,-310 2823.38,-316 2823.38,-316 2823.38,-328 2823.38,-328 2823.38,-334 2817.38,-340 2811.38,-340"/>
<text text-anchor="middle" x="2785" y="-318.88" font-family="Helvetica,sans-Serif" font-size="10.00">trace persist</text>
</g>
<!-- l4 -->
<g id="node31" class="node">
<title>l4</title>
<path fill="#fff59d" stroke="#f57f17" stroke-width="3" d="M2966.75,-340C2966.75,-340 2853.25,-340 2853.25,-340 2847.25,-340 2841.25,-334 2841.25,-328 2841.25,-328 2841.25,-316 2841.25,-316 2841.25,-310 2847.25,-304 2853.25,-304 2853.25,-304 2966.75,-304 2966.75,-304 2972.75,-304 2978.75,-310 2978.75,-316 2978.75,-316 2978.75,-328 2978.75,-328 2978.75,-334 2972.75,-340 2966.75,-340"/>
<text text-anchor="middle" x="2910" y="-318.88" font-family="Helvetica,sans-Serif" font-size="10.00">L4 System ★Pass&#45;9..12★</text>
</g>
<!-- l4a -->
<g id="node32" class="node">
<title>l4a</title>
<path fill="#a5d6a7" stroke="black" stroke-width="2" d="M3069.5,-340C3069.5,-340 3008.5,-340 3008.5,-340 3002.5,-340 2996.5,-334 2996.5,-328 2996.5,-328 2996.5,-316 2996.5,-316 2996.5,-310 3002.5,-304 3008.5,-304 3008.5,-304 3069.5,-304 3069.5,-304 3075.5,-304 3081.5,-310 3081.5,-316 3081.5,-316 3081.5,-328 3081.5,-328 3081.5,-334 3075.5,-340 3069.5,-340"/>
<text text-anchor="middle" x="3039" y="-325.25" font-family="Helvetica,sans-Serif" font-size="10.00">scheduler&#45;tick</text>
<text text-anchor="middle" x="3039" y="-312.5" font-family="Helvetica,sans-Serif" font-size="10.00">(Pass&#45;11)</text>
</g>
<!-- l4b -->
<g id="node33" class="node">
<title>l4b</title>
<path fill="#a5d6a7" stroke="black" stroke-width="2" d="M3152.75,-340C3152.75,-340 3111.25,-340 3111.25,-340 3105.25,-340 3099.25,-334 3099.25,-328 3099.25,-328 3099.25,-316 3099.25,-316 3099.25,-310 3105.25,-304 3111.25,-304 3111.25,-304 3152.75,-304 3152.75,-304 3158.75,-304 3164.75,-310 3164.75,-316 3164.75,-316 3164.75,-328 3164.75,-328 3164.75,-334 3158.75,-340 3152.75,-340"/>
<text text-anchor="middle" x="3132" y="-325.25" font-family="Helvetica,sans-Serif" font-size="10.00">oban_jobs</text>
<text text-anchor="middle" x="3132" y="-312.5" font-family="Helvetica,sans-Serif" font-size="10.00">(Pass&#45;11)</text>
</g>
<!-- l4c -->
<g id="node34" class="node">
<title>l4c</title>
<path fill="#fff59d" stroke="#f57f17" stroke-width="3" d="M3272.75,-340C3272.75,-340 3195.25,-340 3195.25,-340 3189.25,-340 3183.25,-334 3183.25,-328 3183.25,-328 3183.25,-316 3183.25,-316 3183.25,-310 3189.25,-304 3195.25,-304 3195.25,-304 3272.75,-304 3272.75,-304 3278.75,-304 3284.75,-310 3284.75,-316 3284.75,-316 3284.75,-328 3284.75,-328 3284.75,-334 3278.75,-340 3272.75,-340"/>
<text text-anchor="middle" x="3234" y="-325.25" font-family="Helvetica,sans-Serif" font-size="10.00">workers::dispatch</text>
<text text-anchor="middle" x="3234" y="-312.5" font-family="Helvetica,sans-Serif" font-size="10.00">★Pass&#45;10★</text>
</g>
<!-- l4d -->
<g id="node35" class="node">
<title>l4d</title>
<path fill="#ce93d8" stroke="#4a148c" stroke-width="3" d="M3385,-340C3385,-340 3315,-340 3315,-340 3309,-340 3303,-334 3303,-328 3303,-328 3303,-316 3303,-316 3303,-310 3309,-304 3315,-304 3315,-304 3385,-304 3385,-304 3391,-304 3397,-310 3397,-316 3397,-316 3397,-328 3397,-328 3397,-334 3391,-340 3385,-340"/>
<text text-anchor="middle" x="3350" y="-325.25" font-family="Helvetica,sans-Serif" font-size="10.00">process_runner</text>
<text text-anchor="middle" x="3350" y="-312.5" font-family="Helvetica,sans-Serif" font-size="10.00">★Pass&#45;9 join()★</text>
</g>
<!-- l4e -->
<g id="node36" class="node">
<title>l4e</title>
<path fill="#a5d6a7" stroke="black" stroke-width="2" d="M3494.88,-340C3494.88,-340 3427.12,-340 3427.12,-340 3421.12,-340 3415.12,-334 3415.12,-328 3415.12,-328 3415.12,-316 3415.12,-316 3415.12,-310 3421.12,-304 3427.12,-304 3427.12,-304 3494.88,-304 3494.88,-304 3500.88,-304 3506.88,-310 3506.88,-316 3506.88,-316 3506.88,-328 3506.88,-328 3506.88,-334 3500.88,-340 3494.88,-340"/>
<text text-anchor="middle" x="3461" y="-325.25" font-family="Helvetica,sans-Serif" font-size="10.00">Zenoh sched/**</text>
<text text-anchor="middle" x="3461" y="-312.5" font-family="Helvetica,sans-Serif" font-size="10.00">(Pass&#45;11)</text>
</g>
<!-- l5 -->
<g id="node37" class="node">
<title>l5</title>
<path fill="#cfd8dc" stroke="black" stroke-width="2" d="M3589.38,-340C3589.38,-340 3536.62,-340 3536.62,-340 3530.62,-340 3524.62,-334 3524.62,-328 3524.62,-328 3524.62,-316 3524.62,-316 3524.62,-310 3530.62,-304 3536.62,-304 3536.62,-304 3589.38,-304 3589.38,-304 3595.38,-304 3601.38,-310 3601.38,-316 3601.38,-316 3601.38,-328 3601.38,-328 3601.38,-334 3595.38,-340 3589.38,-340"/>
<text text-anchor="middle" x="3563" y="-318.88" font-family="Helvetica,sans-Serif" font-size="10.00">L5 Cognitive</text>
</g>
<!-- l5a -->
<g id="node38" class="node">
<title>l5a</title>
<path fill="#bbdefb" stroke="black" d="M3666.38,-340C3666.38,-340 3631.62,-340 3631.62,-340 3625.62,-340 3619.62,-334 3619.62,-328 3619.62,-328 3619.62,-316 3619.62,-316 3619.62,-310 3625.62,-304 3631.62,-304 3631.62,-304 3666.38,-304 3666.38,-304 3672.38,-304 3678.38,-310 3678.38,-316 3678.38,-316 3678.38,-328 3678.38,-328 3678.38,-334 3672.38,-340 3666.38,-340"/>
<text text-anchor="middle" x="3649" y="-318.88" font-family="Helvetica,sans-Serif" font-size="10.00">cortex.rs</text>
</g>
<!-- l5b -->
<g id="node39" class="node">
<title>l5b</title>
<path fill="#bbdefb" stroke="black" d="M3763.5,-340C3763.5,-340 3708.5,-340 3708.5,-340 3702.5,-340 3696.5,-334 3696.5,-328 3696.5,-328 3696.5,-316 3696.5,-316 3696.5,-310 3702.5,-304 3708.5,-304 3708.5,-304 3763.5,-304 3763.5,-304 3769.5,-304 3775.5,-310 3775.5,-316 3775.5,-316 3775.5,-328 3775.5,-328 3775.5,-334 3769.5,-340 3763.5,-340"/>
<text text-anchor="middle" x="3736" y="-318.88" font-family="Helvetica,sans-Serif" font-size="10.00">RAG pipeline</text>
</g>
<!-- l5c -->
<g id="node40" class="node">
<title>l5c</title>
<path fill="#a5d6a7" stroke="black" d="M3866.12,-340C3866.12,-340 3805.88,-340 3805.88,-340 3799.88,-340 3793.88,-334 3793.88,-328 3793.88,-328 3793.88,-316 3793.88,-316 3793.88,-310 3799.88,-304 3805.88,-304 3805.88,-304 3866.12,-304 3866.12,-304 3872.12,-304 3878.12,-310 3878.12,-316 3878.12,-316 3878.12,-328 3878.12,-328 3878.12,-334 3872.12,-340 3866.12,-340"/>
<text text-anchor="middle" x="3836" y="-318.88" font-family="Helvetica,sans-Serif" font-size="10.00">RETE&#45;UL rules</text>
</g>
<!-- l5d -->
<g id="node41" class="node">
<title>l5d</title>
<path fill="#bbdefb" stroke="black" d="M3943.38,-340C3943.38,-340 3908.62,-340 3908.62,-340 3902.62,-340 3896.62,-334 3896.62,-328 3896.62,-328 3896.62,-316 3896.62,-316 3896.62,-310 3902.62,-304 3908.62,-304 3908.62,-304 3943.38,-304 3943.38,-304 3949.38,-304 3955.38,-310 3955.38,-316 3955.38,-316 3955.38,-328 3955.38,-328 3955.38,-334 3949.38,-340 3943.38,-340"/>
<text text-anchor="middle" x="3926" y="-318.88" font-family="Helvetica,sans-Serif" font-size="10.00">ruliology</text>
</g>
<!-- l5e -->
<g id="node42" class="node">
<title>l5e</title>
<path fill="#a5d6a7" stroke="black" d="M4046.5,-340C4046.5,-340 3985.5,-340 3985.5,-340 3979.5,-340 3973.5,-334 3973.5,-328 3973.5,-328 3973.5,-316 3973.5,-316 3973.5,-310 3979.5,-304 3985.5,-304 3985.5,-304 4046.5,-304 4046.5,-304 4052.5,-304 4058.5,-310 4058.5,-316 4058.5,-316 4058.5,-328 4058.5,-328 4058.5,-334 4052.5,-340 4046.5,-340"/>
<text text-anchor="middle" x="4016" y="-318.88" font-family="Helvetica,sans-Serif" font-size="10.00">OODA classify</text>
</g>
<!-- l6 -->
<g id="node43" class="node">
<title>l6</title>
<path fill="#cfd8dc" stroke="black" stroke-width="2" d="M4147.75,-340C4147.75,-340 4088.25,-340 4088.25,-340 4082.25,-340 4076.25,-334 4076.25,-328 4076.25,-328 4076.25,-316 4076.25,-316 4076.25,-310 4082.25,-304 4088.25,-304 4088.25,-304 4147.75,-304 4147.75,-304 4153.75,-304 4159.75,-310 4159.75,-316 4159.75,-316 4159.75,-328 4159.75,-328 4159.75,-334 4153.75,-340 4147.75,-340"/>
<text text-anchor="middle" x="4118" y="-318.88" font-family="Helvetica,sans-Serif" font-size="10.00">L6 Ecosystem</text>
</g>
<!-- l6a -->
<g id="node44" class="node">
<title>l6a</title>
<path fill="#bbdefb" stroke="black" d="M4260,-340C4260,-340 4190,-340 4190,-340 4184,-340 4178,-334 4178,-328 4178,-328 4178,-316 4178,-316 4178,-310 4184,-304 4190,-304 4190,-304 4260,-304 4260,-304 4266,-304 4272,-310 4272,-316 4272,-316 4272,-328 4272,-328 4272,-334 4266,-340 4260,-340"/>
<text text-anchor="middle" x="4225" y="-318.88" font-family="Helvetica,sans-Serif" font-size="10.00">Marionette MCP</text>
</g>
<!-- l6b -->
<g id="node45" class="node">
<title>l6b</title>
<path fill="#bbdefb" stroke="black" d="M4346.25,-340C4346.25,-340 4301.75,-340 4301.75,-340 4295.75,-340 4289.75,-334 4289.75,-328 4289.75,-328 4289.75,-316 4289.75,-316 4289.75,-310 4295.75,-304 4301.75,-304 4301.75,-304 4346.25,-304 4346.25,-304 4352.25,-304 4358.25,-310 4358.25,-316 4358.25,-316 4358.25,-328 4358.25,-328 4358.25,-334 4352.25,-340 4346.25,-340"/>
<text text-anchor="middle" x="4324" y="-318.88" font-family="Helvetica,sans-Serif" font-size="10.00">Patrol MCP</text>
</g>
<!-- l6c -->
<g id="node46" class="node">
<title>l6c</title>
<path fill="#bbdefb" stroke="black" d="M4461.88,-340C4461.88,-340 4388.12,-340 4388.12,-340 4382.12,-340 4376.12,-334 4376.12,-328 4376.12,-328 4376.12,-316 4376.12,-316 4376.12,-310 4382.12,-304 4388.12,-304 4388.12,-304 4461.88,-304 4461.88,-304 4467.88,-304 4473.88,-310 4473.88,-316 4473.88,-316 4473.88,-328 4473.88,-328 4473.88,-334 4467.88,-340 4461.88,-340"/>
<text text-anchor="middle" x="4425" y="-318.88" font-family="Helvetica,sans-Serif" font-size="10.00">dart_mcp_server</text>
</g>
<!-- l6d -->
<g id="node47" class="node">
<title>l6d</title>
<path fill="#a5d6a7" stroke="black" d="M4564.5,-340C4564.5,-340 4503.5,-340 4503.5,-340 4497.5,-340 4491.5,-334 4491.5,-328 4491.5,-328 4491.5,-316 4491.5,-316 4491.5,-310 4497.5,-304 4503.5,-304 4503.5,-304 4564.5,-304 4564.5,-304 4570.5,-304 4576.5,-310 4576.5,-316 4576.5,-316 4576.5,-328 4576.5,-328 4576.5,-334 4570.5,-340 4564.5,-340"/>
<text text-anchor="middle" x="4534" y="-318.88" font-family="Helvetica,sans-Serif" font-size="10.00">prajna cockpit</text>
</g>
<!-- l6e -->
<g id="node48" class="node">
<title>l6e</title>
<path fill="#a5d6a7" stroke="black" d="M4641,-340C4641,-340 4607,-340 4607,-340 4601,-340 4595,-334 4595,-328 4595,-328 4595,-316 4595,-316 4595,-310 4601,-304 4607,-304 4607,-304 4641,-304 4641,-304 4647,-304 4653,-310 4653,-316 4653,-316 4653,-328 4653,-328 4653,-334 4647,-340 4641,-340"/>
<text text-anchor="middle" x="4624" y="-318.88" font-family="Helvetica,sans-Serif" font-size="10.00">gateway</text>
</g>
<!-- l7 -->
<g id="node49" class="node">
<title>l7</title>
<path fill="#cfd8dc" stroke="black" stroke-width="2" d="M4741,-340C4741,-340 4683,-340 4683,-340 4677,-340 4671,-334 4671,-328 4671,-328 4671,-316 4671,-316 4671,-310 4677,-304 4683,-304 4683,-304 4741,-304 4741,-304 4747,-304 4753,-310 4753,-316 4753,-316 4753,-328 4753,-328 4753,-334 4747,-340 4741,-340"/>
<text text-anchor="middle" x="4712" y="-318.88" font-family="Helvetica,sans-Serif" font-size="10.00">L7 Federation</text>
</g>
<!-- l7a -->
<g id="node50" class="node">
<title>l7a</title>
<path fill="#a5d6a7" stroke="black" d="M4823,-340C4823,-340 4783,-340 4783,-340 4777,-340 4771,-334 4771,-328 4771,-328 4771,-316 4771,-316 4771,-310 4777,-304 4783,-304 4783,-304 4823,-304 4823,-304 4829,-304 4835,-310 4835,-316 4835,-316 4835,-328 4835,-328 4835,-334 4829,-340 4823,-340"/>
<text text-anchor="middle" x="4803" y="-325.25" font-family="Helvetica,sans-Serif" font-size="10.00">HA leader</text>
<text text-anchor="middle" x="4803" y="-312.5" font-family="Helvetica,sans-Serif" font-size="10.00">election</text>
</g>
<!-- l7b -->
<g id="node51" class="node">
<title>l7b</title>
<path fill="#eeeeee" stroke="black" d="M4904.62,-340C4904.62,-340 4865.38,-340 4865.38,-340 4859.38,-340 4853.38,-334 4853.38,-328 4853.38,-328 4853.38,-316 4853.38,-316 4853.38,-310 4859.38,-304 4865.38,-304 4865.38,-304 4904.62,-304 4904.62,-304 4910.62,-304 4916.62,-310 4916.62,-316 4916.62,-316 4916.62,-328 4916.62,-328 4916.62,-334 4910.62,-340 4904.62,-340"/>
<text text-anchor="middle" x="4885" y="-325.25" font-family="Helvetica,sans-Serif" font-size="10.00">federated</text>
<text text-anchor="middle" x="4885" y="-312.5" font-family="Helvetica,sans-Serif" font-size="10.00">oban</text>
</g>
<!-- l7c -->
<g id="node52" class="node">
<title>l7c</title>
<path fill="#eeeeee" stroke="black" d="M4985.62,-340C4985.62,-340 4946.38,-340 4946.38,-340 4940.38,-340 4934.38,-334 4934.38,-328 4934.38,-328 4934.38,-316 4934.38,-316 4934.38,-310 4940.38,-304 4946.38,-304 4946.38,-304 4985.62,-304 4985.62,-304 4991.62,-304 4997.62,-310 4997.62,-316 4997.62,-316 4997.62,-328 4997.62,-328 4997.62,-334 4991.62,-340 4985.62,-340"/>
<text text-anchor="middle" x="4966" y="-325.25" font-family="Helvetica,sans-Serif" font-size="10.00">federated</text>
<text text-anchor="middle" x="4966" y="-312.5" font-family="Helvetica,sans-Serif" font-size="10.00">dispatch</text>
</g>
<!-- l7d -->
<g id="node53" class="node">
<title>l7d</title>
<path fill="#bbdefb" stroke="black" d="M5077.88,-340C5077.88,-340 5028.12,-340 5028.12,-340 5022.12,-340 5016.12,-334 5016.12,-328 5016.12,-328 5016.12,-316 5016.12,-316 5016.12,-310 5022.12,-304 5028.12,-304 5028.12,-304 5077.88,-304 5077.88,-304 5083.88,-304 5089.88,-310 5089.88,-316 5089.88,-316 5089.88,-328 5089.88,-328 5089.88,-334 5083.88,-340 5077.88,-340"/>
<text text-anchor="middle" x="5053" y="-325.25" font-family="Helvetica,sans-Serif" font-size="10.00">cross&#45;realm</text>
<text text-anchor="middle" x="5053" y="-312.5" font-family="Helvetica,sans-Serif" font-size="10.00">MCP</text>
</g>
<!-- l7e -->
<g id="node54" class="node">
<title>l7e</title>
<path fill="#fff59d" stroke="black" d="M5159.62,-340C5159.62,-340 5120.38,-340 5120.38,-340 5114.38,-340 5108.38,-334 5108.38,-328 5108.38,-328 5108.38,-316 5108.38,-316 5108.38,-310 5114.38,-304 5120.38,-304 5120.38,-304 5159.62,-304 5159.62,-304 5165.62,-304 5171.62,-310 5171.62,-316 5171.62,-316 5171.62,-328 5171.62,-328 5171.62,-334 5165.62,-340 5159.62,-340"/>
<text text-anchor="middle" x="5140" y="-325.25" font-family="Helvetica,sans-Serif" font-size="10.00">federated</text>
<text text-anchor="middle" x="5140" y="-312.5" font-family="Helvetica,sans-Serif" font-size="10.00">OTel</text>
</g>
<!-- lg_p9 -->
<g id="node55" class="node">
<title>lg_p9</title>
<path fill="#ce93d8" stroke="black" d="M5378.62,-340C5378.62,-340 5249.38,-340 5249.38,-340 5243.38,-340 5237.38,-334 5237.38,-328 5237.38,-328 5237.38,-316 5237.38,-316 5237.38,-310 5243.38,-304 5249.38,-304 5249.38,-304 5378.62,-304 5378.62,-304 5384.62,-304 5390.62,-310 5390.62,-316 5390.62,-316 5390.62,-328 5390.62,-328 5390.62,-334 5384.62,-340 5378.62,-340"/>
<text text-anchor="middle" x="5314" y="-318.88" font-family="Helvetica,sans-Serif" font-size="10.00">Pass&#45;9 (process_runner join)</text>
</g>
<!-- lg_p10 -->
<g id="node56" class="node">
<title>lg_p10</title>
<path fill="#fff59d" stroke="black" d="M5374.88,-268C5374.88,-268 5253.12,-268 5253.12,-268 5247.12,-268 5241.12,-262 5241.12,-256 5241.12,-256 5241.12,-244 5241.12,-244 5241.12,-238 5247.12,-232 5253.12,-232 5253.12,-232 5374.88,-232 5374.88,-232 5380.88,-232 5386.88,-238 5386.88,-244 5386.88,-244 5386.88,-256 5386.88,-256 5386.88,-262 5380.88,-268 5374.88,-268"/>
<text text-anchor="middle" x="5314" y="-246.88" font-family="Helvetica,sans-Serif" font-size="10.00">Pass&#45;10 (dispatch registry)</text>
</g>
<!-- lg_p9&#45;&gt;lg_p10 -->
<!-- lg_p11 -->
<g id="node57" class="node">
<title>lg_p11</title>
<path fill="#a5d6a7" stroke="black" d="M5394,-196C5394,-196 5234,-196 5234,-196 5228,-196 5222,-190 5222,-184 5222,-184 5222,-172 5222,-172 5222,-166 5228,-160 5234,-160 5234,-160 5394,-160 5394,-160 5400,-160 5406,-166 5406,-172 5406,-172 5406,-184 5406,-184 5406,-190 5400,-196 5394,-196"/>
<text text-anchor="middle" x="5314" y="-174.88" font-family="Helvetica,sans-Serif" font-size="10.00">Pass&#45;11 (scheduler / oban / Zenoh)</text>
</g>
<!-- lg_p10&#45;&gt;lg_p11 -->
<!-- lg_p12 -->
<g id="node58" class="node">
<title>lg_p12</title>
<path fill="#bbdefb" stroke="black" d="M5391,-124C5391,-124 5237,-124 5237,-124 5231,-124 5225,-118 5225,-112 5225,-112 5225,-100 5225,-100 5225,-94 5231,-88 5237,-88 5237,-88 5391,-88 5391,-88 5397,-88 5403,-94 5403,-100 5403,-100 5403,-112 5403,-112 5403,-118 5397,-124 5391,-124"/>
<text text-anchor="middle" x="5314" y="-102.88" font-family="Helvetica,sans-Serif" font-size="10.00">Pass&#45;12 (this pass: docs/MCP/UX)</text>
</g>
<!-- lg_p11&#45;&gt;lg_p12 -->
<!-- lg_n -->
<g id="node59" class="node">
<title>lg_n</title>
<path fill="#eeeeee" stroke="black" d="M5354.62,-52C5354.62,-52 5273.38,-52 5273.38,-52 5267.38,-52 5261.38,-46 5261.38,-40 5261.38,-40 5261.38,-28 5261.38,-28 5261.38,-22 5267.38,-16 5273.38,-16 5273.38,-16 5354.62,-16 5354.62,-16 5360.62,-16 5366.62,-22 5366.62,-28 5366.62,-28 5366.62,-40 5366.62,-40 5366.62,-46 5360.62,-52 5354.62,-52"/>
<text text-anchor="middle" x="5314" y="-30.88" font-family="Helvetica,sans-Serif" font-size="10.00">untouched / future</text>
</g>
<!-- lg_p12&#45;&gt;lg_n -->
</g>
</svg>
