<?xml version="1.0" encoding="UTF-8" standalone="no"?>
<!DOCTYPE svg PUBLIC "-//W3C//DTD SVG 1.1//EN"
 "http://www.w3.org/Graphics/SVG/1.1/DTD/svg11.dtd">
<!-- Generated by graphviz version 12.2.1 (0)
 -->
<!-- Title: G22CPMCriticalPath Pages: 1 -->
<svg width="3874pt" height="182pt"
 viewBox="0.00 0.00 3874.00 182.12" xmlns="http://www.w3.org/2000/svg" xmlns:xlink="http://www.w3.org/1999/xlink">
<g id="graph0" class="graph" transform="scale(1 1) rotate(0) translate(4 178.12)">
<title>G22CPMCriticalPath</title>
<polygon fill="#fafafa" stroke="none" points="-4,4 -4,-178.12 3870,-178.12 3870,4 -4,4"/>
<text text-anchor="middle" x="1933" y="-155.88" font-family="Helvetica,sans-Serif" font-size="15.00">G22 — CPM Critical Path: 12 use&#45;case nodes, p95 = 1228 ms, slack = 172 ms (critical = red, slack = green)</text>
<g id="clust1" class="cluster">
<title>cluster_legend</title>
<path fill="#f5f5f5" stroke="#9e9e9e" d="M70,-67.12C70,-67.12 1044.75,-67.12 1044.75,-67.12 1050.75,-67.12 1056.75,-73.12 1056.75,-79.12 1056.75,-79.12 1056.75,-128.12 1056.75,-128.12 1056.75,-134.12 1050.75,-140.12 1044.75,-140.12 1044.75,-140.12 70,-140.12 70,-140.12 64,-140.12 58,-134.12 58,-128.12 58,-128.12 58,-79.12 58,-79.12 58,-73.12 64,-67.12 70,-67.12"/>
<text text-anchor="middle" x="557.38" y="-127.58" font-family="Helvetica,sans-Serif" font-size="9.00">Legend</text>
</g>
<!-- uc1 -->
<g id="node1" class="node">
<title>uc1</title>
<path fill="#ef9a9a" stroke="#b71c1c" stroke-width="2" d="M12,-21.12C12,-21.12 268,-21.12 268,-21.12 274,-21.12 280,-27.12 280,-33.12 280,-33.12 280,-45.12 280,-45.12 280,-51.12 274,-57.12 268,-57.12 268,-57.12 12,-57.12 12,-57.12 6,-57.12 0,-51.12 0,-45.12 0,-45.12 0,-33.12 0,-33.12 0,-27.12 6,-21.12 12,-21.12"/>
<text text-anchor="middle" x="42.5" y="-36.12" font-family="Helvetica,sans-Serif" font-size="10.00">UC&#45;1 cron tick</text>
<polyline fill="none" stroke="#b71c1c" stroke-width="2" points="85,-21.38 85,-57.12"/>
<text text-anchor="middle" x="124.12" y="-36.12" font-family="Helvetica,sans-Serif" font-size="10.00">EST 0 / EFT 5</text>
<polyline fill="none" stroke="#b71c1c" stroke-width="2" points="163.25,-21.38 163.25,-57.12"/>
<text text-anchor="middle" x="201.62" y="-36.12" font-family="Helvetica,sans-Serif" font-size="10.00">LST 0 / LFT 5</text>
<polyline fill="none" stroke="#b71c1c" stroke-width="2" points="240,-21.38 240,-57.12"/>
<text text-anchor="middle" x="260" y="-36.12" font-family="Helvetica,sans-Serif" font-size="10.00">5 ms</text>
</g>
<!-- uc2 -->
<g id="node2" class="node">
<title>uc2</title>
<path fill="#ef9a9a" stroke="#b71c1c" stroke-width="2" d="M339.25,-21.12C339.25,-21.12 547.25,-21.12 547.25,-21.12 553.25,-21.12 559.25,-27.12 559.25,-33.12 559.25,-33.12 559.25,-45.12 559.25,-45.12 559.25,-51.12 553.25,-57.12 547.25,-57.12 547.25,-57.12 339.25,-57.12 339.25,-57.12 333.25,-57.12 327.25,-51.12 327.25,-45.12 327.25,-45.12 327.25,-33.12 327.25,-33.12 327.25,-27.12 333.25,-21.12 339.25,-21.12"/>
<text text-anchor="middle" x="377.25" y="-36.12" font-family="Helvetica,sans-Serif" font-size="10.00">UC&#45;2 SELECT due</text>
<polyline fill="none" stroke="#b71c1c" stroke-width="2" points="427.25,-21.38 427.25,-57.12"/>
<text text-anchor="middle" x="448.75" y="-36.12" font-family="Helvetica,sans-Serif" font-size="10.00">5 / 18</text>
<polyline fill="none" stroke="#b71c1c" stroke-width="2" points="470.25,-21.38 470.25,-57.12"/>
<text text-anchor="middle" x="491.75" y="-36.12" font-family="Helvetica,sans-Serif" font-size="10.00">5 / 18</text>
<polyline fill="none" stroke="#b71c1c" stroke-width="2" points="513.25,-21.38 513.25,-57.12"/>
<text text-anchor="middle" x="536.25" y="-36.12" font-family="Helvetica,sans-Serif" font-size="10.00">13 ms</text>
</g>
<!-- uc1&#45;&gt;uc2 -->
<g id="edge1" class="edge">
<title>uc1&#45;&gt;uc2</title>
<path fill="none" stroke="#b71c1c" stroke-width="3" d="M280.6,-39.12C291.18,-39.12 301.84,-39.12 312.35,-39.12"/>
<polygon fill="#b71c1c" stroke="#b71c1c" stroke-width="3" points="312.05,-42.63 322.05,-39.13 312.05,-35.63 312.05,-42.63"/>
<text text-anchor="middle" x="303.62" y="-41.83" font-family="Helvetica,sans-Serif" font-size="9.00">cp</text>
</g>
<!-- uc3 -->
<g id="node3" class="node">
<title>uc3</title>
<path fill="#ef9a9a" stroke="#b71c1c" stroke-width="2" d="M618.5,-21.12C618.5,-21.12 834,-21.12 834,-21.12 840,-21.12 846,-27.12 846,-33.12 846,-33.12 846,-45.12 846,-45.12 846,-51.12 840,-57.12 834,-57.12 834,-57.12 618.5,-57.12 618.5,-57.12 612.5,-57.12 606.5,-51.12 606.5,-45.12 606.5,-45.12 606.5,-33.12 606.5,-33.12 606.5,-27.12 612.5,-21.12 618.5,-21.12"/>
<text text-anchor="middle" x="654.25" y="-36.12" font-family="Helvetica,sans-Serif" font-size="10.00">UC&#45;3 INSERT job</text>
<polyline fill="none" stroke="#b71c1c" stroke-width="2" points="702,-21.38 702,-57.12"/>
<text text-anchor="middle" x="726.5" y="-36.12" font-family="Helvetica,sans-Serif" font-size="10.00">18 / 35</text>
<polyline fill="none" stroke="#b71c1c" stroke-width="2" points="751,-21.38 751,-57.12"/>
<text text-anchor="middle" x="775.5" y="-36.12" font-family="Helvetica,sans-Serif" font-size="10.00">18 / 35</text>
<polyline fill="none" stroke="#b71c1c" stroke-width="2" points="800,-21.38 800,-57.12"/>
<text text-anchor="middle" x="823" y="-36.12" font-family="Helvetica,sans-Serif" font-size="10.00">17 ms</text>
</g>
<!-- uc2&#45;&gt;uc3 -->
<g id="edge2" class="edge">
<title>uc2&#45;&gt;uc3</title>
<path fill="none" stroke="#b71c1c" stroke-width="3" d="M560.17,-39.12C570.34,-39.12 580.69,-39.12 590.99,-39.12"/>
<polygon fill="#b71c1c" stroke="#b71c1c" stroke-width="3" points="590.97,-42.63 600.97,-39.13 590.97,-35.63 590.97,-42.63"/>
<text text-anchor="middle" x="582.88" y="-41.83" font-family="Helvetica,sans-Serif" font-size="9.00">cp</text>
</g>
<!-- uc4 -->
<g id="node4" class="node">
<title>uc4</title>
<path fill="#ef9a9a" stroke="#b71c1c" stroke-width="2" d="M905.25,-21.12C905.25,-21.12 1123.75,-21.12 1123.75,-21.12 1129.75,-21.12 1135.75,-27.12 1135.75,-33.12 1135.75,-33.12 1135.75,-45.12 1135.75,-45.12 1135.75,-51.12 1129.75,-57.12 1123.75,-57.12 1123.75,-57.12 905.25,-57.12 905.25,-57.12 899.25,-57.12 893.25,-51.12 893.25,-45.12 893.25,-45.12 893.25,-33.12 893.25,-33.12 893.25,-27.12 899.25,-21.12 905.25,-21.12"/>
<text text-anchor="middle" x="942.5" y="-36.12" font-family="Helvetica,sans-Serif" font-size="10.00">UC&#45;4 claim+lock</text>
<polyline fill="none" stroke="#b71c1c" stroke-width="2" points="991.75,-21.38 991.75,-57.12"/>
<text text-anchor="middle" x="1016.25" y="-36.12" font-family="Helvetica,sans-Serif" font-size="10.00">35 / 60</text>
<polyline fill="none" stroke="#b71c1c" stroke-width="2" points="1040.75,-21.38 1040.75,-57.12"/>
<text text-anchor="middle" x="1065.25" y="-36.12" font-family="Helvetica,sans-Serif" font-size="10.00">35 / 60</text>
<polyline fill="none" stroke="#b71c1c" stroke-width="2" points="1089.75,-21.38 1089.75,-57.12"/>
<text text-anchor="middle" x="1112.75" y="-36.12" font-family="Helvetica,sans-Serif" font-size="10.00">25 ms</text>
</g>
<!-- uc3&#45;&gt;uc4 -->
<g id="edge3" class="edge">
<title>uc3&#45;&gt;uc4</title>
<path fill="none" stroke="#b71c1c" stroke-width="3" d="M846.99,-39.12C857.19,-39.12 867.56,-39.12 877.88,-39.12"/>
<polygon fill="#b71c1c" stroke="#b71c1c" stroke-width="3" points="877.86,-42.63 887.86,-39.13 877.86,-35.63 877.86,-42.63"/>
<text text-anchor="middle" x="869.62" y="-41.83" font-family="Helvetica,sans-Serif" font-size="9.00">cp</text>
</g>
<!-- uc5 -->
<g id="node5" class="node">
<title>uc5</title>
<path fill="#fff59d" stroke="#f57f17" stroke-width="3" d="M1195,-21.12C1195,-21.12 1451.75,-21.12 1451.75,-21.12 1457.75,-21.12 1463.75,-27.12 1463.75,-33.12 1463.75,-33.12 1463.75,-45.12 1463.75,-45.12 1463.75,-51.12 1457.75,-57.12 1451.75,-57.12 1451.75,-57.12 1195,-57.12 1195,-57.12 1189,-57.12 1183,-51.12 1183,-45.12 1183,-45.12 1183,-33.12 1183,-33.12 1183,-27.12 1189,-21.12 1195,-21.12"/>
<text text-anchor="middle" x="1254.38" y="-36.12" font-family="Helvetica,sans-Serif" font-size="10.00">UC&#45;5 dispatch ★Pass&#45;10★</text>
<polyline fill="none" stroke="#f57f17" stroke-width="3" points="1325.75,-21.38 1325.75,-57.12"/>
<text text-anchor="middle" x="1350.25" y="-36.12" font-family="Helvetica,sans-Serif" font-size="10.00">60 / 65</text>
<polyline fill="none" stroke="#f57f17" stroke-width="3" points="1374.75,-21.38 1374.75,-57.12"/>
<text text-anchor="middle" x="1399.25" y="-36.12" font-family="Helvetica,sans-Serif" font-size="10.00">60 / 65</text>
<polyline fill="none" stroke="#f57f17" stroke-width="3" points="1423.75,-21.38 1423.75,-57.12"/>
<text text-anchor="middle" x="1443.75" y="-36.12" font-family="Helvetica,sans-Serif" font-size="10.00">5 ms</text>
</g>
<!-- uc4&#45;&gt;uc5 -->
<g id="edge4" class="edge">
<title>uc4&#45;&gt;uc5</title>
<path fill="none" stroke="#b71c1c" stroke-width="3" d="M1136.34,-39.12C1146.55,-39.12 1156.96,-39.12 1167.37,-39.12"/>
<polygon fill="#b71c1c" stroke="#b71c1c" stroke-width="3" points="1167.02,-42.63 1177.02,-39.13 1167.02,-35.63 1167.02,-42.63"/>
<text text-anchor="middle" x="1159.38" y="-41.83" font-family="Helvetica,sans-Serif" font-size="9.00">cp</text>
</g>
<!-- uc6 -->
<g id="node6" class="node">
<title>uc6</title>
<path fill="#ce93d8" stroke="#4a148c" stroke-width="3" d="M1523,-21.12C1523,-21.12 1847.25,-21.12 1847.25,-21.12 1853.25,-21.12 1859.25,-27.12 1859.25,-33.12 1859.25,-33.12 1859.25,-45.12 1859.25,-45.12 1859.25,-51.12 1853.25,-57.12 1847.25,-57.12 1847.25,-57.12 1523,-57.12 1523,-57.12 1517,-57.12 1511,-51.12 1511,-45.12 1511,-45.12 1511,-33.12 1511,-33.12 1511,-27.12 1517,-21.12 1523,-21.12"/>
<text text-anchor="middle" x="1613.12" y="-36.12" font-family="Helvetica,sans-Serif" font-size="10.00">UC&#45;6 process_runner spawn ★Pass&#45;9★</text>
<polyline fill="none" stroke="#4a148c" stroke-width="3" points="1715.25,-21.38 1715.25,-57.12"/>
<text text-anchor="middle" x="1739.75" y="-36.12" font-family="Helvetica,sans-Serif" font-size="10.00">65 / 90</text>
<polyline fill="none" stroke="#4a148c" stroke-width="3" points="1764.25,-21.38 1764.25,-57.12"/>
<text text-anchor="middle" x="1788.75" y="-36.12" font-family="Helvetica,sans-Serif" font-size="10.00">65 / 90</text>
<polyline fill="none" stroke="#4a148c" stroke-width="3" points="1813.25,-21.38 1813.25,-57.12"/>
<text text-anchor="middle" x="1836.25" y="-36.12" font-family="Helvetica,sans-Serif" font-size="10.00">25 ms</text>
</g>
<!-- uc5&#45;&gt;uc6 -->
<g id="edge5" class="edge">
<title>uc5&#45;&gt;uc6</title>
<path fill="none" stroke="#b71c1c" stroke-width="3" d="M1465.01,-39.12C1474.99,-39.12 1485.14,-39.12 1495.32,-39.12"/>
<polygon fill="#b71c1c" stroke="#b71c1c" stroke-width="3" points="1495.2,-42.63 1505.2,-39.13 1495.2,-35.63 1495.2,-42.63"/>
<text text-anchor="middle" x="1487.38" y="-41.83" font-family="Helvetica,sans-Serif" font-size="9.00">cp</text>
</g>
<!-- uc7 -->
<g id="node7" class="node">
<title>uc7</title>
<path fill="#ef9a9a" stroke="#b71c1c" stroke-width="2" d="M1918.5,-65.12C1918.5,-65.12 2262.25,-65.12 2262.25,-65.12 2268.25,-65.12 2274.25,-71.12 2274.25,-77.12 2274.25,-77.12 2274.25,-89.12 2274.25,-89.12 2274.25,-95.12 2268.25,-101.12 2262.25,-101.12 2262.25,-101.12 1918.5,-101.12 1918.5,-101.12 1912.5,-101.12 1906.5,-95.12 1906.5,-89.12 1906.5,-89.12 1906.5,-77.12 1906.5,-77.12 1906.5,-71.12 1912.5,-65.12 1918.5,-65.12"/>
<text text-anchor="middle" x="2000.38" y="-80.12" font-family="Helvetica,sans-Serif" font-size="10.00">UC&#45;7 gleam build/test (subprocess)</text>
<polyline fill="none" stroke="#b71c1c" stroke-width="2" points="2094.25,-65.38 2094.25,-101.12"/>
<text text-anchor="middle" x="2124.75" y="-80.12" font-family="Helvetica,sans-Serif" font-size="10.00">90 / 1090</text>
<polyline fill="none" stroke="#b71c1c" stroke-width="2" points="2155.25,-65.38 2155.25,-101.12"/>
<text text-anchor="middle" x="2185.75" y="-80.12" font-family="Helvetica,sans-Serif" font-size="10.00">90 / 1090</text>
<polyline fill="none" stroke="#b71c1c" stroke-width="2" points="2216.25,-65.38 2216.25,-101.12"/>
<text text-anchor="middle" x="2245.25" y="-80.12" font-family="Helvetica,sans-Serif" font-size="10.00">1000 ms</text>
</g>
<!-- uc6&#45;&gt;uc7 -->
<g id="edge6" class="edge">
<title>uc6&#45;&gt;uc7</title>
<path fill="none" stroke="#b71c1c" stroke-width="3" d="M1860.65,-58.17C1874.16,-59.64 1887.83,-61.13 1901.42,-62.62"/>
<polygon fill="#b71c1c" stroke="#b71c1c" stroke-width="3" points="1900.71,-66.06 1911.03,-63.66 1901.47,-59.1 1900.71,-66.06"/>
<text text-anchor="middle" x="1882.88" y="-63.83" font-family="Helvetica,sans-Serif" font-size="9.00">cp</text>
</g>
<!-- shift -->
<g id="node13" class="node">
<title>shift</title>
<polygon fill="#fff9c4" stroke="#f57f17" points="2217.25,-46.25 1957.5,-46.25 1957.5,0 2223.25,0 2223.25,-40.25 2217.25,-46.25"/>
<polyline fill="none" stroke="#f57f17" points="2217.25,-46.25 2217.25,-40.25"/>
<polyline fill="none" stroke="#f57f17" points="2223.25,-40.25 2217.25,-40.25"/>
<text text-anchor="middle" x="2090.38" y="-32.75" font-family="Helvetica,sans-Serif" font-size="10.00">Pass&#45;9 + Pass&#45;10 reduced UC&#45;5/UC&#45;6</text>
<text text-anchor="middle" x="2090.38" y="-20" font-family="Helvetica,sans-Serif" font-size="10.00">from (15ms+45ms broken) → (5ms+25ms healthy)</text>
<text text-anchor="middle" x="2090.38" y="-7.25" font-family="Helvetica,sans-Serif" font-size="10.00">→ p95 dropped from ~1268 to 1228 ms</text>
</g>
<!-- uc6&#45;&gt;shift -->
<g id="edge12" class="edge">
<title>uc6&#45;&gt;shift</title>
<path fill="none" stroke="#f57f17" stroke-dasharray="5,2" d="M1860.65,-32.2C1893.01,-30.92 1926.31,-29.6 1957.14,-28.37"/>
</g>
<!-- uc8 -->
<g id="node8" class="node">
<title>uc8</title>
<path fill="#ef9a9a" stroke="#b71c1c" stroke-width="2" d="M2333.5,-65.12C2333.5,-65.12 2627,-65.12 2627,-65.12 2633,-65.12 2639,-71.12 2639,-77.12 2639,-77.12 2639,-89.12 2639,-89.12 2639,-95.12 2633,-101.12 2627,-101.12 2627,-101.12 2333.5,-101.12 2333.5,-101.12 2327.5,-101.12 2321.5,-95.12 2321.5,-89.12 2321.5,-89.12 2321.5,-77.12 2321.5,-77.12 2321.5,-71.12 2327.5,-65.12 2333.5,-65.12"/>
<text text-anchor="middle" x="2384.25" y="-80.12" font-family="Helvetica,sans-Serif" font-size="10.00">UC&#45;8 outcome capture</text>
<polyline fill="none" stroke="#b71c1c" stroke-width="2" points="2447,-65.38 2447,-101.12"/>
<text text-anchor="middle" x="2483.5" y="-80.12" font-family="Helvetica,sans-Serif" font-size="10.00">1090 / 1110</text>
<polyline fill="none" stroke="#b71c1c" stroke-width="2" points="2520,-65.38 2520,-101.12"/>
<text text-anchor="middle" x="2556.5" y="-80.12" font-family="Helvetica,sans-Serif" font-size="10.00">1090 / 1110</text>
<polyline fill="none" stroke="#b71c1c" stroke-width="2" points="2593,-65.38 2593,-101.12"/>
<text text-anchor="middle" x="2616" y="-80.12" font-family="Helvetica,sans-Serif" font-size="10.00">20 ms</text>
</g>
<!-- uc7&#45;&gt;uc8 -->
<g id="edge7" class="edge">
<title>uc7&#45;&gt;uc8</title>
<path fill="none" stroke="#b71c1c" stroke-width="3" d="M2275.09,-83.12C2285.59,-83.12 2296.13,-83.12 2306.59,-83.12"/>
<polygon fill="#b71c1c" stroke="#b71c1c" stroke-width="3" points="2306.24,-86.63 2316.24,-83.13 2306.24,-79.63 2306.24,-86.63"/>
<text text-anchor="middle" x="2297.88" y="-85.83" font-family="Helvetica,sans-Serif" font-size="9.00">cp</text>
</g>
<!-- uc9 -->
<g id="node9" class="node">
<title>uc9</title>
<path fill="#ef9a9a" stroke="#b71c1c" stroke-width="2" d="M2698.25,-65.12C2698.25,-65.12 3007.5,-65.12 3007.5,-65.12 3013.5,-65.12 3019.5,-71.12 3019.5,-77.12 3019.5,-77.12 3019.5,-89.12 3019.5,-89.12 3019.5,-95.12 3013.5,-101.12 3007.5,-101.12 3007.5,-101.12 2698.25,-101.12 2698.25,-101.12 2692.25,-101.12 2686.25,-95.12 2686.25,-89.12 2686.25,-89.12 2686.25,-77.12 2686.25,-77.12 2686.25,-71.12 2692.25,-65.12 2698.25,-65.12"/>
<text text-anchor="middle" x="2759.88" y="-80.12" font-family="Helvetica,sans-Serif" font-size="10.00">UC&#45;9 Zenoh PUT proc/done</text>
<polyline fill="none" stroke="#b71c1c" stroke-width="2" points="2833.5,-65.38 2833.5,-101.12"/>
<text text-anchor="middle" x="2870" y="-80.12" font-family="Helvetica,sans-Serif" font-size="10.00">1110 / 1118</text>
<polyline fill="none" stroke="#b71c1c" stroke-width="2" points="2906.5,-65.38 2906.5,-101.12"/>
<text text-anchor="middle" x="2943" y="-80.12" font-family="Helvetica,sans-Serif" font-size="10.00">1110 / 1118</text>
<polyline fill="none" stroke="#b71c1c" stroke-width="2" points="2979.5,-65.38 2979.5,-101.12"/>
<text text-anchor="middle" x="2999.5" y="-80.12" font-family="Helvetica,sans-Serif" font-size="10.00">8 ms</text>
</g>
<!-- uc8&#45;&gt;uc9 -->
<g id="edge8" class="edge">
<title>uc8&#45;&gt;uc9</title>
<path fill="none" stroke="#b71c1c" stroke-width="3" d="M2639.77,-83.12C2650.18,-83.12 2660.7,-83.12 2671.21,-83.12"/>
<polygon fill="#b71c1c" stroke="#b71c1c" stroke-width="3" points="2670.96,-86.63 2680.96,-83.13 2670.96,-79.63 2670.96,-86.63"/>
<text text-anchor="middle" x="2662.62" y="-85.83" font-family="Helvetica,sans-Serif" font-size="9.00">cp</text>
</g>
<!-- uc10 -->
<g id="node10" class="node">
<title>uc10</title>
<path fill="#ef9a9a" stroke="#b71c1c" stroke-width="2" d="M3078.75,-65.12C3078.75,-65.12 3378.25,-65.12 3378.25,-65.12 3384.25,-65.12 3390.25,-71.12 3390.25,-77.12 3390.25,-77.12 3390.25,-89.12 3390.25,-89.12 3390.25,-95.12 3384.25,-101.12 3378.25,-101.12 3378.25,-101.12 3078.75,-101.12 3078.75,-101.12 3072.75,-101.12 3066.75,-95.12 3066.75,-89.12 3066.75,-89.12 3066.75,-77.12 3066.75,-77.12 3066.75,-71.12 3072.75,-65.12 3078.75,-65.12"/>
<text text-anchor="middle" x="3132.5" y="-80.12" font-family="Helvetica,sans-Serif" font-size="10.00">UC&#45;10 mark_completed</text>
<polyline fill="none" stroke="#b71c1c" stroke-width="2" points="3198.25,-65.38 3198.25,-101.12"/>
<text text-anchor="middle" x="3234.75" y="-80.12" font-family="Helvetica,sans-Serif" font-size="10.00">1118 / 1140</text>
<polyline fill="none" stroke="#b71c1c" stroke-width="2" points="3271.25,-65.38 3271.25,-101.12"/>
<text text-anchor="middle" x="3307.75" y="-80.12" font-family="Helvetica,sans-Serif" font-size="10.00">1118 / 1140</text>
<polyline fill="none" stroke="#b71c1c" stroke-width="2" points="3344.25,-65.38 3344.25,-101.12"/>
<text text-anchor="middle" x="3367.25" y="-80.12" font-family="Helvetica,sans-Serif" font-size="10.00">22 ms</text>
</g>
<!-- uc9&#45;&gt;uc10 -->
<g id="edge9" class="edge">
<title>uc9&#45;&gt;uc10</title>
<path fill="none" stroke="#b71c1c" stroke-width="3" d="M3020.47,-83.12C3030.72,-83.12 3041.06,-83.12 3051.35,-83.12"/>
<polygon fill="#b71c1c" stroke="#b71c1c" stroke-width="3" points="3051.31,-86.63 3061.31,-83.13 3051.31,-79.63 3051.31,-86.63"/>
<text text-anchor="middle" x="3043.12" y="-85.83" font-family="Helvetica,sans-Serif" font-size="9.00">cp</text>
</g>
<!-- uc11 -->
<g id="node11" class="node">
<title>uc11</title>
<path fill="#a5d6a7" stroke="#1b5e20" d="M3492.25,-93.12C3492.25,-93.12 3854,-93.12 3854,-93.12 3860,-93.12 3866,-99.12 3866,-105.12 3866,-105.12 3866,-117.12 3866,-117.12 3866,-123.12 3860,-129.12 3854,-129.12 3854,-129.12 3492.25,-129.12 3492.25,-129.12 3486.25,-129.12 3480.25,-123.12 3480.25,-117.12 3480.25,-117.12 3480.25,-105.12 3480.25,-105.12 3480.25,-99.12 3486.25,-93.12 3492.25,-93.12"/>
<text text-anchor="middle" x="3552.75" y="-108.12" font-family="Helvetica,sans-Serif" font-size="10.00">UC&#45;11 dashboard WS push</text>
<polyline fill="none" stroke="#1b5e20" points="3625.25,-93.38 3625.25,-129.12"/>
<text text-anchor="middle" x="3661.75" y="-108.12" font-family="Helvetica,sans-Serif" font-size="10.00">1140 / 1180</text>
<polyline fill="none" stroke="#1b5e20" points="3698.25,-93.38 3698.25,-129.12"/>
<text text-anchor="middle" x="3734.75" y="-108.12" font-family="Helvetica,sans-Serif" font-size="10.00">1180 / 1220</text>
<polyline fill="none" stroke="#1b5e20" points="3771.25,-93.38 3771.25,-129.12"/>
<text text-anchor="middle" x="3818.62" y="-108.12" font-family="Helvetica,sans-Serif" font-size="10.00">40 ms slack=40</text>
</g>
<!-- uc10&#45;&gt;uc11 -->
<g id="edge11" class="edge">
<title>uc10&#45;&gt;uc11</title>
<path fill="none" stroke="#1b5e20" stroke-width="2" stroke-dasharray="5,2" d="M3391.18,-93.35C3415.89,-94.92 3441.68,-96.55 3467.18,-98.16"/>
<polygon fill="#1b5e20" stroke="#1b5e20" stroke-width="2" points="3466.85,-101.65 3477.06,-98.79 3467.3,-94.66 3466.85,-101.65"/>
<text text-anchor="middle" x="3435.25" y="-99.83" font-family="Helvetica,sans-Serif" font-size="9.00">slack 40 ms</text>
</g>
<!-- uc12 -->
<g id="node12" class="node">
<title>uc12</title>
<path fill="#ef9a9a" stroke="#b71c1c" stroke-width="2" d="M3521.88,-38.12C3521.88,-38.12 3824.38,-38.12 3824.38,-38.12 3830.38,-38.12 3836.38,-44.12 3836.38,-50.12 3836.38,-50.12 3836.38,-62.12 3836.38,-62.12 3836.38,-68.12 3830.38,-74.12 3824.38,-74.12 3824.38,-74.12 3521.88,-74.12 3521.88,-74.12 3515.88,-74.12 3509.88,-68.12 3509.88,-62.12 3509.88,-62.12 3509.88,-50.12 3509.88,-50.12 3509.88,-44.12 3515.88,-38.12 3521.88,-38.12"/>
<text text-anchor="middle" x="3577.12" y="-53.12" font-family="Helvetica,sans-Serif" font-size="10.00">UC&#45;12 ZK ingest (async)</text>
<polyline fill="none" stroke="#b71c1c" stroke-width="2" points="3644.38,-38.38 3644.38,-74.12"/>
<text text-anchor="middle" x="3680.88" y="-53.12" font-family="Helvetica,sans-Serif" font-size="10.00">1140 / 1228</text>
<polyline fill="none" stroke="#b71c1c" stroke-width="2" points="3717.38,-38.38 3717.38,-74.12"/>
<text text-anchor="middle" x="3753.88" y="-53.12" font-family="Helvetica,sans-Serif" font-size="10.00">1140 / 1228</text>
<polyline fill="none" stroke="#b71c1c" stroke-width="2" points="3790.38,-38.38 3790.38,-74.12"/>
<text text-anchor="middle" x="3813.38" y="-53.12" font-family="Helvetica,sans-Serif" font-size="10.00">88 ms</text>
</g>
<!-- uc10&#45;&gt;uc12 -->
<g id="edge10" class="edge">
<title>uc10&#45;&gt;uc12</title>
<path fill="none" stroke="#b71c1c" stroke-width="3" d="M3391.18,-73.26C3424.93,-71.2 3460.68,-69.02 3494.96,-66.93"/>
<polygon fill="#b71c1c" stroke="#b71c1c" stroke-width="3" points="3494.73,-70.45 3504.5,-66.35 3494.31,-63.47 3494.73,-70.45"/>
<text text-anchor="middle" x="3435.25" y="-74.74" font-family="Helvetica,sans-Serif" font-size="9.00">cp</text>
</g>
<!-- lg_cp -->
<g id="node14" class="node">
<title>lg_cp</title>
<path fill="#ef9a9a" stroke="#b71c1c" d="M78,-76.12C78,-76.12 202,-76.12 202,-76.12 208,-76.12 214,-82.12 214,-88.12 214,-88.12 214,-100.12 214,-100.12 214,-106.12 208,-112.12 202,-112.12 202,-112.12 78,-112.12 78,-112.12 72,-112.12 66,-106.12 66,-100.12 66,-100.12 66,-88.12 66,-88.12 66,-82.12 72,-76.12 78,-76.12"/>
<text text-anchor="middle" x="140" y="-91.12" font-family="Helvetica,sans-Serif" font-size="10.00">CRITICAL PATH (zero slack)</text>
</g>
<!-- lg_sl -->
<g id="node15" class="node">
<title>lg_sl</title>
<path fill="#a5d6a7" stroke="#1b5e20" d="M385.38,-76.12C385.38,-76.12 501.12,-76.12 501.12,-76.12 507.12,-76.12 513.12,-82.12 513.12,-88.12 513.12,-88.12 513.12,-100.12 513.12,-100.12 513.12,-106.12 507.12,-112.12 501.12,-112.12 501.12,-112.12 385.38,-112.12 385.38,-112.12 379.38,-112.12 373.38,-106.12 373.38,-100.12 373.38,-100.12 373.38,-88.12 373.38,-88.12 373.38,-82.12 379.38,-76.12 385.38,-76.12"/>
<text text-anchor="middle" x="443.25" y="-91.12" font-family="Helvetica,sans-Serif" font-size="10.00">non&#45;critical (slack 40 ms)</text>
</g>
<!-- lg_cp&#45;&gt;lg_sl -->
<!-- lg_p9 -->
<g id="node16" class="node">
<title>lg_p9</title>
<path fill="#ce93d8" stroke="#1565c0" d="M707,-76.12C707,-76.12 745.5,-76.12 745.5,-76.12 751.5,-76.12 757.5,-82.12 757.5,-88.12 757.5,-88.12 757.5,-100.12 757.5,-100.12 757.5,-106.12 751.5,-112.12 745.5,-112.12 745.5,-112.12 707,-112.12 707,-112.12 701,-112.12 695,-106.12 695,-100.12 695,-100.12 695,-88.12 695,-88.12 695,-82.12 701,-76.12 707,-76.12"/>
<text text-anchor="middle" x="726.25" y="-91.12" font-family="Helvetica,sans-Serif" font-size="10.00">Pass&#45;9 fix</text>
</g>
<!-- lg_sl&#45;&gt;lg_p9 -->
<!-- lg_p10 -->
<g id="node17" class="node">
<title>lg_p10</title>
<path fill="#fff59d" stroke="#1565c0" d="M992.25,-76.12C992.25,-76.12 1036.75,-76.12 1036.75,-76.12 1042.75,-76.12 1048.75,-82.12 1048.75,-88.12 1048.75,-88.12 1048.75,-100.12 1048.75,-100.12 1048.75,-106.12 1042.75,-112.12 1036.75,-112.12 1036.75,-112.12 992.25,-112.12 992.25,-112.12 986.25,-112.12 980.25,-106.12 980.25,-100.12 980.25,-100.12 980.25,-88.12 980.25,-88.12 980.25,-82.12 986.25,-76.12 992.25,-76.12"/>
<text text-anchor="middle" x="1014.5" y="-91.12" font-family="Helvetica,sans-Serif" font-size="10.00">Pass&#45;10 fix</text>
</g>
<!-- lg_p9&#45;&gt;lg_p10 -->
</g>
</svg>
