<?xml version="1.0" encoding="UTF-8" standalone="no"?>
<!DOCTYPE svg PUBLIC "-//W3C//DTD SVG 1.1//EN"
 "http://www.w3.org/Graphics/SVG/1.1/DTD/svg11.dtd">
<!-- Generated by graphviz version 12.2.1 (0)
 -->
<!-- Title: G23_CPIG_Matrix Pages: 1 -->
<svg width="1029pt" height="992pt"
 viewBox="0.00 0.00 1029.00 992.00" xmlns="http://www.w3.org/2000/svg" xmlns:xlink="http://www.w3.org/1999/xlink">
<g id="graph0" class="graph" transform="scale(1 1) rotate(0) translate(4 988)">
<title>G23_CPIG_Matrix</title>
<polygon fill="#0a0e17" stroke="none" points="-4,4 -4,-988 1025,-988 1025,4 -4,4"/>
<text text-anchor="start" x="266.38" y="-965.8" font-family="Times,serif" font-weight="bold" font-size="16.00" fill="#00d4aa">G23 · CPIG 12&#45;Subsystem × 5&#45;Gate Heatmap (Pass 14)</text>
<text text-anchor="start" x="289.25" y="-955.5" font-family="Times,serif" font-size="10.00" fill="#7a8fa6">green=verified · red=missing · System CPIG: 55/60 (91.7%) · Δ from Pass 13: +19 gates</text>
<g id="clust1" class="cluster">
<title>cluster_header</title>
</g>
<!-- h_sub -->
<g id="node1" class="node">
<title>h_sub</title>
<path fill="#0e1420" stroke="#1e2a3a" d="M489,-900C489,-900 443,-900 443,-900 437,-900 431,-894 431,-888 431,-888 431,-876 431,-876 431,-870 437,-864 443,-864 443,-864 489,-864 489,-864 495,-864 501,-870 501,-876 501,-876 501,-888 501,-888 501,-894 495,-900 489,-900"/>
<text text-anchor="middle" x="466" y="-878.88" font-family="Helvetica,sans-Serif" font-size="10.00" fill="#00d4aa">Subsystem</text>
</g>
<!-- h_spec -->
<g id="node2" class="node">
<title>h_spec</title>
<path fill="#0e1420" stroke="#1e2a3a" d="M490,-828C490,-828 438,-828 438,-828 432,-828 426,-822 426,-816 426,-816 426,-804 426,-804 426,-798 432,-792 438,-792 438,-792 490,-792 490,-792 496,-792 502,-798 502,-804 502,-804 502,-816 502,-816 502,-822 496,-828 490,-828"/>
<text text-anchor="middle" x="464" y="-806.88" font-family="Helvetica,sans-Serif" font-size="10.00" fill="#00d4aa">Formal Spec</text>
</g>
<!-- h_sub&#45;&gt;h_spec -->
<!-- r1_sub -->
<g id="node7" class="node">
<title>r1_sub</title>
<path fill="#0e1420" stroke="#1e2a3a" d="M641.5,-828C641.5,-828 532.5,-828 532.5,-828 526.5,-828 520.5,-822 520.5,-816 520.5,-816 520.5,-804 520.5,-804 520.5,-798 526.5,-792 532.5,-792 532.5,-792 641.5,-792 641.5,-792 647.5,-792 653.5,-798 653.5,-804 653.5,-804 653.5,-816 653.5,-816 653.5,-822 647.5,-828 641.5,-828"/>
<text text-anchor="middle" x="587" y="-806.88" font-family="Helvetica,sans-Serif" font-size="10.00" fill="#3dd68c">★ sa&#45;plan&#45;daemon (5/5)</text>
</g>
<!-- h_sub&#45;&gt;r1_sub -->
<!-- h_wire -->
<g id="node3" class="node">
<title>h_wire</title>
<path fill="#0e1420" stroke="#1e2a3a" d="M491.88,-756C491.88,-756 436.12,-756 436.12,-756 430.12,-756 424.12,-750 424.12,-744 424.12,-744 424.12,-732 424.12,-732 424.12,-726 430.12,-720 436.12,-720 436.12,-720 491.88,-720 491.88,-720 497.88,-720 503.88,-726 503.88,-732 503.88,-732 503.88,-744 503.88,-744 503.88,-750 497.88,-756 491.88,-756"/>
<text text-anchor="middle" x="464" y="-734.88" font-family="Helvetica,sans-Serif" font-size="10.00" fill="#00d4aa">Wiring Guard</text>
</g>
<!-- h_spec&#45;&gt;h_wire -->
<!-- h_plan -->
<g id="node4" class="node">
<title>h_plan</title>
<path fill="#0e1420" stroke="#1e2a3a" d="M479,-684C479,-684 449,-684 449,-684 443,-684 437,-678 437,-672 437,-672 437,-660 437,-660 437,-654 443,-648 449,-648 449,-648 479,-648 479,-648 485,-648 491,-654 491,-660 491,-660 491,-672 491,-672 491,-678 485,-684 479,-684"/>
<text text-anchor="middle" x="464" y="-662.88" font-family="Helvetica,sans-Serif" font-size="10.00" fill="#00d4aa">sa&#45;plan</text>
</g>
<!-- h_wire&#45;&gt;h_plan -->
<!-- h_zk -->
<g id="node5" class="node">
<title>h_zk</title>
<path fill="#0e1420" stroke="#1e2a3a" d="M479,-612C479,-612 449,-612 449,-612 443,-612 437,-606 437,-600 437,-600 437,-588 437,-588 437,-582 443,-576 449,-576 449,-576 479,-576 479,-576 485,-576 491,-582 491,-588 491,-588 491,-600 491,-600 491,-606 485,-612 479,-612"/>
<text text-anchor="middle" x="464" y="-590.88" font-family="Helvetica,sans-Serif" font-size="10.00" fill="#00d4aa">ZK</text>
</g>
<!-- h_plan&#45;&gt;h_zk -->
<!-- h_mail -->
<g id="node6" class="node">
<title>h_mail</title>
<path fill="#0e1420" stroke="#1e2a3a" d="M479,-540C479,-540 449,-540 449,-540 443,-540 437,-534 437,-528 437,-528 437,-516 437,-516 437,-510 443,-504 449,-504 449,-504 479,-504 479,-504 485,-504 491,-510 491,-516 491,-516 491,-528 491,-528 491,-534 485,-540 479,-540"/>
<text text-anchor="middle" x="464" y="-518.88" font-family="Helvetica,sans-Serif" font-size="10.00" fill="#00d4aa">Email</text>
</g>
<!-- h_zk&#45;&gt;h_mail -->
<!-- r1_spec -->
<g id="node8" class="node">
<title>r1_spec</title>
<path fill="#3dd68c" stroke="#1e2a3a" d="M714,-828C714,-828 684,-828 684,-828 678,-828 672,-822 672,-816 672,-816 672,-804 672,-804 672,-798 678,-792 684,-792 684,-792 714,-792 714,-792 720,-792 726,-798 726,-804 726,-804 726,-816 726,-816 726,-822 720,-828 714,-828"/>
<text text-anchor="middle" x="699" y="-806.88" font-family="Helvetica,sans-Serif" font-size="10.00" fill="#0a0e17">✓</text>
</g>
<!-- r1_sub&#45;&gt;r1_spec -->
<!-- r2_sub -->
<g id="node13" class="node">
<title>r2_sub</title>
<path fill="#0e1420" stroke="#1e2a3a" d="M630.62,-756C630.62,-756 543.38,-756 543.38,-756 537.38,-756 531.38,-750 531.38,-744 531.38,-744 531.38,-732 531.38,-732 531.38,-726 537.38,-720 543.38,-720 543.38,-720 630.62,-720 630.62,-720 636.62,-720 642.62,-726 642.62,-732 642.62,-732 642.62,-744 642.62,-744 642.62,-750 636.62,-756 630.62,-756"/>
<text text-anchor="middle" x="587" y="-734.88" font-family="Helvetica,sans-Serif" font-size="10.00" fill="#3dd68c">★ Pi&#45;mono (5/5) +2</text>
</g>
<!-- r1_sub&#45;&gt;r2_sub -->
<!-- r1_wire -->
<g id="node9" class="node">
<title>r1_wire</title>
<path fill="#3dd68c" stroke="#1e2a3a" d="M786,-828C786,-828 756,-828 756,-828 750,-828 744,-822 744,-816 744,-816 744,-804 744,-804 744,-798 750,-792 756,-792 756,-792 786,-792 786,-792 792,-792 798,-798 798,-804 798,-804 798,-816 798,-816 798,-822 792,-828 786,-828"/>
<text text-anchor="middle" x="771" y="-806.88" font-family="Helvetica,sans-Serif" font-size="10.00" fill="#0a0e17">✓</text>
</g>
<!-- r1_spec&#45;&gt;r1_wire -->
<!-- r1_plan -->
<g id="node10" class="node">
<title>r1_plan</title>
<path fill="#3dd68c" stroke="#1e2a3a" d="M858,-828C858,-828 828,-828 828,-828 822,-828 816,-822 816,-816 816,-816 816,-804 816,-804 816,-798 822,-792 828,-792 828,-792 858,-792 858,-792 864,-792 870,-798 870,-804 870,-804 870,-816 870,-816 870,-822 864,-828 858,-828"/>
<text text-anchor="middle" x="843" y="-806.88" font-family="Helvetica,sans-Serif" font-size="10.00" fill="#0a0e17">✓</text>
</g>
<!-- r1_wire&#45;&gt;r1_plan -->
<!-- r1_zk -->
<g id="node11" class="node">
<title>r1_zk</title>
<path fill="#3dd68c" stroke="#1e2a3a" d="M930,-828C930,-828 900,-828 900,-828 894,-828 888,-822 888,-816 888,-816 888,-804 888,-804 888,-798 894,-792 900,-792 900,-792 930,-792 930,-792 936,-792 942,-798 942,-804 942,-804 942,-816 942,-816 942,-822 936,-828 930,-828"/>
<text text-anchor="middle" x="915" y="-806.88" font-family="Helvetica,sans-Serif" font-size="10.00" fill="#0a0e17">✓</text>
</g>
<!-- r1_plan&#45;&gt;r1_zk -->
<!-- r1_mail -->
<g id="node12" class="node">
<title>r1_mail</title>
<path fill="#3dd68c" stroke="#1e2a3a" d="M1002,-828C1002,-828 972,-828 972,-828 966,-828 960,-822 960,-816 960,-816 960,-804 960,-804 960,-798 966,-792 972,-792 972,-792 1002,-792 1002,-792 1008,-792 1014,-798 1014,-804 1014,-804 1014,-816 1014,-816 1014,-822 1008,-828 1002,-828"/>
<text text-anchor="middle" x="987" y="-806.88" font-family="Helvetica,sans-Serif" font-size="10.00" fill="#0a0e17">✓</text>
</g>
<!-- r1_zk&#45;&gt;r1_mail -->
<!-- r2_spec -->
<g id="node14" class="node">
<title>r2_spec</title>
<path fill="#3dd68c" stroke="#1e2a3a" d="M703,-756C703,-756 673,-756 673,-756 667,-756 661,-750 661,-744 661,-744 661,-732 661,-732 661,-726 667,-720 673,-720 673,-720 703,-720 703,-720 709,-720 715,-726 715,-732 715,-732 715,-744 715,-744 715,-750 709,-756 703,-756"/>
<text text-anchor="middle" x="688" y="-734.88" font-family="Helvetica,sans-Serif" font-size="10.00" fill="#0a0e17">✓</text>
</g>
<!-- r2_sub&#45;&gt;r2_spec -->
<!-- r3_sub -->
<g id="node19" class="node">
<title>r3_sub</title>
<path fill="#0e1420" stroke="#1e2a3a" d="M637.75,-684C637.75,-684 536.25,-684 536.25,-684 530.25,-684 524.25,-678 524.25,-672 524.25,-672 524.25,-660 524.25,-660 524.25,-654 530.25,-648 536.25,-648 536.25,-648 637.75,-648 637.75,-648 643.75,-648 649.75,-654 649.75,-660 649.75,-660 649.75,-672 649.75,-672 649.75,-678 643.75,-684 637.75,-684"/>
<text text-anchor="middle" x="587" y="-662.88" font-family="Helvetica,sans-Serif" font-size="10.00" fill="#3dd68c">★ Zenoh OTel (5/5) +3</text>
</g>
<!-- r2_sub&#45;&gt;r3_sub -->
<!-- r2_wire -->
<g id="node15" class="node">
<title>r2_wire</title>
<path fill="#3dd68c" stroke="#1e2a3a" d="M775,-756C775,-756 745,-756 745,-756 739,-756 733,-750 733,-744 733,-744 733,-732 733,-732 733,-726 739,-720 745,-720 745,-720 775,-720 775,-720 781,-720 787,-726 787,-732 787,-732 787,-744 787,-744 787,-750 781,-756 775,-756"/>
<text text-anchor="middle" x="760" y="-734.88" font-family="Helvetica,sans-Serif" font-size="10.00" fill="#0a0e17">✓</text>
</g>
<!-- r2_spec&#45;&gt;r2_wire -->
<!-- r2_plan -->
<g id="node16" class="node">
<title>r2_plan</title>
<path fill="#3dd68c" stroke="#1e2a3a" d="M847,-756C847,-756 817,-756 817,-756 811,-756 805,-750 805,-744 805,-744 805,-732 805,-732 805,-726 811,-720 817,-720 817,-720 847,-720 847,-720 853,-720 859,-726 859,-732 859,-732 859,-744 859,-744 859,-750 853,-756 847,-756"/>
<text text-anchor="middle" x="832" y="-734.88" font-family="Helvetica,sans-Serif" font-size="10.00" fill="#0a0e17">✓</text>
</g>
<!-- r2_wire&#45;&gt;r2_plan -->
<!-- r2_zk -->
<g id="node17" class="node">
<title>r2_zk</title>
<path fill="#3dd68c" stroke="#1e2a3a" d="M919,-756C919,-756 889,-756 889,-756 883,-756 877,-750 877,-744 877,-744 877,-732 877,-732 877,-726 883,-720 889,-720 889,-720 919,-720 919,-720 925,-720 931,-726 931,-732 931,-732 931,-744 931,-744 931,-750 925,-756 919,-756"/>
<text text-anchor="middle" x="904" y="-734.88" font-family="Helvetica,sans-Serif" font-size="10.00" fill="#0a0e17">✓</text>
</g>
<!-- r2_plan&#45;&gt;r2_zk -->
<!-- r2_mail -->
<g id="node18" class="node">
<title>r2_mail</title>
<path fill="#3dd68c" stroke="#1e2a3a" d="M991,-756C991,-756 961,-756 961,-756 955,-756 949,-750 949,-744 949,-744 949,-732 949,-732 949,-726 955,-720 961,-720 961,-720 991,-720 991,-720 997,-720 1003,-726 1003,-732 1003,-732 1003,-744 1003,-744 1003,-750 997,-756 991,-756"/>
<text text-anchor="middle" x="976" y="-734.88" font-family="Helvetica,sans-Serif" font-size="10.00" fill="#0a0e17">✓</text>
</g>
<!-- r2_zk&#45;&gt;r2_mail -->
<!-- r3_spec -->
<g id="node20" class="node">
<title>r3_spec</title>
<path fill="#3dd68c" stroke="#1e2a3a" d="M710,-684C710,-684 680,-684 680,-684 674,-684 668,-678 668,-672 668,-672 668,-660 668,-660 668,-654 674,-648 680,-648 680,-648 710,-648 710,-648 716,-648 722,-654 722,-660 722,-660 722,-672 722,-672 722,-678 716,-684 710,-684"/>
<text text-anchor="middle" x="695" y="-662.88" font-family="Helvetica,sans-Serif" font-size="10.00" fill="#0a0e17">✓</text>
</g>
<!-- r3_sub&#45;&gt;r3_spec -->
<!-- r4_sub -->
<g id="node25" class="node">
<title>r4_sub</title>
<path fill="#0e1420" stroke="#1e2a3a" d="M632.88,-612C632.88,-612 541.12,-612 541.12,-612 535.12,-612 529.12,-606 529.12,-600 529.12,-600 529.12,-588 529.12,-588 529.12,-582 535.12,-576 541.12,-576 541.12,-576 632.88,-576 632.88,-576 638.88,-576 644.88,-582 644.88,-588 644.88,-588 644.88,-600 644.88,-600 644.88,-606 638.88,-612 632.88,-612"/>
<text text-anchor="middle" x="587" y="-590.88" font-family="Helvetica,sans-Serif" font-size="10.00" fill="#3dd68c">★ FerrisKey (5/5) +4</text>
</g>
<!-- r3_sub&#45;&gt;r4_sub -->
<!-- r3_wire -->
<g id="node21" class="node">
<title>r3_wire</title>
<path fill="#3dd68c" stroke="#1e2a3a" d="M782,-684C782,-684 752,-684 752,-684 746,-684 740,-678 740,-672 740,-672 740,-660 740,-660 740,-654 746,-648 752,-648 752,-648 782,-648 782,-648 788,-648 794,-654 794,-660 794,-660 794,-672 794,-672 794,-678 788,-684 782,-684"/>
<text text-anchor="middle" x="767" y="-662.88" font-family="Helvetica,sans-Serif" font-size="10.00" fill="#0a0e17">✓</text>
</g>
<!-- r3_spec&#45;&gt;r3_wire -->
<!-- r3_plan -->
<g id="node22" class="node">
<title>r3_plan</title>
<path fill="#3dd68c" stroke="#1e2a3a" d="M854,-684C854,-684 824,-684 824,-684 818,-684 812,-678 812,-672 812,-672 812,-660 812,-660 812,-654 818,-648 824,-648 824,-648 854,-648 854,-648 860,-648 866,-654 866,-660 866,-660 866,-672 866,-672 866,-678 860,-684 854,-684"/>
<text text-anchor="middle" x="839" y="-662.88" font-family="Helvetica,sans-Serif" font-size="10.00" fill="#0a0e17">✓</text>
</g>
<!-- r3_wire&#45;&gt;r3_plan -->
<!-- r3_zk -->
<g id="node23" class="node">
<title>r3_zk</title>
<path fill="#3dd68c" stroke="#1e2a3a" d="M926,-684C926,-684 896,-684 896,-684 890,-684 884,-678 884,-672 884,-672 884,-660 884,-660 884,-654 890,-648 896,-648 896,-648 926,-648 926,-648 932,-648 938,-654 938,-660 938,-660 938,-672 938,-672 938,-678 932,-684 926,-684"/>
<text text-anchor="middle" x="911" y="-662.88" font-family="Helvetica,sans-Serif" font-size="10.00" fill="#0a0e17">✓</text>
</g>
<!-- r3_plan&#45;&gt;r3_zk -->
<!-- r3_mail -->
<g id="node24" class="node">
<title>r3_mail</title>
<path fill="#3dd68c" stroke="#1e2a3a" d="M998,-684C998,-684 968,-684 968,-684 962,-684 956,-678 956,-672 956,-672 956,-660 956,-660 956,-654 962,-648 968,-648 968,-648 998,-648 998,-648 1004,-648 1010,-654 1010,-660 1010,-660 1010,-672 1010,-672 1010,-678 1004,-684 998,-684"/>
<text text-anchor="middle" x="983" y="-662.88" font-family="Helvetica,sans-Serif" font-size="10.00" fill="#0a0e17">✓</text>
</g>
<!-- r3_zk&#45;&gt;r3_mail -->
<!-- r4_spec -->
<g id="node26" class="node">
<title>r4_spec</title>
<path fill="#3dd68c" stroke="#1e2a3a" d="M705,-612C705,-612 675,-612 675,-612 669,-612 663,-606 663,-600 663,-600 663,-588 663,-588 663,-582 669,-576 675,-576 675,-576 705,-576 705,-576 711,-576 717,-582 717,-588 717,-588 717,-600 717,-600 717,-606 711,-612 705,-612"/>
<text text-anchor="middle" x="690" y="-590.88" font-family="Helvetica,sans-Serif" font-size="10.00" fill="#0a0e17">✓</text>
</g>
<!-- r4_sub&#45;&gt;r4_spec -->
<!-- r5_sub -->
<g id="node31" class="node">
<title>r5_sub</title>
<path fill="#0e1420" stroke="#1e2a3a" d="M634.38,-540C634.38,-540 539.62,-540 539.62,-540 533.62,-540 527.62,-534 527.62,-528 527.62,-528 527.62,-516 527.62,-516 527.62,-510 533.62,-504 539.62,-504 539.62,-504 634.38,-504 634.38,-504 640.38,-504 646.38,-510 646.38,-516 646.38,-516 646.38,-528 646.38,-528 646.38,-534 640.38,-540 634.38,-540"/>
<text text-anchor="middle" x="587" y="-518.88" font-family="Helvetica,sans-Serif" font-size="10.00" fill="#3dd68c">★ F# CEPAF (5/5) +3</text>
</g>
<!-- r4_sub&#45;&gt;r5_sub -->
<!-- r4_wire -->
<g id="node27" class="node">
<title>r4_wire</title>
<path fill="#3dd68c" stroke="#1e2a3a" d="M777,-612C777,-612 747,-612 747,-612 741,-612 735,-606 735,-600 735,-600 735,-588 735,-588 735,-582 741,-576 747,-576 747,-576 777,-576 777,-576 783,-576 789,-582 789,-588 789,-588 789,-600 789,-600 789,-606 783,-612 777,-612"/>
<text text-anchor="middle" x="762" y="-590.88" font-family="Helvetica,sans-Serif" font-size="10.00" fill="#0a0e17">✓</text>
</g>
<!-- r4_spec&#45;&gt;r4_wire -->
<!-- r4_plan -->
<g id="node28" class="node">
<title>r4_plan</title>
<path fill="#3dd68c" stroke="#1e2a3a" d="M849,-612C849,-612 819,-612 819,-612 813,-612 807,-606 807,-600 807,-600 807,-588 807,-588 807,-582 813,-576 819,-576 819,-576 849,-576 849,-576 855,-576 861,-582 861,-588 861,-588 861,-600 861,-600 861,-606 855,-612 849,-612"/>
<text text-anchor="middle" x="834" y="-590.88" font-family="Helvetica,sans-Serif" font-size="10.00" fill="#0a0e17">✓</text>
</g>
<!-- r4_wire&#45;&gt;r4_plan -->
<!-- r4_zk -->
<g id="node29" class="node">
<title>r4_zk</title>
<path fill="#3dd68c" stroke="#1e2a3a" d="M921,-612C921,-612 891,-612 891,-612 885,-612 879,-606 879,-600 879,-600 879,-588 879,-588 879,-582 885,-576 891,-576 891,-576 921,-576 921,-576 927,-576 933,-582 933,-588 933,-588 933,-600 933,-600 933,-606 927,-612 921,-612"/>
<text text-anchor="middle" x="906" y="-590.88" font-family="Helvetica,sans-Serif" font-size="10.00" fill="#0a0e17">✓</text>
</g>
<!-- r4_plan&#45;&gt;r4_zk -->
<!-- r4_mail -->
<g id="node30" class="node">
<title>r4_mail</title>
<path fill="#3dd68c" stroke="#1e2a3a" d="M993,-612C993,-612 963,-612 963,-612 957,-612 951,-606 951,-600 951,-600 951,-588 951,-588 951,-582 957,-576 963,-576 963,-576 993,-576 993,-576 999,-576 1005,-582 1005,-588 1005,-588 1005,-600 1005,-600 1005,-606 999,-612 993,-612"/>
<text text-anchor="middle" x="978" y="-590.88" font-family="Helvetica,sans-Serif" font-size="10.00" fill="#0a0e17">✓</text>
</g>
<!-- r4_zk&#45;&gt;r4_mail -->
<!-- r5_spec -->
<g id="node32" class="node">
<title>r5_spec</title>
<path fill="#3dd68c" stroke="#1e2a3a" d="M706,-540C706,-540 676,-540 676,-540 670,-540 664,-534 664,-528 664,-528 664,-516 664,-516 664,-510 670,-504 676,-504 676,-504 706,-504 706,-504 712,-504 718,-510 718,-516 718,-516 718,-528 718,-528 718,-534 712,-540 706,-540"/>
<text text-anchor="middle" x="691" y="-518.88" font-family="Helvetica,sans-Serif" font-size="10.00" fill="#0a0e17">✓</text>
</g>
<!-- r5_sub&#45;&gt;r5_spec -->
<!-- r6_sub -->
<g id="node37" class="node">
<title>r6_sub</title>
<path fill="#0e1420" stroke="#1e2a3a" d="M643.75,-468C643.75,-468 530.25,-468 530.25,-468 524.25,-468 518.25,-462 518.25,-456 518.25,-456 518.25,-444 518.25,-444 518.25,-438 524.25,-432 530.25,-432 530.25,-432 643.75,-432 643.75,-432 649.75,-432 655.75,-438 655.75,-444 655.75,-444 655.75,-456 655.75,-456 655.75,-462 649.75,-468 643.75,-468"/>
<text text-anchor="middle" x="587" y="-446.88" font-family="Helvetica,sans-Serif" font-size="10.00" fill="#3dd68c">★ scripts&#45;gleam (5/5) +2</text>
</g>
<!-- r5_sub&#45;&gt;r6_sub -->
<!-- r5_wire -->
<g id="node33" class="node">
<title>r5_wire</title>
<path fill="#3dd68c" stroke="#1e2a3a" d="M778,-540C778,-540 748,-540 748,-540 742,-540 736,-534 736,-528 736,-528 736,-516 736,-516 736,-510 742,-504 748,-504 748,-504 778,-504 778,-504 784,-504 790,-510 790,-516 790,-516 790,-528 790,-528 790,-534 784,-540 778,-540"/>
<text text-anchor="middle" x="763" y="-518.88" font-family="Helvetica,sans-Serif" font-size="10.00" fill="#0a0e17">✓</text>
</g>
<!-- r5_spec&#45;&gt;r5_wire -->
<!-- r5_plan -->
<g id="node34" class="node">
<title>r5_plan</title>
<path fill="#3dd68c" stroke="#1e2a3a" d="M850,-540C850,-540 820,-540 820,-540 814,-540 808,-534 808,-528 808,-528 808,-516 808,-516 808,-510 814,-504 820,-504 820,-504 850,-504 850,-504 856,-504 862,-510 862,-516 862,-516 862,-528 862,-528 862,-534 856,-540 850,-540"/>
<text text-anchor="middle" x="835" y="-518.88" font-family="Helvetica,sans-Serif" font-size="10.00" fill="#0a0e17">✓</text>
</g>
<!-- r5_wire&#45;&gt;r5_plan -->
<!-- r5_zk -->
<g id="node35" class="node">
<title>r5_zk</title>
<path fill="#3dd68c" stroke="#1e2a3a" d="M922,-540C922,-540 892,-540 892,-540 886,-540 880,-534 880,-528 880,-528 880,-516 880,-516 880,-510 886,-504 892,-504 892,-504 922,-504 922,-504 928,-504 934,-510 934,-516 934,-516 934,-528 934,-528 934,-534 928,-540 922,-540"/>
<text text-anchor="middle" x="907" y="-518.88" font-family="Helvetica,sans-Serif" font-size="10.00" fill="#0a0e17">✓</text>
</g>
<!-- r5_plan&#45;&gt;r5_zk -->
<!-- r5_mail -->
<g id="node36" class="node">
<title>r5_mail</title>
<path fill="#3dd68c" stroke="#1e2a3a" d="M994,-540C994,-540 964,-540 964,-540 958,-540 952,-534 952,-528 952,-528 952,-516 952,-516 952,-510 958,-504 964,-504 964,-504 994,-504 994,-504 1000,-504 1006,-510 1006,-516 1006,-516 1006,-528 1006,-528 1006,-534 1000,-540 994,-540"/>
<text text-anchor="middle" x="979" y="-518.88" font-family="Helvetica,sans-Serif" font-size="10.00" fill="#0a0e17">✓</text>
</g>
<!-- r5_zk&#45;&gt;r5_mail -->
<!-- r6_spec -->
<g id="node38" class="node">
<title>r6_spec</title>
<path fill="#3dd68c" stroke="#1e2a3a" d="M716,-468C716,-468 686,-468 686,-468 680,-468 674,-462 674,-456 674,-456 674,-444 674,-444 674,-438 680,-432 686,-432 686,-432 716,-432 716,-432 722,-432 728,-438 728,-444 728,-444 728,-456 728,-456 728,-462 722,-468 716,-468"/>
<text text-anchor="middle" x="701" y="-446.88" font-family="Helvetica,sans-Serif" font-size="10.00" fill="#0a0e17">✓</text>
</g>
<!-- r6_sub&#45;&gt;r6_spec -->
<!-- r7_sub -->
<g id="node43" class="node">
<title>r7_sub</title>
<path fill="#0e1420" stroke="#1e2a3a" d="M649.38,-396C649.38,-396 524.62,-396 524.62,-396 518.62,-396 512.62,-390 512.62,-384 512.62,-384 512.62,-372 512.62,-372 512.62,-366 518.62,-360 524.62,-360 524.62,-360 649.38,-360 649.38,-360 655.38,-360 661.38,-366 661.38,-372 661.38,-372 661.38,-384 661.38,-384 661.38,-390 655.38,-396 649.38,-396"/>
<text text-anchor="middle" x="587" y="-374.88" font-family="Helvetica,sans-Serif" font-size="10.00" fill="#3dd68c">★ Marionette MCP (5/5) +1</text>
</g>
<!-- r6_sub&#45;&gt;r7_sub -->
<!-- r6_wire -->
<g id="node39" class="node">
<title>r6_wire</title>
<path fill="#3dd68c" stroke="#1e2a3a" d="M788,-468C788,-468 758,-468 758,-468 752,-468 746,-462 746,-456 746,-456 746,-444 746,-444 746,-438 752,-432 758,-432 758,-432 788,-432 788,-432 794,-432 800,-438 800,-444 800,-444 800,-456 800,-456 800,-462 794,-468 788,-468"/>
<text text-anchor="middle" x="773" y="-446.88" font-family="Helvetica,sans-Serif" font-size="10.00" fill="#0a0e17">✓</text>
</g>
<!-- r6_spec&#45;&gt;r6_wire -->
<!-- r6_plan -->
<g id="node40" class="node">
<title>r6_plan</title>
<path fill="#3dd68c" stroke="#1e2a3a" d="M860,-468C860,-468 830,-468 830,-468 824,-468 818,-462 818,-456 818,-456 818,-444 818,-444 818,-438 824,-432 830,-432 830,-432 860,-432 860,-432 866,-432 872,-438 872,-444 872,-444 872,-456 872,-456 872,-462 866,-468 860,-468"/>
<text text-anchor="middle" x="845" y="-446.88" font-family="Helvetica,sans-Serif" font-size="10.00" fill="#0a0e17">✓</text>
</g>
<!-- r6_wire&#45;&gt;r6_plan -->
<!-- r6_zk -->
<g id="node41" class="node">
<title>r6_zk</title>
<path fill="#3dd68c" stroke="#1e2a3a" d="M932,-468C932,-468 902,-468 902,-468 896,-468 890,-462 890,-456 890,-456 890,-444 890,-444 890,-438 896,-432 902,-432 902,-432 932,-432 932,-432 938,-432 944,-438 944,-444 944,-444 944,-456 944,-456 944,-462 938,-468 932,-468"/>
<text text-anchor="middle" x="917" y="-446.88" font-family="Helvetica,sans-Serif" font-size="10.00" fill="#0a0e17">✓</text>
</g>
<!-- r6_plan&#45;&gt;r6_zk -->
<!-- r6_mail -->
<g id="node42" class="node">
<title>r6_mail</title>
<path fill="#3dd68c" stroke="#1e2a3a" d="M1004,-468C1004,-468 974,-468 974,-468 968,-468 962,-462 962,-456 962,-456 962,-444 962,-444 962,-438 968,-432 974,-432 974,-432 1004,-432 1004,-432 1010,-432 1016,-438 1016,-444 1016,-444 1016,-456 1016,-456 1016,-462 1010,-468 1004,-468"/>
<text text-anchor="middle" x="989" y="-446.88" font-family="Helvetica,sans-Serif" font-size="10.00" fill="#0a0e17">✓</text>
</g>
<!-- r6_zk&#45;&gt;r6_mail -->
<!-- r7_spec -->
<g id="node44" class="node">
<title>r7_spec</title>
<path fill="#3dd68c" stroke="#1e2a3a" d="M721,-396C721,-396 691,-396 691,-396 685,-396 679,-390 679,-384 679,-384 679,-372 679,-372 679,-366 685,-360 691,-360 691,-360 721,-360 721,-360 727,-360 733,-366 733,-372 733,-372 733,-384 733,-384 733,-390 727,-396 721,-396"/>
<text text-anchor="middle" x="706" y="-374.88" font-family="Helvetica,sans-Serif" font-size="10.00" fill="#0a0e17">✓</text>
</g>
<!-- r7_sub&#45;&gt;r7_spec -->
<!-- r8_sub -->
<g id="node49" class="node">
<title>r8_sub</title>
<path fill="#0e1420" stroke="#1e2a3a" d="M636.62,-324C636.62,-324 537.38,-324 537.38,-324 531.38,-324 525.38,-318 525.38,-312 525.38,-312 525.38,-300 525.38,-300 525.38,-294 531.38,-288 537.38,-288 537.38,-288 636.62,-288 636.62,-288 642.62,-288 648.62,-294 648.62,-300 648.62,-300 648.62,-312 648.62,-312 648.62,-318 642.62,-324 636.62,-324"/>
<text text-anchor="middle" x="587" y="-302.88" font-family="Helvetica,sans-Serif" font-size="10.00" fill="#3dd68c">★ Patrol MCP (5/5) +2</text>
</g>
<!-- r7_sub&#45;&gt;r8_sub -->
<!-- r7_wire -->
<g id="node45" class="node">
<title>r7_wire</title>
<path fill="#3dd68c" stroke="#1e2a3a" d="M793,-396C793,-396 763,-396 763,-396 757,-396 751,-390 751,-384 751,-384 751,-372 751,-372 751,-366 757,-360 763,-360 763,-360 793,-360 793,-360 799,-360 805,-366 805,-372 805,-372 805,-384 805,-384 805,-390 799,-396 793,-396"/>
<text text-anchor="middle" x="778" y="-374.88" font-family="Helvetica,sans-Serif" font-size="10.00" fill="#0a0e17">✓</text>
</g>
<!-- r7_spec&#45;&gt;r7_wire -->
<!-- r7_plan -->
<g id="node46" class="node">
<title>r7_plan</title>
<path fill="#3dd68c" stroke="#1e2a3a" d="M865,-396C865,-396 835,-396 835,-396 829,-396 823,-390 823,-384 823,-384 823,-372 823,-372 823,-366 829,-360 835,-360 835,-360 865,-360 865,-360 871,-360 877,-366 877,-372 877,-372 877,-384 877,-384 877,-390 871,-396 865,-396"/>
<text text-anchor="middle" x="850" y="-374.88" font-family="Helvetica,sans-Serif" font-size="10.00" fill="#0a0e17">✓</text>
</g>
<!-- r7_wire&#45;&gt;r7_plan -->
<!-- r7_zk -->
<g id="node47" class="node">
<title>r7_zk</title>
<path fill="#3dd68c" stroke="#1e2a3a" d="M937,-396C937,-396 907,-396 907,-396 901,-396 895,-390 895,-384 895,-384 895,-372 895,-372 895,-366 901,-360 907,-360 907,-360 937,-360 937,-360 943,-360 949,-366 949,-372 949,-372 949,-384 949,-384 949,-390 943,-396 937,-396"/>
<text text-anchor="middle" x="922" y="-374.88" font-family="Helvetica,sans-Serif" font-size="10.00" fill="#0a0e17">✓</text>
</g>
<!-- r7_plan&#45;&gt;r7_zk -->
<!-- r7_mail -->
<g id="node48" class="node">
<title>r7_mail</title>
<path fill="#3dd68c" stroke="#1e2a3a" d="M1009,-396C1009,-396 979,-396 979,-396 973,-396 967,-390 967,-384 967,-384 967,-372 967,-372 967,-366 973,-360 979,-360 979,-360 1009,-360 1009,-360 1015,-360 1021,-366 1021,-372 1021,-372 1021,-384 1021,-384 1021,-390 1015,-396 1009,-396"/>
<text text-anchor="middle" x="994" y="-374.88" font-family="Helvetica,sans-Serif" font-size="10.00" fill="#0a0e17">✓</text>
</g>
<!-- r7_zk&#45;&gt;r7_mail -->
<!-- r8_spec -->
<g id="node50" class="node">
<title>r8_spec</title>
<path fill="#3dd68c" stroke="#1e2a3a" d="M709,-324C709,-324 679,-324 679,-324 673,-324 667,-318 667,-312 667,-312 667,-300 667,-300 667,-294 673,-288 679,-288 679,-288 709,-288 709,-288 715,-288 721,-294 721,-300 721,-300 721,-312 721,-312 721,-318 715,-324 709,-324"/>
<text text-anchor="middle" x="694" y="-302.88" font-family="Helvetica,sans-Serif" font-size="10.00" fill="#0a0e17">✓</text>
</g>
<!-- r8_sub&#45;&gt;r8_spec -->
<!-- r9_sub -->
<g id="node55" class="node">
<title>r9_sub</title>
<path fill="#0e1420" stroke="#1e2a3a" d="M633.25,-252C633.25,-252 540.75,-252 540.75,-252 534.75,-252 528.75,-246 528.75,-240 528.75,-240 528.75,-228 528.75,-228 528.75,-222 534.75,-216 540.75,-216 540.75,-216 633.25,-216 633.25,-216 639.25,-216 645.25,-222 645.25,-228 645.25,-228 645.25,-240 645.25,-240 645.25,-246 639.25,-252 633.25,-252"/>
<text text-anchor="middle" x="587" y="-230.88" font-family="Helvetica,sans-Serif" font-size="10.00" fill="#3dd68c">★ Gleam UI (5/5) +1</text>
</g>
<!-- r8_sub&#45;&gt;r9_sub -->
<!-- r8_wire -->
<g id="node51" class="node">
<title>r8_wire</title>
<path fill="#3dd68c" stroke="#1e2a3a" d="M781,-324C781,-324 751,-324 751,-324 745,-324 739,-318 739,-312 739,-312 739,-300 739,-300 739,-294 745,-288 751,-288 751,-288 781,-288 781,-288 787,-288 793,-294 793,-300 793,-300 793,-312 793,-312 793,-318 787,-324 781,-324"/>
<text text-anchor="middle" x="766" y="-302.88" font-family="Helvetica,sans-Serif" font-size="10.00" fill="#0a0e17">✓</text>
</g>
<!-- r8_spec&#45;&gt;r8_wire -->
<!-- r8_plan -->
<g id="node52" class="node">
<title>r8_plan</title>
<path fill="#3dd68c" stroke="#1e2a3a" d="M853,-324C853,-324 823,-324 823,-324 817,-324 811,-318 811,-312 811,-312 811,-300 811,-300 811,-294 817,-288 823,-288 823,-288 853,-288 853,-288 859,-288 865,-294 865,-300 865,-300 865,-312 865,-312 865,-318 859,-324 853,-324"/>
<text text-anchor="middle" x="838" y="-302.88" font-family="Helvetica,sans-Serif" font-size="10.00" fill="#0a0e17">✓</text>
</g>
<!-- r8_wire&#45;&gt;r8_plan -->
<!-- r8_zk -->
<g id="node53" class="node">
<title>r8_zk</title>
<path fill="#3dd68c" stroke="#1e2a3a" d="M925,-324C925,-324 895,-324 895,-324 889,-324 883,-318 883,-312 883,-312 883,-300 883,-300 883,-294 889,-288 895,-288 895,-288 925,-288 925,-288 931,-288 937,-294 937,-300 937,-300 937,-312 937,-312 937,-318 931,-324 925,-324"/>
<text text-anchor="middle" x="910" y="-302.88" font-family="Helvetica,sans-Serif" font-size="10.00" fill="#0a0e17">✓</text>
</g>
<!-- r8_plan&#45;&gt;r8_zk -->
<!-- r8_mail -->
<g id="node54" class="node">
<title>r8_mail</title>
<path fill="#3dd68c" stroke="#1e2a3a" d="M997,-324C997,-324 967,-324 967,-324 961,-324 955,-318 955,-312 955,-312 955,-300 955,-300 955,-294 961,-288 967,-288 967,-288 997,-288 997,-288 1003,-288 1009,-294 1009,-300 1009,-300 1009,-312 1009,-312 1009,-318 1003,-324 997,-324"/>
<text text-anchor="middle" x="982" y="-302.88" font-family="Helvetica,sans-Serif" font-size="10.00" fill="#0a0e17">✓</text>
</g>
<!-- r8_zk&#45;&gt;r8_mail -->
<!-- r9_spec -->
<g id="node56" class="node">
<title>r9_spec</title>
<path fill="#3dd68c" stroke="#1e2a3a" d="M705,-252C705,-252 675,-252 675,-252 669,-252 663,-246 663,-240 663,-240 663,-228 663,-228 663,-222 669,-216 675,-216 675,-216 705,-216 705,-216 711,-216 717,-222 717,-228 717,-228 717,-240 717,-240 717,-246 711,-252 705,-252"/>
<text text-anchor="middle" x="690" y="-230.88" font-family="Helvetica,sans-Serif" font-size="10.00" fill="#0a0e17">✓</text>
</g>
<!-- r9_sub&#45;&gt;r9_spec -->
<!-- r10_sub -->
<g id="node61" class="node">
<title>r10_sub</title>
<path fill="#0e1420" stroke="#1e2a3a" d="M627.25,-180C627.25,-180 546.75,-180 546.75,-180 540.75,-180 534.75,-174 534.75,-168 534.75,-168 534.75,-156 534.75,-156 534.75,-150 540.75,-144 546.75,-144 546.75,-144 627.25,-144 627.25,-144 633.25,-144 639.25,-150 639.25,-156 639.25,-156 639.25,-168 639.25,-168 639.25,-174 633.25,-180 627.25,-180"/>
<text text-anchor="middle" x="587" y="-158.88" font-family="Helvetica,sans-Serif" font-size="10.00" fill="#e0e6ed">Dart MCP (4/5) +2</text>
</g>
<!-- r9_sub&#45;&gt;r10_sub -->
<!-- r9_wire -->
<g id="node57" class="node">
<title>r9_wire</title>
<path fill="#3dd68c" stroke="#1e2a3a" d="M777,-252C777,-252 747,-252 747,-252 741,-252 735,-246 735,-240 735,-240 735,-228 735,-228 735,-222 741,-216 747,-216 747,-216 777,-216 777,-216 783,-216 789,-222 789,-228 789,-228 789,-240 789,-240 789,-246 783,-252 777,-252"/>
<text text-anchor="middle" x="762" y="-230.88" font-family="Helvetica,sans-Serif" font-size="10.00" fill="#0a0e17">✓</text>
</g>
<!-- r9_spec&#45;&gt;r9_wire -->
<!-- r9_plan -->
<g id="node58" class="node">
<title>r9_plan</title>
<path fill="#3dd68c" stroke="#1e2a3a" d="M849,-252C849,-252 819,-252 819,-252 813,-252 807,-246 807,-240 807,-240 807,-228 807,-228 807,-222 813,-216 819,-216 819,-216 849,-216 849,-216 855,-216 861,-222 861,-228 861,-228 861,-240 861,-240 861,-246 855,-252 849,-252"/>
<text text-anchor="middle" x="834" y="-230.88" font-family="Helvetica,sans-Serif" font-size="10.00" fill="#0a0e17">✓</text>
</g>
<!-- r9_wire&#45;&gt;r9_plan -->
<!-- r9_zk -->
<g id="node59" class="node">
<title>r9_zk</title>
<path fill="#3dd68c" stroke="#1e2a3a" d="M921,-252C921,-252 891,-252 891,-252 885,-252 879,-246 879,-240 879,-240 879,-228 879,-228 879,-222 885,-216 891,-216 891,-216 921,-216 921,-216 927,-216 933,-222 933,-228 933,-228 933,-240 933,-240 933,-246 927,-252 921,-252"/>
<text text-anchor="middle" x="906" y="-230.88" font-family="Helvetica,sans-Serif" font-size="10.00" fill="#0a0e17">✓</text>
</g>
<!-- r9_plan&#45;&gt;r9_zk -->
<!-- r9_mail -->
<g id="node60" class="node">
<title>r9_mail</title>
<path fill="#3dd68c" stroke="#1e2a3a" d="M993,-252C993,-252 963,-252 963,-252 957,-252 951,-246 951,-240 951,-240 951,-228 951,-228 951,-222 957,-216 963,-216 963,-216 993,-216 993,-216 999,-216 1005,-222 1005,-228 1005,-228 1005,-240 1005,-240 1005,-246 999,-252 993,-252"/>
<text text-anchor="middle" x="978" y="-230.88" font-family="Helvetica,sans-Serif" font-size="10.00" fill="#0a0e17">✓</text>
</g>
<!-- r9_zk&#45;&gt;r9_mail -->
<!-- r10_spec -->
<g id="node62" class="node">
<title>r10_spec</title>
<path fill="#3dd68c" stroke="#1e2a3a" d="M699,-180C699,-180 669,-180 669,-180 663,-180 657,-174 657,-168 657,-168 657,-156 657,-156 657,-150 663,-144 669,-144 669,-144 699,-144 699,-144 705,-144 711,-150 711,-156 711,-156 711,-168 711,-168 711,-174 705,-180 699,-180"/>
<text text-anchor="middle" x="684" y="-158.88" font-family="Helvetica,sans-Serif" font-size="10.00" fill="#0a0e17">✓</text>
</g>
<!-- r10_sub&#45;&gt;r10_spec -->
<!-- r11_sub -->
<g id="node67" class="node">
<title>r11_sub</title>
<path fill="#0e1420" stroke="#1e2a3a" d="M620.5,-108C620.5,-108 553.5,-108 553.5,-108 547.5,-108 541.5,-102 541.5,-96 541.5,-96 541.5,-84 541.5,-84 541.5,-78 547.5,-72 553.5,-72 553.5,-72 620.5,-72 620.5,-72 626.5,-72 632.5,-78 632.5,-84 632.5,-84 632.5,-96 632.5,-96 632.5,-102 626.5,-108 620.5,-108"/>
<text text-anchor="middle" x="587" y="-86.88" font-family="Helvetica,sans-Serif" font-size="10.00" fill="#f5a623">Cortex (3/5) +1</text>
</g>
<!-- r10_sub&#45;&gt;r11_sub -->
<!-- r10_wire -->
<g id="node63" class="node">
<title>r10_wire</title>
<path fill="#3dd68c" stroke="#1e2a3a" d="M771,-180C771,-180 741,-180 741,-180 735,-180 729,-174 729,-168 729,-168 729,-156 729,-156 729,-150 735,-144 741,-144 741,-144 771,-144 771,-144 777,-144 783,-150 783,-156 783,-156 783,-168 783,-168 783,-174 777,-180 771,-180"/>
<text text-anchor="middle" x="756" y="-158.88" font-family="Helvetica,sans-Serif" font-size="10.00" fill="#0a0e17">✓</text>
</g>
<!-- r10_spec&#45;&gt;r10_wire -->
<!-- r10_plan -->
<g id="node64" class="node">
<title>r10_plan</title>
<path fill="#3dd68c" stroke="#1e2a3a" d="M843,-180C843,-180 813,-180 813,-180 807,-180 801,-174 801,-168 801,-168 801,-156 801,-156 801,-150 807,-144 813,-144 813,-144 843,-144 843,-144 849,-144 855,-150 855,-156 855,-156 855,-168 855,-168 855,-174 849,-180 843,-180"/>
<text text-anchor="middle" x="828" y="-158.88" font-family="Helvetica,sans-Serif" font-size="10.00" fill="#0a0e17">✓</text>
</g>
<!-- r10_wire&#45;&gt;r10_plan -->
<!-- r10_zk -->
<g id="node65" class="node">
<title>r10_zk</title>
<path fill="#ff4757" stroke="#1e2a3a" d="M915,-180C915,-180 885,-180 885,-180 879,-180 873,-174 873,-168 873,-168 873,-156 873,-156 873,-150 879,-144 885,-144 885,-144 915,-144 915,-144 921,-144 927,-150 927,-156 927,-156 927,-168 927,-168 927,-174 921,-180 915,-180"/>
<text text-anchor="middle" x="900" y="-158.88" font-family="Helvetica,sans-Serif" font-size="10.00" fill="#0a0e17">✗</text>
</g>
<!-- r10_plan&#45;&gt;r10_zk -->
<!-- r10_mail -->
<g id="node66" class="node">
<title>r10_mail</title>
<path fill="#3dd68c" stroke="#1e2a3a" d="M987,-180C987,-180 957,-180 957,-180 951,-180 945,-174 945,-168 945,-168 945,-156 945,-156 945,-150 951,-144 957,-144 957,-144 987,-144 987,-144 993,-144 999,-150 999,-156 999,-156 999,-168 999,-168 999,-174 993,-180 987,-180"/>
<text text-anchor="middle" x="972" y="-158.88" font-family="Helvetica,sans-Serif" font-size="10.00" fill="#0a0e17">✓</text>
</g>
<!-- r10_zk&#45;&gt;r10_mail -->
<!-- r11_spec -->
<g id="node68" class="node">
<title>r11_spec</title>
<path fill="#3dd68c" stroke="#1e2a3a" d="M693,-108C693,-108 663,-108 663,-108 657,-108 651,-102 651,-96 651,-96 651,-84 651,-84 651,-78 657,-72 663,-72 663,-72 693,-72 693,-72 699,-72 705,-78 705,-84 705,-84 705,-96 705,-96 705,-102 699,-108 693,-108"/>
<text text-anchor="middle" x="678" y="-86.88" font-family="Helvetica,sans-Serif" font-size="10.00" fill="#0a0e17">✓</text>
</g>
<!-- r11_sub&#45;&gt;r11_spec -->
<!-- r12_sub -->
<g id="node73" class="node">
<title>r12_sub</title>
<path fill="#0e1420" stroke="#1e2a3a" d="M642.25,-36C642.25,-36 531.75,-36 531.75,-36 525.75,-36 519.75,-30 519.75,-24 519.75,-24 519.75,-12 519.75,-12 519.75,-6 525.75,0 531.75,0 531.75,0 642.25,0 642.25,0 648.25,0 654.25,-6 654.25,-12 654.25,-12 654.25,-24 654.25,-24 654.25,-30 648.25,-36 642.25,-36"/>
<text text-anchor="middle" x="587" y="-14.88" font-family="Helvetica,sans-Serif" font-size="10.00" fill="#f5a623">Fractal Widgets (3/5) +2</text>
</g>
<!-- r11_sub&#45;&gt;r12_sub -->
<!-- r11_wire -->
<g id="node69" class="node">
<title>r11_wire</title>
<path fill="#3dd68c" stroke="#1e2a3a" d="M765,-108C765,-108 735,-108 735,-108 729,-108 723,-102 723,-96 723,-96 723,-84 723,-84 723,-78 729,-72 735,-72 735,-72 765,-72 765,-72 771,-72 777,-78 777,-84 777,-84 777,-96 777,-96 777,-102 771,-108 765,-108"/>
<text text-anchor="middle" x="750" y="-86.88" font-family="Helvetica,sans-Serif" font-size="10.00" fill="#0a0e17">✓</text>
</g>
<!-- r11_spec&#45;&gt;r11_wire -->
<!-- r11_plan -->
<g id="node70" class="node">
<title>r11_plan</title>
<path fill="#3dd68c" stroke="#1e2a3a" d="M837,-108C837,-108 807,-108 807,-108 801,-108 795,-102 795,-96 795,-96 795,-84 795,-84 795,-78 801,-72 807,-72 807,-72 837,-72 837,-72 843,-72 849,-78 849,-84 849,-84 849,-96 849,-96 849,-102 843,-108 837,-108"/>
<text text-anchor="middle" x="822" y="-86.88" font-family="Helvetica,sans-Serif" font-size="10.00" fill="#0a0e17">✓</text>
</g>
<!-- r11_wire&#45;&gt;r11_plan -->
<!-- r11_zk -->
<g id="node71" class="node">
<title>r11_zk</title>
<path fill="#ff4757" stroke="#1e2a3a" d="M909,-108C909,-108 879,-108 879,-108 873,-108 867,-102 867,-96 867,-96 867,-84 867,-84 867,-78 873,-72 879,-72 879,-72 909,-72 909,-72 915,-72 921,-78 921,-84 921,-84 921,-96 921,-96 921,-102 915,-108 909,-108"/>
<text text-anchor="middle" x="894" y="-86.88" font-family="Helvetica,sans-Serif" font-size="10.00" fill="#0a0e17">✗</text>
</g>
<!-- r11_plan&#45;&gt;r11_zk -->
<!-- r11_mail -->
<g id="node72" class="node">
<title>r11_mail</title>
<path fill="#ff4757" stroke="#1e2a3a" d="M981,-108C981,-108 951,-108 951,-108 945,-108 939,-102 939,-96 939,-96 939,-84 939,-84 939,-78 945,-72 951,-72 951,-72 981,-72 981,-72 987,-72 993,-78 993,-84 993,-84 993,-96 993,-96 993,-102 987,-108 981,-108"/>
<text text-anchor="middle" x="966" y="-86.88" font-family="Helvetica,sans-Serif" font-size="10.00" fill="#0a0e17">✗</text>
</g>
<!-- r11_zk&#45;&gt;r11_mail -->
<!-- r12_spec -->
<g id="node74" class="node">
<title>r12_spec</title>
<path fill="#3dd68c" stroke="#1e2a3a" d="M714,-36C714,-36 684,-36 684,-36 678,-36 672,-30 672,-24 672,-24 672,-12 672,-12 672,-6 678,0 684,0 684,0 714,0 714,0 720,0 726,-6 726,-12 726,-12 726,-24 726,-24 726,-30 720,-36 714,-36"/>
<text text-anchor="middle" x="699" y="-14.88" font-family="Helvetica,sans-Serif" font-size="10.00" fill="#0a0e17">✓</text>
</g>
<!-- r12_sub&#45;&gt;r12_spec -->
<!-- r12_wire -->
<g id="node75" class="node">
<title>r12_wire</title>
<path fill="#3dd68c" stroke="#1e2a3a" d="M786,-36C786,-36 756,-36 756,-36 750,-36 744,-30 744,-24 744,-24 744,-12 744,-12 744,-6 750,0 756,0 756,0 786,0 786,0 792,0 798,-6 798,-12 798,-12 798,-24 798,-24 798,-30 792,-36 786,-36"/>
<text text-anchor="middle" x="771" y="-14.88" font-family="Helvetica,sans-Serif" font-size="10.00" fill="#0a0e17">✓</text>
</g>
<!-- r12_spec&#45;&gt;r12_wire -->
<!-- r12_plan -->
<g id="node76" class="node">
<title>r12_plan</title>
<path fill="#3dd68c" stroke="#1e2a3a" d="M858,-36C858,-36 828,-36 828,-36 822,-36 816,-30 816,-24 816,-24 816,-12 816,-12 816,-6 822,0 828,0 828,0 858,0 858,0 864,0 870,-6 870,-12 870,-12 870,-24 870,-24 870,-30 864,-36 858,-36"/>
<text text-anchor="middle" x="843" y="-14.88" font-family="Helvetica,sans-Serif" font-size="10.00" fill="#0a0e17">✓</text>
</g>
<!-- r12_wire&#45;&gt;r12_plan -->
<!-- r12_zk -->
<g id="node77" class="node">
<title>r12_zk</title>
<path fill="#ff4757" stroke="#1e2a3a" d="M930,-36C930,-36 900,-36 900,-36 894,-36 888,-30 888,-24 888,-24 888,-12 888,-12 888,-6 894,0 900,0 900,0 930,0 930,0 936,0 942,-6 942,-12 942,-12 942,-24 942,-24 942,-30 936,-36 930,-36"/>
<text text-anchor="middle" x="915" y="-14.88" font-family="Helvetica,sans-Serif" font-size="10.00" fill="#0a0e17">✗</text>
</g>
<!-- r12_plan&#45;&gt;r12_zk -->
<!-- r12_mail -->
<g id="node78" class="node">
<title>r12_mail</title>
<path fill="#ff4757" stroke="#1e2a3a" d="M1002,-36C1002,-36 972,-36 972,-36 966,-36 960,-30 960,-24 960,-24 960,-12 960,-12 960,-6 966,0 972,0 972,0 1002,0 1002,0 1008,0 1014,-6 1014,-12 1014,-12 1014,-24 1014,-24 1014,-30 1008,-36 1002,-36"/>
<text text-anchor="middle" x="987" y="-14.88" font-family="Helvetica,sans-Serif" font-size="10.00" fill="#0a0e17">✗</text>
</g>
<!-- r12_zk&#45;&gt;r12_mail -->
</g>
</svg>
