<?xml version="1.0" encoding="UTF-8" standalone="no"?>
<!DOCTYPE svg PUBLIC "-//W3C//DTD SVG 1.1//EN"
 "http://www.w3.org/Graphics/SVG/1.1/DTD/svg11.dtd">
<!-- Generated by graphviz version 12.2.1 (0)
 -->
<!-- Title: G24_CPIG_Roadmap Pages: 1 -->
<svg width="1484pt" height="429pt"
 viewBox="0.00 0.00 1484.43 428.96" xmlns="http://www.w3.org/2000/svg" xmlns:xlink="http://www.w3.org/1999/xlink">
<g id="graph0" class="graph" transform="scale(1 1) rotate(0) translate(4 424.96)">
<title>G24_CPIG_Roadmap</title>
<polygon fill="#0a0e17" stroke="none" points="-4,4 -4,-424.96 1480.43,-424.96 1480.43,4 -4,4"/>
<text text-anchor="start" x="507.97" y="-402.76" font-family="Times,serif" font-weight="bold" font-size="16.00" fill="#00d4aa">G24 &#45; CPIG Roadmap (Pass 12 → 15: 32/60 → 60/60)</text>
<text text-anchor="start" x="563.09" y="-392.46" font-family="Times,serif" font-size="10.00" fill="#7a8fa6">cumulative System CPIG score progression — Pass 14 lands at 91.7%</text>
<g id="clust1" class="cluster">
<title>cluster_p14_done</title>
<path fill="#0a0e17" stroke="#3dd68c" stroke-dasharray="5,2" d="M416.25,-8C416.25,-8 593.5,-8 593.5,-8 599.5,-8 605.5,-14 605.5,-20 605.5,-20 605.5,-289 605.5,-289 605.5,-295 599.5,-301 593.5,-301 593.5,-301 416.25,-301 416.25,-301 410.25,-301 404.25,-295 404.25,-289 404.25,-289 404.25,-20 404.25,-20 404.25,-14 410.25,-8 416.25,-8"/>
<text text-anchor="start" x="412.25" y="-284.7" font-family="Times,serif" font-weight="bold" font-size="14.00" fill="#3dd68c">Pass 14 — Closed to 5/5</text>
</g>
<g id="clust2" class="cluster">
<title>cluster_p15_target</title>
<path fill="#0a0e17" stroke="#ff4757" stroke-dasharray="5,2" d="M831.75,-49C831.75,-49 1069.75,-49 1069.75,-49 1075.75,-49 1081.75,-55 1081.75,-61 1081.75,-61 1081.75,-261 1081.75,-261 1081.75,-267 1075.75,-273 1069.75,-273 1069.75,-273 831.75,-273 831.75,-273 825.75,-273 819.75,-267 819.75,-261 819.75,-261 819.75,-61 819.75,-61 819.75,-55 825.75,-49 831.75,-49"/>
<text text-anchor="start" x="827.75" y="-256.7" font-family="Times,serif" font-weight="bold" font-size="14.00" fill="#ff4757">Pass 15 — Last 5 gates to 100%</text>
</g>
<!-- p12 -->
<g id="node1" class="node">
<title>p12</title>
<path fill="#101a26" stroke="#1e2a3a" d="M82,-201C82,-201 12,-201 12,-201 6,-201 0,-195 0,-189 0,-189 0,-163 0,-163 0,-157 6,-151 12,-151 12,-151 82,-151 82,-151 88,-151 94,-157 94,-163 94,-163 94,-189 94,-189 94,-195 88,-201 82,-201"/>
<text text-anchor="start" x="23.38" y="-187.55" font-family="Helvetica,sans-Serif" font-weight="bold" font-size="11.00" fill="#e0e6ed">Pass 12</text>
<text text-anchor="start" x="8" y="-166.1" font-family="Helvetica,sans-Serif" font-size="22.00" fill="#f5a623">32 / 60</text>
<text text-anchor="start" x="17" y="-156.45" font-family="Helvetica,sans-Serif" font-size="9.00" fill="#7a8fa6">53% baseline</text>
</g>
<!-- p13 -->
<g id="node2" class="node">
<title>p13</title>
<path fill="#101a26" stroke="#f5a623" d="M355.25,-201C355.25,-201 279.25,-201 279.25,-201 273.25,-201 267.25,-195 267.25,-189 267.25,-189 267.25,-163 267.25,-163 267.25,-157 273.25,-151 279.25,-151 279.25,-151 355.25,-151 355.25,-151 361.25,-151 367.25,-157 367.25,-163 367.25,-163 367.25,-189 367.25,-189 367.25,-195 361.25,-201 355.25,-201"/>
<text text-anchor="start" x="293.62" y="-187.55" font-family="Helvetica,sans-Serif" font-weight="bold" font-size="11.00" fill="#e0e6ed">Pass 13</text>
<text text-anchor="start" x="278.25" y="-166.1" font-family="Helvetica,sans-Serif" font-size="22.00" fill="#f5a623">36 / 60</text>
<text text-anchor="start" x="275.25" y="-156.45" font-family="Helvetica,sans-Serif" font-size="9.00" fill="#7a8fa6">60% — 4 P0 seeds</text>
</g>
<!-- p12&#45;&gt;p13 -->
<g id="edge1" class="edge">
<title>p12&#45;&gt;p13</title>
<path fill="none" stroke="#f5a623" d="M94.42,-176C138.98,-176 206.55,-176 255.4,-176"/>
<polygon fill="#f5a623" stroke="#f5a623" points="255.25,-179.5 265.25,-176 255.25,-172.5 255.25,-179.5"/>
<text text-anchor="middle" x="180.62" y="-217.5" font-family="Times,serif" font-size="10.00" fill="#7a8fa6">+ 4 TLA+ specs</text>
<text text-anchor="middle" x="180.62" y="-204.75" font-family="Times,serif" font-size="10.00" fill="#7a8fa6">+ 4 Wiring Guards</text>
<text text-anchor="middle" x="180.62" y="-192" font-family="Times,serif" font-size="10.00" fill="#7a8fa6">(FerrisKey, FractalWidgets,</text>
<text text-anchor="middle" x="180.62" y="-179.25" font-family="Times,serif" font-size="10.00" fill="#7a8fa6">Zenoh, CEPAF)</text>
</g>
<!-- p14 -->
<g id="node3" class="node">
<title>p14</title>
<path fill="#101a26" stroke="#3dd68c" stroke-width="2" d="M753,-198C753,-198 654.5,-198 654.5,-198 648.5,-198 642.5,-192 642.5,-186 642.5,-186 642.5,-160 642.5,-160 642.5,-154 648.5,-148 654.5,-148 654.5,-148 753,-148 753,-148 759,-148 765,-154 765,-160 765,-160 765,-186 765,-186 765,-192 759,-198 753,-198"/>
<text text-anchor="start" x="660.25" y="-184.55" font-family="Helvetica,sans-Serif" font-weight="bold" font-size="11.00" fill="#e0e6ed">Pass 14 (now)</text>
<text text-anchor="start" x="664.75" y="-163.1" font-family="Helvetica,sans-Serif" font-size="22.00" fill="#3dd68c">55 / 60</text>
<text text-anchor="start" x="650.5" y="-153.45" font-family="Helvetica,sans-Serif" font-size="9.00" fill="#7a8fa6">91.7% — 9 of 12 at 5/5</text>
</g>
<!-- p13&#45;&gt;p14 -->
<g id="edge2" class="edge">
<title>p13&#45;&gt;p14</title>
<path fill="none" stroke="#3dd68c" d="M326.77,-201.5C338.64,-232.43 363.43,-283.15 404.25,-305 483.11,-347.21 525.67,-345.34 605.5,-305 644.87,-285.1 672.22,-240.92 687.66,-209.15"/>
<polygon fill="#3dd68c" stroke="#3dd68c" points="690.75,-210.81 691.81,-200.27 684.41,-207.85 690.75,-210.81"/>
<text text-anchor="middle" x="504.38" y="-377.46" font-family="Times,serif" font-size="10.00" fill="#7a8fa6">+ 5 TLA+ specs</text>
<text text-anchor="middle" x="504.38" y="-364.71" font-family="Times,serif" font-size="10.00" fill="#7a8fa6">+ 4 Wiring Guards</text>
<text text-anchor="middle" x="504.38" y="-351.96" font-family="Times,serif" font-size="10.00" fill="#7a8fa6">(PiMono, ScriptsGleam,</text>
<text text-anchor="middle" x="504.38" y="-339.21" font-family="Times,serif" font-size="10.00" fill="#7a8fa6">Patrol, DartMCP, GleamUI)</text>
</g>
<!-- pi -->
<g id="node5" class="node">
<title>pi</title>
<path fill="#0e1a14" stroke="#3dd68c" d="M525.88,-268C525.88,-268 482.88,-268 482.88,-268 476.88,-268 470.88,-262 470.88,-256 470.88,-256 470.88,-244 470.88,-244 470.88,-238 476.88,-232 482.88,-232 482.88,-232 525.88,-232 525.88,-232 531.88,-232 537.88,-238 537.88,-244 537.88,-244 537.88,-256 537.88,-256 537.88,-262 531.88,-268 525.88,-268"/>
<text text-anchor="middle" x="504.38" y="-253.05" font-family="Helvetica,sans-Serif" font-size="11.00" fill="#e0e6ed">Pi&#45;mono</text>
<text text-anchor="middle" x="504.38" y="-239.55" font-family="Helvetica,sans-Serif" font-size="11.00" fill="#e0e6ed">3/5 → 5/5</text>
</g>
<!-- p13&#45;&gt;pi -->
<g id="edge4" class="edge">
<title>p13&#45;&gt;pi</title>
<path fill="none" stroke="#3dd68c" d="M360.16,-201.46C373.88,-209.1 389.42,-217.02 404.25,-223 421.89,-230.11 442.04,-235.98 459.54,-240.41"/>
<polygon fill="#3dd68c" stroke="#3dd68c" points="458.59,-243.78 469.13,-242.76 460.25,-236.98 458.59,-243.78"/>
</g>
<!-- sg -->
<g id="node6" class="node">
<title>sg</title>
<path fill="#0e1a14" stroke="#3dd68c" d="M537.5,-214C537.5,-214 471.25,-214 471.25,-214 465.25,-214 459.25,-208 459.25,-202 459.25,-202 459.25,-190 459.25,-190 459.25,-184 465.25,-178 471.25,-178 471.25,-178 537.5,-178 537.5,-178 543.5,-178 549.5,-184 549.5,-190 549.5,-190 549.5,-202 549.5,-202 549.5,-208 543.5,-214 537.5,-214"/>
<text text-anchor="middle" x="504.38" y="-199.05" font-family="Helvetica,sans-Serif" font-size="11.00" fill="#e0e6ed">scripts&#45;gleam</text>
<text text-anchor="middle" x="504.38" y="-185.55" font-family="Helvetica,sans-Serif" font-size="11.00" fill="#e0e6ed">3/5 → 5/5</text>
</g>
<!-- p13&#45;&gt;sg -->
<g id="edge5" class="edge">
<title>p13&#45;&gt;sg</title>
<path fill="none" stroke="#3dd68c" d="M367.37,-181.31C391.99,-183.97 421.91,-187.2 447.41,-189.95"/>
<polygon fill="#3dd68c" stroke="#3dd68c" points="446.96,-193.42 457.27,-191.02 447.71,-186.47 446.96,-193.42"/>
</g>
<!-- pm -->
<g id="node7" class="node">
<title>pm</title>
<path fill="#0e1a14" stroke="#3dd68c" d="M530,-160C530,-160 478.75,-160 478.75,-160 472.75,-160 466.75,-154 466.75,-148 466.75,-148 466.75,-136 466.75,-136 466.75,-130 472.75,-124 478.75,-124 478.75,-124 530,-124 530,-124 536,-124 542,-130 542,-136 542,-136 542,-148 542,-148 542,-154 536,-160 530,-160"/>
<text text-anchor="middle" x="504.38" y="-145.05" font-family="Helvetica,sans-Serif" font-size="11.00" fill="#e0e6ed">Patrol MCP</text>
<text text-anchor="middle" x="504.38" y="-131.55" font-family="Helvetica,sans-Serif" font-size="11.00" fill="#e0e6ed">3/5 → 5/5</text>
</g>
<!-- p13&#45;&gt;pm -->
<g id="edge6" class="edge">
<title>p13&#45;&gt;pm</title>
<path fill="none" stroke="#3dd68c" d="M367.37,-166.98C394.56,-161.99 428.2,-155.81 455.22,-150.84"/>
<polygon fill="#3dd68c" stroke="#3dd68c" points="455.67,-154.32 464.87,-149.07 454.41,-147.44 455.67,-154.32"/>
</g>
<!-- mm -->
<g id="node8" class="node">
<title>mm</title>
<path fill="#0e1a14" stroke="#3dd68c" d="M544.25,-106C544.25,-106 464.5,-106 464.5,-106 458.5,-106 452.5,-100 452.5,-94 452.5,-94 452.5,-82 452.5,-82 452.5,-76 458.5,-70 464.5,-70 464.5,-70 544.25,-70 544.25,-70 550.25,-70 556.25,-76 556.25,-82 556.25,-82 556.25,-94 556.25,-94 556.25,-100 550.25,-106 544.25,-106"/>
<text text-anchor="middle" x="504.38" y="-91.05" font-family="Helvetica,sans-Serif" font-size="11.00" fill="#e0e6ed">Marionette MCP</text>
<text text-anchor="middle" x="504.38" y="-77.55" font-family="Helvetica,sans-Serif" font-size="11.00" fill="#e0e6ed">4/5 → 5/5</text>
</g>
<!-- p13&#45;&gt;mm -->
<g id="edge7" class="edge">
<title>p13&#45;&gt;mm</title>
<path fill="none" stroke="#3dd68c" d="M348.46,-150.59C364.25,-138.37 384.39,-124.38 404.25,-115 415.85,-109.52 428.76,-104.99 441.32,-101.3"/>
<polygon fill="#3dd68c" stroke="#3dd68c" points="442.07,-104.73 450.77,-98.68 440.2,-97.98 442.07,-104.73"/>
</g>
<!-- gu -->
<g id="node9" class="node">
<title>gu</title>
<path fill="#0e1a14" stroke="#3dd68c" d="M525.88,-52C525.88,-52 482.88,-52 482.88,-52 476.88,-52 470.88,-46 470.88,-40 470.88,-40 470.88,-28 470.88,-28 470.88,-22 476.88,-16 482.88,-16 482.88,-16 525.88,-16 525.88,-16 531.88,-16 537.88,-22 537.88,-28 537.88,-28 537.88,-40 537.88,-40 537.88,-46 531.88,-52 525.88,-52"/>
<text text-anchor="middle" x="504.38" y="-37.05" font-family="Helvetica,sans-Serif" font-size="11.00" fill="#e0e6ed">Gleam UI</text>
<text text-anchor="middle" x="504.38" y="-23.55" font-family="Helvetica,sans-Serif" font-size="11.00" fill="#e0e6ed">4/5 → 5/5</text>
</g>
<!-- p13&#45;&gt;gu -->
<g id="edge8" class="edge">
<title>p13&#45;&gt;gu</title>
<path fill="none" stroke="#3dd68c" d="M330.75,-150.54C344.97,-124.23 370.65,-83.85 404.25,-61 420.54,-49.92 441.22,-43.38 459.48,-39.51"/>
<polygon fill="#3dd68c" stroke="#3dd68c" points="460.09,-42.96 469.27,-37.67 458.8,-36.08 460.09,-42.96"/>
</g>
<!-- p15 -->
<g id="node4" class="node">
<title>p15</title>
<path fill="#101a26" stroke="#00d4aa" stroke-width="2" d="M1220.25,-206C1220.25,-206 1130.75,-206 1130.75,-206 1124.75,-206 1118.75,-200 1118.75,-194 1118.75,-194 1118.75,-168 1118.75,-168 1118.75,-162 1124.75,-156 1130.75,-156 1130.75,-156 1220.25,-156 1220.25,-156 1226.25,-156 1232.25,-162 1232.25,-168 1232.25,-168 1232.25,-194 1232.25,-194 1232.25,-200 1226.25,-206 1220.25,-206"/>
<text text-anchor="start" x="1151.88" y="-192.55" font-family="Helvetica,sans-Serif" font-weight="bold" font-size="11.00" fill="#e0e6ed">Pass 15</text>
<text text-anchor="start" x="1136.5" y="-171.1" font-family="Helvetica,sans-Serif" font-size="22.00" fill="#00d4aa">60 / 60</text>
<text text-anchor="start" x="1126.75" y="-161.45" font-family="Helvetica,sans-Serif" font-size="9.00" fill="#7a8fa6">100% — 5 final gates</text>
</g>
<!-- p14&#45;&gt;p15 -->
<g id="edge3" class="edge">
<title>p14&#45;&gt;p15</title>
<path fill="none" stroke="#00d4aa" d="M723.8,-198.9C744.25,-224.31 779.31,-261.42 819.75,-277 928.41,-318.85 974.56,-322.49 1081.75,-277 1111.06,-264.56 1135.62,-237.83 1152.09,-215.73"/>
<polygon fill="#00d4aa" stroke="#00d4aa" points="1154.78,-217.99 1157.76,-207.82 1149.09,-213.91 1154.78,-217.99"/>
<text text-anchor="middle" x="950.25" y="-338.51" font-family="Times,serif" font-size="10.00" fill="#7a8fa6">+ 5 final gates</text>
<text text-anchor="middle" x="950.25" y="-325.76" font-family="Times,serif" font-size="10.00" fill="#7a8fa6">(Dart×zk, Cortex×{zk,email},</text>
<text text-anchor="middle" x="950.25" y="-313.01" font-family="Times,serif" font-size="10.00" fill="#7a8fa6">FractalWidgets×{zk,email})</text>
</g>
<!-- dm -->
<g id="node10" class="node">
<title>dm</title>
<path fill="#1a0a10" stroke="#ff4757" d="M972.12,-239.25C972.12,-239.25 928.38,-239.25 928.38,-239.25 922.38,-239.25 916.38,-233.25 916.38,-227.25 916.38,-227.25 916.38,-202.75 916.38,-202.75 916.38,-196.75 922.38,-190.75 928.38,-190.75 928.38,-190.75 972.12,-190.75 972.12,-190.75 978.12,-190.75 984.12,-196.75 984.12,-202.75 984.12,-202.75 984.12,-227.25 984.12,-227.25 984.12,-233.25 978.12,-239.25 972.12,-239.25"/>
<text text-anchor="middle" x="950.25" y="-224.8" font-family="Helvetica,sans-Serif" font-size="11.00" fill="#e0e6ed">Dart MCP</text>
<text text-anchor="middle" x="950.25" y="-211.3" font-family="Helvetica,sans-Serif" font-size="11.00" fill="#e0e6ed">4/5 → 5/5</text>
<text text-anchor="middle" x="950.25" y="-197.8" font-family="Helvetica,sans-Serif" font-size="11.00" fill="#e0e6ed">(zk only)</text>
</g>
<!-- p14&#45;&gt;dm -->
<g id="edge14" class="edge">
<title>p14&#45;&gt;dm</title>
<path fill="none" stroke="#ff4757" stroke-width="2" d="M765.82,-183.49C808.98,-190.9 865.85,-200.67 904.76,-207.36"/>
<polygon fill="#ff4757" stroke="#ff4757" stroke-width="2" points="902.54,-210.53 912.99,-208.77 903.73,-203.63 902.54,-210.53"/>
<text text-anchor="middle" x="792.38" y="-192.25" font-family="Times,serif" font-size="10.00" fill="#7a8fa6">P15</text>
</g>
<!-- cx -->
<g id="node11" class="node">
<title>cx</title>
<path fill="#1a0a10" stroke="#ff4757" d="M980,-172.25C980,-172.25 920.5,-172.25 920.5,-172.25 914.5,-172.25 908.5,-166.25 908.5,-160.25 908.5,-160.25 908.5,-135.75 908.5,-135.75 908.5,-129.75 914.5,-123.75 920.5,-123.75 920.5,-123.75 980,-123.75 980,-123.75 986,-123.75 992,-129.75 992,-135.75 992,-135.75 992,-160.25 992,-160.25 992,-166.25 986,-172.25 980,-172.25"/>
<text text-anchor="middle" x="950.25" y="-157.8" font-family="Helvetica,sans-Serif" font-size="11.00" fill="#e0e6ed">Cortex</text>
<text text-anchor="middle" x="950.25" y="-144.3" font-family="Helvetica,sans-Serif" font-size="11.00" fill="#e0e6ed">3/5 → 5/5</text>
<text text-anchor="middle" x="950.25" y="-130.8" font-family="Helvetica,sans-Serif" font-size="11.00" fill="#e0e6ed">(zk + email)</text>
</g>
<!-- p14&#45;&gt;cx -->
<g id="edge15" class="edge">
<title>p14&#45;&gt;cx</title>
<path fill="none" stroke="#ff4757" stroke-width="2" d="M765.82,-166.76C806.07,-162.64 858.24,-157.31 896.65,-153.38"/>
<polygon fill="#ff4757" stroke="#ff4757" stroke-width="2" points="895.49,-157.02 905.08,-152.52 894.78,-150.05 895.49,-157.02"/>
</g>
<!-- fw -->
<g id="node12" class="node">
<title>fw</title>
<path fill="#1a0a10" stroke="#ff4757" d="M988.62,-105.25C988.62,-105.25 911.88,-105.25 911.88,-105.25 905.88,-105.25 899.88,-99.25 899.88,-93.25 899.88,-93.25 899.88,-68.75 899.88,-68.75 899.88,-62.75 905.88,-56.75 911.88,-56.75 911.88,-56.75 988.62,-56.75 988.62,-56.75 994.62,-56.75 1000.62,-62.75 1000.62,-68.75 1000.62,-68.75 1000.62,-93.25 1000.62,-93.25 1000.62,-99.25 994.62,-105.25 988.62,-105.25"/>
<text text-anchor="middle" x="950.25" y="-90.8" font-family="Helvetica,sans-Serif" font-size="11.00" fill="#e0e6ed">Fractal Widgets</text>
<text text-anchor="middle" x="950.25" y="-77.3" font-family="Helvetica,sans-Serif" font-size="11.00" fill="#e0e6ed">3/5 → 5/5</text>
<text text-anchor="middle" x="950.25" y="-63.8" font-family="Helvetica,sans-Serif" font-size="11.00" fill="#e0e6ed">(zk + email)</text>
</g>
<!-- p14&#45;&gt;fw -->
<g id="edge16" class="edge">
<title>p14&#45;&gt;fw</title>
<path fill="none" stroke="#ff4757" stroke-width="2" d="M750.74,-147.01C771.39,-136.08 796.33,-123.87 819.75,-115 841.79,-106.66 866.68,-99.59 888.71,-94.1"/>
<polygon fill="#ff4757" stroke="#ff4757" stroke-width="2" points="887.77,-97.93 896.66,-92.16 886.11,-91.12 887.77,-97.93"/>
</g>
<!-- goal -->
<g id="node13" class="node">
<title>goal</title>
<ellipse fill="#0a1a14" stroke="#00d4aa" cx="1372.84" cy="-181" rx="103.59" ry="19.8"/>
<text text-anchor="start" x="1312.09" y="-181.55" font-family="Helvetica,sans-Serif" font-weight="bold" font-size="11.00" fill="#e0e6ed">System CPIG: 100%</text>
<text text-anchor="start" x="1307.59" y="-172.45" font-family="Helvetica,sans-Serif" font-size="9.00" fill="#e0e6ed">12/12 subsystems × 5 gates</text>
</g>
<!-- p15&#45;&gt;goal -->
<g id="edge20" class="edge">
<title>p15&#45;&gt;goal</title>
<path fill="none" stroke="#00d4aa" stroke-width="2" d="M1233,-181C1240.91,-181 1249.27,-181 1257.79,-181"/>
<polygon fill="#00d4aa" stroke="#00d4aa" stroke-width="2" points="1256.05,-184.5 1266.05,-181 1256.05,-177.5 1256.05,-184.5"/>
</g>
<!-- pi&#45;&gt;p14 -->
<g id="edge9" class="edge">
<title>pi&#45;&gt;p14</title>
<path fill="none" stroke="#3dd68c" d="M537.94,-243.06C557.8,-238.38 583.5,-231.51 605.5,-223 619.33,-217.65 633.77,-210.91 647.16,-204.13"/>
<polygon fill="#3dd68c" stroke="#3dd68c" points="648.55,-207.35 655.83,-199.65 645.34,-201.13 648.55,-207.35"/>
</g>
<!-- sg&#45;&gt;p14 -->
<g id="edge10" class="edge">
<title>sg&#45;&gt;p14</title>
<path fill="none" stroke="#3dd68c" d="M549.67,-190.84C573.44,-188.07 603.33,-184.59 630.37,-181.43"/>
<polygon fill="#3dd68c" stroke="#3dd68c" points="630.73,-184.92 640.26,-180.28 629.92,-177.96 630.73,-184.92"/>
</g>
<!-- pm&#45;&gt;p14 -->
<g id="edge11" class="edge">
<title>pm&#45;&gt;p14</title>
<path fill="none" stroke="#3dd68c" d="M542.5,-147.83C567.25,-151.72 600.61,-156.96 630.49,-161.65"/>
<polygon fill="#3dd68c" stroke="#3dd68c" points="629.82,-165.09 640.24,-163.18 630.91,-158.17 629.82,-165.09"/>
</g>
<!-- mm&#45;&gt;p14 -->
<g id="edge12" class="edge">
<title>mm&#45;&gt;p14</title>
<path fill="none" stroke="#3dd68c" d="M556.71,-98.96C572.65,-103.12 590.08,-108.47 605.5,-115 622.28,-122.11 639.66,-131.67 655,-140.98"/>
<polygon fill="#3dd68c" stroke="#3dd68c" points="653.14,-143.94 663.48,-146.24 656.82,-137.99 653.14,-143.94"/>
</g>
<!-- gu&#45;&gt;p14 -->
<g id="edge13" class="edge">
<title>gu&#45;&gt;p14</title>
<path fill="none" stroke="#3dd68c" d="M537.99,-37.83C558.58,-41.4 585.05,-48.19 605.5,-61 636.52,-80.43 663.07,-112.81 680.56,-137.77"/>
<polygon fill="#3dd68c" stroke="#3dd68c" points="677.65,-139.72 686.18,-146.02 683.44,-135.78 677.65,-139.72"/>
</g>
<!-- dm&#45;&gt;p15 -->
<g id="edge17" class="edge">
<title>dm&#45;&gt;p15</title>
<path fill="none" stroke="#ff4757" d="M984.19,-209.98C1016.34,-205.09 1066.21,-197.49 1106.84,-191.3"/>
<polygon fill="#ff4757" stroke="#ff4757" points="1107.17,-194.79 1116.53,-189.83 1106.12,-187.87 1107.17,-194.79"/>
</g>
<!-- cx&#45;&gt;p15 -->
<g id="edge18" class="edge">
<title>cx&#45;&gt;p15</title>
<path fill="none" stroke="#ff4757" d="M992.46,-154.09C1024.43,-158.82 1069.42,-165.47 1106.68,-170.98"/>
<polygon fill="#ff4757" stroke="#ff4757" points="1106.07,-174.42 1116.47,-172.42 1107.09,-167.5 1106.07,-174.42"/>
</g>
<!-- fw&#45;&gt;p15 -->
<g id="edge19" class="edge">
<title>fw&#45;&gt;p15</title>
<path fill="none" stroke="#ff4757" d="M1001.05,-89.53C1026.03,-94.9 1056.29,-103.12 1081.75,-115 1100.46,-123.73 1119.35,-136.33 1135.16,-148.19"/>
<polygon fill="#ff4757" stroke="#ff4757" points="1132.82,-150.81 1142.88,-154.13 1137.08,-145.26 1132.82,-150.81"/>
</g>
</g>
</svg>
