<?xml version="1.0" encoding="UTF-8" standalone="no"?>
<!DOCTYPE svg PUBLIC "-//W3C//DTD SVG 1.1//EN"
 "http://www.w3.org/Graphics/SVG/1.1/DTD/svg11.dtd">
<!-- Generated by graphviz version 12.2.1 (0)
 -->
<!-- Title: G25_RuntimeProof Pages: 1 -->
<svg width="1087pt" height="463pt"
 viewBox="0.00 0.00 1086.95 463.25" xmlns="http://www.w3.org/2000/svg" xmlns:xlink="http://www.w3.org/1999/xlink">
<g id="graph0" class="graph" transform="scale(1 1) rotate(0) translate(4 459.25)">
<title>G25_RuntimeProof</title>
<polygon fill="#0a0e17" stroke="none" points="-4,4 -4,-459.25 1082.95,-459.25 1082.95,4 -4,4"/>
<text text-anchor="middle" x="539.48" y="-437.95" font-family="Times,serif" font-size="14.00" fill="#00d4aa">G25 — Pass 17 First Scheduler Tick (T+0 to T+5s, runtime&#45;confirmed)</text>
<g id="clust1" class="cluster">
<title>cluster_op</title>
<polygon fill="#0e1420" stroke="#0e1420" points="26,-344.75 26,-422 168,-422 168,-344.75 26,-344.75"/>
<text text-anchor="middle" x="97" y="-404.7" font-family="Times,serif" font-size="14.00" fill="#00d4aa">Operator</text>
</g>
<g id="clust2" class="cluster">
<title>cluster_tls</title>
<polygon fill="#0e1420" stroke="#0e1420" points="8,-221 8,-315.5 150,-315.5 150,-221 8,-221"/>
<text text-anchor="middle" x="79" y="-298.2" font-family="Times,serif" font-size="14.00" fill="#00d4aa">sa&#45;plan&#45;daemon</text>
<text text-anchor="middle" x="79" y="-280.95" font-family="Times,serif" font-size="14.00" fill="#00d4aa">(TLS serve :8443)</text>
</g>
<g id="clust3" class="cluster">
<title>cluster_sched</title>
<polygon fill="#0e1420" stroke="#0e1420" points="569,-221 569,-315.5 696,-315.5 696,-221 569,-221"/>
<text text-anchor="middle" x="632.5" y="-298.2" font-family="Times,serif" font-size="14.00" fill="#00d4aa">sa&#45;plan&#45;daemon</text>
<text text-anchor="middle" x="632.5" y="-280.95" font-family="Times,serif" font-size="14.00" fill="#00d4aa">(scheduler&#45;run)</text>
</g>
<g id="clust4" class="cluster">
<title>cluster_db</title>
<polygon fill="#0e1420" stroke="#0e1420" points="179,-114.5 179,-191.75 345,-191.75 345,-114.5 179,-114.5"/>
<text text-anchor="middle" x="262" y="-174.45" font-family="Times,serif" font-size="14.00" fill="#00d4aa">oban_jobs (smriti.db)</text>
</g>
<g id="clust5" class="cluster">
<title>cluster_disp</title>
<polygon fill="#0e1420" stroke="#0e1420" points="671,-114.5 671,-191.75 814,-191.75 814,-114.5 671,-114.5"/>
<text text-anchor="middle" x="742.5" y="-174.45" font-family="Times,serif" font-size="14.00" fill="#00d4aa">workers::dispatch</text>
</g>
<g id="clust6" class="cluster">
<title>cluster_mistral</title>
<polygon fill="#0e1420" stroke="#0e1420" points="681,-8 681,-85.25 803,-85.25 803,-8 681,-8"/>
<text text-anchor="middle" x="742" y="-67.95" font-family="Times,serif" font-size="14.00" fill="#00d4aa">mistral.rs</text>
</g>
<g id="clust7" class="cluster">
<title>cluster_zenoh</title>
<polygon fill="#0e1420" stroke="#0e1420" points="903,-114.5 903,-191.75 1037,-191.75 1037,-114.5 903,-114.5"/>
<text text-anchor="middle" x="970" y="-174.45" font-family="Times,serif" font-size="14.00" fill="#00d4aa">Zenoh telemetry</text>
</g>
<!-- OP -->
<g id="node1" class="node">
<title>OP</title>
<path fill="#9b59b6" stroke="#1e2a3a" d="M148.12,-388.75C148.12,-388.75 45.88,-388.75 45.88,-388.75 39.88,-388.75 33.88,-382.75 33.88,-376.75 33.88,-376.75 33.88,-364.75 33.88,-364.75 33.88,-358.75 39.88,-352.75 45.88,-352.75 45.88,-352.75 148.12,-352.75 148.12,-352.75 154.12,-352.75 160.12,-358.75 160.12,-364.75 160.12,-364.75 160.12,-376.75 160.12,-376.75 160.12,-382.75 154.12,-388.75 148.12,-388.75"/>
<text text-anchor="middle" x="97" y="-367.62" font-family="Helvetica,sans-Serif" font-size="10.00" fill="#ffffff">curl /api/v1/cpig/status</text>
</g>
<!-- TLS -->
<g id="node2" class="node">
<title>TLS</title>
<path fill="#3dd68c" stroke="#1e2a3a" d="M103.12,-265C103.12,-265 48.88,-265 48.88,-265 42.88,-265 36.88,-259 36.88,-253 36.88,-253 36.88,-241 36.88,-241 36.88,-235 42.88,-229 48.88,-229 48.88,-229 103.12,-229 103.12,-229 109.12,-229 115.12,-235 115.12,-241 115.12,-241 115.12,-253 115.12,-253 115.12,-259 109.12,-265 103.12,-265"/>
<text text-anchor="middle" x="76" y="-250.25" font-family="Helvetica,sans-Serif" font-size="10.00" fill="#0a0e17">serve.rs</text>
<text text-anchor="middle" x="76" y="-237.5" font-family="Helvetica,sans-Serif" font-size="10.00" fill="#0a0e17">URL resolver</text>
</g>
<!-- OP&#45;&gt;TLS -->
<g id="edge1" class="edge">
<title>OP&#45;&gt;TLS</title>
<path fill="none" stroke="#7a8fa6" d="M34.95,-352.41C27.47,-347.83 20.8,-342.05 16,-334.75 2.07,-313.56 20.78,-289.9 40.88,-272.65"/>
<polygon fill="#7a8fa6" stroke="#7a8fa6" points="43.04,-275.41 48.62,-266.4 38.64,-269.96 43.04,-275.41"/>
<text text-anchor="middle" x="76" y="-326.2" font-family="Helvetica,sans-Serif" font-size="9.00" fill="#9be7d3">01 GET /api/v1/cpig/status</text>
</g>
<!-- TLS&#45;&gt;OP -->
<g id="edge4" class="edge">
<title>TLS&#45;&gt;OP</title>
<path fill="none" stroke="#7a8fa6" d="M95.55,-265.35C109.81,-279.4 128,-300.58 136,-323.5 138.56,-330.83 136.39,-337.78 132.01,-343.96"/>
<polygon fill="#7a8fa6" stroke="#7a8fa6" points="129.47,-341.55 125.32,-351.3 134.64,-346.27 129.47,-341.55"/>
<text text-anchor="middle" x="179.47" y="-326.2" font-family="Helvetica,sans-Serif" font-size="9.00" fill="#9be7d3">04 200 OK + JSON</text>
</g>
<!-- DB -->
<g id="node4" class="node">
<title>DB</title>
<path fill="#141922" stroke="#1e2a3a" d="M285.75,-158.5C285.75,-158.5 238.25,-158.5 238.25,-158.5 232.25,-158.5 226.25,-152.5 226.25,-146.5 226.25,-146.5 226.25,-134.5 226.25,-134.5 226.25,-128.5 232.25,-122.5 238.25,-122.5 238.25,-122.5 285.75,-122.5 285.75,-122.5 291.75,-122.5 297.75,-128.5 297.75,-134.5 297.75,-134.5 297.75,-146.5 297.75,-146.5 297.75,-152.5 291.75,-158.5 285.75,-158.5"/>
<text text-anchor="middle" x="262" y="-137.38" font-family="Helvetica,sans-Serif" font-size="10.00" fill="#e0e6ed">SQLite WAL</text>
</g>
<!-- TLS&#45;&gt;DB -->
<g id="edge2" class="edge">
<title>TLS&#45;&gt;DB</title>
<path fill="none" stroke="#7a8fa6" d="M36.69,-233.3C17.99,-225.13 1.84,-213.5 12.75,-199.75 37.5,-168.55 149.78,-152.48 214.88,-145.66"/>
<polygon fill="#7a8fa6" stroke="#7a8fa6" points="214.97,-149.16 224.57,-144.68 214.27,-142.2 214.97,-149.16"/>
<text text-anchor="middle" x="64.88" y="-202.45" font-family="Helvetica,sans-Serif" font-size="9.00" fill="#9be7d3">02 SELECT cpig matrix</text>
</g>
<!-- SCH -->
<g id="node3" class="node">
<title>SCH</title>
<path fill="#f5a623" stroke="#1e2a3a" d="M662.5,-265C662.5,-265 601.5,-265 601.5,-265 595.5,-265 589.5,-259 589.5,-253 589.5,-253 589.5,-241 589.5,-241 589.5,-235 595.5,-229 601.5,-229 601.5,-229 662.5,-229 662.5,-229 668.5,-229 674.5,-235 674.5,-241 674.5,-241 674.5,-253 674.5,-253 674.5,-259 668.5,-265 662.5,-265"/>
<text text-anchor="middle" x="632" y="-250.25" font-family="Helvetica,sans-Serif" font-size="10.00" fill="#0a0e17">scheduler::run</text>
<text text-anchor="middle" x="632" y="-237.5" font-family="Helvetica,sans-Serif" font-size="10.00" fill="#0a0e17">tick loop</text>
</g>
<!-- SCH&#45;&gt;DB -->
<g id="edge5" class="edge">
<title>SCH&#45;&gt;DB</title>
<path fill="none" stroke="#7a8fa6" d="M589.23,-245.08C496.81,-242.64 285.04,-234.53 263.25,-211 253.26,-200.21 252.49,-183.94 254.44,-169.86"/>
<polygon fill="#7a8fa6" stroke="#7a8fa6" points="257.85,-170.67 256.28,-160.19 250.97,-169.36 257.85,-170.67"/>
<text text-anchor="middle" x="335.62" y="-202.45" font-family="Helvetica,sans-Serif" font-size="9.00" fill="#9be7d3">05 SELECT pending jobs (T+1s)</text>
</g>
<!-- SCH&#45;&gt;DB -->
<g id="edge11" class="edge">
<title>SCH&#45;&gt;DB</title>
<path fill="none" stroke="#7a8fa6" d="M589.14,-243.33C546.77,-239.63 480.65,-230.96 426.75,-211 417.64,-207.63 416.71,-204.06 408,-199.75 375.69,-183.74 337.84,-168.74 308.78,-157.97"/>
<polygon fill="#7a8fa6" stroke="#7a8fa6" points="310.12,-154.74 299.52,-154.58 307.71,-161.31 310.12,-154.74"/>
<text text-anchor="middle" x="492.38" y="-202.45" font-family="Helvetica,sans-Serif" font-size="9.00" fill="#9be7d3">11 UPDATE state=completed</text>
</g>
<!-- DSP -->
<g id="node5" class="node">
<title>DSP</title>
<path fill="#00d4aa" stroke="#1e2a3a" d="M774.75,-158.5C774.75,-158.5 709.25,-158.5 709.25,-158.5 703.25,-158.5 697.25,-152.5 697.25,-146.5 697.25,-146.5 697.25,-134.5 697.25,-134.5 697.25,-128.5 703.25,-122.5 709.25,-122.5 709.25,-122.5 774.75,-122.5 774.75,-122.5 780.75,-122.5 786.75,-128.5 786.75,-134.5 786.75,-134.5 786.75,-146.5 786.75,-146.5 786.75,-152.5 780.75,-158.5 774.75,-158.5"/>
<text text-anchor="middle" x="742" y="-143.75" font-family="Helvetica,sans-Serif" font-size="10.00" fill="#0a0e17">JoinHandle.join</text>
<text text-anchor="middle" x="742" y="-131" font-family="Helvetica,sans-Serif" font-size="10.00" fill="#0a0e17">(Pass 9 fix)</text>
</g>
<!-- SCH&#45;&gt;DSP -->
<g id="edge7" class="edge">
<title>SCH&#45;&gt;DSP</title>
<path fill="none" stroke="#7a8fa6" d="M650.16,-228.74C668,-211.8 695.39,-185.78 715.63,-166.56"/>
<polygon fill="#7a8fa6" stroke="#7a8fa6" points="717.87,-169.25 722.71,-159.82 713.05,-164.17 717.87,-169.25"/>
<text text-anchor="middle" x="740.04" y="-202.45" font-family="Helvetica,sans-Serif" font-size="9.00" fill="#9be7d3">07 dispatch gleam_run x3</text>
</g>
<!-- ZN -->
<g id="node7" class="node">
<title>ZN</title>
<path fill="#141922" stroke="#1e2a3a" d="M1015.88,-158.5C1015.88,-158.5 924.12,-158.5 924.12,-158.5 918.12,-158.5 912.12,-152.5 912.12,-146.5 912.12,-146.5 912.12,-134.5 912.12,-134.5 912.12,-128.5 918.12,-122.5 924.12,-122.5 924.12,-122.5 1015.88,-122.5 1015.88,-122.5 1021.88,-122.5 1027.88,-128.5 1027.88,-134.5 1027.88,-134.5 1027.88,-146.5 1027.88,-146.5 1027.88,-152.5 1021.88,-158.5 1015.88,-158.5"/>
<text text-anchor="middle" x="970" y="-137.38" font-family="Helvetica,sans-Serif" font-size="10.00" fill="#e0e6ed">indrajaal/l4/sched/**</text>
</g>
<!-- SCH&#45;&gt;ZN -->
<g id="edge12" class="edge">
<title>SCH&#45;&gt;ZN</title>
<path fill="none" stroke="#7a8fa6" d="M674.91,-245.82C747.82,-244.73 891.99,-238.98 933,-211 947.22,-201.3 956.4,-184.33 962.06,-169.59"/>
<polygon fill="#7a8fa6" stroke="#7a8fa6" points="965.3,-170.93 965.24,-160.34 958.68,-168.66 965.3,-170.93"/>
<text text-anchor="middle" x="1011.45" y="-202.45" font-family="Helvetica,sans-Serif" font-size="9.00" fill="#9be7d3">12 publish lifecycle envelopes</text>
</g>
<!-- DB&#45;&gt;TLS -->
<g id="edge3" class="edge">
<title>DB&#45;&gt;TLS</title>
<path fill="none" stroke="#7a8fa6" d="M225.97,-156.71C201.27,-167.62 168.07,-183.26 140.25,-199.75 129.12,-206.35 117.48,-214.35 107.22,-221.83"/>
<polygon fill="#7a8fa6" stroke="#7a8fa6" points="105.39,-218.83 99.45,-227.6 109.56,-224.45 105.39,-218.83"/>
<text text-anchor="middle" x="190.12" y="-202.45" font-family="Helvetica,sans-Serif" font-size="9.00" fill="#9be7d3">03 60/60=100% rows</text>
</g>
<!-- DB&#45;&gt;SCH -->
<g id="edge6" class="edge">
<title>DB&#45;&gt;SCH</title>
<path fill="none" stroke="#7a8fa6" d="M297.93,-143.93C355.56,-148.82 471.38,-162.73 562,-199.75 575.69,-205.34 589.54,-213.78 601.26,-221.92"/>
<polygon fill="#7a8fa6" stroke="#7a8fa6" points="599.17,-224.73 609.33,-227.74 603.27,-219.05 599.17,-224.73"/>
<text text-anchor="middle" x="619.66" y="-202.45" font-family="Helvetica,sans-Serif" font-size="9.00" fill="#9be7d3">06 enqueued=3</text>
</g>
<!-- DSP&#45;&gt;SCH -->
<g id="edge10" class="edge">
<title>DSP&#45;&gt;SCH</title>
<path fill="none" stroke="#7a8fa6" d="M772.97,-158.76C794.05,-172.72 815.69,-192.96 801,-211 786.67,-228.6 730.14,-237.62 686.36,-242.06"/>
<polygon fill="#7a8fa6" stroke="#7a8fa6" points="686.1,-238.57 676.47,-243 686.76,-245.54 686.1,-238.57"/>
<text text-anchor="middle" x="867.44" y="-202.45" font-family="Helvetica,sans-Serif" font-size="9.00" fill="#9be7d3">10 executed=4 (3+1 cron)</text>
</g>
<!-- MR -->
<g id="node6" class="node">
<title>MR</title>
<path fill="#00d4aa" stroke="#1e2a3a" d="M783.38,-52C783.38,-52 700.62,-52 700.62,-52 694.62,-52 688.62,-46 688.62,-40 688.62,-40 688.62,-28 688.62,-28 688.62,-22 694.62,-16 700.62,-16 700.62,-16 783.38,-16 783.38,-16 789.38,-16 795.38,-22 795.38,-28 795.38,-28 795.38,-40 795.38,-40 795.38,-46 789.38,-52 783.38,-52"/>
<text text-anchor="middle" x="742" y="-37.25" font-family="Helvetica,sans-Serif" font-size="10.00" fill="#0a0e17">embedding engine</text>
<text text-anchor="middle" x="742" y="-24.5" font-family="Helvetica,sans-Serif" font-size="10.00" fill="#0a0e17">ready 3.8s</text>
</g>
<!-- DSP&#45;&gt;MR -->
<g id="edge8" class="edge">
<title>DSP&#45;&gt;MR</title>
<path fill="none" stroke="#7a8fa6" d="M702.66,-122.04C692.01,-114.57 684.51,-104.87 689,-93.25 693.76,-80.95 702.46,-69.65 711.45,-60.34"/>
<polygon fill="#7a8fa6" stroke="#7a8fa6" points="713.84,-62.9 718.6,-53.43 708.98,-57.86 713.84,-62.9"/>
<text text-anchor="middle" x="731" y="-95.95" font-family="Helvetica,sans-Serif" font-size="9.00" fill="#9be7d3">08 init embedding</text>
</g>
<!-- MR&#45;&gt;DSP -->
<g id="edge9" class="edge">
<title>MR&#45;&gt;DSP</title>
<path fill="none" stroke="#7a8fa6" d="M758.04,-52.48C768.79,-66.39 779.84,-86.46 773,-104.5 771.84,-107.56 770.28,-110.52 768.47,-113.35"/>
<polygon fill="#7a8fa6" stroke="#7a8fa6" points="765.81,-111.06 762.5,-121.13 771.36,-115.32 765.81,-111.06"/>
<text text-anchor="middle" x="806.55" y="-95.95" font-family="Helvetica,sans-Serif" font-size="9.00" fill="#9be7d3">09 ready 3.8s</text>
</g>
<!-- OUT -->
<g id="node8" class="node">
<title>OUT</title>
<polygon fill="#0e1a14" stroke="#3dd68c" points="1058.25,-57.12 875.75,-57.12 875.75,-10.88 1064.25,-10.88 1064.25,-51.12 1058.25,-57.12"/>
<polyline fill="none" stroke="#3dd68c" points="1058.25,-57.12 1058.25,-51.12"/>
<polyline fill="none" stroke="#3dd68c" points="1064.25,-51.12 1058.25,-51.12"/>
<text text-anchor="middle" x="970" y="-43.62" font-family="Helvetica,sans-Serif" font-size="10.00" fill="#3dd68c">✓ Pass 8&#45;10 simultaneously proved</text>
<text text-anchor="middle" x="970" y="-30.88" font-family="Helvetica,sans-Serif" font-size="10.00" fill="#3dd68c">✓ enqueued=3 executed=4</text>
<text text-anchor="middle" x="970" y="-18.12" font-family="Helvetica,sans-Serif" font-size="10.00" fill="#3dd68c">✓ first tick at T+5s</text>
</g>
<!-- ZN&#45;&gt;OUT -->
<g id="edge13" class="edge">
<title>ZN&#45;&gt;OUT</title>
<path fill="none" stroke="#7a8fa6" stroke-dasharray="5,2" d="M970,-122.24C970,-107.76 970,-86.64 970,-68.81"/>
<polygon fill="#7a8fa6" stroke="#7a8fa6" points="973.5,-68.9 970,-58.9 966.5,-68.9 973.5,-68.9"/>
</g>
</g>
</svg>
