<?xml version="1.0" encoding="UTF-8" standalone="no"?>
<!DOCTYPE svg PUBLIC "-//W3C//DTD SVG 1.1//EN"
 "http://www.w3.org/Graphics/SVG/1.1/DTD/svg11.dtd">
<!-- Generated by graphviz version 12.2.1 (0)
 -->
<!-- Title: G26_RemainingRoadmap Pages: 1 -->
<svg width="1438pt" height="405pt"
 viewBox="0.00 0.00 1437.75 404.75" xmlns="http://www.w3.org/2000/svg" xmlns:xlink="http://www.w3.org/1999/xlink">
<g id="graph0" class="graph" transform="scale(1 1) rotate(0) translate(4 400.75)">
<title>G26_RemainingRoadmap</title>
<polygon fill="#0a0e17" stroke="none" points="-4,4 -4,-400.75 1433.75,-400.75 1433.75,4 -4,4"/>
<text text-anchor="middle" x="714.88" y="-379.45" font-family="Times,serif" font-size="14.00" fill="#00d4aa">G26 — Remaining Roadmap (Pass 17 → 25) · 11 items by priority</text>
<g id="clust1" class="cluster">
<title>cluster_legend</title>
<polygon fill="#0a0e17" stroke="#1e2a3a" stroke-dasharray="5,2" points="19.38,-218.12 19.38,-295.12 510.62,-295.12 510.62,-218.12 19.38,-218.12"/>
<text text-anchor="middle" x="265" y="-277.82" font-family="Times,serif" font-size="14.00" fill="#00d4aa">Priority</text>
</g>
<!-- P17 -->
<g id="node1" class="node">
<title>P17</title>
<path fill="#3dd68c" stroke="black" d="M97.75,-105.25C97.75,-105.25 12,-105.25 12,-105.25 6,-105.25 0,-99.25 0,-93.25 0,-93.25 0,-71 0,-71 0,-65 6,-59 12,-59 12,-59 97.75,-59 97.75,-59 103.75,-59 109.75,-65 109.75,-71 109.75,-71 109.75,-93.25 109.75,-93.25 109.75,-99.25 103.75,-105.25 97.75,-105.25"/>
<text text-anchor="middle" x="54.88" y="-91.75" font-family="Helvetica,sans-Serif" font-size="10.00" fill="#0a0e17">Pass 17</text>
<text text-anchor="middle" x="54.88" y="-79" font-family="Helvetica,sans-Serif" font-size="10.00" fill="#0a0e17">Runtime Activation</text>
<text text-anchor="middle" x="54.88" y="-66.25" font-family="Helvetica,sans-Serif" font-size="10.00" fill="#0a0e17">(first tick T+5s)</text>
</g>
<!-- P18 -->
<g id="node2" class="node">
<title>P18</title>
<path fill="#3dd68c" stroke="black" d="M200,-100.12C200,-100.12 157.75,-100.12 157.75,-100.12 151.75,-100.12 145.75,-94.12 145.75,-88.12 145.75,-88.12 145.75,-76.12 145.75,-76.12 145.75,-70.12 151.75,-64.12 157.75,-64.12 157.75,-64.12 200,-64.12 200,-64.12 206,-64.12 212,-70.12 212,-76.12 212,-76.12 212,-88.12 212,-88.12 212,-94.12 206,-100.12 200,-100.12"/>
<text text-anchor="middle" x="178.88" y="-85.38" font-family="Helvetica,sans-Serif" font-size="10.00" fill="#0a0e17">Pass 18</text>
<text text-anchor="middle" x="178.88" y="-72.62" font-family="Helvetica,sans-Serif" font-size="10.00" fill="#0a0e17">P0 closure</text>
</g>
<!-- P17&#45;&gt;P18 -->
<g id="edge1" class="edge">
<title>P17&#45;&gt;P18</title>
<path fill="none" stroke="#7a8fa6" d="M110.1,-82.12C118.13,-82.12 126.31,-82.12 134.09,-82.12"/>
<polygon fill="#7a8fa6" stroke="#7a8fa6" points="134,-85.63 144,-82.13 134,-78.63 134,-85.63"/>
</g>
<!-- P19 -->
<g id="node3" class="node">
<title>P19</title>
<path fill="#f5a623" stroke="black" d="M332.62,-154.12C332.62,-154.12 290.38,-154.12 290.38,-154.12 284.38,-154.12 278.38,-148.12 278.38,-142.12 278.38,-142.12 278.38,-130.12 278.38,-130.12 278.38,-124.12 284.38,-118.12 290.38,-118.12 290.38,-118.12 332.62,-118.12 332.62,-118.12 338.62,-118.12 344.62,-124.12 344.62,-130.12 344.62,-130.12 344.62,-142.12 344.62,-142.12 344.62,-148.12 338.62,-154.12 332.62,-154.12"/>
<text text-anchor="middle" x="311.5" y="-139.38" font-family="Helvetica,sans-Serif" font-size="10.00" fill="#0a0e17">Pass 19</text>
<text text-anchor="middle" x="311.5" y="-126.62" font-family="Helvetica,sans-Serif" font-size="10.00" fill="#0a0e17">P1 closure</text>
</g>
<!-- P18&#45;&gt;P19 -->
<g id="edge2" class="edge">
<title>P18&#45;&gt;P19</title>
<path fill="none" stroke="#7a8fa6" d="M212.16,-95.47C228.89,-102.39 249.52,-110.92 267.57,-118.38"/>
<polygon fill="#7a8fa6" stroke="#7a8fa6" points="266.15,-121.58 276.73,-122.16 268.83,-115.11 266.15,-121.58"/>
</g>
<!-- I1 -->
<g id="node10" class="node">
<title>I1</title>
<path fill="#3dd68c" stroke="black" d="M363,-100.12C363,-100.12 260,-100.12 260,-100.12 254,-100.12 248,-94.12 248,-88.12 248,-88.12 248,-76.12 248,-76.12 248,-70.12 254,-64.12 260,-64.12 260,-64.12 363,-64.12 363,-64.12 369,-64.12 375,-70.12 375,-76.12 375,-76.12 375,-88.12 375,-88.12 375,-94.12 369,-100.12 363,-100.12"/>
<text text-anchor="middle" x="311.5" y="-85.38" font-family="Helvetica,sans-Serif" font-size="10.00" fill="#0a0e17">① URL fix (P0)</text>
<text text-anchor="middle" x="311.5" y="-72.62" font-family="Helvetica,sans-Serif" font-size="10.00" fill="#0a0e17">✓ COMPLETED Pass 18</text>
</g>
<!-- P18&#45;&gt;I1 -->
<g id="edge9" class="edge">
<title>P18&#45;&gt;I1</title>
<path fill="none" stroke="#3dd68c" d="M212.16,-82.12C219.68,-82.12 227.98,-82.12 236.48,-82.12"/>
<polygon fill="#3dd68c" stroke="#3dd68c" points="236.21,-85.63 246.21,-82.13 236.21,-78.63 236.21,-85.63"/>
</g>
<!-- I3 -->
<g id="node12" class="node">
<title>I3</title>
<path fill="#3dd68c" stroke="black" d="M363,-46.25C363,-46.25 260,-46.25 260,-46.25 254,-46.25 248,-40.25 248,-34.25 248,-34.25 248,-12 248,-12 248,-6 254,0 260,0 260,0 363,0 363,0 369,0 375,-6 375,-12 375,-12 375,-34.25 375,-34.25 375,-40.25 369,-46.25 363,-46.25"/>
<text text-anchor="middle" x="311.5" y="-32.75" font-family="Helvetica,sans-Serif" font-size="10.00" fill="#0a0e17">③ Wiring Guards bulk</text>
<text text-anchor="middle" x="311.5" y="-20" font-family="Helvetica,sans-Serif" font-size="10.00" fill="#0a0e17">evidence (P1)</text>
<text text-anchor="middle" x="311.5" y="-7.25" font-family="Helvetica,sans-Serif" font-size="10.00" fill="#0a0e17">✓ COMPLETED Pass 18</text>
</g>
<!-- P18&#45;&gt;I3 -->
<g id="edge10" class="edge">
<title>P18&#45;&gt;I3</title>
<path fill="none" stroke="#3dd68c" d="M212.16,-67.54C223.02,-62.64 235.54,-56.98 247.92,-51.39"/>
<polygon fill="#3dd68c" stroke="#3dd68c" points="249.2,-54.65 256.87,-47.35 246.32,-48.27 249.2,-54.65"/>
</g>
<!-- P20 -->
<g id="node4" class="node">
<title>P20</title>
<path fill="#00d4aa" stroke="black" d="M493.38,-208.12C493.38,-208.12 457.88,-208.12 457.88,-208.12 451.88,-208.12 445.88,-202.12 445.88,-196.12 445.88,-196.12 445.88,-184.12 445.88,-184.12 445.88,-178.12 451.88,-172.12 457.88,-172.12 457.88,-172.12 493.38,-172.12 493.38,-172.12 499.38,-172.12 505.38,-178.12 505.38,-184.12 505.38,-184.12 505.38,-196.12 505.38,-196.12 505.38,-202.12 499.38,-208.12 493.38,-208.12"/>
<text text-anchor="middle" x="475.62" y="-193.38" font-family="Helvetica,sans-Serif" font-size="10.00" fill="#0a0e17">Pass 20</text>
<text text-anchor="middle" x="475.62" y="-180.62" font-family="Helvetica,sans-Serif" font-size="10.00" fill="#0a0e17">P2 part 1</text>
</g>
<!-- P19&#45;&gt;P20 -->
<g id="edge3" class="edge">
<title>P19&#45;&gt;P20</title>
<path fill="none" stroke="#7a8fa6" d="M344.92,-146.92C370.75,-155.53 407.03,-167.61 434.65,-176.81"/>
<polygon fill="#7a8fa6" stroke="#7a8fa6" points="433.5,-180.12 444.09,-179.96 435.71,-173.47 433.5,-180.12"/>
</g>
<!-- I2 -->
<g id="node11" class="node">
<title>I2</title>
<path fill="#f5a623" stroke="black" d="M528.25,-154.12C528.25,-154.12 423,-154.12 423,-154.12 417,-154.12 411,-148.12 411,-142.12 411,-142.12 411,-130.12 411,-130.12 411,-124.12 417,-118.12 423,-118.12 423,-118.12 528.25,-118.12 528.25,-118.12 534.25,-118.12 540.25,-124.12 540.25,-130.12 540.25,-130.12 540.25,-142.12 540.25,-142.12 540.25,-148.12 534.25,-154.12 528.25,-154.12"/>
<text text-anchor="middle" x="475.62" y="-139.38" font-family="Helvetica,sans-Serif" font-size="10.00" fill="#0a0e17">② cpig&#45;validator&#45;hourly</text>
<text text-anchor="middle" x="475.62" y="-126.62" font-family="Helvetica,sans-Serif" font-size="10.00" fill="#0a0e17">first cron fire (P1)</text>
</g>
<!-- P19&#45;&gt;I2 -->
<g id="edge11" class="edge">
<title>P19&#45;&gt;I2</title>
<path fill="none" stroke="#f5a623" d="M344.92,-136.12C360.6,-136.12 380.14,-136.12 399.26,-136.12"/>
<polygon fill="#f5a623" stroke="#f5a623" points="399.24,-139.63 409.24,-136.13 399.24,-132.63 399.24,-139.63"/>
</g>
<!-- I4 -->
<g id="node13" class="node">
<title>I4</title>
<path fill="#f5a623" stroke="black" d="M525.25,-100.12C525.25,-100.12 426,-100.12 426,-100.12 420,-100.12 414,-94.12 414,-88.12 414,-88.12 414,-76.12 414,-76.12 414,-70.12 420,-64.12 426,-64.12 426,-64.12 525.25,-64.12 525.25,-64.12 531.25,-64.12 537.25,-70.12 537.25,-76.12 537.25,-76.12 537.25,-88.12 537.25,-88.12 537.25,-94.12 531.25,-100.12 525.25,-100.12"/>
<text text-anchor="middle" x="475.62" y="-85.38" font-family="Helvetica,sans-Serif" font-size="10.00" fill="#0a0e17">④ Apalache discharge</text>
<text text-anchor="middle" x="475.62" y="-72.62" font-family="Helvetica,sans-Serif" font-size="10.00" fill="#0a0e17">Agda postulate (P1)</text>
</g>
<!-- P19&#45;&gt;I4 -->
<g id="edge12" class="edge">
<title>P19&#45;&gt;I4</title>
<path fill="none" stroke="#f5a623" d="M344.92,-125.33C363.18,-119.24 386.68,-111.42 408.64,-104.1"/>
<polygon fill="#f5a623" stroke="#f5a623" points="409.45,-107.52 417.83,-101.04 407.24,-100.88 409.45,-107.52"/>
</g>
<!-- P21 -->
<g id="node5" class="node">
<title>P21</title>
<path fill="#00d4aa" stroke="black" d="M642.12,-235.12C642.12,-235.12 606.62,-235.12 606.62,-235.12 600.62,-235.12 594.62,-229.12 594.62,-223.12 594.62,-223.12 594.62,-211.12 594.62,-211.12 594.62,-205.12 600.62,-199.12 606.62,-199.12 606.62,-199.12 642.12,-199.12 642.12,-199.12 648.12,-199.12 654.12,-205.12 654.12,-211.12 654.12,-211.12 654.12,-223.12 654.12,-223.12 654.12,-229.12 648.12,-235.12 642.12,-235.12"/>
<text text-anchor="middle" x="624.38" y="-220.38" font-family="Helvetica,sans-Serif" font-size="10.00" fill="#0a0e17">Pass 21</text>
<text text-anchor="middle" x="624.38" y="-207.62" font-family="Helvetica,sans-Serif" font-size="10.00" fill="#0a0e17">P2 part 2</text>
</g>
<!-- P20&#45;&gt;P21 -->
<g id="edge4" class="edge">
<title>P20&#45;&gt;P21</title>
<path fill="none" stroke="#7a8fa6" d="M505.62,-195.46C527.76,-199.53 558.53,-205.19 583.06,-209.71"/>
<polygon fill="#7a8fa6" stroke="#7a8fa6" points="582.23,-213.11 592.7,-211.48 583.5,-206.23 582.23,-213.11"/>
</g>
<!-- I5 -->
<g id="node14" class="node">
<title>I5</title>
<path fill="#00d4aa" stroke="black" d="M660.5,-181.12C660.5,-181.12 588.25,-181.12 588.25,-181.12 582.25,-181.12 576.25,-175.12 576.25,-169.12 576.25,-169.12 576.25,-157.12 576.25,-157.12 576.25,-151.12 582.25,-145.12 588.25,-145.12 588.25,-145.12 660.5,-145.12 660.5,-145.12 666.5,-145.12 672.5,-151.12 672.5,-157.12 672.5,-157.12 672.5,-169.12 672.5,-169.12 672.5,-175.12 666.5,-181.12 660.5,-181.12"/>
<text text-anchor="middle" x="624.38" y="-166.38" font-family="Helvetica,sans-Serif" font-size="10.00" fill="#0a0e17">⑤ .gemini/skills/</text>
<text text-anchor="middle" x="624.38" y="-153.62" font-family="Helvetica,sans-Serif" font-size="10.00" fill="#0a0e17">parity (P2)</text>
</g>
<!-- P20&#45;&gt;I5 -->
<g id="edge13" class="edge">
<title>P20&#45;&gt;I5</title>
<path fill="none" stroke="#00d4aa" d="M505.62,-184.79C522.53,-181.68 544.49,-177.64 564.85,-173.89"/>
<polygon fill="#00d4aa" stroke="#00d4aa" points="565.27,-177.37 574.47,-172.12 564,-170.49 565.27,-177.37"/>
</g>
<!-- P22 -->
<g id="node6" class="node">
<title>P22</title>
<path fill="#00d4aa" stroke="black" d="M781.12,-262.12C781.12,-262.12 745.62,-262.12 745.62,-262.12 739.62,-262.12 733.62,-256.12 733.62,-250.12 733.62,-250.12 733.62,-238.12 733.62,-238.12 733.62,-232.12 739.62,-226.12 745.62,-226.12 745.62,-226.12 781.12,-226.12 781.12,-226.12 787.12,-226.12 793.12,-232.12 793.12,-238.12 793.12,-238.12 793.12,-250.12 793.12,-250.12 793.12,-256.12 787.12,-262.12 781.12,-262.12"/>
<text text-anchor="middle" x="763.38" y="-247.38" font-family="Helvetica,sans-Serif" font-size="10.00" fill="#0a0e17">Pass 22</text>
<text text-anchor="middle" x="763.38" y="-234.62" font-family="Helvetica,sans-Serif" font-size="10.00" fill="#0a0e17">P2 part 3</text>
</g>
<!-- P21&#45;&gt;P22 -->
<g id="edge5" class="edge">
<title>P21&#45;&gt;P22</title>
<path fill="none" stroke="#7a8fa6" d="M654.43,-222.85C674.14,-226.73 700.45,-231.92 722.17,-236.2"/>
<polygon fill="#7a8fa6" stroke="#7a8fa6" points="721.39,-239.61 731.88,-238.11 722.74,-232.75 721.39,-239.61"/>
</g>
<!-- I6 -->
<g id="node15" class="node">
<title>I6</title>
<path fill="#00d4aa" stroke="black" d="M806.25,-208.12C806.25,-208.12 720.5,-208.12 720.5,-208.12 714.5,-208.12 708.5,-202.12 708.5,-196.12 708.5,-196.12 708.5,-184.12 708.5,-184.12 708.5,-178.12 714.5,-172.12 720.5,-172.12 720.5,-172.12 806.25,-172.12 806.25,-172.12 812.25,-172.12 818.25,-178.12 818.25,-184.12 818.25,-184.12 818.25,-196.12 818.25,-196.12 818.25,-202.12 812.25,-208.12 806.25,-208.12"/>
<text text-anchor="middle" x="763.38" y="-193.38" font-family="Helvetica,sans-Serif" font-size="10.00" fill="#0a0e17">⑥ Zenoh telemetry</text>
<text text-anchor="middle" x="763.38" y="-180.62" font-family="Helvetica,sans-Serif" font-size="10.00" fill="#0a0e17">live subscriber (P2)</text>
</g>
<!-- P21&#45;&gt;I6 -->
<g id="edge14" class="edge">
<title>P21&#45;&gt;I6</title>
<path fill="none" stroke="#00d4aa" d="M654.43,-211.4C667.01,-208.92 682.28,-205.91 697.32,-202.95"/>
<polygon fill="#00d4aa" stroke="#00d4aa" points="697.58,-206.46 706.71,-201.09 696.23,-199.59 697.58,-206.46"/>
</g>
<!-- P23 -->
<g id="node7" class="node">
<title>P23</title>
<path fill="#7a8fa6" stroke="black" d="M931.38,-289.12C931.38,-289.12 895.88,-289.12 895.88,-289.12 889.88,-289.12 883.88,-283.12 883.88,-277.12 883.88,-277.12 883.88,-265.12 883.88,-265.12 883.88,-259.12 889.88,-253.12 895.88,-253.12 895.88,-253.12 931.38,-253.12 931.38,-253.12 937.38,-253.12 943.38,-259.12 943.38,-265.12 943.38,-265.12 943.38,-277.12 943.38,-277.12 943.38,-283.12 937.38,-289.12 931.38,-289.12"/>
<text text-anchor="middle" x="913.62" y="-274.38" font-family="Helvetica,sans-Serif" font-size="10.00" fill="#0a0e17">Pass 23</text>
<text text-anchor="middle" x="913.62" y="-261.62" font-family="Helvetica,sans-Serif" font-size="10.00" fill="#0a0e17">P3 part 1</text>
</g>
<!-- P22&#45;&gt;P23 -->
<g id="edge6" class="edge">
<title>P22&#45;&gt;P23</title>
<path fill="none" stroke="#7a8fa6" d="M793.31,-249.39C815.79,-253.49 847.23,-259.22 872.2,-263.76"/>
<polygon fill="#7a8fa6" stroke="#7a8fa6" points="871.55,-267.2 882.02,-265.55 872.81,-260.32 871.55,-267.2"/>
</g>
<!-- I7 -->
<g id="node16" class="node">
<title>I7</title>
<path fill="#00d4aa" stroke="black" d="M961,-235.12C961,-235.12 866.25,-235.12 866.25,-235.12 860.25,-235.12 854.25,-229.12 854.25,-223.12 854.25,-223.12 854.25,-211.12 854.25,-211.12 854.25,-205.12 860.25,-199.12 866.25,-199.12 866.25,-199.12 961,-199.12 961,-199.12 967,-199.12 973,-205.12 973,-211.12 973,-211.12 973,-223.12 973,-223.12 973,-229.12 967,-235.12 961,-235.12"/>
<text text-anchor="middle" x="913.62" y="-220.38" font-family="Helvetica,sans-Serif" font-size="10.00" fill="#0a0e17">⑦ FluffyChat L1</text>
<text text-anchor="middle" x="913.62" y="-207.62" font-family="Helvetica,sans-Serif" font-size="10.00" fill="#0a0e17">main.dart wiring (P2)</text>
</g>
<!-- P22&#45;&gt;I7 -->
<g id="edge15" class="edge">
<title>P22&#45;&gt;I7</title>
<path fill="none" stroke="#00d4aa" d="M793.31,-238.86C807.62,-236.25 825.55,-232.98 843.14,-229.78"/>
<polygon fill="#00d4aa" stroke="#00d4aa" points="843.31,-233.31 852.52,-228.07 842.05,-226.42 843.31,-233.31"/>
</g>
<!-- P24 -->
<g id="node8" class="node">
<title>P24</title>
<path fill="#7a8fa6" stroke="black" d="M1078.25,-316.12C1078.25,-316.12 1042.75,-316.12 1042.75,-316.12 1036.75,-316.12 1030.75,-310.12 1030.75,-304.12 1030.75,-304.12 1030.75,-292.12 1030.75,-292.12 1030.75,-286.12 1036.75,-280.12 1042.75,-280.12 1042.75,-280.12 1078.25,-280.12 1078.25,-280.12 1084.25,-280.12 1090.25,-286.12 1090.25,-292.12 1090.25,-292.12 1090.25,-304.12 1090.25,-304.12 1090.25,-310.12 1084.25,-316.12 1078.25,-316.12"/>
<text text-anchor="middle" x="1060.5" y="-301.38" font-family="Helvetica,sans-Serif" font-size="10.00" fill="#0a0e17">Pass 24</text>
<text text-anchor="middle" x="1060.5" y="-288.62" font-family="Helvetica,sans-Serif" font-size="10.00" fill="#0a0e17">P3 part 2</text>
</g>
<!-- P23&#45;&gt;P24 -->
<g id="edge7" class="edge">
<title>P23&#45;&gt;P24</title>
<path fill="none" stroke="#7a8fa6" d="M943.59,-276.52C965.31,-280.57 995.29,-286.16 1019.32,-290.64"/>
<polygon fill="#7a8fa6" stroke="#7a8fa6" points="1018.62,-294.07 1029.09,-292.46 1019.9,-287.19 1018.62,-294.07"/>
</g>
<!-- I8 -->
<g id="node17" class="node">
<title>I8</title>
<path fill="#7a8fa6" stroke="black" d="M1100,-262.12C1100,-262.12 1021,-262.12 1021,-262.12 1015,-262.12 1009,-256.12 1009,-250.12 1009,-250.12 1009,-238.12 1009,-238.12 1009,-232.12 1015,-226.12 1021,-226.12 1021,-226.12 1100,-226.12 1100,-226.12 1106,-226.12 1112,-232.12 1112,-238.12 1112,-238.12 1112,-250.12 1112,-250.12 1112,-256.12 1106,-262.12 1100,-262.12"/>
<text text-anchor="middle" x="1060.5" y="-247.38" font-family="Helvetica,sans-Serif" font-size="10.00" fill="#0a0e17">⑧ Federated CPIG</text>
<text text-anchor="middle" x="1060.5" y="-234.62" font-family="Helvetica,sans-Serif" font-size="10.00" fill="#0a0e17">cross&#45;mesh (P3)</text>
</g>
<!-- P23&#45;&gt;I8 -->
<g id="edge16" class="edge">
<title>P23&#45;&gt;I8</title>
<path fill="none" stroke="#7a8fa6" d="M943.59,-265.73C959.05,-262.85 978.7,-259.18 997.41,-255.7"/>
<polygon fill="#7a8fa6" stroke="#7a8fa6" points="997.91,-259.16 1007.1,-253.89 996.63,-252.28 997.91,-259.16"/>
</g>
<!-- P25 -->
<g id="node9" class="node">
<title>P25</title>
<path fill="#7a8fa6" stroke="black" d="M1232.25,-370.12C1232.25,-370.12 1190,-370.12 1190,-370.12 1184,-370.12 1178,-364.12 1178,-358.12 1178,-358.12 1178,-346.12 1178,-346.12 1178,-340.12 1184,-334.12 1190,-334.12 1190,-334.12 1232.25,-334.12 1232.25,-334.12 1238.25,-334.12 1244.25,-340.12 1244.25,-346.12 1244.25,-346.12 1244.25,-358.12 1244.25,-358.12 1244.25,-364.12 1238.25,-370.12 1232.25,-370.12"/>
<text text-anchor="middle" x="1211.12" y="-355.38" font-family="Helvetica,sans-Serif" font-size="10.00" fill="#0a0e17">Pass 25</text>
<text text-anchor="middle" x="1211.12" y="-342.62" font-family="Helvetica,sans-Serif" font-size="10.00" fill="#0a0e17">P3 closure</text>
</g>
<!-- P24&#45;&gt;P25 -->
<g id="edge8" class="edge">
<title>P24&#45;&gt;P25</title>
<path fill="none" stroke="#7a8fa6" d="M1090.51,-308.66C1112.29,-316.58 1142.47,-327.54 1167.07,-336.48"/>
<polygon fill="#7a8fa6" stroke="#7a8fa6" points="1165.56,-339.66 1176.15,-339.78 1167.95,-333.08 1165.56,-339.66"/>
</g>
<!-- I9 -->
<g id="node18" class="node">
<title>I9</title>
<path fill="#7a8fa6" stroke="black" d="M1242.75,-316.12C1242.75,-316.12 1179.5,-316.12 1179.5,-316.12 1173.5,-316.12 1167.5,-310.12 1167.5,-304.12 1167.5,-304.12 1167.5,-292.12 1167.5,-292.12 1167.5,-286.12 1173.5,-280.12 1179.5,-280.12 1179.5,-280.12 1242.75,-280.12 1242.75,-280.12 1248.75,-280.12 1254.75,-286.12 1254.75,-292.12 1254.75,-292.12 1254.75,-304.12 1254.75,-304.12 1254.75,-310.12 1248.75,-316.12 1242.75,-316.12"/>
<text text-anchor="middle" x="1211.12" y="-301.38" font-family="Helvetica,sans-Serif" font-size="10.00" fill="#0a0e17">⑨ Multi&#45;region</text>
<text text-anchor="middle" x="1211.12" y="-288.62" font-family="Helvetica,sans-Serif" font-size="10.00" fill="#0a0e17">voting (P3)</text>
</g>
<!-- P24&#45;&gt;I9 -->
<g id="edge17" class="edge">
<title>P24&#45;&gt;I9</title>
<path fill="none" stroke="#7a8fa6" d="M1090.51,-298.12C1109.07,-298.12 1133.73,-298.12 1155.83,-298.12"/>
<polygon fill="#7a8fa6" stroke="#7a8fa6" points="1155.6,-301.63 1165.6,-298.13 1155.6,-294.63 1155.6,-301.63"/>
</g>
<!-- I10 -->
<g id="node19" class="node">
<title>I10</title>
<path fill="#7a8fa6" stroke="black" d="M1262.25,-262.12C1262.25,-262.12 1160,-262.12 1160,-262.12 1154,-262.12 1148,-256.12 1148,-250.12 1148,-250.12 1148,-238.12 1148,-238.12 1148,-232.12 1154,-226.12 1160,-226.12 1160,-226.12 1262.25,-226.12 1262.25,-226.12 1268.25,-226.12 1274.25,-232.12 1274.25,-238.12 1274.25,-238.12 1274.25,-250.12 1274.25,-250.12 1274.25,-256.12 1268.25,-262.12 1262.25,-262.12"/>
<text text-anchor="middle" x="1211.12" y="-247.38" font-family="Helvetica,sans-Serif" font-size="10.00" fill="#0a0e17">⑩ Continuous</text>
<text text-anchor="middle" x="1211.12" y="-234.62" font-family="Helvetica,sans-Serif" font-size="10.00" fill="#0a0e17">TLA+/Apalache CI (P3)</text>
</g>
<!-- P24&#45;&gt;I10 -->
<g id="edge18" class="edge">
<title>P24&#45;&gt;I10</title>
<path fill="none" stroke="#7a8fa6" d="M1090.51,-287.59C1107.05,-281.58 1128.43,-273.81 1148.54,-266.5"/>
<polygon fill="#7a8fa6" stroke="#7a8fa6" points="1149.59,-269.84 1157.8,-263.14 1147.2,-263.26 1149.59,-269.84"/>
</g>
<!-- I11 -->
<g id="node20" class="node">
<title>I11</title>
<path fill="#7a8fa6" stroke="black" d="M1417.75,-371.5C1417.75,-371.5 1322.25,-371.5 1322.25,-371.5 1316.25,-371.5 1310.25,-365.5 1310.25,-359.5 1310.25,-359.5 1310.25,-344.75 1310.25,-344.75 1310.25,-338.75 1316.25,-332.75 1322.25,-332.75 1322.25,-332.75 1417.75,-332.75 1417.75,-332.75 1423.75,-332.75 1429.75,-338.75 1429.75,-344.75 1429.75,-344.75 1429.75,-359.5 1429.75,-359.5 1429.75,-365.5 1423.75,-371.5 1417.75,-371.5"/>
<text text-anchor="middle" x="1370" y="-358" font-family="Helvetica,sans-Serif" font-size="10.00" fill="#0a0e17">⑪ Pass&#45;25 closure</text>
<text text-anchor="middle" x="1370" y="-340" font-family="Helvetica,sans-Serif" font-size="10.00" fill="#0a0e17">federation event (P3)</text>
</g>
<!-- P25&#45;&gt;I11 -->
<g id="edge19" class="edge">
<title>P25&#45;&gt;I11</title>
<path fill="none" stroke="#7a8fa6" d="M1244.63,-352.12C1260.31,-352.12 1279.77,-352.12 1298.61,-352.12"/>
<polygon fill="#7a8fa6" stroke="#7a8fa6" points="1298.39,-355.63 1308.39,-352.13 1298.39,-348.63 1298.39,-355.63"/>
</g>
<!-- L0 -->
<g id="node21" class="node">
<title>L0</title>
<path fill="#3dd68c" stroke="black" d="M70.38,-262.12C70.38,-262.12 39.38,-262.12 39.38,-262.12 33.38,-262.12 27.38,-256.12 27.38,-250.12 27.38,-250.12 27.38,-238.12 27.38,-238.12 27.38,-232.12 33.38,-226.12 39.38,-226.12 39.38,-226.12 70.38,-226.12 70.38,-226.12 76.38,-226.12 82.38,-232.12 82.38,-238.12 82.38,-238.12 82.38,-250.12 82.38,-250.12 82.38,-256.12 76.38,-262.12 70.38,-262.12"/>
<text text-anchor="middle" x="54.88" y="-241" font-family="Helvetica,sans-Serif" font-size="10.00" fill="#0a0e17">P0 done</text>
</g>
<!-- L1 -->
<g id="node22" class="node">
<title>L1</title>
<path fill="#f5a623" stroke="black" d="M193.88,-262.12C193.88,-262.12 163.88,-262.12 163.88,-262.12 157.88,-262.12 151.88,-256.12 151.88,-250.12 151.88,-250.12 151.88,-238.12 151.88,-238.12 151.88,-232.12 157.88,-226.12 163.88,-226.12 163.88,-226.12 193.88,-226.12 193.88,-226.12 199.88,-226.12 205.88,-232.12 205.88,-238.12 205.88,-238.12 205.88,-250.12 205.88,-250.12 205.88,-256.12 199.88,-262.12 193.88,-262.12"/>
<text text-anchor="middle" x="178.88" y="-241" font-family="Helvetica,sans-Serif" font-size="10.00" fill="#0a0e17">P1</text>
</g>
<!-- L0&#45;&gt;L1 -->
<!-- L2 -->
<g id="node23" class="node">
<title>L2</title>
<path fill="#00d4aa" stroke="black" d="M326.5,-262.12C326.5,-262.12 296.5,-262.12 296.5,-262.12 290.5,-262.12 284.5,-256.12 284.5,-250.12 284.5,-250.12 284.5,-238.12 284.5,-238.12 284.5,-232.12 290.5,-226.12 296.5,-226.12 296.5,-226.12 326.5,-226.12 326.5,-226.12 332.5,-226.12 338.5,-232.12 338.5,-238.12 338.5,-238.12 338.5,-250.12 338.5,-250.12 338.5,-256.12 332.5,-262.12 326.5,-262.12"/>
<text text-anchor="middle" x="311.5" y="-241" font-family="Helvetica,sans-Serif" font-size="10.00" fill="#0a0e17">P2</text>
</g>
<!-- L1&#45;&gt;L2 -->
<!-- L3 -->
<g id="node24" class="node">
<title>L3</title>
<path fill="#7a8fa6" stroke="black" d="M490.62,-262.12C490.62,-262.12 460.62,-262.12 460.62,-262.12 454.62,-262.12 448.62,-256.12 448.62,-250.12 448.62,-250.12 448.62,-238.12 448.62,-238.12 448.62,-232.12 454.62,-226.12 460.62,-226.12 460.62,-226.12 490.62,-226.12 490.62,-226.12 496.62,-226.12 502.62,-232.12 502.62,-238.12 502.62,-238.12 502.62,-250.12 502.62,-250.12 502.62,-256.12 496.62,-262.12 490.62,-262.12"/>
<text text-anchor="middle" x="475.62" y="-241" font-family="Helvetica,sans-Serif" font-size="10.00" fill="#0a0e17">P3</text>
</g>
<!-- L2&#45;&gt;L3 -->
</g>
</svg>
