<?xml version="1.0" encoding="UTF-8" standalone="no"?>
<!DOCTYPE svg PUBLIC "-//W3C//DTD SVG 1.1//EN"
 "http://www.w3.org/Graphics/SVG/1.1/DTD/svg11.dtd">
<!-- Generated by graphviz version 12.2.1 (0)
 -->
<!-- Title: G27_ZenohSubscriberFlow Pages: 1 -->
<svg width="1485pt" height="264pt"
 viewBox="0.00 0.00 1484.75 263.65" xmlns="http://www.w3.org/2000/svg" xmlns:xlink="http://www.w3.org/1999/xlink">
<g id="graph0" class="graph" transform="scale(1 1) rotate(0) translate(4 259.65)">
<title>G27_ZenohSubscriberFlow</title>
<polygon fill="#0a0e17" stroke="none" points="-4,4 -4,-259.65 1480.75,-259.65 1480.75,4 -4,4"/>
<text text-anchor="middle" x="738.38" y="-238.35" font-family="Times,serif" font-size="14.00" fill="#00d4aa">G27 — Zenoh Subscriber Flow · cpig&#45;validator → Zenoh → cpig_subscriber actor (Pass 19)</text>
<g id="clust1" class="cluster">
<title>cluster_legend</title>
<polygon fill="#0a0e17" stroke="#1e2a3a" stroke-dasharray="5,2" points="3.44,-145.4 3.44,-222.4 452.19,-222.4 452.19,-145.4 3.44,-145.4"/>
<text text-anchor="middle" x="227.81" y="-205.1" font-family="Times,serif" font-size="14.00" fill="#00d4aa">Pass 19 additions in green · validator orange · transport teal</text>
</g>
<!-- Cron -->
<g id="node1" class="node">
<title>Cron</title>
<path fill="#7a8fa6" stroke="black" d="M73.62,-130.4C73.62,-130.4 37.38,-130.4 37.38,-130.4 31.38,-130.4 25.38,-124.4 25.38,-118.4 25.38,-118.4 25.38,-106.4 25.38,-106.4 25.38,-100.4 31.38,-94.4 37.38,-94.4 37.38,-94.4 73.62,-94.4 73.62,-94.4 79.62,-94.4 85.62,-100.4 85.62,-106.4 85.62,-106.4 85.62,-118.4 85.62,-118.4 85.62,-124.4 79.62,-130.4 73.62,-130.4"/>
<text text-anchor="middle" x="55.5" y="-115.65" font-family="Helvetica,sans-Serif" font-size="10.00" fill="#0a0e17">cron *:00</text>
<text text-anchor="middle" x="55.5" y="-102.9" font-family="Helvetica,sans-Serif" font-size="10.00" fill="#0a0e17">(hourly)</text>
</g>
<!-- Validator -->
<g id="node2" class="node">
<title>Validator</title>
<path fill="#f5a623" stroke="black" d="M267,-135.52C267,-135.52 173.75,-135.52 173.75,-135.52 167.75,-135.52 161.75,-129.52 161.75,-123.52 161.75,-123.52 161.75,-101.27 161.75,-101.27 161.75,-95.27 167.75,-89.27 173.75,-89.27 173.75,-89.27 267,-89.27 267,-89.27 273,-89.27 279,-95.27 279,-101.27 279,-101.27 279,-123.52 279,-123.52 279,-129.52 273,-135.52 267,-135.52"/>
<text text-anchor="middle" x="220.38" y="-122.02" font-family="Helvetica,sans-Serif" font-size="10.00" fill="#0a0e17">cpig&#45;validator&#45;hourly</text>
<text text-anchor="middle" x="220.38" y="-109.27" font-family="Helvetica,sans-Serif" font-size="10.00" fill="#0a0e17">(.claude/scripts/</text>
<text text-anchor="middle" x="220.38" y="-96.52" font-family="Helvetica,sans-Serif" font-size="10.00" fill="#0a0e17">cpig&#45;validator.sh)</text>
</g>
<!-- Cron&#45;&gt;Validator -->
<g id="edge1" class="edge">
<title>Cron&#45;&gt;Validator</title>
<path fill="none" stroke="#7a8fa6" d="M86,-112.4C103.95,-112.4 127.7,-112.4 150.17,-112.4"/>
<polygon fill="#7a8fa6" stroke="#7a8fa6" points="149.9,-115.9 159.9,-112.4 149.9,-108.9 149.9,-115.9"/>
<text text-anchor="middle" x="128.38" y="-115.1" font-family="Helvetica,sans-Serif" font-size="9.00" fill="#e0e6ed">trigger</text>
</g>
<!-- Score -->
<g id="node3" class="node">
<title>Score</title>
<path fill="#3dd68c" stroke="black" d="M444.25,-130.4C444.25,-130.4 372.75,-130.4 372.75,-130.4 366.75,-130.4 360.75,-124.4 360.75,-118.4 360.75,-118.4 360.75,-106.4 360.75,-106.4 360.75,-100.4 366.75,-94.4 372.75,-94.4 372.75,-94.4 444.25,-94.4 444.25,-94.4 450.25,-94.4 456.25,-100.4 456.25,-106.4 456.25,-106.4 456.25,-118.4 456.25,-118.4 456.25,-124.4 450.25,-130.4 444.25,-130.4"/>
<text text-anchor="middle" x="408.5" y="-115.65" font-family="Helvetica,sans-Serif" font-size="10.00" fill="#0a0e17">cpig&#45;matrix.json</text>
<text text-anchor="middle" x="408.5" y="-102.9" font-family="Helvetica,sans-Serif" font-size="10.00" fill="#0a0e17">score=60/60</text>
</g>
<!-- Validator&#45;&gt;Score -->
<g id="edge2" class="edge">
<title>Validator&#45;&gt;Score</title>
<path fill="none" stroke="#7a8fa6" d="M279.25,-112.4C301.42,-112.4 326.72,-112.4 348.95,-112.4"/>
<polygon fill="#7a8fa6" stroke="#7a8fa6" points="348.76,-115.9 358.76,-112.4 348.76,-108.9 348.76,-115.9"/>
<text text-anchor="middle" x="319.88" y="-115.1" font-family="Helvetica,sans-Serif" font-size="9.00" fill="#e0e6ed">emit JSON</text>
</g>
<!-- Pub -->
<g id="node4" class="node">
<title>Pub</title>
<path fill="#00d4aa" stroke="black" d="M636.5,-130.4C636.5,-130.4 537.25,-130.4 537.25,-130.4 531.25,-130.4 525.25,-124.4 525.25,-118.4 525.25,-118.4 525.25,-106.4 525.25,-106.4 525.25,-100.4 531.25,-94.4 537.25,-94.4 537.25,-94.4 636.5,-94.4 636.5,-94.4 642.5,-94.4 648.5,-100.4 648.5,-106.4 648.5,-106.4 648.5,-118.4 648.5,-118.4 648.5,-124.4 642.5,-130.4 636.5,-130.4"/>
<text text-anchor="middle" x="586.88" y="-115.65" font-family="Helvetica,sans-Serif" font-size="10.00" fill="#0a0e17">Zenoh PUT</text>
<text text-anchor="middle" x="586.88" y="-102.9" font-family="Helvetica,sans-Serif" font-size="10.00" fill="#0a0e17">indrajaal/l4/cpig/score</text>
</g>
<!-- Score&#45;&gt;Pub -->
<g id="edge3" class="edge">
<title>Score&#45;&gt;Pub</title>
<path fill="none" stroke="#7a8fa6" d="M456.3,-112.4C473.79,-112.4 494.1,-112.4 513.37,-112.4"/>
<polygon fill="#7a8fa6" stroke="#7a8fa6" points="513.36,-115.9 523.36,-112.4 513.36,-108.9 513.36,-115.9"/>
<text text-anchor="middle" x="490.75" y="-115.1" font-family="Helvetica,sans-Serif" font-size="9.00" fill="#e0e6ed">publish</text>
</g>
<!-- Router -->
<g id="node5" class="node">
<title>Router</title>
<path fill="#00d4aa" stroke="black" d="M774.75,-130.4C774.75,-130.4 719.75,-130.4 719.75,-130.4 713.75,-130.4 707.75,-124.4 707.75,-118.4 707.75,-118.4 707.75,-106.4 707.75,-106.4 707.75,-100.4 713.75,-94.4 719.75,-94.4 719.75,-94.4 774.75,-94.4 774.75,-94.4 780.75,-94.4 786.75,-100.4 786.75,-106.4 786.75,-106.4 786.75,-118.4 786.75,-118.4 786.75,-124.4 780.75,-130.4 774.75,-130.4"/>
<text text-anchor="middle" x="747.25" y="-115.65" font-family="Helvetica,sans-Serif" font-size="10.00" fill="#0a0e17">Zenoh router</text>
<text text-anchor="middle" x="747.25" y="-102.9" font-family="Helvetica,sans-Serif" font-size="10.00" fill="#0a0e17">(TCP 7447)</text>
</g>
<!-- Pub&#45;&gt;Router -->
<g id="edge4" class="edge">
<title>Pub&#45;&gt;Router</title>
<path fill="none" stroke="#7a8fa6" d="M648.65,-112.4C664.36,-112.4 681.1,-112.4 696.19,-112.4"/>
<polygon fill="#7a8fa6" stroke="#7a8fa6" points="695.85,-115.9 705.85,-112.4 695.85,-108.9 695.85,-115.9"/>
<text text-anchor="middle" x="678.12" y="-115.1" font-family="Helvetica,sans-Serif" font-size="9.00" fill="#e0e6ed">put()</text>
</g>
<!-- Topic -->
<g id="node6" class="node">
<title>Topic</title>
<polygon fill="#00d4aa" stroke="black" points="1022.5,-135.52 846.75,-135.52 846.75,-89.27 1028.5,-89.27 1028.5,-129.52 1022.5,-135.52"/>
<polyline fill="none" stroke="black" points="1022.5,-135.52 1022.5,-129.52"/>
<polyline fill="none" stroke="black" points="1028.5,-129.52 1022.5,-129.52"/>
<text text-anchor="middle" x="937.62" y="-122.02" font-family="Helvetica,sans-Serif" font-size="10.00" fill="#0a0e17">topic =</text>
<text text-anchor="middle" x="937.62" y="-109.27" font-family="Helvetica,sans-Serif" font-size="10.00" fill="#0a0e17">indrajaal/l4/cpig/score</text>
<text text-anchor="middle" x="937.62" y="-96.52" font-family="Helvetica,sans-Serif" font-size="10.00" fill="#0a0e17">payload = {score,total,ts,passes}</text>
</g>
<!-- Router&#45;&gt;Topic -->
<g id="edge5" class="edge">
<title>Router&#45;&gt;Topic</title>
<path fill="none" stroke="#7a8fa6" stroke-dasharray="5,2" d="M786.83,-112.4C801.04,-112.4 817.89,-112.4 835.07,-112.4"/>
<polygon fill="#7a8fa6" stroke="#7a8fa6" points="834.87,-115.9 844.87,-112.4 834.87,-108.9 834.87,-115.9"/>
<text text-anchor="middle" x="816.75" y="-115.1" font-family="Helvetica,sans-Serif" font-size="9.00" fill="#e0e6ed">route</text>
</g>
<!-- Sub -->
<g id="node7" class="node">
<title>Sub</title>
<path fill="#3dd68c" stroke="black" d="M1262,-75.52C1262,-75.52 1161.25,-75.52 1161.25,-75.52 1155.25,-75.52 1149.25,-69.52 1149.25,-63.52 1149.25,-63.52 1149.25,-41.27 1149.25,-41.27 1149.25,-35.27 1155.25,-29.27 1161.25,-29.27 1161.25,-29.27 1262,-29.27 1262,-29.27 1268,-29.27 1274,-35.27 1274,-41.27 1274,-41.27 1274,-63.52 1274,-63.52 1274,-69.52 1268,-75.52 1262,-75.52"/>
<text text-anchor="middle" x="1211.62" y="-62.02" font-family="Helvetica,sans-Serif" font-size="10.00" fill="#0a0e17">cpig_subscriber.gleam</text>
<text text-anchor="middle" x="1211.62" y="-49.27" font-family="Helvetica,sans-Serif" font-size="10.00" fill="#0a0e17">actor (OTP)</text>
<text text-anchor="middle" x="1211.62" y="-36.52" font-family="Helvetica,sans-Serif" font-size="10.00" fill="#0a0e17">[NEW Pass 19]</text>
</g>
<!-- Topic&#45;&gt;Sub -->
<g id="edge6" class="edge">
<title>Topic&#45;&gt;Sub</title>
<path fill="none" stroke="#7a8fa6" d="M1028.82,-92.5C1064.25,-84.69 1104.37,-75.84 1137.9,-68.44"/>
<polygon fill="#7a8fa6" stroke="#7a8fa6" points="1138.51,-71.89 1147.52,-66.32 1137,-65.06 1138.51,-71.89"/>
<text text-anchor="middle" x="1088.88" y="-90.47" font-family="Helvetica,sans-Serif" font-size="9.00" fill="#e0e6ed">callback(payload)</text>
</g>
<!-- State -->
<g id="node8" class="node">
<title>State</title>
<path fill="#3dd68c" stroke="black" d="M1455,-105.52C1455,-105.52 1366.25,-105.52 1366.25,-105.52 1360.25,-105.52 1354.25,-99.52 1354.25,-93.52 1354.25,-93.52 1354.25,-71.27 1354.25,-71.27 1354.25,-65.27 1360.25,-59.27 1366.25,-59.27 1366.25,-59.27 1455,-59.27 1455,-59.27 1461,-59.27 1467,-65.27 1467,-71.27 1467,-71.27 1467,-93.52 1467,-93.52 1467,-99.52 1461,-105.52 1455,-105.52"/>
<text text-anchor="middle" x="1410.62" y="-92.02" font-family="Helvetica,sans-Serif" font-size="10.00" fill="#0a0e17">CpigState</text>
<text text-anchor="middle" x="1410.62" y="-79.27" font-family="Helvetica,sans-Serif" font-size="10.00" fill="#0a0e17">{last_score, last_ts,</text>
<text text-anchor="middle" x="1410.62" y="-66.52" font-family="Helvetica,sans-Serif" font-size="10.00" fill="#0a0e17"> &#160;history[8]}</text>
</g>
<!-- Sub&#45;&gt;State -->
<g id="edge7" class="edge">
<title>Sub&#45;&gt;State</title>
<path fill="none" stroke="#7a8fa6" d="M1274.42,-61.81C1296.13,-65.12 1320.63,-68.85 1342.74,-72.21"/>
<polygon fill="#7a8fa6" stroke="#7a8fa6" points="1342.15,-75.66 1352.57,-73.71 1343.21,-68.74 1342.15,-75.66"/>
<text text-anchor="middle" x="1309.25" y="-71.89" font-family="Helvetica,sans-Serif" font-size="9.00" fill="#e0e6ed">update</text>
</g>
<!-- Log -->
<g id="node9" class="node">
<title>Log</title>
<path fill="#7a8fa6" stroke="black" d="M1464.75,-41.4C1464.75,-41.4 1356.5,-41.4 1356.5,-41.4 1350.5,-41.4 1344.5,-35.4 1344.5,-29.4 1344.5,-29.4 1344.5,-17.4 1344.5,-17.4 1344.5,-11.4 1350.5,-5.4 1356.5,-5.4 1356.5,-5.4 1464.75,-5.4 1464.75,-5.4 1470.75,-5.4 1476.75,-11.4 1476.75,-17.4 1476.75,-17.4 1476.75,-29.4 1476.75,-29.4 1476.75,-35.4 1470.75,-41.4 1464.75,-41.4"/>
<text text-anchor="middle" x="1410.62" y="-26.65" font-family="Helvetica,sans-Serif" font-size="10.00" fill="#0a0e17">data/cpig&#45;subscriber.log</text>
<text text-anchor="middle" x="1410.62" y="-13.9" font-family="Helvetica,sans-Serif" font-size="10.00" fill="#0a0e17">(append&#45;only)</text>
</g>
<!-- Sub&#45;&gt;Log -->
<g id="edge8" class="edge">
<title>Sub&#45;&gt;Log</title>
<path fill="none" stroke="#7a8fa6" d="M1274.42,-43.3C1293,-40.57 1313.62,-37.53 1333.03,-34.67"/>
<polygon fill="#7a8fa6" stroke="#7a8fa6" points="1333.42,-38.15 1342.81,-33.23 1332.41,-31.23 1333.42,-38.15"/>
<text text-anchor="middle" x="1309.25" y="-43.2" font-family="Helvetica,sans-Serif" font-size="9.00" fill="#e0e6ed">append</text>
</g>
<!-- Guard -->
<g id="node10" class="node">
<title>Guard</title>
<path fill="#3dd68c" stroke="black" d="M1017.03,-30.51C1017.03,-30.51 1017.03,-40.29 1017.03,-40.29 1017.03,-45.17 1012.57,-52.05 1008.1,-54.04 1008.1,-54.04 979.44,-66.82 979.44,-66.82 974.98,-68.81 965.63,-70.8 960.74,-70.8 960.74,-70.8 914.51,-70.8 914.51,-70.8 909.62,-70.8 900.27,-68.81 895.81,-66.82 895.81,-66.82 867.15,-54.04 867.15,-54.04 862.68,-52.05 858.22,-45.17 858.22,-40.29 858.22,-40.29 858.22,-30.51 858.22,-30.51 858.22,-25.62 862.68,-18.75 867.15,-16.76 867.15,-16.76 895.81,-3.98 895.81,-3.98 900.27,-1.99 909.62,0 914.51,0 914.51,0 960.74,0 960.74,0 965.63,0 974.98,-1.99 979.44,-3.98 979.44,-3.98 1008.1,-16.76 1008.1,-16.76 1012.57,-18.75 1017.03,-25.62 1017.03,-30.51"/>
<text text-anchor="middle" x="937.62" y="-45.02" font-family="Helvetica,sans-Serif" font-size="10.00" fill="#0a0e17">cpig_subscriber_</text>
<text text-anchor="middle" x="937.62" y="-32.27" font-family="Helvetica,sans-Serif" font-size="10.00" fill="#0a0e17">wiring_test.gleam</text>
<text text-anchor="middle" x="937.62" y="-19.52" font-family="Helvetica,sans-Serif" font-size="10.00" fill="#0a0e17">[NEW Pass 19]</text>
</g>
<!-- Guard&#45;&gt;Sub -->
<g id="edge9" class="edge">
<title>Guard&#45;&gt;Sub</title>
<path fill="none" stroke="#3dd68c" stroke-dasharray="5,2" d="M1017.3,-40.32C1055.26,-42.69 1100.52,-45.52 1137.7,-47.84"/>
<polygon fill="#3dd68c" stroke="#3dd68c" points="1137.26,-51.32 1147.45,-48.45 1137.69,-44.33 1137.26,-51.32"/>
<text text-anchor="middle" x="1088.88" y="-50.07" font-family="Helvetica,sans-Serif" font-size="9.00" fill="#e0e6ed">verifies init/update</text>
</g>
<!-- LN -->
<g id="node11" class="node">
<title>LN</title>
<path fill="#3dd68c" stroke="black" d="M83,-189.4C83,-189.4 28,-189.4 28,-189.4 22,-189.4 16,-183.4 16,-177.4 16,-177.4 16,-165.4 16,-165.4 16,-159.4 22,-153.4 28,-153.4 28,-153.4 83,-153.4 83,-153.4 89,-153.4 95,-159.4 95,-165.4 95,-165.4 95,-177.4 95,-177.4 95,-183.4 89,-189.4 83,-189.4"/>
<text text-anchor="middle" x="55.5" y="-168.27" font-family="Helvetica,sans-Serif" font-size="10.00" fill="#0a0e17">NEW Pass 19</text>
</g>
<!-- LP -->
<g id="node12" class="node">
<title>LP</title>
<path fill="#7a8fa6" stroke="black" d="M245.62,-189.4C245.62,-189.4 195.12,-189.4 195.12,-189.4 189.12,-189.4 183.12,-183.4 183.12,-177.4 183.12,-177.4 183.12,-165.4 183.12,-165.4 183.12,-159.4 189.12,-153.4 195.12,-153.4 195.12,-153.4 245.62,-153.4 245.62,-153.4 251.62,-153.4 257.62,-159.4 257.62,-165.4 257.62,-165.4 257.62,-177.4 257.62,-177.4 257.62,-183.4 251.62,-189.4 245.62,-189.4"/>
<text text-anchor="middle" x="220.38" y="-168.27" font-family="Helvetica,sans-Serif" font-size="10.00" fill="#0a0e17">pre&#45;existing</text>
</g>
<!-- LN&#45;&gt;LP -->
<!-- LT -->
<g id="node13" class="node">
<title>LT</title>
<path fill="#00d4aa" stroke="black" d="M426.62,-189.4C426.62,-189.4 390.38,-189.4 390.38,-189.4 384.38,-189.4 378.38,-183.4 378.38,-177.4 378.38,-177.4 378.38,-165.4 378.38,-165.4 378.38,-159.4 384.38,-153.4 390.38,-153.4 390.38,-153.4 426.62,-153.4 426.62,-153.4 432.62,-153.4 438.62,-159.4 438.62,-165.4 438.62,-165.4 438.62,-177.4 438.62,-177.4 438.62,-183.4 432.62,-189.4 426.62,-189.4"/>
<text text-anchor="middle" x="408.5" y="-168.27" font-family="Helvetica,sans-Serif" font-size="10.00" fill="#0a0e17">transport</text>
</g>
<!-- LP&#45;&gt;LT -->
</g>
</svg>
