<?xml version="1.0" encoding="UTF-8" standalone="no"?>
<!DOCTYPE svg PUBLIC "-//W3C//DTD SVG 1.1//EN"
 "http://www.w3.org/Graphics/SVG/1.1/DTD/svg11.dtd">
<!-- Generated by graphviz version 12.2.1 (0)
 -->
<!-- Title: G29_FluffyChatMarionetteStack Pages: 1 -->
<svg width="957pt" height="858pt"
 viewBox="0.00 0.00 957.00 857.98" xmlns="http://www.w3.org/2000/svg" xmlns:xlink="http://www.w3.org/1999/xlink">
<g id="graph0" class="graph" transform="scale(1 1) rotate(0) translate(4 853.98)">
<title>G29_FluffyChatMarionetteStack</title>
<polygon fill="#0a0e17" stroke="none" points="-4,4 -4,-853.98 953,-853.98 953,4 -4,4"/>
<text text-anchor="middle" x="474.5" y="-832.68" font-family="Times,serif" font-size="14.00" fill="#00d4aa">G29 — FluffyChat Marionette Stack (Pass 19 closes L1 wiring) · end&#45;user → telemetry</text>
<g id="clust1" class="cluster">
<title>cluster_app</title>
<polygon fill="#0a0e17" stroke="#1e2a3a" stroke-dasharray="5,2" points="305,-427.55 305,-704.55 587,-704.55 587,-427.55 305,-427.55"/>
<text text-anchor="middle" x="446" y="-687.25" font-family="Times,serif" font-size="14.00" fill="#00d4aa">Flutter App Process (debug mode)</text>
</g>
<g id="clust2" class="cluster">
<title>cluster_mcp</title>
<polygon fill="#0a0e17" stroke="#1e2a3a" stroke-dasharray="5,2" points="155,-168.75 155,-269 484,-269 484,-168.75 155,-168.75"/>
<text text-anchor="middle" x="319.5" y="-251.7" font-family="Times,serif" font-size="14.00" fill="#00d4aa">MCP Servers (16 marionette tools + Patrol)</text>
</g>
<g id="clust3" class="cluster">
<title>cluster_legend</title>
<polygon fill="#0a0e17" stroke="#1e2a3a" stroke-dasharray="5,2" points="595,-432.67 595,-816.73 941,-816.73 941,-432.67 595,-432.67"/>
<text text-anchor="middle" x="768" y="-799.43" font-family="Times,serif" font-size="14.00" fill="#00d4aa">NEW Pass 19 (green) · pre&#45;existing (gray/teal)</text>
</g>
<!-- User -->
<g id="node1" class="node">
<title>User</title>
<ellipse fill="#7a8fa6" stroke="black" cx="524" cy="-765.48" rx="46.85" ry="23.69"/>
<text text-anchor="middle" x="524" y="-768.73" font-family="Helvetica,sans-Serif" font-size="10.00" fill="#0a0e17">End User</text>
<text text-anchor="middle" x="524" y="-755.98" font-family="Helvetica,sans-Serif" font-size="10.00" fill="#0a0e17">FluffyChat</text>
</g>
<!-- UI -->
<g id="node2" class="node">
<title>UI</title>
<path fill="#3dd68c" stroke="black" d="M566.5,-671.3C566.5,-671.3 481.5,-671.3 481.5,-671.3 475.5,-671.3 469.5,-665.3 469.5,-659.3 469.5,-659.3 469.5,-647.3 469.5,-647.3 469.5,-641.3 475.5,-635.3 481.5,-635.3 481.5,-635.3 566.5,-635.3 566.5,-635.3 572.5,-635.3 578.5,-641.3 578.5,-647.3 578.5,-647.3 578.5,-659.3 578.5,-659.3 578.5,-665.3 572.5,-671.3 566.5,-671.3"/>
<text text-anchor="middle" x="524" y="-656.55" font-family="Helvetica,sans-Serif" font-size="10.00" fill="#0a0e17">Flutter Widget Tree</text>
<text text-anchor="middle" x="524" y="-643.8" font-family="Helvetica,sans-Serif" font-size="10.00" fill="#0a0e17">(LlmChatView etc.)</text>
</g>
<!-- User&#45;&gt;UI -->
<g id="edge1" class="edge">
<title>User&#45;&gt;UI</title>
<path fill="none" stroke="#7a8fa6" d="M524,-741.39C524,-724.38 524,-701.16 524,-682.97"/>
<polygon fill="#7a8fa6" stroke="#7a8fa6" points="527.5,-683.11 524,-673.11 520.5,-683.11 527.5,-683.11"/>
<text text-anchor="middle" x="552.5" y="-715.25" font-family="Helvetica,sans-Serif" font-size="9.00" fill="#e0e6ed">taps / inputs</text>
</g>
<!-- Main -->
<g id="node3" class="node">
<title>Main</title>
<path fill="#3dd68c" stroke="black" d="M566.75,-581.67C566.75,-581.67 483.25,-581.67 483.25,-581.67 477.25,-581.67 471.25,-575.67 471.25,-569.67 471.25,-569.67 471.25,-547.42 471.25,-547.42 471.25,-541.42 477.25,-535.42 483.25,-535.42 483.25,-535.42 566.75,-535.42 566.75,-535.42 572.75,-535.42 578.75,-541.42 578.75,-547.42 578.75,-547.42 578.75,-569.67 578.75,-569.67 578.75,-575.67 572.75,-581.67 566.75,-581.67"/>
<text text-anchor="middle" x="525" y="-568.17" font-family="Helvetica,sans-Serif" font-size="10.00" fill="#0a0e17">lib/main.dart</text>
<text text-anchor="middle" x="525" y="-555.42" font-family="Helvetica,sans-Serif" font-size="10.00" fill="#0a0e17">MarionetteBinding</text>
<text text-anchor="middle" x="525" y="-542.67" font-family="Helvetica,sans-Serif" font-size="10.00" fill="#0a0e17">.ensureInitialized()</text>
</g>
<!-- UI&#45;&gt;Main -->
<g id="edge2" class="edge">
<title>UI&#45;&gt;Main</title>
<path fill="none" stroke="#7a8fa6" d="M524.19,-634.85C524.31,-623.13 524.49,-607.29 524.64,-593.17"/>
<polygon fill="#7a8fa6" stroke="#7a8fa6" points="528.14,-593.39 524.74,-583.35 521.14,-593.31 528.14,-593.39"/>
<text text-anchor="middle" x="537.97" y="-608.75" font-family="Helvetica,sans-Serif" font-size="9.00" fill="#e0e6ed">builds</text>
</g>
<!-- Bind -->
<g id="node4" class="node">
<title>Bind</title>
<path fill="#3dd68c" stroke="black" d="M505.12,-481.8C505.12,-481.8 402.88,-481.8 402.88,-481.8 396.88,-481.8 390.88,-475.8 390.88,-469.8 390.88,-469.8 390.88,-447.55 390.88,-447.55 390.88,-441.55 396.88,-435.55 402.88,-435.55 402.88,-435.55 505.12,-435.55 505.12,-435.55 511.12,-435.55 517.12,-441.55 517.12,-447.55 517.12,-447.55 517.12,-469.8 517.12,-469.8 517.12,-475.8 511.12,-481.8 505.12,-481.8"/>
<text text-anchor="middle" x="454" y="-468.3" font-family="Helvetica,sans-Serif" font-size="10.00" fill="#0a0e17">MarionetteBinding</text>
<text text-anchor="middle" x="454" y="-455.55" font-family="Helvetica,sans-Serif" font-size="10.00" fill="#0a0e17">+ LoggingLogCollector</text>
<text text-anchor="middle" x="454" y="-442.8" font-family="Helvetica,sans-Serif" font-size="10.00" fill="#0a0e17">[NEW Pass 19]</text>
</g>
<!-- Main&#45;&gt;Bind -->
<g id="edge3" class="edge">
<title>Main&#45;&gt;Bind</title>
<path fill="none" stroke="#7a8fa6" d="M508.89,-535.34C499.42,-522.29 487.31,-505.59 476.87,-491.19"/>
<polygon fill="#7a8fa6" stroke="#7a8fa6" points="479.89,-489.4 471.18,-483.36 474.22,-493.51 479.89,-489.4"/>
<text text-anchor="middle" x="509.75" y="-502.5" font-family="Helvetica,sans-Serif" font-size="9.00" fill="#e0e6ed">initializes</text>
</g>
<!-- VM -->
<g id="node6" class="node">
<title>VM</title>
<path fill="#f5a623" stroke="black" d="M510.75,-359.65C510.75,-359.65 397.25,-359.65 397.25,-359.65 391.25,-359.65 385.25,-353.65 385.25,-347.65 385.25,-347.65 385.25,-335.65 385.25,-335.65 385.25,-329.65 391.25,-323.65 397.25,-323.65 397.25,-323.65 510.75,-323.65 510.75,-323.65 516.75,-323.65 522.75,-329.65 522.75,-335.65 522.75,-335.65 522.75,-347.65 522.75,-347.65 522.75,-353.65 516.75,-359.65 510.75,-359.65"/>
<text text-anchor="middle" x="454" y="-344.9" font-family="Helvetica,sans-Serif" font-size="10.00" fill="#0a0e17">Dart VM Service Protocol</text>
<text text-anchor="middle" x="454" y="-332.15" font-family="Helvetica,sans-Serif" font-size="10.00" fill="#0a0e17">(WebSocket :8181)</text>
</g>
<!-- Bind&#45;&gt;VM -->
<g id="edge4" class="edge">
<title>Bind&#45;&gt;VM</title>
<path fill="none" stroke="#7a8fa6" d="M454,-435.22C454,-416.92 454,-390.96 454,-371.19"/>
<polygon fill="#7a8fa6" stroke="#7a8fa6" points="457.5,-371.31 454,-361.31 450.5,-371.31 457.5,-371.31"/>
<text text-anchor="middle" x="486.25" y="-409" font-family="Helvetica,sans-Serif" font-size="9.00" fill="#e0e6ed">exposes</text>
<text text-anchor="middle" x="486.25" y="-397.75" font-family="Helvetica,sans-Serif" font-size="9.00" fill="#e0e6ed">VM extensions</text>
</g>
<!-- PubSpec -->
<g id="node5" class="node">
<title>PubSpec</title>
<polygon fill="#3dd68c" stroke="black" points="446.88,-588.05 313.12,-588.05 313.12,-529.05 452.88,-529.05 452.88,-582.05 446.88,-588.05"/>
<polyline fill="none" stroke="black" points="446.88,-588.05 446.88,-582.05"/>
<polyline fill="none" stroke="black" points="452.88,-582.05 446.88,-582.05"/>
<text text-anchor="middle" x="383" y="-574.55" font-family="Helvetica,sans-Serif" font-size="10.00" fill="#0a0e17">pubspec.yaml</text>
<text text-anchor="middle" x="383" y="-561.8" font-family="Helvetica,sans-Serif" font-size="10.00" fill="#0a0e17">marionette_flutter ^0.5.0</text>
<text text-anchor="middle" x="383" y="-549.05" font-family="Helvetica,sans-Serif" font-size="10.00" fill="#0a0e17">+ logging dev_dep</text>
<text text-anchor="middle" x="383" y="-536.3" font-family="Helvetica,sans-Serif" font-size="10.00" fill="#0a0e17">[NEW Pass 19]</text>
</g>
<!-- PubSpec&#45;&gt;Bind -->
<g id="edge5" class="edge">
<title>PubSpec&#45;&gt;Bind</title>
<path fill="none" stroke="#3dd68c" stroke-dasharray="5,2" d="M403.92,-528.71C412.44,-516.96 422.32,-503.35 431.04,-491.33"/>
<polygon fill="#3dd68c" stroke="#3dd68c" points="433.81,-493.47 436.84,-483.32 428.14,-489.36 433.81,-493.47"/>
</g>
<!-- MM -->
<g id="node7" class="node">
<title>MM</title>
<path fill="#00d4aa" stroke="black" d="M438.62,-235.75C438.62,-235.75 345.38,-235.75 345.38,-235.75 339.38,-235.75 333.38,-229.75 333.38,-223.75 333.38,-223.75 333.38,-188.75 333.38,-188.75 333.38,-182.75 339.38,-176.75 345.38,-176.75 345.38,-176.75 438.62,-176.75 438.62,-176.75 444.62,-176.75 450.62,-182.75 450.62,-188.75 450.62,-188.75 450.62,-223.75 450.62,-223.75 450.62,-229.75 444.62,-235.75 438.62,-235.75"/>
<text text-anchor="middle" x="392" y="-222.25" font-family="Helvetica,sans-Serif" font-size="10.00" fill="#0a0e17">marionette_mcp</text>
<text text-anchor="middle" x="392" y="-209.5" font-family="Helvetica,sans-Serif" font-size="10.00" fill="#0a0e17">connect/tap/swipe/</text>
<text text-anchor="middle" x="392" y="-196.75" font-family="Helvetica,sans-Serif" font-size="10.00" fill="#0a0e17">screenshot/get_logs/</text>
<text text-anchor="middle" x="392" y="-184" font-family="Helvetica,sans-Serif" font-size="10.00" fill="#0a0e17">hot_reload (16 tools)</text>
</g>
<!-- VM&#45;&gt;MM -->
<g id="edge6" class="edge">
<title>VM&#45;&gt;MM</title>
<path fill="none" stroke="#7a8fa6" d="M445.89,-323.21C436.86,-303.78 421.98,-271.75 410.14,-246.28"/>
<polygon fill="#7a8fa6" stroke="#7a8fa6" points="413.47,-245.13 406.08,-237.54 407.12,-248.08 413.47,-245.13"/>
<text text-anchor="middle" x="443.18" y="-279.7" font-family="Helvetica,sans-Serif" font-size="9.00" fill="#e0e6ed">attach</text>
</g>
<!-- PM -->
<g id="node8" class="node">
<title>PM</title>
<path fill="#00d4aa" stroke="black" d="M291.5,-229.38C291.5,-229.38 212.5,-229.38 212.5,-229.38 206.5,-229.38 200.5,-223.38 200.5,-217.38 200.5,-217.38 200.5,-195.12 200.5,-195.12 200.5,-189.12 206.5,-183.12 212.5,-183.12 212.5,-183.12 291.5,-183.12 291.5,-183.12 297.5,-183.12 303.5,-189.12 303.5,-195.12 303.5,-195.12 303.5,-217.38 303.5,-217.38 303.5,-223.38 297.5,-229.38 291.5,-229.38"/>
<text text-anchor="middle" x="252" y="-215.88" font-family="Helvetica,sans-Serif" font-size="10.00" fill="#0a0e17">patrol_mcp</text>
<text text-anchor="middle" x="252" y="-203.12" font-family="Helvetica,sans-Serif" font-size="10.00" fill="#0a0e17">run/screenshot/</text>
<text text-anchor="middle" x="252" y="-190.38" font-family="Helvetica,sans-Serif" font-size="10.00" fill="#0a0e17">native&#45;tree/status</text>
</g>
<!-- VM&#45;&gt;PM -->
<g id="edge7" class="edge">
<title>VM&#45;&gt;PM</title>
<path fill="none" stroke="#7a8fa6" d="M418.04,-323.2C405.26,-317.37 390.65,-311.12 377,-306.25 348.26,-296 335.86,-305.59 310.75,-288.25 292.82,-275.87 278.36,-256.19 268.28,-239.32"/>
<polygon fill="#7a8fa6" stroke="#7a8fa6" points="271.59,-238.07 263.6,-231.11 265.51,-241.53 271.59,-238.07"/>
<text text-anchor="middle" x="325.38" y="-279.7" font-family="Helvetica,sans-Serif" font-size="9.00" fill="#e0e6ed">attach</text>
</g>
<!-- Cortex -->
<g id="node9" class="node">
<title>Cortex</title>
<path fill="#f5a623" stroke="black" d="M255.62,-129.5C255.62,-129.5 144.38,-129.5 144.38,-129.5 138.38,-129.5 132.38,-123.5 132.38,-117.5 132.38,-117.5 132.38,-105.5 132.38,-105.5 132.38,-99.5 138.38,-93.5 144.38,-93.5 144.38,-93.5 255.62,-93.5 255.62,-93.5 261.62,-93.5 267.62,-99.5 267.62,-105.5 267.62,-105.5 267.62,-117.5 267.62,-117.5 267.62,-123.5 261.62,-129.5 255.62,-129.5"/>
<text text-anchor="middle" x="200" y="-114.75" font-family="Helvetica,sans-Serif" font-size="10.00" fill="#0a0e17">C3I Cortex</text>
<text text-anchor="middle" x="200" y="-102" font-family="Helvetica,sans-Serif" font-size="10.00" fill="#0a0e17">(Rust planning_daemon)</text>
</g>
<!-- MM&#45;&gt;Cortex -->
<g id="edge8" class="edge">
<title>MM&#45;&gt;Cortex</title>
<path fill="none" stroke="#7a8fa6" d="M332.98,-176.5C326.31,-173.7 319.56,-171.05 313,-168.75 295.4,-162.59 289.39,-166.1 272.25,-158.75 268.1,-156.97 251.68,-146.51 235.55,-135.98"/>
<polygon fill="#7a8fa6" stroke="#7a8fa6" points="237.72,-133.22 227.44,-130.67 233.89,-139.08 237.72,-133.22"/>
<text text-anchor="middle" x="302.62" y="-150.2" font-family="Helvetica,sans-Serif" font-size="9.00" fill="#e0e6ed">MCP tool calls</text>
</g>
<!-- Zenoh -->
<g id="node11" class="node">
<title>Zenoh</title>
<path fill="#00d4aa" stroke="black" d="M469,-46.25C469,-46.25 339,-46.25 339,-46.25 333,-46.25 327,-40.25 327,-34.25 327,-34.25 327,-12 327,-12 327,-6 333,0 339,0 339,0 469,0 469,0 475,0 481,-6 481,-12 481,-12 481,-34.25 481,-34.25 481,-40.25 475,-46.25 469,-46.25"/>
<text text-anchor="middle" x="404" y="-32.75" font-family="Helvetica,sans-Serif" font-size="10.00" fill="#0a0e17">Zenoh router</text>
<text text-anchor="middle" x="404" y="-20" font-family="Helvetica,sans-Serif" font-size="10.00" fill="#0a0e17">indrajaal/l5/test/</text>
<text text-anchor="middle" x="404" y="-7.25" font-family="Helvetica,sans-Serif" font-size="10.00" fill="#0a0e17">marionette/&lt;run&gt;/&lt;phase&gt;</text>
</g>
<!-- MM&#45;&gt;Zenoh -->
<g id="edge12" class="edge">
<title>MM&#45;&gt;Zenoh</title>
<path fill="none" stroke="#7a8fa6" stroke-dasharray="5,2" d="M408.42,-176.38C415.32,-162.64 422.53,-145.71 426,-129.5 431.18,-105.29 425.11,-77.92 418.05,-57.14"/>
<polygon fill="#7a8fa6" stroke="#7a8fa6" points="421.33,-55.94 414.6,-47.76 414.76,-58.36 421.33,-55.94"/>
<text text-anchor="middle" x="458.69" y="-108.58" font-family="Helvetica,sans-Serif" font-size="9.00" fill="#e0e6ed">OTel envelope</text>
</g>
<!-- PM&#45;&gt;Cortex -->
<g id="edge9" class="edge">
<title>PM&#45;&gt;Cortex</title>
<path fill="none" stroke="#7a8fa6" d="M212.35,-182.68C204.25,-176.08 196.81,-168.08 192.25,-158.75 189.59,-153.31 189.13,-147.13 189.82,-141.1"/>
<polygon fill="#7a8fa6" stroke="#7a8fa6" points="193.22,-141.91 191.94,-131.39 186.38,-140.41 193.22,-141.91"/>
<text text-anchor="middle" x="222.62" y="-150.2" font-family="Helvetica,sans-Serif" font-size="9.00" fill="#e0e6ed">MCP tool calls</text>
</g>
<!-- Bridge -->
<g id="node10" class="node">
<title>Bridge</title>
<path fill="#7a8fa6" stroke="black" d="M405.12,-129.5C405.12,-129.5 302.88,-129.5 302.88,-129.5 296.88,-129.5 290.88,-123.5 290.88,-117.5 290.88,-117.5 290.88,-105.5 290.88,-105.5 290.88,-99.5 296.88,-93.5 302.88,-93.5 302.88,-93.5 405.12,-93.5 405.12,-93.5 411.12,-93.5 417.12,-99.5 417.12,-105.5 417.12,-105.5 417.12,-117.5 417.12,-117.5 417.12,-123.5 411.12,-129.5 405.12,-129.5"/>
<text text-anchor="middle" x="354" y="-114.75" font-family="Helvetica,sans-Serif" font-size="10.00" fill="#0a0e17">patrol&#45;zenoh&#45;bridge.sh</text>
<text text-anchor="middle" x="354" y="-102" font-family="Helvetica,sans-Serif" font-size="10.00" fill="#0a0e17">→ envelope publisher</text>
</g>
<!-- PM&#45;&gt;Bridge -->
<g id="edge10" class="edge">
<title>PM&#45;&gt;Bridge</title>
<path fill="none" stroke="#7a8fa6" d="M296.17,-182.81C315.14,-172.86 333.73,-162.54 337,-158.75 341.51,-153.52 344.86,-146.99 347.34,-140.5"/>
<polygon fill="#7a8fa6" stroke="#7a8fa6" points="350.58,-141.88 350.28,-131.29 343.91,-139.75 350.58,-141.88"/>
<text text-anchor="middle" x="370.13" y="-150.2" font-family="Helvetica,sans-Serif" font-size="9.00" fill="#e0e6ed">CLI fallback</text>
</g>
<!-- Bridge&#45;&gt;Zenoh -->
<g id="edge11" class="edge">
<title>Bridge&#45;&gt;Zenoh</title>
<path fill="none" stroke="#7a8fa6" d="M364.12,-93.02C370.24,-82.44 378.24,-68.62 385.46,-56.14"/>
<polygon fill="#7a8fa6" stroke="#7a8fa6" points="388.3,-58.23 390.28,-47.82 382.25,-54.72 388.3,-58.23"/>
<text text-anchor="middle" x="392.12" y="-66.95" font-family="Helvetica,sans-Serif" font-size="9.00" fill="#e0e6ed">put()</text>
</g>
<!-- Catalog -->
<g id="node12" class="node">
<title>Catalog</title>
<polygon fill="#7a8fa6" stroke="black" points="112,-364.77 0,-364.77 0,-318.52 118,-318.52 118,-358.77 112,-364.77"/>
<polyline fill="none" stroke="black" points="112,-364.77 112,-358.77"/>
<polyline fill="none" stroke="black" points="118,-358.77 112,-358.77"/>
<text text-anchor="middle" x="59" y="-351.27" font-family="Helvetica,sans-Serif" font-size="10.00" fill="#0a0e17">CATALOG.md</text>
<text text-anchor="middle" x="59" y="-338.52" font-family="Helvetica,sans-Serif" font-size="10.00" fill="#0a0e17">200 tests</text>
<text text-anchor="middle" x="59" y="-325.77" font-family="Helvetica,sans-Serif" font-size="10.00" fill="#0a0e17">× Linux/Android/Web</text>
</g>
<!-- Catalog&#45;&gt;PM -->
<g id="edge13" class="edge">
<title>Catalog&#45;&gt;PM</title>
<path fill="none" stroke="#7a8fa6" stroke-dasharray="5,2" d="M91.3,-318.32C123.91,-295.78 174.41,-260.88 210.08,-236.22"/>
<polygon fill="#7a8fa6" stroke="#7a8fa6" points="211.79,-239.3 218.02,-230.73 207.81,-233.54 211.79,-239.3"/>
<text text-anchor="middle" x="192.46" y="-279.7" font-family="Helvetica,sans-Serif" font-size="9.00" fill="#e0e6ed">declarative test list</text>
</g>
<!-- Health -->
<g id="node13" class="node">
<title>Health</title>
<path fill="#7a8fa6" stroke="black" d="M367.57,-336.76C367.57,-336.76 367.57,-346.54 367.57,-346.54 367.57,-351.42 362.9,-357.74 358.22,-359.17 358.22,-359.17 309.22,-374.18 309.22,-374.18 304.54,-375.62 294.98,-377.05 290.1,-377.05 290.1,-377.05 213.9,-377.05 213.9,-377.05 209.02,-377.05 199.46,-375.62 194.78,-374.18 194.78,-374.18 145.78,-359.17 145.78,-359.17 141.1,-357.74 136.43,-351.42 136.43,-346.54 136.43,-346.54 136.43,-336.76 136.43,-336.76 136.43,-331.87 141.1,-325.55 145.78,-324.12 145.78,-324.12 194.78,-309.11 194.78,-309.11 199.46,-307.68 209.02,-306.25 213.9,-306.25 213.9,-306.25 290.1,-306.25 290.1,-306.25 294.98,-306.25 304.54,-307.68 309.22,-309.11 309.22,-309.11 358.22,-324.12 358.22,-324.12 362.9,-325.55 367.57,-331.87 367.57,-336.76"/>
<text text-anchor="middle" x="252" y="-351.27" font-family="Helvetica,sans-Serif" font-size="10.00" fill="#0a0e17">marionette&#45;health&#45;check.sh</text>
<text text-anchor="middle" x="252" y="-338.52" font-family="Helvetica,sans-Serif" font-size="10.00" fill="#0a0e17">53 gates × 11 groups</text>
<text text-anchor="middle" x="252" y="-325.77" font-family="Helvetica,sans-Serif" font-size="10.00" fill="#0a0e17">cron */10 min</text>
</g>
<!-- Health&#45;&gt;MM -->
<g id="edge14" class="edge">
<title>Health&#45;&gt;MM</title>
<path fill="none" stroke="#3dd68c" stroke-dasharray="5,2" d="M314.99,-310.66C325.35,-304.13 335.48,-296.63 344,-288.25 356.19,-276.26 366.44,-260.55 374.29,-246.15"/>
<polygon fill="#3dd68c" stroke="#3dd68c" points="377.37,-247.81 378.88,-237.32 371.16,-244.58 377.37,-247.81"/>
<text text-anchor="middle" x="365.72" y="-279.7" font-family="Helvetica,sans-Serif" font-size="9.00" fill="#e0e6ed">probe</text>
</g>
<!-- Health&#45;&gt;PM -->
<g id="edge15" class="edge">
<title>Health&#45;&gt;PM</title>
<path fill="none" stroke="#3dd68c" stroke-dasharray="5,2" d="M252,-305.95C252,-285.91 252,-260.82 252,-240.95"/>
<polygon fill="#3dd68c" stroke="#3dd68c" points="255.5,-241.15 252,-231.15 248.5,-241.15 255.5,-241.15"/>
<text text-anchor="middle" x="265.12" y="-279.7" font-family="Helvetica,sans-Serif" font-size="9.00" fill="#e0e6ed">probe</text>
</g>
<!-- LN -->
<g id="node14" class="node">
<title>LN</title>
<path fill="#3dd68c" stroke="black" d="M795.5,-783.48C795.5,-783.48 740.5,-783.48 740.5,-783.48 734.5,-783.48 728.5,-777.48 728.5,-771.48 728.5,-771.48 728.5,-759.48 728.5,-759.48 728.5,-753.48 734.5,-747.48 740.5,-747.48 740.5,-747.48 795.5,-747.48 795.5,-747.48 801.5,-747.48 807.5,-753.48 807.5,-759.48 807.5,-759.48 807.5,-771.48 807.5,-771.48 807.5,-777.48 801.5,-783.48 795.5,-783.48"/>
<text text-anchor="middle" x="768" y="-762.36" font-family="Helvetica,sans-Serif" font-size="10.00" fill="#0a0e17">NEW Pass 19</text>
</g>
<!-- LP -->
<g id="node15" class="node">
<title>LP</title>
<path fill="#7a8fa6" stroke="black" d="M793.25,-671.3C793.25,-671.3 742.75,-671.3 742.75,-671.3 736.75,-671.3 730.75,-665.3 730.75,-659.3 730.75,-659.3 730.75,-647.3 730.75,-647.3 730.75,-641.3 736.75,-635.3 742.75,-635.3 742.75,-635.3 793.25,-635.3 793.25,-635.3 799.25,-635.3 805.25,-641.3 805.25,-647.3 805.25,-647.3 805.25,-659.3 805.25,-659.3 805.25,-665.3 799.25,-671.3 793.25,-671.3"/>
<text text-anchor="middle" x="768" y="-650.17" font-family="Helvetica,sans-Serif" font-size="10.00" fill="#0a0e17">pre&#45;existing</text>
</g>
<!-- LN&#45;&gt;LP -->
<!-- LM -->
<g id="node16" class="node">
<title>LM</title>
<path fill="#00d4aa" stroke="black" d="M798.5,-576.55C798.5,-576.55 737.5,-576.55 737.5,-576.55 731.5,-576.55 725.5,-570.55 725.5,-564.55 725.5,-564.55 725.5,-552.55 725.5,-552.55 725.5,-546.55 731.5,-540.55 737.5,-540.55 737.5,-540.55 798.5,-540.55 798.5,-540.55 804.5,-540.55 810.5,-546.55 810.5,-552.55 810.5,-552.55 810.5,-564.55 810.5,-564.55 810.5,-570.55 804.5,-576.55 798.5,-576.55"/>
<text text-anchor="middle" x="768" y="-555.42" font-family="Helvetica,sans-Serif" font-size="10.00" fill="#0a0e17">MCP/transport</text>
</g>
<!-- LP&#45;&gt;LM -->
<!-- LV -->
<g id="node17" class="node">
<title>LV</title>
<path fill="#f5a623" stroke="black" d="M788.75,-476.67C788.75,-476.67 747.25,-476.67 747.25,-476.67 741.25,-476.67 735.25,-470.67 735.25,-464.67 735.25,-464.67 735.25,-452.67 735.25,-452.67 735.25,-446.67 741.25,-440.67 747.25,-440.67 747.25,-440.67 788.75,-440.67 788.75,-440.67 794.75,-440.67 800.75,-446.67 800.75,-452.67 800.75,-452.67 800.75,-464.67 800.75,-464.67 800.75,-470.67 794.75,-476.67 788.75,-476.67"/>
<text text-anchor="middle" x="768" y="-455.55" font-family="Helvetica,sans-Serif" font-size="10.00" fill="#0a0e17">VM bridge</text>
</g>
<!-- LM&#45;&gt;LV -->
</g>
</svg>
