<?xml version="1.0" encoding="UTF-8" standalone="no"?>
<!DOCTYPE svg PUBLIC "-//W3C//DTD SVG 1.1//EN"
 "http://www.w3.org/Graphics/SVG/1.1/DTD/svg11.dtd">
<!-- Generated by graphviz version 12.2.1 (0)
 -->
<!-- Title: G30_Pass1To19FractalCoverage Pages: 1 -->
<svg width="1128pt" height="1419pt"
 viewBox="0.00 0.00 1128.40 1419.05" xmlns="http://www.w3.org/2000/svg" xmlns:xlink="http://www.w3.org/1999/xlink">
<g id="graph0" class="graph" transform="scale(1 1) rotate(0) translate(4 1415.05)">
<title>G30_Pass1To19FractalCoverage</title>
<polygon fill="#0a0e17" stroke="none" points="-4,4 -4,-1415.05 1124.4,-1415.05 1124.4,4 -4,4"/>
<text text-anchor="middle" x="560.2" y="-1393.75" font-family="Times,serif" font-size="14.00" fill="#00d4aa">G30 — Pass 9 → Pass 19 × L0–L7 Fractal Coverage Matrix · cumulative arc</text>
<g id="clust1" class="cluster">
<title>cluster_header</title>
</g>
<g id="clust13" class="cluster">
<title>cluster_legend</title>
<polygon fill="#0a0e17" stroke="#1e2a3a" stroke-dasharray="5,2" points="672.4,-1161.95 672.4,-1377.8 1112.4,-1377.8 1112.4,-1161.95 672.4,-1161.95"/>
<text text-anchor="middle" x="892.4" y="-1360.5" font-family="Times,serif" font-size="14.00" fill="#00d4aa">✓ touched · ★ Pass&#45;19 deliverable · blank = not in this pass</text>
</g>
<!-- H_pass -->
<g id="node1" class="node">
<title>H_pass</title>
<polygon fill="#00d4aa" stroke="black" points="222.8,-1340.8 158,-1340.8 158,-1308.4 222.8,-1308.4 222.8,-1340.8"/>
<text text-anchor="middle" x="190.4" y="-1321.48" font-family="Helvetica,sans-Serif" font-size="10.00" fill="#0a0e17">Pass</text>
</g>
<!-- H_L0 -->
<g id="node2" class="node">
<title>H_L0</title>
<polygon fill="#00d4aa" stroke="black" points="222.8,-1272.4 158,-1272.4 158,-1238.9 222.8,-1238.9 222.8,-1272.4"/>
<text text-anchor="middle" x="190.4" y="-1258.9" font-family="Helvetica,sans-Serif" font-size="10.00" fill="#0a0e17">L0</text>
<text text-anchor="middle" x="190.4" y="-1246.15" font-family="Helvetica,sans-Serif" font-size="10.00" fill="#0a0e17">Const.</text>
</g>
<!-- H_pass&#45;&gt;H_L0 -->
<!-- P9_T -->
<g id="node10" class="node">
<title>P9_T</title>
<polygon fill="#7a8fa6" stroke="black" points="728.8,-716.4 664,-716.4 664,-684 728.8,-684 728.8,-716.4"/>
<text text-anchor="middle" x="696.4" y="-697.07" font-family="Helvetica,sans-Serif" font-size="10.00" fill="#0a0e17">Pass 9</text>
</g>
<!-- H_pass&#45;&gt;P9_T -->
<!-- H_L1 -->
<g id="node3" class="node">
<title>H_L1</title>
<polygon fill="#00d4aa" stroke="black" points="222.8,-1202.9 158,-1202.9 158,-1169.4 222.8,-1169.4 222.8,-1202.9"/>
<text text-anchor="middle" x="190.4" y="-1189.4" font-family="Helvetica,sans-Serif" font-size="10.00" fill="#0a0e17">L1</text>
<text text-anchor="middle" x="190.4" y="-1176.65" font-family="Helvetica,sans-Serif" font-size="10.00" fill="#0a0e17">NIF</text>
</g>
<!-- H_L0&#45;&gt;H_L1 -->
<!-- P9_0 -->
<g id="node11" class="node">
<title>P9_0</title>
<polygon fill="#1e2a3a" stroke="black" points="645.8,-716.4 581,-716.4 581,-684 645.8,-684 645.8,-716.4"/>
<text text-anchor="middle" x="613.4" y="-697.07" font-family="Helvetica,sans-Serif" font-size="10.00" fill="#0a0e17"> </text>
</g>
<!-- H_L0&#45;&gt;P9_0 -->
<!-- H_L2 -->
<g id="node4" class="node">
<title>H_L2</title>
<polygon fill="#00d4aa" stroke="black" points="222.8,-1133.4 158,-1133.4 158,-1099.9 222.8,-1099.9 222.8,-1133.4"/>
<text text-anchor="middle" x="190.4" y="-1119.9" font-family="Helvetica,sans-Serif" font-size="10.00" fill="#0a0e17">L2</text>
<text text-anchor="middle" x="190.4" y="-1107.15" font-family="Helvetica,sans-Serif" font-size="10.00" fill="#0a0e17">Compo.</text>
</g>
<!-- H_L1&#45;&gt;H_L2 -->
<!-- P9_1 -->
<g id="node12" class="node">
<title>P9_1</title>
<polygon fill="#3dd68c" stroke="black" points="562.8,-716.4 498,-716.4 498,-684 562.8,-684 562.8,-716.4"/>
<text text-anchor="middle" x="530.4" y="-697.07" font-family="Helvetica,sans-Serif" font-size="10.00" fill="#0a0e17">✓</text>
</g>
<!-- H_L1&#45;&gt;P9_1 -->
<!-- H_L3 -->
<g id="node5" class="node">
<title>H_L3</title>
<polygon fill="#00d4aa" stroke="black" points="222.8,-1063.9 158,-1063.9 158,-1030.4 222.8,-1030.4 222.8,-1063.9"/>
<text text-anchor="middle" x="190.4" y="-1050.4" font-family="Helvetica,sans-Serif" font-size="10.00" fill="#0a0e17">L3</text>
<text text-anchor="middle" x="190.4" y="-1037.65" font-family="Helvetica,sans-Serif" font-size="10.00" fill="#0a0e17">Trans.</text>
</g>
<!-- H_L2&#45;&gt;H_L3 -->
<!-- P9_2 -->
<g id="node13" class="node">
<title>P9_2</title>
<polygon fill="#3dd68c" stroke="black" points="479.8,-716.4 415,-716.4 415,-684 479.8,-684 479.8,-716.4"/>
<text text-anchor="middle" x="447.4" y="-697.07" font-family="Helvetica,sans-Serif" font-size="10.00" fill="#0a0e17">✓</text>
</g>
<!-- H_L2&#45;&gt;P9_2 -->
<!-- H_L4 -->
<g id="node6" class="node">
<title>H_L4</title>
<polygon fill="#00d4aa" stroke="black" points="222.8,-994.4 158,-994.4 158,-960.9 222.8,-960.9 222.8,-994.4"/>
<text text-anchor="middle" x="190.4" y="-980.9" font-family="Helvetica,sans-Serif" font-size="10.00" fill="#0a0e17">L4</text>
<text text-anchor="middle" x="190.4" y="-968.15" font-family="Helvetica,sans-Serif" font-size="10.00" fill="#0a0e17">System</text>
</g>
<!-- H_L3&#45;&gt;H_L4 -->
<!-- P9_3 -->
<g id="node14" class="node">
<title>P9_3</title>
<polygon fill="#1e2a3a" stroke="black" points="396.8,-716.4 332,-716.4 332,-684 396.8,-684 396.8,-716.4"/>
<text text-anchor="middle" x="364.4" y="-697.07" font-family="Helvetica,sans-Serif" font-size="10.00" fill="#0a0e17"> </text>
</g>
<!-- H_L3&#45;&gt;P9_3 -->
<!-- H_L5 -->
<g id="node7" class="node">
<title>H_L5</title>
<polygon fill="#00d4aa" stroke="black" points="222.8,-924.9 158,-924.9 158,-891.4 222.8,-891.4 222.8,-924.9"/>
<text text-anchor="middle" x="190.4" y="-911.4" font-family="Helvetica,sans-Serif" font-size="10.00" fill="#0a0e17">L5</text>
<text text-anchor="middle" x="190.4" y="-898.65" font-family="Helvetica,sans-Serif" font-size="10.00" fill="#0a0e17">Cog.</text>
</g>
<!-- H_L4&#45;&gt;H_L5 -->
<!-- P9_4 -->
<g id="node15" class="node">
<title>P9_4</title>
<polygon fill="#3dd68c" stroke="black" points="313.8,-716.4 249,-716.4 249,-684 313.8,-684 313.8,-716.4"/>
<text text-anchor="middle" x="281.4" y="-697.07" font-family="Helvetica,sans-Serif" font-size="10.00" fill="#0a0e17">✓</text>
</g>
<!-- H_L4&#45;&gt;P9_4 -->
<!-- H_L6 -->
<g id="node8" class="node">
<title>H_L6</title>
<polygon fill="#00d4aa" stroke="black" points="222.8,-855.4 158,-855.4 158,-821.9 222.8,-821.9 222.8,-855.4"/>
<text text-anchor="middle" x="190.4" y="-841.9" font-family="Helvetica,sans-Serif" font-size="10.00" fill="#0a0e17">L6</text>
<text text-anchor="middle" x="190.4" y="-829.15" font-family="Helvetica,sans-Serif" font-size="10.00" fill="#0a0e17">Ecosys.</text>
</g>
<!-- H_L5&#45;&gt;H_L6 -->
<!-- P9_5 -->
<g id="node16" class="node">
<title>P9_5</title>
<polygon fill="#3dd68c" stroke="black" points="230.8,-716.4 166,-716.4 166,-684 230.8,-684 230.8,-716.4"/>
<text text-anchor="middle" x="198.4" y="-697.07" font-family="Helvetica,sans-Serif" font-size="10.00" fill="#0a0e17">✓</text>
</g>
<!-- H_L5&#45;&gt;P9_5 -->
<!-- H_L7 -->
<g id="node9" class="node">
<title>H_L7</title>
<polygon fill="#00d4aa" stroke="black" points="222.8,-785.9 158,-785.9 158,-752.4 222.8,-752.4 222.8,-785.9"/>
<text text-anchor="middle" x="190.4" y="-772.4" font-family="Helvetica,sans-Serif" font-size="10.00" fill="#0a0e17">L7</text>
<text text-anchor="middle" x="190.4" y="-759.65" font-family="Helvetica,sans-Serif" font-size="10.00" fill="#0a0e17">Fed.</text>
</g>
<!-- H_L6&#45;&gt;H_L7 -->
<!-- P9_6 -->
<g id="node17" class="node">
<title>P9_6</title>
<polygon fill="#1e2a3a" stroke="black" points="147.8,-716.4 83,-716.4 83,-684 147.8,-684 147.8,-716.4"/>
<text text-anchor="middle" x="115.4" y="-697.07" font-family="Helvetica,sans-Serif" font-size="10.00" fill="#0a0e17"> </text>
</g>
<!-- H_L6&#45;&gt;P9_6 -->
<!-- P9_7 -->
<g id="node18" class="node">
<title>P9_7</title>
<polygon fill="#1e2a3a" stroke="black" points="64.8,-716.4 0,-716.4 0,-684 64.8,-684 64.8,-716.4"/>
<text text-anchor="middle" x="32.4" y="-697.07" font-family="Helvetica,sans-Serif" font-size="10.00" fill="#0a0e17"> </text>
</g>
<!-- H_L7&#45;&gt;P9_7 -->
<!-- P10_T -->
<g id="node19" class="node">
<title>P10_T</title>
<polygon fill="#7a8fa6" stroke="black" points="728.8,-648 664,-648 664,-615.6 728.8,-615.6 728.8,-648"/>
<text text-anchor="middle" x="696.4" y="-628.67" font-family="Helvetica,sans-Serif" font-size="10.00" fill="#0a0e17">Pass 10</text>
</g>
<!-- P9_T&#45;&gt;P10_T -->
<!-- P10_0 -->
<g id="node20" class="node">
<title>P10_0</title>
<polygon fill="#1e2a3a" stroke="black" points="645.8,-648 581,-648 581,-615.6 645.8,-615.6 645.8,-648"/>
<text text-anchor="middle" x="613.4" y="-628.67" font-family="Helvetica,sans-Serif" font-size="10.00" fill="#0a0e17"> </text>
</g>
<!-- P9_0&#45;&gt;P10_0 -->
<!-- P10_1 -->
<g id="node21" class="node">
<title>P10_1</title>
<polygon fill="#3dd68c" stroke="black" points="562.8,-648 498,-648 498,-615.6 562.8,-615.6 562.8,-648"/>
<text text-anchor="middle" x="530.4" y="-628.67" font-family="Helvetica,sans-Serif" font-size="10.00" fill="#0a0e17">✓</text>
</g>
<!-- P9_1&#45;&gt;P10_1 -->
<!-- P10_2 -->
<g id="node22" class="node">
<title>P10_2</title>
<polygon fill="#1e2a3a" stroke="black" points="479.8,-648 415,-648 415,-615.6 479.8,-615.6 479.8,-648"/>
<text text-anchor="middle" x="447.4" y="-628.67" font-family="Helvetica,sans-Serif" font-size="10.00" fill="#0a0e17"> </text>
</g>
<!-- P9_2&#45;&gt;P10_2 -->
<!-- P10_3 -->
<g id="node23" class="node">
<title>P10_3</title>
<polygon fill="#3dd68c" stroke="black" points="396.8,-648 332,-648 332,-615.6 396.8,-615.6 396.8,-648"/>
<text text-anchor="middle" x="364.4" y="-628.67" font-family="Helvetica,sans-Serif" font-size="10.00" fill="#0a0e17">✓</text>
</g>
<!-- P9_3&#45;&gt;P10_3 -->
<!-- P10_4 -->
<g id="node24" class="node">
<title>P10_4</title>
<polygon fill="#3dd68c" stroke="black" points="313.8,-648 249,-648 249,-615.6 313.8,-615.6 313.8,-648"/>
<text text-anchor="middle" x="281.4" y="-628.67" font-family="Helvetica,sans-Serif" font-size="10.00" fill="#0a0e17">✓</text>
</g>
<!-- P9_4&#45;&gt;P10_4 -->
<!-- P10_5 -->
<g id="node25" class="node">
<title>P10_5</title>
<polygon fill="#3dd68c" stroke="black" points="230.8,-648 166,-648 166,-615.6 230.8,-615.6 230.8,-648"/>
<text text-anchor="middle" x="198.4" y="-628.67" font-family="Helvetica,sans-Serif" font-size="10.00" fill="#0a0e17">✓</text>
</g>
<!-- P9_5&#45;&gt;P10_5 -->
<!-- P10_6 -->
<g id="node26" class="node">
<title>P10_6</title>
<polygon fill="#1e2a3a" stroke="black" points="147.8,-648 83,-648 83,-615.6 147.8,-615.6 147.8,-648"/>
<text text-anchor="middle" x="115.4" y="-628.67" font-family="Helvetica,sans-Serif" font-size="10.00" fill="#0a0e17"> </text>
</g>
<!-- P9_6&#45;&gt;P10_6 -->
<!-- P10_7 -->
<g id="node27" class="node">
<title>P10_7</title>
<polygon fill="#1e2a3a" stroke="black" points="64.8,-648 0,-648 0,-615.6 64.8,-615.6 64.8,-648"/>
<text text-anchor="middle" x="32.4" y="-628.67" font-family="Helvetica,sans-Serif" font-size="10.00" fill="#0a0e17"> </text>
</g>
<!-- P9_7&#45;&gt;P10_7 -->
<!-- P11_T -->
<g id="node28" class="node">
<title>P11_T</title>
<polygon fill="#7a8fa6" stroke="black" points="728.8,-579.6 664,-579.6 664,-547.2 728.8,-547.2 728.8,-579.6"/>
<text text-anchor="middle" x="696.4" y="-560.27" font-family="Helvetica,sans-Serif" font-size="10.00" fill="#0a0e17">Pass 11</text>
</g>
<!-- P10_T&#45;&gt;P11_T -->
<!-- P11_0 -->
<g id="node29" class="node">
<title>P11_0</title>
<polygon fill="#3dd68c" stroke="black" points="645.8,-579.6 581,-579.6 581,-547.2 645.8,-547.2 645.8,-579.6"/>
<text text-anchor="middle" x="613.4" y="-560.27" font-family="Helvetica,sans-Serif" font-size="10.00" fill="#0a0e17">✓</text>
</g>
<!-- P10_0&#45;&gt;P11_0 -->
<!-- P11_1 -->
<g id="node30" class="node">
<title>P11_1</title>
<polygon fill="#3dd68c" stroke="black" points="562.8,-579.6 498,-579.6 498,-547.2 562.8,-547.2 562.8,-579.6"/>
<text text-anchor="middle" x="530.4" y="-560.27" font-family="Helvetica,sans-Serif" font-size="10.00" fill="#0a0e17">✓</text>
</g>
<!-- P10_1&#45;&gt;P11_1 -->
<!-- P11_2 -->
<g id="node31" class="node">
<title>P11_2</title>
<polygon fill="#3dd68c" stroke="black" points="479.8,-579.6 415,-579.6 415,-547.2 479.8,-547.2 479.8,-579.6"/>
<text text-anchor="middle" x="447.4" y="-560.27" font-family="Helvetica,sans-Serif" font-size="10.00" fill="#0a0e17">✓</text>
</g>
<!-- P10_2&#45;&gt;P11_2 -->
<!-- P11_3 -->
<g id="node32" class="node">
<title>P11_3</title>
<polygon fill="#3dd68c" stroke="black" points="396.8,-579.6 332,-579.6 332,-547.2 396.8,-547.2 396.8,-579.6"/>
<text text-anchor="middle" x="364.4" y="-560.27" font-family="Helvetica,sans-Serif" font-size="10.00" fill="#0a0e17">✓</text>
</g>
<!-- P10_3&#45;&gt;P11_3 -->
<!-- P11_4 -->
<g id="node33" class="node">
<title>P11_4</title>
<polygon fill="#3dd68c" stroke="black" points="313.8,-579.6 249,-579.6 249,-547.2 313.8,-547.2 313.8,-579.6"/>
<text text-anchor="middle" x="281.4" y="-560.27" font-family="Helvetica,sans-Serif" font-size="10.00" fill="#0a0e17">✓</text>
</g>
<!-- P10_4&#45;&gt;P11_4 -->
<!-- P11_5 -->
<g id="node34" class="node">
<title>P11_5</title>
<polygon fill="#3dd68c" stroke="black" points="230.8,-579.6 166,-579.6 166,-547.2 230.8,-547.2 230.8,-579.6"/>
<text text-anchor="middle" x="198.4" y="-560.27" font-family="Helvetica,sans-Serif" font-size="10.00" fill="#0a0e17">✓</text>
</g>
<!-- P10_5&#45;&gt;P11_5 -->
<!-- P11_6 -->
<g id="node35" class="node">
<title>P11_6</title>
<polygon fill="#3dd68c" stroke="black" points="147.8,-579.6 83,-579.6 83,-547.2 147.8,-547.2 147.8,-579.6"/>
<text text-anchor="middle" x="115.4" y="-560.27" font-family="Helvetica,sans-Serif" font-size="10.00" fill="#0a0e17">✓</text>
</g>
<!-- P10_6&#45;&gt;P11_6 -->
<!-- P11_7 -->
<g id="node36" class="node">
<title>P11_7</title>
<polygon fill="#3dd68c" stroke="black" points="64.8,-579.6 0,-579.6 0,-547.2 64.8,-547.2 64.8,-579.6"/>
<text text-anchor="middle" x="32.4" y="-560.27" font-family="Helvetica,sans-Serif" font-size="10.00" fill="#0a0e17">✓</text>
</g>
<!-- P10_7&#45;&gt;P11_7 -->
<!-- P12_T -->
<g id="node37" class="node">
<title>P12_T</title>
<polygon fill="#7a8fa6" stroke="black" points="728.8,-511.2 664,-511.2 664,-478.8 728.8,-478.8 728.8,-511.2"/>
<text text-anchor="middle" x="696.4" y="-491.88" font-family="Helvetica,sans-Serif" font-size="10.00" fill="#0a0e17">Pass 12</text>
</g>
<!-- P11_T&#45;&gt;P12_T -->
<!-- P12_0 -->
<g id="node38" class="node">
<title>P12_0</title>
<polygon fill="#1e2a3a" stroke="black" points="645.8,-511.2 581,-511.2 581,-478.8 645.8,-478.8 645.8,-511.2"/>
<text text-anchor="middle" x="613.4" y="-491.88" font-family="Helvetica,sans-Serif" font-size="10.00" fill="#0a0e17"> </text>
</g>
<!-- P11_0&#45;&gt;P12_0 -->
<!-- P12_1 -->
<g id="node39" class="node">
<title>P12_1</title>
<polygon fill="#1e2a3a" stroke="black" points="562.8,-511.2 498,-511.2 498,-478.8 562.8,-478.8 562.8,-511.2"/>
<text text-anchor="middle" x="530.4" y="-491.88" font-family="Helvetica,sans-Serif" font-size="10.00" fill="#0a0e17"> </text>
</g>
<!-- P11_1&#45;&gt;P12_1 -->
<!-- P12_2 -->
<g id="node40" class="node">
<title>P12_2</title>
<polygon fill="#1e2a3a" stroke="black" points="479.8,-511.2 415,-511.2 415,-478.8 479.8,-478.8 479.8,-511.2"/>
<text text-anchor="middle" x="447.4" y="-491.88" font-family="Helvetica,sans-Serif" font-size="10.00" fill="#0a0e17"> </text>
</g>
<!-- P11_2&#45;&gt;P12_2 -->
<!-- P12_3 -->
<g id="node41" class="node">
<title>P12_3</title>
<polygon fill="#3dd68c" stroke="black" points="396.8,-511.2 332,-511.2 332,-478.8 396.8,-478.8 396.8,-511.2"/>
<text text-anchor="middle" x="364.4" y="-491.88" font-family="Helvetica,sans-Serif" font-size="10.00" fill="#0a0e17">✓</text>
</g>
<!-- P11_3&#45;&gt;P12_3 -->
<!-- P12_4 -->
<g id="node42" class="node">
<title>P12_4</title>
<polygon fill="#3dd68c" stroke="black" points="313.8,-511.2 249,-511.2 249,-478.8 313.8,-478.8 313.8,-511.2"/>
<text text-anchor="middle" x="281.4" y="-491.88" font-family="Helvetica,sans-Serif" font-size="10.00" fill="#0a0e17">✓</text>
</g>
<!-- P11_4&#45;&gt;P12_4 -->
<!-- P12_5 -->
<g id="node43" class="node">
<title>P12_5</title>
<polygon fill="#3dd68c" stroke="black" points="230.8,-511.2 166,-511.2 166,-478.8 230.8,-478.8 230.8,-511.2"/>
<text text-anchor="middle" x="198.4" y="-491.88" font-family="Helvetica,sans-Serif" font-size="10.00" fill="#0a0e17">✓</text>
</g>
<!-- P11_5&#45;&gt;P12_5 -->
<!-- P12_6 -->
<g id="node44" class="node">
<title>P12_6</title>
<polygon fill="#1e2a3a" stroke="black" points="147.8,-511.2 83,-511.2 83,-478.8 147.8,-478.8 147.8,-511.2"/>
<text text-anchor="middle" x="115.4" y="-491.88" font-family="Helvetica,sans-Serif" font-size="10.00" fill="#0a0e17"> </text>
</g>
<!-- P11_6&#45;&gt;P12_6 -->
<!-- P12_7 -->
<g id="node45" class="node">
<title>P12_7</title>
<polygon fill="#1e2a3a" stroke="black" points="64.8,-511.2 0,-511.2 0,-478.8 64.8,-478.8 64.8,-511.2"/>
<text text-anchor="middle" x="32.4" y="-491.88" font-family="Helvetica,sans-Serif" font-size="10.00" fill="#0a0e17"> </text>
</g>
<!-- P11_7&#45;&gt;P12_7 -->
<!-- P13_T -->
<g id="node46" class="node">
<title>P13_T</title>
<polygon fill="#7a8fa6" stroke="black" points="728.8,-442.8 664,-442.8 664,-410.4 728.8,-410.4 728.8,-442.8"/>
<text text-anchor="middle" x="696.4" y="-423.48" font-family="Helvetica,sans-Serif" font-size="10.00" fill="#0a0e17">Pass 13</text>
</g>
<!-- P12_T&#45;&gt;P13_T -->
<!-- P13_0 -->
<g id="node47" class="node">
<title>P13_0</title>
<polygon fill="#3dd68c" stroke="black" points="645.8,-442.8 581,-442.8 581,-410.4 645.8,-410.4 645.8,-442.8"/>
<text text-anchor="middle" x="613.4" y="-423.48" font-family="Helvetica,sans-Serif" font-size="10.00" fill="#0a0e17">✓</text>
</g>
<!-- P12_0&#45;&gt;P13_0 -->
<!-- P13_1 -->
<g id="node48" class="node">
<title>P13_1</title>
<polygon fill="#1e2a3a" stroke="black" points="562.8,-442.8 498,-442.8 498,-410.4 562.8,-410.4 562.8,-442.8"/>
<text text-anchor="middle" x="530.4" y="-423.48" font-family="Helvetica,sans-Serif" font-size="10.00" fill="#0a0e17"> </text>
</g>
<!-- P12_1&#45;&gt;P13_1 -->
<!-- P13_2 -->
<g id="node49" class="node">
<title>P13_2</title>
<polygon fill="#1e2a3a" stroke="black" points="479.8,-442.8 415,-442.8 415,-410.4 479.8,-410.4 479.8,-442.8"/>
<text text-anchor="middle" x="447.4" y="-423.48" font-family="Helvetica,sans-Serif" font-size="10.00" fill="#0a0e17"> </text>
</g>
<!-- P12_2&#45;&gt;P13_2 -->
<!-- P13_3 -->
<g id="node50" class="node">
<title>P13_3</title>
<polygon fill="#3dd68c" stroke="black" points="396.8,-442.8 332,-442.8 332,-410.4 396.8,-410.4 396.8,-442.8"/>
<text text-anchor="middle" x="364.4" y="-423.48" font-family="Helvetica,sans-Serif" font-size="10.00" fill="#0a0e17">✓</text>
</g>
<!-- P12_3&#45;&gt;P13_3 -->
<!-- P13_4 -->
<g id="node51" class="node">
<title>P13_4</title>
<polygon fill="#3dd68c" stroke="black" points="313.8,-442.8 249,-442.8 249,-410.4 313.8,-410.4 313.8,-442.8"/>
<text text-anchor="middle" x="281.4" y="-423.48" font-family="Helvetica,sans-Serif" font-size="10.00" fill="#0a0e17">✓</text>
</g>
<!-- P12_4&#45;&gt;P13_4 -->
<!-- P13_5 -->
<g id="node52" class="node">
<title>P13_5</title>
<polygon fill="#3dd68c" stroke="black" points="230.8,-442.8 166,-442.8 166,-410.4 230.8,-410.4 230.8,-442.8"/>
<text text-anchor="middle" x="198.4" y="-423.48" font-family="Helvetica,sans-Serif" font-size="10.00" fill="#0a0e17">✓</text>
</g>
<!-- P12_5&#45;&gt;P13_5 -->
<!-- P13_6 -->
<g id="node53" class="node">
<title>P13_6</title>
<polygon fill="#1e2a3a" stroke="black" points="147.8,-442.8 83,-442.8 83,-410.4 147.8,-410.4 147.8,-442.8"/>
<text text-anchor="middle" x="115.4" y="-423.48" font-family="Helvetica,sans-Serif" font-size="10.00" fill="#0a0e17"> </text>
</g>
<!-- P12_6&#45;&gt;P13_6 -->
<!-- P13_7 -->
<g id="node54" class="node">
<title>P13_7</title>
<polygon fill="#3dd68c" stroke="black" points="64.8,-442.8 0,-442.8 0,-410.4 64.8,-410.4 64.8,-442.8"/>
<text text-anchor="middle" x="32.4" y="-423.48" font-family="Helvetica,sans-Serif" font-size="10.00" fill="#0a0e17">✓</text>
</g>
<!-- P12_7&#45;&gt;P13_7 -->
<!-- P14_T -->
<g id="node55" class="node">
<title>P14_T</title>
<polygon fill="#7a8fa6" stroke="black" points="728.8,-374.4 664,-374.4 664,-342 728.8,-342 728.8,-374.4"/>
<text text-anchor="middle" x="696.4" y="-355.08" font-family="Helvetica,sans-Serif" font-size="10.00" fill="#0a0e17">Pass 14</text>
</g>
<!-- P13_T&#45;&gt;P14_T -->
<!-- P14_0 -->
<g id="node56" class="node">
<title>P14_0</title>
<polygon fill="#1e2a3a" stroke="black" points="645.8,-374.4 581,-374.4 581,-342 645.8,-342 645.8,-374.4"/>
<text text-anchor="middle" x="613.4" y="-355.08" font-family="Helvetica,sans-Serif" font-size="10.00" fill="#0a0e17"> </text>
</g>
<!-- P13_0&#45;&gt;P14_0 -->
<!-- P14_1 -->
<g id="node57" class="node">
<title>P14_1</title>
<polygon fill="#1e2a3a" stroke="black" points="562.8,-374.4 498,-374.4 498,-342 562.8,-342 562.8,-374.4"/>
<text text-anchor="middle" x="530.4" y="-355.08" font-family="Helvetica,sans-Serif" font-size="10.00" fill="#0a0e17"> </text>
</g>
<!-- P13_1&#45;&gt;P14_1 -->
<!-- P14_2 -->
<g id="node58" class="node">
<title>P14_2</title>
<polygon fill="#1e2a3a" stroke="black" points="479.8,-374.4 415,-374.4 415,-342 479.8,-342 479.8,-374.4"/>
<text text-anchor="middle" x="447.4" y="-355.08" font-family="Helvetica,sans-Serif" font-size="10.00" fill="#0a0e17"> </text>
</g>
<!-- P13_2&#45;&gt;P14_2 -->
<!-- P14_3 -->
<g id="node59" class="node">
<title>P14_3</title>
<polygon fill="#3dd68c" stroke="black" points="396.8,-374.4 332,-374.4 332,-342 396.8,-342 396.8,-374.4"/>
<text text-anchor="middle" x="364.4" y="-355.08" font-family="Helvetica,sans-Serif" font-size="10.00" fill="#0a0e17">✓</text>
</g>
<!-- P13_3&#45;&gt;P14_3 -->
<!-- P14_4 -->
<g id="node60" class="node">
<title>P14_4</title>
<polygon fill="#3dd68c" stroke="black" points="313.8,-374.4 249,-374.4 249,-342 313.8,-342 313.8,-374.4"/>
<text text-anchor="middle" x="281.4" y="-355.08" font-family="Helvetica,sans-Serif" font-size="10.00" fill="#0a0e17">✓</text>
</g>
<!-- P13_4&#45;&gt;P14_4 -->
<!-- P14_5 -->
<g id="node61" class="node">
<title>P14_5</title>
<polygon fill="#3dd68c" stroke="black" points="230.8,-374.4 166,-374.4 166,-342 230.8,-342 230.8,-374.4"/>
<text text-anchor="middle" x="198.4" y="-355.08" font-family="Helvetica,sans-Serif" font-size="10.00" fill="#0a0e17">✓</text>
</g>
<!-- P13_5&#45;&gt;P14_5 -->
<!-- P14_6 -->
<g id="node62" class="node">
<title>P14_6</title>
<polygon fill="#3dd68c" stroke="black" points="147.8,-374.4 83,-374.4 83,-342 147.8,-342 147.8,-374.4"/>
<text text-anchor="middle" x="115.4" y="-355.08" font-family="Helvetica,sans-Serif" font-size="10.00" fill="#0a0e17">✓</text>
</g>
<!-- P13_6&#45;&gt;P14_6 -->
<!-- P14_7 -->
<g id="node63" class="node">
<title>P14_7</title>
<polygon fill="#3dd68c" stroke="black" points="64.8,-374.4 0,-374.4 0,-342 64.8,-342 64.8,-374.4"/>
<text text-anchor="middle" x="32.4" y="-355.08" font-family="Helvetica,sans-Serif" font-size="10.00" fill="#0a0e17">✓</text>
</g>
<!-- P13_7&#45;&gt;P14_7 -->
<!-- P15_T -->
<g id="node64" class="node">
<title>P15_T</title>
<polygon fill="#7a8fa6" stroke="black" points="728.8,-306 664,-306 664,-273.6 728.8,-273.6 728.8,-306"/>
<text text-anchor="middle" x="696.4" y="-286.68" font-family="Helvetica,sans-Serif" font-size="10.00" fill="#0a0e17">Pass 15</text>
</g>
<!-- P14_T&#45;&gt;P15_T -->
<!-- P15_0 -->
<g id="node65" class="node">
<title>P15_0</title>
<polygon fill="#3dd68c" stroke="black" points="645.8,-306 581,-306 581,-273.6 645.8,-273.6 645.8,-306"/>
<text text-anchor="middle" x="613.4" y="-286.68" font-family="Helvetica,sans-Serif" font-size="10.00" fill="#0a0e17">✓</text>
</g>
<!-- P14_0&#45;&gt;P15_0 -->
<!-- P15_1 -->
<g id="node66" class="node">
<title>P15_1</title>
<polygon fill="#1e2a3a" stroke="black" points="562.8,-306 498,-306 498,-273.6 562.8,-273.6 562.8,-306"/>
<text text-anchor="middle" x="530.4" y="-286.68" font-family="Helvetica,sans-Serif" font-size="10.00" fill="#0a0e17"> </text>
</g>
<!-- P14_1&#45;&gt;P15_1 -->
<!-- P15_2 -->
<g id="node67" class="node">
<title>P15_2</title>
<polygon fill="#1e2a3a" stroke="black" points="479.8,-306 415,-306 415,-273.6 479.8,-273.6 479.8,-306"/>
<text text-anchor="middle" x="447.4" y="-286.68" font-family="Helvetica,sans-Serif" font-size="10.00" fill="#0a0e17"> </text>
</g>
<!-- P14_2&#45;&gt;P15_2 -->
<!-- P15_3 -->
<g id="node68" class="node">
<title>P15_3</title>
<polygon fill="#1e2a3a" stroke="black" points="396.8,-306 332,-306 332,-273.6 396.8,-273.6 396.8,-306"/>
<text text-anchor="middle" x="364.4" y="-286.68" font-family="Helvetica,sans-Serif" font-size="10.00" fill="#0a0e17"> </text>
</g>
<!-- P14_3&#45;&gt;P15_3 -->
<!-- P15_4 -->
<g id="node69" class="node">
<title>P15_4</title>
<polygon fill="#3dd68c" stroke="black" points="313.8,-306 249,-306 249,-273.6 313.8,-273.6 313.8,-306"/>
<text text-anchor="middle" x="281.4" y="-286.68" font-family="Helvetica,sans-Serif" font-size="10.00" fill="#0a0e17">✓</text>
</g>
<!-- P14_4&#45;&gt;P15_4 -->
<!-- P15_5 -->
<g id="node70" class="node">
<title>P15_5</title>
<polygon fill="#3dd68c" stroke="black" points="230.8,-306 166,-306 166,-273.6 230.8,-273.6 230.8,-306"/>
<text text-anchor="middle" x="198.4" y="-286.68" font-family="Helvetica,sans-Serif" font-size="10.00" fill="#0a0e17">✓</text>
</g>
<!-- P14_5&#45;&gt;P15_5 -->
<!-- P15_6 -->
<g id="node71" class="node">
<title>P15_6</title>
<polygon fill="#1e2a3a" stroke="black" points="147.8,-306 83,-306 83,-273.6 147.8,-273.6 147.8,-306"/>
<text text-anchor="middle" x="115.4" y="-286.68" font-family="Helvetica,sans-Serif" font-size="10.00" fill="#0a0e17"> </text>
</g>
<!-- P14_6&#45;&gt;P15_6 -->
<!-- P15_7 -->
<g id="node72" class="node">
<title>P15_7</title>
<polygon fill="#3dd68c" stroke="black" points="64.8,-306 0,-306 0,-273.6 64.8,-273.6 64.8,-306"/>
<text text-anchor="middle" x="32.4" y="-286.68" font-family="Helvetica,sans-Serif" font-size="10.00" fill="#0a0e17">✓</text>
</g>
<!-- P14_7&#45;&gt;P15_7 -->
<!-- P16_T -->
<g id="node73" class="node">
<title>P16_T</title>
<polygon fill="#7a8fa6" stroke="black" points="728.8,-237.6 664,-237.6 664,-205.2 728.8,-205.2 728.8,-237.6"/>
<text text-anchor="middle" x="696.4" y="-218.28" font-family="Helvetica,sans-Serif" font-size="10.00" fill="#0a0e17">Pass 16</text>
</g>
<!-- P15_T&#45;&gt;P16_T -->
<!-- P16_0 -->
<g id="node74" class="node">
<title>P16_0</title>
<polygon fill="#1e2a3a" stroke="black" points="645.8,-237.6 581,-237.6 581,-205.2 645.8,-205.2 645.8,-237.6"/>
<text text-anchor="middle" x="613.4" y="-218.28" font-family="Helvetica,sans-Serif" font-size="10.00" fill="#0a0e17"> </text>
</g>
<!-- P15_0&#45;&gt;P16_0 -->
<!-- P16_1 -->
<g id="node75" class="node">
<title>P16_1</title>
<polygon fill="#1e2a3a" stroke="black" points="562.8,-237.6 498,-237.6 498,-205.2 562.8,-205.2 562.8,-237.6"/>
<text text-anchor="middle" x="530.4" y="-218.28" font-family="Helvetica,sans-Serif" font-size="10.00" fill="#0a0e17"> </text>
</g>
<!-- P15_1&#45;&gt;P16_1 -->
<!-- P16_2 -->
<g id="node76" class="node">
<title>P16_2</title>
<polygon fill="#1e2a3a" stroke="black" points="479.8,-237.6 415,-237.6 415,-205.2 479.8,-205.2 479.8,-237.6"/>
<text text-anchor="middle" x="447.4" y="-218.28" font-family="Helvetica,sans-Serif" font-size="10.00" fill="#0a0e17"> </text>
</g>
<!-- P15_2&#45;&gt;P16_2 -->
<!-- P16_3 -->
<g id="node77" class="node">
<title>P16_3</title>
<polygon fill="#3dd68c" stroke="black" points="396.8,-237.6 332,-237.6 332,-205.2 396.8,-205.2 396.8,-237.6"/>
<text text-anchor="middle" x="364.4" y="-218.28" font-family="Helvetica,sans-Serif" font-size="10.00" fill="#0a0e17">✓</text>
</g>
<!-- P15_3&#45;&gt;P16_3 -->
<!-- P16_4 -->
<g id="node78" class="node">
<title>P16_4</title>
<polygon fill="#3dd68c" stroke="black" points="313.8,-237.6 249,-237.6 249,-205.2 313.8,-205.2 313.8,-237.6"/>
<text text-anchor="middle" x="281.4" y="-218.28" font-family="Helvetica,sans-Serif" font-size="10.00" fill="#0a0e17">✓</text>
</g>
<!-- P15_4&#45;&gt;P16_4 -->
<!-- P16_5 -->
<g id="node79" class="node">
<title>P16_5</title>
<polygon fill="#3dd68c" stroke="black" points="230.8,-237.6 166,-237.6 166,-205.2 230.8,-205.2 230.8,-237.6"/>
<text text-anchor="middle" x="198.4" y="-218.28" font-family="Helvetica,sans-Serif" font-size="10.00" fill="#0a0e17">✓</text>
</g>
<!-- P15_5&#45;&gt;P16_5 -->
<!-- P16_6 -->
<g id="node80" class="node">
<title>P16_6</title>
<polygon fill="#1e2a3a" stroke="black" points="147.8,-237.6 83,-237.6 83,-205.2 147.8,-205.2 147.8,-237.6"/>
<text text-anchor="middle" x="115.4" y="-218.28" font-family="Helvetica,sans-Serif" font-size="10.00" fill="#0a0e17"> </text>
</g>
<!-- P15_6&#45;&gt;P16_6 -->
<!-- P16_7 -->
<g id="node81" class="node">
<title>P16_7</title>
<polygon fill="#1e2a3a" stroke="black" points="64.8,-237.6 0,-237.6 0,-205.2 64.8,-205.2 64.8,-237.6"/>
<text text-anchor="middle" x="32.4" y="-218.28" font-family="Helvetica,sans-Serif" font-size="10.00" fill="#0a0e17"> </text>
</g>
<!-- P15_7&#45;&gt;P16_7 -->
<!-- P17_T -->
<g id="node82" class="node">
<title>P17_T</title>
<polygon fill="#7a8fa6" stroke="black" points="728.8,-169.2 664,-169.2 664,-136.8 728.8,-136.8 728.8,-169.2"/>
<text text-anchor="middle" x="696.4" y="-149.88" font-family="Helvetica,sans-Serif" font-size="10.00" fill="#0a0e17">Pass 17</text>
</g>
<!-- P16_T&#45;&gt;P17_T -->
<!-- P17_0 -->
<g id="node83" class="node">
<title>P17_0</title>
<polygon fill="#1e2a3a" stroke="black" points="645.8,-169.2 581,-169.2 581,-136.8 645.8,-136.8 645.8,-169.2"/>
<text text-anchor="middle" x="613.4" y="-149.88" font-family="Helvetica,sans-Serif" font-size="10.00" fill="#0a0e17"> </text>
</g>
<!-- P16_0&#45;&gt;P17_0 -->
<!-- P17_1 -->
<g id="node84" class="node">
<title>P17_1</title>
<polygon fill="#1e2a3a" stroke="black" points="562.8,-169.2 498,-169.2 498,-136.8 562.8,-136.8 562.8,-169.2"/>
<text text-anchor="middle" x="530.4" y="-149.88" font-family="Helvetica,sans-Serif" font-size="10.00" fill="#0a0e17"> </text>
</g>
<!-- P16_1&#45;&gt;P17_1 -->
<!-- P17_2 -->
<g id="node85" class="node">
<title>P17_2</title>
<polygon fill="#1e2a3a" stroke="black" points="479.8,-169.2 415,-169.2 415,-136.8 479.8,-136.8 479.8,-169.2"/>
<text text-anchor="middle" x="447.4" y="-149.88" font-family="Helvetica,sans-Serif" font-size="10.00" fill="#0a0e17"> </text>
</g>
<!-- P16_2&#45;&gt;P17_2 -->
<!-- P17_3 -->
<g id="node86" class="node">
<title>P17_3</title>
<polygon fill="#3dd68c" stroke="black" points="396.8,-169.2 332,-169.2 332,-136.8 396.8,-136.8 396.8,-169.2"/>
<text text-anchor="middle" x="364.4" y="-149.88" font-family="Helvetica,sans-Serif" font-size="10.00" fill="#0a0e17">✓</text>
</g>
<!-- P16_3&#45;&gt;P17_3 -->
<!-- P17_4 -->
<g id="node87" class="node">
<title>P17_4</title>
<polygon fill="#3dd68c" stroke="black" points="313.8,-169.2 249,-169.2 249,-136.8 313.8,-136.8 313.8,-169.2"/>
<text text-anchor="middle" x="281.4" y="-149.88" font-family="Helvetica,sans-Serif" font-size="10.00" fill="#0a0e17">✓</text>
</g>
<!-- P16_4&#45;&gt;P17_4 -->
<!-- P17_5 -->
<g id="node88" class="node">
<title>P17_5</title>
<polygon fill="#1e2a3a" stroke="black" points="230.8,-169.2 166,-169.2 166,-136.8 230.8,-136.8 230.8,-169.2"/>
<text text-anchor="middle" x="198.4" y="-149.88" font-family="Helvetica,sans-Serif" font-size="10.00" fill="#0a0e17"> </text>
</g>
<!-- P16_5&#45;&gt;P17_5 -->
<!-- P17_6 -->
<g id="node89" class="node">
<title>P17_6</title>
<polygon fill="#3dd68c" stroke="black" points="147.8,-169.2 83,-169.2 83,-136.8 147.8,-136.8 147.8,-169.2"/>
<text text-anchor="middle" x="115.4" y="-149.88" font-family="Helvetica,sans-Serif" font-size="10.00" fill="#0a0e17">✓</text>
</g>
<!-- P16_6&#45;&gt;P17_6 -->
<!-- P17_7 -->
<g id="node90" class="node">
<title>P17_7</title>
<polygon fill="#1e2a3a" stroke="black" points="64.8,-169.2 0,-169.2 0,-136.8 64.8,-136.8 64.8,-169.2"/>
<text text-anchor="middle" x="32.4" y="-149.88" font-family="Helvetica,sans-Serif" font-size="10.00" fill="#0a0e17"> </text>
</g>
<!-- P16_7&#45;&gt;P17_7 -->
<!-- P18_T -->
<g id="node91" class="node">
<title>P18_T</title>
<polygon fill="#7a8fa6" stroke="black" points="728.8,-100.8 664,-100.8 664,-68.4 728.8,-68.4 728.8,-100.8"/>
<text text-anchor="middle" x="696.4" y="-81.48" font-family="Helvetica,sans-Serif" font-size="10.00" fill="#0a0e17">Pass 18</text>
</g>
<!-- P17_T&#45;&gt;P18_T -->
<!-- P18_0 -->
<g id="node92" class="node">
<title>P18_0</title>
<polygon fill="#1e2a3a" stroke="black" points="645.8,-100.8 581,-100.8 581,-68.4 645.8,-68.4 645.8,-100.8"/>
<text text-anchor="middle" x="613.4" y="-81.48" font-family="Helvetica,sans-Serif" font-size="10.00" fill="#0a0e17"> </text>
</g>
<!-- P17_0&#45;&gt;P18_0 -->
<!-- P18_1 -->
<g id="node93" class="node">
<title>P18_1</title>
<polygon fill="#1e2a3a" stroke="black" points="562.8,-100.8 498,-100.8 498,-68.4 562.8,-68.4 562.8,-100.8"/>
<text text-anchor="middle" x="530.4" y="-81.48" font-family="Helvetica,sans-Serif" font-size="10.00" fill="#0a0e17"> </text>
</g>
<!-- P17_1&#45;&gt;P18_1 -->
<!-- P18_2 -->
<g id="node94" class="node">
<title>P18_2</title>
<polygon fill="#3dd68c" stroke="black" points="479.8,-100.8 415,-100.8 415,-68.4 479.8,-68.4 479.8,-100.8"/>
<text text-anchor="middle" x="447.4" y="-81.48" font-family="Helvetica,sans-Serif" font-size="10.00" fill="#0a0e17">✓</text>
</g>
<!-- P17_2&#45;&gt;P18_2 -->
<!-- P18_3 -->
<g id="node95" class="node">
<title>P18_3</title>
<polygon fill="#3dd68c" stroke="black" points="396.8,-100.8 332,-100.8 332,-68.4 396.8,-68.4 396.8,-100.8"/>
<text text-anchor="middle" x="364.4" y="-81.48" font-family="Helvetica,sans-Serif" font-size="10.00" fill="#0a0e17">✓</text>
</g>
<!-- P17_3&#45;&gt;P18_3 -->
<!-- P18_4 -->
<g id="node96" class="node">
<title>P18_4</title>
<polygon fill="#3dd68c" stroke="black" points="313.8,-100.8 249,-100.8 249,-68.4 313.8,-68.4 313.8,-100.8"/>
<text text-anchor="middle" x="281.4" y="-81.48" font-family="Helvetica,sans-Serif" font-size="10.00" fill="#0a0e17">✓</text>
</g>
<!-- P17_4&#45;&gt;P18_4 -->
<!-- P18_5 -->
<g id="node97" class="node">
<title>P18_5</title>
<polygon fill="#1e2a3a" stroke="black" points="230.8,-100.8 166,-100.8 166,-68.4 230.8,-68.4 230.8,-100.8"/>
<text text-anchor="middle" x="198.4" y="-81.48" font-family="Helvetica,sans-Serif" font-size="10.00" fill="#0a0e17"> </text>
</g>
<!-- P17_5&#45;&gt;P18_5 -->
<!-- P18_6 -->
<g id="node98" class="node">
<title>P18_6</title>
<polygon fill="#1e2a3a" stroke="black" points="147.8,-100.8 83,-100.8 83,-68.4 147.8,-68.4 147.8,-100.8"/>
<text text-anchor="middle" x="115.4" y="-81.48" font-family="Helvetica,sans-Serif" font-size="10.00" fill="#0a0e17"> </text>
</g>
<!-- P17_6&#45;&gt;P18_6 -->
<!-- P18_7 -->
<g id="node99" class="node">
<title>P18_7</title>
<polygon fill="#1e2a3a" stroke="black" points="64.8,-100.8 0,-100.8 0,-68.4 64.8,-68.4 64.8,-100.8"/>
<text text-anchor="middle" x="32.4" y="-81.48" font-family="Helvetica,sans-Serif" font-size="10.00" fill="#0a0e17"> </text>
</g>
<!-- P17_7&#45;&gt;P18_7 -->
<!-- P19_T -->
<g id="node100" class="node">
<title>P19_T</title>
<polygon fill="#3dd68c" stroke="black" points="728.8,-32.4 664,-32.4 664,0 728.8,0 728.8,-32.4"/>
<text text-anchor="middle" x="696.4" y="-13.07" font-family="Helvetica,sans-Serif" font-size="10.00" fill="#0a0e17">Pass 19</text>
</g>
<!-- P18_T&#45;&gt;P19_T -->
<!-- P19_0 -->
<g id="node101" class="node">
<title>P19_0</title>
<polygon fill="#1e2a3a" stroke="black" points="645.8,-32.4 581,-32.4 581,0 645.8,0 645.8,-32.4"/>
<text text-anchor="middle" x="613.4" y="-13.07" font-family="Helvetica,sans-Serif" font-size="10.00" fill="#0a0e17"> </text>
</g>
<!-- P18_0&#45;&gt;P19_0 -->
<!-- P19_1 -->
<g id="node102" class="node">
<title>P19_1</title>
<polygon fill="#3dd68c" stroke="black" points="562.8,-32.4 498,-32.4 498,0 562.8,0 562.8,-32.4"/>
<text text-anchor="middle" x="530.4" y="-13.07" font-family="Helvetica,sans-Serif" font-size="10.00" fill="#0a0e17">★</text>
</g>
<!-- P18_1&#45;&gt;P19_1 -->
<!-- P19_2 -->
<g id="node103" class="node">
<title>P19_2</title>
<polygon fill="#1e2a3a" stroke="black" points="479.8,-32.4 415,-32.4 415,0 479.8,0 479.8,-32.4"/>
<text text-anchor="middle" x="447.4" y="-13.07" font-family="Helvetica,sans-Serif" font-size="10.00" fill="#0a0e17"> </text>
</g>
<!-- P18_2&#45;&gt;P19_2 -->
<!-- P19_3 -->
<g id="node104" class="node">
<title>P19_3</title>
<polygon fill="#1e2a3a" stroke="black" points="396.8,-32.4 332,-32.4 332,0 396.8,0 396.8,-32.4"/>
<text text-anchor="middle" x="364.4" y="-13.07" font-family="Helvetica,sans-Serif" font-size="10.00" fill="#0a0e17"> </text>
</g>
<!-- P18_3&#45;&gt;P19_3 -->
<!-- P19_4 -->
<g id="node105" class="node">
<title>P19_4</title>
<polygon fill="#3dd68c" stroke="black" points="313.8,-32.4 249,-32.4 249,0 313.8,0 313.8,-32.4"/>
<text text-anchor="middle" x="281.4" y="-13.07" font-family="Helvetica,sans-Serif" font-size="10.00" fill="#0a0e17">★</text>
</g>
<!-- P18_4&#45;&gt;P19_4 -->
<!-- P19_5 -->
<g id="node106" class="node">
<title>P19_5</title>
<polygon fill="#3dd68c" stroke="black" points="230.8,-32.4 166,-32.4 166,0 230.8,0 230.8,-32.4"/>
<text text-anchor="middle" x="198.4" y="-13.07" font-family="Helvetica,sans-Serif" font-size="10.00" fill="#0a0e17">★</text>
</g>
<!-- P18_5&#45;&gt;P19_5 -->
<!-- P19_6 -->
<g id="node107" class="node">
<title>P19_6</title>
<polygon fill="#3dd68c" stroke="black" points="147.8,-32.4 83,-32.4 83,0 147.8,0 147.8,-32.4"/>
<text text-anchor="middle" x="115.4" y="-13.07" font-family="Helvetica,sans-Serif" font-size="10.00" fill="#0a0e17">★</text>
</g>
<!-- P18_6&#45;&gt;P19_6 -->
<!-- P19_7 -->
<g id="node108" class="node">
<title>P19_7</title>
<polygon fill="#3dd68c" stroke="black" points="64.8,-32.4 0,-32.4 0,0 64.8,0 64.8,-32.4"/>
<text text-anchor="middle" x="32.4" y="-13.07" font-family="Helvetica,sans-Serif" font-size="10.00" fill="#0a0e17">★</text>
</g>
<!-- P18_7&#45;&gt;P19_7 -->
<!-- LK1 -->
<g id="node109" class="node">
<title>LK1</title>
<polygon fill="#3dd68c" stroke="black" points="750.8,-1340.8 686,-1340.8 686,-1308.4 750.8,-1308.4 750.8,-1340.8"/>
<text text-anchor="middle" x="718.4" y="-1321.48" font-family="Helvetica,sans-Serif" font-size="10.00" fill="#0a0e17">touched</text>
</g>
<!-- LK2 -->
<g id="node110" class="node">
<title>LK2</title>
<polygon fill="#1e2a3a" stroke="black" points="755.27,-1271.85 681.52,-1271.85 681.52,-1239.45 755.27,-1239.45 755.27,-1271.85"/>
<text text-anchor="middle" x="718.4" y="-1252.53" font-family="Helvetica,sans-Serif" font-size="10.00" fill="#7a8fa6">not touched</text>
</g>
<!-- LK1&#45;&gt;LK2 -->
<!-- LK3 -->
<g id="node111" class="node">
<title>LK3</title>
<polygon fill="#00d4aa" stroke="black" points="750.8,-1202.35 686,-1202.35 686,-1169.95 750.8,-1169.95 750.8,-1202.35"/>
<text text-anchor="middle" x="718.4" y="-1183.03" font-family="Helvetica,sans-Serif" font-size="10.00" fill="#0a0e17">header</text>
</g>
<!-- LK2&#45;&gt;LK3 -->
</g>
</svg>
