<?xml version="1.0" encoding="UTF-8" standalone="no"?>
<!DOCTYPE svg PUBLIC "-//W3C//DTD SVG 1.1//EN"
 "http://www.w3.org/Graphics/SVG/1.1/DTD/svg11.dtd">
<!-- Generated by graphviz version 12.2.1 (0)
 -->
<!-- Title: G31_FederatedCPIGTopology Pages: 1 -->
<svg width="851pt" height="403pt"
 viewBox="0.00 0.00 850.73 403.25" xmlns="http://www.w3.org/2000/svg" xmlns:xlink="http://www.w3.org/1999/xlink">
<g id="graph0" class="graph" transform="scale(1 1) rotate(0) translate(4 399.25)">
<title>G31_FederatedCPIGTopology</title>
<polygon fill="#0a0e17" stroke="none" points="-4,4 -4,-399.25 846.73,-399.25 846.73,4 -4,4"/>
<text text-anchor="middle" x="421.36" y="-377.95" font-family="Times,serif" font-size="14.00" fill="#00d4aa">G31 — Federated CPIG Topology · 3&#45;mesh peer attestation + 2oo3 quorum</text>
<g id="clust1" class="cluster">
<title>cluster_a</title>
<polygon fill="#0a0e17" stroke="#1e2a3a" stroke-dasharray="5,2" points="10.25,-200 10.25,-277 241.62,-277 241.62,-200 10.25,-200"/>
<text text-anchor="middle" x="125.94" y="-259.7" font-family="Times,serif" font-size="14.00" fill="#3dd68c">Mesh A (region: eu&#45;north)</text>
</g>
<g id="clust2" class="cluster">
<title>cluster_b</title>
<polygon fill="#0a0e17" stroke="#1e2a3a" stroke-dasharray="5,2" points="10.62,-93 10.62,-170 241.25,-170 241.25,-93 10.62,-93"/>
<text text-anchor="middle" x="125.94" y="-152.7" font-family="Times,serif" font-size="14.00" fill="#3dd68c">Mesh B (region: us&#45;east)</text>
</g>
<g id="clust3" class="cluster">
<title>cluster_c</title>
<polygon fill="#0a0e17" stroke="#1e2a3a" stroke-dasharray="5,2" points="10.25,-8 10.25,-85 241.62,-85 241.62,-8 10.25,-8"/>
<text text-anchor="middle" x="125.94" y="-67.7" font-family="Times,serif" font-size="14.00" fill="#3dd68c">Mesh C (region: ap&#45;south)</text>
</g>
<g id="clust4" class="cluster">
<title>cluster_legend</title>
<polygon fill="#0a0e17" stroke="#1e2a3a" stroke-dasharray="5,2" points="8,-285 8,-362 617.61,-362 617.61,-285 8,-285"/>
<text text-anchor="middle" x="312.81" y="-344.7" font-family="Times,serif" font-size="14.00" fill="#00d4aa">legend</text>
</g>
<!-- A_cpig -->
<g id="node1" class="node">
<title>A_cpig</title>
<path fill="#141922" stroke="#1e2a3a" stroke-width="1.2" d="M64.25,-244C64.25,-244 30.25,-244 30.25,-244 24.25,-244 18.25,-238 18.25,-232 18.25,-232 18.25,-220 18.25,-220 18.25,-214 24.25,-208 30.25,-208 30.25,-208 64.25,-208 64.25,-208 70.25,-208 76.25,-214 76.25,-220 76.25,-220 76.25,-232 76.25,-232 76.25,-238 70.25,-244 64.25,-244"/>
<text text-anchor="middle" x="47.25" y="-229.25" font-family="Helvetica,sans-Serif" font-size="10.00" fill="#e0e6ed">CPIG</text>
<text text-anchor="middle" x="47.25" y="-216.5" font-family="Helvetica,sans-Serif" font-size="10.00" fill="#e0e6ed">Matrix&#45;A</text>
</g>
<!-- A_attest -->
<g id="node2" class="node">
<title>A_attest</title>
<path fill="#141922" stroke="#1e2a3a" stroke-width="1.2" d="M221.62,-244C221.62,-244 180.12,-244 180.12,-244 174.12,-244 168.12,-238 168.12,-232 168.12,-232 168.12,-220 168.12,-220 168.12,-214 174.12,-208 180.12,-208 180.12,-208 221.62,-208 221.62,-208 227.62,-208 233.62,-214 233.62,-220 233.62,-220 233.62,-232 233.62,-232 233.62,-238 227.62,-244 221.62,-244"/>
<text text-anchor="middle" x="200.88" y="-229.25" font-family="Helvetica,sans-Serif" font-size="10.00" fill="#e0e6ed">Ed25519</text>
<text text-anchor="middle" x="200.88" y="-216.5" font-family="Helvetica,sans-Serif" font-size="10.00" fill="#e0e6ed">Attester&#45;A</text>
</g>
<!-- A_cpig&#45;&gt;A_attest -->
<g id="edge1" class="edge">
<title>A_cpig&#45;&gt;A_attest</title>
<path fill="none" stroke="#7a8fa6" d="M76.41,-226C98.84,-226 130.63,-226 156.33,-226"/>
<polygon fill="#7a8fa6" stroke="#7a8fa6" points="156.14,-229.5 166.14,-226 156.14,-222.5 156.14,-229.5"/>
<text text-anchor="middle" x="120.12" y="-228.7" font-family="Helvetica,sans-Serif" font-size="9.00" fill="#7a8fa6">sign</text>
</g>
<!-- B_attest -->
<g id="node4" class="node">
<title>B_attest</title>
<path fill="#141922" stroke="#1e2a3a" stroke-width="1.2" d="M221.25,-137C221.25,-137 180.5,-137 180.5,-137 174.5,-137 168.5,-131 168.5,-125 168.5,-125 168.5,-113 168.5,-113 168.5,-107 174.5,-101 180.5,-101 180.5,-101 221.25,-101 221.25,-101 227.25,-101 233.25,-107 233.25,-113 233.25,-113 233.25,-125 233.25,-125 233.25,-131 227.25,-137 221.25,-137"/>
<text text-anchor="middle" x="200.88" y="-122.25" font-family="Helvetica,sans-Serif" font-size="10.00" fill="#e0e6ed">Ed25519</text>
<text text-anchor="middle" x="200.88" y="-109.5" font-family="Helvetica,sans-Serif" font-size="10.00" fill="#e0e6ed">Attester&#45;B</text>
</g>
<!-- A_attest&#45;&gt;B_attest -->
<g id="edge8" class="edge">
<title>A_attest&#45;&gt;B_attest</title>
<path fill="none" stroke="#7a8fa6" stroke-dasharray="1,5" d="M200.88,-207.76C200.88,-191.51 200.88,-167.45 200.88,-148.47"/>
<polygon fill="#7a8fa6" stroke="#7a8fa6" points="204.38,-148.66 200.88,-138.66 197.38,-148.66 204.38,-148.66"/>
<text text-anchor="middle" x="192.25" y="-169.57" font-family="Helvetica,sans-Serif" font-size="9.00" fill="#7a8fa6">peer&#45;verify</text>
</g>
<!-- Q -->
<g id="node7" class="node">
<title>Q</title>
<path fill="#00d4aa" stroke="#1e2a3a" stroke-width="1.2" d="M631.59,-127.58C631.59,-127.58 609.68,-150.02 609.68,-150.02 605.49,-154.31 595.29,-158.6 589.29,-158.6 589.29,-158.6 535.93,-158.6 535.93,-158.6 529.93,-158.6 519.74,-154.31 515.55,-150.02 515.55,-150.02 493.64,-127.58 493.64,-127.58 489.44,-123.29 489.44,-114.71 493.64,-110.42 493.64,-110.42 515.55,-87.98 515.55,-87.98 519.74,-83.69 529.93,-79.4 535.93,-79.4 535.93,-79.4 589.29,-79.4 589.29,-79.4 595.29,-79.4 605.49,-83.69 609.68,-87.98 609.68,-87.98 631.59,-110.42 631.59,-110.42 635.78,-114.71 635.78,-123.29 631.59,-127.58"/>
<text text-anchor="middle" x="562.61" y="-128.8" font-family="Helvetica,sans-Serif" font-size="11.00" fill="#0a0e17">2oo3 Quorum</text>
<text text-anchor="middle" x="562.61" y="-115.3" font-family="Helvetica,sans-Serif" font-size="11.00" fill="#0a0e17">Decision Node</text>
<text text-anchor="middle" x="562.61" y="-101.8" font-family="Helvetica,sans-Serif" font-size="11.00" fill="#0a0e17">(SC&#45;SIL4&#45;006)</text>
</g>
<!-- A_attest&#45;&gt;Q -->
<g id="edge4" class="edge">
<title>A_attest&#45;&gt;Q</title>
<path fill="none" stroke="#3dd68c" d="M234.12,-216.41C291.76,-199.26 413.74,-162.98 491.47,-139.86"/>
<polygon fill="#3dd68c" stroke="#3dd68c" points="492.09,-143.33 500.68,-137.12 490.1,-136.62 492.09,-143.33"/>
<text text-anchor="middle" x="362.62" y="-210.76" font-family="Helvetica,sans-Serif" font-size="9.00" fill="#3dd68c">Ed25519 score=0.92 at=2026&#45;04&#45;28T10:00Z</text>
</g>
<!-- B_cpig -->
<g id="node3" class="node">
<title>B_cpig</title>
<path fill="#141922" stroke="#1e2a3a" stroke-width="1.2" d="M63.88,-137C63.88,-137 30.62,-137 30.62,-137 24.62,-137 18.62,-131 18.62,-125 18.62,-125 18.62,-113 18.62,-113 18.62,-107 24.62,-101 30.62,-101 30.62,-101 63.88,-101 63.88,-101 69.88,-101 75.88,-107 75.88,-113 75.88,-113 75.88,-125 75.88,-125 75.88,-131 69.88,-137 63.88,-137"/>
<text text-anchor="middle" x="47.25" y="-122.25" font-family="Helvetica,sans-Serif" font-size="10.00" fill="#e0e6ed">CPIG</text>
<text text-anchor="middle" x="47.25" y="-109.5" font-family="Helvetica,sans-Serif" font-size="10.00" fill="#e0e6ed">Matrix&#45;B</text>
</g>
<!-- B_cpig&#45;&gt;B_attest -->
<g id="edge2" class="edge">
<title>B_cpig&#45;&gt;B_attest</title>
<path fill="none" stroke="#7a8fa6" d="M76.06,-119C98.6,-119 130.75,-119 156.64,-119"/>
<polygon fill="#7a8fa6" stroke="#7a8fa6" points="156.53,-122.5 166.53,-119 156.53,-115.5 156.53,-122.5"/>
<text text-anchor="middle" x="120.12" y="-121.7" font-family="Helvetica,sans-Serif" font-size="9.00" fill="#7a8fa6">sign</text>
</g>
<!-- C_attest -->
<g id="node6" class="node">
<title>C_attest</title>
<path fill="#141922" stroke="#1e2a3a" stroke-width="1.2" d="M221.62,-52C221.62,-52 180.12,-52 180.12,-52 174.12,-52 168.12,-46 168.12,-40 168.12,-40 168.12,-28 168.12,-28 168.12,-22 174.12,-16 180.12,-16 180.12,-16 221.62,-16 221.62,-16 227.62,-16 233.62,-22 233.62,-28 233.62,-28 233.62,-40 233.62,-40 233.62,-46 227.62,-52 221.62,-52"/>
<text text-anchor="middle" x="200.88" y="-37.25" font-family="Helvetica,sans-Serif" font-size="10.00" fill="#e0e6ed">Ed25519</text>
<text text-anchor="middle" x="200.88" y="-24.5" font-family="Helvetica,sans-Serif" font-size="10.00" fill="#e0e6ed">Attester&#45;C</text>
</g>
<!-- B_attest&#45;&gt;C_attest -->
<g id="edge9" class="edge">
<title>B_attest&#45;&gt;C_attest</title>
<path fill="none" stroke="#7a8fa6" stroke-dasharray="1,5" d="M200.88,-100.59C200.88,-89.79 200.88,-75.9 200.88,-63.6"/>
<polygon fill="#7a8fa6" stroke="#7a8fa6" points="204.38,-63.96 200.88,-53.96 197.38,-63.96 204.38,-63.96"/>
<text text-anchor="middle" x="192.25" y="-73.58" font-family="Helvetica,sans-Serif" font-size="9.00" fill="#7a8fa6">peer&#45;verify</text>
</g>
<!-- B_attest&#45;&gt;Q -->
<g id="edge5" class="edge">
<title>B_attest&#45;&gt;Q</title>
<path fill="none" stroke="#3dd68c" d="M233.48,-119C286.59,-119 395.55,-119 473.33,-119"/>
<polygon fill="#3dd68c" stroke="#3dd68c" points="473.06,-122.5 483.06,-119 473.06,-115.5 473.06,-122.5"/>
<text text-anchor="middle" x="362.62" y="-121.7" font-family="Helvetica,sans-Serif" font-size="9.00" fill="#3dd68c">Ed25519 score=0.88 at=2026&#45;04&#45;28T10:00Z</text>
</g>
<!-- C_cpig -->
<g id="node5" class="node">
<title>C_cpig</title>
<path fill="#141922" stroke="#1e2a3a" stroke-width="1.2" d="M64.25,-52C64.25,-52 30.25,-52 30.25,-52 24.25,-52 18.25,-46 18.25,-40 18.25,-40 18.25,-28 18.25,-28 18.25,-22 24.25,-16 30.25,-16 30.25,-16 64.25,-16 64.25,-16 70.25,-16 76.25,-22 76.25,-28 76.25,-28 76.25,-40 76.25,-40 76.25,-46 70.25,-52 64.25,-52"/>
<text text-anchor="middle" x="47.25" y="-37.25" font-family="Helvetica,sans-Serif" font-size="10.00" fill="#e0e6ed">CPIG</text>
<text text-anchor="middle" x="47.25" y="-24.5" font-family="Helvetica,sans-Serif" font-size="10.00" fill="#e0e6ed">Matrix&#45;C</text>
</g>
<!-- C_cpig&#45;&gt;C_attest -->
<g id="edge3" class="edge">
<title>C_cpig&#45;&gt;C_attest</title>
<path fill="none" stroke="#7a8fa6" d="M76.41,-34C98.84,-34 130.63,-34 156.33,-34"/>
<polygon fill="#7a8fa6" stroke="#7a8fa6" points="156.14,-37.5 166.14,-34 156.14,-30.5 156.14,-37.5"/>
<text text-anchor="middle" x="120.12" y="-36.7" font-family="Helvetica,sans-Serif" font-size="9.00" fill="#7a8fa6">sign</text>
</g>
<!-- C_attest&#45;&gt;A_attest -->
<g id="edge10" class="edge">
<title>C_attest&#45;&gt;A_attest</title>
<path fill="none" stroke="#7a8fa6" stroke-dasharray="1,5" d="M175.92,-52.45C138.95,-82.08 77.27,-141.8 109.69,-189.62 120.33,-205.32 138.94,-214.25 156.6,-219.32"/>
<polygon fill="#7a8fa6" stroke="#7a8fa6" points="155.65,-222.69 166.2,-221.7 157.34,-215.9 155.65,-222.69"/>
<text text-anchor="middle" x="120.12" y="-181.07" font-family="Helvetica,sans-Serif" font-size="9.00" fill="#7a8fa6">peer&#45;verify</text>
</g>
<!-- C_attest&#45;&gt;Q -->
<g id="edge6" class="edge">
<title>C_attest&#45;&gt;Q</title>
<path fill="none" stroke="#3dd68c" d="M234.12,-41.62C290.91,-55.04 410.12,-83.21 487.97,-101.6"/>
<polygon fill="#3dd68c" stroke="#3dd68c" points="487.13,-105 497.67,-103.89 488.74,-98.19 487.13,-105"/>
<text text-anchor="middle" x="362.62" y="-98.9" font-family="Helvetica,sans-Serif" font-size="9.00" fill="#3dd68c">Ed25519 score=0.91 at=2026&#45;04&#45;28T10:00Z</text>
</g>
<!-- Federated -->
<g id="node8" class="node">
<title>Federated</title>
<polygon fill="#3dd68c" stroke="#1e2a3a" stroke-width="1.2" points="842.73,-137 755.73,-137 751.73,-133 751.73,-101 838.73,-101 842.73,-105 842.73,-137"/>
<polyline fill="none" stroke="#1e2a3a" stroke-width="1.2" points="838.73,-133 751.73,-133"/>
<polyline fill="none" stroke="#1e2a3a" stroke-width="1.2" points="838.73,-133 838.73,-101"/>
<polyline fill="none" stroke="#1e2a3a" stroke-width="1.2" points="838.73,-133 842.73,-137"/>
<text text-anchor="middle" x="797.23" y="-122.25" font-family="Helvetica,sans-Serif" font-size="10.00" fill="#0a0e17">Federated CPIG</text>
<text text-anchor="middle" x="797.23" y="-109.5" font-family="Helvetica,sans-Serif" font-size="10.00" fill="#0a0e17">(consensus)</text>
</g>
<!-- Q&#45;&gt;Federated -->
<g id="edge7" class="edge">
<title>Q&#45;&gt;Federated</title>
<path fill="none" stroke="#7a8fa6" d="M640.42,-119C672.9,-119 710.04,-119 739.91,-119"/>
<polygon fill="#7a8fa6" stroke="#7a8fa6" points="739.88,-122.5 749.88,-119 739.88,-115.5 739.88,-122.5"/>
<text text-anchor="middle" x="695.85" y="-132.95" font-family="Helvetica,sans-Serif" font-size="9.00" fill="#7a8fa6">quorum reached</text>
<text text-anchor="middle" x="695.85" y="-121.7" font-family="Helvetica,sans-Serif" font-size="9.00" fill="#7a8fa6">2oo3 ≥ 0.85</text>
</g>
<!-- L1 -->
<g id="node9" class="node">
<title>L1</title>
<path fill="#141922" stroke="#1e2a3a" stroke-width="1.2" d="M66.5,-329C66.5,-329 28,-329 28,-329 22,-329 16,-323 16,-317 16,-317 16,-305 16,-305 16,-299 22,-293 28,-293 28,-293 66.5,-293 66.5,-293 72.5,-293 78.5,-299 78.5,-305 78.5,-305 78.5,-317 78.5,-317 78.5,-323 72.5,-329 66.5,-329"/>
<text text-anchor="middle" x="47.25" y="-307.88" font-family="Helvetica,sans-Serif" font-size="10.00" fill="#e0e6ed">local sign</text>
</g>
<!-- L2 -->
<g id="node10" class="node">
<title>L2</title>
<path fill="#3dd68c" stroke="#1e2a3a" stroke-width="1.2" d="M228,-329C228,-329 173.75,-329 173.75,-329 167.75,-329 161.75,-323 161.75,-317 161.75,-317 161.75,-305 161.75,-305 161.75,-299 167.75,-293 173.75,-293 173.75,-293 228,-293 228,-293 234,-293 240,-299 240,-305 240,-305 240,-317 240,-317 240,-323 234,-329 228,-329"/>
<text text-anchor="middle" x="200.88" y="-307.88" font-family="Helvetica,sans-Serif" font-size="10.00" fill="#0a0e17">quorum vote</text>
</g>
<!-- L1&#45;&gt;L2 -->
<!-- L3 -->
<g id="node11" class="node">
<title>L3</title>
<path fill="#1e2a3a" stroke="#1e2a3a" stroke-width="1.2" d="M597.61,-329C597.61,-329 527.61,-329 527.61,-329 521.61,-329 515.61,-323 515.61,-317 515.61,-317 515.61,-305 515.61,-305 515.61,-299 521.61,-293 527.61,-293 527.61,-293 597.61,-293 597.61,-293 603.61,-293 609.61,-299 609.61,-305 609.61,-305 609.61,-317 609.61,-317 609.61,-323 603.61,-329 597.61,-329"/>
<text text-anchor="middle" x="562.61" y="-307.88" font-family="Helvetica,sans-Serif" font-size="10.00" fill="#e0e6ed">peer attestation</text>
</g>
<!-- L2&#45;&gt;L3 -->
</g>
</svg>
