<?xml version="1.0" encoding="UTF-8" standalone="no"?>
<!DOCTYPE svg PUBLIC "-//W3C//DTD SVG 1.1//EN"
 "http://www.w3.org/Graphics/SVG/1.1/DTD/svg11.dtd">
<!-- Generated by graphviz version 12.2.1 (0)
 -->
<!-- Title: G32_MultiRegionVotingSequence Pages: 1 -->
<svg width="555pt" height="702pt"
 viewBox="0.00 0.00 555.12 702.25" xmlns="http://www.w3.org/2000/svg" xmlns:xlink="http://www.w3.org/1999/xlink">
<g id="graph0" class="graph" transform="scale(1 1) rotate(0) translate(4 698.25)">
<title>G32_MultiRegionVotingSequence</title>
<polygon fill="#0a0e17" stroke="none" points="-4,4 -4,-698.25 551.12,-698.25 551.12,4 -4,4"/>
<text text-anchor="middle" x="273.56" y="-676.95" font-family="Times,serif" font-size="14.00" fill="#00d4aa">G32 — Multi&#45;Region CPIG Voting Sequence · 12 numbered messages</text>
<g id="clust2" class="cluster">
<title>cluster_legend</title>
<polygon fill="#0a0e17" stroke="#1e2a3a" stroke-dasharray="5,2" points="199.5,-584 199.5,-661 539.12,-661 539.12,-584 199.5,-584"/>
<text text-anchor="middle" x="369.31" y="-643.7" font-family="Times,serif" font-size="14.00" fill="#00d4aa">legend</text>
</g>
<!-- Operator -->
<g id="node1" class="node">
<title>Operator</title>
<path fill="#00d4aa" stroke="#1e2a3a" d="M308.62,-260C308.62,-260 246.12,-260 246.12,-260 240.12,-260 234.12,-254 234.12,-248 234.12,-248 234.12,-236 234.12,-236 234.12,-230 240.12,-224 246.12,-224 246.12,-224 308.62,-224 308.62,-224 314.62,-224 320.62,-230 320.62,-236 320.62,-236 320.62,-248 320.62,-248 320.62,-254 314.62,-260 308.62,-260"/>
<text text-anchor="middle" x="277.38" y="-245.25" font-family="Helvetica,sans-Serif" font-size="10.00" fill="#0a0e17">Operator</text>
<text text-anchor="middle" x="277.38" y="-232.5" font-family="Helvetica,sans-Serif" font-size="10.00" fill="#0a0e17">(cpig&#45;vote CLI)</text>
</g>
<!-- Leader -->
<g id="node2" class="node">
<title>Leader</title>
<path fill="#3dd68c" stroke="#1e2a3a" d="M308.25,-148C308.25,-148 246.5,-148 246.5,-148 240.5,-148 234.5,-142 234.5,-136 234.5,-136 234.5,-124 234.5,-124 234.5,-118 240.5,-112 246.5,-112 246.5,-112 308.25,-112 308.25,-112 314.25,-112 320.25,-118 320.25,-124 320.25,-124 320.25,-136 320.25,-136 320.25,-142 314.25,-148 308.25,-148"/>
<text text-anchor="middle" x="277.38" y="-133.25" font-family="Helvetica,sans-Serif" font-size="10.00" fill="#0a0e17">Leader Region</text>
<text text-anchor="middle" x="277.38" y="-120.5" font-family="Helvetica,sans-Serif" font-size="10.00" fill="#0a0e17">(eu&#45;north)</text>
</g>
<!-- Operator&#45;&gt;Leader -->
<g id="edge1" class="edge">
<title>Operator&#45;&gt;Leader</title>
<path fill="none" stroke="#7a8fa6" d="M277.38,-223.85C277.38,-206.6 277.38,-180.34 277.38,-159.98"/>
<polygon fill="#7a8fa6" stroke="#7a8fa6" points="280.88,-160.01 277.38,-150.01 273.88,-160.01 280.88,-160.01"/>
<text text-anchor="middle" x="268.75" y="-183.07" font-family="Helvetica,sans-Serif" font-size="9.00" fill="#3dd68c">1. cpig&#45;vote &#45;&#45;proposal P</text>
</g>
<!-- Leader&#45;&gt;Leader -->
<g id="edge2" class="edge">
<title>Leader&#45;&gt;Leader</title>
<path fill="none" stroke="#7a8fa6" stroke-dasharray="5,2" d="M255.89,-148.15C252.59,-157.54 259.75,-166 277.38,-166 287.29,-166 293.89,-163.32 297.19,-159.31"/>
<polygon fill="#7a8fa6" stroke="#7a8fa6" points="300.61,-160.06 298.63,-149.65 293.69,-159.02 300.61,-160.06"/>
<text text-anchor="middle" x="277.38" y="-179.95" font-family="Helvetica,sans-Serif" font-size="9.00" fill="#3dd68c">2. validate proposal</text>
<text text-anchor="middle" x="277.38" y="-168.7" font-family="Helvetica,sans-Serif" font-size="9.00" fill="#3dd68c"> &#160;&#160;(TLA+ inv check)</text>
</g>
<!-- Follower1 -->
<g id="node3" class="node">
<title>Follower1</title>
<path fill="#141922" stroke="#1e2a3a" d="M298.5,-36C298.5,-36 256.25,-36 256.25,-36 250.25,-36 244.25,-30 244.25,-24 244.25,-24 244.25,-12 244.25,-12 244.25,-6 250.25,0 256.25,0 256.25,0 298.5,0 298.5,0 304.5,0 310.5,-6 310.5,-12 310.5,-12 310.5,-24 310.5,-24 310.5,-30 304.5,-36 298.5,-36"/>
<text text-anchor="middle" x="277.38" y="-21.25" font-family="Helvetica,sans-Serif" font-size="10.00" fill="#e0e6ed">Follower 1</text>
<text text-anchor="middle" x="277.38" y="-8.5" font-family="Helvetica,sans-Serif" font-size="10.00" fill="#e0e6ed">(us&#45;east)</text>
</g>
<!-- Leader&#45;&gt;Follower1 -->
<g id="edge3" class="edge">
<title>Leader&#45;&gt;Follower1</title>
<path fill="none" stroke="#7a8fa6" d="M277.38,-111.85C277.38,-94.6 277.38,-68.34 277.38,-47.98"/>
<polygon fill="#7a8fa6" stroke="#7a8fa6" points="280.88,-48.01 277.38,-38.01 273.88,-48.01 280.88,-48.01"/>
<text text-anchor="middle" x="268.75" y="-71.08" font-family="Helvetica,sans-Serif" font-size="9.00" fill="#3dd68c">3. broadcast P (Ed25519)</text>
</g>
<!-- Follower2 -->
<g id="node4" class="node">
<title>Follower2</title>
<path fill="#141922" stroke="#1e2a3a" d="M298.5,-533C298.5,-533 256.25,-533 256.25,-533 250.25,-533 244.25,-527 244.25,-521 244.25,-521 244.25,-509 244.25,-509 244.25,-503 250.25,-497 256.25,-497 256.25,-497 298.5,-497 298.5,-497 304.5,-497 310.5,-503 310.5,-509 310.5,-509 310.5,-521 310.5,-521 310.5,-527 304.5,-533 298.5,-533"/>
<text text-anchor="middle" x="277.38" y="-518.25" font-family="Helvetica,sans-Serif" font-size="10.00" fill="#e0e6ed">Follower 2</text>
<text text-anchor="middle" x="277.38" y="-505.5" font-family="Helvetica,sans-Serif" font-size="10.00" fill="#e0e6ed">(ap&#45;south)</text>
</g>
<!-- Leader&#45;&gt;Follower2 -->
<g id="edge4" class="edge">
<title>Leader&#45;&gt;Follower2</title>
<path fill="none" stroke="#7a8fa6" d="M236.76,-148.33C187.04,-173.3 105.22,-223.18 70.9,-294.38 62.65,-311.47 69.19,-378.84 177.12,-471 193.32,-484.82 214.53,-494.98 233.28,-502.02"/>
<polygon fill="#7a8fa6" stroke="#7a8fa6" points="231.95,-505.26 242.54,-505.31 234.29,-498.67 231.95,-505.26"/>
<text text-anchor="middle" x="100.25" y="-297.07" font-family="Helvetica,sans-Serif" font-size="9.00" fill="#3dd68c">4. broadcast P (Ed25519)</text>
</g>
<!-- Quorum -->
<g id="node5" class="node">
<title>Quorum</title>
<path fill="#00d4aa" stroke="#1e2a3a" d="M314.8,-414.12C314.8,-414.12 307.31,-423.24 307.31,-423.24 303.57,-427.79 293.93,-432.35 288.03,-432.35 288.03,-432.35 266.72,-432.35 266.72,-432.35 260.82,-432.35 251.18,-427.79 247.44,-423.24 247.44,-423.24 239.95,-414.12 239.95,-414.12 236.21,-409.56 236.21,-400.44 239.95,-395.88 239.95,-395.88 247.44,-386.76 247.44,-386.76 251.18,-382.21 260.82,-377.65 266.72,-377.65 266.72,-377.65 288.03,-377.65 288.03,-377.65 293.93,-377.65 303.57,-382.21 307.31,-386.76 307.31,-386.76 314.8,-395.88 314.8,-395.88 318.54,-400.44 318.54,-409.56 314.8,-414.12"/>
<text text-anchor="middle" x="277.38" y="-408.25" font-family="Helvetica,sans-Serif" font-size="10.00" fill="#0a0e17">Quorum</text>
<text text-anchor="middle" x="277.38" y="-395.5" font-family="Helvetica,sans-Serif" font-size="10.00" fill="#0a0e17">Counter</text>
</g>
<!-- Leader&#45;&gt;Quorum -->
<g id="edge9" class="edge">
<title>Leader&#45;&gt;Quorum</title>
<path fill="none" stroke="#7a8fa6" d="M234.39,-139.92C186.06,-153.63 109.91,-183.52 75.77,-241.38 33.34,-313.29 157.87,-366.8 229.96,-390.89"/>
<polygon fill="#7a8fa6" stroke="#7a8fa6" points="228.58,-394.12 239.18,-393.9 230.75,-387.47 228.58,-394.12"/>
<text text-anchor="middle" x="100.25" y="-244.07" font-family="Helvetica,sans-Serif" font-size="9.00" fill="#3dd68c">9. vote=approve sig=...</text>
</g>
<!-- Follower1&#45;&gt;Follower1 -->
<g id="edge5" class="edge">
<title>Follower1&#45;&gt;Follower1</title>
<path fill="none" stroke="#7a8fa6" stroke-dasharray="5,2" d="M255.89,-36.15C252.59,-45.54 259.75,-54 277.38,-54 287.29,-54 293.89,-51.32 297.19,-47.31"/>
<polygon fill="#7a8fa6" stroke="#7a8fa6" points="300.61,-48.06 298.63,-37.65 293.69,-47.02 300.61,-48.06"/>
<text text-anchor="middle" x="277.38" y="-67.95" font-family="Helvetica,sans-Serif" font-size="9.00" fill="#3dd68c">5. local CPIG</text>
<text text-anchor="middle" x="277.38" y="-56.7" font-family="Helvetica,sans-Serif" font-size="9.00" fill="#3dd68c"> &#160;&#160;evaluate</text>
</g>
<!-- Follower1&#45;&gt;Quorum -->
<g id="edge7" class="edge">
<title>Follower1&#45;&gt;Quorum</title>
<path fill="none" stroke="#7a8fa6" d="M249.7,-36.44C177.59,-86.73 -5.07,-229.95 75.77,-340.62 108.71,-385.71 173.58,-399.96 220.87,-404.09"/>
<polygon fill="#7a8fa6" stroke="#7a8fa6" points="220.45,-407.56 230.67,-404.8 220.96,-400.58 220.45,-407.56"/>
<text text-anchor="middle" x="100.25" y="-332.07" font-family="Helvetica,sans-Serif" font-size="9.00" fill="#3dd68c">7. vote=approve sig=...</text>
</g>
<!-- Follower2&#45;&gt;Follower2 -->
<g id="edge6" class="edge">
<title>Follower2&#45;&gt;Follower2</title>
<path fill="none" stroke="#7a8fa6" stroke-dasharray="5,2" d="M255.89,-533.15C252.59,-542.54 259.75,-551 277.38,-551 287.29,-551 293.89,-548.32 297.19,-544.31"/>
<polygon fill="#7a8fa6" stroke="#7a8fa6" points="300.61,-545.06 298.63,-534.65 293.69,-544.02 300.61,-545.06"/>
<text text-anchor="middle" x="277.38" y="-564.95" font-family="Helvetica,sans-Serif" font-size="9.00" fill="#3dd68c">6. local CPIG</text>
<text text-anchor="middle" x="277.38" y="-553.7" font-family="Helvetica,sans-Serif" font-size="9.00" fill="#3dd68c"> &#160;&#160;evaluate</text>
</g>
<!-- Follower2&#45;&gt;Quorum -->
<g id="edge8" class="edge">
<title>Follower2&#45;&gt;Quorum</title>
<path fill="none" stroke="#7a8fa6" d="M277.38,-496.58C277.38,-482.28 277.38,-461.94 277.38,-444.06"/>
<polygon fill="#7a8fa6" stroke="#7a8fa6" points="280.88,-444.27 277.38,-434.27 273.88,-444.27 280.88,-444.27"/>
<text text-anchor="middle" x="268.75" y="-461.75" font-family="Helvetica,sans-Serif" font-size="9.00" fill="#3dd68c">8. vote=approve sig=...</text>
</g>
<!-- Quorum&#45;&gt;Quorum -->
<g id="edge10" class="edge">
<title>Quorum&#45;&gt;Quorum</title>
<path fill="none" stroke="#7a8fa6" stroke-dasharray="5,2" d="M255.13,-432.45C254.65,-442.31 262.07,-450.35 277.38,-450.35 286.46,-450.35 292.77,-447.52 296.29,-443.15"/>
<polygon fill="#7a8fa6" stroke="#7a8fa6" points="299.54,-444.49 299.17,-433.9 292.86,-442.41 299.54,-444.49"/>
<text text-anchor="middle" x="277.38" y="-453.05" font-family="Helvetica,sans-Serif" font-size="9.00" fill="#3dd68c">10. count: 3/3 ≥ 2oo3</text>
</g>
<!-- Published -->
<g id="node6" class="node">
<title>Published</title>
<polygon fill="#3dd68c" stroke="#1e2a3a" points="377.62,-342.12 181.12,-342.12 177.12,-338.12 177.12,-295.88 373.62,-295.88 377.62,-299.88 377.62,-342.12"/>
<polyline fill="none" stroke="#1e2a3a" points="373.62,-338.12 177.12,-338.12"/>
<polyline fill="none" stroke="#1e2a3a" points="373.62,-338.12 373.62,-295.88"/>
<polyline fill="none" stroke="#1e2a3a" points="373.62,-338.12 377.62,-342.12"/>
<text text-anchor="middle" x="277.38" y="-328.62" font-family="Helvetica,sans-Serif" font-size="10.00" fill="#0a0e17">Winning</text>
<text text-anchor="middle" x="277.38" y="-315.88" font-family="Helvetica,sans-Serif" font-size="10.00" fill="#0a0e17">Proposal</text>
<text text-anchor="middle" x="277.38" y="-303.12" font-family="Helvetica,sans-Serif" font-size="10.00" fill="#0a0e17">(Zenoh: indrajaal/l7/fed/cpig/decision)</text>
</g>
<!-- Quorum&#45;&gt;Published -->
<g id="edge11" class="edge">
<title>Quorum&#45;&gt;Published</title>
<path fill="none" stroke="#7a8fa6" d="M277.38,-377.26C277.38,-369.81 277.38,-361.66 277.38,-353.89"/>
<polygon fill="#7a8fa6" stroke="#7a8fa6" points="280.88,-354.01 277.38,-344.01 273.88,-354.01 280.88,-354.01"/>
<text text-anchor="middle" x="268.75" y="-356.96" font-family="Helvetica,sans-Serif" font-size="9.00" fill="#3dd68c">11. quorum&#45;met → publish</text>
</g>
<!-- Published&#45;&gt;Operator -->
<g id="edge12" class="edge">
<title>Published&#45;&gt;Operator</title>
<path fill="none" stroke="#7a8fa6" d="M277.38,-295.62C277.38,-288.09 277.38,-279.63 277.38,-271.69"/>
<polygon fill="#7a8fa6" stroke="#7a8fa6" points="280.88,-271.76 277.38,-261.76 273.88,-271.76 280.88,-271.76"/>
<text text-anchor="middle" x="268.75" y="-275.01" font-family="Helvetica,sans-Serif" font-size="9.00" fill="#3dd68c">12. ack: decision=approved</text>
</g>
<!-- L1 -->
<g id="node7" class="node">
<title>L1</title>
<path fill="#141922" stroke="#1e2a3a" d="M335.25,-628C335.25,-628 219.5,-628 219.5,-628 213.5,-628 207.5,-622 207.5,-616 207.5,-616 207.5,-604 207.5,-604 207.5,-598 213.5,-592 219.5,-592 219.5,-592 335.25,-592 335.25,-592 341.25,-592 347.25,-598 347.25,-604 347.25,-604 347.25,-616 347.25,-616 347.25,-622 341.25,-628 335.25,-628"/>
<text text-anchor="middle" x="277.38" y="-606.88" font-family="Helvetica,sans-Serif" font-size="10.00" fill="#e0e6ed">numbered = causal order</text>
</g>
<!-- L2 -->
<g id="node8" class="node">
<title>L2</title>
<path fill="#1e2a3a" stroke="#1e2a3a" d="M519.12,-628C519.12,-628 426.62,-628 426.62,-628 420.62,-628 414.62,-622 414.62,-616 414.62,-616 414.62,-604 414.62,-604 414.62,-598 420.62,-592 426.62,-592 426.62,-592 519.12,-592 519.12,-592 525.12,-592 531.12,-598 531.12,-604 531.12,-604 531.12,-616 531.12,-616 531.12,-622 525.12,-628 519.12,-628"/>
<text text-anchor="middle" x="472.88" y="-606.88" font-family="Helvetica,sans-Serif" font-size="10.00" fill="#e0e6ed">dashed = self&#45;action</text>
</g>
<!-- L1&#45;&gt;L2 -->
</g>
</svg>
