<?xml version="1.0" encoding="UTF-8" standalone="no"?>
<!DOCTYPE svg PUBLIC "-//W3C//DTD SVG 1.1//EN"
 "http://www.w3.org/Graphics/SVG/1.1/DTD/svg11.dtd">
<!-- Generated by graphviz version 12.2.1 (0)
 -->
<!-- Title: G33_Pass1To20FractalCumulative Pages: 1 -->
<svg width="1210pt" height="1526pt"
 viewBox="0.00 0.00 1209.60 1525.61" xmlns="http://www.w3.org/2000/svg" xmlns:xlink="http://www.w3.org/1999/xlink">
<g id="graph0" class="graph" transform="scale(1 1) rotate(0) translate(4 1521.61)">
<title>G33_Pass1To20FractalCumulative</title>
<polygon fill="#0a0e17" stroke="none" points="-4,4 -4,-1521.61 1205.6,-1521.61 1205.6,4 -4,4"/>
<text text-anchor="middle" x="600.8" y="-1500.31" font-family="Times,serif" font-size="14.00" fill="#00d4aa">G33 — Pass 1 → Pass 20 × L0–L7 Fractal Cumulative Coverage Heatmap · 100% per layer by Pass 20</text>
<g id="clust1" class="cluster">
<title>cluster_header</title>
</g>
<g id="clust15" class="cluster">
<title>cluster_legend</title>
<polygon fill="#0a0e17" stroke="#1e2a3a" stroke-dasharray="5,2" points="665.6,-1202.25 665.6,-1484.36 1193.6,-1484.36 1193.6,-1202.25 665.6,-1202.25"/>
<text text-anchor="middle" x="929.6" y="-1467.06" font-family="Times,serif" font-size="14.00" fill="#00d4aa">depth: dark = first touch · bright = saturated · ★ = Pass 20 deliverable</text>
</g>
<!-- H_pass -->
<g id="node1" class="node">
<title>H_pass</title>
<polygon fill="#00d4aa" stroke="black" points="204.2,-1447.36 143,-1447.36 143,-1417.12 204.2,-1417.12 204.2,-1447.36"/>
<text text-anchor="middle" x="173.6" y="-1429.11" font-family="Helvetica,sans-Serif" font-size="10.00" fill="#0a0e17">Pass</text>
</g>
<!-- H_L0 -->
<g id="node2" class="node">
<title>H_L0</title>
<polygon fill="#00d4aa" stroke="black" points="204.2,-1381.12 143,-1381.12 143,-1347.62 204.2,-1347.62 204.2,-1381.12"/>
<text text-anchor="middle" x="173.6" y="-1367.62" font-family="Helvetica,sans-Serif" font-size="10.00" fill="#0a0e17">L0</text>
<text text-anchor="middle" x="173.6" y="-1354.87" font-family="Helvetica,sans-Serif" font-size="10.00" fill="#0a0e17">Const.</text>
</g>
<!-- H_pass&#45;&gt;H_L0 -->
<!-- P1_T -->
<g id="node10" class="node">
<title>P1_T</title>
<polygon fill="#7a8fa6" stroke="black" points="693.2,-825.12 632,-825.12 632,-794.88 693.2,-794.88 693.2,-825.12"/>
<text text-anchor="middle" x="662.6" y="-806.88" font-family="Helvetica,sans-Serif" font-size="10.00" fill="#0a0e17">Pass 1</text>
</g>
<!-- H_pass&#45;&gt;P1_T -->
<!-- H_L1 -->
<g id="node3" class="node">
<title>H_L1</title>
<polygon fill="#00d4aa" stroke="black" points="204.2,-1311.62 143,-1311.62 143,-1278.12 204.2,-1278.12 204.2,-1311.62"/>
<text text-anchor="middle" x="173.6" y="-1298.12" font-family="Helvetica,sans-Serif" font-size="10.00" fill="#0a0e17">L1</text>
<text text-anchor="middle" x="173.6" y="-1285.37" font-family="Helvetica,sans-Serif" font-size="10.00" fill="#0a0e17">NIF</text>
</g>
<!-- H_L0&#45;&gt;H_L1 -->
<!-- P1_0 -->
<g id="node11" class="node">
<title>P1_0</title>
<polygon fill="#1e2a3a" stroke="black" points="614.2,-825.12 553,-825.12 553,-794.88 614.2,-794.88 614.2,-825.12"/>
<text text-anchor="middle" x="583.6" y="-806.88" font-family="Helvetica,sans-Serif" font-size="10.00" fill="#0a0e17"> </text>
</g>
<!-- H_L0&#45;&gt;P1_0 -->
<!-- H_L2 -->
<g id="node4" class="node">
<title>H_L2</title>
<polygon fill="#00d4aa" stroke="black" points="204.2,-1242.12 143,-1242.12 143,-1208.62 204.2,-1208.62 204.2,-1242.12"/>
<text text-anchor="middle" x="173.6" y="-1228.62" font-family="Helvetica,sans-Serif" font-size="10.00" fill="#0a0e17">L2</text>
<text text-anchor="middle" x="173.6" y="-1215.87" font-family="Helvetica,sans-Serif" font-size="10.00" fill="#0a0e17">Compo.</text>
</g>
<!-- H_L1&#45;&gt;H_L2 -->
<!-- P1_1 -->
<g id="node12" class="node">
<title>P1_1</title>
<polygon fill="#1e2a3a" stroke="black" points="535.2,-825.12 474,-825.12 474,-794.88 535.2,-794.88 535.2,-825.12"/>
<text text-anchor="middle" x="504.6" y="-806.88" font-family="Helvetica,sans-Serif" font-size="10.00" fill="#0a0e17"> </text>
</g>
<!-- H_L1&#45;&gt;P1_1 -->
<!-- H_L3 -->
<g id="node5" class="node">
<title>H_L3</title>
<polygon fill="#00d4aa" stroke="black" points="204.2,-1172.62 143,-1172.62 143,-1139.12 204.2,-1139.12 204.2,-1172.62"/>
<text text-anchor="middle" x="173.6" y="-1159.12" font-family="Helvetica,sans-Serif" font-size="10.00" fill="#0a0e17">L3</text>
<text text-anchor="middle" x="173.6" y="-1146.37" font-family="Helvetica,sans-Serif" font-size="10.00" fill="#0a0e17">Trans.</text>
</g>
<!-- H_L2&#45;&gt;H_L3 -->
<!-- P1_2 -->
<g id="node13" class="node">
<title>P1_2</title>
<polygon fill="#1e2a3a" stroke="black" points="456.2,-825.12 395,-825.12 395,-794.88 456.2,-794.88 456.2,-825.12"/>
<text text-anchor="middle" x="425.6" y="-806.88" font-family="Helvetica,sans-Serif" font-size="10.00" fill="#0a0e17"> </text>
</g>
<!-- H_L2&#45;&gt;P1_2 -->
<!-- H_L4 -->
<g id="node6" class="node">
<title>H_L4</title>
<polygon fill="#00d4aa" stroke="black" points="204.2,-1103.12 143,-1103.12 143,-1069.62 204.2,-1069.62 204.2,-1103.12"/>
<text text-anchor="middle" x="173.6" y="-1089.62" font-family="Helvetica,sans-Serif" font-size="10.00" fill="#0a0e17">L4</text>
<text text-anchor="middle" x="173.6" y="-1076.87" font-family="Helvetica,sans-Serif" font-size="10.00" fill="#0a0e17">System</text>
</g>
<!-- H_L3&#45;&gt;H_L4 -->
<!-- P1_3 -->
<g id="node14" class="node">
<title>P1_3</title>
<polygon fill="#1e2a3a" stroke="black" points="377.2,-825.12 316,-825.12 316,-794.88 377.2,-794.88 377.2,-825.12"/>
<text text-anchor="middle" x="346.6" y="-806.88" font-family="Helvetica,sans-Serif" font-size="10.00" fill="#0a0e17"> </text>
</g>
<!-- H_L3&#45;&gt;P1_3 -->
<!-- H_L5 -->
<g id="node7" class="node">
<title>H_L5</title>
<polygon fill="#00d4aa" stroke="black" points="204.2,-1033.62 143,-1033.62 143,-1000.12 204.2,-1000.12 204.2,-1033.62"/>
<text text-anchor="middle" x="173.6" y="-1020.12" font-family="Helvetica,sans-Serif" font-size="10.00" fill="#0a0e17">L5</text>
<text text-anchor="middle" x="173.6" y="-1007.37" font-family="Helvetica,sans-Serif" font-size="10.00" fill="#0a0e17">Cog.</text>
</g>
<!-- H_L4&#45;&gt;H_L5 -->
<!-- P1_4 -->
<g id="node15" class="node">
<title>P1_4</title>
<polygon fill="#2c5e4a" stroke="black" points="298.2,-825.12 237,-825.12 237,-794.88 298.2,-794.88 298.2,-825.12"/>
<text text-anchor="middle" x="267.6" y="-806.88" font-family="Helvetica,sans-Serif" font-size="10.00" fill="#0a0e17">✓</text>
</g>
<!-- H_L4&#45;&gt;P1_4 -->
<!-- H_L6 -->
<g id="node8" class="node">
<title>H_L6</title>
<polygon fill="#00d4aa" stroke="black" points="204.2,-964.12 143,-964.12 143,-930.62 204.2,-930.62 204.2,-964.12"/>
<text text-anchor="middle" x="173.6" y="-950.62" font-family="Helvetica,sans-Serif" font-size="10.00" fill="#0a0e17">L6</text>
<text text-anchor="middle" x="173.6" y="-937.87" font-family="Helvetica,sans-Serif" font-size="10.00" fill="#0a0e17">Ecosys.</text>
</g>
<!-- H_L5&#45;&gt;H_L6 -->
<!-- P1_5 -->
<g id="node16" class="node">
<title>P1_5</title>
<polygon fill="#2c5e4a" stroke="black" points="219.2,-825.12 158,-825.12 158,-794.88 219.2,-794.88 219.2,-825.12"/>
<text text-anchor="middle" x="188.6" y="-806.88" font-family="Helvetica,sans-Serif" font-size="10.00" fill="#0a0e17">✓</text>
</g>
<!-- H_L5&#45;&gt;P1_5 -->
<!-- H_L7 -->
<g id="node9" class="node">
<title>H_L7</title>
<polygon fill="#00d4aa" stroke="black" points="204.2,-894.62 143,-894.62 143,-861.12 204.2,-861.12 204.2,-894.62"/>
<text text-anchor="middle" x="173.6" y="-881.12" font-family="Helvetica,sans-Serif" font-size="10.00" fill="#0a0e17">L7</text>
<text text-anchor="middle" x="173.6" y="-868.37" font-family="Helvetica,sans-Serif" font-size="10.00" fill="#0a0e17">Fed.</text>
</g>
<!-- H_L6&#45;&gt;H_L7 -->
<!-- P1_6 -->
<g id="node17" class="node">
<title>P1_6</title>
<polygon fill="#1e2a3a" stroke="black" points="140.2,-825.12 79,-825.12 79,-794.88 140.2,-794.88 140.2,-825.12"/>
<text text-anchor="middle" x="109.6" y="-806.88" font-family="Helvetica,sans-Serif" font-size="10.00" fill="#0a0e17"> </text>
</g>
<!-- H_L6&#45;&gt;P1_6 -->
<!-- P1_7 -->
<g id="node18" class="node">
<title>P1_7</title>
<polygon fill="#1e2a3a" stroke="black" points="61.2,-825.12 0,-825.12 0,-794.88 61.2,-794.88 61.2,-825.12"/>
<text text-anchor="middle" x="30.6" y="-806.88" font-family="Helvetica,sans-Serif" font-size="10.00" fill="#0a0e17"> </text>
</g>
<!-- H_L7&#45;&gt;P1_7 -->
<!-- P2_T -->
<g id="node19" class="node">
<title>P2_T</title>
<polygon fill="#7a8fa6" stroke="black" points="693.2,-758.88 632,-758.88 632,-728.64 693.2,-728.64 693.2,-758.88"/>
<text text-anchor="middle" x="662.6" y="-740.63" font-family="Helvetica,sans-Serif" font-size="10.00" fill="#0a0e17">Pass 2</text>
</g>
<!-- P1_T&#45;&gt;P2_T -->
<!-- P2_0 -->
<g id="node20" class="node">
<title>P2_0</title>
<polygon fill="#1e2a3a" stroke="black" points="614.2,-758.88 553,-758.88 553,-728.64 614.2,-728.64 614.2,-758.88"/>
<text text-anchor="middle" x="583.6" y="-740.63" font-family="Helvetica,sans-Serif" font-size="10.00" fill="#0a0e17"> </text>
</g>
<!-- P1_0&#45;&gt;P2_0 -->
<!-- P2_1 -->
<g id="node21" class="node">
<title>P2_1</title>
<polygon fill="#2c5e4a" stroke="black" points="535.2,-758.88 474,-758.88 474,-728.64 535.2,-728.64 535.2,-758.88"/>
<text text-anchor="middle" x="504.6" y="-740.63" font-family="Helvetica,sans-Serif" font-size="10.00" fill="#0a0e17">✓</text>
</g>
<!-- P1_1&#45;&gt;P2_1 -->
<!-- P2_2 -->
<g id="node22" class="node">
<title>P2_2</title>
<polygon fill="#1e2a3a" stroke="black" points="456.2,-758.88 395,-758.88 395,-728.64 456.2,-728.64 456.2,-758.88"/>
<text text-anchor="middle" x="425.6" y="-740.63" font-family="Helvetica,sans-Serif" font-size="10.00" fill="#0a0e17"> </text>
</g>
<!-- P1_2&#45;&gt;P2_2 -->
<!-- P2_3 -->
<g id="node23" class="node">
<title>P2_3</title>
<polygon fill="#2c5e4a" stroke="black" points="377.2,-758.88 316,-758.88 316,-728.64 377.2,-728.64 377.2,-758.88"/>
<text text-anchor="middle" x="346.6" y="-740.63" font-family="Helvetica,sans-Serif" font-size="10.00" fill="#0a0e17">✓</text>
</g>
<!-- P1_3&#45;&gt;P2_3 -->
<!-- P2_4 -->
<g id="node24" class="node">
<title>P2_4</title>
<polygon fill="#3dd68c" stroke="black" points="298.2,-758.88 237,-758.88 237,-728.64 298.2,-728.64 298.2,-758.88"/>
<text text-anchor="middle" x="267.6" y="-740.63" font-family="Helvetica,sans-Serif" font-size="10.00" fill="#0a0e17">✓</text>
</g>
<!-- P1_4&#45;&gt;P2_4 -->
<!-- P2_5 -->
<g id="node25" class="node">
<title>P2_5</title>
<polygon fill="#2c5e4a" stroke="black" points="219.2,-758.88 158,-758.88 158,-728.64 219.2,-728.64 219.2,-758.88"/>
<text text-anchor="middle" x="188.6" y="-740.63" font-family="Helvetica,sans-Serif" font-size="10.00" fill="#0a0e17"> </text>
</g>
<!-- P1_5&#45;&gt;P2_5 -->
<!-- P2_6 -->
<g id="node26" class="node">
<title>P2_6</title>
<polygon fill="#1e2a3a" stroke="black" points="140.2,-758.88 79,-758.88 79,-728.64 140.2,-728.64 140.2,-758.88"/>
<text text-anchor="middle" x="109.6" y="-740.63" font-family="Helvetica,sans-Serif" font-size="10.00" fill="#0a0e17"> </text>
</g>
<!-- P1_6&#45;&gt;P2_6 -->
<!-- P2_7 -->
<g id="node27" class="node">
<title>P2_7</title>
<polygon fill="#1e2a3a" stroke="black" points="61.2,-758.88 0,-758.88 0,-728.64 61.2,-728.64 61.2,-758.88"/>
<text text-anchor="middle" x="30.6" y="-740.63" font-family="Helvetica,sans-Serif" font-size="10.00" fill="#0a0e17"> </text>
</g>
<!-- P1_7&#45;&gt;P2_7 -->
<!-- P3_T -->
<g id="node28" class="node">
<title>P3_T</title>
<polygon fill="#7a8fa6" stroke="black" points="693.2,-692.64 632,-692.64 632,-662.4 693.2,-662.4 693.2,-692.64"/>
<text text-anchor="middle" x="662.6" y="-674.39" font-family="Helvetica,sans-Serif" font-size="10.00" fill="#0a0e17">Pass 3</text>
</g>
<!-- P2_T&#45;&gt;P3_T -->
<!-- P3_0 -->
<g id="node29" class="node">
<title>P3_0</title>
<polygon fill="#2c5e4a" stroke="black" points="614.2,-692.64 553,-692.64 553,-662.4 614.2,-662.4 614.2,-692.64"/>
<text text-anchor="middle" x="583.6" y="-674.39" font-family="Helvetica,sans-Serif" font-size="10.00" fill="#0a0e17">✓</text>
</g>
<!-- P2_0&#45;&gt;P3_0 -->
<!-- P3_1 -->
<g id="node30" class="node">
<title>P3_1</title>
<polygon fill="#3dd68c" stroke="black" points="535.2,-692.64 474,-692.64 474,-662.4 535.2,-662.4 535.2,-692.64"/>
<text text-anchor="middle" x="504.6" y="-674.39" font-family="Helvetica,sans-Serif" font-size="10.00" fill="#0a0e17">✓</text>
</g>
<!-- P2_1&#45;&gt;P3_1 -->
<!-- P3_2 -->
<g id="node31" class="node">
<title>P3_2</title>
<polygon fill="#1e2a3a" stroke="black" points="456.2,-692.64 395,-692.64 395,-662.4 456.2,-662.4 456.2,-692.64"/>
<text text-anchor="middle" x="425.6" y="-674.39" font-family="Helvetica,sans-Serif" font-size="10.00" fill="#0a0e17"> </text>
</g>
<!-- P2_2&#45;&gt;P3_2 -->
<!-- P3_3 -->
<g id="node32" class="node">
<title>P3_3</title>
<polygon fill="#3dd68c" stroke="black" points="377.2,-692.64 316,-692.64 316,-662.4 377.2,-662.4 377.2,-692.64"/>
<text text-anchor="middle" x="346.6" y="-674.39" font-family="Helvetica,sans-Serif" font-size="10.00" fill="#0a0e17">✓</text>
</g>
<!-- P2_3&#45;&gt;P3_3 -->
<!-- P3_4 -->
<g id="node33" class="node">
<title>P3_4</title>
<polygon fill="#00d4aa" stroke="black" points="298.2,-692.64 237,-692.64 237,-662.4 298.2,-662.4 298.2,-692.64"/>
<text text-anchor="middle" x="267.6" y="-674.39" font-family="Helvetica,sans-Serif" font-size="10.00" fill="#0a0e17">✓</text>
</g>
<!-- P2_4&#45;&gt;P3_4 -->
<!-- P3_5 -->
<g id="node34" class="node">
<title>P3_5</title>
<polygon fill="#3dd68c" stroke="black" points="219.2,-692.64 158,-692.64 158,-662.4 219.2,-662.4 219.2,-692.64"/>
<text text-anchor="middle" x="188.6" y="-674.39" font-family="Helvetica,sans-Serif" font-size="10.00" fill="#0a0e17">✓</text>
</g>
<!-- P2_5&#45;&gt;P3_5 -->
<!-- P3_6 -->
<g id="node35" class="node">
<title>P3_6</title>
<polygon fill="#1e2a3a" stroke="black" points="140.2,-692.64 79,-692.64 79,-662.4 140.2,-662.4 140.2,-692.64"/>
<text text-anchor="middle" x="109.6" y="-674.39" font-family="Helvetica,sans-Serif" font-size="10.00" fill="#0a0e17"> </text>
</g>
<!-- P2_6&#45;&gt;P3_6 -->
<!-- P3_7 -->
<g id="node36" class="node">
<title>P3_7</title>
<polygon fill="#1e2a3a" stroke="black" points="61.2,-692.64 0,-692.64 0,-662.4 61.2,-662.4 61.2,-692.64"/>
<text text-anchor="middle" x="30.6" y="-674.39" font-family="Helvetica,sans-Serif" font-size="10.00" fill="#0a0e17"> </text>
</g>
<!-- P2_7&#45;&gt;P3_7 -->
<!-- P4_T -->
<g id="node37" class="node">
<title>P4_T</title>
<polygon fill="#7a8fa6" stroke="black" points="693.2,-626.4 632,-626.4 632,-596.16 693.2,-596.16 693.2,-626.4"/>
<text text-anchor="middle" x="662.6" y="-608.15" font-family="Helvetica,sans-Serif" font-size="10.00" fill="#0a0e17">Pass 4</text>
</g>
<!-- P3_T&#45;&gt;P4_T -->
<!-- P4_0 -->
<g id="node38" class="node">
<title>P4_0</title>
<polygon fill="#3dd68c" stroke="black" points="614.2,-626.4 553,-626.4 553,-596.16 614.2,-596.16 614.2,-626.4"/>
<text text-anchor="middle" x="583.6" y="-608.15" font-family="Helvetica,sans-Serif" font-size="10.00" fill="#0a0e17">✓</text>
</g>
<!-- P3_0&#45;&gt;P4_0 -->
<!-- P4_1 -->
<g id="node39" class="node">
<title>P4_1</title>
<polygon fill="#3dd68c" stroke="black" points="535.2,-626.4 474,-626.4 474,-596.16 535.2,-596.16 535.2,-626.4"/>
<text text-anchor="middle" x="504.6" y="-608.15" font-family="Helvetica,sans-Serif" font-size="10.00" fill="#0a0e17">✓</text>
</g>
<!-- P3_1&#45;&gt;P4_1 -->
<!-- P4_2 -->
<g id="node40" class="node">
<title>P4_2</title>
<polygon fill="#2c5e4a" stroke="black" points="456.2,-626.4 395,-626.4 395,-596.16 456.2,-596.16 456.2,-626.4"/>
<text text-anchor="middle" x="425.6" y="-608.15" font-family="Helvetica,sans-Serif" font-size="10.00" fill="#0a0e17">✓</text>
</g>
<!-- P3_2&#45;&gt;P4_2 -->
<!-- P4_3 -->
<g id="node41" class="node">
<title>P4_3</title>
<polygon fill="#00d4aa" stroke="black" points="377.2,-626.4 316,-626.4 316,-596.16 377.2,-596.16 377.2,-626.4"/>
<text text-anchor="middle" x="346.6" y="-608.15" font-family="Helvetica,sans-Serif" font-size="10.00" fill="#0a0e17">✓</text>
</g>
<!-- P3_3&#45;&gt;P4_3 -->
<!-- P4_4 -->
<g id="node42" class="node">
<title>P4_4</title>
<polygon fill="#00d4aa" stroke="black" points="298.2,-626.4 237,-626.4 237,-596.16 298.2,-596.16 298.2,-626.4"/>
<text text-anchor="middle" x="267.6" y="-608.15" font-family="Helvetica,sans-Serif" font-size="10.00" fill="#0a0e17">✓</text>
</g>
<!-- P3_4&#45;&gt;P4_4 -->
<!-- P4_5 -->
<g id="node43" class="node">
<title>P4_5</title>
<polygon fill="#00d4aa" stroke="black" points="219.2,-626.4 158,-626.4 158,-596.16 219.2,-596.16 219.2,-626.4"/>
<text text-anchor="middle" x="188.6" y="-608.15" font-family="Helvetica,sans-Serif" font-size="10.00" fill="#0a0e17">✓</text>
</g>
<!-- P3_5&#45;&gt;P4_5 -->
<!-- P4_6 -->
<g id="node44" class="node">
<title>P4_6</title>
<polygon fill="#1e2a3a" stroke="black" points="140.2,-626.4 79,-626.4 79,-596.16 140.2,-596.16 140.2,-626.4"/>
<text text-anchor="middle" x="109.6" y="-608.15" font-family="Helvetica,sans-Serif" font-size="10.00" fill="#0a0e17"> </text>
</g>
<!-- P3_6&#45;&gt;P4_6 -->
<!-- P4_7 -->
<g id="node45" class="node">
<title>P4_7</title>
<polygon fill="#2c5e4a" stroke="black" points="61.2,-626.4 0,-626.4 0,-596.16 61.2,-596.16 61.2,-626.4"/>
<text text-anchor="middle" x="30.6" y="-608.15" font-family="Helvetica,sans-Serif" font-size="10.00" fill="#0a0e17">✓</text>
</g>
<!-- P3_7&#45;&gt;P4_7 -->
<!-- P5_T -->
<g id="node46" class="node">
<title>P5_T</title>
<polygon fill="#7a8fa6" stroke="black" points="693.2,-560.16 632,-560.16 632,-529.92 693.2,-529.92 693.2,-560.16"/>
<text text-anchor="middle" x="662.6" y="-541.91" font-family="Helvetica,sans-Serif" font-size="10.00" fill="#0a0e17">Pass 5</text>
</g>
<!-- P4_T&#45;&gt;P5_T -->
<!-- P5_0 -->
<g id="node47" class="node">
<title>P5_0</title>
<polygon fill="#3dd68c" stroke="black" points="614.2,-560.16 553,-560.16 553,-529.92 614.2,-529.92 614.2,-560.16"/>
<text text-anchor="middle" x="583.6" y="-541.91" font-family="Helvetica,sans-Serif" font-size="10.00" fill="#0a0e17">✓</text>
</g>
<!-- P4_0&#45;&gt;P5_0 -->
<!-- P5_1 -->
<g id="node48" class="node">
<title>P5_1</title>
<polygon fill="#00d4aa" stroke="black" points="535.2,-560.16 474,-560.16 474,-529.92 535.2,-529.92 535.2,-560.16"/>
<text text-anchor="middle" x="504.6" y="-541.91" font-family="Helvetica,sans-Serif" font-size="10.00" fill="#0a0e17">✓</text>
</g>
<!-- P4_1&#45;&gt;P5_1 -->
<!-- P5_2 -->
<g id="node49" class="node">
<title>P5_2</title>
<polygon fill="#3dd68c" stroke="black" points="456.2,-560.16 395,-560.16 395,-529.92 456.2,-529.92 456.2,-560.16"/>
<text text-anchor="middle" x="425.6" y="-541.91" font-family="Helvetica,sans-Serif" font-size="10.00" fill="#0a0e17">✓</text>
</g>
<!-- P4_2&#45;&gt;P5_2 -->
<!-- P5_3 -->
<g id="node50" class="node">
<title>P5_3</title>
<polygon fill="#00d4aa" stroke="black" points="377.2,-560.16 316,-560.16 316,-529.92 377.2,-529.92 377.2,-560.16"/>
<text text-anchor="middle" x="346.6" y="-541.91" font-family="Helvetica,sans-Serif" font-size="10.00" fill="#0a0e17">✓</text>
</g>
<!-- P4_3&#45;&gt;P5_3 -->
<!-- P5_4 -->
<g id="node51" class="node">
<title>P5_4</title>
<polygon fill="#00d4aa" stroke="black" points="298.2,-560.16 237,-560.16 237,-529.92 298.2,-529.92 298.2,-560.16"/>
<text text-anchor="middle" x="267.6" y="-541.91" font-family="Helvetica,sans-Serif" font-size="10.00" fill="#0a0e17">✓</text>
</g>
<!-- P4_4&#45;&gt;P5_4 -->
<!-- P5_5 -->
<g id="node52" class="node">
<title>P5_5</title>
<polygon fill="#00d4aa" stroke="black" points="219.2,-560.16 158,-560.16 158,-529.92 219.2,-529.92 219.2,-560.16"/>
<text text-anchor="middle" x="188.6" y="-541.91" font-family="Helvetica,sans-Serif" font-size="10.00" fill="#0a0e17">✓</text>
</g>
<!-- P4_5&#45;&gt;P5_5 -->
<!-- P5_6 -->
<g id="node53" class="node">
<title>P5_6</title>
<polygon fill="#2c5e4a" stroke="black" points="140.2,-560.16 79,-560.16 79,-529.92 140.2,-529.92 140.2,-560.16"/>
<text text-anchor="middle" x="109.6" y="-541.91" font-family="Helvetica,sans-Serif" font-size="10.00" fill="#0a0e17">✓</text>
</g>
<!-- P4_6&#45;&gt;P5_6 -->
<!-- P5_7 -->
<g id="node54" class="node">
<title>P5_7</title>
<polygon fill="#3dd68c" stroke="black" points="61.2,-560.16 0,-560.16 0,-529.92 61.2,-529.92 61.2,-560.16"/>
<text text-anchor="middle" x="30.6" y="-541.91" font-family="Helvetica,sans-Serif" font-size="10.00" fill="#0a0e17">✓</text>
</g>
<!-- P4_7&#45;&gt;P5_7 -->
<!-- P6_T -->
<g id="node55" class="node">
<title>P6_T</title>
<polygon fill="#7a8fa6" stroke="black" points="693.2,-493.92 632,-493.92 632,-463.68 693.2,-463.68 693.2,-493.92"/>
<text text-anchor="middle" x="662.6" y="-475.68" font-family="Helvetica,sans-Serif" font-size="10.00" fill="#0a0e17">Pass 6</text>
</g>
<!-- P5_T&#45;&gt;P6_T -->
<!-- P6_0 -->
<g id="node56" class="node">
<title>P6_0</title>
<polygon fill="#3dd68c" stroke="black" points="614.2,-493.92 553,-493.92 553,-463.68 614.2,-463.68 614.2,-493.92"/>
<text text-anchor="middle" x="583.6" y="-475.68" font-family="Helvetica,sans-Serif" font-size="10.00" fill="#0a0e17">✓</text>
</g>
<!-- P5_0&#45;&gt;P6_0 -->
<!-- P6_1 -->
<g id="node57" class="node">
<title>P6_1</title>
<polygon fill="#00d4aa" stroke="black" points="535.2,-493.92 474,-493.92 474,-463.68 535.2,-463.68 535.2,-493.92"/>
<text text-anchor="middle" x="504.6" y="-475.68" font-family="Helvetica,sans-Serif" font-size="10.00" fill="#0a0e17">✓</text>
</g>
<!-- P5_1&#45;&gt;P6_1 -->
<!-- P6_2 -->
<g id="node58" class="node">
<title>P6_2</title>
<polygon fill="#3dd68c" stroke="black" points="456.2,-493.92 395,-493.92 395,-463.68 456.2,-463.68 456.2,-493.92"/>
<text text-anchor="middle" x="425.6" y="-475.68" font-family="Helvetica,sans-Serif" font-size="10.00" fill="#0a0e17">✓</text>
</g>
<!-- P5_2&#45;&gt;P6_2 -->
<!-- P6_3 -->
<g id="node59" class="node">
<title>P6_3</title>
<polygon fill="#00d4aa" stroke="black" points="377.2,-493.92 316,-493.92 316,-463.68 377.2,-463.68 377.2,-493.92"/>
<text text-anchor="middle" x="346.6" y="-475.68" font-family="Helvetica,sans-Serif" font-size="10.00" fill="#0a0e17">✓</text>
</g>
<!-- P5_3&#45;&gt;P6_3 -->
<!-- P6_4 -->
<g id="node60" class="node">
<title>P6_4</title>
<polygon fill="#00d4aa" stroke="black" points="298.2,-493.92 237,-493.92 237,-463.68 298.2,-463.68 298.2,-493.92"/>
<text text-anchor="middle" x="267.6" y="-475.68" font-family="Helvetica,sans-Serif" font-size="10.00" fill="#0a0e17">✓</text>
</g>
<!-- P5_4&#45;&gt;P6_4 -->
<!-- P6_5 -->
<g id="node61" class="node">
<title>P6_5</title>
<polygon fill="#00d4aa" stroke="black" points="219.2,-493.92 158,-493.92 158,-463.68 219.2,-463.68 219.2,-493.92"/>
<text text-anchor="middle" x="188.6" y="-475.68" font-family="Helvetica,sans-Serif" font-size="10.00" fill="#0a0e17">✓</text>
</g>
<!-- P5_5&#45;&gt;P6_5 -->
<!-- P6_6 -->
<g id="node62" class="node">
<title>P6_6</title>
<polygon fill="#3dd68c" stroke="black" points="140.2,-493.92 79,-493.92 79,-463.68 140.2,-463.68 140.2,-493.92"/>
<text text-anchor="middle" x="109.6" y="-475.68" font-family="Helvetica,sans-Serif" font-size="10.00" fill="#0a0e17">✓</text>
</g>
<!-- P5_6&#45;&gt;P6_6 -->
<!-- P6_7 -->
<g id="node63" class="node">
<title>P6_7</title>
<polygon fill="#3dd68c" stroke="black" points="61.2,-493.92 0,-493.92 0,-463.68 61.2,-463.68 61.2,-493.92"/>
<text text-anchor="middle" x="30.6" y="-475.68" font-family="Helvetica,sans-Serif" font-size="10.00" fill="#0a0e17">✓</text>
</g>
<!-- P5_7&#45;&gt;P6_7 -->
<!-- P7_T -->
<g id="node64" class="node">
<title>P7_T</title>
<polygon fill="#7a8fa6" stroke="black" points="693.2,-427.68 632,-427.68 632,-397.44 693.2,-397.44 693.2,-427.68"/>
<text text-anchor="middle" x="662.6" y="-409.44" font-family="Helvetica,sans-Serif" font-size="10.00" fill="#0a0e17">Pass 7</text>
</g>
<!-- P6_T&#45;&gt;P7_T -->
<!-- P7_0 -->
<g id="node65" class="node">
<title>P7_0</title>
<polygon fill="#3dd68c" stroke="black" points="614.2,-427.68 553,-427.68 553,-397.44 614.2,-397.44 614.2,-427.68"/>
<text text-anchor="middle" x="583.6" y="-409.44" font-family="Helvetica,sans-Serif" font-size="10.00" fill="#0a0e17">✓</text>
</g>
<!-- P6_0&#45;&gt;P7_0 -->
<!-- P7_1 -->
<g id="node66" class="node">
<title>P7_1</title>
<polygon fill="#00d4aa" stroke="black" points="535.2,-427.68 474,-427.68 474,-397.44 535.2,-397.44 535.2,-427.68"/>
<text text-anchor="middle" x="504.6" y="-409.44" font-family="Helvetica,sans-Serif" font-size="10.00" fill="#0a0e17">✓</text>
</g>
<!-- P6_1&#45;&gt;P7_1 -->
<!-- P7_2 -->
<g id="node67" class="node">
<title>P7_2</title>
<polygon fill="#3dd68c" stroke="black" points="456.2,-427.68 395,-427.68 395,-397.44 456.2,-397.44 456.2,-427.68"/>
<text text-anchor="middle" x="425.6" y="-409.44" font-family="Helvetica,sans-Serif" font-size="10.00" fill="#0a0e17">✓</text>
</g>
<!-- P6_2&#45;&gt;P7_2 -->
<!-- P7_3 -->
<g id="node68" class="node">
<title>P7_3</title>
<polygon fill="#00d4aa" stroke="black" points="377.2,-427.68 316,-427.68 316,-397.44 377.2,-397.44 377.2,-427.68"/>
<text text-anchor="middle" x="346.6" y="-409.44" font-family="Helvetica,sans-Serif" font-size="10.00" fill="#0a0e17">✓</text>
</g>
<!-- P6_3&#45;&gt;P7_3 -->
<!-- P7_4 -->
<g id="node69" class="node">
<title>P7_4</title>
<polygon fill="#00d4aa" stroke="black" points="298.2,-427.68 237,-427.68 237,-397.44 298.2,-397.44 298.2,-427.68"/>
<text text-anchor="middle" x="267.6" y="-409.44" font-family="Helvetica,sans-Serif" font-size="10.00" fill="#0a0e17">✓</text>
</g>
<!-- P6_4&#45;&gt;P7_4 -->
<!-- P7_5 -->
<g id="node70" class="node">
<title>P7_5</title>
<polygon fill="#00d4aa" stroke="black" points="219.2,-427.68 158,-427.68 158,-397.44 219.2,-397.44 219.2,-427.68"/>
<text text-anchor="middle" x="188.6" y="-409.44" font-family="Helvetica,sans-Serif" font-size="10.00" fill="#0a0e17">✓</text>
</g>
<!-- P6_5&#45;&gt;P7_5 -->
<!-- P7_6 -->
<g id="node71" class="node">
<title>P7_6</title>
<polygon fill="#3dd68c" stroke="black" points="140.2,-427.68 79,-427.68 79,-397.44 140.2,-397.44 140.2,-427.68"/>
<text text-anchor="middle" x="109.6" y="-409.44" font-family="Helvetica,sans-Serif" font-size="10.00" fill="#0a0e17">✓</text>
</g>
<!-- P6_6&#45;&gt;P7_6 -->
<!-- P7_7 -->
<g id="node72" class="node">
<title>P7_7</title>
<polygon fill="#3dd68c" stroke="black" points="61.2,-427.68 0,-427.68 0,-397.44 61.2,-397.44 61.2,-427.68"/>
<text text-anchor="middle" x="30.6" y="-409.44" font-family="Helvetica,sans-Serif" font-size="10.00" fill="#0a0e17">✓</text>
</g>
<!-- P6_7&#45;&gt;P7_7 -->
<!-- P8_T -->
<g id="node73" class="node">
<title>P8_T</title>
<polygon fill="#7a8fa6" stroke="black" points="693.2,-361.44 632,-361.44 632,-331.2 693.2,-331.2 693.2,-361.44"/>
<text text-anchor="middle" x="662.6" y="-343.19" font-family="Helvetica,sans-Serif" font-size="10.00" fill="#0a0e17">Pass 8</text>
</g>
<!-- P7_T&#45;&gt;P8_T -->
<!-- P8_0 -->
<g id="node74" class="node">
<title>P8_0</title>
<polygon fill="#00d4aa" stroke="black" points="614.2,-361.44 553,-361.44 553,-331.2 614.2,-331.2 614.2,-361.44"/>
<text text-anchor="middle" x="583.6" y="-343.19" font-family="Helvetica,sans-Serif" font-size="10.00" fill="#0a0e17">✓</text>
</g>
<!-- P7_0&#45;&gt;P8_0 -->
<!-- P8_1 -->
<g id="node75" class="node">
<title>P8_1</title>
<polygon fill="#00d4aa" stroke="black" points="535.2,-361.44 474,-361.44 474,-331.2 535.2,-331.2 535.2,-361.44"/>
<text text-anchor="middle" x="504.6" y="-343.19" font-family="Helvetica,sans-Serif" font-size="10.00" fill="#0a0e17">✓</text>
</g>
<!-- P7_1&#45;&gt;P8_1 -->
<!-- P8_2 -->
<g id="node76" class="node">
<title>P8_2</title>
<polygon fill="#3dd68c" stroke="black" points="456.2,-361.44 395,-361.44 395,-331.2 456.2,-331.2 456.2,-361.44"/>
<text text-anchor="middle" x="425.6" y="-343.19" font-family="Helvetica,sans-Serif" font-size="10.00" fill="#0a0e17">✓</text>
</g>
<!-- P7_2&#45;&gt;P8_2 -->
<!-- P8_3 -->
<g id="node77" class="node">
<title>P8_3</title>
<polygon fill="#00d4aa" stroke="black" points="377.2,-361.44 316,-361.44 316,-331.2 377.2,-331.2 377.2,-361.44"/>
<text text-anchor="middle" x="346.6" y="-343.19" font-family="Helvetica,sans-Serif" font-size="10.00" fill="#0a0e17">✓</text>
</g>
<!-- P7_3&#45;&gt;P8_3 -->
<!-- P8_4 -->
<g id="node78" class="node">
<title>P8_4</title>
<polygon fill="#00d4aa" stroke="black" points="298.2,-361.44 237,-361.44 237,-331.2 298.2,-331.2 298.2,-361.44"/>
<text text-anchor="middle" x="267.6" y="-343.19" font-family="Helvetica,sans-Serif" font-size="10.00" fill="#0a0e17">✓</text>
</g>
<!-- P7_4&#45;&gt;P8_4 -->
<!-- P8_5 -->
<g id="node79" class="node">
<title>P8_5</title>
<polygon fill="#00d4aa" stroke="black" points="219.2,-361.44 158,-361.44 158,-331.2 219.2,-331.2 219.2,-361.44"/>
<text text-anchor="middle" x="188.6" y="-343.19" font-family="Helvetica,sans-Serif" font-size="10.00" fill="#0a0e17">✓</text>
</g>
<!-- P7_5&#45;&gt;P8_5 -->
<!-- P8_6 -->
<g id="node80" class="node">
<title>P8_6</title>
<polygon fill="#00d4aa" stroke="black" points="140.2,-361.44 79,-361.44 79,-331.2 140.2,-331.2 140.2,-361.44"/>
<text text-anchor="middle" x="109.6" y="-343.19" font-family="Helvetica,sans-Serif" font-size="10.00" fill="#0a0e17">✓</text>
</g>
<!-- P7_6&#45;&gt;P8_6 -->
<!-- P8_7 -->
<g id="node81" class="node">
<title>P8_7</title>
<polygon fill="#3dd68c" stroke="black" points="61.2,-361.44 0,-361.44 0,-331.2 61.2,-331.2 61.2,-361.44"/>
<text text-anchor="middle" x="30.6" y="-343.19" font-family="Helvetica,sans-Serif" font-size="10.00" fill="#0a0e17">✓</text>
</g>
<!-- P7_7&#45;&gt;P8_7 -->
<!-- P9_T -->
<g id="node82" class="node">
<title>P9_T</title>
<polygon fill="#7a8fa6" stroke="black" points="695.85,-295.2 633.35,-295.2 633.35,-264.96 695.85,-264.96 695.85,-295.2"/>
<text text-anchor="middle" x="664.6" y="-276.95" font-family="Helvetica,sans-Serif" font-size="10.00" fill="#0a0e17">Pass 9&#45;11</text>
</g>
<!-- P8_T&#45;&gt;P9_T -->
<!-- P9_0 -->
<g id="node83" class="node">
<title>P9_0</title>
<polygon fill="#00d4aa" stroke="black" points="614.2,-295.2 553,-295.2 553,-264.96 614.2,-264.96 614.2,-295.2"/>
<text text-anchor="middle" x="583.6" y="-276.95" font-family="Helvetica,sans-Serif" font-size="10.00" fill="#0a0e17">✓</text>
</g>
<!-- P8_0&#45;&gt;P9_0 -->
<!-- P9_1 -->
<g id="node84" class="node">
<title>P9_1</title>
<polygon fill="#00d4aa" stroke="black" points="535.2,-295.2 474,-295.2 474,-264.96 535.2,-264.96 535.2,-295.2"/>
<text text-anchor="middle" x="504.6" y="-276.95" font-family="Helvetica,sans-Serif" font-size="10.00" fill="#0a0e17">✓</text>
</g>
<!-- P8_1&#45;&gt;P9_1 -->
<!-- P9_2 -->
<g id="node85" class="node">
<title>P9_2</title>
<polygon fill="#00d4aa" stroke="black" points="456.2,-295.2 395,-295.2 395,-264.96 456.2,-264.96 456.2,-295.2"/>
<text text-anchor="middle" x="425.6" y="-276.95" font-family="Helvetica,sans-Serif" font-size="10.00" fill="#0a0e17">✓</text>
</g>
<!-- P8_2&#45;&gt;P9_2 -->
<!-- P9_3 -->
<g id="node86" class="node">
<title>P9_3</title>
<polygon fill="#00d4aa" stroke="black" points="377.2,-295.2 316,-295.2 316,-264.96 377.2,-264.96 377.2,-295.2"/>
<text text-anchor="middle" x="346.6" y="-276.95" font-family="Helvetica,sans-Serif" font-size="10.00" fill="#0a0e17">✓</text>
</g>
<!-- P8_3&#45;&gt;P9_3 -->
<!-- P9_4 -->
<g id="node87" class="node">
<title>P9_4</title>
<polygon fill="#00d4aa" stroke="black" points="298.2,-295.2 237,-295.2 237,-264.96 298.2,-264.96 298.2,-295.2"/>
<text text-anchor="middle" x="267.6" y="-276.95" font-family="Helvetica,sans-Serif" font-size="10.00" fill="#0a0e17">✓</text>
</g>
<!-- P8_4&#45;&gt;P9_4 -->
<!-- P9_5 -->
<g id="node88" class="node">
<title>P9_5</title>
<polygon fill="#00d4aa" stroke="black" points="219.2,-295.2 158,-295.2 158,-264.96 219.2,-264.96 219.2,-295.2"/>
<text text-anchor="middle" x="188.6" y="-276.95" font-family="Helvetica,sans-Serif" font-size="10.00" fill="#0a0e17">✓</text>
</g>
<!-- P8_5&#45;&gt;P9_5 -->
<!-- P9_6 -->
<g id="node89" class="node">
<title>P9_6</title>
<polygon fill="#00d4aa" stroke="black" points="140.2,-295.2 79,-295.2 79,-264.96 140.2,-264.96 140.2,-295.2"/>
<text text-anchor="middle" x="109.6" y="-276.95" font-family="Helvetica,sans-Serif" font-size="10.00" fill="#0a0e17">✓</text>
</g>
<!-- P8_6&#45;&gt;P9_6 -->
<!-- P9_7 -->
<g id="node90" class="node">
<title>P9_7</title>
<polygon fill="#00d4aa" stroke="black" points="61.2,-295.2 0,-295.2 0,-264.96 61.2,-264.96 61.2,-295.2"/>
<text text-anchor="middle" x="30.6" y="-276.95" font-family="Helvetica,sans-Serif" font-size="10.00" fill="#0a0e17">✓</text>
</g>
<!-- P8_7&#45;&gt;P9_7 -->
<!-- P12_T -->
<g id="node91" class="node">
<title>P12_T</title>
<polygon fill="#7a8fa6" stroke="black" points="700.85,-228.96 632.35,-228.96 632.35,-198.72 700.85,-198.72 700.85,-228.96"/>
<text text-anchor="middle" x="666.6" y="-210.71" font-family="Helvetica,sans-Serif" font-size="10.00" fill="#0a0e17">Pass 12&#45;15</text>
</g>
<!-- P9_T&#45;&gt;P12_T -->
<!-- P12_0 -->
<g id="node92" class="node">
<title>P12_0</title>
<polygon fill="#00d4aa" stroke="black" points="614.2,-228.96 553,-228.96 553,-198.72 614.2,-198.72 614.2,-228.96"/>
<text text-anchor="middle" x="583.6" y="-210.71" font-family="Helvetica,sans-Serif" font-size="10.00" fill="#0a0e17">✓</text>
</g>
<!-- P9_0&#45;&gt;P12_0 -->
<!-- P12_1 -->
<g id="node93" class="node">
<title>P12_1</title>
<polygon fill="#00d4aa" stroke="black" points="535.2,-228.96 474,-228.96 474,-198.72 535.2,-198.72 535.2,-228.96"/>
<text text-anchor="middle" x="504.6" y="-210.71" font-family="Helvetica,sans-Serif" font-size="10.00" fill="#0a0e17">✓</text>
</g>
<!-- P9_1&#45;&gt;P12_1 -->
<!-- P12_2 -->
<g id="node94" class="node">
<title>P12_2</title>
<polygon fill="#00d4aa" stroke="black" points="456.2,-228.96 395,-228.96 395,-198.72 456.2,-198.72 456.2,-228.96"/>
<text text-anchor="middle" x="425.6" y="-210.71" font-family="Helvetica,sans-Serif" font-size="10.00" fill="#0a0e17">✓</text>
</g>
<!-- P9_2&#45;&gt;P12_2 -->
<!-- P12_3 -->
<g id="node95" class="node">
<title>P12_3</title>
<polygon fill="#00d4aa" stroke="black" points="377.2,-228.96 316,-228.96 316,-198.72 377.2,-198.72 377.2,-228.96"/>
<text text-anchor="middle" x="346.6" y="-210.71" font-family="Helvetica,sans-Serif" font-size="10.00" fill="#0a0e17">✓</text>
</g>
<!-- P9_3&#45;&gt;P12_3 -->
<!-- P12_4 -->
<g id="node96" class="node">
<title>P12_4</title>
<polygon fill="#00d4aa" stroke="black" points="298.2,-228.96 237,-228.96 237,-198.72 298.2,-198.72 298.2,-228.96"/>
<text text-anchor="middle" x="267.6" y="-210.71" font-family="Helvetica,sans-Serif" font-size="10.00" fill="#0a0e17">✓</text>
</g>
<!-- P9_4&#45;&gt;P12_4 -->
<!-- P12_5 -->
<g id="node97" class="node">
<title>P12_5</title>
<polygon fill="#00d4aa" stroke="black" points="219.2,-228.96 158,-228.96 158,-198.72 219.2,-198.72 219.2,-228.96"/>
<text text-anchor="middle" x="188.6" y="-210.71" font-family="Helvetica,sans-Serif" font-size="10.00" fill="#0a0e17">✓</text>
</g>
<!-- P9_5&#45;&gt;P12_5 -->
<!-- P12_6 -->
<g id="node98" class="node">
<title>P12_6</title>
<polygon fill="#00d4aa" stroke="black" points="140.2,-228.96 79,-228.96 79,-198.72 140.2,-198.72 140.2,-228.96"/>
<text text-anchor="middle" x="109.6" y="-210.71" font-family="Helvetica,sans-Serif" font-size="10.00" fill="#0a0e17">✓</text>
</g>
<!-- P9_6&#45;&gt;P12_6 -->
<!-- P12_7 -->
<g id="node99" class="node">
<title>P12_7</title>
<polygon fill="#00d4aa" stroke="black" points="61.2,-228.96 0,-228.96 0,-198.72 61.2,-198.72 61.2,-228.96"/>
<text text-anchor="middle" x="30.6" y="-210.71" font-family="Helvetica,sans-Serif" font-size="10.00" fill="#0a0e17">✓</text>
</g>
<!-- P9_7&#45;&gt;P12_7 -->
<!-- P16_T -->
<g id="node100" class="node">
<title>P16_T</title>
<polygon fill="#7a8fa6" stroke="black" points="701.85,-162.72 633.35,-162.72 633.35,-132.48 701.85,-132.48 701.85,-162.72"/>
<text text-anchor="middle" x="667.6" y="-144.47" font-family="Helvetica,sans-Serif" font-size="10.00" fill="#0a0e17">Pass 16&#45;19</text>
</g>
<!-- P12_T&#45;&gt;P16_T -->
<!-- P16_0 -->
<g id="node101" class="node">
<title>P16_0</title>
<polygon fill="#00d4aa" stroke="black" points="614.2,-162.72 553,-162.72 553,-132.48 614.2,-132.48 614.2,-162.72"/>
<text text-anchor="middle" x="583.6" y="-144.47" font-family="Helvetica,sans-Serif" font-size="10.00" fill="#0a0e17">✓</text>
</g>
<!-- P12_0&#45;&gt;P16_0 -->
<!-- P16_1 -->
<g id="node102" class="node">
<title>P16_1</title>
<polygon fill="#00d4aa" stroke="black" points="535.2,-162.72 474,-162.72 474,-132.48 535.2,-132.48 535.2,-162.72"/>
<text text-anchor="middle" x="504.6" y="-144.47" font-family="Helvetica,sans-Serif" font-size="10.00" fill="#0a0e17">✓</text>
</g>
<!-- P12_1&#45;&gt;P16_1 -->
<!-- P16_2 -->
<g id="node103" class="node">
<title>P16_2</title>
<polygon fill="#00d4aa" stroke="black" points="456.2,-162.72 395,-162.72 395,-132.48 456.2,-132.48 456.2,-162.72"/>
<text text-anchor="middle" x="425.6" y="-144.47" font-family="Helvetica,sans-Serif" font-size="10.00" fill="#0a0e17">✓</text>
</g>
<!-- P12_2&#45;&gt;P16_2 -->
<!-- P16_3 -->
<g id="node104" class="node">
<title>P16_3</title>
<polygon fill="#00d4aa" stroke="black" points="377.2,-162.72 316,-162.72 316,-132.48 377.2,-132.48 377.2,-162.72"/>
<text text-anchor="middle" x="346.6" y="-144.47" font-family="Helvetica,sans-Serif" font-size="10.00" fill="#0a0e17">✓</text>
</g>
<!-- P12_3&#45;&gt;P16_3 -->
<!-- P16_4 -->
<g id="node105" class="node">
<title>P16_4</title>
<polygon fill="#00d4aa" stroke="black" points="298.2,-162.72 237,-162.72 237,-132.48 298.2,-132.48 298.2,-162.72"/>
<text text-anchor="middle" x="267.6" y="-144.47" font-family="Helvetica,sans-Serif" font-size="10.00" fill="#0a0e17">✓</text>
</g>
<!-- P12_4&#45;&gt;P16_4 -->
<!-- P16_5 -->
<g id="node106" class="node">
<title>P16_5</title>
<polygon fill="#00d4aa" stroke="black" points="219.2,-162.72 158,-162.72 158,-132.48 219.2,-132.48 219.2,-162.72"/>
<text text-anchor="middle" x="188.6" y="-144.47" font-family="Helvetica,sans-Serif" font-size="10.00" fill="#0a0e17">✓</text>
</g>
<!-- P12_5&#45;&gt;P16_5 -->
<!-- P16_6 -->
<g id="node107" class="node">
<title>P16_6</title>
<polygon fill="#00d4aa" stroke="black" points="140.2,-162.72 79,-162.72 79,-132.48 140.2,-132.48 140.2,-162.72"/>
<text text-anchor="middle" x="109.6" y="-144.47" font-family="Helvetica,sans-Serif" font-size="10.00" fill="#0a0e17">✓</text>
</g>
<!-- P12_6&#45;&gt;P16_6 -->
<!-- P16_7 -->
<g id="node108" class="node">
<title>P16_7</title>
<polygon fill="#00d4aa" stroke="black" points="61.2,-162.72 0,-162.72 0,-132.48 61.2,-132.48 61.2,-162.72"/>
<text text-anchor="middle" x="30.6" y="-144.47" font-family="Helvetica,sans-Serif" font-size="10.00" fill="#0a0e17">✓</text>
</g>
<!-- P12_7&#45;&gt;P16_7 -->
<!-- P20_T -->
<g id="node109" class="node">
<title>P20_T</title>
<polygon fill="#3dd68c" stroke="black" points="698.2,-96.48 637,-96.48 637,-66.24 698.2,-66.24 698.2,-96.48"/>
<text text-anchor="middle" x="667.6" y="-78.23" font-family="Helvetica,sans-Serif" font-size="10.00" fill="#0a0e17">Pass 20</text>
</g>
<!-- P16_T&#45;&gt;P20_T -->
<!-- P20_0 -->
<g id="node110" class="node">
<title>P20_0</title>
<polygon fill="#ffd93d" stroke="black" points="614.2,-96.48 553,-96.48 553,-66.24 614.2,-66.24 614.2,-96.48"/>
<text text-anchor="middle" x="583.6" y="-78.23" font-family="Helvetica,sans-Serif" font-size="10.00" fill="#0a0e17">★</text>
</g>
<!-- P16_0&#45;&gt;P20_0 -->
<!-- P20_1 -->
<g id="node111" class="node">
<title>P20_1</title>
<polygon fill="#00d4aa" stroke="black" points="535.2,-96.48 474,-96.48 474,-66.24 535.2,-66.24 535.2,-96.48"/>
<text text-anchor="middle" x="504.6" y="-78.23" font-family="Helvetica,sans-Serif" font-size="10.00" fill="#0a0e17">✓</text>
</g>
<!-- P16_1&#45;&gt;P20_1 -->
<!-- P20_2 -->
<g id="node112" class="node">
<title>P20_2</title>
<polygon fill="#00d4aa" stroke="black" points="456.2,-96.48 395,-96.48 395,-66.24 456.2,-66.24 456.2,-96.48"/>
<text text-anchor="middle" x="425.6" y="-78.23" font-family="Helvetica,sans-Serif" font-size="10.00" fill="#0a0e17">✓</text>
</g>
<!-- P16_2&#45;&gt;P20_2 -->
<!-- P20_3 -->
<g id="node113" class="node">
<title>P20_3</title>
<polygon fill="#00d4aa" stroke="black" points="377.2,-96.48 316,-96.48 316,-66.24 377.2,-66.24 377.2,-96.48"/>
<text text-anchor="middle" x="346.6" y="-78.23" font-family="Helvetica,sans-Serif" font-size="10.00" fill="#0a0e17">✓</text>
</g>
<!-- P16_3&#45;&gt;P20_3 -->
<!-- P20_4 -->
<g id="node114" class="node">
<title>P20_4</title>
<polygon fill="#ffd93d" stroke="black" points="298.2,-96.48 237,-96.48 237,-66.24 298.2,-66.24 298.2,-96.48"/>
<text text-anchor="middle" x="267.6" y="-78.23" font-family="Helvetica,sans-Serif" font-size="10.00" fill="#0a0e17">★</text>
</g>
<!-- P16_4&#45;&gt;P20_4 -->
<!-- P20_5 -->
<g id="node115" class="node">
<title>P20_5</title>
<polygon fill="#ffd93d" stroke="black" points="219.2,-96.48 158,-96.48 158,-66.24 219.2,-66.24 219.2,-96.48"/>
<text text-anchor="middle" x="188.6" y="-78.23" font-family="Helvetica,sans-Serif" font-size="10.00" fill="#0a0e17">★</text>
</g>
<!-- P16_5&#45;&gt;P20_5 -->
<!-- P20_6 -->
<g id="node116" class="node">
<title>P20_6</title>
<polygon fill="#ffd93d" stroke="black" points="140.2,-96.48 79,-96.48 79,-66.24 140.2,-66.24 140.2,-96.48"/>
<text text-anchor="middle" x="109.6" y="-78.23" font-family="Helvetica,sans-Serif" font-size="10.00" fill="#0a0e17">★</text>
</g>
<!-- P16_6&#45;&gt;P20_6 -->
<!-- P20_7 -->
<g id="node117" class="node">
<title>P20_7</title>
<polygon fill="#ffd93d" stroke="black" points="61.2,-96.48 0,-96.48 0,-66.24 61.2,-66.24 61.2,-96.48"/>
<text text-anchor="middle" x="30.6" y="-78.23" font-family="Helvetica,sans-Serif" font-size="10.00" fill="#0a0e17">★</text>
</g>
<!-- P16_7&#45;&gt;P20_7 -->
<!-- CC_T -->
<g id="node118" class="node">
<title>CC_T</title>
<polygon fill="#00d4aa" stroke="black" points="704.73,-30.24 632.48,-30.24 632.48,0 704.73,0 704.73,-30.24"/>
<text text-anchor="middle" x="668.6" y="-11.99" font-family="Helvetica,sans-Serif" font-size="10.00" fill="#0a0e17">Cumulative</text>
</g>
<!-- P20_T&#45;&gt;CC_T -->
<!-- CC_0 -->
<g id="node119" class="node">
<title>CC_0</title>
<polygon fill="#3dd68c" stroke="black" points="614.2,-30.24 553,-30.24 553,0 614.2,0 614.2,-30.24"/>
<text text-anchor="middle" x="583.6" y="-11.99" font-family="Helvetica,sans-Serif" font-size="10.00" fill="#0a0e17">100%</text>
</g>
<!-- P20_0&#45;&gt;CC_0 -->
<!-- CC_1 -->
<g id="node120" class="node">
<title>CC_1</title>
<polygon fill="#3dd68c" stroke="black" points="535.2,-30.24 474,-30.24 474,0 535.2,0 535.2,-30.24"/>
<text text-anchor="middle" x="504.6" y="-11.99" font-family="Helvetica,sans-Serif" font-size="10.00" fill="#0a0e17">100%</text>
</g>
<!-- P20_1&#45;&gt;CC_1 -->
<!-- CC_2 -->
<g id="node121" class="node">
<title>CC_2</title>
<polygon fill="#3dd68c" stroke="black" points="456.2,-30.24 395,-30.24 395,0 456.2,0 456.2,-30.24"/>
<text text-anchor="middle" x="425.6" y="-11.99" font-family="Helvetica,sans-Serif" font-size="10.00" fill="#0a0e17">100%</text>
</g>
<!-- P20_2&#45;&gt;CC_2 -->
<!-- CC_3 -->
<g id="node122" class="node">
<title>CC_3</title>
<polygon fill="#3dd68c" stroke="black" points="377.2,-30.24 316,-30.24 316,0 377.2,0 377.2,-30.24"/>
<text text-anchor="middle" x="346.6" y="-11.99" font-family="Helvetica,sans-Serif" font-size="10.00" fill="#0a0e17">100%</text>
</g>
<!-- P20_3&#45;&gt;CC_3 -->
<!-- CC_4 -->
<g id="node123" class="node">
<title>CC_4</title>
<polygon fill="#3dd68c" stroke="black" points="298.2,-30.24 237,-30.24 237,0 298.2,0 298.2,-30.24"/>
<text text-anchor="middle" x="267.6" y="-11.99" font-family="Helvetica,sans-Serif" font-size="10.00" fill="#0a0e17">100%</text>
</g>
<!-- P20_4&#45;&gt;CC_4 -->
<!-- CC_5 -->
<g id="node124" class="node">
<title>CC_5</title>
<polygon fill="#3dd68c" stroke="black" points="219.2,-30.24 158,-30.24 158,0 219.2,0 219.2,-30.24"/>
<text text-anchor="middle" x="188.6" y="-11.99" font-family="Helvetica,sans-Serif" font-size="10.00" fill="#0a0e17">100%</text>
</g>
<!-- P20_5&#45;&gt;CC_5 -->
<!-- CC_6 -->
<g id="node125" class="node">
<title>CC_6</title>
<polygon fill="#3dd68c" stroke="black" points="140.2,-30.24 79,-30.24 79,0 140.2,0 140.2,-30.24"/>
<text text-anchor="middle" x="109.6" y="-11.99" font-family="Helvetica,sans-Serif" font-size="10.00" fill="#0a0e17">100%</text>
</g>
<!-- P20_6&#45;&gt;CC_6 -->
<!-- CC_7 -->
<g id="node126" class="node">
<title>CC_7</title>
<polygon fill="#3dd68c" stroke="black" points="61.2,-30.24 0,-30.24 0,0 61.2,0 61.2,-30.24"/>
<text text-anchor="middle" x="30.6" y="-11.99" font-family="Helvetica,sans-Serif" font-size="10.00" fill="#0a0e17">100%</text>
</g>
<!-- P20_7&#45;&gt;CC_7 -->
<!-- LK1 -->
<g id="node127" class="node">
<title>LK1</title>
<polygon fill="#2c5e4a" stroke="black" points="738.2,-1447.36 677,-1447.36 677,-1417.12 738.2,-1417.12 738.2,-1447.36"/>
<text text-anchor="middle" x="707.6" y="-1429.11" font-family="Helvetica,sans-Serif" font-size="10.00" fill="#e0e6ed">first</text>
</g>
<!-- LK2 -->
<g id="node128" class="node">
<title>LK2</title>
<polygon fill="#3dd68c" stroke="black" points="740.35,-1379.49 674.85,-1379.49 674.85,-1349.25 740.35,-1349.25 740.35,-1379.49"/>
<text text-anchor="middle" x="707.6" y="-1361.24" font-family="Helvetica,sans-Serif" font-size="10.00" fill="#0a0e17">reinforced</text>
</g>
<!-- LK1&#45;&gt;LK2 -->
<!-- LK3 -->
<g id="node129" class="node">
<title>LK3</title>
<polygon fill="#00d4aa" stroke="black" points="738.85,-1309.99 676.35,-1309.99 676.35,-1279.75 738.85,-1279.75 738.85,-1309.99"/>
<text text-anchor="middle" x="707.6" y="-1291.74" font-family="Helvetica,sans-Serif" font-size="10.00" fill="#0a0e17">saturated</text>
</g>
<!-- LK2&#45;&gt;LK3 -->
<!-- LK4 -->
<g id="node130" class="node">
<title>LK4</title>
<polygon fill="#ffd93d" stroke="black" points="738.2,-1240.49 677,-1240.49 677,-1210.25 738.2,-1210.25 738.2,-1240.49"/>
<text text-anchor="middle" x="707.6" y="-1222.24" font-family="Helvetica,sans-Serif" font-size="10.00" fill="#0a0e17">P20 ★</text>
</g>
<!-- LK3&#45;&gt;LK4 -->
</g>
</svg>
