<?xml version="1.0" encoding="UTF-8" standalone="no"?>
<!DOCTYPE svg PUBLIC "-//W3C//DTD SVG 1.1//EN"
 "http://www.w3.org/Graphics/SVG/1.1/DTD/svg11.dtd">
<!-- Generated by graphviz version 12.2.1 (0)
 -->
<!-- Title: G34_CumulativeArcSummary Pages: 1 -->
<svg width="1890pt" height="896pt"
 viewBox="0.00 0.00 1890.12 896.25" xmlns="http://www.w3.org/2000/svg" xmlns:xlink="http://www.w3.org/1999/xlink">
<g id="graph0" class="graph" transform="scale(1 1) rotate(0) translate(4 892.25)">
<title>G34_CumulativeArcSummary</title>
<polygon fill="#0a0e17" stroke="none" points="-4,4 -4,-892.25 1886.12,-892.25 1886.12,4 -4,4"/>
<text text-anchor="middle" x="941.06" y="-870.95" font-family="Times,serif" font-size="14.00" fill="#00d4aa">G34 — Cumulative Class A→H Arc Summary · Pass 1 → Pass 20</text>
<g id="clust1" class="cluster">
<title>cluster_A</title>
<polygon fill="#0a0e17" stroke="#1e2a3a" stroke-dasharray="5,2" points="188.62,-8 188.62,-139 327.12,-139 327.12,-8 188.62,-8"/>
<text text-anchor="middle" x="257.88" y="-121.7" font-family="Times,serif" font-size="14.00" fill="#3dd68c">Pass 1&#45;3</text>
</g>
<g id="clust2" class="cluster">
<title>cluster_B</title>
<polygon fill="#0a0e17" stroke="#1e2a3a" stroke-dasharray="5,2" points="414.62,-90 414.62,-221 549.38,-221 549.38,-90 414.62,-90"/>
<text text-anchor="middle" x="482" y="-203.7" font-family="Times,serif" font-size="14.00" fill="#3dd68c">Pass 4&#45;5</text>
</g>
<g id="clust3" class="cluster">
<title>cluster_C</title>
<polygon fill="#0a0e17" stroke="#1e2a3a" stroke-dasharray="5,2" points="636.88,-148 636.88,-333 782.88,-333 782.88,-148 636.88,-148"/>
<text text-anchor="middle" x="709.88" y="-315.7" font-family="Times,serif" font-size="14.00" fill="#3dd68c">Pass 6&#45;9</text>
</g>
<g id="clust4" class="cluster">
<title>cluster_D</title>
<polygon fill="#0a0e17" stroke="#1e2a3a" stroke-dasharray="5,2" points="870.38,-284 870.38,-415 1001.38,-415 1001.38,-284 870.38,-284"/>
<text text-anchor="middle" x="935.88" y="-397.7" font-family="Times,serif" font-size="14.00" fill="#3dd68c">Pass 10&#45;13</text>
</g>
<g id="clust5" class="cluster">
<title>cluster_E</title>
<polygon fill="#0a0e17" stroke="#1e2a3a" stroke-dasharray="5,2" points="1088.88,-366 1088.88,-497 1208.62,-497 1208.62,-366 1088.88,-366"/>
<text text-anchor="middle" x="1148.75" y="-479.7" font-family="Times,serif" font-size="14.00" fill="#3dd68c">Pass 14&#45;15</text>
</g>
<g id="clust6" class="cluster">
<title>cluster_F</title>
<polygon fill="#0a0e17" stroke="#1e2a3a" stroke-dasharray="5,2" points="1296.12,-448 1296.12,-579 1429.38,-579 1429.38,-448 1296.12,-448"/>
<text text-anchor="middle" x="1362.75" y="-561.7" font-family="Times,serif" font-size="14.00" fill="#3dd68c">Pass 16&#45;17</text>
</g>
<g id="clust7" class="cluster">
<title>cluster_G</title>
<polygon fill="#0a0e17" stroke="#1e2a3a" stroke-dasharray="5,2" points="1516.88,-530 1516.88,-661 1655.38,-661 1655.38,-530 1516.88,-530"/>
<text text-anchor="middle" x="1586.12" y="-643.7" font-family="Times,serif" font-size="14.00" fill="#3dd68c">Pass 18&#45;19</text>
</g>
<g id="clust8" class="cluster">
<title>cluster_H</title>
<polygon fill="#0a0e17" stroke="#1e2a3a" stroke-dasharray="5,2" points="1676.38,-558 1676.38,-855 1874.12,-855 1874.12,-558 1676.38,-558"/>
<text text-anchor="middle" x="1775.25" y="-837.7" font-family="Times,serif" font-size="14.00" fill="#ffd93d">Pass 20 ★</text>
</g>
<g id="clust9" class="cluster">
<title>cluster_legend</title>
<polygon fill="#0a0e17" stroke="#1e2a3a" stroke-dasharray="5,2" points="8,-587 8,-664 750.25,-664 750.25,-587 8,-587"/>
<text text-anchor="middle" x="379.12" y="-646.7" font-family="Times,serif" font-size="14.00" fill="#00d4aa">legend</text>
</g>
<!-- ClassA -->
<g id="node1" class="node">
<title>ClassA</title>
<path fill="#2c5e4a" stroke="#1e2a3a" stroke-width="1.2" d="M81.12,-106C81.12,-106 19.38,-106 19.38,-106 13.38,-106 7.38,-100 7.38,-94 7.38,-94 7.38,-82 7.38,-82 7.38,-76 13.38,-70 19.38,-70 19.38,-70 81.12,-70 81.12,-70 87.12,-70 93.12,-76 93.12,-82 93.12,-82 93.12,-94 93.12,-94 93.12,-100 87.12,-106 81.12,-106"/>
<text text-anchor="middle" x="50.25" y="-91.25" font-family="Helvetica,sans-Serif" font-size="10.00" fill="#e0e6ed">Class A</text>
<text text-anchor="middle" x="50.25" y="-78.5" font-family="Helvetica,sans-Serif" font-size="10.00" fill="#e0e6ed">State Machine</text>
</g>
<!-- ClassB -->
<g id="node2" class="node">
<title>ClassB</title>
<path fill="#2c5e4a" stroke="#1e2a3a" stroke-width="1.2" d="M283.5,-193.12C283.5,-193.12 232.25,-193.12 232.25,-193.12 226.25,-193.12 220.25,-187.12 220.25,-181.12 220.25,-181.12 220.25,-158.88 220.25,-158.88 220.25,-152.88 226.25,-146.88 232.25,-146.88 232.25,-146.88 283.5,-146.88 283.5,-146.88 289.5,-146.88 295.5,-152.88 295.5,-158.88 295.5,-158.88 295.5,-181.12 295.5,-181.12 295.5,-187.12 289.5,-193.12 283.5,-193.12"/>
<text text-anchor="middle" x="257.88" y="-179.62" font-family="Helvetica,sans-Serif" font-size="10.00" fill="#e0e6ed">Class B</text>
<text text-anchor="middle" x="257.88" y="-166.88" font-family="Helvetica,sans-Serif" font-size="10.00" fill="#e0e6ed">Dispatcher</text>
<text text-anchor="middle" x="257.88" y="-154.12" font-family="Helvetica,sans-Serif" font-size="10.00" fill="#e0e6ed">Consistency</text>
</g>
<!-- ClassA&#45;&gt;ClassB -->
<g id="edge1" class="edge">
<title>ClassA&#45;&gt;ClassB</title>
<path fill="none" stroke="#3dd68c" d="M93.62,-105.02C120.77,-115.91 156.76,-130.32 188.62,-143 195.47,-145.72 202.7,-148.59 209.79,-151.4"/>
<polygon fill="#3dd68c" stroke="#3dd68c" points="208.03,-154.47 218.62,-154.9 210.61,-147.96 208.03,-154.47"/>
<text text-anchor="middle" x="144.88" y="-141.26" font-family="Helvetica,sans-Serif" font-size="9.00" fill="#3dd68c">cumulative arc</text>
</g>
<!-- A1 -->
<g id="node9" class="node">
<title>A1</title>
<path fill="#141922" stroke="#1e2a3a" stroke-width="1.2" d="M307.12,-106C307.12,-106 208.62,-106 208.62,-106 202.62,-106 196.62,-100 196.62,-94 196.62,-94 196.62,-82 196.62,-82 196.62,-76 202.62,-70 208.62,-70 208.62,-70 307.12,-70 307.12,-70 313.12,-70 319.12,-76 319.12,-82 319.12,-82 319.12,-94 319.12,-94 319.12,-100 313.12,-106 307.12,-106"/>
<text text-anchor="middle" x="257.88" y="-91.25" font-family="Helvetica,sans-Serif" font-size="10.00" fill="#e0e6ed">MarionetteSession.tla</text>
<text text-anchor="middle" x="257.88" y="-78.5" font-family="Helvetica,sans-Serif" font-size="10.00" fill="#e0e6ed">(invariants)</text>
</g>
<!-- ClassA&#45;&gt;A1 -->
<g id="edge8" class="edge">
<title>ClassA&#45;&gt;A1</title>
<path fill="none" stroke="#3dd68c" stroke-dasharray="5,2" d="M93.36,-88C119.72,-88 154.37,-88 184.99,-88"/>
<polygon fill="#3dd68c" stroke="#3dd68c" points="184.99,-91.5 194.99,-88 184.99,-84.5 184.99,-91.5"/>
</g>
<!-- A2 -->
<g id="node10" class="node">
<title>A2</title>
<path fill="#141922" stroke="#1e2a3a" stroke-width="1.2" d="M298.5,-52C298.5,-52 217.25,-52 217.25,-52 211.25,-52 205.25,-46 205.25,-40 205.25,-40 205.25,-28 205.25,-28 205.25,-22 211.25,-16 217.25,-16 217.25,-16 298.5,-16 298.5,-16 304.5,-16 310.5,-22 310.5,-28 310.5,-28 310.5,-40 310.5,-40 310.5,-46 304.5,-52 298.5,-52"/>
<text text-anchor="middle" x="257.88" y="-30.88" font-family="Helvetica,sans-Serif" font-size="10.00" fill="#e0e6ed">state&#45;machine.dot</text>
</g>
<!-- ClassA&#45;&gt;A2 -->
<g id="edge9" class="edge">
<title>ClassA&#45;&gt;A2</title>
<path fill="none" stroke="#3dd68c" stroke-dasharray="5,2" d="M93.36,-76.94C122.39,-69.32 161.48,-59.05 194.16,-50.47"/>
<polygon fill="#3dd68c" stroke="#3dd68c" points="194.72,-53.94 203.51,-48.02 192.95,-47.17 194.72,-53.94"/>
</g>
<!-- ClassC -->
<g id="node3" class="node">
<title>ClassC</title>
<path fill="#3dd68c" stroke="#1e2a3a" stroke-width="1.2" d="M505.38,-275.12C505.38,-275.12 458.62,-275.12 458.62,-275.12 452.62,-275.12 446.62,-269.12 446.62,-263.12 446.62,-263.12 446.62,-240.88 446.62,-240.88 446.62,-234.88 452.62,-228.88 458.62,-228.88 458.62,-228.88 505.38,-228.88 505.38,-228.88 511.38,-228.88 517.38,-234.88 517.38,-240.88 517.38,-240.88 517.38,-263.12 517.38,-263.12 517.38,-269.12 511.38,-275.12 505.38,-275.12"/>
<text text-anchor="middle" x="482" y="-261.62" font-family="Helvetica,sans-Serif" font-size="10.00" fill="#0a0e17">Class C</text>
<text text-anchor="middle" x="482" y="-248.88" font-family="Helvetica,sans-Serif" font-size="10.00" fill="#0a0e17">Formal</text>
<text text-anchor="middle" x="482" y="-236.12" font-family="Helvetica,sans-Serif" font-size="10.00" fill="#0a0e17">Verification</text>
</g>
<!-- ClassB&#45;&gt;ClassC -->
<g id="edge2" class="edge">
<title>ClassB&#45;&gt;ClassC</title>
<path fill="none" stroke="#3dd68c" d="M295.8,-183.63C334.19,-197.8 394.33,-220.01 435.6,-235.24"/>
<polygon fill="#3dd68c" stroke="#3dd68c" points="434.17,-238.44 444.76,-238.62 436.59,-231.88 434.17,-238.44"/>
<text text-anchor="middle" x="370.88" y="-225.84" font-family="Helvetica,sans-Serif" font-size="9.00" fill="#3dd68c">cumulative arc</text>
</g>
<!-- B1 -->
<g id="node11" class="node">
<title>B1</title>
<path fill="#141922" stroke="#1e2a3a" stroke-width="1.2" d="M524.5,-188C524.5,-188 439.5,-188 439.5,-188 433.5,-188 427.5,-182 427.5,-176 427.5,-176 427.5,-164 427.5,-164 427.5,-158 433.5,-152 439.5,-152 439.5,-152 524.5,-152 524.5,-152 530.5,-152 536.5,-158 536.5,-164 536.5,-164 536.5,-176 536.5,-176 536.5,-182 530.5,-188 524.5,-188"/>
<text text-anchor="middle" x="482" y="-173.25" font-family="Helvetica,sans-Serif" font-size="10.00" fill="#e0e6ed">dispatcher.gleam</text>
<text text-anchor="middle" x="482" y="-160.5" font-family="Helvetica,sans-Serif" font-size="10.00" fill="#e0e6ed">Marionette domain</text>
</g>
<!-- ClassB&#45;&gt;B1 -->
<g id="edge10" class="edge">
<title>ClassB&#45;&gt;B1</title>
<path fill="none" stroke="#3dd68c" stroke-dasharray="5,2" d="M295.8,-170C328.48,-170 376.9,-170 416.04,-170"/>
<polygon fill="#3dd68c" stroke="#3dd68c" points="415.83,-173.5 425.83,-170 415.83,-166.5 415.83,-173.5"/>
</g>
<!-- B2 -->
<g id="node12" class="node">
<title>B2</title>
<path fill="#141922" stroke="#1e2a3a" stroke-width="1.2" d="M529.38,-134C529.38,-134 434.62,-134 434.62,-134 428.62,-134 422.62,-128 422.62,-122 422.62,-122 422.62,-110 422.62,-110 422.62,-104 428.62,-98 434.62,-98 434.62,-98 529.38,-98 529.38,-98 535.38,-98 541.38,-104 541.38,-110 541.38,-110 541.38,-122 541.38,-122 541.38,-128 535.38,-134 529.38,-134"/>
<text text-anchor="middle" x="482" y="-112.88" font-family="Helvetica,sans-Serif" font-size="10.00" fill="#e0e6ed">rete&#45;rule consistency</text>
</g>
<!-- ClassB&#45;&gt;B2 -->
<g id="edge11" class="edge">
<title>ClassB&#45;&gt;B2</title>
<path fill="none" stroke="#3dd68c" stroke-dasharray="5,2" d="M295.8,-161.02C327.13,-153.41 372.94,-142.27 411.16,-132.98"/>
<polygon fill="#3dd68c" stroke="#3dd68c" points="411.87,-136.41 420.76,-130.64 410.22,-129.61 411.87,-136.41"/>
</g>
<!-- ClassD -->
<g id="node4" class="node">
<title>ClassD</title>
<path fill="#3dd68c" stroke="#1e2a3a" stroke-width="1.2" d="M734.75,-387.12C734.75,-387.12 685,-387.12 685,-387.12 679,-387.12 673,-381.12 673,-375.12 673,-375.12 673,-352.88 673,-352.88 673,-346.88 679,-340.88 685,-340.88 685,-340.88 734.75,-340.88 734.75,-340.88 740.75,-340.88 746.75,-346.88 746.75,-352.88 746.75,-352.88 746.75,-375.12 746.75,-375.12 746.75,-381.12 740.75,-387.12 734.75,-387.12"/>
<text text-anchor="middle" x="709.88" y="-373.62" font-family="Helvetica,sans-Serif" font-size="10.00" fill="#0a0e17">Class D</text>
<text text-anchor="middle" x="709.88" y="-360.88" font-family="Helvetica,sans-Serif" font-size="10.00" fill="#0a0e17">Full&#45;System</text>
<text text-anchor="middle" x="709.88" y="-348.12" font-family="Helvetica,sans-Serif" font-size="10.00" fill="#0a0e17">+ Matrix</text>
</g>
<!-- ClassC&#45;&gt;ClassD -->
<g id="edge3" class="edge">
<title>ClassC&#45;&gt;ClassD</title>
<path fill="none" stroke="#3dd68c" d="M517.69,-273.08C548.4,-291.26 594.74,-317.59 636.88,-337 644.89,-340.69 653.56,-344.28 662.02,-347.57"/>
<polygon fill="#3dd68c" stroke="#3dd68c" points="660.55,-350.75 671.15,-351.02 663.03,-344.2 660.55,-350.75"/>
<text text-anchor="middle" x="593.12" y="-333.62" font-family="Helvetica,sans-Serif" font-size="9.00" fill="#3dd68c">cumulative arc</text>
</g>
<!-- C1 -->
<g id="node13" class="node">
<title>C1</title>
<path fill="#141922" stroke="#1e2a3a" stroke-width="1.2" d="M742.25,-300C742.25,-300 677.5,-300 677.5,-300 671.5,-300 665.5,-294 665.5,-288 665.5,-288 665.5,-276 665.5,-276 665.5,-270 671.5,-264 677.5,-264 677.5,-264 742.25,-264 742.25,-264 748.25,-264 754.25,-270 754.25,-276 754.25,-276 754.25,-288 754.25,-288 754.25,-294 748.25,-300 742.25,-300"/>
<text text-anchor="middle" x="709.88" y="-278.88" font-family="Helvetica,sans-Serif" font-size="10.00" fill="#e0e6ed">13 TLA+ specs</text>
</g>
<!-- ClassC&#45;&gt;C1 -->
<g id="edge12" class="edge">
<title>ClassC&#45;&gt;C1</title>
<path fill="none" stroke="#3dd68c" stroke-dasharray="5,2" d="M517.8,-256.62C554.07,-261.44 611.44,-269.06 653.86,-274.69"/>
<polygon fill="#3dd68c" stroke="#3dd68c" points="653.25,-278.14 663.62,-275.99 654.17,-271.2 653.25,-278.14"/>
</g>
<!-- C2 -->
<g id="node14" class="node">
<title>C2</title>
<path fill="#141922" stroke="#1e2a3a" stroke-width="1.2" d="M739.62,-246C739.62,-246 680.12,-246 680.12,-246 674.12,-246 668.12,-240 668.12,-234 668.12,-234 668.12,-222 668.12,-222 668.12,-216 674.12,-210 680.12,-210 680.12,-210 739.62,-210 739.62,-210 745.62,-210 751.62,-216 751.62,-222 751.62,-222 751.62,-234 751.62,-234 751.62,-240 745.62,-246 739.62,-246"/>
<text text-anchor="middle" x="709.88" y="-224.88" font-family="Helvetica,sans-Serif" font-size="10.00" fill="#e0e6ed">2 Agda proofs</text>
</g>
<!-- ClassC&#45;&gt;C2 -->
<g id="edge13" class="edge">
<title>ClassC&#45;&gt;C2</title>
<path fill="none" stroke="#3dd68c" stroke-dasharray="5,2" d="M517.8,-248.3C554.87,-244.36 613.96,-238.09 656.62,-233.55"/>
<polygon fill="#3dd68c" stroke="#3dd68c" points="656.83,-237.05 666.41,-232.51 656.09,-230.09 656.83,-237.05"/>
</g>
<!-- C3 -->
<g id="node15" class="node">
<title>C3</title>
<path fill="#141922" stroke="#1e2a3a" stroke-width="1.2" d="M762.88,-192C762.88,-192 656.88,-192 656.88,-192 650.88,-192 644.88,-186 644.88,-180 644.88,-180 644.88,-168 644.88,-168 644.88,-162 650.88,-156 656.88,-156 656.88,-156 762.88,-156 762.88,-156 768.88,-156 774.88,-162 774.88,-168 774.88,-168 774.88,-180 774.88,-180 774.88,-186 768.88,-192 762.88,-192"/>
<text text-anchor="middle" x="709.88" y="-177.25" font-family="Helvetica,sans-Serif" font-size="10.00" fill="#e0e6ed">Allium spec</text>
<text text-anchor="middle" x="709.88" y="-164.5" font-family="Helvetica,sans-Serif" font-size="10.00" fill="#e0e6ed">marionette_mcp.allium</text>
</g>
<!-- ClassC&#45;&gt;C3 -->
<g id="edge14" class="edge">
<title>ClassC&#45;&gt;C3</title>
<path fill="none" stroke="#3dd68c" stroke-dasharray="5,2" d="M517.8,-239.98C551.54,-228.33 603.52,-210.38 644.76,-196.14"/>
<polygon fill="#3dd68c" stroke="#3dd68c" points="645.79,-199.49 654.1,-192.91 643.51,-192.87 645.79,-199.49"/>
</g>
<!-- ClassE -->
<g id="node5" class="node">
<title>ClassE</title>
<path fill="#3dd68c" stroke="#1e2a3a" stroke-width="1.2" d="M963,-469.12C963,-469.12 908.75,-469.12 908.75,-469.12 902.75,-469.12 896.75,-463.12 896.75,-457.12 896.75,-457.12 896.75,-434.88 896.75,-434.88 896.75,-428.88 902.75,-422.88 908.75,-422.88 908.75,-422.88 963,-422.88 963,-422.88 969,-422.88 975,-428.88 975,-434.88 975,-434.88 975,-457.12 975,-457.12 975,-463.12 969,-469.12 963,-469.12"/>
<text text-anchor="middle" x="935.88" y="-455.62" font-family="Helvetica,sans-Serif" font-size="10.00" fill="#0a0e17">Class E</text>
<text text-anchor="middle" x="935.88" y="-442.88" font-family="Helvetica,sans-Serif" font-size="10.00" fill="#0a0e17">Runtime</text>
<text text-anchor="middle" x="935.88" y="-430.12" font-family="Helvetica,sans-Serif" font-size="10.00" fill="#0a0e17">Enforcement</text>
</g>
<!-- ClassD&#45;&gt;ClassE -->
<g id="edge4" class="edge">
<title>ClassD&#45;&gt;ClassE</title>
<path fill="none" stroke="#3dd68c" d="M746.86,-377.17C784.44,-390.93 843.63,-412.6 885.55,-427.94"/>
<polygon fill="#3dd68c" stroke="#3dd68c" points="884.33,-431.22 894.92,-431.38 886.74,-424.65 884.33,-431.22"/>
<text text-anchor="middle" x="826.62" y="-419.84" font-family="Helvetica,sans-Serif" font-size="9.00" fill="#3dd68c">cumulative arc</text>
</g>
<!-- D1 -->
<g id="node16" class="node">
<title>D1</title>
<path fill="#141922" stroke="#1e2a3a" stroke-width="1.2" d="M981.38,-382C981.38,-382 890.38,-382 890.38,-382 884.38,-382 878.38,-376 878.38,-370 878.38,-370 878.38,-358 878.38,-358 878.38,-352 884.38,-346 890.38,-346 890.38,-346 981.38,-346 981.38,-346 987.38,-346 993.38,-352 993.38,-358 993.38,-358 993.38,-370 993.38,-370 993.38,-376 987.38,-382 981.38,-382"/>
<text text-anchor="middle" x="935.88" y="-367.25" font-family="Helvetica,sans-Serif" font-size="10.00" fill="#e0e6ed">CPIG matrix</text>
<text text-anchor="middle" x="935.88" y="-354.5" font-family="Helvetica,sans-Serif" font-size="10.00" fill="#e0e6ed">12 subsys × 5 gates</text>
</g>
<!-- ClassD&#45;&gt;D1 -->
<g id="edge15" class="edge">
<title>ClassD&#45;&gt;D1</title>
<path fill="none" stroke="#3dd68c" stroke-dasharray="5,2" d="M746.86,-364C779.06,-364 827.11,-364 866.58,-364"/>
<polygon fill="#3dd68c" stroke="#3dd68c" points="866.48,-367.5 876.48,-364 866.48,-360.5 866.48,-367.5"/>
</g>
<!-- D2 -->
<g id="node17" class="node">
<title>D2</title>
<path fill="#141922" stroke="#1e2a3a" stroke-width="1.2" d="M971.62,-328C971.62,-328 900.12,-328 900.12,-328 894.12,-328 888.12,-322 888.12,-316 888.12,-316 888.12,-304 888.12,-304 888.12,-298 894.12,-292 900.12,-292 900.12,-292 971.62,-292 971.62,-292 977.62,-292 983.62,-298 983.62,-304 983.62,-304 983.62,-316 983.62,-316 983.62,-322 977.62,-328 971.62,-328"/>
<text text-anchor="middle" x="935.88" y="-313.25" font-family="Helvetica,sans-Serif" font-size="10.00" fill="#e0e6ed">200&#45;test catalog</text>
<text text-anchor="middle" x="935.88" y="-300.5" font-family="Helvetica,sans-Serif" font-size="10.00" fill="#e0e6ed">FluffyChat</text>
</g>
<!-- ClassD&#45;&gt;D2 -->
<g id="edge16" class="edge">
<title>ClassD&#45;&gt;D2</title>
<path fill="none" stroke="#3dd68c" stroke-dasharray="5,2" d="M746.86,-355.32C781.87,-346.89 835.63,-333.92 876.71,-324.02"/>
<polygon fill="#3dd68c" stroke="#3dd68c" points="877.29,-327.48 886.2,-321.74 875.65,-320.68 877.29,-327.48"/>
</g>
<!-- ClassF -->
<g id="node6" class="node">
<title>ClassF</title>
<path fill="#00d4aa" stroke="#1e2a3a" stroke-width="1.2" d="M1180.38,-551.12C1180.38,-551.12 1117.12,-551.12 1117.12,-551.12 1111.12,-551.12 1105.12,-545.12 1105.12,-539.12 1105.12,-539.12 1105.12,-516.88 1105.12,-516.88 1105.12,-510.88 1111.12,-504.88 1117.12,-504.88 1117.12,-504.88 1180.38,-504.88 1180.38,-504.88 1186.38,-504.88 1192.38,-510.88 1192.38,-516.88 1192.38,-516.88 1192.38,-539.12 1192.38,-539.12 1192.38,-545.12 1186.38,-551.12 1180.38,-551.12"/>
<text text-anchor="middle" x="1148.75" y="-537.62" font-family="Helvetica,sans-Serif" font-size="10.00" fill="#0a0e17">Class F</text>
<text text-anchor="middle" x="1148.75" y="-524.88" font-family="Helvetica,sans-Serif" font-size="10.00" fill="#0a0e17">Runtime Activ.</text>
<text text-anchor="middle" x="1148.75" y="-512.12" font-family="Helvetica,sans-Serif" font-size="10.00" fill="#0a0e17">+ Evidence</text>
</g>
<!-- ClassE&#45;&gt;ClassF -->
<g id="edge5" class="edge">
<title>ClassE&#45;&gt;ClassF</title>
<path fill="none" stroke="#3dd68c" d="M975.06,-460.85C1008.33,-473.79 1056.94,-492.69 1094.11,-507.14"/>
<polygon fill="#3dd68c" stroke="#3dd68c" points="1092.76,-510.37 1103.35,-510.74 1095.3,-503.85 1092.76,-510.37"/>
<text text-anchor="middle" x="1045.12" y="-501.84" font-family="Helvetica,sans-Serif" font-size="9.00" fill="#3dd68c">cumulative arc</text>
</g>
<!-- E1 -->
<g id="node18" class="node">
<title>E1</title>
<path fill="#141922" stroke="#1e2a3a" stroke-width="1.2" d="M1188.62,-464C1188.62,-464 1108.88,-464 1108.88,-464 1102.88,-464 1096.88,-458 1096.88,-452 1096.88,-452 1096.88,-440 1096.88,-440 1096.88,-434 1102.88,-428 1108.88,-428 1108.88,-428 1188.62,-428 1188.62,-428 1194.62,-428 1200.62,-434 1200.62,-440 1200.62,-440 1200.62,-452 1200.62,-452 1200.62,-458 1194.62,-464 1188.62,-464"/>
<text text-anchor="middle" x="1148.75" y="-449.25" font-family="Helvetica,sans-Serif" font-size="10.00" fill="#e0e6ed">hooks +</text>
<text text-anchor="middle" x="1148.75" y="-436.5" font-family="Helvetica,sans-Serif" font-size="10.00" fill="#e0e6ed">sa&#45;plan validators</text>
</g>
<!-- ClassE&#45;&gt;E1 -->
<g id="edge17" class="edge">
<title>ClassE&#45;&gt;E1</title>
<path fill="none" stroke="#3dd68c" stroke-dasharray="5,2" d="M975.06,-446C1005.8,-446 1049.62,-446 1085.43,-446"/>
<polygon fill="#3dd68c" stroke="#3dd68c" points="1085.23,-449.5 1095.23,-446 1085.23,-442.5 1085.23,-449.5"/>
</g>
<!-- E2 -->
<g id="node19" class="node">
<title>E2</title>
<path fill="#141922" stroke="#1e2a3a" stroke-width="1.2" d="M1188.25,-410C1188.25,-410 1109.25,-410 1109.25,-410 1103.25,-410 1097.25,-404 1097.25,-398 1097.25,-398 1097.25,-386 1097.25,-386 1097.25,-380 1103.25,-374 1109.25,-374 1109.25,-374 1188.25,-374 1188.25,-374 1194.25,-374 1200.25,-380 1200.25,-386 1200.25,-386 1200.25,-398 1200.25,-398 1200.25,-404 1194.25,-410 1188.25,-410"/>
<text text-anchor="middle" x="1148.75" y="-395.25" font-family="Helvetica,sans-Serif" font-size="10.00" fill="#e0e6ed">cron health&#45;check</text>
<text text-anchor="middle" x="1148.75" y="-382.5" font-family="Helvetica,sans-Serif" font-size="10.00" fill="#e0e6ed">every 10 min</text>
</g>
<!-- ClassE&#45;&gt;E2 -->
<g id="edge18" class="edge">
<title>ClassE&#45;&gt;E2</title>
<path fill="none" stroke="#3dd68c" stroke-dasharray="5,2" d="M975.06,-436.22C1006.04,-428.29 1050.31,-416.95 1086.27,-407.74"/>
<polygon fill="#3dd68c" stroke="#3dd68c" points="1086.85,-411.21 1095.67,-405.34 1085.12,-404.43 1086.85,-411.21"/>
</g>
<!-- ClassG -->
<g id="node7" class="node">
<title>ClassG</title>
<path fill="#00d4aa" stroke="#1e2a3a" stroke-width="1.2" d="M1401.88,-633.12C1401.88,-633.12 1323.62,-633.12 1323.62,-633.12 1317.62,-633.12 1311.62,-627.12 1311.62,-621.12 1311.62,-621.12 1311.62,-598.88 1311.62,-598.88 1311.62,-592.88 1317.62,-586.88 1323.62,-586.88 1323.62,-586.88 1401.88,-586.88 1401.88,-586.88 1407.88,-586.88 1413.88,-592.88 1413.88,-598.88 1413.88,-598.88 1413.88,-621.12 1413.88,-621.12 1413.88,-627.12 1407.88,-633.12 1401.88,-633.12"/>
<text text-anchor="middle" x="1362.75" y="-619.62" font-family="Helvetica,sans-Serif" font-size="10.00" fill="#0a0e17">Class G</text>
<text text-anchor="middle" x="1362.75" y="-606.88" font-family="Helvetica,sans-Serif" font-size="10.00" fill="#0a0e17">Defense&#45;in&#45;Depth</text>
<text text-anchor="middle" x="1362.75" y="-594.12" font-family="Helvetica,sans-Serif" font-size="10.00" fill="#0a0e17">Observability</text>
</g>
<!-- ClassF&#45;&gt;ClassG -->
<g id="edge6" class="edge">
<title>ClassF&#45;&gt;ClassG</title>
<path fill="none" stroke="#3dd68c" d="M1192.65,-544.59C1223.79,-556.64 1266.35,-573.1 1300.99,-586.5"/>
<polygon fill="#3dd68c" stroke="#3dd68c" points="1299.46,-589.66 1310.05,-590 1301.98,-583.13 1299.46,-589.66"/>
<text text-anchor="middle" x="1252.38" y="-581.46" font-family="Helvetica,sans-Serif" font-size="9.00" fill="#3dd68c">cumulative arc</text>
</g>
<!-- F1 -->
<g id="node20" class="node">
<title>F1</title>
<path fill="#141922" stroke="#1e2a3a" stroke-width="1.2" d="M1409.38,-546C1409.38,-546 1316.12,-546 1316.12,-546 1310.12,-546 1304.12,-540 1304.12,-534 1304.12,-534 1304.12,-522 1304.12,-522 1304.12,-516 1310.12,-510 1316.12,-510 1316.12,-510 1409.38,-510 1409.38,-510 1415.38,-510 1421.38,-516 1421.38,-522 1421.38,-522 1421.38,-534 1421.38,-534 1421.38,-540 1415.38,-546 1409.38,-546"/>
<text text-anchor="middle" x="1362.75" y="-531.25" font-family="Helvetica,sans-Serif" font-size="10.00" fill="#e0e6ed">cpig&#45;validator&#45;hourly</text>
<text text-anchor="middle" x="1362.75" y="-518.5" font-family="Helvetica,sans-Serif" font-size="10.00" fill="#e0e6ed">systemd&#45;cron</text>
</g>
<!-- ClassF&#45;&gt;F1 -->
<g id="edge19" class="edge">
<title>ClassF&#45;&gt;F1</title>
<path fill="none" stroke="#3dd68c" stroke-dasharray="5,2" d="M1192.65,-528C1221.22,-528 1259.41,-528 1292.27,-528"/>
<polygon fill="#3dd68c" stroke="#3dd68c" points="1292.13,-531.5 1302.13,-528 1292.13,-524.5 1292.13,-531.5"/>
</g>
<!-- F2 -->
<g id="node21" class="node">
<title>F2</title>
<path fill="#141922" stroke="#1e2a3a" stroke-width="1.2" d="M1397.75,-492C1397.75,-492 1327.75,-492 1327.75,-492 1321.75,-492 1315.75,-486 1315.75,-480 1315.75,-480 1315.75,-468 1315.75,-468 1315.75,-462 1321.75,-456 1327.75,-456 1327.75,-456 1397.75,-456 1397.75,-456 1403.75,-456 1409.75,-462 1409.75,-468 1409.75,-468 1409.75,-480 1409.75,-480 1409.75,-486 1403.75,-492 1397.75,-492"/>
<text text-anchor="middle" x="1362.75" y="-477.25" font-family="Helvetica,sans-Serif" font-size="10.00" fill="#e0e6ed">evidence ledger</text>
<text text-anchor="middle" x="1362.75" y="-464.5" font-family="Helvetica,sans-Serif" font-size="10.00" fill="#e0e6ed">ZK ingest</text>
</g>
<!-- ClassF&#45;&gt;F2 -->
<g id="edge20" class="edge">
<title>ClassF&#45;&gt;F2</title>
<path fill="none" stroke="#3dd68c" stroke-dasharray="5,2" d="M1192.65,-517.07C1224.86,-508.87 1269.28,-497.55 1304.52,-488.58"/>
<polygon fill="#3dd68c" stroke="#3dd68c" points="1305.31,-491.99 1314.14,-486.13 1303.58,-485.2 1305.31,-491.99"/>
</g>
<!-- ClassH -->
<g id="node8" class="node">
<title>ClassH</title>
<path fill="#ffd93d" stroke="#1e2a3a" stroke-width="1.2" d="M1613.62,-715.12C1613.62,-715.12 1558.62,-715.12 1558.62,-715.12 1552.62,-715.12 1546.62,-709.12 1546.62,-703.12 1546.62,-703.12 1546.62,-680.88 1546.62,-680.88 1546.62,-674.88 1552.62,-668.88 1558.62,-668.88 1558.62,-668.88 1613.62,-668.88 1613.62,-668.88 1619.62,-668.88 1625.62,-674.88 1625.62,-680.88 1625.62,-680.88 1625.62,-703.12 1625.62,-703.12 1625.62,-709.12 1619.62,-715.12 1613.62,-715.12"/>
<text text-anchor="middle" x="1586.12" y="-701.62" font-family="Helvetica,sans-Serif" font-size="10.00" fill="#0a0e17">Class H</text>
<text text-anchor="middle" x="1586.12" y="-688.88" font-family="Helvetica,sans-Serif" font-size="10.00" fill="#0a0e17">Federation +</text>
<text text-anchor="middle" x="1586.12" y="-676.12" font-family="Helvetica,sans-Serif" font-size="10.00" fill="#0a0e17">Multi&#45;Region</text>
</g>
<!-- ClassG&#45;&gt;ClassH -->
<g id="edge7" class="edge">
<title>ClassG&#45;&gt;ClassH</title>
<path fill="none" stroke="#3dd68c" d="M1414.26,-628.71C1450.57,-642.16 1499.3,-660.21 1535.43,-673.59"/>
<polygon fill="#3dd68c" stroke="#3dd68c" points="1534.19,-676.87 1544.79,-677.06 1536.63,-670.3 1534.19,-676.87"/>
<text text-anchor="middle" x="1473.12" y="-663.46" font-family="Helvetica,sans-Serif" font-size="9.00" fill="#3dd68c">cumulative arc</text>
</g>
<!-- G1 -->
<g id="node22" class="node">
<title>G1</title>
<path fill="#141922" stroke="#1e2a3a" stroke-width="1.2" d="M1635.38,-628C1635.38,-628 1536.88,-628 1536.88,-628 1530.88,-628 1524.88,-622 1524.88,-616 1524.88,-616 1524.88,-604 1524.88,-604 1524.88,-598 1530.88,-592 1536.88,-592 1536.88,-592 1635.38,-592 1635.38,-592 1641.38,-592 1647.38,-598 1647.38,-604 1647.38,-604 1647.38,-616 1647.38,-616 1647.38,-622 1641.38,-628 1635.38,-628"/>
<text text-anchor="middle" x="1586.12" y="-613.25" font-family="Helvetica,sans-Serif" font-size="10.00" fill="#e0e6ed">Zenoh OTel</text>
<text text-anchor="middle" x="1586.12" y="-600.5" font-family="Helvetica,sans-Serif" font-size="10.00" fill="#e0e6ed">subscriber scaffolding</text>
</g>
<!-- ClassG&#45;&gt;G1 -->
<g id="edge21" class="edge">
<title>ClassG&#45;&gt;G1</title>
<path fill="none" stroke="#3dd68c" stroke-dasharray="5,2" d="M1414.26,-610C1443.6,-610 1481.04,-610 1513.39,-610"/>
<polygon fill="#3dd68c" stroke="#3dd68c" points="1513.08,-613.5 1523.08,-610 1513.08,-606.5 1513.08,-613.5"/>
</g>
<!-- G2 -->
<g id="node23" class="node">
<title>G2</title>
<path fill="#141922" stroke="#1e2a3a" stroke-width="1.2" d="M1631.62,-574C1631.62,-574 1540.62,-574 1540.62,-574 1534.62,-574 1528.62,-568 1528.62,-562 1528.62,-562 1528.62,-550 1528.62,-550 1528.62,-544 1534.62,-538 1540.62,-538 1540.62,-538 1631.62,-538 1631.62,-538 1637.62,-538 1643.62,-544 1643.62,-550 1643.62,-550 1643.62,-562 1643.62,-562 1643.62,-568 1637.62,-574 1631.62,-574"/>
<text text-anchor="middle" x="1586.12" y="-559.25" font-family="Helvetica,sans-Serif" font-size="10.00" fill="#e0e6ed">61 wiring guards</text>
<text text-anchor="middle" x="1586.12" y="-546.5" font-family="Helvetica,sans-Serif" font-size="10.00" fill="#e0e6ed">(Pi + .gemini parity)</text>
</g>
<!-- ClassG&#45;&gt;G2 -->
<g id="edge22" class="edge">
<title>ClassG&#45;&gt;G2</title>
<path fill="none" stroke="#3dd68c" stroke-dasharray="5,2" d="M1414.26,-597.68C1444.76,-590.24 1484.01,-580.66 1517.2,-572.57"/>
<polygon fill="#3dd68c" stroke="#3dd68c" points="1517.85,-576.01 1526.73,-570.24 1516.19,-569.21 1517.85,-576.01"/>
</g>
<!-- H1 -->
<g id="node24" class="node">
<title>H1</title>
<path fill="#3dd68c" stroke="#1e2a3a" stroke-width="1.2" d="M1815.12,-818C1815.12,-818 1735.38,-818 1735.38,-818 1729.38,-818 1723.38,-812 1723.38,-806 1723.38,-806 1723.38,-794 1723.38,-794 1723.38,-788 1729.38,-782 1735.38,-782 1735.38,-782 1815.12,-782 1815.12,-782 1821.12,-782 1827.12,-788 1827.12,-794 1827.12,-794 1827.12,-806 1827.12,-806 1827.12,-812 1821.12,-818 1815.12,-818"/>
<text text-anchor="middle" x="1775.25" y="-796.88" font-family="Helvetica,sans-Serif" font-size="10.00" fill="#0a0e17">FederatedCPIG.tla</text>
</g>
<!-- ClassH&#45;&gt;H1 -->
<g id="edge23" class="edge">
<title>ClassH&#45;&gt;H1</title>
<path fill="none" stroke="#ffd93d" stroke-dasharray="5,2" d="M1607.23,-715.48C1624,-733.66 1649.43,-758.17 1676.38,-773 1687.42,-779.08 1699.94,-783.87 1712.24,-787.62"/>
<polygon fill="#ffd93d" stroke="#ffd93d" points="1710.92,-790.88 1721.5,-790.24 1712.83,-784.15 1710.92,-790.88"/>
</g>
<!-- H2 -->
<g id="node25" class="node">
<title>H2</title>
<path fill="#3dd68c" stroke="#1e2a3a" stroke-width="1.2" d="M1835.38,-764C1835.38,-764 1715.12,-764 1715.12,-764 1709.12,-764 1703.12,-758 1703.12,-752 1703.12,-752 1703.12,-740 1703.12,-740 1703.12,-734 1709.12,-728 1715.12,-728 1715.12,-728 1835.38,-728 1835.38,-728 1841.38,-728 1847.38,-734 1847.38,-740 1847.38,-740 1847.38,-752 1847.38,-752 1847.38,-758 1841.38,-764 1835.38,-764"/>
<text text-anchor="middle" x="1775.25" y="-742.88" font-family="Helvetica,sans-Serif" font-size="10.00" fill="#0a0e17">MultiRegionCPIGVoting.tla</text>
</g>
<!-- ClassH&#45;&gt;H2 -->
<g id="edge24" class="edge">
<title>ClassH&#45;&gt;H2</title>
<path fill="none" stroke="#ffd93d" stroke-dasharray="5,2" d="M1625.72,-703.9C1641.41,-708.68 1659.74,-714.19 1676.38,-719 1682.61,-720.8 1689.08,-722.65 1695.59,-724.48"/>
<polygon fill="#ffd93d" stroke="#ffd93d" points="1694.5,-727.81 1705.07,-727.14 1696.39,-721.07 1694.5,-727.81"/>
</g>
<!-- H3 -->
<g id="node26" class="node">
<title>H3</title>
<path fill="#3dd68c" stroke="#1e2a3a" stroke-width="1.2" d="M1825.62,-710C1825.62,-710 1724.88,-710 1724.88,-710 1718.88,-710 1712.88,-704 1712.88,-698 1712.88,-698 1712.88,-686 1712.88,-686 1712.88,-680 1718.88,-674 1724.88,-674 1724.88,-674 1825.62,-674 1825.62,-674 1831.62,-674 1837.62,-680 1837.62,-686 1837.62,-686 1837.62,-698 1837.62,-698 1837.62,-704 1831.62,-710 1825.62,-710"/>
<text text-anchor="middle" x="1775.25" y="-695.25" font-family="Helvetica,sans-Serif" font-size="10.00" fill="#0a0e17">federated&#45;cpig.md</text>
<text text-anchor="middle" x="1775.25" y="-682.5" font-family="Helvetica,sans-Serif" font-size="10.00" fill="#0a0e17">SC&#45;CPIG&#45;FED&#45;001..010</text>
</g>
<!-- ClassH&#45;&gt;H3 -->
<g id="edge25" class="edge">
<title>ClassH&#45;&gt;H3</title>
<path fill="none" stroke="#ffd93d" stroke-dasharray="5,2" d="M1625.9,-692C1647.72,-692 1675.68,-692 1701.43,-692"/>
<polygon fill="#ffd93d" stroke="#ffd93d" points="1701.18,-695.5 1711.18,-692 1701.18,-688.5 1701.18,-695.5"/>
</g>
<!-- H4 -->
<g id="node27" class="node">
<title>H4</title>
<path fill="#3dd68c" stroke="#1e2a3a" stroke-width="1.2" d="M1854.12,-656C1854.12,-656 1696.38,-656 1696.38,-656 1690.38,-656 1684.38,-650 1684.38,-644 1684.38,-644 1684.38,-632 1684.38,-632 1684.38,-626 1690.38,-620 1696.38,-620 1696.38,-620 1854.12,-620 1854.12,-620 1860.12,-620 1866.12,-626 1866.12,-632 1866.12,-632 1866.12,-644 1866.12,-644 1866.12,-650 1860.12,-656 1854.12,-656"/>
<text text-anchor="middle" x="1775.25" y="-641.25" font-family="Helvetica,sans-Serif" font-size="10.00" fill="#0a0e17">federated_cpig_wiring_test.gleam</text>
<text text-anchor="middle" x="1775.25" y="-628.5" font-family="Helvetica,sans-Serif" font-size="10.00" fill="#0a0e17">(62/62 connections)</text>
</g>
<!-- ClassH&#45;&gt;H4 -->
<g id="edge26" class="edge">
<title>ClassH&#45;&gt;H4</title>
<path fill="none" stroke="#ffd93d" stroke-dasharray="5,2" d="M1625.72,-680.1C1641.41,-675.32 1659.74,-669.81 1676.38,-665 1682.61,-663.2 1689.08,-661.35 1695.59,-659.52"/>
<polygon fill="#ffd93d" stroke="#ffd93d" points="1696.39,-662.93 1705.07,-656.86 1694.5,-656.19 1696.39,-662.93"/>
</g>
<!-- H5 -->
<g id="node28" class="node">
<title>H5</title>
<path fill="#3dd68c" stroke="#1e2a3a" stroke-width="1.2" d="M1827.5,-602C1827.5,-602 1723,-602 1723,-602 1717,-602 1711,-596 1711,-590 1711,-590 1711,-578 1711,-578 1711,-572 1717,-566 1723,-566 1723,-566 1827.5,-566 1827.5,-566 1833.5,-566 1839.5,-572 1839.5,-578 1839.5,-578 1839.5,-590 1839.5,-590 1839.5,-596 1833.5,-602 1827.5,-602"/>
<text text-anchor="middle" x="1775.25" y="-587.25" font-family="Helvetica,sans-Serif" font-size="10.00" fill="#0a0e17">cpig_subscriber.gleam</text>
<text text-anchor="middle" x="1775.25" y="-574.5" font-family="Helvetica,sans-Serif" font-size="10.00" fill="#0a0e17">real Zenoh (env&#45;gated)</text>
</g>
<!-- ClassH&#45;&gt;H5 -->
<g id="edge27" class="edge">
<title>ClassH&#45;&gt;H5</title>
<path fill="none" stroke="#ffd93d" stroke-dasharray="5,2" d="M1625.8,-682.92C1636.45,-678.88 1647.29,-673.13 1655.38,-665 1673.53,-646.74 1657.26,-628.26 1676.38,-611 1683.21,-604.83 1691.33,-600.05 1699.93,-596.35"/>
<polygon fill="#ffd93d" stroke="#ffd93d" points="1701.05,-599.67 1709.19,-592.89 1698.6,-593.12 1701.05,-599.67"/>
</g>
<!-- L1 -->
<g id="node29" class="node">
<title>L1</title>
<path fill="#2c5e4a" stroke="#1e2a3a" stroke-width="1.2" d="M72.5,-631C72.5,-631 28,-631 28,-631 22,-631 16,-625 16,-619 16,-619 16,-607 16,-607 16,-601 22,-595 28,-595 28,-595 72.5,-595 72.5,-595 78.5,-595 84.5,-601 84.5,-607 84.5,-607 84.5,-619 84.5,-619 84.5,-625 78.5,-631 72.5,-631"/>
<text text-anchor="middle" x="50.25" y="-609.88" font-family="Helvetica,sans-Serif" font-size="10.00" fill="#e0e6ed">early class</text>
</g>
<!-- L2 -->
<g id="node30" class="node">
<title>L2</title>
<path fill="#3dd68c" stroke="#1e2a3a" stroke-width="1.2" d="M277.12,-631C277.12,-631 238.62,-631 238.62,-631 232.62,-631 226.62,-625 226.62,-619 226.62,-619 226.62,-607 226.62,-607 226.62,-601 232.62,-595 238.62,-595 238.62,-595 277.12,-595 277.12,-595 283.12,-595 289.12,-601 289.12,-607 289.12,-607 289.12,-619 289.12,-619 289.12,-625 283.12,-631 277.12,-631"/>
<text text-anchor="middle" x="257.88" y="-609.88" font-family="Helvetica,sans-Serif" font-size="10.00" fill="#0a0e17">mid class</text>
</g>
<!-- L1&#45;&gt;L2 -->
<!-- L3 -->
<g id="node31" class="node">
<title>L3</title>
<path fill="#00d4aa" stroke="#1e2a3a" stroke-width="1.2" d="M501.25,-631C501.25,-631 462.75,-631 462.75,-631 456.75,-631 450.75,-625 450.75,-619 450.75,-619 450.75,-607 450.75,-607 450.75,-601 456.75,-595 462.75,-595 462.75,-595 501.25,-595 501.25,-595 507.25,-595 513.25,-601 513.25,-607 513.25,-607 513.25,-619 513.25,-619 513.25,-625 507.25,-631 501.25,-631"/>
<text text-anchor="middle" x="482" y="-609.88" font-family="Helvetica,sans-Serif" font-size="10.00" fill="#0a0e17">late class</text>
</g>
<!-- L2&#45;&gt;L3 -->
<!-- L4 -->
<g id="node32" class="node">
<title>L4</title>
<path fill="#ffd93d" stroke="#1e2a3a" stroke-width="1.2" d="M730.25,-631C730.25,-631 689.5,-631 689.5,-631 683.5,-631 677.5,-625 677.5,-619 677.5,-619 677.5,-607 677.5,-607 677.5,-601 683.5,-595 689.5,-595 689.5,-595 730.25,-595 730.25,-595 736.25,-595 742.25,-601 742.25,-607 742.25,-607 742.25,-619 742.25,-619 742.25,-625 736.25,-631 730.25,-631"/>
<text text-anchor="middle" x="709.88" y="-609.88" font-family="Helvetica,sans-Serif" font-size="10.00" fill="#0a0e17">Pass 20 ★</text>
</g>
<!-- L3&#45;&gt;L4 -->
</g>
</svg>
