<?xml version="1.0" encoding="UTF-8" standalone="no"?>
<!DOCTYPE svg PUBLIC "-//W3C//DTD SVG 1.1//EN"
 "http://www.w3.org/Graphics/SVG/1.1/DTD/svg11.dtd">
<!-- Generated by graphviz version 12.2.1 (0)
 -->
<!-- Title: C3I_Ontology Pages: 1 -->
<svg width="1501pt" height="954pt"
 viewBox="0.00 0.00 1501.00 954.15" xmlns="http://www.w3.org/2000/svg" xmlns:xlink="http://www.w3.org/1999/xlink">
<g id="graph0" class="graph" transform="scale(1 1) rotate(0) translate(36 918.15)">
<title>C3I_Ontology</title>
<polygon fill="#0a0e17" stroke="none" points="-36,36 -36,-918.15 1465,-918.15 1465,36 -36,36"/>
<text text-anchor="start" x="448.25" y="-858.25" font-family="Helvetica,sans-Serif" font-weight="bold" font-size="22.00" fill="#e0e6ed">C3I Cross&#45;Pass Ontology v1.0 (Passes 1&#45;20)</text>
<text text-anchor="start" x="537.88" y="-846.7" font-family="Helvetica,sans-Serif" font-size="11.00" fill="#7a8fa6">12 entity types · 15 relations · 7 invariants · meta&#45;pattern INV&#45;7</text>
<g id="clust1" class="cluster">
<title>cluster_core</title>
<path fill="#0a0e17" stroke="#3b4a63" stroke-dasharray="5,2" d="M245,-737.75C245,-737.75 518,-737.75 518,-737.75 524,-737.75 530,-743.75 530,-749.75 530,-749.75 530,-821.15 530,-821.15 530,-827.15 524,-833.15 518,-833.15 518,-833.15 245,-833.15 245,-833.15 239,-833.15 233,-827.15 233,-821.15 233,-821.15 233,-749.75 233,-749.75 233,-743.75 239,-737.75 245,-737.75"/>
<text text-anchor="start" x="311.75" y="-817.8" font-family="Helvetica,sans-Serif" font-weight="bold" font-size="13.00" fill="#e0e6ed">Core temporal axis</text>
</g>
<g id="clust2" class="cluster">
<title>cluster_subjects</title>
<path fill="#0a0e17" stroke="#3b4a63" stroke-dasharray="5,2" d="M351,-95C351,-95 891,-95 891,-95 897,-95 903,-101 903,-107 903,-107 903,-178.4 903,-178.4 903,-184.4 897,-190.4 891,-190.4 891,-190.4 351,-190.4 351,-190.4 345,-190.4 339,-184.4 339,-178.4 339,-178.4 339,-107 339,-107 339,-101 345,-95 351,-95"/>
<text text-anchor="start" x="590.25" y="-175.05" font-family="Helvetica,sans-Serif" font-weight="bold" font-size="13.00" fill="#e0e6ed">Subjects</text>
</g>
<g id="clust3" class="cluster">
<title>cluster_risk</title>
<path fill="#0a0e17" stroke="#3b4a63" stroke-dasharray="5,2" d="M633,-226.65C633,-226.65 1095,-226.65 1095,-226.65 1101,-226.65 1107,-232.65 1107,-238.65 1107,-238.65 1107,-310.05 1107,-310.05 1107,-316.05 1101,-322.05 1095,-322.05 1095,-322.05 633,-322.05 633,-322.05 627,-322.05 621,-316.05 621,-310.05 621,-310.05 621,-238.65 621,-238.65 621,-232.65 627,-226.65 633,-226.65"/>
<text text-anchor="start" x="812.62" y="-306.7" font-family="Helvetica,sans-Serif" font-weight="bold" font-size="13.00" fill="#e0e6ed">Risk &amp; control</text>
</g>
<g id="clust4" class="cluster">
<title>cluster_verif</title>
<path fill="#0a0e17" stroke="#3b4a63" stroke-dasharray="5,2" d="M633,-358.3C633,-358.3 983,-358.3 983,-358.3 989,-358.3 995,-364.3 995,-370.3 995,-370.3 995,-441.7 995,-441.7 995,-447.7 989,-453.7 983,-453.7 983,-453.7 633,-453.7 633,-453.7 627,-453.7 621,-447.7 621,-441.7 621,-441.7 621,-370.3 621,-370.3 621,-364.3 627,-358.3 633,-358.3"/>
<text text-anchor="start" x="766" y="-438.35" font-family="Helvetica,sans-Serif" font-weight="bold" font-size="13.00" fill="#e0e6ed">Verification</text>
</g>
<g id="clust5" class="cluster">
<title>cluster_artifacts</title>
<path fill="#0a0e17" stroke="#3b4a63" stroke-dasharray="5,2" d="M411,-358.3C411,-358.3 557,-358.3 557,-358.3 563,-358.3 569,-364.3 569,-370.3 569,-370.3 569,-689.5 569,-689.5 569,-695.5 563,-701.5 557,-701.5 557,-701.5 411,-701.5 411,-701.5 405,-701.5 399,-695.5 399,-689.5 399,-689.5 399,-370.3 399,-370.3 399,-364.3 405,-358.3 411,-358.3"/>
<text text-anchor="start" x="452.5" y="-686.15" font-family="Helvetica,sans-Serif" font-weight="bold" font-size="13.00" fill="#e0e6ed">Artifacts</text>
</g>
<g id="clust6" class="cluster">
<title>cluster_legend</title>
<path fill="#141922" stroke="#3b4a63" d="M1127,-8C1127,-8 1409,-8 1409,-8 1415,-8 1421,-14 1421,-20 1421,-20 1421,-809.45 1421,-809.45 1421,-815.45 1415,-821.45 1409,-821.45 1409,-821.45 1127,-821.45 1127,-821.45 1121,-821.45 1115,-815.45 1115,-809.45 1115,-809.45 1115,-20 1115,-20 1115,-14 1121,-8 1127,-8"/>
<text text-anchor="start" x="1243.62" y="-807.05" font-family="Helvetica,sans-Serif" font-weight="bold" font-size="12.00" fill="#e0e6ed">Legend</text>
</g>
<!-- Pass -->
<g id="node1" class="node">
<title>Pass</title>
<path fill="#4d96ff" stroke="black" stroke-width="1.5" d="M377.08,-800.65C377.08,-800.65 252.92,-800.65 252.92,-800.65 246.92,-800.65 240.92,-794.65 240.92,-788.65 240.92,-788.65 240.92,-757.75 240.92,-757.75 240.92,-751.75 246.92,-745.75 252.92,-745.75 252.92,-745.75 377.08,-745.75 377.08,-745.75 383.08,-745.75 389.08,-751.75 389.08,-757.75 389.08,-757.75 389.08,-788.65 389.08,-788.65 389.08,-794.65 383.08,-800.65 377.08,-800.65"/>
<text text-anchor="middle" x="315" y="-783" font-family="Helvetica,sans-Serif" font-size="11.00" fill="#0a0e17">Pass</text>
<text text-anchor="middle" x="315" y="-769.5" font-family="Helvetica,sans-Serif" font-size="11.00" fill="#0a0e17">{number, class, date,</text>
<text text-anchor="middle" x="315" y="-756" font-family="Helvetica,sans-Serif" font-size="11.00" fill="#0a0e17">scope, deliverables[]}</text>
</g>
<!-- Pass&#45;&gt;Pass -->
<g id="edge10" class="edge">
<title>Pass&#45;&gt;Pass</title>
<path fill="none" stroke="#4d96ff" stroke-width="1.2" stroke-dasharray="5,2" d="M389.36,-783.92C407.55,-783.12 421.08,-779.55 421.08,-773.2 421.08,-767.89 411.63,-764.52 397.9,-763.1"/>
<polygon fill="#4d96ff" stroke="#4d96ff" stroke-width="1.2" points="398.33,-760.67 391.17,-762.61 397.98,-765.56 398.33,-760.67"/>
<text text-anchor="middle" x="478.46" y="-770.28" font-family="Helvetica,sans-Serif" font-size="9.00" fill="#9bb0c7">R15 RECOMMENDS_NEXT</text>
</g>
<!-- SaPlanTask -->
<g id="node3" class="node">
<title>SaPlanTask</title>
<path fill="#6bcb77" stroke="black" stroke-width="1.5" d="M448.83,-157.9C448.83,-157.9 359.17,-157.9 359.17,-157.9 353.17,-157.9 347.17,-151.9 347.17,-145.9 347.17,-145.9 347.17,-115 347.17,-115 347.17,-109 353.17,-103 359.17,-103 359.17,-103 448.83,-103 448.83,-103 454.83,-103 460.83,-109 460.83,-115 460.83,-115 460.83,-145.9 460.83,-145.9 460.83,-151.9 454.83,-157.9 448.83,-157.9"/>
<text text-anchor="middle" x="404" y="-140.25" font-family="Helvetica,sans-Serif" font-size="11.00" fill="#0a0e17">SaPlanTask</text>
<text text-anchor="middle" x="404" y="-126.75" font-family="Helvetica,sans-Serif" font-size="11.00" fill="#0a0e17">{id, urn, status,</text>
<text text-anchor="middle" x="404" y="-113.25" font-family="Helvetica,sans-Serif" font-size="11.00" fill="#0a0e17">priority}</text>
</g>
<!-- Pass&#45;&gt;SaPlanTask -->
<g id="edge6" class="edge">
<title>Pass&#45;&gt;SaPlanTask</title>
<path fill="none" stroke="#6bcb77" stroke-width="1.2" d="M240.6,-770.42C187.39,-766.11 115.96,-753.87 62,-720.75 24.2,-697.55 0,-686.9 0,-642.55 0,-642.55 0,-642.55 0,-261.1 0,-221.91 27.46,-216.92 62,-198.4 149.87,-151.28 266.34,-137.09 338.17,-132.95"/>
<polygon fill="#6bcb77" stroke="#6bcb77" stroke-width="1.2" points="338.03,-135.41 344.89,-132.59 337.77,-130.52 338.03,-135.41"/>
<text text-anchor="middle" x="25.12" y="-464.4" font-family="Helvetica,sans-Serif" font-size="9.00" fill="#9bb0c7">R2 CLOSES</text>
</g>
<!-- ZKHolon -->
<g id="node4" class="node">
<title>ZKHolon</title>
<path fill="#00d4aa" stroke="black" stroke-width="1.5" d="M607.59,-157.9C607.59,-157.9 504.42,-157.9 504.42,-157.9 498.42,-157.9 492.42,-151.9 492.42,-145.9 492.42,-145.9 492.42,-115 492.42,-115 492.42,-109 498.42,-103 504.42,-103 504.42,-103 607.59,-103 607.59,-103 613.59,-103 619.59,-109 619.59,-115 619.59,-115 619.59,-145.9 619.59,-145.9 619.59,-151.9 613.59,-157.9 607.59,-157.9"/>
<text text-anchor="middle" x="556" y="-140.25" font-family="Helvetica,sans-Serif" font-size="11.00" fill="#0a0e17">ZKHolon</text>
<text text-anchor="middle" x="556" y="-126.75" font-family="Helvetica,sans-Serif" font-size="11.00" fill="#0a0e17">{id, level, tags[],</text>
<text text-anchor="middle" x="556" y="-113.25" font-family="Helvetica,sans-Serif" font-size="11.00" fill="#0a0e17">cited_in_passes[]}</text>
</g>
<!-- Pass&#45;&gt;ZKHolon -->
<g id="edge9" class="edge">
<title>Pass&#45;&gt;ZKHolon</title>
<path fill="none" stroke="#00d4aa" stroke-width="1.2" d="M240.66,-761.45C174.12,-747.12 87,-714.61 87,-642.55 87,-642.55 87,-642.55 87,-261.1 87,-173.02 396.23,-225.53 477,-190.4 492.23,-183.78 507.26,-173.71 520.06,-163.75"/>
<polygon fill="#00d4aa" stroke="#00d4aa" stroke-width="1.2" points="521.57,-165.68 525.51,-159.39 518.51,-161.85 521.57,-165.68"/>
<text text-anchor="middle" x="114.38" y="-464.4" font-family="Helvetica,sans-Serif" font-size="9.00" fill="#9bb0c7">R5 INGESTS</text>
</g>
<!-- FailureMode -->
<g id="node5" class="node">
<title>FailureMode</title>
<path fill="#ff6b6b" stroke="black" stroke-width="1.5" d="M754.84,-289.55C754.84,-289.55 641.16,-289.55 641.16,-289.55 635.16,-289.55 629.16,-283.55 629.16,-277.55 629.16,-277.55 629.16,-246.65 629.16,-246.65 629.16,-240.65 635.16,-234.65 641.16,-234.65 641.16,-234.65 754.84,-234.65 754.84,-234.65 760.84,-234.65 766.84,-240.65 766.84,-246.65 766.84,-246.65 766.84,-277.55 766.84,-277.55 766.84,-283.55 760.84,-289.55 754.84,-289.55"/>
<text text-anchor="middle" x="698" y="-271.9" font-family="Helvetica,sans-Serif" font-size="11.00" fill="#0a0e17">FailureMode</text>
<text text-anchor="middle" x="698" y="-258.4" font-family="Helvetica,sans-Serif" font-size="11.00" fill="#0a0e17">{id, S, O, D,</text>
<text text-anchor="middle" x="698" y="-244.9" font-family="Helvetica,sans-Serif" font-size="11.00" fill="#0a0e17">RPN_pre, RPN_post}</text>
</g>
<!-- Pass&#45;&gt;FailureMode -->
<g id="edge7" class="edge">
<title>Pass&#45;&gt;FailureMode</title>
<path fill="none" stroke="#ff6b6b" stroke-width="1.2" d="M250.95,-745.35C211.34,-724.01 168,-689.85 168,-642.55 168,-642.55 168,-642.55 168,-392.75 168,-300.8 472.79,-273.75 620.1,-266.05"/>
<polygon fill="#ff6b6b" stroke="#ff6b6b" stroke-width="1.2" points="620.03,-268.5 626.9,-265.7 619.78,-263.61 620.03,-268.5"/>
<text text-anchor="middle" x="199.5" y="-522.48" font-family="Helvetica,sans-Serif" font-size="9.00" fill="#9bb0c7">R3 MITIGATES</text>
</g>
<!-- Constraint -->
<g id="node6" class="node">
<title>Constraint</title>
<path fill="#ffd93d" stroke="black" stroke-width="1.5" d="M914.96,-289.55C914.96,-289.55 811.04,-289.55 811.04,-289.55 805.04,-289.55 799.04,-283.55 799.04,-277.55 799.04,-277.55 799.04,-246.65 799.04,-246.65 799.04,-240.65 805.04,-234.65 811.04,-234.65 811.04,-234.65 914.96,-234.65 914.96,-234.65 920.96,-234.65 926.96,-240.65 926.96,-246.65 926.96,-246.65 926.96,-277.55 926.96,-277.55 926.96,-283.55 920.96,-289.55 914.96,-289.55"/>
<text text-anchor="middle" x="863" y="-271.9" font-family="Helvetica,sans-Serif" font-size="11.00" fill="#0a0e17">Constraint</text>
<text text-anchor="middle" x="863" y="-258.4" font-family="Helvetica,sans-Serif" font-size="11.00" fill="#0a0e17">{id (SC&#45;/AOR&#45;),</text>
<text text-anchor="middle" x="863" y="-244.9" font-family="Helvetica,sans-Serif" font-size="11.00" fill="#0a0e17">severity, rule_file}</text>
</g>
<!-- Pass&#45;&gt;Constraint -->
<g id="edge8" class="edge">
<title>Pass&#45;&gt;Constraint</title>
<path fill="none" stroke="#ffd93d" stroke-width="1.2" d="M389.44,-766.57C573.66,-751.66 1036,-707.73 1036,-642.55 1036,-642.55 1036,-642.55 1036,-392.75 1036,-371.55 1019.55,-371.55 1003,-358.3 978.68,-338.83 968.9,-339.36 943,-322.05 930.41,-313.63 917.05,-304.06 904.93,-295.11"/>
<polygon fill="#ffd93d" stroke="#ffd93d" stroke-width="1.2" points="906.49,-293.22 899.4,-291.01 903.56,-297.15 906.49,-293.22"/>
<text text-anchor="middle" x="1067.88" y="-522.48" font-family="Helvetica,sans-Serif" font-size="9.00" fill="#9bb0c7">R4 ENFORCES</text>
</g>
<!-- FormalSpec -->
<g id="node8" class="node">
<title>FormalSpec</title>
<path fill="#9b59b6" stroke="black" stroke-width="1.5" d="M974.96,-421.2C974.96,-421.2 835.04,-421.2 835.04,-421.2 829.04,-421.2 823.04,-415.2 823.04,-409.2 823.04,-409.2 823.04,-378.3 823.04,-378.3 823.04,-372.3 829.04,-366.3 835.04,-366.3 835.04,-366.3 974.96,-366.3 974.96,-366.3 980.96,-366.3 986.96,-372.3 986.96,-378.3 986.96,-378.3 986.96,-409.2 986.96,-409.2 986.96,-415.2 980.96,-421.2 974.96,-421.2"/>
<text text-anchor="middle" x="905" y="-403.55" font-family="Helvetica,sans-Serif" font-size="11.00" fill="#e0e6ed">FormalSpec</text>
<text text-anchor="middle" x="905" y="-390.05" font-family="Helvetica,sans-Serif" font-size="11.00" fill="#e0e6ed">{type TLA+/Agda/Allium,</text>
<text text-anchor="middle" x="905" y="-376.55" font-family="Helvetica,sans-Serif" font-size="11.00" fill="#e0e6ed">invariants[], TLC_status}</text>
</g>
<!-- Pass&#45;&gt;FormalSpec -->
<g id="edge1" class="edge">
<title>Pass&#45;&gt;FormalSpec</title>
<path fill="none" stroke="#3b4a63" stroke-width="1.2" d="M389.47,-772.52C480.02,-770.21 635.52,-757.41 755,-701.5 826.33,-668.12 855.96,-659.13 892,-589.1 917.95,-538.68 915.48,-470.92 910.69,-430.17"/>
<polygon fill="#3b4a63" stroke="#3b4a63" stroke-width="1.2" points="913.15,-430.09 909.84,-423.46 908.29,-430.71 913.15,-430.09"/>
<text text-anchor="middle" x="927.07" y="-580.55" font-family="Helvetica,sans-Serif" font-size="9.00" fill="#9bb0c7">R1 DELIVERS</text>
</g>
<!-- WiringGuard -->
<g id="node9" class="node">
<title>WiringGuard</title>
<path fill="#b886d3" stroke="black" stroke-width="1.5" d="M778.84,-421.2C778.84,-421.2 641.16,-421.2 641.16,-421.2 635.16,-421.2 629.16,-415.2 629.16,-409.2 629.16,-409.2 629.16,-378.3 629.16,-378.3 629.16,-372.3 635.16,-366.3 641.16,-366.3 641.16,-366.3 778.84,-366.3 778.84,-366.3 784.84,-366.3 790.84,-372.3 790.84,-378.3 790.84,-378.3 790.84,-409.2 790.84,-409.2 790.84,-415.2 784.84,-421.2 778.84,-421.2"/>
<text text-anchor="middle" x="710" y="-403.55" font-family="Helvetica,sans-Serif" font-size="11.00" fill="#0a0e17">WiringGuard</text>
<text text-anchor="middle" x="710" y="-390.05" font-family="Helvetica,sans-Serif" font-size="11.00" fill="#0a0e17">{file, test_count,</text>
<text text-anchor="middle" x="710" y="-376.55" font-family="Helvetica,sans-Serif" font-size="11.00" fill="#0a0e17">framework, STAMP_refs}</text>
</g>
<!-- Pass&#45;&gt;WiringGuard -->
<g id="edge2" class="edge">
<title>Pass&#45;&gt;WiringGuard</title>
<path fill="none" stroke="#3b4a63" stroke-width="1.2" d="M389.41,-767.83C511.27,-756.08 749.19,-712.73 843,-552.85 864.45,-516.3 846.29,-490.29 815,-461.7 800.68,-448.61 783.49,-436.47 767.21,-426.22"/>
<polygon fill="#3b4a63" stroke="#3b4a63" stroke-width="1.2" points="768.59,-424.2 761.35,-422.6 766.02,-428.37 768.59,-424.2"/>
<text text-anchor="middle" x="853.53" y="-580.55" font-family="Helvetica,sans-Serif" font-size="9.00" fill="#9bb0c7">R1 DELIVERS</text>
</g>
<!-- Diagram -->
<g id="node10" class="node">
<title>Diagram</title>
<path fill="#f39c12" stroke="black" stroke-width="1.5" d="M518.71,-421.2C518.71,-421.2 419.29,-421.2 419.29,-421.2 413.29,-421.2 407.29,-415.2 407.29,-409.2 407.29,-409.2 407.29,-378.3 407.29,-378.3 407.29,-372.3 413.29,-366.3 419.29,-366.3 419.29,-366.3 518.71,-366.3 518.71,-366.3 524.71,-366.3 530.71,-372.3 530.71,-378.3 530.71,-378.3 530.71,-409.2 530.71,-409.2 530.71,-415.2 524.71,-421.2 518.71,-421.2"/>
<text text-anchor="middle" x="469" y="-403.55" font-family="Helvetica,sans-Serif" font-size="11.00" fill="#0a0e17">Diagram</text>
<text text-anchor="middle" x="469" y="-390.05" font-family="Helvetica,sans-Serif" font-size="11.00" fill="#0a0e17">{id g1..g35, type,</text>
<text text-anchor="middle" x="469" y="-376.55" font-family="Helvetica,sans-Serif" font-size="11.00" fill="#0a0e17">file_paths[]}</text>
</g>
<!-- Pass&#45;&gt;Diagram -->
<g id="edge3" class="edge">
<title>Pass&#45;&gt;Diagram</title>
<path fill="none" stroke="#3b4a63" stroke-width="1.2" d="M302.12,-745.34C285.56,-706.82 261.54,-634.28 285,-577.85 312.09,-512.67 374.9,-458.71 419.59,-426.64"/>
<polygon fill="#3b4a63" stroke="#3b4a63" stroke-width="1.2" points="420.82,-428.77 425.12,-422.73 417.99,-424.77 420.82,-428.77"/>
<text text-anchor="middle" x="315" y="-580.55" font-family="Helvetica,sans-Serif" font-size="9.00" fill="#9bb0c7">R1 DELIVERS</text>
</g>
<!-- JournalEntry -->
<g id="node11" class="node">
<title>JournalEntry</title>
<path fill="#e67e22" stroke="black" stroke-width="1.5" d="M547.96,-552.85C547.96,-552.85 420.04,-552.85 420.04,-552.85 414.04,-552.85 408.04,-546.85 408.04,-540.85 408.04,-540.85 408.04,-509.95 408.04,-509.95 408.04,-503.95 414.04,-497.95 420.04,-497.95 420.04,-497.95 547.96,-497.95 547.96,-497.95 553.96,-497.95 559.96,-503.95 559.96,-509.95 559.96,-509.95 559.96,-540.85 559.96,-540.85 559.96,-546.85 553.96,-552.85 547.96,-552.85"/>
<text text-anchor="middle" x="484" y="-535.2" font-family="Helvetica,sans-Serif" font-size="11.00" fill="#e0e6ed">JournalEntry</text>
<text text-anchor="middle" x="484" y="-521.7" font-family="Helvetica,sans-Serif" font-size="11.00" fill="#e0e6ed">{pass, sections,</text>
<text text-anchor="middle" x="484" y="-508.2" font-family="Helvetica,sans-Serif" font-size="11.00" fill="#e0e6ed">inline_mermaid_count}</text>
</g>
<!-- Pass&#45;&gt;JournalEntry -->
<g id="edge4" class="edge">
<title>Pass&#45;&gt;JournalEntry</title>
<path fill="none" stroke="#3b4a63" stroke-width="1.2" d="M310.73,-745.45C306.84,-711.93 305.1,-654.02 331,-614.1 347.38,-588.85 373.74,-570.07 400,-556.5"/>
<polygon fill="#3b4a63" stroke="#3b4a63" stroke-width="1.2" points="400.96,-558.75 406.14,-553.44 398.78,-554.37 400.96,-558.75"/>
<text text-anchor="middle" x="361" y="-638.63" font-family="Helvetica,sans-Serif" font-size="9.00" fill="#9bb0c7">R1 DELIVERS</text>
</g>
<!-- EmailClosure -->
<g id="node12" class="node">
<title>EmailClosure</title>
<path fill="#e74c3c" stroke="black" stroke-width="1.5" d="M548.71,-669C548.71,-669 419.29,-669 419.29,-669 413.29,-669 407.29,-663 407.29,-657 407.29,-657 407.29,-626.1 407.29,-626.1 407.29,-620.1 413.29,-614.1 419.29,-614.1 419.29,-614.1 548.71,-614.1 548.71,-614.1 554.71,-614.1 560.71,-620.1 560.71,-626.1 560.71,-626.1 560.71,-657 560.71,-657 560.71,-663 554.71,-669 548.71,-669"/>
<text text-anchor="middle" x="484" y="-651.35" font-family="Helvetica,sans-Serif" font-size="11.00" fill="#e0e6ed">EmailClosure</text>
<text text-anchor="middle" x="484" y="-637.85" font-family="Helvetica,sans-Serif" font-size="11.00" fill="#e0e6ed">{recipient, subject,</text>
<text text-anchor="middle" x="484" y="-624.35" font-family="Helvetica,sans-Serif" font-size="11.00" fill="#e0e6ed">attachments[], status}</text>
</g>
<!-- Pass&#45;&gt;EmailClosure -->
<g id="edge5" class="edge">
<title>Pass&#45;&gt;EmailClosure</title>
<path fill="none" stroke="#3b4a63" stroke-width="1.2" d="M350.02,-745.34C376.87,-724.74 414.01,-696.24 442.38,-674.48"/>
<polygon fill="#3b4a63" stroke="#3b4a63" stroke-width="1.2" points="443.52,-676.69 447.59,-670.48 440.54,-672.8 443.52,-676.69"/>
<text text-anchor="middle" x="424.43" y="-712.2" font-family="Helvetica,sans-Serif" font-size="9.00" fill="#9bb0c7">R1 DELIVERS</text>
</g>
<!-- Subsystem -->
<g id="node2" class="node">
<title>Subsystem</title>
<path fill="#3dd68c" stroke="black" stroke-width="1.5" d="M782.46,-157.9C782.46,-157.9 663.54,-157.9 663.54,-157.9 657.54,-157.9 651.54,-151.9 651.54,-145.9 651.54,-145.9 651.54,-115 651.54,-115 651.54,-109 657.54,-103 663.54,-103 663.54,-103 782.46,-103 782.46,-103 788.46,-103 794.46,-109 794.46,-115 794.46,-115 794.46,-145.9 794.46,-145.9 794.46,-151.9 788.46,-157.9 782.46,-157.9"/>
<text text-anchor="middle" x="723" y="-140.25" font-family="Helvetica,sans-Serif" font-size="11.00" fill="#0a0e17">Subsystem</text>
<text text-anchor="middle" x="723" y="-126.75" font-family="Helvetica,sans-Serif" font-size="11.00" fill="#0a0e17">{id, name, criticality,</text>
<text text-anchor="middle" x="723" y="-113.25" font-family="Helvetica,sans-Serif" font-size="11.00" fill="#0a0e17">owner, cpig_score}</text>
</g>
<!-- Subsystem&#45;&gt;Subsystem -->
<g id="edge12" class="edge">
<title>Subsystem&#45;&gt;Subsystem</title>
<path fill="none" stroke="#3dd68c" stroke-width="1.2" stroke-dasharray="5,2" d="M794.56,-140.26C812.78,-139.61 826.46,-136.34 826.46,-130.45 826.46,-125.52 816.9,-122.43 803.12,-121.17"/>
<polygon fill="#3dd68c" stroke="#3dd68c" stroke-width="1.2" points="803.51,-118.74 796.38,-120.75 803.21,-123.63 803.51,-118.74"/>
<text text-anchor="middle" x="867.71" y="-127.52" font-family="Helvetica,sans-Serif" font-size="9.00" fill="#9bb0c7">R11 DEPENDS_ON</text>
</g>
<!-- CPIGGate -->
<g id="node7" class="node">
<title>CPIGGate</title>
<path fill="#f5a623" stroke="black" stroke-width="1.5" d="M1087.34,-289.55C1087.34,-289.55 970.66,-289.55 970.66,-289.55 964.66,-289.55 958.66,-283.55 958.66,-277.55 958.66,-277.55 958.66,-246.65 958.66,-246.65 958.66,-240.65 964.66,-234.65 970.66,-234.65 970.66,-234.65 1087.34,-234.65 1087.34,-234.65 1093.34,-234.65 1099.34,-240.65 1099.34,-246.65 1099.34,-246.65 1099.34,-277.55 1099.34,-277.55 1099.34,-283.55 1093.34,-289.55 1087.34,-289.55"/>
<text text-anchor="middle" x="1029" y="-271.9" font-family="Helvetica,sans-Serif" font-size="11.00" fill="#0a0e17">CPIGGate</text>
<text text-anchor="middle" x="1029" y="-258.4" font-family="Helvetica,sans-Serif" font-size="11.00" fill="#0a0e17">{subsystem, gate,</text>
<text text-anchor="middle" x="1029" y="-244.9" font-family="Helvetica,sans-Serif" font-size="11.00" fill="#0a0e17">score 0|1, evidence}</text>
</g>
<!-- Subsystem&#45;&gt;CPIGGate -->
<g id="edge11" class="edge">
<title>Subsystem&#45;&gt;CPIGGate</title>
<path fill="none" stroke="#f5a623" stroke-width="1.2" d="M790.64,-158.31C820.57,-170.35 856.14,-184.85 888,-198.4 912.26,-208.71 938.69,-220.36 962.05,-230.79"/>
<polygon fill="#f5a623" stroke="#f5a623" stroke-width="1.2" points="960.8,-232.91 968.19,-233.53 962.8,-228.44 960.8,-232.91"/>
<text text-anchor="middle" x="952.83" y="-201.1" font-family="Helvetica,sans-Serif" font-size="9.00" fill="#9bb0c7">R6 HAS_GATE (5x)</text>
</g>
<!-- FailureMode&#45;&gt;Subsystem -->
<g id="edge13" class="edge">
<title>FailureMode&#45;&gt;Subsystem</title>
<path fill="none" stroke="#ff6b6b" stroke-width="1.2" d="M703.18,-234.24C706.95,-214.68 712.09,-188.01 716.2,-166.73"/>
<polygon fill="#ff6b6b" stroke="#ff6b6b" stroke-width="1.2" points="718.56,-167.4 717.48,-160.06 713.75,-166.47 718.56,-167.4"/>
<text text-anchor="middle" x="746.13" y="-201.1" font-family="Helvetica,sans-Serif" font-size="9.00" fill="#9bb0c7">R12 OCCURS_IN</text>
</g>
<!-- Constraint&#45;&gt;Subsystem -->
<g id="edge14" class="edge">
<title>Constraint&#45;&gt;Subsystem</title>
<path fill="none" stroke="#ffd93d" stroke-width="1.2" d="M833.99,-234.24C812.03,-213.9 781.75,-185.86 758.37,-164.21"/>
<polygon fill="#ffd93d" stroke="#ffd93d" stroke-width="1.2" points="760.1,-162.47 753.3,-159.51 756.77,-166.07 760.1,-162.47"/>
<text text-anchor="middle" x="842.66" y="-201.1" font-family="Helvetica,sans-Serif" font-size="9.00" fill="#9bb0c7">R13 APPLIES_TO</text>
</g>
<!-- FormalSpec&#45;&gt;Constraint -->
<g id="edge15" class="edge">
<title>FormalSpec&#45;&gt;Constraint</title>
<path fill="none" stroke="#9b59b6" stroke-width="1.2" d="M896.3,-365.89C889.93,-346.24 881.24,-319.42 874.34,-298.1"/>
<polygon fill="#9b59b6" stroke="#9b59b6" stroke-width="1.2" points="876.74,-297.56 872.25,-291.66 872.08,-299.07 876.74,-297.56"/>
<text text-anchor="middle" x="913.26" y="-332.75" font-family="Helvetica,sans-Serif" font-size="9.00" fill="#9bb0c7">R7 PROVES</text>
</g>
<!-- WiringGuard&#45;&gt;Constraint -->
<g id="edge16" class="edge">
<title>WiringGuard&#45;&gt;Constraint</title>
<path fill="none" stroke="#b886d3" stroke-width="1.2" d="M729.75,-366.09C739.66,-353.99 752.43,-340.17 766,-330.05 772.69,-325.06 775.83,-326.32 783,-322.05 796.5,-314 810.53,-304.21 823,-294.94"/>
<polygon fill="#b886d3" stroke="#b886d3" stroke-width="1.2" points="824.18,-297.12 828.3,-290.95 821.23,-293.21 824.18,-297.12"/>
<text text-anchor="middle" x="821.5" y="-332.75" font-family="Helvetica,sans-Serif" font-size="9.00" fill="#9bb0c7">R8 ENFORCES_AT_BUILD</text>
</g>
<!-- JournalEntry&#45;&gt;ZKHolon -->
<g id="edge17" class="edge">
<title>JournalEntry&#45;&gt;ZKHolon</title>
<path fill="none" stroke="#00d4aa" stroke-width="1.2" d="M518.35,-497.64C530.46,-485.77 542.25,-470.64 547,-453.7 575.33,-352.73 567.01,-226.92 560.51,-166.73"/>
<polygon fill="#00d4aa" stroke="#00d4aa" stroke-width="1.2" points="562.95,-166.48 559.73,-159.8 558.08,-167.03 562.95,-166.48"/>
<text text-anchor="middle" x="586.12" y="-332.75" font-family="Helvetica,sans-Serif" font-size="9.00" fill="#9bb0c7">R9 CITES</text>
</g>
<!-- JournalEntry&#45;&gt;FormalSpec -->
<g id="edge18" class="edge">
<title>JournalEntry&#45;&gt;FormalSpec</title>
<path fill="none" stroke="#9b59b6" stroke-width="1.2" stroke-dasharray="1,5" d="M560.33,-504.55C630.45,-486.32 723.87,-462.08 726,-461.7 761.62,-455.37 772.66,-465.08 807,-453.7 826.12,-447.36 845.48,-436.79 861.88,-426.33"/>
<polygon fill="#9b59b6" stroke="#9b59b6" stroke-width="1.2" points="863.16,-428.43 867.68,-422.55 860.48,-424.32 863.16,-428.43"/>
<text text-anchor="middle" x="766.5" y="-464.4" font-family="Helvetica,sans-Serif" font-size="9.00" fill="#9bb0c7">R10 REFERENCES</text>
</g>
<!-- JournalEntry&#45;&gt;WiringGuard -->
<g id="edge19" class="edge">
<title>JournalEntry&#45;&gt;WiringGuard</title>
<path fill="none" stroke="#b886d3" stroke-width="1.2" stroke-dasharray="1,5" d="M531.75,-497.52C545.71,-489.64 560.98,-480.97 575,-472.95 601.84,-457.59 631.6,-440.37 656.33,-426.01"/>
<polygon fill="#b886d3" stroke="#b886d3" stroke-width="1.2" points="657.44,-428.2 662.26,-422.56 654.98,-423.96 657.44,-428.2"/>
<text text-anchor="middle" x="633.9" y="-464.4" font-family="Helvetica,sans-Serif" font-size="9.00" fill="#9bb0c7">R10 REFERENCES</text>
</g>
<!-- JournalEntry&#45;&gt;Diagram -->
<g id="edge20" class="edge">
<title>JournalEntry&#45;&gt;Diagram</title>
<path fill="none" stroke="#f39c12" stroke-width="1.2" stroke-dasharray="1,5" d="M462.72,-497.52C457.92,-489.98 453.51,-481.5 451,-472.95 446.88,-458.89 449.18,-443.18 453.33,-429.56"/>
<polygon fill="#f39c12" stroke="#f39c12" stroke-width="1.2" points="455.59,-430.51 455.52,-423.09 450.95,-428.94 455.59,-430.51"/>
<text text-anchor="middle" x="491.5" y="-464.4" font-family="Helvetica,sans-Serif" font-size="9.00" fill="#9bb0c7">R10 REFERENCES</text>
</g>
<!-- EmailClosure&#45;&gt;FormalSpec -->
<g id="edge22" class="edge">
<title>EmailClosure&#45;&gt;FormalSpec</title>
<path fill="none" stroke="#e74c3c" stroke-width="1.2" stroke-dasharray="1,5" d="M546.21,-613.65C613.72,-583.34 723.57,-530.7 811,-472.95 831.48,-459.42 852.64,-442.15 869.69,-427.29"/>
<polygon fill="#e74c3c" stroke="#e74c3c" stroke-width="1.2" points="871.25,-429.18 874.89,-422.71 868.01,-425.5 871.25,-429.18"/>
<text text-anchor="middle" x="802.11" y="-522.48" font-family="Helvetica,sans-Serif" font-size="9.00" fill="#9bb0c7">R14 ATTACHES</text>
</g>
<!-- EmailClosure&#45;&gt;JournalEntry -->
<g id="edge21" class="edge">
<title>EmailClosure&#45;&gt;JournalEntry</title>
<path fill="none" stroke="#e74c3c" stroke-width="1.2" d="M484,-613.79C484,-598.19 484,-578.33 484,-561.49"/>
<polygon fill="#e74c3c" stroke="#e74c3c" stroke-width="1.2" points="486.45,-561.81 484,-554.81 481.55,-561.81 486.45,-561.81"/>
<text text-anchor="middle" x="517.38" y="-580.55" font-family="Helvetica,sans-Serif" font-size="9.00" fill="#9bb0c7">R14 ATTACHES</text>
</g>
<!-- L_pass -->
<g id="node13" class="node">
<title>L_pass</title>
<path fill="#4d96ff" stroke="black" stroke-width="1.5" d="M1312.46,-791.2C1312.46,-791.2 1223.54,-791.2 1223.54,-791.2 1217.54,-791.2 1211.54,-785.2 1211.54,-779.2 1211.54,-779.2 1211.54,-767.2 1211.54,-767.2 1211.54,-761.2 1217.54,-755.2 1223.54,-755.2 1223.54,-755.2 1312.46,-755.2 1312.46,-755.2 1318.46,-755.2 1324.46,-761.2 1324.46,-767.2 1324.46,-767.2 1324.46,-779.2 1324.46,-779.2 1324.46,-785.2 1318.46,-791.2 1312.46,-791.2"/>
<text text-anchor="middle" x="1268" y="-769.5" font-family="Helvetica,sans-Serif" font-size="11.00" fill="#0a0e17">Pass (temporal)</text>
</g>
<!-- L_subj -->
<g id="node14" class="node">
<title>L_subj</title>
<path fill="#3dd68c" stroke="black" stroke-width="1.5" d="M1289.21,-659.55C1289.21,-659.55 1246.79,-659.55 1246.79,-659.55 1240.79,-659.55 1234.79,-653.55 1234.79,-647.55 1234.79,-647.55 1234.79,-635.55 1234.79,-635.55 1234.79,-629.55 1240.79,-623.55 1246.79,-623.55 1246.79,-623.55 1289.21,-623.55 1289.21,-623.55 1295.21,-623.55 1301.21,-629.55 1301.21,-635.55 1301.21,-635.55 1301.21,-647.55 1301.21,-647.55 1301.21,-653.55 1295.21,-659.55 1289.21,-659.55"/>
<text text-anchor="middle" x="1268" y="-637.85" font-family="Helvetica,sans-Serif" font-size="11.00" fill="#0a0e17">Subject</text>
</g>
<!-- L_pass&#45;&gt;L_subj -->
<!-- L_risk -->
<g id="node15" class="node">
<title>L_risk</title>
<path fill="#ff6b6b" stroke="black" stroke-width="1.5" d="M1304.96,-543.4C1304.96,-543.4 1231.04,-543.4 1231.04,-543.4 1225.04,-543.4 1219.04,-537.4 1219.04,-531.4 1219.04,-531.4 1219.04,-519.4 1219.04,-519.4 1219.04,-513.4 1225.04,-507.4 1231.04,-507.4 1231.04,-507.4 1304.96,-507.4 1304.96,-507.4 1310.96,-507.4 1316.96,-513.4 1316.96,-519.4 1316.96,-519.4 1316.96,-531.4 1316.96,-531.4 1316.96,-537.4 1310.96,-543.4 1304.96,-543.4"/>
<text text-anchor="middle" x="1268" y="-521.7" font-family="Helvetica,sans-Serif" font-size="11.00" fill="#0a0e17">Risk / control</text>
</g>
<!-- L_subj&#45;&gt;L_risk -->
<!-- L_constr -->
<g id="node16" class="node">
<title>L_constr</title>
<path fill="#ffd93d" stroke="black" stroke-width="1.5" d="M1315.46,-411.75C1315.46,-411.75 1220.54,-411.75 1220.54,-411.75 1214.54,-411.75 1208.54,-405.75 1208.54,-399.75 1208.54,-399.75 1208.54,-387.75 1208.54,-387.75 1208.54,-381.75 1214.54,-375.75 1220.54,-375.75 1220.54,-375.75 1315.46,-375.75 1315.46,-375.75 1321.46,-375.75 1327.46,-381.75 1327.46,-387.75 1327.46,-387.75 1327.46,-399.75 1327.46,-399.75 1327.46,-405.75 1321.46,-411.75 1315.46,-411.75"/>
<text text-anchor="middle" x="1268" y="-390.05" font-family="Helvetica,sans-Serif" font-size="11.00" fill="#0a0e17">Constraint / gate</text>
</g>
<!-- L_risk&#45;&gt;L_constr -->
<!-- L_verif -->
<g id="node17" class="node">
<title>L_verif</title>
<path fill="#9b59b6" stroke="black" stroke-width="1.5" d="M1299.71,-280.1C1299.71,-280.1 1236.29,-280.1 1236.29,-280.1 1230.29,-280.1 1224.29,-274.1 1224.29,-268.1 1224.29,-268.1 1224.29,-256.1 1224.29,-256.1 1224.29,-250.1 1230.29,-244.1 1236.29,-244.1 1236.29,-244.1 1299.71,-244.1 1299.71,-244.1 1305.71,-244.1 1311.71,-250.1 1311.71,-256.1 1311.71,-256.1 1311.71,-268.1 1311.71,-268.1 1311.71,-274.1 1305.71,-280.1 1299.71,-280.1"/>
<text text-anchor="middle" x="1268" y="-258.4" font-family="Helvetica,sans-Serif" font-size="11.00" fill="#e0e6ed">Verification</text>
</g>
<!-- L_constr&#45;&gt;L_verif -->
<!-- L_artif -->
<g id="node18" class="node">
<title>L_artif</title>
<path fill="#f39c12" stroke="black" stroke-width="1.5" d="M1289.21,-148.45C1289.21,-148.45 1246.79,-148.45 1246.79,-148.45 1240.79,-148.45 1234.79,-142.45 1234.79,-136.45 1234.79,-136.45 1234.79,-124.45 1234.79,-124.45 1234.79,-118.45 1240.79,-112.45 1246.79,-112.45 1246.79,-112.45 1289.21,-112.45 1289.21,-112.45 1295.21,-112.45 1301.21,-118.45 1301.21,-124.45 1301.21,-124.45 1301.21,-136.45 1301.21,-136.45 1301.21,-142.45 1295.21,-148.45 1289.21,-148.45"/>
<text text-anchor="middle" x="1268" y="-126.75" font-family="Helvetica,sans-Serif" font-size="11.00" fill="#0a0e17">Artifact</text>
</g>
<!-- L_verif&#45;&gt;L_artif -->
<!-- L_inv -->
<g id="node19" class="node">
<title>L_inv</title>
<polygon fill="#1e2a3a" stroke="black" stroke-width="1.5" points="1406.96,-52 1123.04,-52 1123.04,-16 1412.96,-16 1412.96,-46 1406.96,-52"/>
<polyline fill="none" stroke="black" stroke-width="1.5" points="1406.96,-52 1406.96,-46"/>
<polyline fill="none" stroke="black" stroke-width="1.5" points="1412.96,-46 1406.96,-46"/>
<text text-anchor="start" x="1152.5" y="-35.5" font-family="Helvetica,sans-Serif" font-weight="bold" font-size="10.00" fill="#00d4aa">INV&#45;7</text>
<text text-anchor="start" x="1182.5" y="-35.5" font-family="Helvetica,sans-Serif" font-size="10.00" fill="#00d4aa">: every subsystem rollout = 5 CPIG gates</text>
<text text-anchor="start" x="1136" y="-25.5" font-family="Helvetica,sans-Serif" font-size="10.00" fill="#00d4aa">(formal_spec → wiring_guard → sa_plan → zk → email)</text>
</g>
<!-- L_artif&#45;&gt;L_inv -->
</g>
</svg>
