<?xml version="1.0" encoding="UTF-8" standalone="no"?>
<!DOCTYPE svg PUBLIC "-//W3C//DTD SVG 1.1//EN"
 "http://www.w3.org/Graphics/SVG/1.1/DTD/svg11.dtd">
<!-- Generated by graphviz version 12.2.1 (0)
 -->
<!-- Title: CortexHedgeRace Pages: 1 -->
<svg width="838pt" height="380pt"
 viewBox="0.00 0.00 837.75 379.97" xmlns="http://www.w3.org/2000/svg" xmlns:xlink="http://www.w3.org/1999/xlink">
<g id="graph0" class="graph" transform="scale(1 1) rotate(0) translate(4 375.97)">
<title>CortexHedgeRace</title>
<polygon fill="#0a0e17" stroke="none" points="-4,4 -4,-375.97 833.75,-375.97 833.75,4 -4,4"/>
<text text-anchor="middle" x="414.88" y="-354.67" font-family="Helvetica,sans-Serif" font-size="14.00" fill="#e0e6ed">Pass 22 — Cortex Hedged Race (tokio::join! tier 1+2)</text>
<text text-anchor="middle" x="414.88" y="-337.42" font-family="Helvetica,sans-Serif" font-size="14.00" fill="#e0e6ed">Winner&#45;take&#45;all with circuit breaker accounting · hedge ≤ 1.1s</text>
<g id="clust3" class="cluster">
<title>cluster_legend</title>
<polygon fill="#0a0e17" stroke="#1e2a3a" stroke-dasharray="5,2" points="60.25,-244.47 60.25,-321.47 821.75,-321.47 821.75,-244.47 60.25,-244.47"/>
<text text-anchor="middle" x="441" y="-304.17" font-family="Helvetica,sans-Serif" font-size="14.00" fill="#7a8fa6">Legend</text>
</g>
<!-- UI -->
<g id="node1" class="node">
<title>UI</title>
<path fill="#101a26" stroke="#00d4aa" d="M152.88,-190.47C152.88,-190.47 64.88,-190.47 64.88,-190.47 58.88,-190.47 52.87,-184.47 52.87,-178.47 52.87,-178.47 52.87,-166.47 52.87,-166.47 52.87,-160.47 58.87,-154.47 64.88,-154.47 64.88,-154.47 152.88,-154.47 152.88,-154.47 158.88,-154.47 164.88,-160.47 164.88,-166.47 164.88,-166.47 164.88,-178.47 164.88,-178.47 164.88,-184.47 158.88,-190.47 152.88,-190.47"/>
<text text-anchor="middle" x="108.88" y="-175.52" font-family="Helvetica,sans-Serif" font-size="11.00" fill="#e0e6ed">User Intent</text>
<text text-anchor="middle" x="108.88" y="-162.02" font-family="Helvetica,sans-Serif" font-size="11.00" fill="#e0e6ed">(Telegram/GChat)</text>
</g>
<!-- CX -->
<g id="node2" class="node">
<title>CX</title>
<path fill="#142031" stroke="#00d4aa" d="M503,-136.47C503,-136.47 418,-136.47 418,-136.47 412,-136.47 406,-130.47 406,-124.47 406,-124.47 406,-112.47 406,-112.47 406,-106.47 412,-100.47 418,-100.47 418,-100.47 503,-100.47 503,-100.47 509,-100.47 515,-106.47 515,-112.47 515,-112.47 515,-124.47 515,-124.47 515,-130.47 509,-136.47 503,-136.47"/>
<text text-anchor="middle" x="460.5" y="-121.52" font-family="Helvetica,sans-Serif" font-size="11.00" fill="#e0e6ed">cortex.rs</text>
<text text-anchor="middle" x="460.5" y="-108.02" font-family="Helvetica,sans-Serif" font-size="11.00" fill="#e0e6ed">(classify+hedge)</text>
</g>
<!-- UI&#45;&gt;CX -->
<g id="edge1" class="edge">
<title>UI&#45;&gt;CX</title>
<path fill="none" stroke="#00d4aa" stroke-width="2" d="M165.15,-188.44C222.93,-202.16 315.16,-215.58 388,-186.47 408.16,-178.41 425.89,-161.66 438.65,-146.81"/>
<polygon fill="#00d4aa" stroke="#00d4aa" stroke-width="2" points="441.15,-149.27 444.74,-139.3 435.72,-144.85 441.15,-149.27"/>
<text text-anchor="middle" x="311.88" y="-207.04" font-family="Helvetica,sans-Serif" font-size="10.00" fill="#9be7d3">① intent received</text>
</g>
<!-- CX&#45;&gt;UI -->
<g id="edge3" class="edge">
<title>CX&#45;&gt;UI</title>
<path fill="none" stroke="#3dd68c" stroke-dasharray="5,2" d="M424.72,-136.9C413.32,-142.15 400.39,-147.31 388,-150.47 349.43,-160.31 245.75,-166.58 176.46,-169.81"/>
<polygon fill="#3dd68c" stroke="#3dd68c" points="176.57,-166.3 166.74,-170.26 176.89,-173.3 176.57,-166.3"/>
<text text-anchor="middle" x="311.88" y="-169.57" font-family="Helvetica,sans-Serif" font-size="10.00" fill="#9be7d3">③ ack ⏳ (immediate)</text>
</g>
<!-- CX&#45;&gt;UI -->
<g id="edge12" class="edge">
<title>CX&#45;&gt;UI</title>
<path fill="none" stroke="#3dd68c" stroke-width="3" d="M405.94,-111.19C360.19,-106.54 292.91,-103.43 235.75,-115.72 207.11,-121.88 177.13,-135.09 153.62,-147.21"/>
<polygon fill="#3dd68c" stroke="#3dd68c" stroke-width="3" points="152.11,-144.05 144.93,-151.84 155.4,-150.23 152.11,-144.05"/>
<text text-anchor="middle" x="311.88" y="-136.97" font-family="Helvetica,sans-Serif" font-size="10.00" fill="#9be7d3">⑫ delivered</text>
<text text-anchor="middle" x="311.88" y="-118.97" font-family="Helvetica,sans-Serif" font-size="10.00" fill="#9be7d3">Gateway broadcast</text>
</g>
<!-- CX&#45;&gt;CX -->
<g id="edge2" class="edge">
<title>CX&#45;&gt;CX</title>
<path fill="none" stroke="#7a8fa6" d="M449.26,-136.62C447.53,-146.01 451.28,-154.47 460.5,-154.47 465.69,-154.47 469.14,-151.79 470.86,-147.78"/>
<polygon fill="#7a8fa6" stroke="#7a8fa6" points="474.33,-148.37 471.62,-138.13 467.35,-147.83 474.33,-148.37"/>
<text text-anchor="middle" x="460.5" y="-170.47" font-family="Helvetica,sans-Serif" font-size="10.00" fill="#9be7d3">② classify (RETE&#45;UL)</text>
<text text-anchor="middle" x="460.5" y="-157.72" font-family="Helvetica,sans-Serif" font-size="10.00" fill="#9be7d3">simple? → DB reply &lt;1ms</text>
</g>
<!-- CX&#45;&gt;CX -->
<g id="edge11" class="edge">
<title>CX&#45;&gt;CX</title>
<path fill="none" stroke="#7a8fa6" d="M442.32,-136.92C431.63,-156.51 437.69,-179.97 460.5,-179.97 479.39,-179.97 486.79,-163.88 482.71,-147.22"/>
<polygon fill="#7a8fa6" stroke="#7a8fa6" points="486.13,-146.37 479.23,-138.33 479.61,-148.91 486.13,-146.37"/>
<text text-anchor="middle" x="460.5" y="-201.22" font-family="Helvetica,sans-Serif" font-size="10.00" fill="#9be7d3">⑪ PipelineTracer.finish</text>
<text text-anchor="middle" x="460.5" y="-183.22" font-family="Helvetica,sans-Serif" font-size="10.00" fill="#9be7d3">batch SQLite + Zenoh</text>
</g>
<!-- T1 -->
<g id="node3" class="node">
<title>T1</title>
<path fill="#0e1a14" stroke="#3dd68c" d="M769.5,-228.72C769.5,-228.72 698.75,-228.72 698.75,-228.72 692.75,-228.72 686.75,-222.72 686.75,-216.72 686.75,-216.72 686.75,-192.22 686.75,-192.22 686.75,-186.22 692.75,-180.22 698.75,-180.22 698.75,-180.22 769.5,-180.22 769.5,-180.22 775.5,-180.22 781.5,-186.22 781.5,-192.22 781.5,-192.22 781.5,-216.72 781.5,-216.72 781.5,-222.72 775.5,-228.72 769.5,-228.72"/>
<text text-anchor="middle" x="734.12" y="-214.27" font-family="Helvetica,sans-Serif" font-size="11.00" fill="#e0e6ed">Tier 1</text>
<text text-anchor="middle" x="734.12" y="-200.77" font-family="Helvetica,sans-Serif" font-size="11.00" fill="#e0e6ed">Gemini Direct</text>
<text text-anchor="middle" x="734.12" y="-187.27" font-family="Helvetica,sans-Serif" font-size="11.00" fill="#e0e6ed">~900ms · free</text>
</g>
<!-- CX&#45;&gt;T1 -->
<g id="edge4" class="edge">
<title>CX&#45;&gt;T1</title>
<path fill="none" stroke="#3dd68c" stroke-width="2" d="M474.17,-136.71C486.91,-153.4 508.18,-177.17 533,-188.47 577.08,-208.54 632.27,-211.54 673.52,-210.08"/>
<polygon fill="#3dd68c" stroke="#3dd68c" stroke-width="2" points="673.55,-213.58 683.37,-209.61 673.22,-206.59 673.55,-213.58"/>
<text text-anchor="middle" x="584.75" y="-225.85" font-family="Helvetica,sans-Serif" font-size="10.00" fill="#9be7d3">④ tokio::spawn t1</text>
<text text-anchor="middle" x="584.75" y="-213.1" font-family="Helvetica,sans-Serif" font-size="10.00" fill="#9be7d3">(send_chat_request)</text>
</g>
<!-- T2 -->
<g id="node4" class="node">
<title>T2</title>
<path fill="#1a1410" stroke="#f5a623" d="M780.75,-99.72C780.75,-99.72 687.5,-99.72 687.5,-99.72 681.5,-99.72 675.5,-93.72 675.5,-87.72 675.5,-87.72 675.5,-63.22 675.5,-63.22 675.5,-57.22 681.5,-51.22 687.5,-51.22 687.5,-51.22 780.75,-51.22 780.75,-51.22 786.75,-51.22 792.75,-57.22 792.75,-63.22 792.75,-63.22 792.75,-87.72 792.75,-87.72 792.75,-93.72 786.75,-99.72 780.75,-99.72"/>
<text text-anchor="middle" x="734.12" y="-85.27" font-family="Helvetica,sans-Serif" font-size="11.00" fill="#e0e6ed">Tier 2</text>
<text text-anchor="middle" x="734.12" y="-71.77" font-family="Helvetica,sans-Serif" font-size="11.00" fill="#e0e6ed">OpenRouter</text>
<text text-anchor="middle" x="734.12" y="-58.27" font-family="Helvetica,sans-Serif" font-size="11.00" fill="#e0e6ed">~1.1s · $0.000009</text>
</g>
<!-- CX&#45;&gt;T2 -->
<g id="edge5" class="edge">
<title>CX&#45;&gt;T2</title>
<path fill="none" stroke="#f5a623" stroke-width="2" d="M515.49,-109.92C557.63,-103.25 616.53,-93.93 662.43,-86.66"/>
<polygon fill="#f5a623" stroke="#f5a623" stroke-width="2" points="662.69,-90.16 672.02,-85.14 661.6,-83.25 662.69,-90.16"/>
<text text-anchor="middle" x="584.75" y="-122.94" font-family="Helvetica,sans-Serif" font-size="10.00" fill="#9be7d3">⑤ tokio::spawn t2</text>
<text text-anchor="middle" x="584.75" y="-110.19" font-family="Helvetica,sans-Serif" font-size="10.00" fill="#9be7d3">(send_chat_request)</text>
</g>
<!-- CX&#45;&gt;T2 -->
<g id="edge8" class="edge">
<title>CX&#45;&gt;T2</title>
<path fill="none" stroke="#ff4757" stroke-width="2" stroke-dasharray="5,2" d="M477.95,-100.06C491.27,-86.62 511.33,-69.5 533,-61.97 574.32,-47.61 623.27,-50.6 662.41,-57.36"/>
<polygon fill="#ff4757" stroke="#ff4757" stroke-width="2" points="661.57,-60.76 672.05,-59.16 662.86,-53.88 661.57,-60.76"/>
<text text-anchor="middle" x="584.75" y="-77.97" font-family="Helvetica,sans-Serif" font-size="10.00" fill="#9be7d3">⑧ cancel loser</text>
<text text-anchor="middle" x="584.75" y="-65.22" font-family="Helvetica,sans-Serif" font-size="10.00" fill="#9be7d3">(drop oneshot rx)</text>
</g>
<!-- CB -->
<g id="node5" class="node">
<title>CB</title>
<path fill="#0a0e17" stroke="#9b59b6" d="M205.75,-63.47C205.75,-63.47 12,-63.47 12,-63.47 6,-63.47 0,-57.47 0,-51.47 0,-51.47 0,-39.47 0,-39.47 0,-33.47 6,-27.47 12,-27.47 12,-27.47 205.75,-27.47 205.75,-27.47 211.75,-27.47 217.75,-33.47 217.75,-39.47 217.75,-39.47 217.75,-51.47 217.75,-51.47 217.75,-57.47 211.75,-63.47 205.75,-63.47"/>
<text text-anchor="middle" x="108.88" y="-48.52" font-family="Helvetica,sans-Serif" font-size="11.00" fill="#e0e6ed">CircuitBreaker pool</text>
<text text-anchor="middle" x="108.88" y="-35.02" font-family="Helvetica,sans-Serif" font-size="11.00" fill="#e0e6ed">(5 instances · 3 fail → 60s cooldown)</text>
</g>
<!-- CX&#45;&gt;CB -->
<g id="edge6" class="edge">
<title>CX&#45;&gt;CB</title>
<path fill="none" stroke="#7a8fa6" d="M432.85,-99.99C419.89,-91.91 403.73,-83.11 388,-77.97 337.41,-61.44 279.23,-53.1 229.2,-48.97"/>
<polygon fill="#7a8fa6" stroke="#7a8fa6" points="229.75,-45.51 219.51,-48.23 229.21,-52.49 229.75,-45.51"/>
<text text-anchor="middle" x="311.88" y="-93.97" font-family="Helvetica,sans-Serif" font-size="10.00" fill="#9be7d3">⑥ acquire breakers</text>
<text text-anchor="middle" x="311.88" y="-81.22" font-family="Helvetica,sans-Serif" font-size="10.00" fill="#9be7d3">(t1 closed, t2 closed)</text>
</g>
<!-- CX&#45;&gt;CB -->
<g id="edge10" class="edge">
<title>CX&#45;&gt;CB</title>
<path fill="none" stroke="#7a8fa6" d="M452.45,-100.17C442.26,-76.63 420.95,-36.76 388,-19.97 317.85,15.79 224.78,-4.08 166.1,-23.39"/>
<polygon fill="#7a8fa6" stroke="#7a8fa6" points="165.33,-19.95 156.99,-26.49 167.58,-26.58 165.33,-19.95"/>
<text text-anchor="middle" x="311.88" y="-35.97" font-family="Helvetica,sans-Serif" font-size="10.00" fill="#9be7d3">⑩ mark_completed(t1, ok)</text>
<text text-anchor="middle" x="311.88" y="-23.22" font-family="Helvetica,sans-Serif" font-size="10.00" fill="#9be7d3">mark_completed(t2, cancelled)</text>
</g>
<!-- T1&#45;&gt;CX -->
<g id="edge7" class="edge">
<title>T1&#45;&gt;CX</title>
<path fill="none" stroke="#3dd68c" stroke-width="3" d="M686.34,-179.83C670.79,-172.35 653.18,-164.63 636.5,-158.97 591.92,-143.84 578.83,-147.22 533,-136.47 531.75,-136.17 530.48,-135.88 529.21,-135.57"/>
<polygon fill="#3dd68c" stroke="#3dd68c" stroke-width="3" points="530.29,-132.23 519.74,-133.29 528.64,-139.04 530.29,-132.23"/>
<text text-anchor="middle" x="584.75" y="-174.97" font-family="Helvetica,sans-Serif" font-size="10.00" fill="#9be7d3">⑦ first response wins</text>
<text text-anchor="middle" x="584.75" y="-162.22" font-family="Helvetica,sans-Serif" font-size="10.00" fill="#9be7d3">~900ms · &#39;Hello&#39;</text>
</g>
<!-- T2&#45;&gt;T2 -->
<g id="edge9" class="edge">
<title>T2&#45;&gt;T2</title>
<path fill="none" stroke="#ff4757" stroke-dasharray="5,2" d="M706.23,-100.21C704.99,-109.77 714.29,-117.72 734.12,-117.72 745.59,-117.72 753.54,-115.06 757.97,-110.97"/>
<polygon fill="#ff4757" stroke="#ff4757" points="761.24,-112.21 761.49,-101.62 754.69,-109.74 761.24,-112.21"/>
<text text-anchor="middle" x="734.12" y="-146.47" font-family="Helvetica,sans-Serif" font-size="10.00" fill="#9be7d3">⑨ detached future</text>
<text text-anchor="middle" x="734.12" y="-133.72" font-family="Helvetica,sans-Serif" font-size="10.00" fill="#9be7d3">still completes</text>
<text text-anchor="middle" x="734.12" y="-120.97" font-family="Helvetica,sans-Serif" font-size="10.00" fill="#9be7d3">(no leak)</text>
</g>
<!-- L1 -->
<g id="node6" class="node">
<title>L1</title>
<path fill="#0e1a14" stroke="#3dd68c" d="M137.5,-288.47C137.5,-288.47 80.25,-288.47 80.25,-288.47 74.25,-288.47 68.25,-282.47 68.25,-276.47 68.25,-276.47 68.25,-264.47 68.25,-264.47 68.25,-258.47 74.25,-252.47 80.25,-252.47 80.25,-252.47 137.5,-252.47 137.5,-252.47 143.5,-252.47 149.5,-258.47 149.5,-264.47 149.5,-264.47 149.5,-276.47 149.5,-276.47 149.5,-282.47 143.5,-288.47 137.5,-288.47"/>
<text text-anchor="middle" x="108.88" y="-266.77" font-family="Helvetica,sans-Serif" font-size="11.00" fill="#e0e6ed">winner path</text>
</g>
<!-- L2 -->
<g id="node7" class="node">
<title>L2</title>
<path fill="#1a1410" stroke="#ff4757" d="M497.75,-288.47C497.75,-288.47 423.25,-288.47 423.25,-288.47 417.25,-288.47 411.25,-282.47 411.25,-276.47 411.25,-276.47 411.25,-264.47 411.25,-264.47 411.25,-258.47 417.25,-252.47 423.25,-252.47 423.25,-252.47 497.75,-252.47 497.75,-252.47 503.75,-252.47 509.75,-258.47 509.75,-264.47 509.75,-264.47 509.75,-276.47 509.75,-276.47 509.75,-282.47 503.75,-288.47 497.75,-288.47"/>
<text text-anchor="middle" x="460.5" y="-266.77" font-family="Helvetica,sans-Serif" font-size="11.00" fill="#e0e6ed">cancelled loser</text>
</g>
<!-- L1&#45;&gt;L2 -->
<!-- L3 -->
<g id="node8" class="node">
<title>L3</title>
<path fill="#101a26" stroke="#00d4aa" d="M801.75,-288.47C801.75,-288.47 666.5,-288.47 666.5,-288.47 660.5,-288.47 654.5,-282.47 654.5,-276.47 654.5,-276.47 654.5,-264.47 654.5,-264.47 654.5,-258.47 660.5,-252.47 666.5,-252.47 666.5,-252.47 801.75,-252.47 801.75,-252.47 807.75,-252.47 813.75,-258.47 813.75,-264.47 813.75,-264.47 813.75,-276.47 813.75,-276.47 813.75,-282.47 807.75,-288.47 801.75,-288.47"/>
<text text-anchor="middle" x="734.12" y="-273.52" font-family="Helvetica,sans-Serif" font-size="11.00" fill="#e0e6ed">hedge budget ≤ 1.1s</text>
<text text-anchor="middle" x="734.12" y="-260.02" font-family="Helvetica,sans-Serif" font-size="11.00" fill="#e0e6ed">(min(t1,t2) + cancel cost)</text>
</g>
<!-- L2&#45;&gt;L3 -->
</g>
</svg>
