<?xml version="1.0" encoding="UTF-8" standalone="no"?>
<!DOCTYPE svg PUBLIC "-//W3C//DTD SVG 1.1//EN"
 "http://www.w3.org/Graphics/SVG/1.1/DTD/svg11.dtd">
<!-- Generated by graphviz version 12.2.1 (0)
 -->
<!-- Title: Cortex7TierCB Pages: 1 -->
<svg width="783pt" height="981pt"
 viewBox="0.00 0.00 783.00 980.84" xmlns="http://www.w3.org/2000/svg" xmlns:xlink="http://www.w3.org/1999/xlink">
<g id="graph0" class="graph" transform="scale(1 1) rotate(0) translate(4 976.84)">
<title>Cortex7TierCB</title>
<polygon fill="#0a0e17" stroke="none" points="-4,4 -4,-976.84 779,-976.84 779,4 -4,4"/>
<text text-anchor="middle" x="387.5" y="-955.54" font-family="Helvetica,sans-Serif" font-size="14.00" fill="#e0e6ed">Pass 22 — Cortex 7&#45;Tier Cascade with 5 Circuit Breakers</text>
<text text-anchor="middle" x="387.5" y="-938.29" font-family="Helvetica,sans-Serif" font-size="14.00" fill="#e0e6ed">No&#45;blackhole guarantee · every message gets a response</text>
<g id="clust1" class="cluster">
<title>cluster_cb1</title>
<path fill="#0a0e17" stroke="#9b59b6" stroke-dasharray="5,2" d="M116,-691.59C116,-691.59 245,-691.59 245,-691.59 251,-691.59 257,-697.59 257,-703.59 257,-703.59 257,-782.84 257,-782.84 257,-788.84 251,-794.84 245,-794.84 245,-794.84 116,-794.84 116,-794.84 110,-794.84 104,-788.84 104,-782.84 104,-782.84 104,-703.59 104,-703.59 104,-697.59 110,-691.59 116,-691.59"/>
<text text-anchor="middle" x="180.5" y="-777.54" font-family="Helvetica,sans-Serif" font-size="14.00" fill="#9b59b6">CB1 (Gemini Direct)</text>
</g>
<g id="clust2" class="cluster">
<title>cluster_cb2</title>
<path fill="#0a0e17" stroke="#9b59b6" stroke-dasharray="5,2" d="M277,-691.59C277,-691.59 409,-691.59 409,-691.59 415,-691.59 421,-697.59 421,-703.59 421,-703.59 421,-782.84 421,-782.84 421,-788.84 415,-794.84 409,-794.84 409,-794.84 277,-794.84 277,-794.84 271,-794.84 265,-788.84 265,-782.84 265,-782.84 265,-703.59 265,-703.59 265,-697.59 271,-691.59 277,-691.59"/>
<text text-anchor="middle" x="343" y="-777.54" font-family="Helvetica,sans-Serif" font-size="14.00" fill="#9b59b6">CB2 (OpenRouter)</text>
</g>
<g id="clust3" class="cluster">
<title>cluster_cb3</title>
<path fill="#0a0e17" stroke="#9b59b6" stroke-dasharray="5,2" d="M243,-557.59C243,-557.59 425,-557.59 425,-557.59 431,-557.59 437,-563.59 437,-569.59 437,-569.59 437,-648.84 437,-648.84 437,-654.84 431,-660.84 425,-660.84 425,-660.84 243,-660.84 243,-660.84 237,-660.84 231,-654.84 231,-648.84 231,-648.84 231,-569.59 231,-569.59 231,-563.59 237,-557.59 243,-557.59"/>
<text text-anchor="middle" x="334" y="-643.54" font-family="Helvetica,sans-Serif" font-size="14.00" fill="#9b59b6">CB3 (mistral.rs)</text>
</g>
<g id="clust4" class="cluster">
<title>cluster_cb4</title>
<path fill="#0a0e17" stroke="#9b59b6" stroke-dasharray="5,2" d="M213,-339.84C213,-339.84 388,-339.84 388,-339.84 394,-339.84 400,-345.84 400,-351.84 400,-351.84 400,-514.84 400,-514.84 400,-520.84 394,-526.84 388,-526.84 388,-526.84 213,-526.84 213,-526.84 207,-526.84 201,-520.84 201,-514.84 201,-514.84 201,-351.84 201,-351.84 201,-345.84 207,-339.84 213,-339.84"/>
<text text-anchor="middle" x="300.5" y="-509.54" font-family="Helvetica,sans-Serif" font-size="14.00" fill="#9b59b6">CB4 (Ollama HTTP shared)</text>
</g>
<g id="clust5" class="cluster">
<title>cluster_cb5</title>
<path fill="#0a0e17" stroke="#9b59b6" stroke-dasharray="5,2" d="M102,-122.09C102,-122.09 352,-122.09 352,-122.09 358,-122.09 364,-128.09 364,-134.09 364,-134.09 364,-297.09 364,-297.09 364,-303.09 358,-309.09 352,-309.09 352,-309.09 102,-309.09 102,-309.09 96,-309.09 90,-303.09 90,-297.09 90,-297.09 90,-134.09 90,-134.09 90,-128.09 96,-122.09 102,-122.09"/>
<text text-anchor="middle" x="227" y="-291.79" font-family="Helvetica,sans-Serif" font-size="14.00" fill="#9b59b6">CB5 (synchronous · always available)</text>
</g>
<g id="clust6" class="cluster">
<title>cluster_legend</title>
<polygon fill="#0a0e17" stroke="#1e2a3a" stroke-dasharray="5,2" points="527,-346.09 527,-922.34 767,-922.34 767,-346.09 527,-346.09"/>
<text text-anchor="middle" x="647" y="-905.04" font-family="Helvetica,sans-Serif" font-size="14.00" fill="#7a8fa6">Legend (color = transport class)</text>
</g>
<!-- Intent -->
<g id="node1" class="node">
<title>Intent</title>
<ellipse fill="#142031" stroke="#00d4aa" cx="265" cy="-871.09" rx="72.83" ry="24.75"/>
<text text-anchor="middle" x="265" y="-874.14" font-family="Helvetica,sans-Serif" font-size="11.00" fill="#e0e6ed">Intent classified</text>
<text text-anchor="middle" x="265" y="-860.64" font-family="Helvetica,sans-Serif" font-size="11.00" fill="#e0e6ed">(complex)</text>
</g>
<!-- T1 -->
<g id="node2" class="node">
<title>T1</title>
<path fill="#0e1a14" stroke="#3dd68c" d="M237.38,-761.59C237.38,-761.59 136.62,-761.59 136.62,-761.59 130.62,-761.59 124.62,-755.59 124.62,-749.59 124.62,-749.59 124.62,-711.59 124.62,-711.59 124.62,-705.59 130.62,-699.59 136.62,-699.59 136.62,-699.59 237.38,-699.59 237.38,-699.59 243.38,-699.59 249.38,-705.59 249.38,-711.59 249.38,-711.59 249.38,-749.59 249.38,-749.59 249.38,-755.59 243.38,-761.59 237.38,-761.59"/>
<text text-anchor="middle" x="187" y="-747.14" font-family="Helvetica,sans-Serif" font-size="11.00" fill="#e0e6ed">Tier 1</text>
<text text-anchor="middle" x="187" y="-733.64" font-family="Helvetica,sans-Serif" font-size="11.00" fill="#e0e6ed">Gemini Direct</text>
<text text-anchor="middle" x="187" y="-720.14" font-family="Helvetica,sans-Serif" font-size="11.00" fill="#e0e6ed">gemini&#45;3.1&#45;flash&#45;lite</text>
<text text-anchor="middle" x="187" y="-706.64" font-family="Helvetica,sans-Serif" font-size="11.00" fill="#e0e6ed">~900ms · free</text>
</g>
<!-- Intent&#45;&gt;T1 -->
<g id="edge3" class="edge">
<title>Intent&#45;&gt;T1</title>
<path fill="none" stroke="#3dd68c" stroke-width="2" d="M251.59,-846.28C240.29,-826.21 223.85,-797.01 210.38,-773.11"/>
<polygon fill="#3dd68c" stroke="#3dd68c" stroke-width="2" points="213.49,-771.49 205.53,-764.49 207.39,-774.92 213.49,-771.49"/>
<text text-anchor="middle" x="266.02" y="-818.84" font-family="Helvetica,sans-Serif" font-size="10.00" fill="#9be7d3">tokio::join!</text>
<text text-anchor="middle" x="266.02" y="-806.09" font-family="Helvetica,sans-Serif" font-size="10.00" fill="#9be7d3">(parallel)</text>
</g>
<!-- T2 -->
<g id="node3" class="node">
<title>T2</title>
<path fill="#1a1410" stroke="#f5a623" d="M401.25,-761.59C401.25,-761.59 284.75,-761.59 284.75,-761.59 278.75,-761.59 272.75,-755.59 272.75,-749.59 272.75,-749.59 272.75,-711.59 272.75,-711.59 272.75,-705.59 278.75,-699.59 284.75,-699.59 284.75,-699.59 401.25,-699.59 401.25,-699.59 407.25,-699.59 413.25,-705.59 413.25,-711.59 413.25,-711.59 413.25,-749.59 413.25,-749.59 413.25,-755.59 407.25,-761.59 401.25,-761.59"/>
<text text-anchor="middle" x="343" y="-747.14" font-family="Helvetica,sans-Serif" font-size="11.00" fill="#e0e6ed">Tier 2</text>
<text text-anchor="middle" x="343" y="-733.64" font-family="Helvetica,sans-Serif" font-size="11.00" fill="#e0e6ed">OpenRouter</text>
<text text-anchor="middle" x="343" y="-720.14" font-family="Helvetica,sans-Serif" font-size="11.00" fill="#e0e6ed">gemini&#45;3&#45;flash&#45;preview</text>
<text text-anchor="middle" x="343" y="-706.64" font-family="Helvetica,sans-Serif" font-size="11.00" fill="#e0e6ed">~1.1s · $0.000009</text>
</g>
<!-- Intent&#45;&gt;T2 -->
<g id="edge4" class="edge">
<title>Intent&#45;&gt;T2</title>
<path fill="none" stroke="#f5a623" stroke-width="2" d="M283.5,-846.78C287.82,-840.91 292.25,-834.51 296,-828.34 306.5,-811.04 316.53,-791.06 324.61,-773.75"/>
<polygon fill="#f5a623" stroke="#f5a623" stroke-width="2" points="327.75,-775.29 328.74,-764.74 321.39,-772.38 327.75,-775.29"/>
<text text-anchor="middle" x="335.28" y="-818.84" font-family="Helvetica,sans-Serif" font-size="10.00" fill="#9be7d3">tokio::join!</text>
<text text-anchor="middle" x="335.28" y="-806.09" font-family="Helvetica,sans-Serif" font-size="10.00" fill="#9be7d3">(parallel)</text>
</g>
<!-- T3 -->
<g id="node4" class="node">
<title>T3</title>
<path fill="#101a26" stroke="#4d96ff" d="M416.62,-627.59C416.62,-627.59 251.38,-627.59 251.38,-627.59 245.38,-627.59 239.38,-621.59 239.38,-615.59 239.38,-615.59 239.38,-577.59 239.38,-577.59 239.38,-571.59 245.38,-565.59 251.38,-565.59 251.38,-565.59 416.62,-565.59 416.62,-565.59 422.62,-565.59 428.62,-571.59 428.62,-577.59 428.62,-577.59 428.62,-615.59 428.62,-615.59 428.62,-621.59 422.62,-627.59 416.62,-627.59"/>
<text text-anchor="middle" x="334" y="-613.14" font-family="Helvetica,sans-Serif" font-size="11.00" fill="#e0e6ed">Tier 3 ★ primary local</text>
<text text-anchor="middle" x="334" y="-599.64" font-family="Helvetica,sans-Serif" font-size="11.00" fill="#e0e6ed">mistral.rs gemma4 (in&#45;process)</text>
<text text-anchor="middle" x="334" y="-586.14" font-family="Helvetica,sans-Serif" font-size="11.00" fill="#e0e6ed">MultimodalModelBuilder</text>
<text text-anchor="middle" x="334" y="-572.64" font-family="Helvetica,sans-Serif" font-size="11.00" fill="#e0e6ed">~500ms · free · zero HTTP</text>
</g>
<!-- T1&#45;&gt;T3 -->
<g id="edge5" class="edge">
<title>T1&#45;&gt;T3</title>
<path fill="none" stroke="#ff4757" stroke-dasharray="5,2" d="M214.55,-699.14C223.94,-689.2 234.68,-678.3 245,-668.84 257.45,-657.43 271.48,-645.71 284.67,-635.16"/>
<polygon fill="#ff4757" stroke="#ff4757" points="286.78,-637.95 292.44,-629 282.43,-632.47 286.78,-637.95"/>
<text text-anchor="middle" x="290" y="-672.09" font-family="Helvetica,sans-Serif" font-size="10.00" fill="#9be7d3">① CB1 open or fail</text>
</g>
<!-- Done -->
<g id="node9" class="node">
<title>Done</title>
<ellipse fill="#0e1a14" stroke="#3dd68c" cx="252" cy="-34.29" rx="87.15" ry="34.29"/>
<text text-anchor="middle" x="252" y="-44.09" font-family="Helvetica,sans-Serif" font-size="11.00" fill="#e0e6ed">Gateway broadcast</text>
<text text-anchor="middle" x="252" y="-30.59" font-family="Helvetica,sans-Serif" font-size="11.00" fill="#e0e6ed">Telegram + GChat</text>
<text text-anchor="middle" x="252" y="-17.09" font-family="Helvetica,sans-Serif" font-size="11.00" fill="#e0e6ed">(retry × 1)</text>
</g>
<!-- T1&#45;&gt;Done -->
<g id="edge10" class="edge">
<title>T1&#45;&gt;Done</title>
<path fill="none" stroke="#3dd68c" stroke-width="2" d="M124.21,-713.45C69.89,-695.26 0,-659.78 0,-597.59 0,-597.59 0,-597.59 0,-153.34 0,-82.47 82.74,-54.06 153.4,-42.72"/>
<polygon fill="#3dd68c" stroke="#3dd68c" stroke-width="2" points="153.61,-46.23 162.99,-41.3 152.58,-39.3 153.61,-46.23"/>
<text text-anchor="middle" x="22.12" y="-368.96" font-family="Helvetica,sans-Serif" font-size="10.00" fill="#9be7d3">✓ winner</text>
</g>
<!-- T2&#45;&gt;T3 -->
<g id="edge6" class="edge">
<title>T2&#45;&gt;T3</title>
<path fill="none" stroke="#ff4757" stroke-dasharray="5,2" d="M340.94,-699.31C339.72,-681.45 338.16,-658.59 336.83,-639.08"/>
<polygon fill="#ff4757" stroke="#ff4757" points="340.33,-638.98 336.16,-629.24 333.35,-639.46 340.33,-638.98"/>
<text text-anchor="middle" x="384.57" y="-672.09" font-family="Helvetica,sans-Serif" font-size="10.00" fill="#9be7d3">② CB2 open or fail</text>
</g>
<!-- T2&#45;&gt;Done -->
<g id="edge11" class="edge">
<title>T2&#45;&gt;Done</title>
<path fill="none" stroke="#f5a623" stroke-width="2" d="M412.47,-699.19C420.29,-694.02 427.69,-688.16 434,-681.59 462.63,-651.76 474,-638.94 474,-597.59 474,-597.59 474,-597.59 474,-153.34 474,-92.08 407.29,-62.51 347.01,-48.3"/>
<polygon fill="#f5a623" stroke="#f5a623" stroke-width="2" points="348.14,-44.96 337.62,-46.22 346.63,-51.8 348.14,-44.96"/>
<text text-anchor="middle" x="496.12" y="-368.96" font-family="Helvetica,sans-Serif" font-size="10.00" fill="#9be7d3">✓ winner</text>
</g>
<!-- T4 -->
<g id="node5" class="node">
<title>T4</title>
<path fill="#1a140f" stroke="#f39c12" d="M358,-493.59C358,-493.59 234,-493.59 234,-493.59 228,-493.59 222,-487.59 222,-481.59 222,-481.59 222,-457.09 222,-457.09 222,-451.09 228,-445.09 234,-445.09 234,-445.09 358,-445.09 358,-445.09 364,-445.09 370,-451.09 370,-457.09 370,-457.09 370,-481.59 370,-481.59 370,-487.59 364,-493.59 358,-493.59"/>
<text text-anchor="middle" x="296" y="-479.14" font-family="Helvetica,sans-Serif" font-size="11.00" fill="#e0e6ed">Tier 4</text>
<text text-anchor="middle" x="296" y="-465.64" font-family="Helvetica,sans-Serif" font-size="11.00" fill="#e0e6ed">Ollama gemma4 :11435</text>
<text text-anchor="middle" x="296" y="-452.14" font-family="Helvetica,sans-Serif" font-size="11.00" fill="#e0e6ed">~4s · free · http</text>
</g>
<!-- T3&#45;&gt;T4 -->
<g id="edge7" class="edge">
<title>T3&#45;&gt;T4</title>
<path fill="none" stroke="#ff4757" stroke-dasharray="5,2" d="M324.8,-565.27C319.25,-546.96 312.15,-523.57 306.39,-504.59"/>
<polygon fill="#ff4757" stroke="#ff4757" points="309.78,-503.72 303.53,-495.16 303.09,-505.75 309.78,-503.72"/>
<text text-anchor="middle" x="363.4" y="-538.09" font-family="Helvetica,sans-Serif" font-size="10.00" fill="#9be7d3">③ CB3 open or fail</text>
</g>
<!-- T3&#45;&gt;Done -->
<g id="edge12" class="edge">
<title>T3&#45;&gt;Done</title>
<path fill="none" stroke="#4d96ff" stroke-width="2" d="M394.99,-565.32C401.45,-560.13 407.34,-554.23 412,-547.59 432.13,-518.88 428,-505.4 428,-470.34 428,-470.34 428,-470.34 428,-153.34 428,-120.25 419.7,-108.61 395,-86.59 379.59,-72.86 360.24,-62.72 340.8,-55.28"/>
<polygon fill="#4d96ff" stroke="#4d96ff" stroke-width="2" points="342.16,-52.05 331.57,-51.99 339.81,-58.64 342.16,-52.05"/>
<text text-anchor="middle" x="432.12" y="-320.34" font-family="Helvetica,sans-Serif" font-size="10.00" fill="#9be7d3">✓</text>
</g>
<!-- T5 -->
<g id="node6" class="node">
<title>T5</title>
<path fill="#1a140f" stroke="#f39c12" d="M358,-396.34C358,-396.34 234,-396.34 234,-396.34 228,-396.34 222,-390.34 222,-384.34 222,-384.34 222,-359.84 222,-359.84 222,-353.84 228,-347.84 234,-347.84 234,-347.84 358,-347.84 358,-347.84 364,-347.84 370,-353.84 370,-359.84 370,-359.84 370,-384.34 370,-384.34 370,-390.34 364,-396.34 358,-396.34"/>
<text text-anchor="middle" x="296" y="-381.89" font-family="Helvetica,sans-Serif" font-size="11.00" fill="#e0e6ed">Tier 5</text>
<text text-anchor="middle" x="296" y="-368.39" font-family="Helvetica,sans-Serif" font-size="11.00" fill="#e0e6ed">Ollama gemma3 :11434</text>
<text text-anchor="middle" x="296" y="-354.89" font-family="Helvetica,sans-Serif" font-size="11.00" fill="#e0e6ed">~10s · free · http</text>
</g>
<!-- T4&#45;&gt;T5 -->
<g id="edge1" class="edge">
<title>T4&#45;&gt;T5</title>
<path fill="none" stroke="#7a8fa6" stroke-dasharray="5,2" d="M296,-444.79C296,-433.69 296,-420.21 296,-407.96"/>
<polygon fill="#7a8fa6" stroke="#7a8fa6" points="299.5,-408.21 296,-398.21 292.5,-408.21 299.5,-408.21"/>
<text text-anchor="middle" x="315.5" y="-417.59" font-family="Helvetica,sans-Serif" font-size="10.00" fill="#9be7d3">fallback</text>
</g>
<!-- T4&#45;&gt;Done -->
<g id="edge13" class="edge">
<title>T4&#45;&gt;Done</title>
<path fill="none" stroke="#f39c12" d="M221.72,-466.42C156.52,-460.29 72,-439.54 72,-373.09 72,-373.09 72,-373.09 72,-153.34 72,-103.76 120.34,-73.87 166.92,-56.57"/>
<polygon fill="#f39c12" stroke="#f39c12" points="168.05,-59.88 176.32,-53.26 165.73,-53.28 168.05,-59.88"/>
<text text-anchor="middle" x="76.12" y="-248.46" font-family="Helvetica,sans-Serif" font-size="10.00" fill="#9be7d3">✓</text>
</g>
<!-- T6 -->
<g id="node7" class="node">
<title>T6</title>
<path fill="#0e1a14" stroke="#00d4aa" d="M269.5,-275.84C269.5,-275.84 166.5,-275.84 166.5,-275.84 160.5,-275.84 154.5,-269.84 154.5,-263.84 154.5,-263.84 154.5,-239.34 154.5,-239.34 154.5,-233.34 160.5,-227.34 166.5,-227.34 166.5,-227.34 269.5,-227.34 269.5,-227.34 275.5,-227.34 281.5,-233.34 281.5,-239.34 281.5,-239.34 281.5,-263.84 281.5,-263.84 281.5,-269.84 275.5,-275.84 269.5,-275.84"/>
<text text-anchor="middle" x="218" y="-261.39" font-family="Helvetica,sans-Serif" font-size="11.00" fill="#e0e6ed">Tier 6</text>
<text text-anchor="middle" x="218" y="-247.89" font-family="Helvetica,sans-Serif" font-size="11.00" fill="#e0e6ed">RETE&#45;UL rule engine</text>
<text text-anchor="middle" x="218" y="-234.39" font-family="Helvetica,sans-Serif" font-size="11.00" fill="#e0e6ed">&lt;1ms · in&#45;process</text>
</g>
<!-- T5&#45;&gt;T6 -->
<g id="edge8" class="edge">
<title>T5&#45;&gt;T6</title>
<path fill="none" stroke="#ff4757" stroke-dasharray="5,2" d="M235.99,-347.6C229.37,-342.69 223.5,-336.82 219.25,-329.84 211.68,-317.4 210.3,-301.61 211.23,-287.56"/>
<polygon fill="#ff4757" stroke="#ff4757" points="214.69,-288.09 212.3,-277.77 207.74,-287.33 214.69,-288.09"/>
<text text-anchor="middle" x="297.62" y="-320.34" font-family="Helvetica,sans-Serif" font-size="10.00" fill="#9be7d3">④ CB4 open / both Ollama down</text>
</g>
<!-- T5&#45;&gt;Done -->
<g id="edge14" class="edge">
<title>T5&#45;&gt;Done</title>
<path fill="none" stroke="#f39c12" d="M359.38,-347.47C365.96,-342.6 371.77,-336.78 376,-329.84 404.13,-283.68 406.04,-131.53 376,-86.59 366.95,-73.06 353.61,-63.09 338.98,-55.75"/>
<polygon fill="#f39c12" stroke="#f39c12" points="340.62,-52.65 330.07,-51.7 337.73,-59.02 340.62,-52.65"/>
<text text-anchor="middle" x="401.95" y="-199.84" font-family="Helvetica,sans-Serif" font-size="10.00" fill="#9be7d3">✓</text>
</g>
<!-- T7 -->
<g id="node8" class="node">
<title>T7</title>
<path fill="#0e1a14" stroke="#00d4aa" d="M324.25,-178.59C324.25,-178.59 231.75,-178.59 231.75,-178.59 225.75,-178.59 219.75,-172.59 219.75,-166.59 219.75,-166.59 219.75,-142.09 219.75,-142.09 219.75,-136.09 225.75,-130.09 231.75,-130.09 231.75,-130.09 324.25,-130.09 324.25,-130.09 330.25,-130.09 336.25,-136.09 336.25,-142.09 336.25,-142.09 336.25,-166.59 336.25,-166.59 336.25,-172.59 330.25,-178.59 324.25,-178.59"/>
<text text-anchor="middle" x="278" y="-164.14" font-family="Helvetica,sans-Serif" font-size="11.00" fill="#e0e6ed">Tier 7</text>
<text text-anchor="middle" x="278" y="-150.64" font-family="Helvetica,sans-Serif" font-size="11.00" fill="#e0e6ed">Static ack</text>
<text text-anchor="middle" x="278" y="-137.14" font-family="Helvetica,sans-Serif" font-size="11.00" fill="#e0e6ed">&lt;1ms · last resort</text>
</g>
<!-- T6&#45;&gt;T7 -->
<g id="edge2" class="edge">
<title>T6&#45;&gt;T7</title>
<path fill="none" stroke="#7a8fa6" stroke-dasharray="5,2" d="M232.83,-227.04C240.19,-215.37 249.19,-201.07 257.22,-188.32"/>
<polygon fill="#7a8fa6" stroke="#7a8fa6" points="259.96,-190.55 262.32,-180.22 254.03,-186.82 259.96,-190.55"/>
<text text-anchor="middle" x="271.09" y="-199.84" font-family="Helvetica,sans-Serif" font-size="10.00" fill="#9be7d3">fallback</text>
</g>
<!-- T6&#45;&gt;Done -->
<g id="edge15" class="edge">
<title>T6&#45;&gt;Done</title>
<path fill="none" stroke="#00d4aa" d="M185.31,-227.06C170.72,-214.52 155.08,-197.73 147.25,-178.59 137.74,-155.35 136.57,-144.81 147.25,-122.09 157.18,-100.97 175.05,-83.22 193.26,-69.38"/>
<polygon fill="#00d4aa" stroke="#00d4aa" points="194.92,-72.5 200.96,-63.8 190.81,-66.83 194.92,-72.5"/>
<text text-anchor="middle" x="179.12" y="-151.21" font-family="Helvetica,sans-Serif" font-size="10.00" fill="#9be7d3">✓ rule match</text>
</g>
<!-- T7&#45;&gt;Done -->
<g id="edge9" class="edge">
<title>T7&#45;&gt;Done</title>
<path fill="none" stroke="#00d4aa" d="M260.9,-129.91C257.67,-124.33 254.75,-118.21 253,-112.09 250.09,-101.92 248.88,-90.68 248.61,-80.01"/>
<polygon fill="#00d4aa" stroke="#00d4aa" points="252.11,-80.26 248.64,-70.25 245.11,-80.24 252.11,-80.26"/>
<text text-anchor="middle" x="314.5" y="-102.59" font-family="Helvetica,sans-Serif" font-size="10.00" fill="#9be7d3">⑤ static reply</text>
<text text-anchor="middle" x="314.5" y="-89.84" font-family="Helvetica,sans-Serif" font-size="10.00" fill="#9be7d3">(no&#45;blackhole guarantee)</text>
</g>
<!-- LG -->
<g id="node10" class="node">
<title>LG</title>
<path fill="#0e1a14" stroke="#3dd68c" d="M680.38,-889.09C680.38,-889.09 615.62,-889.09 615.62,-889.09 609.62,-889.09 603.62,-883.09 603.62,-877.09 603.62,-877.09 603.62,-865.09 603.62,-865.09 603.62,-859.09 609.62,-853.09 615.62,-853.09 615.62,-853.09 680.38,-853.09 680.38,-853.09 686.38,-853.09 692.38,-859.09 692.38,-865.09 692.38,-865.09 692.38,-877.09 692.38,-877.09 692.38,-883.09 686.38,-889.09 680.38,-889.09"/>
<text text-anchor="middle" x="648" y="-867.39" font-family="Helvetica,sans-Serif" font-size="11.00" fill="#e0e6ed">free (Gemini)</text>
</g>
<!-- LP -->
<g id="node11" class="node">
<title>LP</title>
<path fill="#1a1410" stroke="#f5a623" d="M695,-748.59C695,-748.59 601,-748.59 601,-748.59 595,-748.59 589,-742.59 589,-736.59 589,-736.59 589,-724.59 589,-724.59 589,-718.59 595,-712.59 601,-712.59 601,-712.59 695,-712.59 695,-712.59 701,-712.59 707,-718.59 707,-724.59 707,-724.59 707,-736.59 707,-736.59 707,-742.59 701,-748.59 695,-748.59"/>
<text text-anchor="middle" x="648" y="-726.89" font-family="Helvetica,sans-Serif" font-size="11.00" fill="#e0e6ed">paid (OpenRouter)</text>
</g>
<!-- LG&#45;&gt;LP -->
<!-- LI -->
<g id="node12" class="node">
<title>LI</title>
<path fill="#101a26" stroke="#4d96ff" d="M704.75,-614.59C704.75,-614.59 591.25,-614.59 591.25,-614.59 585.25,-614.59 579.25,-608.59 579.25,-602.59 579.25,-602.59 579.25,-590.59 579.25,-590.59 579.25,-584.59 585.25,-578.59 591.25,-578.59 591.25,-578.59 704.75,-578.59 704.75,-578.59 710.75,-578.59 716.75,-584.59 716.75,-590.59 716.75,-590.59 716.75,-602.59 716.75,-602.59 716.75,-608.59 710.75,-614.59 704.75,-614.59"/>
<text text-anchor="middle" x="648" y="-592.89" font-family="Helvetica,sans-Serif" font-size="11.00" fill="#e0e6ed">in&#45;process (mistral.rs)</text>
</g>
<!-- LP&#45;&gt;LI -->
<!-- LH -->
<g id="node13" class="node">
<title>LH</title>
<path fill="#1a140f" stroke="#f39c12" d="M681.12,-487.34C681.12,-487.34 614.88,-487.34 614.88,-487.34 608.88,-487.34 602.88,-481.34 602.88,-475.34 602.88,-475.34 602.88,-463.34 602.88,-463.34 602.88,-457.34 608.88,-451.34 614.88,-451.34 614.88,-451.34 681.12,-451.34 681.12,-451.34 687.12,-451.34 693.12,-457.34 693.12,-463.34 693.12,-463.34 693.12,-475.34 693.12,-475.34 693.12,-481.34 687.12,-487.34 681.12,-487.34"/>
<text text-anchor="middle" x="648" y="-465.64" font-family="Helvetica,sans-Serif" font-size="11.00" fill="#e0e6ed">http (Ollama)</text>
</g>
<!-- LI&#45;&gt;LH -->
<!-- LS -->
<g id="node14" class="node">
<title>LS</title>
<path fill="#0e1a14" stroke="#00d4aa" d="M719.38,-390.09C719.38,-390.09 576.62,-390.09 576.62,-390.09 570.62,-390.09 564.62,-384.09 564.62,-378.09 564.62,-378.09 564.62,-366.09 564.62,-366.09 564.62,-360.09 570.62,-354.09 576.62,-354.09 576.62,-354.09 719.38,-354.09 719.38,-354.09 725.38,-354.09 731.38,-360.09 731.38,-366.09 731.38,-366.09 731.38,-378.09 731.38,-378.09 731.38,-384.09 725.38,-390.09 719.38,-390.09"/>
<text text-anchor="middle" x="648" y="-368.39" font-family="Helvetica,sans-Serif" font-size="11.00" fill="#e0e6ed">synchronous (RETE&#45;UL/ack)</text>
</g>
<!-- LH&#45;&gt;LS -->
</g>
</svg>
