<?xml version="1.0" encoding="UTF-8" standalone="no"?>
<!DOCTYPE svg PUBLIC "-//W3C//DTD SVG 1.1//EN"
 "http://www.w3.org/Graphics/SVG/1.1/DTD/svg11.dtd">
<!-- Generated by graphviz version 12.2.1 (0)
 -->
<!-- Title: symbiosis Pages: 1 -->
<svg width="1727pt" height="596pt"
 viewBox="0.00 0.00 1727.25 595.75" xmlns="http://www.w3.org/2000/svg" xmlns:xlink="http://www.w3.org/1999/xlink">
<g id="graph0" class="graph" transform="scale(1 1) rotate(0) translate(36 559.75)">
<title>symbiosis</title>
<polygon fill="#0a0e17" stroke="none" points="-36,36 -36,-559.75 1691.25,-559.75 1691.25,36 -36,36"/>
<g id="clust1" class="cluster">
<title>cluster_marionette</title>
<path fill="#0a0e17" stroke="#00d4aa" d="M213.88,-161.38C213.88,-161.38 800.88,-161.38 800.88,-161.38 806.88,-161.38 812.88,-167.38 812.88,-173.38 812.88,-173.38 812.88,-503.75 812.88,-503.75 812.88,-509.75 806.88,-515.75 800.88,-515.75 800.88,-515.75 213.88,-515.75 213.88,-515.75 207.88,-515.75 201.88,-509.75 201.88,-503.75 201.88,-503.75 201.88,-173.38 201.88,-173.38 201.88,-167.38 207.88,-161.38 213.88,-161.38"/>
<text text-anchor="middle" x="507.38" y="-498.45" font-family="Helvetica,sans-Serif" font-size="14.00" fill="#00d4aa">Marionette MCP (this integration)</text>
</g>
<!-- M_clone -->
<g id="node1" class="node">
<title>M_clone</title>
<path fill="#141922" stroke="#1e2a3a" d="M388,-395.25C388,-395.25 249.75,-395.25 249.75,-395.25 243.75,-395.25 237.75,-389.25 237.75,-383.25 237.75,-383.25 237.75,-371.25 237.75,-371.25 237.75,-365.25 243.75,-359.25 249.75,-359.25 249.75,-359.25 388,-359.25 388,-359.25 394,-359.25 400,-365.25 400,-371.25 400,-371.25 400,-383.25 400,-383.25 400,-389.25 394,-395.25 388,-395.25"/>
<text text-anchor="middle" x="318.88" y="-380.5" font-family="Helvetica,sans-Serif" font-size="10.00" fill="#e0e6ed">upstream clone</text>
<text text-anchor="middle" x="318.88" y="-367.75" font-family="Helvetica,sans-Serif" font-size="10.00" fill="#e0e6ed">sub&#45;projects/marionette_mcp/</text>
</g>
<!-- M_catalog -->
<g id="node7" class="node">
<title>M_catalog</title>
<path fill="#141922" stroke="#1e2a3a" d="M415.38,-308C415.38,-308 222.38,-308 222.38,-308 216.38,-308 210.38,-302 210.38,-296 210.38,-296 210.38,-273.75 210.38,-273.75 210.38,-267.75 216.38,-261.75 222.38,-261.75 222.38,-261.75 415.38,-261.75 415.38,-261.75 421.38,-261.75 427.38,-267.75 427.38,-273.75 427.38,-273.75 427.38,-296 427.38,-296 427.38,-302 421.38,-308 415.38,-308"/>
<text text-anchor="middle" x="318.88" y="-294.5" font-family="Helvetica,sans-Serif" font-size="10.00" fill="#e0e6ed">FluffyChat</text>
<text text-anchor="middle" x="318.88" y="-281.75" font-family="Helvetica,sans-Serif" font-size="10.00" fill="#e0e6ed">integration_test/marionette/CATALOG.md</text>
<text text-anchor="middle" x="318.88" y="-269" font-family="Helvetica,sans-Serif" font-size="10.00" fill="#e0e6ed">(200 tests)</text>
</g>
<!-- M_clone&#45;&gt;M_catalog -->
<g id="edge7" class="edge">
<title>M_clone&#45;&gt;M_catalog</title>
<path fill="none" stroke="#7a8fa6" d="M318.88,-358.82C318.88,-347.72 318.88,-332.95 318.88,-319.62"/>
<polygon fill="#7a8fa6" stroke="#7a8fa6" points="322.38,-319.9 318.88,-309.9 315.38,-319.9 322.38,-319.9"/>
<text text-anchor="middle" x="348.5" y="-330.7" font-family="Times,serif" font-size="9.00" fill="#7a8fa6">pubspec dep</text>
</g>
<!-- M_rule -->
<g id="node2" class="node">
<title>M_rule</title>
<path fill="#141922" stroke="#1e2a3a" d="M792.88,-395.25C792.88,-395.25 632.88,-395.25 632.88,-395.25 626.88,-395.25 620.88,-389.25 620.88,-383.25 620.88,-383.25 620.88,-371.25 620.88,-371.25 620.88,-365.25 626.88,-359.25 632.88,-359.25 632.88,-359.25 792.88,-359.25 792.88,-359.25 798.88,-359.25 804.88,-365.25 804.88,-371.25 804.88,-371.25 804.88,-383.25 804.88,-383.25 804.88,-389.25 798.88,-395.25 792.88,-395.25"/>
<text text-anchor="middle" x="712.88" y="-380.5" font-family="Helvetica,sans-Serif" font-size="10.00" fill="#e0e6ed">.claude/rules/</text>
<text text-anchor="middle" x="712.88" y="-367.75" font-family="Helvetica,sans-Serif" font-size="10.00" fill="#e0e6ed">marionette&#45;mcp&#45;flutter&#45;testing.md</text>
</g>
<!-- M_agent -->
<g id="node3" class="node">
<title>M_agent</title>
<path fill="#141922" stroke="#1e2a3a" d="M512,-205.38C512,-205.38 403.75,-205.38 403.75,-205.38 397.75,-205.38 391.75,-199.38 391.75,-193.38 391.75,-193.38 391.75,-181.38 391.75,-181.38 391.75,-175.38 397.75,-169.38 403.75,-169.38 403.75,-169.38 512,-169.38 512,-169.38 518,-169.38 524,-175.38 524,-181.38 524,-181.38 524,-193.38 524,-193.38 524,-199.38 518,-205.38 512,-205.38"/>
<text text-anchor="middle" x="457.88" y="-190.62" font-family="Helvetica,sans-Serif" font-size="10.00" fill="#e0e6ed">.claude/agents/</text>
<text text-anchor="middle" x="457.88" y="-177.88" font-family="Helvetica,sans-Serif" font-size="10.00" fill="#e0e6ed">marionette&#45;explorer.md</text>
</g>
<!-- M_rule&#45;&gt;M_agent -->
<g id="edge3" class="edge">
<title>M_rule&#45;&gt;M_agent</title>
<path fill="none" stroke="#7a8fa6" d="M620.4,-360.6C561.77,-348.73 493.42,-330.61 473.88,-308 452.37,-283.12 451.22,-243.78 453.55,-217.06"/>
<polygon fill="#7a8fa6" stroke="#7a8fa6" points="457.01,-217.6 454.64,-207.28 450.05,-216.83 457.01,-217.6"/>
</g>
<!-- M_skill -->
<g id="node4" class="node">
<title>M_skill</title>
<path fill="#141922" stroke="#1e2a3a" d="M605.5,-302.88C605.5,-302.88 500.25,-302.88 500.25,-302.88 494.25,-302.88 488.25,-296.88 488.25,-290.88 488.25,-290.88 488.25,-278.88 488.25,-278.88 488.25,-272.88 494.25,-266.88 500.25,-266.88 500.25,-266.88 605.5,-266.88 605.5,-266.88 611.5,-266.88 617.5,-272.88 617.5,-278.88 617.5,-278.88 617.5,-290.88 617.5,-290.88 617.5,-296.88 611.5,-302.88 605.5,-302.88"/>
<text text-anchor="middle" x="552.88" y="-288.12" font-family="Helvetica,sans-Serif" font-size="10.00" fill="#e0e6ed">.claude/commands/</text>
<text text-anchor="middle" x="552.88" y="-275.38" font-family="Helvetica,sans-Serif" font-size="10.00" fill="#e0e6ed">marionette&#45;explore.md</text>
</g>
<!-- M_rule&#45;&gt;M_skill -->
<g id="edge4" class="edge">
<title>M_rule&#45;&gt;M_skill</title>
<path fill="none" stroke="#7a8fa6" d="M682.03,-358.82C656.79,-344.57 620.91,-324.3 593.36,-308.75"/>
<polygon fill="#7a8fa6" stroke="#7a8fa6" points="595.38,-305.86 584.95,-303.99 591.93,-311.96 595.38,-305.86"/>
</g>
<!-- M_hook -->
<g id="node6" class="node">
<title>M_hook</title>
<path fill="#141922" stroke="#1e2a3a" d="M792.75,-302.88C792.75,-302.88 659,-302.88 659,-302.88 653,-302.88 647,-296.88 647,-290.88 647,-290.88 647,-278.88 647,-278.88 647,-272.88 653,-266.88 659,-266.88 659,-266.88 792.75,-266.88 792.75,-266.88 798.75,-266.88 804.75,-272.88 804.75,-278.88 804.75,-278.88 804.75,-290.88 804.75,-290.88 804.75,-296.88 798.75,-302.88 792.75,-302.88"/>
<text text-anchor="middle" x="725.88" y="-288.12" font-family="Helvetica,sans-Serif" font-size="10.00" fill="#e0e6ed">settings.json hooks</text>
<text text-anchor="middle" x="725.88" y="-275.38" font-family="Helvetica,sans-Serif" font-size="10.00" fill="#e0e6ed">(SessionStart + PostToolUse)</text>
</g>
<!-- M_rule&#45;&gt;M_hook -->
<g id="edge5" class="edge">
<title>M_rule&#45;&gt;M_hook</title>
<path fill="none" stroke="#7a8fa6" d="M715.38,-358.82C717.2,-346.2 719.69,-328.85 721.8,-314.24"/>
<polygon fill="#7a8fa6" stroke="#7a8fa6" points="725.2,-315.14 723.16,-304.74 718.27,-314.14 725.2,-315.14"/>
</g>
<!-- Gemini -->
<g id="node15" class="node">
<title>Gemini</title>
<path fill="#141922" stroke="#7a8fa6" d="M1519.75,-113C1519.75,-113 1392,-113 1392,-113 1386,-113 1380,-107 1380,-101 1380,-101 1380,-89 1380,-89 1380,-83 1386,-77 1392,-77 1392,-77 1519.75,-77 1519.75,-77 1525.75,-77 1531.75,-83 1531.75,-89 1531.75,-89 1531.75,-101 1531.75,-101 1531.75,-107 1525.75,-113 1519.75,-113"/>
<text text-anchor="middle" x="1455.88" y="-98.25" font-family="Helvetica,sans-Serif" font-size="10.00" fill="#e0e6ed">Gemini CLI</text>
<text text-anchor="middle" x="1455.88" y="-85.5" font-family="Helvetica,sans-Serif" font-size="10.00" fill="#e0e6ed">(.gemini/rules/ mirror — A3)</text>
</g>
<!-- M_rule&#45;&gt;Gemini -->
<g id="edge18" class="edge">
<title>M_rule&#45;&gt;Gemini</title>
<path fill="none" stroke="#7a8fa6" stroke-dasharray="5,2" d="M805.36,-360.23C988.01,-327.82 1381.29,-253.86 1425.88,-210.5 1448.77,-188.24 1454.92,-150.81 1456.22,-124.84"/>
<polygon fill="#7a8fa6" stroke="#7a8fa6" points="1459.72,-125.07 1456.48,-114.98 1452.72,-124.88 1459.72,-125.07"/>
<text text-anchor="middle" x="1428.04" y="-233.2" font-family="Times,serif" font-size="9.00" fill="#7a8fa6">parity mirror — A3</text>
</g>
<!-- CI -->
<g id="node16" class="node">
<title>CI</title>
<path fill="#141922" stroke="#7a8fa6" d="M1643.25,-113C1643.25,-113 1572.5,-113 1572.5,-113 1566.5,-113 1560.5,-107 1560.5,-101 1560.5,-101 1560.5,-89 1560.5,-89 1560.5,-83 1566.5,-77 1572.5,-77 1572.5,-77 1643.25,-77 1643.25,-77 1649.25,-77 1655.25,-83 1655.25,-89 1655.25,-89 1655.25,-101 1655.25,-101 1655.25,-107 1649.25,-113 1643.25,-113"/>
<text text-anchor="middle" x="1607.88" y="-98.25" font-family="Helvetica,sans-Serif" font-size="10.00" fill="#e0e6ed">build&#45;supervisor</text>
<text text-anchor="middle" x="1607.88" y="-85.5" font-family="Helvetica,sans-Serif" font-size="10.00" fill="#e0e6ed">CI runner — A4</text>
</g>
<!-- M_rule&#45;&gt;CI -->
<g id="edge19" class="edge">
<title>M_rule&#45;&gt;CI</title>
<path fill="none" stroke="#7a8fa6" stroke-dasharray="5,2" d="M805.36,-361.39C810.27,-360.66 815.13,-359.94 819.88,-359.25 887.75,-349.42 904.89,-348.25 972.88,-339.25 1199.92,-309.19 1282.69,-359.93 1478.88,-241.75 1528.72,-211.73 1569.87,-156.15 1591.47,-122.98"/>
<polygon fill="#7a8fa6" stroke="#7a8fa6" points="1594.31,-125.05 1596.73,-114.74 1588.4,-121.29 1594.31,-125.05"/>
<text text-anchor="middle" x="1501.99" y="-233.2" font-family="Times,serif" font-size="9.00" fill="#7a8fa6">A4</text>
</g>
<!-- Smriti -->
<g id="node12" class="node">
<title>Smriti</title>
<path fill="#141922" stroke="#4d96ff" d="M557.25,-113C557.25,-113 486.5,-113 486.5,-113 480.5,-113 474.5,-107 474.5,-101 474.5,-101 474.5,-89 474.5,-89 474.5,-83 480.5,-77 486.5,-77 486.5,-77 557.25,-77 557.25,-77 563.25,-77 569.25,-83 569.25,-89 569.25,-89 569.25,-101 569.25,-101 569.25,-107 563.25,-113 557.25,-113"/>
<text text-anchor="middle" x="521.88" y="-98.25" font-family="Helvetica,sans-Serif" font-size="10.00" fill="#e0e6ed">smriti.db</text>
<text text-anchor="middle" x="521.88" y="-85.5" font-family="Helvetica,sans-Serif" font-size="10.00" fill="#e0e6ed">session_metrics</text>
</g>
<!-- M_agent&#45;&gt;Smriti -->
<g id="edge16" class="edge">
<title>M_agent&#45;&gt;Smriti</title>
<path fill="none" stroke="#7a8fa6" d="M470.21,-168.95C479.51,-155.82 492.42,-137.59 503.01,-122.64"/>
<polygon fill="#7a8fa6" stroke="#7a8fa6" points="505.78,-124.79 508.7,-114.61 500.06,-120.75 505.78,-124.79"/>
<text text-anchor="middle" x="531.61" y="-135.7" font-family="Times,serif" font-size="9.00" fill="#7a8fa6">session_metrics</text>
</g>
<!-- ZK -->
<g id="node17" class="node">
<title>ZK</title>
<path fill="#141922" stroke="#1e2a3a" d="M433.12,-113C433.12,-113 352.62,-113 352.62,-113 346.62,-113 340.62,-107 340.62,-101 340.62,-101 340.62,-89 340.62,-89 340.62,-83 346.62,-77 352.62,-77 352.62,-77 433.12,-77 433.12,-77 439.12,-77 445.12,-83 445.12,-89 445.12,-89 445.12,-101 445.12,-101 445.12,-107 439.12,-113 433.12,-113"/>
<text text-anchor="middle" x="392.88" y="-98.25" font-family="Helvetica,sans-Serif" font-size="10.00" fill="#e0e6ed">C3I&#45;ZK + FY27&#45;ZK</text>
<text text-anchor="middle" x="392.88" y="-85.5" font-family="Helvetica,sans-Serif" font-size="10.00" fill="#e0e6ed">knowledge ingest</text>
</g>
<!-- M_agent&#45;&gt;ZK -->
<g id="edge17" class="edge">
<title>M_agent&#45;&gt;ZK</title>
<path fill="none" stroke="#7a8fa6" d="M438.3,-169.09C430.85,-161.88 422.66,-153.13 416.38,-144.25 411.82,-137.81 407.71,-130.35 404.24,-123.26"/>
<polygon fill="#7a8fa6" stroke="#7a8fa6" points="407.65,-122.27 400.29,-114.65 401.28,-125.2 407.65,-122.27"/>
<text text-anchor="middle" x="448.62" y="-135.7" font-family="Times,serif" font-size="9.00" fill="#7a8fa6">ingest journal</text>
</g>
<!-- M_allium -->
<g id="node5" class="node">
<title>M_allium</title>
<path fill="#141922" stroke="#1e2a3a" d="M785.88,-482.5C785.88,-482.5 679.88,-482.5 679.88,-482.5 673.88,-482.5 667.88,-476.5 667.88,-470.5 667.88,-470.5 667.88,-458.5 667.88,-458.5 667.88,-452.5 673.88,-446.5 679.88,-446.5 679.88,-446.5 785.88,-446.5 785.88,-446.5 791.88,-446.5 797.88,-452.5 797.88,-458.5 797.88,-458.5 797.88,-470.5 797.88,-470.5 797.88,-476.5 791.88,-482.5 785.88,-482.5"/>
<text text-anchor="middle" x="732.88" y="-467.75" font-family="Helvetica,sans-Serif" font-size="10.00" fill="#e0e6ed">specs/allium/</text>
<text text-anchor="middle" x="732.88" y="-455" font-family="Helvetica,sans-Serif" font-size="10.00" fill="#e0e6ed">marionette_mcp.allium</text>
</g>
<!-- M_allium&#45;&gt;M_rule -->
<g id="edge6" class="edge">
<title>M_allium&#45;&gt;M_rule</title>
<path fill="none" stroke="#7a8fa6" d="M728.83,-446.25C726.14,-434.81 722.56,-419.54 719.47,-406.36"/>
<polygon fill="#7a8fa6" stroke="#7a8fa6" points="722.95,-405.89 717.26,-396.95 716.14,-407.48 722.95,-405.89"/>
<text text-anchor="middle" x="755.57" y="-417.95" font-family="Times,serif" font-size="9.00" fill="#7a8fa6">formal source</text>
</g>
<!-- TLA -->
<g id="node19" class="node">
<title>TLA</title>
<path fill="#141922" stroke="#7a8fa6" d="M913.38,-395.25C913.38,-395.25 846.38,-395.25 846.38,-395.25 840.38,-395.25 834.38,-389.25 834.38,-383.25 834.38,-383.25 834.38,-371.25 834.38,-371.25 834.38,-365.25 840.38,-359.25 846.38,-359.25 846.38,-359.25 913.38,-359.25 913.38,-359.25 919.38,-359.25 925.38,-365.25 925.38,-371.25 925.38,-371.25 925.38,-383.25 925.38,-383.25 925.38,-389.25 919.38,-395.25 913.38,-395.25"/>
<text text-anchor="middle" x="879.88" y="-380.5" font-family="Helvetica,sans-Serif" font-size="10.00" fill="#e0e6ed">Apalache TLA+</text>
<text text-anchor="middle" x="879.88" y="-367.75" font-family="Helvetica,sans-Serif" font-size="10.00" fill="#e0e6ed">stub — A2/A8</text>
</g>
<!-- M_allium&#45;&gt;TLA -->
<g id="edge20" class="edge">
<title>M_allium&#45;&gt;TLA</title>
<path fill="none" stroke="#7a8fa6" stroke-dasharray="5,2" d="M762.98,-446.04C785.27,-433.11 815.87,-415.37 840.17,-401.28"/>
<polygon fill="#7a8fa6" stroke="#7a8fa6" points="841.61,-404.49 848.5,-396.44 838.1,-398.43 841.61,-404.49"/>
<text text-anchor="middle" x="829.43" y="-417.95" font-family="Times,serif" font-size="9.00" fill="#7a8fa6">A2/A8</text>
</g>
<!-- M_hook&#45;&gt;M_agent -->
<g id="edge2" class="edge">
<title>M_hook&#45;&gt;M_agent</title>
<path fill="none" stroke="#e74c3c" stroke-dasharray="5,2" d="M677.03,-266.47C632.12,-250.46 565.4,-226.69 517.39,-209.58"/>
<polygon fill="#e74c3c" stroke="#e74c3c" points="518.86,-206.39 508.26,-206.33 516.51,-212.98 518.86,-206.39"/>
<text text-anchor="middle" x="641.54" y="-233.2" font-family="Times,serif" font-size="9.00" fill="#7a8fa6">advisory feedback</text>
</g>
<!-- Zenoh -->
<g id="node9" class="node">
<title>Zenoh</title>
<path fill="#141922" stroke="#00d4aa" d="M1143.38,-210.5C1143.38,-210.5 1004.38,-210.5 1004.38,-210.5 998.38,-210.5 992.38,-204.5 992.38,-198.5 992.38,-198.5 992.38,-176.25 992.38,-176.25 992.38,-170.25 998.38,-164.25 1004.38,-164.25 1004.38,-164.25 1143.38,-164.25 1143.38,-164.25 1149.38,-164.25 1155.38,-170.25 1155.38,-176.25 1155.38,-176.25 1155.38,-198.5 1155.38,-198.5 1155.38,-204.5 1149.38,-210.5 1143.38,-210.5"/>
<text text-anchor="middle" x="1073.88" y="-197" font-family="Helvetica,sans-Serif" font-size="10.00" fill="#e0e6ed">Zenoh router</text>
<text text-anchor="middle" x="1073.88" y="-184.25" font-family="Helvetica,sans-Serif" font-size="10.00" fill="#e0e6ed">TCP 7447</text>
<text text-anchor="middle" x="1073.88" y="-171.5" font-family="Helvetica,sans-Serif" font-size="10.00" fill="#e0e6ed">indrajaal/l5/test/marionette/**</text>
</g>
<!-- M_hook&#45;&gt;Zenoh -->
<g id="edge1" class="edge">
<title>M_hook&#45;&gt;Zenoh</title>
<path fill="none" stroke="#ffa502" d="M789.3,-266.47C843.02,-251.73 920.76,-230.39 981.42,-213.75"/>
<polygon fill="#ffa502" stroke="#ffa502" points="981.98,-217.22 990.69,-211.2 980.12,-210.47 981.98,-217.22"/>
<text text-anchor="middle" x="951.93" y="-233.2" font-family="Times,serif" font-size="9.00" fill="#7a8fa6">publish envelopes</text>
</g>
<!-- M_catalog&#45;&gt;M_agent -->
<g id="edge8" class="edge">
<title>M_catalog&#45;&gt;M_agent</title>
<path fill="none" stroke="#7a8fa6" d="M351.46,-261.48C372.99,-246.69 401.18,-227.33 423.13,-212.24"/>
<polygon fill="#7a8fa6" stroke="#7a8fa6" points="424.92,-215.26 431.18,-206.72 420.96,-209.49 424.92,-215.26"/>
<text text-anchor="middle" x="410.17" y="-233.2" font-family="Times,serif" font-size="9.00" fill="#7a8fa6">iterates</text>
</g>
<!-- Patrol -->
<g id="node8" class="node">
<title>Patrol</title>
<path fill="#141922" stroke="#3dd68c" d="M181.75,-205.38C181.75,-205.38 12,-205.38 12,-205.38 6,-205.38 0,-199.38 0,-193.38 0,-193.38 0,-181.38 0,-181.38 0,-175.38 6,-169.38 12,-169.38 12,-169.38 181.75,-169.38 181.75,-169.38 187.75,-169.38 193.75,-175.38 193.75,-181.38 193.75,-181.38 193.75,-193.38 193.75,-193.38 193.75,-199.38 187.75,-205.38 181.75,-205.38"/>
<text text-anchor="middle" x="96.88" y="-190.62" font-family="Helvetica,sans-Serif" font-size="10.00" fill="#e0e6ed">Patrol MCP</text>
<text text-anchor="middle" x="96.88" y="-177.88" font-family="Helvetica,sans-Serif" font-size="10.00" fill="#e0e6ed">(.claude/rules/patrol&#45;mcp&#45;zenoh.md)</text>
</g>
<!-- M_catalog&#45;&gt;Patrol -->
<g id="edge9" class="edge">
<title>M_catalog&#45;&gt;Patrol</title>
<path fill="none" stroke="#7a8fa6" d="M266.55,-261.36C230.61,-245.91 183.16,-225.49 147.58,-210.19"/>
<polygon fill="#7a8fa6" stroke="#7a8fa6" points="149.37,-207.15 138.8,-206.41 146.61,-213.58 149.37,-207.15"/>
<text text-anchor="middle" x="258.03" y="-233.2" font-family="Times,serif" font-size="9.00" fill="#7a8fa6">regression handoff</text>
</g>
<!-- RuleEngine -->
<g id="node10" class="node">
<title>RuleEngine</title>
<path fill="#141922" stroke="#9b59b6" d="M912.75,-205.38C912.75,-205.38 833,-205.38 833,-205.38 827,-205.38 821,-199.38 821,-193.38 821,-193.38 821,-181.38 821,-181.38 821,-175.38 827,-169.38 833,-169.38 833,-169.38 912.75,-169.38 912.75,-169.38 918.75,-169.38 924.75,-175.38 924.75,-181.38 924.75,-181.38 924.75,-193.38 924.75,-193.38 924.75,-199.38 918.75,-205.38 912.75,-205.38"/>
<text text-anchor="middle" x="872.88" y="-190.62" font-family="Helvetica,sans-Serif" font-size="10.00" fill="#e0e6ed">rule_engine.rs</text>
<text text-anchor="middle" x="872.88" y="-177.88" font-family="Helvetica,sans-Serif" font-size="10.00" fill="#e0e6ed">52 + 10 GRL rules</text>
</g>
<!-- Zenoh&#45;&gt;RuleEngine -->
<g id="edge10" class="edge">
<title>Zenoh&#45;&gt;RuleEngine</title>
<path fill="none" stroke="#7a8fa6" d="M992.25,-187.38C973.67,-187.38 954.2,-187.38 936.51,-187.38"/>
<polygon fill="#7a8fa6" stroke="#7a8fa6" points="936.67,-183.88 926.67,-187.38 936.67,-190.88 936.67,-183.88"/>
<text text-anchor="middle" x="958.56" y="-193.07" font-family="Times,serif" font-size="9.00" fill="#7a8fa6">subscribe</text>
</g>
<!-- Ruliology -->
<g id="node11" class="node">
<title>Ruliology</title>
<path fill="#141922" stroke="#9b59b6" d="M1399.5,-205.38C1399.5,-205.38 1252.25,-205.38 1252.25,-205.38 1246.25,-205.38 1240.25,-199.38 1240.25,-193.38 1240.25,-193.38 1240.25,-181.38 1240.25,-181.38 1240.25,-175.38 1246.25,-169.38 1252.25,-169.38 1252.25,-169.38 1399.5,-169.38 1399.5,-169.38 1405.5,-169.38 1411.5,-175.38 1411.5,-181.38 1411.5,-181.38 1411.5,-193.38 1411.5,-193.38 1411.5,-199.38 1405.5,-205.38 1399.5,-205.38"/>
<text text-anchor="middle" x="1325.88" y="-190.62" font-family="Helvetica,sans-Serif" font-size="10.00" fill="#e0e6ed">ruliology.rs</text>
<text text-anchor="middle" x="1325.88" y="-177.88" font-family="Helvetica,sans-Serif" font-size="10.00" fill="#e0e6ed">Rule 30/110/184 + CausalGraph</text>
</g>
<!-- Zenoh&#45;&gt;Ruliology -->
<g id="edge11" class="edge">
<title>Zenoh&#45;&gt;Ruliology</title>
<path fill="none" stroke="#7a8fa6" d="M1155.69,-187.38C1179.02,-187.38 1204.65,-187.38 1228.79,-187.38"/>
<polygon fill="#7a8fa6" stroke="#7a8fa6" points="1228.62,-190.88 1238.62,-187.38 1228.62,-183.88 1228.62,-190.88"/>
<text text-anchor="middle" x="1197.81" y="-193.07" font-family="Times,serif" font-size="9.00" fill="#7a8fa6">event topics</text>
</g>
<!-- Dashboard -->
<g id="node13" class="node">
<title>Dashboard</title>
<path fill="#141922" stroke="#f5a623" d="M1240.88,-113C1240.88,-113 1164.88,-113 1164.88,-113 1158.88,-113 1152.88,-107 1152.88,-101 1152.88,-101 1152.88,-89 1152.88,-89 1152.88,-83 1158.88,-77 1164.88,-77 1164.88,-77 1240.88,-77 1240.88,-77 1246.88,-77 1252.88,-83 1252.88,-89 1252.88,-89 1252.88,-101 1252.88,-101 1252.88,-107 1246.88,-113 1240.88,-113"/>
<text text-anchor="middle" x="1202.88" y="-98.25" font-family="Helvetica,sans-Serif" font-size="10.00" fill="#e0e6ed">Lustre dashboard</text>
<text text-anchor="middle" x="1202.88" y="-85.5" font-family="Helvetica,sans-Serif" font-size="10.00" fill="#e0e6ed">(planned tile)</text>
</g>
<!-- Zenoh&#45;&gt;Dashboard -->
<g id="edge12" class="edge">
<title>Zenoh&#45;&gt;Dashboard</title>
<path fill="none" stroke="#7a8fa6" d="M1106.09,-163.8C1125.12,-150.47 1149.19,-133.61 1168.57,-120.03"/>
<polygon fill="#7a8fa6" stroke="#7a8fa6" points="1170.52,-122.94 1176.7,-114.34 1166.5,-117.21 1170.52,-122.94"/>
<text text-anchor="middle" x="1167.18" y="-135.7" font-family="Times,serif" font-size="9.00" fill="#7a8fa6">live tile</text>
</g>
<!-- Pi -->
<g id="node14" class="node">
<title>Pi</title>
<path fill="#141922" stroke="#9b59b6" d="M982.75,-113C982.75,-113 909,-113 909,-113 903,-113 897,-107 897,-101 897,-101 897,-89 897,-89 897,-83 903,-77 909,-77 909,-77 982.75,-77 982.75,-77 988.75,-77 994.75,-83 994.75,-89 994.75,-89 994.75,-101 994.75,-101 994.75,-107 988.75,-113 982.75,-113"/>
<text text-anchor="middle" x="945.88" y="-98.25" font-family="Helvetica,sans-Serif" font-size="10.00" fill="#e0e6ed">Pi&#45;mono runtime</text>
<text text-anchor="middle" x="945.88" y="-85.5" font-family="Helvetica,sans-Serif" font-size="10.00" fill="#e0e6ed">(MoZ consumer)</text>
</g>
<!-- Zenoh&#45;&gt;Pi -->
<g id="edge14" class="edge">
<title>Zenoh&#45;&gt;Pi</title>
<path fill="none" stroke="#7a8fa6" d="M1041.91,-163.8C1023.03,-150.47 999.14,-133.61 979.91,-120.03"/>
<polygon fill="#7a8fa6" stroke="#7a8fa6" points="982.04,-117.25 971.85,-114.34 978,-122.97 982.04,-117.25"/>
<text text-anchor="middle" x="1023.84" y="-135.7" font-family="Times,serif" font-size="9.00" fill="#7a8fa6">MoZ</text>
</g>
<!-- FMEA -->
<g id="node18" class="node">
<title>FMEA</title>
<path fill="#141922" stroke="#f5a623" d="M1111.88,-113C1111.88,-113 1035.88,-113 1035.88,-113 1029.88,-113 1023.88,-107 1023.88,-101 1023.88,-101 1023.88,-89 1023.88,-89 1023.88,-83 1029.88,-77 1035.88,-77 1035.88,-77 1111.88,-77 1111.88,-77 1117.88,-77 1123.88,-83 1123.88,-89 1123.88,-89 1123.88,-101 1123.88,-101 1123.88,-107 1117.88,-113 1111.88,-113"/>
<text text-anchor="middle" x="1073.88" y="-98.25" font-family="Helvetica,sans-Serif" font-size="10.00" fill="#e0e6ed">FMEA aggregator</text>
<text text-anchor="middle" x="1073.88" y="-85.5" font-family="Helvetica,sans-Serif" font-size="10.00" fill="#e0e6ed">(planned)</text>
</g>
<!-- Zenoh&#45;&gt;FMEA -->
<g id="edge13" class="edge">
<title>Zenoh&#45;&gt;FMEA</title>
<path fill="none" stroke="#7a8fa6" d="M1073.88,-164.04C1073.88,-152.15 1073.88,-137.41 1073.88,-124.69"/>
<polygon fill="#7a8fa6" stroke="#7a8fa6" points="1077.38,-124.78 1073.88,-114.78 1070.38,-124.78 1077.38,-124.78"/>
<text text-anchor="middle" x="1099.75" y="-135.7" font-family="Times,serif" font-size="9.00" fill="#7a8fa6">RPN rollup</text>
</g>
<!-- RuleEngine&#45;&gt;Zenoh -->
<g id="edge15" class="edge">
<title>RuleEngine&#45;&gt;Zenoh</title>
<path fill="none" stroke="#e74c3c" stroke-dasharray="5,2" d="M925.1,-175.06C929.8,-174.28 934.5,-173.61 939.06,-173.12 952.54,-171.69 966.78,-171.62 980.76,-172.38"/>
<polygon fill="#e74c3c" stroke="#e74c3c" points="980.16,-175.85 990.38,-173.05 980.64,-168.86 980.16,-175.85"/>
<text text-anchor="middle" x="958.56" y="-175.82" font-family="Times,serif" font-size="9.00" fill="#7a8fa6">advisory</text>
</g>
<!-- Cockpit -->
<g id="node20" class="node">
<title>Cockpit</title>
<path fill="#141922" stroke="#1e2a3a" d="M1230.38,-36C1230.38,-36 1175.38,-36 1175.38,-36 1169.38,-36 1163.38,-30 1163.38,-24 1163.38,-24 1163.38,-12 1163.38,-12 1163.38,-6 1169.38,0 1175.38,0 1175.38,0 1230.38,0 1230.38,0 1236.38,0 1242.38,-6 1242.38,-12 1242.38,-12 1242.38,-24 1242.38,-24 1242.38,-30 1236.38,-36 1230.38,-36"/>
<text text-anchor="middle" x="1202.88" y="-21.25" font-family="Helvetica,sans-Serif" font-size="10.00" fill="#e0e6ed">Dark Cockpit</text>
<text text-anchor="middle" x="1202.88" y="-8.5" font-family="Helvetica,sans-Serif" font-size="10.00" fill="#e0e6ed">weather bar</text>
</g>
<!-- Dashboard&#45;&gt;Cockpit -->
<g id="edge21" class="edge">
<title>Dashboard&#45;&gt;Cockpit</title>
<path fill="none" stroke="#7a8fa6" d="M1202.88,-76.6C1202.88,-67.99 1202.88,-57.37 1202.88,-47.6"/>
<polygon fill="#7a8fa6" stroke="#7a8fa6" points="1206.38,-47.81 1202.88,-37.81 1199.38,-47.81 1206.38,-47.81"/>
</g>
</g>
</svg>
