<?xml version="1.0" encoding="UTF-8" standalone="no"?>
<!DOCTYPE svg PUBLIC "-//W3C//DTD SVG 1.1//EN"
 "http://www.w3.org/Graphics/SVG/1.1/DTD/svg11.dtd">
<!-- Generated by graphviz version 12.2.1 (0)
 -->
<!-- Title: capability_matrix Pages: 1 -->
<svg width="885pt" height="359pt"
 viewBox="0.00 0.00 885.00 358.88" xmlns="http://www.w3.org/2000/svg" xmlns:xlink="http://www.w3.org/1999/xlink">
<g id="graph0" class="graph" transform="scale(1 1) rotate(0) translate(36 322.88)">
<title>capability_matrix</title>
<polygon fill="#0a0e17" stroke="none" points="-36,36 -36,-322.88 849,-322.88 849,36 -36,36"/>
<g id="clust2" class="cluster">
<title>cluster_target</title>
<path fill="#0a0e17" stroke="#00d4aa" d="M299.5,-66C299.5,-66 492.5,-66 492.5,-66 498.5,-66 504.5,-72 504.5,-78 504.5,-78 504.5,-209 504.5,-209 504.5,-215 498.5,-221 492.5,-221 492.5,-221 299.5,-221 299.5,-221 293.5,-221 287.5,-215 287.5,-209 287.5,-209 287.5,-78 287.5,-78 287.5,-72 293.5,-66 299.5,-66"/>
<text text-anchor="middle" x="396" y="-203.7" font-family="Helvetica,sans-Serif" font-size="14.00" fill="#00d4aa">Integrated Substrate (target)</text>
</g>
<!-- SLURM -->
<g id="node1" class="node">
<title>SLURM</title>
<path fill="#3a1418" stroke="#e74c3c" d="M53,-273C53,-273 23,-273 23,-273 17,-273 11,-267 11,-261 11,-261 11,-249 11,-249 11,-243 17,-237 23,-237 23,-237 53,-237 53,-237 59,-237 65,-243 65,-249 65,-249 65,-261 65,-261 65,-267 59,-273 53,-273"/>
<text text-anchor="middle" x="38" y="-258.25" font-family="Helvetica,sans-Serif" font-size="10.00" fill="#e0e6ed">Slurm</text>
<text text-anchor="middle" x="38" y="-245.5" font-family="Helvetica,sans-Serif" font-size="10.00" fill="#e0e6ed">(HPC)</text>
</g>
<!-- KERNEL -->
<g id="node6" class="node">
<title>KERNEL</title>
<path fill="#143a32" stroke="#00d4aa" d="M445.12,-188.12C445.12,-188.12 345.88,-188.12 345.88,-188.12 339.88,-188.12 333.88,-182.12 333.88,-176.12 333.88,-176.12 333.88,-153.88 333.88,-153.88 333.88,-147.88 339.88,-141.88 345.88,-141.88 345.88,-141.88 445.12,-141.88 445.12,-141.88 451.12,-141.88 457.12,-147.88 457.12,-153.88 457.12,-153.88 457.12,-176.12 457.12,-176.12 457.12,-182.12 451.12,-188.12 445.12,-188.12"/>
<text text-anchor="middle" x="395.5" y="-174.62" font-family="Helvetica,sans-Serif" font-size="10.00" fill="#e0e6ed">sa&#45;plan kernel</text>
<text text-anchor="middle" x="395.5" y="-161.88" font-family="Helvetica,sans-Serif" font-size="10.00" fill="#e0e6ed">(Rust, runtime&#45;stable)</text>
<text text-anchor="middle" x="395.5" y="-149.12" font-family="Helvetica,sans-Serif" font-size="10.00" fill="#e0e6ed">12 capabilities</text>
</g>
<!-- SLURM&#45;&gt;KERNEL -->
<g id="edge1" class="edge">
<title>SLURM&#45;&gt;KERNEL</title>
<path fill="none" stroke="#7a8fa6" d="M65.44,-252.28C108.87,-247.41 197.73,-235.7 270.5,-215 291.13,-209.13 313.02,-200.99 332.57,-192.97"/>
<polygon fill="#7a8fa6" stroke="#7a8fa6" points="333.89,-196.21 341.77,-189.13 331.2,-189.75 333.89,-196.21"/>
<text text-anchor="middle" x="185.75" y="-279.28" font-family="Times,serif" font-size="8.00">C3 dispatch · C5 arrays · C6 deps</text>
<text text-anchor="middle" x="185.75" y="-269.53" font-family="Times,serif" font-size="8.00">C7 resource · C8 prio · C9 fair&#45;share</text>
<text text-anchor="middle" x="185.75" y="-259.78" font-family="Times,serif" font-size="8.00">C10 backfill · C11 QoS · C12 reserv</text>
<text text-anchor="middle" x="185.75" y="-250.03" font-family="Times,serif" font-size="8.00">C13 acct · C14 cgroup</text>
</g>
<!-- TEMPORAL -->
<g id="node2" class="node">
<title>TEMPORAL</title>
<path fill="#2a143a" stroke="#9b59b6" d="M59.88,-36C59.88,-36 16.12,-36 16.12,-36 10.12,-36 4.12,-30 4.12,-24 4.12,-24 4.12,-12 4.12,-12 4.12,-6 10.12,0 16.12,0 16.12,0 59.88,0 59.88,0 65.88,0 71.88,-6 71.88,-12 71.88,-12 71.88,-24 71.88,-24 71.88,-30 65.88,-36 59.88,-36"/>
<text text-anchor="middle" x="38" y="-21.25" font-family="Helvetica,sans-Serif" font-size="10.00" fill="#e0e6ed">Temporal</text>
<text text-anchor="middle" x="38" y="-8.5" font-family="Helvetica,sans-Serif" font-size="10.00" fill="#e0e6ed">(workflow)</text>
</g>
<!-- USERSPACE -->
<g id="node7" class="node">
<title>USERSPACE</title>
<path fill="#143a32" stroke="#00d4aa" d="M457.5,-120.12C457.5,-120.12 333.5,-120.12 333.5,-120.12 327.5,-120.12 321.5,-114.12 321.5,-108.12 321.5,-108.12 321.5,-85.88 321.5,-85.88 321.5,-79.88 327.5,-73.88 333.5,-73.88 333.5,-73.88 457.5,-73.88 457.5,-73.88 463.5,-73.88 469.5,-79.88 469.5,-85.88 469.5,-85.88 469.5,-108.12 469.5,-108.12 469.5,-114.12 463.5,-120.12 457.5,-120.12"/>
<text text-anchor="middle" x="395.5" y="-106.62" font-family="Helvetica,sans-Serif" font-size="10.00" fill="#e0e6ed">scripts&#45;gleam userspace</text>
<text text-anchor="middle" x="395.5" y="-93.88" font-family="Helvetica,sans-Serif" font-size="10.00" fill="#e0e6ed">(Gleam, freely recompiled)</text>
<text text-anchor="middle" x="395.5" y="-81.12" font-family="Helvetica,sans-Serif" font-size="10.00" fill="#e0e6ed">5 capabilities</text>
</g>
<!-- TEMPORAL&#45;&gt;USERSPACE -->
<g id="edge2" class="edge">
<title>TEMPORAL&#45;&gt;USERSPACE</title>
<path fill="none" stroke="#7a8fa6" d="M72.08,-19.58C117.46,-22.35 201.27,-29.58 270.5,-47.5 291.52,-52.94 313.76,-61.03 333.51,-69.09"/>
<polygon fill="#7a8fa6" stroke="#7a8fa6" points="331.92,-72.22 342.5,-72.84 334.62,-65.76 331.92,-72.22"/>
<text text-anchor="middle" x="185.75" y="-59.4" font-family="Times,serif" font-size="8.00">C19 heartbeat · C20 saga</text>
<text text-anchor="middle" x="185.75" y="-49.65" font-family="Times,serif" font-size="8.00">C21 signal · C22 query · C23 update</text>
</g>
<!-- OBAN -->
<g id="node3" class="node">
<title>OBAN</title>
<path fill="#143a25" stroke="#3dd68c" d="M53,-215C53,-215 23,-215 23,-215 17,-215 11,-209 11,-203 11,-203 11,-191 11,-191 11,-185 17,-179 23,-179 23,-179 53,-179 53,-179 59,-179 65,-185 65,-191 65,-191 65,-203 65,-203 65,-209 59,-215 53,-215"/>
<text text-anchor="middle" x="38" y="-200.25" font-family="Helvetica,sans-Serif" font-size="10.00" fill="#e0e6ed">Oban</text>
<text text-anchor="middle" x="38" y="-187.5" font-family="Helvetica,sans-Serif" font-size="10.00" fill="#e0e6ed">(queue)</text>
</g>
<!-- OBAN&#45;&gt;KERNEL -->
<g id="edge3" class="edge">
<title>OBAN&#45;&gt;KERNEL</title>
<path fill="none" stroke="#7a8fa6" d="M65.43,-194.62C119.11,-189.79 242.54,-178.68 322.03,-171.52"/>
<polygon fill="#7a8fa6" stroke="#7a8fa6" points="322.28,-175.02 331.92,-170.63 321.65,-168.04 322.28,-175.02"/>
<text text-anchor="middle" x="185.75" y="-202.78" font-family="Times,serif" font-size="8.00">C1 queue · C2 cron · C31 unique</text>
<text text-anchor="middle" x="185.75" y="-193.03" font-family="Times,serif" font-size="8.00">C32 retry · C33 telemetry · C34 persist</text>
</g>
<!-- OTP -->
<g id="node4" class="node">
<title>OTP</title>
<path fill="#3a2c14" stroke="#f39c12" d="M64,-94C64,-94 12,-94 12,-94 6,-94 0,-88 0,-82 0,-82 0,-70 0,-70 0,-64 6,-58 12,-58 12,-58 64,-58 64,-58 70,-58 76,-64 76,-70 76,-70 76,-82 76,-82 76,-88 70,-94 64,-94"/>
<text text-anchor="middle" x="38" y="-79.25" font-family="Helvetica,sans-Serif" font-size="10.00" fill="#e0e6ed">Gleam+OTP</text>
<text text-anchor="middle" x="38" y="-66.5" font-family="Helvetica,sans-Serif" font-size="10.00" fill="#e0e6ed">(BEAM)</text>
</g>
<!-- OTP&#45;&gt;USERSPACE -->
<g id="edge4" class="edge">
<title>OTP&#45;&gt;USERSPACE</title>
<path fill="none" stroke="#7a8fa6" d="M76.37,-74.15C122.2,-72.32 202.21,-70.54 270.5,-76.25 283.41,-77.33 297.01,-79.03 310.27,-80.99"/>
<polygon fill="#7a8fa6" stroke="#7a8fa6" points="309.4,-84.4 319.82,-82.47 310.47,-77.48 309.4,-84.4"/>
<text text-anchor="middle" x="185.75" y="-78.4" font-family="Times,serif" font-size="8.00">C28 dist Erlang · C29 ETS · C30 hot reload</text>
</g>
<!-- ASIS -->
<g id="node5" class="node">
<title>ASIS</title>
<path fill="#142a3a" stroke="#4d96ff" d="M56.12,-155C56.12,-155 19.88,-155 19.88,-155 13.88,-155 7.88,-149 7.88,-143 7.88,-143 7.88,-131 7.88,-131 7.88,-125 13.88,-119 19.88,-119 19.88,-119 56.12,-119 56.12,-119 62.12,-119 68.12,-125 68.12,-131 68.12,-131 68.12,-143 68.12,-143 68.12,-149 62.12,-155 56.12,-155"/>
<text text-anchor="middle" x="38" y="-140.25" font-family="Helvetica,sans-Serif" font-size="10.00" fill="#e0e6ed">C3I AS&#45;IS</text>
<text text-anchor="middle" x="38" y="-127.5" font-family="Helvetica,sans-Serif" font-size="10.00" fill="#e0e6ed">(today)</text>
</g>
<!-- ASIS&#45;&gt;KERNEL -->
<g id="edge5" class="edge">
<title>ASIS&#45;&gt;KERNEL</title>
<path fill="none" stroke="#7a8fa6" d="M68.28,-138.16C112.24,-140.03 197.91,-144.14 270.5,-150.5 287.33,-151.97 305.4,-153.89 322.4,-155.85"/>
<polygon fill="#7a8fa6" stroke="#7a8fa6" points="321.55,-159.28 331.89,-156.96 322.37,-152.32 321.55,-159.28"/>
<text text-anchor="middle" x="185.75" y="-162.4" font-family="Times,serif" font-size="8.00">C1&#45;C2 queues+cron</text>
<text text-anchor="middle" x="185.75" y="-152.65" font-family="Times,serif" font-size="8.00">C32&#45;C35 retry/persist/pause</text>
</g>
<!-- ASIS&#45;&gt;USERSPACE -->
<g id="edge6" class="edge">
<title>ASIS&#45;&gt;USERSPACE</title>
<path fill="none" stroke="#7a8fa6" d="M68.55,-130.83C78.79,-128.84 90.37,-126.77 101,-125.25 170.96,-115.28 250.81,-107.84 309.55,-103.11"/>
<polygon fill="#7a8fa6" stroke="#7a8fa6" points="309.8,-106.6 319.5,-102.32 309.25,-99.63 309.8,-106.6"/>
<text text-anchor="middle" x="185.75" y="-127.4" font-family="Times,serif" font-size="8.00">scripts/common/*</text>
</g>
<!-- end -->
<g id="node8" class="node">
<title>end</title>
<path fill="#143a25" stroke="#3dd68c" d="M801,-168.88C801,-168.88 638.75,-168.88 638.75,-168.88 632.75,-168.88 626.75,-162.88 626.75,-156.88 626.75,-156.88 626.75,-109.12 626.75,-109.12 626.75,-103.12 632.75,-97.12 638.75,-97.12 638.75,-97.12 801,-97.12 801,-97.12 807,-97.12 813,-103.12 813,-109.12 813,-109.12 813,-156.88 813,-156.88 813,-162.88 807,-168.88 801,-168.88"/>
<text text-anchor="middle" x="719.88" y="-155.38" font-family="Helvetica,sans-Serif" font-size="10.00" fill="#e0e6ed">Substrate</text>
<text text-anchor="middle" x="719.88" y="-142.62" font-family="Helvetica,sans-Serif" font-size="10.00" fill="#e0e6ed">Slurm&#45;grade + Temporal&#45;flavoured</text>
<text text-anchor="middle" x="719.88" y="-129.88" font-family="Helvetica,sans-Serif" font-size="10.00" fill="#e0e6ed">+ Oban&#45;foundational + OTP&#45;native</text>
<text text-anchor="middle" x="719.88" y="-117.12" font-family="Helvetica,sans-Serif" font-size="10.00" fill="#e0e6ed">+ Gleam&#45;extensible</text>
<text text-anchor="middle" x="719.88" y="-104.38" font-family="Helvetica,sans-Serif" font-size="10.00" fill="#e0e6ed">+ sa&#45;plan&#45;runtime&#45;stable</text>
</g>
<!-- KERNEL&#45;&gt;end -->
<g id="edge7" class="edge">
<title>KERNEL&#45;&gt;end</title>
<path fill="none" stroke="#7a8fa6" d="M457.52,-158.94C501.9,-154.54 563.08,-148.47 615.08,-143.3"/>
<polygon fill="#7a8fa6" stroke="#7a8fa6" points="615.26,-146.8 624.87,-142.33 614.57,-139.84 615.26,-146.8"/>
<text text-anchor="middle" x="561.62" y="-163.77" font-family="Times,serif" font-size="8.00">11 Rust patches</text>
<text text-anchor="middle" x="561.62" y="-154.02" font-family="Times,serif" font-size="8.00">P1&#45;P11 · ONE&#45;TIME</text>
</g>
<!-- USERSPACE&#45;&gt;end -->
<g id="edge8" class="edge">
<title>USERSPACE&#45;&gt;end</title>
<path fill="none" stroke="#7a8fa6" d="M469.65,-105.17C512.65,-109.97 567.7,-116.12 615.12,-121.41"/>
<polygon fill="#7a8fa6" stroke="#7a8fa6" points="614.54,-124.87 624.86,-122.5 615.31,-117.91 614.54,-124.87"/>
<text text-anchor="middle" x="561.62" y="-131.18" font-family="Times,serif" font-size="8.00">10 Gleam modules</text>
<text text-anchor="middle" x="561.62" y="-121.43" font-family="Times,serif" font-size="8.00">recompile freely</text>
</g>
</g>
</svg>
