<?xml version="1.0" encoding="UTF-8" standalone="no"?>
<!DOCTYPE svg PUBLIC "-//W3C//DTD SVG 1.1//EN"
 "http://www.w3.org/Graphics/SVG/1.1/DTD/svg11.dtd">
<!-- Generated by graphviz version 12.2.1 (0)
 -->
<!-- Title: cpm Pages: 1 -->
<svg width="1096pt" height="567pt"
 viewBox="0.00 0.00 1095.77 566.72" xmlns="http://www.w3.org/2000/svg" xmlns:xlink="http://www.w3.org/1999/xlink">
<g id="graph0" class="graph" transform="scale(1 1) rotate(0) translate(28.8 537.92)">
<title>cpm</title>
<polygon fill="#0a0e17" stroke="none" points="-28.8,28.8 -28.8,-537.92 1066.97,-537.92 1066.97,28.8 -28.8,28.8"/>
<!-- start -->
<g id="node1" class="node">
<title>start</title>
<ellipse fill="#143a25" stroke="#3dd68c" cx="146" cy="-333" rx="32.53" ry="23.69"/>
<text text-anchor="middle" x="146" y="-336.25" font-family="Helvetica,sans-Serif" font-size="10.00" fill="#e0e6ed">START</text>
<text text-anchor="middle" x="146" y="-323.5" font-family="Helvetica,sans-Serif" font-size="10.00" fill="#e0e6ed">(t=0)</text>
</g>
<!-- A1 -->
<g id="node3" class="node">
<title>A1</title>
<path fill="#3a1418" stroke="#ff4757" stroke-width="2" d="M395.75,-293C395.75,-293 349.75,-293 349.75,-293 343.75,-293 337.75,-287 337.75,-281 337.75,-281 337.75,-269 337.75,-269 337.75,-263 343.75,-257 349.75,-257 349.75,-257 395.75,-257 395.75,-257 401.75,-257 407.75,-263 407.75,-269 407.75,-269 407.75,-281 407.75,-281 407.75,-287 401.75,-293 395.75,-293"/>
<text text-anchor="middle" x="372.75" y="-278.25" font-family="Helvetica,sans-Serif" font-size="10.00" fill="#e0e6ed">A1 schema</text>
<text text-anchor="middle" x="372.75" y="-265.5" font-family="Helvetica,sans-Serif" font-size="10.00" fill="#e0e6ed">1.5d · CP</text>
</g>
<!-- start&#45;&gt;A1 -->
<g id="edge1" class="edge">
<title>start&#45;&gt;A1</title>
<path fill="none" stroke="#ff4757" stroke-width="2" d="M176.85,-325.3C214.56,-315.57 279.9,-298.7 324.45,-287.21"/>
<polygon fill="#ff4757" stroke="#ff4757" stroke-width="2" points="325.24,-290.62 334.05,-284.73 323.49,-283.84 325.24,-290.62"/>
</g>
<!-- A3 -->
<g id="node8" class="node">
<title>A3</title>
<path fill="#141922" stroke="#1e2a3a" d="M405.5,-438C405.5,-438 340,-438 340,-438 334,-438 328,-432 328,-426 328,-426 328,-414 328,-414 328,-408 334,-402 340,-402 340,-402 405.5,-402 405.5,-402 411.5,-402 417.5,-408 417.5,-414 417.5,-414 417.5,-426 417.5,-426 417.5,-432 411.5,-438 405.5,-438"/>
<text text-anchor="middle" x="372.75" y="-423.25" font-family="Helvetica,sans-Serif" font-size="10.00" fill="#e0e6ed">A3 gleam_run</text>
<text text-anchor="middle" x="372.75" y="-410.5" font-family="Helvetica,sans-Serif" font-size="10.00" fill="#e0e6ed">0.5d · slack 1.0</text>
</g>
<!-- start&#45;&gt;A3 -->
<g id="edge2" class="edge">
<title>start&#45;&gt;A3</title>
<path fill="none" stroke="#7a8fa6" d="M178.21,-337.72C208.24,-342.95 254.47,-352.86 292,-369 308.19,-375.96 324.81,-386.04 338.66,-395.41"/>
<polygon fill="#7a8fa6" stroke="#7a8fa6" points="336.32,-398.04 346.53,-400.86 340.31,-392.29 336.32,-398.04"/>
</g>
<!-- end -->
<g id="node2" class="node">
<title>end</title>
<ellipse fill="#143a25" stroke="#3dd68c" cx="1002.46" cy="-252" rx="35.71" ry="23.69"/>
<text text-anchor="middle" x="1002.46" y="-255.25" font-family="Helvetica,sans-Serif" font-size="10.00" fill="#e0e6ed">END</text>
<text text-anchor="middle" x="1002.46" y="-242.5" font-family="Helvetica,sans-Serif" font-size="10.00" fill="#e0e6ed">(t=7.0)</text>
</g>
<!-- A2 -->
<g id="node4" class="node">
<title>A2</title>
<path fill="#3a1418" stroke="#ff4757" stroke-width="2" d="M532.5,-97C532.5,-97 471.5,-97 471.5,-97 465.5,-97 459.5,-91 459.5,-85 459.5,-85 459.5,-73 459.5,-73 459.5,-67 465.5,-61 471.5,-61 471.5,-61 532.5,-61 532.5,-61 538.5,-61 544.5,-67 544.5,-73 544.5,-73 544.5,-85 544.5,-85 544.5,-91 538.5,-97 532.5,-97"/>
<text text-anchor="middle" x="502" y="-82.25" font-family="Helvetica,sans-Serif" font-size="10.00" fill="#e0e6ed">A2 accounting</text>
<text text-anchor="middle" x="502" y="-69.5" font-family="Helvetica,sans-Serif" font-size="10.00" fill="#e0e6ed">1d · CP</text>
</g>
<!-- A1&#45;&gt;A2 -->
<g id="edge3" class="edge">
<title>A1&#45;&gt;A2</title>
<path fill="none" stroke="#ff4757" stroke-width="2" d="M380.12,-256.05C391.34,-224.57 416.97,-160.53 453.5,-116 456.3,-112.58 459.48,-109.29 462.82,-106.16"/>
<polygon fill="#ff4757" stroke="#ff4757" stroke-width="2" points="464.9,-108.98 470.23,-99.83 460.36,-103.66 464.9,-108.98"/>
</g>
<!-- A4 -->
<g id="node9" class="node">
<title>A4</title>
<path fill="#141922" stroke="#1e2a3a" d="M538.5,-377C538.5,-377 465.5,-377 465.5,-377 459.5,-377 453.5,-371 453.5,-365 453.5,-365 453.5,-353 453.5,-353 453.5,-347 459.5,-341 465.5,-341 465.5,-341 538.5,-341 538.5,-341 544.5,-341 550.5,-347 550.5,-353 550.5,-353 550.5,-365 550.5,-365 550.5,-371 544.5,-377 538.5,-377"/>
<text text-anchor="middle" x="502" y="-362.25" font-family="Helvetica,sans-Serif" font-size="10.00" fill="#e0e6ed">A4 schedule&#45;add</text>
<text text-anchor="middle" x="502" y="-349.5" font-family="Helvetica,sans-Serif" font-size="10.00" fill="#e0e6ed">0.5d · slack 2.9</text>
</g>
<!-- A1&#45;&gt;A4 -->
<g id="edge4" class="edge">
<title>A1&#45;&gt;A4</title>
<path fill="none" stroke="#7a8fa6" d="M402.31,-293.85C420.36,-305.77 443.89,-321.3 463.45,-334.21"/>
<polygon fill="#7a8fa6" stroke="#7a8fa6" points="461.44,-337.08 471.71,-339.67 465.3,-331.24 461.44,-337.08"/>
</g>
<!-- A6 -->
<g id="node11" class="node">
<title>A6</title>
<path fill="#141922" stroke="#1e2a3a" d="M534.75,-438C534.75,-438 469.25,-438 469.25,-438 463.25,-438 457.25,-432 457.25,-426 457.25,-426 457.25,-414 457.25,-414 457.25,-408 463.25,-402 469.25,-402 469.25,-402 534.75,-402 534.75,-402 540.75,-402 546.75,-408 546.75,-414 546.75,-414 546.75,-426 546.75,-426 546.75,-432 540.75,-438 534.75,-438"/>
<text text-anchor="middle" x="502" y="-423.25" font-family="Helvetica,sans-Serif" font-size="10.00" fill="#e0e6ed">A6 jobs.gleam</text>
<text text-anchor="middle" x="502" y="-410.5" font-family="Helvetica,sans-Serif" font-size="10.00" fill="#e0e6ed">0.5d · slack 1.0</text>
</g>
<!-- A1&#45;&gt;A6 -->
<g id="edge5" class="edge">
<title>A1&#45;&gt;A6</title>
<path fill="none" stroke="#7a8fa6" d="M383.66,-293.84C397.1,-318.14 422.97,-360.76 453.5,-390 455.27,-391.7 457.16,-393.35 459.12,-394.96"/>
<polygon fill="#7a8fa6" stroke="#7a8fa6" points="456.72,-397.54 466.82,-400.73 460.91,-391.93 456.72,-397.54"/>
</g>
<!-- A8 -->
<g id="node13" class="node">
<title>A8</title>
<path fill="#141922" stroke="#1e2a3a" d="M664,-209C664,-209 598.5,-209 598.5,-209 592.5,-209 586.5,-203 586.5,-197 586.5,-197 586.5,-185 586.5,-185 586.5,-179 592.5,-173 598.5,-173 598.5,-173 664,-173 664,-173 670,-173 676,-179 676,-185 676,-185 676,-197 676,-197 676,-203 670,-209 664,-209"/>
<text text-anchor="middle" x="631.25" y="-194.25" font-family="Helvetica,sans-Serif" font-size="10.00" fill="#e0e6ed">A8 array</text>
<text text-anchor="middle" x="631.25" y="-181.5" font-family="Helvetica,sans-Serif" font-size="10.00" fill="#e0e6ed">1.5d · slack 3.0</text>
</g>
<!-- A1&#45;&gt;A8 -->
<g id="edge6" class="edge">
<title>A1&#45;&gt;A8</title>
<path fill="none" stroke="#7a8fa6" d="M393.72,-256.2C408.92,-243.03 430.99,-226.18 453.5,-217 492.24,-201.19 539.23,-194.82 575.02,-192.34"/>
<polygon fill="#7a8fa6" stroke="#7a8fa6" points="574.94,-195.85 584.71,-191.75 574.52,-188.86 574.94,-195.85"/>
</g>
<!-- A9 -->
<g id="node14" class="node">
<title>A9</title>
<path fill="#141922" stroke="#1e2a3a" d="M916.88,-158C916.88,-158 851.38,-158 851.38,-158 845.38,-158 839.38,-152 839.38,-146 839.38,-146 839.38,-134 839.38,-134 839.38,-128 845.38,-122 851.38,-122 851.38,-122 916.88,-122 916.88,-122 922.88,-122 928.88,-128 928.88,-134 928.88,-134 928.88,-146 928.88,-146 928.88,-152 922.88,-158 916.88,-158"/>
<text text-anchor="middle" x="884.12" y="-143.25" font-family="Helvetica,sans-Serif" font-size="10.00" fill="#e0e6ed">A9 deps</text>
<text text-anchor="middle" x="884.12" y="-130.5" font-family="Helvetica,sans-Serif" font-size="10.00" fill="#e0e6ed">1.5d · slack 3.0</text>
</g>
<!-- A1&#45;&gt;A9 -->
<g id="edge7" class="edge">
<title>A1&#45;&gt;A9</title>
<path fill="none" stroke="#7a8fa6" d="M385.99,-256.04C399.89,-236.12 424.44,-205.46 453.5,-189 573.25,-121.18 741.81,-125.37 827.86,-133.21"/>
<polygon fill="#7a8fa6" stroke="#7a8fa6" points="827.4,-136.68 837.69,-134.16 828.07,-129.71 827.4,-136.68"/>
</g>
<!-- A12 -->
<g id="node16" class="node">
<title>A12</title>
<path fill="#141922" stroke="#1e2a3a" d="M534.75,-265C534.75,-265 469.25,-265 469.25,-265 463.25,-265 457.25,-259 457.25,-253 457.25,-253 457.25,-241 457.25,-241 457.25,-235 463.25,-229 469.25,-229 469.25,-229 534.75,-229 534.75,-229 540.75,-229 546.75,-235 546.75,-241 546.75,-241 546.75,-253 546.75,-253 546.75,-259 540.75,-265 534.75,-265"/>
<text text-anchor="middle" x="502" y="-250.25" font-family="Helvetica,sans-Serif" font-size="10.00" fill="#e0e6ed">A12 CLIs</text>
<text text-anchor="middle" x="502" y="-237.5" font-family="Helvetica,sans-Serif" font-size="10.00" fill="#e0e6ed">1.5d · slack 3.0</text>
</g>
<!-- A1&#45;&gt;A12 -->
<g id="edge8" class="edge">
<title>A1&#45;&gt;A12</title>
<path fill="none" stroke="#7a8fa6" d="M408.52,-267.35C420.13,-264.79 433.37,-261.88 446.13,-259.07"/>
<polygon fill="#7a8fa6" stroke="#7a8fa6" points="446.67,-262.54 455.69,-256.97 445.17,-255.7 446.67,-262.54"/>
</g>
<!-- A15 -->
<g id="node18" class="node">
<title>A15</title>
<path fill="#141922" stroke="#1e2a3a" d="M659.5,-331C659.5,-331 603,-331 603,-331 597,-331 591,-325 591,-319 591,-319 591,-307 591,-307 591,-301 597,-295 603,-295 603,-295 659.5,-295 659.5,-295 665.5,-295 671.5,-301 671.5,-307 671.5,-307 671.5,-319 671.5,-319 671.5,-325 665.5,-331 659.5,-331"/>
<text text-anchor="middle" x="631.25" y="-316.25" font-family="Helvetica,sans-Serif" font-size="10.00" fill="#e0e6ed">A15 cgroup</text>
<text text-anchor="middle" x="631.25" y="-303.5" font-family="Helvetica,sans-Serif" font-size="10.00" fill="#e0e6ed">1d · slack 5.0</text>
</g>
<!-- A1&#45;&gt;A15 -->
<g id="edge9" class="edge">
<title>A1&#45;&gt;A15</title>
<path fill="none" stroke="#7a8fa6" d="M408.61,-280.16C452.71,-286.7 528.97,-298 579.52,-305.48"/>
<polygon fill="#7a8fa6" stroke="#7a8fa6" points="578.94,-308.94 589.34,-306.94 579.96,-302.01 578.94,-308.94"/>
</g>
<!-- A10 -->
<g id="node5" class="node">
<title>A10</title>
<path fill="#3a1418" stroke="#ff4757" stroke-width="2" d="M655.75,-97C655.75,-97 606.75,-97 606.75,-97 600.75,-97 594.75,-91 594.75,-85 594.75,-85 594.75,-73 594.75,-73 594.75,-67 600.75,-61 606.75,-61 606.75,-61 655.75,-61 655.75,-61 661.75,-61 667.75,-67 667.75,-73 667.75,-73 667.75,-85 667.75,-85 667.75,-91 661.75,-97 655.75,-97"/>
<text text-anchor="middle" x="631.25" y="-82.25" font-family="Helvetica,sans-Serif" font-size="10.00" fill="#e0e6ed">A10 priority</text>
<text text-anchor="middle" x="631.25" y="-69.5" font-family="Helvetica,sans-Serif" font-size="10.00" fill="#e0e6ed">2d · CP</text>
</g>
<!-- A2&#45;&gt;A10 -->
<g id="edge10" class="edge">
<title>A2&#45;&gt;A10</title>
<path fill="none" stroke="#ff4757" stroke-width="2" d="M545.37,-79C556.82,-79 569.31,-79 581.1,-79"/>
<polygon fill="#ff4757" stroke="#ff4757" stroke-width="2" points="580.99,-82.5 590.99,-79 580.99,-75.5 580.99,-82.5"/>
</g>
<!-- A13 -->
<g id="node6" class="node">
<title>A13</title>
<path fill="#3a1418" stroke="#ff4757" stroke-width="2" d="M781.25,-97C781.25,-97 732.25,-97 732.25,-97 726.25,-97 720.25,-91 720.25,-85 720.25,-85 720.25,-73 720.25,-73 720.25,-67 726.25,-61 732.25,-61 732.25,-61 781.25,-61 781.25,-61 787.25,-61 793.25,-67 793.25,-73 793.25,-73 793.25,-85 793.25,-85 793.25,-91 787.25,-97 781.25,-97"/>
<text text-anchor="middle" x="756.75" y="-82.25" font-family="Helvetica,sans-Serif" font-size="10.00" fill="#e0e6ed">A13 backfill</text>
<text text-anchor="middle" x="756.75" y="-69.5" font-family="Helvetica,sans-Serif" font-size="10.00" fill="#e0e6ed">2d · CP</text>
</g>
<!-- A10&#45;&gt;A13 -->
<g id="edge18" class="edge">
<title>A10&#45;&gt;A13</title>
<path fill="none" stroke="#ff4757" stroke-width="2" d="M668.64,-79C680.57,-79 694.04,-79 706.75,-79"/>
<polygon fill="#ff4757" stroke="#ff4757" stroke-width="2" points="706.6,-82.5 716.6,-79 706.6,-75.5 706.6,-82.5"/>
</g>
<!-- A17 -->
<g id="node20" class="node">
<title>A17</title>
<path fill="#141922" stroke="#1e2a3a" d="M789.5,-36C789.5,-36 724,-36 724,-36 718,-36 712,-30 712,-24 712,-24 712,-12 712,-12 712,-6 718,0 724,0 724,0 789.5,0 789.5,0 795.5,0 801.5,-6 801.5,-12 801.5,-12 801.5,-24 801.5,-24 801.5,-30 795.5,-36 789.5,-36"/>
<text text-anchor="middle" x="756.75" y="-21.25" font-family="Helvetica,sans-Serif" font-size="10.00" fill="#e0e6ed">A17 RETE&#45;UL</text>
<text text-anchor="middle" x="756.75" y="-8.5" font-family="Helvetica,sans-Serif" font-size="10.00" fill="#e0e6ed">0.5d · slack 2.5</text>
</g>
<!-- A10&#45;&gt;A17 -->
<g id="edge19" class="edge">
<title>A10&#45;&gt;A17</title>
<path fill="none" stroke="#7a8fa6" d="M668.64,-61.03C680.99,-54.93 694.98,-48.02 708.08,-41.55"/>
<polygon fill="#7a8fa6" stroke="#7a8fa6" points="709.57,-44.71 716.98,-37.15 706.47,-38.44 709.57,-44.71"/>
</g>
<!-- A19 -->
<g id="node7" class="node">
<title>A19</title>
<path fill="#3a1418" stroke="#ff4757" stroke-width="2" d="M902.25,-97C902.25,-97 866,-97 866,-97 860,-97 854,-91 854,-85 854,-85 854,-73 854,-73 854,-67 860,-61 866,-61 866,-61 902.25,-61 902.25,-61 908.25,-61 914.25,-67 914.25,-73 914.25,-73 914.25,-85 914.25,-85 914.25,-91 908.25,-97 902.25,-97"/>
<text text-anchor="middle" x="884.12" y="-82.25" font-family="Helvetica,sans-Serif" font-size="10.00" fill="#e0e6ed">A19 docs</text>
<text text-anchor="middle" x="884.12" y="-69.5" font-family="Helvetica,sans-Serif" font-size="10.00" fill="#e0e6ed">0.5d · CP</text>
</g>
<!-- A13&#45;&gt;A19 -->
<g id="edge23" class="edge">
<title>A13&#45;&gt;A19</title>
<path fill="none" stroke="#ff4757" stroke-width="2" d="M794.01,-79C808.56,-79 825.42,-79 840.54,-79"/>
<polygon fill="#ff4757" stroke="#ff4757" stroke-width="2" points="840.25,-82.5 850.25,-79 840.25,-75.5 840.25,-82.5"/>
</g>
<!-- A19&#45;&gt;end -->
<g id="edge24" class="edge">
<title>A19&#45;&gt;end</title>
<path fill="none" stroke="#ff4757" stroke-width="2" d="M914.92,-95.98C920.62,-100.08 926.21,-104.81 930.75,-110 958.33,-141.58 978.12,-185.82 989.62,-216.5"/>
<polygon fill="#ff4757" stroke="#ff4757" stroke-width="2" points="986.33,-217.67 993.02,-225.89 992.91,-215.29 986.33,-217.67"/>
</g>
<!-- A5 -->
<g id="node10" class="node">
<title>A5</title>
<path fill="#141922" stroke="#1e2a3a" d="M534.75,-509.12C534.75,-509.12 469.25,-509.12 469.25,-509.12 463.25,-509.12 457.25,-503.12 457.25,-497.12 457.25,-497.12 457.25,-474.88 457.25,-474.88 457.25,-468.88 463.25,-462.88 469.25,-462.88 469.25,-462.88 534.75,-462.88 534.75,-462.88 540.75,-462.88 546.75,-468.88 546.75,-474.88 546.75,-474.88 546.75,-497.12 546.75,-497.12 546.75,-503.12 540.75,-509.12 534.75,-509.12"/>
<text text-anchor="middle" x="502" y="-495.62" font-family="Helvetica,sans-Serif" font-size="10.00" fill="#e0e6ed">A5 marionette</text>
<text text-anchor="middle" x="502" y="-482.88" font-family="Helvetica,sans-Serif" font-size="10.00" fill="#e0e6ed">Gleam port</text>
<text text-anchor="middle" x="502" y="-470.12" font-family="Helvetica,sans-Serif" font-size="10.00" fill="#e0e6ed">1.5d · slack 4.0</text>
</g>
<!-- A3&#45;&gt;A5 -->
<g id="edge11" class="edge">
<title>A3&#45;&gt;A5</title>
<path fill="none" stroke="#7a8fa6" d="M409.2,-438.38C420.92,-444.46 434.24,-451.37 447.03,-458.01"/>
<polygon fill="#7a8fa6" stroke="#7a8fa6" points="445.29,-461.05 455.78,-462.55 448.52,-454.84 445.29,-461.05"/>
</g>
<!-- A3&#45;&gt;A6 -->
<g id="edge12" class="edge">
<title>A3&#45;&gt;A6</title>
<path fill="none" stroke="#7a8fa6" d="M417.9,-420C426.78,-420 436.23,-420 445.44,-420"/>
<polygon fill="#7a8fa6" stroke="#7a8fa6" points="445.42,-423.5 455.42,-420 445.42,-416.5 445.42,-423.5"/>
</g>
<!-- A7 -->
<g id="node12" class="node">
<title>A7</title>
<path fill="#141922" stroke="#1e2a3a" d="M664,-392C664,-392 598.5,-392 598.5,-392 592.5,-392 586.5,-386 586.5,-380 586.5,-380 586.5,-368 586.5,-368 586.5,-362 592.5,-356 598.5,-356 598.5,-356 664,-356 664,-356 670,-356 676,-362 676,-368 676,-368 676,-380 676,-380 676,-386 670,-392 664,-392"/>
<text text-anchor="middle" x="631.25" y="-377.25" font-family="Helvetica,sans-Serif" font-size="10.00" fill="#e0e6ed">A7 register</text>
<text text-anchor="middle" x="631.25" y="-364.5" font-family="Helvetica,sans-Serif" font-size="10.00" fill="#e0e6ed">0.1d · slack 4.0</text>
</g>
<!-- A4&#45;&gt;A7 -->
<g id="edge13" class="edge">
<title>A4&#45;&gt;A7</title>
<path fill="none" stroke="#7a8fa6" d="M550.75,-364.63C558.61,-365.55 566.81,-366.52 574.84,-367.47"/>
<polygon fill="#7a8fa6" stroke="#7a8fa6" points="574.18,-370.91 584.52,-368.61 575,-363.96 574.18,-370.91"/>
</g>
<!-- A5&#45;&gt;A7 -->
<g id="edge14" class="edge">
<title>A5&#45;&gt;A7</title>
<path fill="none" stroke="#7a8fa6" d="M536.15,-462.46C541.04,-458.73 545.96,-454.83 550.5,-451 569.36,-435.07 589.33,-415.78 604.58,-400.49"/>
<polygon fill="#7a8fa6" stroke="#7a8fa6" points="606.92,-403.1 611.46,-393.53 601.94,-398.18 606.92,-403.1"/>
</g>
<!-- A6&#45;&gt;A7 -->
<g id="edge15" class="edge">
<title>A6&#45;&gt;A7</title>
<path fill="none" stroke="#7a8fa6" d="M547.15,-404.04C556.33,-400.72 566.11,-397.19 575.61,-393.75"/>
<polygon fill="#7a8fa6" stroke="#7a8fa6" points="576.54,-397.14 584.76,-390.45 574.16,-390.55 576.54,-397.14"/>
</g>
<!-- A11 -->
<g id="node15" class="node">
<title>A11</title>
<path fill="#141922" stroke="#1e2a3a" d="M785,-453.12C785,-453.12 728.5,-453.12 728.5,-453.12 722.5,-453.12 716.5,-447.12 716.5,-441.12 716.5,-441.12 716.5,-418.88 716.5,-418.88 716.5,-412.88 722.5,-406.88 728.5,-406.88 728.5,-406.88 785,-406.88 785,-406.88 791,-406.88 797,-412.88 797,-418.88 797,-418.88 797,-441.12 797,-441.12 797,-447.12 791,-453.12 785,-453.12"/>
<text text-anchor="middle" x="756.75" y="-439.62" font-family="Helvetica,sans-Serif" font-size="10.00" fill="#e0e6ed">A11 common</text>
<text text-anchor="middle" x="756.75" y="-426.88" font-family="Helvetica,sans-Serif" font-size="10.00" fill="#e0e6ed">Gleam mods</text>
<text text-anchor="middle" x="756.75" y="-414.12" font-family="Helvetica,sans-Serif" font-size="10.00" fill="#e0e6ed">2d · slack 2.0</text>
</g>
<!-- A6&#45;&gt;A11 -->
<g id="edge16" class="edge">
<title>A6&#45;&gt;A11</title>
<path fill="none" stroke="#7a8fa6" d="M547.03,-421.74C591.1,-423.49 658.83,-426.17 705.1,-428"/>
<polygon fill="#7a8fa6" stroke="#7a8fa6" points="704.74,-431.48 714.87,-428.38 705.01,-424.49 704.74,-431.48"/>
</g>
<!-- A7&#45;&gt;end -->
<g id="edge28" class="edge">
<title>A7&#45;&gt;end</title>
<path fill="none" stroke="#7a8fa6" d="M676.48,-367.4C736.09,-357.47 844.67,-335.72 930.75,-298 943.95,-292.21 957.46,-284.08 969.08,-276.25"/>
<polygon fill="#7a8fa6" stroke="#7a8fa6" points="970.89,-279.25 977.11,-270.67 966.9,-273.5 970.89,-279.25"/>
</g>
<!-- A8&#45;&gt;end -->
<g id="edge30" class="edge">
<title>A8&#45;&gt;end</title>
<path fill="none" stroke="#7a8fa6" d="M676.42,-198.3C747.04,-209.97 884.67,-232.7 956.06,-244.5"/>
<polygon fill="#7a8fa6" stroke="#7a8fa6" points="955.42,-247.94 965.85,-246.12 956.56,-241.03 955.42,-247.94"/>
</g>
<!-- A9&#45;&gt;end -->
<g id="edge31" class="edge">
<title>A9&#45;&gt;end</title>
<path fill="none" stroke="#7a8fa6" d="M908.84,-158.24C916.05,-164.04 923.87,-170.62 930.75,-177 946.39,-191.52 962.8,-208.78 975.87,-223.09"/>
<polygon fill="#7a8fa6" stroke="#7a8fa6" points="973.22,-225.37 982.53,-230.44 978.41,-220.68 973.22,-225.37"/>
</g>
<!-- A16 -->
<g id="node19" class="node">
<title>A16</title>
<path fill="#141922" stroke="#1e2a3a" d="M918.75,-494C918.75,-494 849.5,-494 849.5,-494 843.5,-494 837.5,-488 837.5,-482 837.5,-482 837.5,-470 837.5,-470 837.5,-464 843.5,-458 849.5,-458 849.5,-458 918.75,-458 918.75,-458 924.75,-458 930.75,-464 930.75,-470 930.75,-470 930.75,-482 930.75,-482 930.75,-488 924.75,-494 918.75,-494"/>
<text text-anchor="middle" x="884.12" y="-479.25" font-family="Helvetica,sans-Serif" font-size="10.00" fill="#e0e6ed">A16 saga/hb/sig</text>
<text text-anchor="middle" x="884.12" y="-466.5" font-family="Helvetica,sans-Serif" font-size="10.00" fill="#e0e6ed">2.5d · slack 2.0</text>
</g>
<!-- A11&#45;&gt;A16 -->
<g id="edge17" class="edge">
<title>A11&#45;&gt;A16</title>
<path fill="none" stroke="#7a8fa6" d="M797.42,-444.55C806.69,-447.96 816.74,-451.65 826.59,-455.26"/>
<polygon fill="#7a8fa6" stroke="#7a8fa6" points="825.14,-458.45 835.73,-458.61 827.55,-451.88 825.14,-458.45"/>
</g>
<!-- A20 -->
<g id="node22" class="node">
<title>A20</title>
<path fill="#141922" stroke="#1e2a3a" d="M916.88,-433C916.88,-433 851.38,-433 851.38,-433 845.38,-433 839.38,-427 839.38,-421 839.38,-421 839.38,-409 839.38,-409 839.38,-403 845.38,-397 851.38,-397 851.38,-397 916.88,-397 916.88,-397 922.88,-397 928.88,-403 928.88,-409 928.88,-409 928.88,-421 928.88,-421 928.88,-427 922.88,-433 916.88,-433"/>
<text text-anchor="middle" x="884.12" y="-418.25" font-family="Helvetica,sans-Serif" font-size="10.00" fill="#e0e6ed">A20 valid</text>
<text text-anchor="middle" x="884.12" y="-405.5" font-family="Helvetica,sans-Serif" font-size="10.00" fill="#e0e6ed">0.5d · slack 1.5</text>
</g>
<!-- A11&#45;&gt;A20 -->
<g id="edge20" class="edge">
<title>A11&#45;&gt;A20</title>
<path fill="none" stroke="#7a8fa6" d="M797.42,-425.25C807.01,-424.11 817.44,-422.86 827.61,-421.64"/>
<polygon fill="#7a8fa6" stroke="#7a8fa6" points="827.91,-425.13 837.42,-420.47 827.07,-418.18 827.91,-425.13"/>
</g>
<!-- A14 -->
<g id="node17" class="node">
<title>A14</title>
<path fill="#141922" stroke="#1e2a3a" d="M664,-270C664,-270 598.5,-270 598.5,-270 592.5,-270 586.5,-264 586.5,-258 586.5,-258 586.5,-246 586.5,-246 586.5,-240 592.5,-234 598.5,-234 598.5,-234 664,-234 664,-234 670,-234 676,-240 676,-246 676,-246 676,-258 676,-258 676,-264 670,-270 664,-270"/>
<text text-anchor="middle" x="631.25" y="-255.25" font-family="Helvetica,sans-Serif" font-size="10.00" fill="#e0e6ed">A14 reserv</text>
<text text-anchor="middle" x="631.25" y="-242.5" font-family="Helvetica,sans-Serif" font-size="10.00" fill="#e0e6ed">1.5d · slack 3.0</text>
</g>
<!-- A12&#45;&gt;A14 -->
<g id="edge21" class="edge">
<title>A12&#45;&gt;A14</title>
<path fill="none" stroke="#7a8fa6" d="M547.15,-248.73C556.03,-249.08 565.48,-249.45 574.69,-249.82"/>
<polygon fill="#7a8fa6" stroke="#7a8fa6" points="574.54,-253.31 584.67,-250.21 574.81,-246.32 574.54,-253.31"/>
</g>
<!-- A18 -->
<g id="node21" class="node">
<title>A18</title>
<path fill="#141922" stroke="#1e2a3a" d="M785,-270C785,-270 728.5,-270 728.5,-270 722.5,-270 716.5,-264 716.5,-258 716.5,-258 716.5,-246 716.5,-246 716.5,-240 722.5,-234 728.5,-234 728.5,-234 785,-234 785,-234 791,-234 797,-240 797,-246 797,-246 797,-258 797,-258 797,-264 791,-270 785,-270"/>
<text text-anchor="middle" x="756.75" y="-255.25" font-family="Helvetica,sans-Serif" font-size="10.00" fill="#e0e6ed">A18 TLA+</text>
<text text-anchor="middle" x="756.75" y="-242.5" font-family="Helvetica,sans-Serif" font-size="10.00" fill="#e0e6ed">1d · slack 3.0</text>
</g>
<!-- A14&#45;&gt;A18 -->
<g id="edge22" class="edge">
<title>A14&#45;&gt;A18</title>
<path fill="none" stroke="#7a8fa6" d="M676.49,-252C685.74,-252 695.56,-252 705.03,-252"/>
<polygon fill="#7a8fa6" stroke="#7a8fa6" points="704.82,-255.5 714.82,-252 704.82,-248.5 704.82,-255.5"/>
</g>
<!-- A15&#45;&gt;end -->
<g id="edge29" class="edge">
<title>A15&#45;&gt;end</title>
<path fill="none" stroke="#7a8fa6" d="M671.63,-309.02C728.98,-302.87 838.71,-289.77 930.75,-271 939.68,-269.18 949.16,-266.89 958.18,-264.53"/>
<polygon fill="#7a8fa6" stroke="#7a8fa6" points="959.06,-267.92 967.81,-261.94 957.24,-261.16 959.06,-267.92"/>
</g>
<!-- A16&#45;&gt;end -->
<g id="edge26" class="edge">
<title>A16&#45;&gt;end</title>
<path fill="none" stroke="#7a8fa6" d="M918.66,-457.66C923.13,-454.21 927.34,-450.31 930.75,-446 968.48,-398.31 987.26,-328.63 995.63,-287.05"/>
<polygon fill="#7a8fa6" stroke="#7a8fa6" points="999.05,-287.82 997.49,-277.34 992.17,-286.51 999.05,-287.82"/>
</g>
<!-- A17&#45;&gt;end -->
<g id="edge32" class="edge">
<title>A17&#45;&gt;end</title>
<path fill="none" stroke="#7a8fa6" d="M801.97,-13.99C840.36,-12.98 895.21,-17.8 930.75,-48 980.8,-90.54 995.46,-170.43 999.73,-216.61"/>
<polygon fill="#7a8fa6" stroke="#7a8fa6" points="996.22,-216.65 1000.51,-226.34 1003.2,-216.1 996.22,-216.65"/>
</g>
<!-- A18&#45;&gt;end -->
<g id="edge25" class="edge">
<title>A18&#45;&gt;end</title>
<path fill="none" stroke="#7a8fa6" d="M797.45,-252C840.63,-252 909.57,-252 955.17,-252"/>
<polygon fill="#7a8fa6" stroke="#7a8fa6" points="955.01,-255.5 965.01,-252 955.01,-248.5 955.01,-255.5"/>
</g>
<!-- A20&#45;&gt;end -->
<g id="edge27" class="edge">
<title>A20&#45;&gt;end</title>
<path fill="none" stroke="#7a8fa6" d="M911.28,-396.59C918.09,-391.08 925.1,-384.71 930.75,-378 954.62,-349.68 974.48,-312.11 987.01,-285.39"/>
<polygon fill="#7a8fa6" stroke="#7a8fa6" points="990.15,-286.93 991.14,-276.38 983.79,-284.02 990.15,-286.93"/>
</g>
<!-- legend -->
<g id="node23" class="node">
<title>legend</title>
<path fill="#141922" stroke="none" d="M280,-428.12C280,-428.12 12,-428.12 12,-428.12 6,-428.12 0,-422.12 0,-416.12 0,-416.12 0,-393.88 0,-393.88 0,-387.88 6,-381.88 12,-381.88 12,-381.88 280,-381.88 280,-381.88 286,-381.88 292,-387.88 292,-393.88 292,-393.88 292,-416.12 292,-416.12 292,-422.12 286,-428.12 280,-428.12"/>
<text text-anchor="middle" x="146" y="-414.62" font-family="Helvetica,sans-Serif" font-size="10.00" fill="#7a8fa6">Critical Path = A1 → A2 → A10 → A13 → A19 = 7.0 days</text>
<text text-anchor="middle" x="146" y="-401.88" font-family="Helvetica,sans-Serif" font-size="10.00" fill="#7a8fa6">Non&#45;CP activities have slack 1.0–5.0 days, parallelisable</text>
<text text-anchor="middle" x="146" y="-389.12" font-family="Helvetica,sans-Serif" font-size="10.00" fill="#7a8fa6">4 simultaneous workers handle the full network</text>
</g>
</g>
</svg>
