<?xml version="1.0" encoding="UTF-8" standalone="no"?>
<!DOCTYPE svg PUBLIC "-//W3C//DTD SVG 1.1//EN"
 "http://www.w3.org/Graphics/SVG/1.1/DTD/svg11.dtd">
<!-- Generated by graphviz version 12.2.1 (0)
 -->
<!-- Title: sil6 Pages: 1 -->
<svg width="817pt" height="1146pt"
 viewBox="0.00 0.00 817.35 1145.60" xmlns="http://www.w3.org/2000/svg" xmlns:xlink="http://www.w3.org/1999/xlink">
<g id="graph0" class="graph" transform="scale(1 1) rotate(0) translate(28.8 1116.8)">
<title>sil6</title>
<polygon fill="#0a0e17" stroke="none" points="-28.8,28.8 -28.8,-1116.8 788.55,-1116.8 788.55,28.8 -28.8,28.8"/>
<g id="clust1" class="cluster">
<title>cluster_sil6</title>
<path fill="#0a0e17" stroke="#ff4757" d="M90.5,-223C90.5,-223 274.5,-223 274.5,-223 280.5,-223 286.5,-229 286.5,-235 286.5,-235 286.5,-1003 286.5,-1003 286.5,-1009 280.5,-1015 274.5,-1015 274.5,-1015 90.5,-1015 90.5,-1015 84.5,-1015 78.5,-1009 78.5,-1003 78.5,-1003 78.5,-235 78.5,-235 78.5,-229 84.5,-223 90.5,-223"/>
<text text-anchor="middle" x="182.5" y="-997.7" font-family="Helvetica,sans-Serif" font-size="14.00" fill="#ff4757">SIL&#45;6 Biomorphic invariants</text>
</g>
<g id="clust2" class="cluster">
<title>cluster_sched</title>
<path fill="#0a0e17" stroke="#00d4aa" d="M411,-548C411,-548 688.75,-548 688.75,-548 694.75,-548 700.75,-554 700.75,-560 700.75,-560 700.75,-1068 700.75,-1068 700.75,-1074 694.75,-1080 688.75,-1080 688.75,-1080 411,-1080 411,-1080 405,-1080 399,-1074 399,-1068 399,-1068 399,-560 399,-560 399,-554 405,-548 411,-548"/>
<text text-anchor="middle" x="549.88" y="-1062.7" font-family="Helvetica,sans-Serif" font-size="14.00" fill="#00d4aa">Integrated scheduler primitives</text>
</g>
<g id="clust3" class="cluster">
<title>cluster_scsil</title>
<path fill="#0a0e17" stroke="#f5a623" d="M567.5,-8C567.5,-8 739.75,-8 739.75,-8 745.75,-8 751.75,-14 751.75,-20 751.75,-20 751.75,-528 751.75,-528 751.75,-534 745.75,-540 739.75,-540 739.75,-540 567.5,-540 567.5,-540 561.5,-540 555.5,-534 555.5,-528 555.5,-528 555.5,-20 555.5,-20 555.5,-14 561.5,-8 567.5,-8"/>
<text text-anchor="middle" x="653.62" y="-522.7" font-family="Helvetica,sans-Serif" font-size="14.00" fill="#f5a623">SC&#45;SCHED&#45;SIL&#45;001..008</text>
</g>
<!-- GUARD -->
<g id="node1" class="node">
<title>GUARD</title>
<path fill="#141922" stroke="#ff4757" d="M215.5,-657C215.5,-657 148.5,-657 148.5,-657 142.5,-657 136.5,-651 136.5,-645 136.5,-645 136.5,-633 136.5,-633 136.5,-627 142.5,-621 148.5,-621 148.5,-621 215.5,-621 215.5,-621 221.5,-621 227.5,-627 227.5,-633 227.5,-633 227.5,-645 227.5,-645 227.5,-651 221.5,-657 215.5,-657"/>
<text text-anchor="middle" x="182" y="-642.25" font-family="Helvetica,sans-Serif" font-size="10.00" fill="#e0e6ed">Guardian gate</text>
<text text-anchor="middle" x="182" y="-629.5" font-family="Helvetica,sans-Serif" font-size="10.00" fill="#e0e6ed">SC&#45;SAFETY&#45;001</text>
</g>
<!-- DEQ -->
<g id="node13" class="node">
<title>DEQ</title>
<path fill="#143a32" stroke="#00d4aa" d="M508.5,-657C508.5,-657 419,-657 419,-657 413,-657 407,-651 407,-645 407,-645 407,-633 407,-633 407,-627 413,-621 419,-621 419,-621 508.5,-621 508.5,-621 514.5,-621 520.5,-627 520.5,-633 520.5,-633 520.5,-645 520.5,-645 520.5,-651 514.5,-657 508.5,-657"/>
<text text-anchor="middle" x="463.75" y="-635.88" font-family="Helvetica,sans-Serif" font-size="10.00" fill="#e0e6ed">dequeue + dispatch</text>
</g>
<!-- GUARD&#45;&gt;DEQ -->
<g id="edge1" class="edge">
<title>GUARD&#45;&gt;DEQ</title>
<path fill="none" stroke="#7a8fa6" d="M227.95,-639C273.11,-639 343.26,-639 395.14,-639"/>
<polygon fill="#7a8fa6" stroke="#7a8fa6" points="395.06,-642.5 405.06,-639 395.06,-635.5 395.06,-642.5"/>
</g>
<!-- Y2 -->
<g id="node2" class="node">
<title>Y2</title>
<path fill="#141922" stroke="#1e2a3a" d="M218.88,-462C218.88,-462 145.12,-462 145.12,-462 139.12,-462 133.12,-456 133.12,-450 133.12,-450 133.12,-438 133.12,-438 133.12,-432 139.12,-426 145.12,-426 145.12,-426 218.88,-426 218.88,-426 224.88,-426 230.88,-432 230.88,-438 230.88,-438 230.88,-450 230.88,-450 230.88,-456 224.88,-462 218.88,-462"/>
<text text-anchor="middle" x="182" y="-440.88" font-family="Helvetica,sans-Serif" font-size="10.00" fill="#e0e6ed">Ψ&#45;2 Reversibility</text>
</g>
<!-- PAUSE -->
<g id="node20" class="node">
<title>PAUSE</title>
<path fill="#143a32" stroke="#00d4aa" d="M507.75,-592C507.75,-592 419.75,-592 419.75,-592 413.75,-592 407.75,-586 407.75,-580 407.75,-580 407.75,-568 407.75,-568 407.75,-562 413.75,-556 419.75,-556 419.75,-556 507.75,-556 507.75,-556 513.75,-556 519.75,-562 519.75,-568 519.75,-568 519.75,-580 519.75,-580 519.75,-586 513.75,-592 507.75,-592"/>
<text text-anchor="middle" x="463.75" y="-570.88" font-family="Helvetica,sans-Serif" font-size="10.00" fill="#e0e6ed">scheduler&#45;pause&#45;all</text>
</g>
<!-- Y2&#45;&gt;PAUSE -->
<g id="edge5" class="edge">
<title>Y2&#45;&gt;PAUSE</title>
<path fill="none" stroke="#7a8fa6" d="M231.22,-445.12C269.19,-447.76 322.46,-455.46 364,-477 396.11,-493.65 424.59,-524.25 442.62,-546.64"/>
<polygon fill="#7a8fa6" stroke="#7a8fa6" points="439.83,-548.76 448.75,-554.48 445.34,-544.44 439.83,-548.76"/>
</g>
<!-- Y3 -->
<g id="node3" class="node">
<title>Y3</title>
<path fill="#141922" stroke="#1e2a3a" d="M215.5,-787C215.5,-787 148.5,-787 148.5,-787 142.5,-787 136.5,-781 136.5,-775 136.5,-775 136.5,-763 136.5,-763 136.5,-757 142.5,-751 148.5,-751 148.5,-751 215.5,-751 215.5,-751 221.5,-751 227.5,-757 227.5,-763 227.5,-763 227.5,-775 227.5,-775 227.5,-781 221.5,-787 215.5,-787"/>
<text text-anchor="middle" x="182" y="-765.88" font-family="Helvetica,sans-Serif" font-size="10.00" fill="#e0e6ed">Ψ&#45;3 Verification</text>
</g>
<!-- ACCT -->
<g id="node18" class="node">
<title>ACCT</title>
<path fill="#143a32" stroke="#00d4aa" d="M505.12,-722C505.12,-722 422.38,-722 422.38,-722 416.38,-722 410.38,-716 410.38,-710 410.38,-710 410.38,-698 410.38,-698 410.38,-692 416.38,-686 422.38,-686 422.38,-686 505.12,-686 505.12,-686 511.12,-686 517.12,-692 517.12,-698 517.12,-698 517.12,-710 517.12,-710 517.12,-716 511.12,-722 505.12,-722"/>
<text text-anchor="middle" x="463.75" y="-700.88" font-family="Helvetica,sans-Serif" font-size="10.00" fill="#e0e6ed">per&#45;job accounting</text>
</g>
<!-- Y3&#45;&gt;ACCT -->
<g id="edge7" class="edge">
<title>Y3&#45;&gt;ACCT</title>
<path fill="none" stroke="#7a8fa6" d="M227.65,-762.98C264.52,-757.57 318.07,-748.67 364,-737 376.26,-733.89 389.2,-730.01 401.53,-726.01"/>
<polygon fill="#7a8fa6" stroke="#7a8fa6" points="402.35,-729.43 410.74,-722.97 400.15,-722.79 402.35,-729.43"/>
</g>
<!-- DG -->
<g id="node4" class="node">
<title>DG</title>
<path fill="#141922" stroke="#1e2a3a" d="M207.25,-722C207.25,-722 156.75,-722 156.75,-722 150.75,-722 144.75,-716 144.75,-710 144.75,-710 144.75,-698 144.75,-698 144.75,-692 150.75,-686 156.75,-686 156.75,-686 207.25,-686 207.25,-686 213.25,-686 219.25,-692 219.25,-698 219.25,-698 219.25,-710 219.25,-710 219.25,-716 213.25,-722 207.25,-722"/>
<text text-anchor="middle" x="182" y="-707.25" font-family="Helvetica,sans-Serif" font-size="10.00" fill="#e0e6ed">dying&#45;gasp</text>
<text text-anchor="middle" x="182" y="-694.5" font-family="Helvetica,sans-Serif" font-size="10.00" fill="#e0e6ed">SC&#45;SIL4&#45;007</text>
</g>
<!-- DG&#45;&gt;ACCT -->
<g id="edge8" class="edge">
<title>DG&#45;&gt;ACCT</title>
<path fill="none" stroke="#7a8fa6" d="M219.57,-704C264.92,-704 343.01,-704 398.46,-704"/>
<polygon fill="#7a8fa6" stroke="#7a8fa6" points="398.41,-707.5 408.41,-704 398.41,-700.5 398.41,-707.5"/>
</g>
<!-- OOO -->
<g id="node5" class="node">
<title>OOO</title>
<path fill="#141922" stroke="#1e2a3a" d="M207.25,-852C207.25,-852 156.75,-852 156.75,-852 150.75,-852 144.75,-846 144.75,-840 144.75,-840 144.75,-828 144.75,-828 144.75,-822 150.75,-816 156.75,-816 156.75,-816 207.25,-816 207.25,-816 213.25,-816 219.25,-822 219.25,-828 219.25,-828 219.25,-840 219.25,-840 219.25,-846 213.25,-852 207.25,-852"/>
<text text-anchor="middle" x="182" y="-837.25" font-family="Helvetica,sans-Serif" font-size="10.00" fill="#e0e6ed">2oo3 voting</text>
<text text-anchor="middle" x="182" y="-824.5" font-family="Helvetica,sans-Serif" font-size="10.00" fill="#e0e6ed">SC&#45;SIL4&#45;006</text>
</g>
<!-- P0J -->
<g id="node19" class="node">
<title>P0J</title>
<path fill="#143a32" stroke="#00d4aa" d="M483.38,-852C483.38,-852 444.12,-852 444.12,-852 438.12,-852 432.12,-846 432.12,-840 432.12,-840 432.12,-828 432.12,-828 432.12,-822 438.12,-816 444.12,-816 444.12,-816 483.38,-816 483.38,-816 489.38,-816 495.38,-822 495.38,-828 495.38,-828 495.38,-840 495.38,-840 495.38,-846 489.38,-852 483.38,-852"/>
<text text-anchor="middle" x="463.75" y="-837.25" font-family="Helvetica,sans-Serif" font-size="10.00" fill="#e0e6ed">P0 job</text>
<text text-anchor="middle" x="463.75" y="-824.5" font-family="Helvetica,sans-Serif" font-size="10.00" fill="#e0e6ed">&#45;&#45;array=3</text>
</g>
<!-- OOO&#45;&gt;P0J -->
<g id="edge11" class="edge">
<title>OOO&#45;&gt;P0J</title>
<path fill="none" stroke="#7a8fa6" d="M219.57,-834C271.32,-834 365.67,-834 420.39,-834"/>
<polygon fill="#7a8fa6" stroke="#7a8fa6" points="420.25,-837.5 430.25,-834 420.25,-830.5 420.25,-837.5"/>
</g>
<!-- QUO -->
<g id="node6" class="node">
<title>QUO</title>
<path fill="#141922" stroke="#1e2a3a" d="M228.25,-527C228.25,-527 135.75,-527 135.75,-527 129.75,-527 123.75,-521 123.75,-515 123.75,-515 123.75,-503 123.75,-503 123.75,-497 129.75,-491 135.75,-491 135.75,-491 228.25,-491 228.25,-491 234.25,-491 240.25,-497 240.25,-503 240.25,-503 240.25,-515 240.25,-515 240.25,-521 234.25,-527 228.25,-527"/>
<text text-anchor="middle" x="182" y="-512.25" font-family="Helvetica,sans-Serif" font-size="10.00" fill="#e0e6ed">quorum floor(N/2)+1</text>
<text text-anchor="middle" x="182" y="-499.5" font-family="Helvetica,sans-Serif" font-size="10.00" fill="#e0e6ed">SC&#45;SIL4&#45;011</text>
</g>
<!-- QUO&#45;&gt;DEQ -->
<g id="edge3" class="edge">
<title>QUO&#45;&gt;DEQ</title>
<path fill="none" stroke="#7a8fa6" d="M240.61,-507.07C278.9,-508.57 328.48,-516.17 364,-542 390.54,-561.29 375.47,-584.13 399,-607 401.66,-609.59 404.58,-612.01 407.65,-614.27"/>
<polygon fill="#7a8fa6" stroke="#7a8fa6" points="405.69,-617.17 415.97,-619.73 409.53,-611.31 405.69,-617.17"/>
</g>
<!-- SIL1 -->
<g id="node22" class="node">
<title>SIL1</title>
<path fill="#141922" stroke="#1e2a3a" d="M693.12,-117C693.12,-117 614.12,-117 614.12,-117 608.12,-117 602.12,-111 602.12,-105 602.12,-105 602.12,-93 602.12,-93 602.12,-87 608.12,-81 614.12,-81 614.12,-81 693.12,-81 693.12,-81 699.12,-81 705.12,-87 705.12,-93 705.12,-93 705.12,-105 705.12,-105 705.12,-111 699.12,-117 693.12,-117"/>
<text text-anchor="middle" x="653.62" y="-95.88" font-family="Helvetica,sans-Serif" font-size="10.00" fill="#e0e6ed">&#45;001 quorum gate</text>
</g>
<!-- QUO&#45;&gt;SIL1 -->
<g id="edge4" class="edge">
<title>QUO&#45;&gt;SIL1</title>
<path fill="none" stroke="#7a8fa6" d="M240.75,-509.63C278.38,-507.55 327.17,-499.95 364,-477 464.01,-414.69 469.65,-369.29 520.5,-263 546.51,-208.64 514.33,-176.01 555.5,-132 565.05,-121.79 577.88,-114.74 591.08,-109.87"/>
<polygon fill="#7a8fa6" stroke="#7a8fa6" points="591.82,-113.31 600.25,-106.88 589.65,-106.65 591.82,-113.31"/>
</g>
<!-- SB -->
<g id="node7" class="node">
<title>SB</title>
<path fill="#141922" stroke="#1e2a3a" d="M227.12,-592C227.12,-592 136.88,-592 136.88,-592 130.88,-592 124.88,-586 124.88,-580 124.88,-580 124.88,-568 124.88,-568 124.88,-562 130.88,-556 136.88,-556 136.88,-556 227.12,-556 227.12,-556 233.12,-556 239.12,-562 239.12,-568 239.12,-568 239.12,-580 239.12,-580 239.12,-586 233.12,-592 227.12,-592"/>
<text text-anchor="middle" x="182" y="-577.25" font-family="Helvetica,sans-Serif" font-size="10.00" fill="#e0e6ed">split&#45;brain detection</text>
<text text-anchor="middle" x="182" y="-564.5" font-family="Helvetica,sans-Serif" font-size="10.00" fill="#e0e6ed">SC&#45;SIL4&#45;015</text>
</g>
<!-- SB&#45;&gt;PAUSE -->
<g id="edge13" class="edge">
<title>SB&#45;&gt;PAUSE</title>
<path fill="none" stroke="#7a8fa6" d="M239.61,-574C284.89,-574 348.48,-574 396.19,-574"/>
<polygon fill="#7a8fa6" stroke="#7a8fa6" points="396.14,-577.5 406.14,-574 396.14,-570.5 396.14,-577.5"/>
</g>
<!-- EM -->
<g id="node8" class="node">
<title>EM</title>
<path fill="#141922" stroke="#1e2a3a" d="M228.62,-397C228.62,-397 135.38,-397 135.38,-397 129.38,-397 123.38,-391 123.38,-385 123.38,-385 123.38,-373 123.38,-373 123.38,-367 129.38,-361 135.38,-361 135.38,-361 228.62,-361 228.62,-361 234.62,-361 240.62,-367 240.62,-373 240.62,-373 240.62,-385 240.62,-385 240.62,-391 234.62,-397 228.62,-397"/>
<text text-anchor="middle" x="182" y="-382.25" font-family="Helvetica,sans-Serif" font-size="10.00" fill="#e0e6ed">emergency stop &lt;5s</text>
<text text-anchor="middle" x="182" y="-369.5" font-family="Helvetica,sans-Serif" font-size="10.00" fill="#e0e6ed">SC&#45;SAFETY&#45;022</text>
</g>
<!-- EM&#45;&gt;SIL1 -->
<g id="edge15" class="edge">
<title>EM&#45;&gt;SIL1</title>
<path fill="none" stroke="#7a8fa6" d="M240.87,-378.38C278.11,-375.75 326.38,-368 364,-347 475.74,-284.64 448.84,-202.7 555.5,-132 566.23,-124.88 578.65,-119.16 590.95,-114.6"/>
<polygon fill="#7a8fa6" stroke="#7a8fa6" points="591.94,-117.96 600.25,-111.38 589.66,-111.34 591.94,-117.96"/>
</g>
<!-- WD -->
<g id="node9" class="node">
<title>WD</title>
<path fill="#141922" stroke="#1e2a3a" d="M233.5,-982C233.5,-982 130.5,-982 130.5,-982 124.5,-982 118.5,-976 118.5,-970 118.5,-970 118.5,-958 118.5,-958 118.5,-952 124.5,-946 130.5,-946 130.5,-946 233.5,-946 233.5,-946 239.5,-946 245.5,-952 245.5,-958 245.5,-958 245.5,-970 245.5,-970 245.5,-976 239.5,-982 233.5,-982"/>
<text text-anchor="middle" x="182" y="-967.25" font-family="Helvetica,sans-Serif" font-size="10.00" fill="#e0e6ed">state watchdog 100ms</text>
<text text-anchor="middle" x="182" y="-954.5" font-family="Helvetica,sans-Serif" font-size="10.00" fill="#e0e6ed">SC&#45;WATCHDOG&#45;001</text>
</g>
<!-- TICK -->
<g id="node21" class="node">
<title>TICK</title>
<path fill="#143a32" stroke="#00d4aa" d="M680.75,-1047C680.75,-1047 626.5,-1047 626.5,-1047 620.5,-1047 614.5,-1041 614.5,-1035 614.5,-1035 614.5,-1023 614.5,-1023 614.5,-1017 620.5,-1011 626.5,-1011 626.5,-1011 680.75,-1011 680.75,-1011 686.75,-1011 692.75,-1017 692.75,-1023 692.75,-1023 692.75,-1035 692.75,-1035 692.75,-1041 686.75,-1047 680.75,-1047"/>
<text text-anchor="middle" x="653.62" y="-1025.88" font-family="Helvetica,sans-Serif" font-size="10.00" fill="#e0e6ed">tick &lt;100ms</text>
</g>
<!-- WD&#45;&gt;TICK -->
<g id="edge16" class="edge">
<title>WD&#45;&gt;TICK</title>
<path fill="none" stroke="#7a8fa6" d="M245.61,-967.69C282.86,-972.54 329.45,-983.49 364,-1008 387.33,-1024.55 373.87,-1048.34 399,-1062 463.42,-1097.01 550.26,-1073.13 603.79,-1051.76"/>
<polygon fill="#7a8fa6" stroke="#7a8fa6" points="605.05,-1055.02 612.96,-1047.98 602.38,-1048.55 605.05,-1055.02"/>
</g>
<!-- TC -->
<g id="node10" class="node">
<title>TC</title>
<path fill="#141922" stroke="#1e2a3a" d="M230.12,-917C230.12,-917 133.88,-917 133.88,-917 127.88,-917 121.88,-911 121.88,-905 121.88,-905 121.88,-893 121.88,-893 121.88,-887 127.88,-881 133.88,-881 133.88,-881 230.12,-881 230.12,-881 236.12,-881 242.12,-887 242.12,-893 242.12,-893 242.12,-905 242.12,-905 242.12,-911 236.12,-917 230.12,-917"/>
<text text-anchor="middle" x="182" y="-902.25" font-family="Helvetica,sans-Serif" font-size="10.00" fill="#e0e6ed">tricameral consensus</text>
<text text-anchor="middle" x="182" y="-889.5" font-family="Helvetica,sans-Serif" font-size="10.00" fill="#e0e6ed">SC&#45;CONSENSUS&#45;001</text>
</g>
<!-- RESV -->
<g id="node16" class="node">
<title>RESV</title>
<path fill="#143a32" stroke="#00d4aa" d="M487.5,-982C487.5,-982 440,-982 440,-982 434,-982 428,-976 428,-970 428,-970 428,-958 428,-958 428,-952 434,-946 440,-946 440,-946 487.5,-946 487.5,-946 493.5,-946 499.5,-952 499.5,-958 499.5,-958 499.5,-970 499.5,-970 499.5,-976 493.5,-982 487.5,-982"/>
<text text-anchor="middle" x="463.75" y="-960.88" font-family="Helvetica,sans-Serif" font-size="10.00" fill="#e0e6ed">reservation</text>
</g>
<!-- TC&#45;&gt;RESV -->
<g id="edge18" class="edge">
<title>TC&#45;&gt;RESV</title>
<path fill="none" stroke="#7a8fa6" d="M242.53,-907.81C278.04,-913.57 323.89,-921.89 364,-932 381.63,-936.44 400.71,-942.36 417.35,-947.89"/>
<polygon fill="#7a8fa6" stroke="#7a8fa6" points="415.86,-951.08 426.45,-950.96 418.1,-944.45 415.86,-951.08"/>
</g>
<!-- BD -->
<g id="node11" class="node">
<title>BD</title>
<path fill="#141922" stroke="#1e2a3a" d="M207.25,-267C207.25,-267 156.75,-267 156.75,-267 150.75,-267 144.75,-261 144.75,-255 144.75,-255 144.75,-243 144.75,-243 144.75,-237 150.75,-231 156.75,-231 156.75,-231 207.25,-231 207.25,-231 213.25,-231 219.25,-237 219.25,-243 219.25,-243 219.25,-255 219.25,-255 219.25,-261 213.25,-267 207.25,-267"/>
<text text-anchor="middle" x="182" y="-252.25" font-family="Helvetica,sans-Serif" font-size="10.00" fill="#e0e6ed">boot DAG</text>
<text text-anchor="middle" x="182" y="-239.5" font-family="Helvetica,sans-Serif" font-size="10.00" fill="#e0e6ed">SC&#45;SIL4&#45;010</text>
</g>
<!-- SIL8 -->
<g id="node29" class="node">
<title>SIL8</title>
<path fill="#141922" stroke="#1e2a3a" d="M699.5,-52C699.5,-52 607.75,-52 607.75,-52 601.75,-52 595.75,-46 595.75,-40 595.75,-40 595.75,-28 595.75,-28 595.75,-22 601.75,-16 607.75,-16 607.75,-16 699.5,-16 699.5,-16 705.5,-16 711.5,-22 711.5,-28 711.5,-28 711.5,-40 711.5,-40 711.5,-46 705.5,-52 699.5,-52"/>
<text text-anchor="middle" x="653.62" y="-30.88" font-family="Helvetica,sans-Serif" font-size="10.00" fill="#e0e6ed">&#45;008 boot DAG tier 7</text>
</g>
<!-- BD&#45;&gt;SIL8 -->
<g id="edge20" class="edge">
<title>BD&#45;&gt;SIL8</title>
<path fill="none" stroke="#7a8fa6" d="M216.99,-230.57C281.71,-195.91 427.57,-119.74 555.5,-67 564.87,-63.14 574.88,-59.36 584.77,-55.82"/>
<polygon fill="#7a8fa6" stroke="#7a8fa6" points="585.72,-59.2 594,-52.59 583.4,-52.59 585.72,-59.2"/>
</g>
<!-- IR -->
<g id="node12" class="node">
<title>IR</title>
<path fill="#141922" stroke="#1e2a3a" d="M226.38,-332C226.38,-332 137.62,-332 137.62,-332 131.62,-332 125.62,-326 125.62,-320 125.62,-320 125.62,-308 125.62,-308 125.62,-302 131.62,-296 137.62,-296 137.62,-296 226.38,-296 226.38,-296 232.38,-296 238.38,-302 238.38,-308 238.38,-308 238.38,-320 238.38,-320 238.38,-326 232.38,-332 226.38,-332"/>
<text text-anchor="middle" x="182" y="-317.25" font-family="Helvetica,sans-Serif" font-size="10.00" fill="#e0e6ed">Immutable Register</text>
<text text-anchor="middle" x="182" y="-304.5" font-family="Helvetica,sans-Serif" font-size="10.00" fill="#e0e6ed">SC&#45;FUNC&#45;006</text>
</g>
<!-- DEQ&#45;&gt;SIL1 -->
<g id="edge2" class="edge">
<title>DEQ&#45;&gt;SIL1</title>
<path fill="none" stroke="#7a8fa6" d="M507.57,-620.61C512.63,-616.8 517.17,-612.29 520.5,-607 576.87,-517.42 490.74,-215.72 555.5,-132 564.31,-120.61 577.25,-113.12 590.83,-108.21"/>
<polygon fill="#7a8fa6" stroke="#7a8fa6" points="591.84,-111.56 600.34,-105.24 589.76,-104.87 591.84,-111.56"/>
</g>
<!-- PRIO -->
<g id="node14" class="node">
<title>PRIO</title>
<path fill="#143a32" stroke="#00d4aa" d="M505.88,-1047C505.88,-1047 421.62,-1047 421.62,-1047 415.62,-1047 409.62,-1041 409.62,-1035 409.62,-1035 409.62,-1023 409.62,-1023 409.62,-1017 415.62,-1011 421.62,-1011 421.62,-1011 505.88,-1011 505.88,-1011 511.88,-1011 517.88,-1017 517.88,-1023 517.88,-1023 517.88,-1035 517.88,-1035 517.88,-1041 511.88,-1047 505.88,-1047"/>
<text text-anchor="middle" x="463.75" y="-1025.88" font-family="Helvetica,sans-Serif" font-size="10.00" fill="#e0e6ed">multifactor priority</text>
</g>
<!-- PRIO&#45;&gt;TICK -->
<g id="edge23" class="edge">
<title>PRIO&#45;&gt;TICK</title>
<path fill="none" stroke="#7a8fa6" d="M518.34,-1029C544.86,-1029 576.68,-1029 602.69,-1029"/>
<polygon fill="#7a8fa6" stroke="#7a8fa6" points="602.68,-1032.5 612.68,-1029 602.68,-1025.5 602.68,-1032.5"/>
</g>
<!-- PREMP -->
<g id="node15" class="node">
<title>PREMP</title>
<path fill="#143a32" stroke="#00d4aa" d="M499.12,-787C499.12,-787 428.38,-787 428.38,-787 422.38,-787 416.38,-781 416.38,-775 416.38,-775 416.38,-763 416.38,-763 416.38,-757 422.38,-751 428.38,-751 428.38,-751 499.12,-751 499.12,-751 505.12,-751 511.12,-757 511.12,-763 511.12,-763 511.12,-775 511.12,-775 511.12,-781 505.12,-787 499.12,-787"/>
<text text-anchor="middle" x="463.75" y="-765.88" font-family="Helvetica,sans-Serif" font-size="10.00" fill="#e0e6ed">QoS preemption</text>
</g>
<!-- SIL4 -->
<g id="node25" class="node">
<title>SIL4</title>
<path fill="#141922" stroke="#1e2a3a" d="M731.75,-247C731.75,-247 575.5,-247 575.5,-247 569.5,-247 563.5,-241 563.5,-235 563.5,-235 563.5,-223 563.5,-223 563.5,-217 569.5,-211 575.5,-211 575.5,-211 731.75,-211 731.75,-211 737.75,-211 743.75,-217 743.75,-223 743.75,-223 743.75,-235 743.75,-235 743.75,-241 737.75,-247 731.75,-247"/>
<text text-anchor="middle" x="653.62" y="-225.88" font-family="Helvetica,sans-Serif" font-size="10.00" fill="#e0e6ed">&#45;004 SIGTERM→SIGKILL apoptosis</text>
</g>
<!-- PREMP&#45;&gt;SIL4 -->
<g id="edge21" class="edge">
<title>PREMP&#45;&gt;SIL4</title>
<path fill="none" stroke="#7a8fa6" d="M507.57,-750.61C512.63,-746.8 517.17,-742.29 520.5,-737 576.87,-647.42 490.74,-345.72 555.5,-262 557.72,-259.13 560.19,-256.52 562.88,-254.12"/>
<polygon fill="#7a8fa6" stroke="#7a8fa6" points="564.97,-256.93 570.87,-248.13 560.77,-251.33 564.97,-256.93"/>
</g>
<!-- SIL3 -->
<g id="node24" class="node">
<title>SIL3</title>
<path fill="#141922" stroke="#1e2a3a" d="M716.75,-442C716.75,-442 590.5,-442 590.5,-442 584.5,-442 578.5,-436 578.5,-430 578.5,-430 578.5,-418 578.5,-418 578.5,-412 584.5,-406 590.5,-406 590.5,-406 716.75,-406 716.75,-406 722.75,-406 728.75,-412 728.75,-418 728.75,-418 728.75,-430 728.75,-430 728.75,-436 722.75,-442 716.75,-442"/>
<text text-anchor="middle" x="653.62" y="-420.88" font-family="Helvetica,sans-Serif" font-size="10.00" fill="#e0e6ed">&#45;003 long&#45;reserv consensus</text>
</g>
<!-- RESV&#45;&gt;SIL3 -->
<g id="edge19" class="edge">
<title>RESV&#45;&gt;SIL3</title>
<path fill="none" stroke="#7a8fa6" d="M499.96,-950.65C507.97,-945.96 515.57,-939.84 520.5,-932 576.87,-842.42 490.74,-540.72 555.5,-457 559.15,-452.28 563.51,-448.23 568.33,-444.75"/>
<polygon fill="#7a8fa6" stroke="#7a8fa6" points="570.12,-447.76 576.82,-439.55 566.46,-441.8 570.12,-447.76"/>
</g>
<!-- CGRP -->
<g id="node17" class="node">
<title>CGRP</title>
<path fill="#143a32" stroke="#00d4aa" d="M489.75,-917C489.75,-917 437.75,-917 437.75,-917 431.75,-917 425.75,-911 425.75,-905 425.75,-905 425.75,-893 425.75,-893 425.75,-887 431.75,-881 437.75,-881 437.75,-881 489.75,-881 489.75,-881 495.75,-881 501.75,-887 501.75,-893 501.75,-893 501.75,-905 501.75,-905 501.75,-911 495.75,-917 489.75,-917"/>
<text text-anchor="middle" x="463.75" y="-895.88" font-family="Helvetica,sans-Serif" font-size="10.00" fill="#e0e6ed">cgroup wrap</text>
</g>
<!-- SIL7 -->
<g id="node28" class="node">
<title>SIL7</title>
<path fill="#141922" stroke="#1e2a3a" d="M705.5,-377C705.5,-377 601.75,-377 601.75,-377 595.75,-377 589.75,-371 589.75,-365 589.75,-365 589.75,-353 589.75,-353 589.75,-347 595.75,-341 601.75,-341 601.75,-341 705.5,-341 705.5,-341 711.5,-341 717.5,-347 717.5,-353 717.5,-353 717.5,-365 717.5,-365 717.5,-371 711.5,-377 705.5,-377"/>
<text text-anchor="middle" x="653.62" y="-355.88" font-family="Helvetica,sans-Serif" font-size="10.00" fill="#e0e6ed">&#45;007 cgroup for L0 jobs</text>
</g>
<!-- CGRP&#45;&gt;SIL7 -->
<g id="edge22" class="edge">
<title>CGRP&#45;&gt;SIL7</title>
<path fill="none" stroke="#7a8fa6" d="M501.98,-884.43C509.23,-879.92 515.98,-874.18 520.5,-867 576.87,-777.42 490.74,-475.72 555.5,-392 561.68,-384.02 569.88,-377.95 578.9,-373.35"/>
<polygon fill="#7a8fa6" stroke="#7a8fa6" points="580.25,-376.58 588,-369.35 577.43,-370.17 580.25,-376.58"/>
</g>
<!-- SIL6 -->
<g id="node27" class="node">
<title>SIL6</title>
<path fill="#141922" stroke="#1e2a3a" d="M699.5,-182C699.5,-182 607.75,-182 607.75,-182 601.75,-182 595.75,-176 595.75,-170 595.75,-170 595.75,-158 595.75,-158 595.75,-152 601.75,-146 607.75,-146 607.75,-146 699.5,-146 699.5,-146 705.5,-146 711.5,-152 711.5,-158 711.5,-158 711.5,-170 711.5,-170 711.5,-176 705.5,-182 699.5,-182"/>
<text text-anchor="middle" x="653.62" y="-160.88" font-family="Helvetica,sans-Serif" font-size="10.00" fill="#e0e6ed">&#45;006 mutations to IR</text>
</g>
<!-- ACCT&#45;&gt;SIL6 -->
<g id="edge9" class="edge">
<title>ACCT&#45;&gt;SIL6</title>
<path fill="none" stroke="#7a8fa6" d="M507.57,-685.61C512.63,-681.8 517.17,-677.29 520.5,-672 576.87,-582.42 490.74,-280.72 555.5,-197 563.01,-187.29 573.51,-180.42 584.85,-175.56"/>
<polygon fill="#7a8fa6" stroke="#7a8fa6" points="585.86,-178.92 594.02,-172.17 583.43,-172.36 585.86,-178.92"/>
</g>
<!-- SIL2 -->
<g id="node23" class="node">
<title>SIL2</title>
<path fill="#141922" stroke="#1e2a3a" d="M687.12,-312C687.12,-312 620.12,-312 620.12,-312 614.12,-312 608.12,-306 608.12,-300 608.12,-300 608.12,-288 608.12,-288 608.12,-282 614.12,-276 620.12,-276 620.12,-276 687.12,-276 687.12,-276 693.12,-276 699.12,-282 699.12,-288 699.12,-288 699.12,-300 699.12,-300 699.12,-306 693.12,-312 687.12,-312"/>
<text text-anchor="middle" x="653.62" y="-290.88" font-family="Helvetica,sans-Serif" font-size="10.00" fill="#e0e6ed">&#45;002 P0 = 2oo3</text>
</g>
<!-- P0J&#45;&gt;SIL2 -->
<g id="edge12" class="edge">
<title>P0J&#45;&gt;SIL2</title>
<path fill="none" stroke="#7a8fa6" d="M495.59,-823.06C505.14,-818.12 514.68,-811.26 520.5,-802 576.87,-712.42 490.74,-410.72 555.5,-327 565.64,-313.9 581.23,-305.96 596.98,-301.16"/>
<polygon fill="#7a8fa6" stroke="#7a8fa6" points="597.59,-304.62 606.38,-298.7 595.82,-297.85 597.59,-304.62"/>
</g>
<!-- PAUSE&#45;&gt;EM -->
<g id="edge6" class="edge">
<title>PAUSE&#45;&gt;EM</title>
<path fill="none" stroke="#7a8fa6" d="M459.39,-555.6C449.94,-517.8 420.07,-436.01 364,-397.5 331.57,-375.23 288.45,-366.75 252.43,-365.56"/>
<polygon fill="#7a8fa6" stroke="#7a8fa6" points="252.56,-362.06 242.52,-365.44 252.48,-369.06 252.56,-362.06"/>
</g>
<!-- PAUSE&#45;&gt;EM -->
<g id="edge14" class="edge">
<title>PAUSE&#45;&gt;EM</title>
<path fill="none" stroke="#7a8fa6" d="M453.73,-555.56C440.38,-523.22 411.65,-459.23 364,-426.5 331.57,-404.23 288.45,-395.75 252.43,-391.33"/>
<polygon fill="#7a8fa6" stroke="#7a8fa6" points="252.84,-387.85 242.51,-390.2 252.05,-394.81 252.84,-387.85"/>
</g>
<!-- SIL5 -->
<g id="node26" class="node">
<title>SIL5</title>
<path fill="#141922" stroke="#1e2a3a" d="M693.12,-507C693.12,-507 614.12,-507 614.12,-507 608.12,-507 602.12,-501 602.12,-495 602.12,-495 602.12,-483 602.12,-483 602.12,-477 608.12,-471 614.12,-471 614.12,-471 693.12,-471 693.12,-471 699.12,-471 705.12,-477 705.12,-483 705.12,-483 705.12,-495 705.12,-495 705.12,-501 699.12,-507 693.12,-507"/>
<text text-anchor="middle" x="653.62" y="-485.88" font-family="Helvetica,sans-Serif" font-size="10.00" fill="#e0e6ed">&#45;005 tick &lt;100ms</text>
</g>
<!-- TICK&#45;&gt;SIL5 -->
<g id="edge17" class="edge">
<title>TICK&#45;&gt;SIL5</title>
<path fill="none" stroke="#7a8fa6" d="M653.62,-1010.66C653.62,-846.7 653.62,-682.73 653.62,-518.76"/>
<polygon fill="#7a8fa6" stroke="#7a8fa6" points="657.13,-518.97 653.63,-508.97 650.13,-518.97 657.13,-518.97"/>
</g>
<!-- SIL6&#45;&gt;IR -->
<g id="edge10" class="edge">
<title>SIL6&#45;&gt;IR</title>
<path fill="none" stroke="#7a8fa6" d="M595.56,-182.43C582.33,-186.97 568.35,-191.98 555.5,-197 468.77,-230.9 453.06,-254.81 364,-282 327.12,-293.26 284.73,-301.02 250.24,-306.08"/>
<polygon fill="#7a8fa6" stroke="#7a8fa6" points="249.78,-302.61 240.37,-307.48 250.76,-309.54 249.78,-302.61"/>
</g>
<!-- legend -->
<g id="node30" class="node">
<title>legend</title>
<path fill="#141922" stroke="none" d="M352,-1069.12C352,-1069.12 12,-1069.12 12,-1069.12 6,-1069.12 0,-1063.12 0,-1057.12 0,-1057.12 0,-1034.88 0,-1034.88 0,-1028.88 6,-1022.88 12,-1022.88 12,-1022.88 352,-1022.88 352,-1022.88 358,-1022.88 364,-1028.88 364,-1034.88 364,-1034.88 364,-1057.12 364,-1057.12 364,-1063.12 358,-1069.12 352,-1069.12"/>
<text text-anchor="middle" x="182" y="-1055.62" font-family="Helvetica,sans-Serif" font-size="10.00" fill="#7a8fa6">Every SIL&#45;6 invariant has at least one scheduler primitive honouring it</text>
<text text-anchor="middle" x="182" y="-1042.88" font-family="Helvetica,sans-Serif" font-size="10.00" fill="#7a8fa6">Every scheduler primitive has at least one SC&#45;SCHED&#45;SIL constraint</text>
<text text-anchor="middle" x="182" y="-1030.12" font-family="Helvetica,sans-Serif" font-size="10.00" fill="#7a8fa6">Vertical traceability: invariant ↔ primitive ↔ SC&#45;SCHED&#45;SIL ↔ FMEA row</text>
</g>
</g>
</svg>
