<?xml version="1.0" encoding="UTF-8" standalone="no"?>
<!DOCTYPE svg PUBLIC "-//W3C//DTD SVG 1.1//EN"
 "http://www.w3.org/Graphics/SVG/1.1/DTD/svg11.dtd">
<!-- Generated by graphviz version 12.2.1 (0)
 -->
<!-- Title: G8DispatchPipeline Pages: 1 -->
<svg width="2294pt" height="197pt"
 viewBox="0.00 0.00 2294.25 196.50" xmlns="http://www.w3.org/2000/svg" xmlns:xlink="http://www.w3.org/1999/xlink">
<g id="graph0" class="graph" transform="scale(1 1) rotate(0) translate(4 192.5)">
<title>G8DispatchPipeline</title>
<polygon fill="#fafafa" stroke="none" points="-4,4 -4,-192.5 2290.25,-192.5 2290.25,4 -4,4"/>
<text text-anchor="middle" x="1143.12" y="-169.3" font-family="Helvetica,sans-Serif" font-size="16.00">G8 — Pass&#45;10 Dispatch Pipeline (oban_jobs → workers::dispatch → process_runner)</text>
<g id="clust1" class="cluster">
<title>cluster_sched</title>
<path fill="#fff3e0" stroke="#ef6c00" d="M20,-26C20,-26 546,-26 546,-26 552,-26 558,-32 558,-38 558,-38 558,-141 558,-141 558,-147 552,-153 546,-153 546,-153 20,-153 20,-153 14,-153 8,-147 8,-141 8,-141 8,-38 8,-38 8,-32 14,-26 20,-26"/>
<text text-anchor="middle" x="283" y="-133.8" font-family="Helvetica,sans-Serif" font-size="16.00">L4&#45;System: Scheduler</text>
</g>
<g id="clust2" class="cluster">
<title>cluster_worker</title>
<path fill="#e8f5e9" stroke="#2e7d32" d="M627.5,-41C627.5,-41 1530.5,-41 1530.5,-41 1536.5,-41 1542.5,-47 1542.5,-53 1542.5,-53 1542.5,-109 1542.5,-109 1542.5,-115 1536.5,-121 1530.5,-121 1530.5,-121 627.5,-121 627.5,-121 621.5,-121 615.5,-115 615.5,-109 615.5,-109 615.5,-53 615.5,-53 615.5,-47 621.5,-41 627.5,-41"/>
<text text-anchor="middle" x="1079" y="-101.8" font-family="Helvetica,sans-Serif" font-size="16.00">L4&#45;System: Worker Dispatcher (Pass&#45;10 FIX)</text>
</g>
<g id="clust3" class="cluster">
<title>cluster_runner</title>
<path fill="#f3e5f5" stroke="#6a1b9a" d="M1615,-42C1615,-42 1940.5,-42 1940.5,-42 1946.5,-42 1952.5,-48 1952.5,-54 1952.5,-54 1952.5,-110 1952.5,-110 1952.5,-116 1946.5,-122 1940.5,-122 1940.5,-122 1615,-122 1615,-122 1609,-122 1603,-116 1603,-110 1603,-110 1603,-54 1603,-54 1603,-48 1609,-42 1615,-42"/>
<text text-anchor="middle" x="1777.75" y="-102.8" font-family="Helvetica,sans-Serif" font-size="16.00">L4&#45;System: ProcessRunner</text>
</g>
<g id="clust4" class="cluster">
<title>cluster_db</title>
<path fill="#fce4ec" stroke="#ad1457" d="M2064,-8C2064,-8 2274.25,-8 2274.25,-8 2280.25,-8 2286.25,-14 2286.25,-20 2286.25,-20 2286.25,-130 2286.25,-130 2286.25,-136 2280.25,-142 2274.25,-142 2274.25,-142 2064,-142 2064,-142 2058,-142 2052,-136 2052,-130 2052,-130 2052,-20 2052,-20 2052,-14 2058,-8 2064,-8"/>
<text text-anchor="middle" x="2169.12" y="-122.8" font-family="Helvetica,sans-Serif" font-size="16.00">L3&#45;Transaction: Persistence</text>
</g>
<!-- tick -->
<g id="node1" class="node">
<title>tick</title>
<path fill="#e3f2fd" stroke="#1565c0" d="M89,-82C89,-82 28,-82 28,-82 22,-82 16,-76 16,-70 16,-70 16,-58 16,-58 16,-52 22,-46 28,-46 28,-46 89,-46 89,-46 95,-46 101,-52 101,-58 101,-58 101,-70 101,-70 101,-76 95,-82 89,-82"/>
<text text-anchor="middle" x="58.5" y="-67.25" font-family="Helvetica,sans-Serif" font-size="10.00">scheduler&#45;tick</text>
<text text-anchor="middle" x="58.5" y="-54.5" font-family="Helvetica,sans-Serif" font-size="10.00">(every 1s)</text>
</g>
<!-- claim -->
<g id="node2" class="node">
<title>claim</title>
<path fill="#e3f2fd" stroke="#1565c0" d="M538,-90.12C538,-90.12 429.75,-90.12 429.75,-90.12 423.75,-90.12 417.75,-84.12 417.75,-78.12 417.75,-78.12 417.75,-55.88 417.75,-55.88 417.75,-49.88 423.75,-43.88 429.75,-43.88 429.75,-43.88 538,-43.88 538,-43.88 544,-43.88 550,-49.88 550,-55.88 550,-55.88 550,-78.12 550,-78.12 550,-84.12 544,-90.12 538,-90.12"/>
<text text-anchor="middle" x="483.88" y="-76.62" font-family="Helvetica,sans-Serif" font-size="10.00">claim_next_jobs()</text>
<text text-anchor="middle" x="483.88" y="-63.88" font-family="Helvetica,sans-Serif" font-size="10.00">SQL: UPDATE oban_jobs</text>
<text text-anchor="middle" x="483.88" y="-51.12" font-family="Helvetica,sans-Serif" font-size="10.00">SET state=&#39;executing&#39;</text>
</g>
<!-- tick&#45;&gt;claim -->
<g id="edge1" class="edge">
<title>tick&#45;&gt;claim</title>
<path fill="none" stroke="#37474f" d="M101.28,-62.54C123.29,-61.85 150.73,-61.09 175.25,-60.75 235.02,-59.91 249.98,-59.67 309.75,-60.75 341.35,-61.32 376.17,-62.48 406.25,-63.64"/>
<polygon fill="#37474f" stroke="#37474f" points="405.89,-67.13 416.02,-64.02 406.17,-60.13 405.89,-67.13"/>
<text text-anchor="middle" x="242.5" y="-63.45" font-family="Helvetica,sans-Serif" font-size="9.00">tick</text>
</g>
<!-- lifeline -->
<g id="node3" class="node">
<title>lifeline</title>
<path fill="#e3f2fd" stroke="#1565c0" d="M297.75,-117C297.75,-117 187.25,-117 187.25,-117 181.25,-117 175.25,-111 175.25,-105 175.25,-105 175.25,-93 175.25,-93 175.25,-87 181.25,-81 187.25,-81 187.25,-81 297.75,-81 297.75,-81 303.75,-81 309.75,-87 309.75,-93 309.75,-93 309.75,-105 309.75,-105 309.75,-111 303.75,-117 297.75,-117"/>
<text text-anchor="middle" x="242.5" y="-102.25" font-family="Helvetica,sans-Serif" font-size="10.00">lifeline_reset_stuck()</text>
<text text-anchor="middle" x="242.5" y="-89.5" font-family="Helvetica,sans-Serif" font-size="10.00">stuck&gt;5min → available</text>
</g>
<!-- tick&#45;&gt;lifeline -->
<g id="edge2" class="edge">
<title>tick&#45;&gt;lifeline</title>
<path fill="none" stroke="#37474f" d="M101.25,-72.03C119.84,-75.6 142.35,-79.93 163.85,-84.07"/>
<polygon fill="#37474f" stroke="#37474f" points="163.01,-87.47 173.49,-85.92 164.33,-80.59 163.01,-87.47"/>
<text text-anchor="middle" x="138.12" y="-85.25" font-family="Helvetica,sans-Serif" font-size="9.00">every 5s</text>
</g>
<!-- spawn -->
<g id="node4" class="node">
<title>spawn</title>
<path fill="#e3f2fd" stroke="#1565c0" d="M717.5,-85C717.5,-85 635.5,-85 635.5,-85 629.5,-85 623.5,-79 623.5,-73 623.5,-73 623.5,-61 623.5,-61 623.5,-55 629.5,-49 635.5,-49 635.5,-49 717.5,-49 717.5,-49 723.5,-49 729.5,-55 729.5,-61 729.5,-61 729.5,-73 729.5,-73 729.5,-79 723.5,-85 717.5,-85"/>
<text text-anchor="middle" x="676.5" y="-63.88" font-family="Helvetica,sans-Serif" font-size="10.00">std::thread::spawn</text>
</g>
<!-- claim&#45;&gt;spawn -->
<g id="edge3" class="edge">
<title>claim&#45;&gt;spawn</title>
<path fill="none" stroke="#37474f" stroke-dasharray="5,2" d="M550.48,-67C570.28,-67 591.99,-67 611.68,-67"/>
<polygon fill="#37474f" stroke="#37474f" points="611.5,-70.5 621.5,-67 611.5,-63.5 611.5,-70.5"/>
<text text-anchor="middle" x="586.75" y="-69.7" font-family="Helvetica,sans-Serif" font-size="9.00">job rows</text>
</g>
<!-- lifeline&#45;&gt;claim -->
<g id="edge4" class="edge">
<title>lifeline&#45;&gt;claim</title>
<path fill="none" stroke="#558b2f" stroke-dasharray="5,2" d="M310.18,-90.09C340,-86.1 375.31,-81.38 406.21,-77.25"/>
<polygon fill="#558b2f" stroke="#558b2f" points="406.43,-80.75 415.88,-75.96 405.5,-73.81 406.43,-80.75"/>
<text text-anchor="middle" x="363.75" y="-90.44" font-family="Helvetica,sans-Serif" font-size="9.00">reset → re&#45;claim</text>
</g>
<!-- dispatch -->
<g id="node5" class="node">
<title>dispatch</title>
<path fill="#fff59d" stroke="#f57f17" stroke-width="2" d="M907.5,-85C907.5,-85 807.5,-85 807.5,-85 801.5,-85 795.5,-79 795.5,-73 795.5,-73 795.5,-61 795.5,-61 795.5,-55 801.5,-49 807.5,-49 807.5,-49 907.5,-49 907.5,-49 913.5,-49 919.5,-55 919.5,-61 919.5,-61 919.5,-73 919.5,-73 919.5,-79 913.5,-85 907.5,-85"/>
<text text-anchor="middle" x="857.5" y="-70.25" font-family="Helvetica,sans-Serif" font-size="10.00">workers::dispatch(job)</text>
<text text-anchor="middle" x="857.5" y="-57.5" font-family="Helvetica,sans-Serif" font-size="10.00">★ Pass&#45;10 fix point ★</text>
</g>
<!-- spawn&#45;&gt;dispatch -->
<g id="edge5" class="edge">
<title>spawn&#45;&gt;dispatch</title>
<path fill="none" stroke="#37474f" d="M729.76,-67C746.51,-67 765.39,-67 783.35,-67"/>
<polygon fill="#37474f" stroke="#37474f" points="783.18,-70.5 793.18,-67 783.18,-63.5 783.18,-70.5"/>
<text text-anchor="middle" x="762.5" y="-69.7" font-family="Helvetica,sans-Serif" font-size="9.00">thread</text>
</g>
<!-- known -->
<g id="node6" class="node">
<title>known</title>
<path fill="#e3f2fd" stroke="#1565c0" d="M1126.75,-85C1126.75,-85 997.5,-85 997.5,-85 991.5,-85 985.5,-79 985.5,-73 985.5,-73 985.5,-61 985.5,-61 985.5,-55 991.5,-49 997.5,-49 997.5,-49 1126.75,-49 1126.75,-49 1132.75,-49 1138.75,-55 1138.75,-61 1138.75,-61 1138.75,-73 1138.75,-73 1138.75,-79 1132.75,-85 1126.75,-85"/>
<text text-anchor="middle" x="1062.12" y="-70.25" font-family="Helvetica,sans-Serif" font-size="10.00">known_workers_check</text>
<text text-anchor="middle" x="1062.12" y="-57.5" font-family="Helvetica,sans-Serif" font-size="10.00">{gleam_run, http_probe, ...}</text>
</g>
<!-- dispatch&#45;&gt;known -->
<g id="edge6" class="edge">
<title>dispatch&#45;&gt;known</title>
<path fill="none" stroke="#37474f" d="M920.4,-67C937.28,-67 955.89,-67 973.9,-67"/>
<polygon fill="#37474f" stroke="#37474f" points="973.8,-70.5 983.8,-67 973.8,-63.5 973.8,-70.5"/>
<text text-anchor="middle" x="952.5" y="-69.7" font-family="Helvetica,sans-Serif" font-size="9.00">lookup</text>
</g>
<!-- match -->
<g id="node7" class="node">
<title>match</title>
<path fill="#fff59d" stroke="#f57f17" d="M1327.25,-85C1327.25,-85 1218.25,-85 1218.25,-85 1212.25,-85 1206.25,-79 1206.25,-73 1206.25,-73 1206.25,-61 1206.25,-61 1206.25,-55 1212.25,-49 1218.25,-49 1218.25,-49 1327.25,-49 1327.25,-49 1333.25,-49 1339.25,-55 1339.25,-61 1339.25,-61 1339.25,-73 1339.25,-73 1339.25,-79 1333.25,-85 1327.25,-85"/>
<text text-anchor="middle" x="1272.75" y="-70.25" font-family="Helvetica,sans-Serif" font-size="10.00">match arm lookup</text>
<text text-anchor="middle" x="1272.75" y="-57.5" font-family="Helvetica,sans-Serif" font-size="10.00">worker_name → handler</text>
</g>
<!-- known&#45;&gt;match -->
<g id="edge7" class="edge">
<title>known&#45;&gt;match</title>
<path fill="none" stroke="#37474f" d="M1139.03,-67C1157.09,-67 1176.37,-67 1194.48,-67"/>
<polygon fill="#37474f" stroke="#37474f" points="1194.37,-70.5 1204.37,-67 1194.37,-63.5 1194.37,-70.5"/>
<text text-anchor="middle" x="1172.5" y="-69.7" font-family="Helvetica,sans-Serif" font-size="9.00">resolve</text>
</g>
<!-- run -->
<g id="node8" class="node">
<title>run</title>
<path fill="#e3f2fd" stroke="#1565c0" d="M1522.5,-85C1522.5,-85 1435.25,-85 1435.25,-85 1429.25,-85 1423.25,-79 1423.25,-73 1423.25,-73 1423.25,-61 1423.25,-61 1423.25,-55 1429.25,-49 1435.25,-49 1435.25,-49 1522.5,-49 1522.5,-49 1528.5,-49 1534.5,-55 1534.5,-61 1534.5,-61 1534.5,-73 1534.5,-73 1534.5,-79 1528.5,-85 1522.5,-85"/>
<text text-anchor="middle" x="1478.88" y="-63.88" font-family="Helvetica,sans-Serif" font-size="10.00">run_gleam_run(job)</text>
</g>
<!-- match&#45;&gt;run -->
<g id="edge8" class="edge">
<title>match&#45;&gt;run</title>
<path fill="none" stroke="#37474f" d="M1339.74,-67C1362.76,-67 1388.59,-67 1411.63,-67"/>
<polygon fill="#37474f" stroke="#37474f" points="1411.52,-70.5 1421.52,-67 1411.52,-63.5 1411.52,-70.5"/>
<text text-anchor="middle" x="1381.25" y="-69.7" font-family="Helvetica,sans-Serif" font-size="9.00">gleam_run</text>
</g>
<!-- fail -->
<g id="node12" class="node">
<title>fail</title>
<path fill="#e3f2fd" stroke="#1565c0" d="M2234.38,-52C2234.38,-52 2102.88,-52 2102.88,-52 2096.88,-52 2090.88,-46 2090.88,-40 2090.88,-40 2090.88,-28 2090.88,-28 2090.88,-22 2096.88,-16 2102.88,-16 2102.88,-16 2234.38,-16 2234.38,-16 2240.38,-16 2246.38,-22 2246.38,-28 2246.38,-28 2246.38,-40 2246.38,-40 2246.38,-46 2240.38,-52 2234.38,-52"/>
<text text-anchor="middle" x="2168.62" y="-37.25" font-family="Helvetica,sans-Serif" font-size="10.00">mark_failed()</text>
<text text-anchor="middle" x="2168.62" y="-24.5" font-family="Helvetica,sans-Serif" font-size="10.00">state=&#39;retryable&#39;|&#39;discarded&#39;</text>
</g>
<!-- match&#45;&gt;fail -->
<g id="edge9" class="edge">
<title>match&#45;&gt;fail</title>
<path fill="none" stroke="#c62828" stroke-dasharray="5,2" d="M1325.89,-48.56C1366.71,-35.76 1425.2,-21 1477.88,-21 1477.88,-21 1477.88,-21 1885.75,-21 1950.6,-21 2023.76,-24.48 2079.29,-27.83"/>
<polygon fill="#c62828" stroke="#c62828" points="2078.8,-31.31 2088.99,-28.43 2079.23,-24.32 2078.8,-31.31"/>
<text text-anchor="middle" x="1691.75" y="-23.7" font-family="Helvetica,sans-Serif" font-size="9.00">unknown_worker</text>
</g>
<!-- pr -->
<g id="node9" class="node">
<title>pr</title>
<path fill="#e3f2fd" stroke="#1565c0" d="M1760.5,-86C1760.5,-86 1623,-86 1623,-86 1617,-86 1611,-80 1611,-74 1611,-74 1611,-62 1611,-62 1611,-56 1617,-50 1623,-50 1623,-50 1760.5,-50 1760.5,-50 1766.5,-50 1772.5,-56 1772.5,-62 1772.5,-62 1772.5,-74 1772.5,-74 1772.5,-80 1766.5,-86 1760.5,-86"/>
<text text-anchor="middle" x="1691.75" y="-71.25" font-family="Helvetica,sans-Serif" font-size="10.00">process_runner::run(RunSpec)</text>
<text text-anchor="middle" x="1691.75" y="-58.5" font-family="Helvetica,sans-Serif" font-size="10.00">spawn + timeout + heartbeat</text>
</g>
<!-- run&#45;&gt;pr -->
<g id="edge10" class="edge">
<title>run&#45;&gt;pr</title>
<path fill="none" stroke="#37474f" stroke-dasharray="5,2" d="M1534.73,-67.26C1554.47,-67.35 1577.32,-67.46 1599.34,-67.57"/>
<polygon fill="#37474f" stroke="#37474f" points="1599.22,-71.07 1609.24,-67.61 1599.26,-64.07 1599.22,-71.07"/>
<text text-anchor="middle" x="1572.75" y="-70.23" font-family="Helvetica,sans-Serif" font-size="9.00">RunSpec</text>
</g>
<!-- onesh -->
<g id="node10" class="node">
<title>onesh</title>
<path fill="#e3f2fd" stroke="#1565c0" d="M1932.5,-86C1932.5,-86 1837,-86 1837,-86 1831,-86 1825,-80 1825,-74 1825,-74 1825,-62 1825,-62 1825,-56 1831,-50 1837,-50 1837,-50 1932.5,-50 1932.5,-50 1938.5,-50 1944.5,-56 1944.5,-62 1944.5,-62 1944.5,-74 1944.5,-74 1944.5,-80 1938.5,-86 1932.5,-86"/>
<text text-anchor="middle" x="1884.75" y="-64.88" font-family="Helvetica,sans-Serif" font-size="10.00">oneshot::send(result)</text>
</g>
<!-- pr&#45;&gt;onesh -->
<g id="edge11" class="edge">
<title>pr&#45;&gt;onesh</title>
<path fill="none" stroke="#37474f" d="M1772.92,-68C1786.34,-68 1800.18,-68 1813.34,-68"/>
<polygon fill="#37474f" stroke="#37474f" points="1813.18,-71.5 1823.18,-68 1813.18,-64.5 1813.18,-71.5"/>
<text text-anchor="middle" x="1798.75" y="-70.7" font-family="Helvetica,sans-Serif" font-size="9.00">exit</text>
</g>
<!-- ok -->
<g id="node11" class="node">
<title>ok</title>
<path fill="#e3f2fd" stroke="#1565c0" d="M2210,-106C2210,-106 2127.25,-106 2127.25,-106 2121.25,-106 2115.25,-100 2115.25,-94 2115.25,-94 2115.25,-82 2115.25,-82 2115.25,-76 2121.25,-70 2127.25,-70 2127.25,-70 2210,-70 2210,-70 2216,-70 2222,-76 2222,-82 2222,-82 2222,-94 2222,-94 2222,-100 2216,-106 2210,-106"/>
<text text-anchor="middle" x="2168.62" y="-91.25" font-family="Helvetica,sans-Serif" font-size="10.00">mark_completed()</text>
<text text-anchor="middle" x="2168.62" y="-78.5" font-family="Helvetica,sans-Serif" font-size="10.00">state=&#39;completed&#39;</text>
</g>
<!-- onesh&#45;&gt;ok -->
<g id="edge12" class="edge">
<title>onesh&#45;&gt;ok</title>
<path fill="none" stroke="#37474f" d="M1944.84,-72.19C1991.22,-75.48 2055.7,-80.06 2103.36,-83.44"/>
<polygon fill="#37474f" stroke="#37474f" points="2103.06,-86.93 2113.28,-84.14 2103.55,-79.95 2103.06,-86.93"/>
<text text-anchor="middle" x="2002.25" y="-81.3" font-family="Helvetica,sans-Serif" font-size="9.00">status=0</text>
</g>
<!-- onesh&#45;&gt;fail -->
<g id="edge13" class="edge">
<title>onesh&#45;&gt;fail</title>
<path fill="none" stroke="#37474f" d="M1944.84,-60.87C1983.75,-56.18 2035.39,-49.95 2079.16,-44.67"/>
<polygon fill="#37474f" stroke="#37474f" points="2079.39,-48.17 2088.9,-43.5 2078.55,-41.22 2079.39,-48.17"/>
<text text-anchor="middle" x="2002.25" y="-60.65" font-family="Helvetica,sans-Serif" font-size="9.00">status≠0|timeout</text>
</g>
</g>
</svg>
