<?xml version="1.0" encoding="UTF-8" standalone="no"?>
<!DOCTYPE svg PUBLIC "-//W3C//DTD SVG 1.1//EN"
 "http://www.w3.org/Graphics/SVG/1.1/DTD/svg11.dtd">
<!-- Generated by graphviz version 12.2.1 (0)
 -->
<!-- Title: G9DispatcherMismatch Pages: 1 -->
<svg width="897pt" height="328pt"
 viewBox="0.00 0.00 897.25 327.50" xmlns="http://www.w3.org/2000/svg" xmlns:xlink="http://www.w3.org/1999/xlink">
<g id="graph0" class="graph" transform="scale(1 1) rotate(0) translate(4 323.5)">
<title>G9DispatcherMismatch</title>
<polygon fill="#fafafa" stroke="none" points="-4,4 -4,-323.5 893.25,-323.5 893.25,4 -4,4"/>
<text text-anchor="middle" x="444.62" y="-300.3" font-family="Helvetica,sans-Serif" font-size="16.00">G9 — Pre&#45;Pass&#45;10 Dispatcher Mismatch (BROKEN)</text>
<g id="clust1" class="cluster">
<title>cluster_sched</title>
<path fill="#e8f5e9" stroke="#2e7d32" d="M231.5,-204C231.5,-204 510,-204 510,-204 516,-204 522,-210 522,-216 522,-216 522,-272 522,-272 522,-278 516,-284 510,-284 510,-284 231.5,-284 231.5,-284 225.5,-284 219.5,-278 219.5,-272 219.5,-272 219.5,-216 219.5,-216 219.5,-210 225.5,-204 231.5,-204"/>
<text text-anchor="middle" x="370.75" y="-264.8" font-family="Helvetica,sans-Serif" font-size="16.00">scheduler.rs (legacy workflow path)</text>
</g>
<g id="clust2" class="cluster">
<title>cluster_workers</title>
<path fill="#ffebee" stroke="#c62828" d="M251.25,-8C251.25,-8 652.25,-8 652.25,-8 658.25,-8 664.25,-14 664.25,-20 664.25,-20 664.25,-184 664.25,-184 664.25,-190 658.25,-196 652.25,-196 652.25,-196 251.25,-196 251.25,-196 245.25,-196 239.25,-190 239.25,-184 239.25,-184 239.25,-20 239.25,-20 239.25,-14 245.25,-8 251.25,-8"/>
<text text-anchor="middle" x="451.75" y="-176.8" font-family="Helvetica,sans-Serif" font-size="16.00">workers.rs (oban dispatcher) — BROKEN</text>
</g>
<!-- oban -->
<g id="node1" class="node">
<title>oban</title>
<path fill="#fce4ec" stroke="#ad1457" d="M115,-187.84C115,-190.15 89.23,-192.03 57.5,-192.03 25.77,-192.03 0,-190.15 0,-187.84 0,-187.84 0,-150.16 0,-150.16 0,-147.85 25.77,-145.97 57.5,-145.97 89.23,-145.97 115,-147.85 115,-150.16 115,-150.16 115,-187.84 115,-187.84"/>
<path fill="none" stroke="#ad1457" d="M115,-187.84C115,-185.53 89.23,-183.66 57.5,-183.66 25.77,-183.66 0,-185.53 0,-187.84"/>
<text text-anchor="middle" x="57.5" y="-172.25" font-family="Helvetica,sans-Serif" font-size="10.00">oban_jobs table</text>
<text text-anchor="middle" x="57.5" y="-159.5" font-family="Helvetica,sans-Serif" font-size="10.00">worker=&#39;gleam_run&#39;</text>
</g>
<!-- sched_disp -->
<g id="node2" class="node">
<title>sched_disp</title>
<path fill="#c8e6c9" stroke="black" d="M342,-248C342,-248 254,-248 254,-248 248,-248 242,-242 242,-236 242,-236 242,-224 242,-224 242,-218 248,-212 254,-212 254,-212 342,-212 342,-212 348,-212 354,-218 354,-224 354,-224 354,-236 354,-236 354,-242 348,-248 342,-248"/>
<text text-anchor="middle" x="298" y="-226.88" font-family="Helvetica,sans-Serif" font-size="10.00">dispatch (workflow)</text>
</g>
<!-- oban&#45;&gt;sched_disp -->
<g id="edge7" class="edge">
<title>oban&#45;&gt;sched_disp</title>
<path fill="none" stroke="#9e9e9e" stroke-dasharray="1,5" d="M115.32,-183.53C150.04,-192.41 194.58,-203.8 230.87,-213.09"/>
<polygon fill="#9e9e9e" stroke="#9e9e9e" points="229.82,-216.43 240.38,-215.52 231.56,-209.65 229.82,-216.43"/>
<text text-anchor="middle" x="171.25" y="-209.46" font-family="Helvetica,sans-Serif" font-size="9.00">(legacy, unused)</text>
</g>
<!-- workers_disp -->
<g id="node4" class="node">
<title>workers_disp</title>
<path fill="#ffcdd2" stroke="black" d="M336.75,-131C336.75,-131 259.25,-131 259.25,-131 253.25,-131 247.25,-125 247.25,-119 247.25,-119 247.25,-107 247.25,-107 247.25,-101 253.25,-95 259.25,-95 259.25,-95 336.75,-95 336.75,-95 342.75,-95 348.75,-101 348.75,-107 348.75,-107 348.75,-119 348.75,-119 348.75,-125 342.75,-131 336.75,-131"/>
<text text-anchor="middle" x="298" y="-109.88" font-family="Helvetica,sans-Serif" font-size="10.00">workers::dispatch</text>
</g>
<!-- oban&#45;&gt;workers_disp -->
<g id="edge6" class="edge">
<title>oban&#45;&gt;workers_disp</title>
<path fill="none" stroke="#c62828" stroke-width="2" d="M115.32,-155.66C151.19,-147.24 197.55,-136.35 234.46,-127.69"/>
<polygon fill="#c62828" stroke="#c62828" stroke-width="2" points="235.2,-131.11 244.14,-125.41 233.6,-124.29 235.2,-131.11"/>
<text text-anchor="middle" x="171.25" y="-153.59" font-family="Helvetica,sans-Serif" font-size="9.00">claim → dispatch</text>
</g>
<!-- gleam_in_sched -->
<g id="node3" class="node">
<title>gleam_in_sched</title>
<path fill="#a5d6a7" stroke="#1b5e20" d="M486.5,-248C486.5,-248 403,-248 403,-248 397,-248 391,-242 391,-236 391,-236 391,-224 391,-224 391,-218 397,-212 403,-212 403,-212 486.5,-212 486.5,-212 492.5,-212 498.5,-218 498.5,-224 498.5,-224 498.5,-236 498.5,-236 498.5,-242 492.5,-248 486.5,-248"/>
<text text-anchor="middle" x="444.75" y="-233.25" font-family="Helvetica,sans-Serif" font-size="10.00">gleam_run handler</text>
<text text-anchor="middle" x="444.75" y="-220.5" font-family="Helvetica,sans-Serif" font-size="10.00">✓ present</text>
</g>
<!-- sched_disp&#45;&gt;gleam_in_sched -->
<g id="edge1" class="edge">
<title>sched_disp&#45;&gt;gleam_in_sched</title>
<path fill="none" stroke="#2e7d32" d="M354.14,-230C362.38,-230 370.93,-230 379.34,-230"/>
<polygon fill="#2e7d32" stroke="#2e7d32" points="379.16,-233.5 389.16,-230 379.16,-226.5 379.16,-233.5"/>
</g>
<!-- http_h -->
<g id="node5" class="node">
<title>http_h</title>
<path fill="#c8e6c9" stroke="black" d="M472.62,-52C472.62,-52 416.88,-52 416.88,-52 410.88,-52 404.88,-46 404.88,-40 404.88,-40 404.88,-28 404.88,-28 404.88,-22 410.88,-16 416.88,-16 416.88,-16 472.62,-16 472.62,-16 478.62,-16 484.62,-22 484.62,-28 484.62,-28 484.62,-40 484.62,-40 484.62,-46 478.62,-52 472.62,-52"/>
<text text-anchor="middle" x="444.75" y="-30.88" font-family="Helvetica,sans-Serif" font-size="10.00">http_probe ✓</text>
</g>
<!-- workers_disp&#45;&gt;http_h -->
<g id="edge2" class="edge">
<title>workers_disp&#45;&gt;http_h</title>
<path fill="none" stroke="black" d="M330.75,-94.62C348.4,-84.52 370.81,-71.87 391,-61 393.05,-59.9 395.15,-58.77 397.28,-57.65"/>
<polygon fill="black" stroke="black" points="398.75,-60.83 405.98,-53.1 395.5,-54.63 398.75,-60.83"/>
</g>
<!-- file_h -->
<g id="node6" class="node">
<title>file_h</title>
<path fill="#c8e6c9" stroke="black" d="M470.75,-106C470.75,-106 418.75,-106 418.75,-106 412.75,-106 406.75,-100 406.75,-94 406.75,-94 406.75,-82 406.75,-82 406.75,-76 412.75,-70 418.75,-70 418.75,-70 470.75,-70 470.75,-70 476.75,-70 482.75,-76 482.75,-82 482.75,-82 482.75,-94 482.75,-94 482.75,-100 476.75,-106 470.75,-106"/>
<text text-anchor="middle" x="444.75" y="-84.88" font-family="Helvetica,sans-Serif" font-size="10.00">file_check ✓</text>
</g>
<!-- workers_disp&#45;&gt;file_h -->
<g id="edge3" class="edge">
<title>workers_disp&#45;&gt;file_h</title>
<path fill="none" stroke="black" d="M349.22,-104.33C364.19,-101.74 380.55,-98.92 395.39,-96.35"/>
<polygon fill="black" stroke="black" points="395.65,-99.86 404.91,-94.71 394.46,-92.96 395.65,-99.86"/>
</g>
<!-- gap -->
<g id="node7" class="node">
<title>gap</title>
<path fill="#ef5350" stroke="#b71c1c" stroke-width="2" d="M467.38,-160C467.38,-160 422.12,-160 422.12,-160 416.12,-160 410.12,-154 410.12,-148 410.12,-148 410.12,-136 410.12,-136 410.12,-130 416.12,-124 422.12,-124 422.12,-124 467.38,-124 467.38,-124 473.38,-124 479.38,-130 479.38,-136 479.38,-136 479.38,-148 479.38,-148 479.38,-154 473.38,-160 467.38,-160"/>
<text text-anchor="middle" x="444.75" y="-145.25" font-family="Helvetica,sans-Serif" font-size="10.00" fill="white">gleam_run</text>
<text text-anchor="middle" x="444.75" y="-132.5" font-family="Helvetica,sans-Serif" font-size="10.00" fill="white">✗ MISSING</text>
</g>
<!-- workers_disp&#45;&gt;gap -->
<g id="edge4" class="edge">
<title>workers_disp&#45;&gt;gap</title>
<path fill="none" stroke="#c62828" stroke-width="2" stroke-dasharray="5,2" d="M349.22,-123.06C364.79,-126.18 381.86,-129.6 397.17,-132.67"/>
<polygon fill="#c62828" stroke="#c62828" stroke-width="2" points="396.08,-136.02 406.57,-134.55 397.46,-129.16 396.08,-136.02"/>
</g>
<!-- err -->
<g id="node8" class="node">
<title>err</title>
<path fill="#b71c1c" stroke="black" d="M644.25,-160C644.25,-160 563,-160 563,-160 557,-160 551,-154 551,-148 551,-148 551,-136 551,-136 551,-130 557,-124 563,-124 563,-124 644.25,-124 644.25,-124 650.25,-124 656.25,-130 656.25,-136 656.25,-136 656.25,-148 656.25,-148 656.25,-154 650.25,-160 644.25,-160"/>
<text text-anchor="middle" x="603.62" y="-145.25" font-family="Helvetica,sans-Serif" font-size="10.00" fill="white">&quot;unknown worker&quot;</text>
<text text-anchor="middle" x="603.62" y="-132.5" font-family="Helvetica,sans-Serif" font-size="10.00" fill="white">error returned</text>
</g>
<!-- gap&#45;&gt;err -->
<g id="edge5" class="edge">
<title>gap&#45;&gt;err</title>
<path fill="none" stroke="#b71c1c" stroke-width="3" d="M480.18,-142C496.64,-142 516.92,-142 536.21,-142"/>
<polygon fill="#b71c1c" stroke="#b71c1c" stroke-width="3" points="536.14,-145.5 546.14,-142 536.14,-138.5 536.14,-145.5"/>
</g>
<!-- note -->
<g id="node9" class="node">
<title>note</title>
<polygon fill="#fff9c4" stroke="#f57f17" points="883.25,-171.5 693.25,-171.5 693.25,-112.5 889.25,-112.5 889.25,-165.5 883.25,-171.5"/>
<polyline fill="none" stroke="#f57f17" points="883.25,-171.5 883.25,-165.5"/>
<polyline fill="none" stroke="#f57f17" points="889.25,-165.5 883.25,-165.5"/>
<text text-anchor="middle" x="791.25" y="-158" font-family="Helvetica,sans-Serif" font-size="10.00">Result: ALL gleam_run jobs failed</text>
<text text-anchor="middle" x="791.25" y="-145.25" font-family="Helvetica,sans-Serif" font-size="10.00">with &#39;unknown worker&#39; error.</text>
<text text-anchor="middle" x="791.25" y="-132.5" font-family="Helvetica,sans-Serif" font-size="10.00">Legacy scheduler.rs had the handler</text>
<text text-anchor="middle" x="791.25" y="-119.75" font-family="Helvetica,sans-Serif" font-size="10.00">but oban path didn&#39;t route through it.</text>
</g>
<!-- err&#45;&gt;note -->
</g>
</svg>
