<?xml version="1.0" encoding="UTF-8" standalone="no"?>
<!DOCTYPE svg PUBLIC "-//W3C//DTD SVG 1.1//EN"
 "http://www.w3.org/Graphics/SVG/1.1/DTD/svg11.dtd">
<!-- Generated by graphviz version 12.2.1 (0)
 -->
<!-- Title: G Pages: 1 -->
<svg width="275pt" height="1101pt"
 viewBox="0.00 0.00 275.25 1101.25" xmlns="http://www.w3.org/2000/svg" xmlns:xlink="http://www.w3.org/1999/xlink">
<g id="graph0" class="graph" transform="scale(1 1) rotate(0) translate(4 1097.25)">
<title>G</title>
<polygon fill="#0b1020" stroke="none" points="-4,4 -4,-1097.25 271.25,-1097.25 271.25,4 -4,4"/>
<text text-anchor="middle" x="133.62" y="-1075.95" font-family="Helvetica,sans-Serif" font-size="14.00">Fractal L0–L7 × Critical Components</text>
<!-- L0 -->
<g id="node1" class="node">
<title>L0</title>
<path fill="#1e293b" stroke="#a78bfa" d="M79.12,-966.5C79.12,-966.5 188.12,-966.5 188.12,-966.5 194.12,-966.5 200.12,-972.5 200.12,-978.5 200.12,-978.5 200.12,-1055.5 200.12,-1055.5 200.12,-1061.5 194.12,-1067.5 188.12,-1067.5 188.12,-1067.5 79.12,-1067.5 79.12,-1067.5 73.12,-1067.5 67.12,-1061.5 67.12,-1055.5 67.12,-1055.5 67.12,-978.5 67.12,-978.5 67.12,-972.5 73.12,-966.5 79.12,-966.5"/>
<text text-anchor="middle" x="133.62" y="-1050.2" font-family="Helvetica,sans-Serif" font-size="14.00" fill="#f8fafc">L0 Constitutional</text>
<polyline fill="none" stroke="#a78bfa" points="67.12,-1042.25 200.12,-1042.25"/>
<text text-anchor="middle" x="133.62" y="-1024.95" font-family="Helvetica,sans-Serif" font-size="14.00" fill="#f8fafc">Guardian</text>
<polyline fill="none" stroke="#a78bfa" points="67.12,-1017 200.12,-1017"/>
<text text-anchor="middle" x="133.62" y="-999.7" font-family="Helvetica,sans-Serif" font-size="14.00" fill="#f8fafc">Emergency stop</text>
<polyline fill="none" stroke="#a78bfa" points="67.12,-991.75 200.12,-991.75"/>
<text text-anchor="middle" x="133.62" y="-974.45" font-family="Helvetica,sans-Serif" font-size="14.00" fill="#f8fafc">Audit spans</text>
</g>
<!-- L1 -->
<g id="node2" class="node">
<title>L1</title>
<path fill="#1e293b" stroke="#a78bfa" d="M67.88,-828.5C67.88,-828.5 199.38,-828.5 199.38,-828.5 205.38,-828.5 211.38,-834.5 211.38,-840.5 211.38,-840.5 211.38,-917.5 211.38,-917.5 211.38,-923.5 205.38,-929.5 199.38,-929.5 199.38,-929.5 67.88,-929.5 67.88,-929.5 61.88,-929.5 55.88,-923.5 55.88,-917.5 55.88,-917.5 55.88,-840.5 55.88,-840.5 55.88,-834.5 61.88,-828.5 67.88,-828.5"/>
<text text-anchor="middle" x="133.62" y="-912.2" font-family="Helvetica,sans-Serif" font-size="14.00" fill="#f8fafc">L1 Atomic</text>
<polyline fill="none" stroke="#a78bfa" points="55.88,-904.25 211.38,-904.25"/>
<text text-anchor="middle" x="133.62" y="-886.95" font-family="Helvetica,sans-Serif" font-size="14.00" fill="#f8fafc">Tool IO traces</text>
<polyline fill="none" stroke="#a78bfa" points="55.88,-879 211.38,-879"/>
<text text-anchor="middle" x="133.62" y="-861.7" font-family="Helvetica,sans-Serif" font-size="14.00" fill="#f8fafc">Payload fingerprints</text>
<polyline fill="none" stroke="#a78bfa" points="55.88,-853.75 211.38,-853.75"/>
<text text-anchor="middle" x="133.62" y="-836.45" font-family="Helvetica,sans-Serif" font-size="14.00" fill="#f8fafc">Runtime hooks</text>
</g>
<!-- L0&#45;&gt;L1 -->
<g id="edge1" class="edge">
<title>L0&#45;&gt;L1</title>
<path fill="none" stroke="#c4b5fd" d="M133.62,-966.13C133.62,-957.35 133.62,-948.14 133.62,-939.14"/>
<polygon fill="#c4b5fd" stroke="#c4b5fd" points="136.43,-939.38 133.63,-931.38 130.83,-939.38 136.43,-939.38"/>
</g>
<!-- L2 -->
<g id="node3" class="node">
<title>L2</title>
<path fill="#1e293b" stroke="#a78bfa" d="M84.75,-690.5C84.75,-690.5 182.5,-690.5 182.5,-690.5 188.5,-690.5 194.5,-696.5 194.5,-702.5 194.5,-702.5 194.5,-779.5 194.5,-779.5 194.5,-785.5 188.5,-791.5 182.5,-791.5 182.5,-791.5 84.75,-791.5 84.75,-791.5 78.75,-791.5 72.75,-785.5 72.75,-779.5 72.75,-779.5 72.75,-702.5 72.75,-702.5 72.75,-696.5 78.75,-690.5 84.75,-690.5"/>
<text text-anchor="middle" x="133.62" y="-774.2" font-family="Helvetica,sans-Serif" font-size="14.00" fill="#f8fafc">L2 Validation</text>
<polyline fill="none" stroke="#a78bfa" points="72.75,-766.25 194.5,-766.25"/>
<text text-anchor="middle" x="133.62" y="-748.95" font-family="Helvetica,sans-Serif" font-size="14.00" fill="#f8fafc">AG&#45;UI schemas</text>
<polyline fill="none" stroke="#a78bfa" points="72.75,-741 194.5,-741"/>
<text text-anchor="middle" x="133.62" y="-723.7" font-family="Helvetica,sans-Serif" font-size="14.00" fill="#f8fafc">A2UI allowlist</text>
<polyline fill="none" stroke="#a78bfa" points="72.75,-715.75 194.5,-715.75"/>
<text text-anchor="middle" x="133.62" y="-698.45" font-family="Helvetica,sans-Serif" font-size="14.00" fill="#f8fafc">TypeBox↔ADT</text>
</g>
<!-- L1&#45;&gt;L2 -->
<g id="edge2" class="edge">
<title>L1&#45;&gt;L2</title>
<path fill="none" stroke="#c4b5fd" d="M133.62,-828.13C133.62,-819.35 133.62,-810.14 133.62,-801.14"/>
<polygon fill="#c4b5fd" stroke="#c4b5fd" points="136.43,-801.38 133.63,-793.38 130.83,-801.38 136.43,-801.38"/>
</g>
<!-- L3 -->
<g id="node4" class="node">
<title>L3</title>
<path fill="#1e293b" stroke="#a78bfa" d="M83.25,-552.5C83.25,-552.5 184,-552.5 184,-552.5 190,-552.5 196,-558.5 196,-564.5 196,-564.5 196,-641.5 196,-641.5 196,-647.5 190,-653.5 184,-653.5 184,-653.5 83.25,-653.5 83.25,-653.5 77.25,-653.5 71.25,-647.5 71.25,-641.5 71.25,-641.5 71.25,-564.5 71.25,-564.5 71.25,-558.5 77.25,-552.5 83.25,-552.5"/>
<text text-anchor="middle" x="133.62" y="-636.2" font-family="Helvetica,sans-Serif" font-size="14.00" fill="#f8fafc">L3 Transaction</text>
<polyline fill="none" stroke="#a78bfa" points="71.25,-628.25 196,-628.25"/>
<text text-anchor="middle" x="133.62" y="-610.95" font-family="Helvetica,sans-Serif" font-size="14.00" fill="#f8fafc">Smriti sessions</text>
<polyline fill="none" stroke="#a78bfa" points="71.25,-603 196,-603"/>
<text text-anchor="middle" x="133.62" y="-585.7" font-family="Helvetica,sans-Serif" font-size="14.00" fill="#f8fafc">MoZ correlation</text>
<polyline fill="none" stroke="#a78bfa" points="71.25,-577.75 196,-577.75"/>
<text text-anchor="middle" x="133.62" y="-560.45" font-family="Helvetica,sans-Serif" font-size="14.00" fill="#f8fafc">Branch journals</text>
</g>
<!-- L2&#45;&gt;L3 -->
<g id="edge3" class="edge">
<title>L2&#45;&gt;L3</title>
<path fill="none" stroke="#c4b5fd" d="M133.62,-690.13C133.62,-681.35 133.62,-672.14 133.62,-663.14"/>
<polygon fill="#c4b5fd" stroke="#c4b5fd" points="136.43,-663.38 133.63,-655.38 130.83,-663.38 136.43,-663.38"/>
</g>
<!-- L4 -->
<g id="node5" class="node">
<title>L4</title>
<path fill="#1e293b" stroke="#a78bfa" d="M73.88,-414.5C73.88,-414.5 193.38,-414.5 193.38,-414.5 199.38,-414.5 205.38,-420.5 205.38,-426.5 205.38,-426.5 205.38,-503.5 205.38,-503.5 205.38,-509.5 199.38,-515.5 193.38,-515.5 193.38,-515.5 73.88,-515.5 73.88,-515.5 67.88,-515.5 61.88,-509.5 61.88,-503.5 61.88,-503.5 61.88,-426.5 61.88,-426.5 61.88,-420.5 67.88,-414.5 73.88,-414.5"/>
<text text-anchor="middle" x="133.62" y="-498.2" font-family="Helvetica,sans-Serif" font-size="14.00" fill="#f8fafc">L4 System</text>
<polyline fill="none" stroke="#a78bfa" points="61.88,-490.25 205.38,-490.25"/>
<text text-anchor="middle" x="133.62" y="-472.95" font-family="Helvetica,sans-Serif" font-size="14.00" fill="#f8fafc">Pi runtime</text>
<polyline fill="none" stroke="#a78bfa" points="61.88,-465 205.38,-465"/>
<text text-anchor="middle" x="133.62" y="-447.7" font-family="Helvetica,sans-Serif" font-size="14.00" fill="#f8fafc">Circuit breakers</text>
<polyline fill="none" stroke="#a78bfa" points="61.88,-439.75 205.38,-439.75"/>
<text text-anchor="middle" x="133.62" y="-422.45" font-family="Helvetica,sans-Serif" font-size="14.00" fill="#f8fafc">Split&#45;screen hooks</text>
</g>
<!-- L3&#45;&gt;L4 -->
<g id="edge4" class="edge">
<title>L3&#45;&gt;L4</title>
<path fill="none" stroke="#c4b5fd" d="M133.62,-552.13C133.62,-543.35 133.62,-534.14 133.62,-525.14"/>
<polygon fill="#c4b5fd" stroke="#c4b5fd" points="136.43,-525.38 133.63,-517.38 130.83,-525.38 136.43,-525.38"/>
</g>
<!-- L5 -->
<g id="node6" class="node">
<title>L5</title>
<path fill="#1e293b" stroke="#a78bfa" d="M78.75,-276.5C78.75,-276.5 188.5,-276.5 188.5,-276.5 194.5,-276.5 200.5,-282.5 200.5,-288.5 200.5,-288.5 200.5,-365.5 200.5,-365.5 200.5,-371.5 194.5,-377.5 188.5,-377.5 188.5,-377.5 78.75,-377.5 78.75,-377.5 72.75,-377.5 66.75,-371.5 66.75,-365.5 66.75,-365.5 66.75,-288.5 66.75,-288.5 66.75,-282.5 72.75,-276.5 78.75,-276.5"/>
<text text-anchor="middle" x="133.62" y="-360.2" font-family="Helvetica,sans-Serif" font-size="14.00" fill="#f8fafc">L5 Cognitive</text>
<polyline fill="none" stroke="#a78bfa" points="66.75,-352.25 200.5,-352.25"/>
<text text-anchor="middle" x="133.62" y="-334.95" font-family="Helvetica,sans-Serif" font-size="14.00" fill="#f8fafc">OODA</text>
<polyline fill="none" stroke="#a78bfa" points="66.75,-327 200.5,-327"/>
<text text-anchor="middle" x="133.62" y="-309.7" font-family="Helvetica,sans-Serif" font-size="14.00" fill="#f8fafc">Model resolver</text>
<polyline fill="none" stroke="#a78bfa" points="66.75,-301.75 200.5,-301.75"/>
<text text-anchor="middle" x="133.62" y="-284.45" font-family="Helvetica,sans-Serif" font-size="14.00" fill="#f8fafc">Reasoning spans</text>
</g>
<!-- L4&#45;&gt;L5 -->
<g id="edge5" class="edge">
<title>L4&#45;&gt;L5</title>
<path fill="none" stroke="#c4b5fd" d="M133.62,-414.13C133.62,-405.35 133.62,-396.14 133.62,-387.14"/>
<polygon fill="#c4b5fd" stroke="#c4b5fd" points="136.43,-387.38 133.63,-379.38 130.83,-387.38 136.43,-387.38"/>
</g>
<!-- L6 -->
<g id="node7" class="node">
<title>L6</title>
<path fill="#1e293b" stroke="#a78bfa" d="M68.25,-138.5C68.25,-138.5 199,-138.5 199,-138.5 205,-138.5 211,-144.5 211,-150.5 211,-150.5 211,-227.5 211,-227.5 211,-233.5 205,-239.5 199,-239.5 199,-239.5 68.25,-239.5 68.25,-239.5 62.25,-239.5 56.25,-233.5 56.25,-227.5 56.25,-227.5 56.25,-150.5 56.25,-150.5 56.25,-144.5 62.25,-138.5 68.25,-138.5"/>
<text text-anchor="middle" x="133.62" y="-222.2" font-family="Helvetica,sans-Serif" font-size="14.00" fill="#f8fafc">L6 Ecosystem</text>
<polyline fill="none" stroke="#a78bfa" points="56.25,-214.25 211,-214.25"/>
<text text-anchor="middle" x="133.62" y="-196.95" font-family="Helvetica,sans-Serif" font-size="14.00" fill="#f8fafc">Zenoh mesh</text>
<polyline fill="none" stroke="#a78bfa" points="56.25,-189 211,-189"/>
<text text-anchor="middle" x="133.62" y="-171.7" font-family="Helvetica,sans-Serif" font-size="14.00" fill="#f8fafc">Skill registry</text>
<polyline fill="none" stroke="#a78bfa" points="56.25,-163.75 211,-163.75"/>
<text text-anchor="middle" x="133.62" y="-146.45" font-family="Helvetica,sans-Serif" font-size="14.00" fill="#f8fafc">Topology awareness</text>
</g>
<!-- L5&#45;&gt;L6 -->
<g id="edge6" class="edge">
<title>L5&#45;&gt;L6</title>
<path fill="none" stroke="#c4b5fd" d="M133.62,-276.13C133.62,-267.35 133.62,-258.14 133.62,-249.14"/>
<polygon fill="#c4b5fd" stroke="#c4b5fd" points="136.43,-249.38 133.63,-241.38 130.83,-249.38 136.43,-249.38"/>
</g>
<!-- L7 -->
<g id="node8" class="node">
<title>L7</title>
<path fill="#1e293b" stroke="#a78bfa" d="M69.75,-0.5C69.75,-0.5 197.5,-0.5 197.5,-0.5 203.5,-0.5 209.5,-6.5 209.5,-12.5 209.5,-12.5 209.5,-89.5 209.5,-89.5 209.5,-95.5 203.5,-101.5 197.5,-101.5 197.5,-101.5 69.75,-101.5 69.75,-101.5 63.75,-101.5 57.75,-95.5 57.75,-89.5 57.75,-89.5 57.75,-12.5 57.75,-12.5 57.75,-6.5 63.75,-0.5 69.75,-0.5"/>
<text text-anchor="middle" x="133.62" y="-84.2" font-family="Helvetica,sans-Serif" font-size="14.00" fill="#f8fafc">L7 Federation</text>
<polyline fill="none" stroke="#a78bfa" points="57.75,-76.25 209.5,-76.25"/>
<text text-anchor="middle" x="133.62" y="-58.95" font-family="Helvetica,sans-Serif" font-size="14.00" fill="#f8fafc">Gateway bridges</text>
<polyline fill="none" stroke="#a78bfa" points="57.75,-51 209.5,-51"/>
<text text-anchor="middle" x="133.62" y="-33.7" font-family="Helvetica,sans-Serif" font-size="14.00" fill="#f8fafc">Version vectors</text>
<polyline fill="none" stroke="#a78bfa" points="57.75,-25.75 209.5,-25.75"/>
<text text-anchor="middle" x="133.62" y="-8.45" font-family="Helvetica,sans-Serif" font-size="14.00" fill="#f8fafc">Critical span export</text>
</g>
<!-- L6&#45;&gt;L7 -->
<g id="edge7" class="edge">
<title>L6&#45;&gt;L7</title>
<path fill="none" stroke="#c4b5fd" d="M133.62,-138.13C133.62,-129.35 133.62,-120.14 133.62,-111.14"/>
<polygon fill="#c4b5fd" stroke="#c4b5fd" points="136.43,-111.38 133.63,-103.38 130.83,-111.38 136.43,-111.38"/>
</g>
</g>
</svg>
