<?xml version="1.0" encoding="UTF-8" standalone="no"?>
<!DOCTYPE svg PUBLIC "-//W3C//DTD SVG 1.1//EN"
 "http://www.w3.org/Graphics/SVG/1.1/DTD/svg11.dtd">
<!-- Generated by graphviz version 12.2.1 (0)
 -->
<!-- Title: G Pages: 1 -->
<svg width="2053pt" height="106pt"
 viewBox="0.00 0.00 2052.75 106.25" xmlns="http://www.w3.org/2000/svg" xmlns:xlink="http://www.w3.org/1999/xlink">
<g id="graph0" class="graph" transform="scale(1 1) rotate(0) translate(4 102.25)">
<title>G</title>
<polygon fill="#0b1020" stroke="none" points="-4,4 -4,-102.25 2048.75,-102.25 2048.75,4 -4,4"/>
<text text-anchor="middle" x="1022.38" y="-80.95" font-family="Helvetica,sans-Serif" font-size="14.00">UX/CX Journey — Operator Confidence Loop</text>
<!-- Need -->
<g id="node1" class="node">
<title>Need</title>
<path fill="#0f172a" stroke="#34d399" d="M151.75,-36C151.75,-36 12,-36 12,-36 6,-36 0,-30 0,-24 0,-24 0,-12 0,-12 0,-6 6,0 12,0 12,0 151.75,0 151.75,0 157.75,0 163.75,-6 163.75,-12 163.75,-12 163.75,-24 163.75,-24 163.75,-30 157.75,-36 151.75,-36"/>
<text text-anchor="middle" x="81.88" y="-13.32" font-family="Helvetica,sans-Serif" font-size="14.00" fill="#ecfdf5">Need / mission intent</text>
</g>
<!-- Prompt -->
<g id="node2" class="node">
<title>Prompt</title>
<path fill="#0f172a" stroke="#34d399" d="M445.25,-66C445.25,-66 321.25,-66 321.25,-66 315.25,-66 309.25,-60 309.25,-54 309.25,-54 309.25,-42 309.25,-42 309.25,-36 315.25,-30 321.25,-30 321.25,-30 445.25,-30 445.25,-30 451.25,-30 457.25,-36 457.25,-42 457.25,-42 457.25,-54 457.25,-54 457.25,-60 451.25,-66 445.25,-66"/>
<text text-anchor="middle" x="383.25" y="-43.33" font-family="Helvetica,sans-Serif" font-size="14.00" fill="#ecfdf5">Prompt / command</text>
</g>
<!-- Need&#45;&gt;Prompt -->
<g id="edge1" class="edge">
<title>Need&#45;&gt;Prompt</title>
<path fill="none" stroke="#6ee7b7" stroke-width="1.4" d="M163.89,-26.12C205.11,-30.25 255.21,-35.27 297.02,-39.46"/>
<polygon fill="#6ee7b7" stroke="#6ee7b7" stroke-width="1.4" points="296.45,-42.92 306.75,-40.43 297.14,-35.95 296.45,-42.92"/>
<text text-anchor="middle" x="236.5" y="-42.25" font-family="Times,serif" font-size="14.00">fast OODA loop</text>
</g>
<!-- Context -->
<g id="node3" class="node">
<title>Context</title>
<path fill="#0f172a" stroke="#34d399" d="M735.75,-68C735.75,-68 614.75,-68 614.75,-68 608.75,-68 602.75,-62 602.75,-56 602.75,-56 602.75,-44 602.75,-44 602.75,-38 608.75,-32 614.75,-32 614.75,-32 735.75,-32 735.75,-32 741.75,-32 747.75,-38 747.75,-44 747.75,-44 747.75,-56 747.75,-56 747.75,-62 741.75,-68 735.75,-68"/>
<text text-anchor="middle" x="675.25" y="-45.33" font-family="Helvetica,sans-Serif" font-size="14.00" fill="#ecfdf5">Recall + validation</text>
</g>
<!-- Prompt&#45;&gt;Context -->
<g id="edge2" class="edge">
<title>Prompt&#45;&gt;Context</title>
<path fill="none" stroke="#6ee7b7" stroke-width="1.4" d="M457.43,-48.5C497.99,-48.78 548.57,-49.13 590.68,-49.42"/>
<polygon fill="#6ee7b7" stroke="#6ee7b7" stroke-width="1.4" points="590.46,-52.92 600.48,-49.49 590.5,-45.92 590.46,-52.92"/>
<text text-anchor="middle" x="530" y="-53.3" font-family="Times,serif" font-size="14.00">fast OODA loop</text>
</g>
<!-- Action -->
<g id="node4" class="node">
<title>Action</title>
<path fill="#0f172a" stroke="#34d399" d="M999.25,-73C999.25,-73 905.25,-73 905.25,-73 899.25,-73 893.25,-67 893.25,-61 893.25,-61 893.25,-49 893.25,-49 893.25,-43 899.25,-37 905.25,-37 905.25,-37 999.25,-37 999.25,-37 1005.25,-37 1011.25,-43 1011.25,-49 1011.25,-49 1011.25,-61 1011.25,-61 1011.25,-67 1005.25,-73 999.25,-73"/>
<text text-anchor="middle" x="952.25" y="-50.33" font-family="Helvetica,sans-Serif" font-size="14.00" fill="#ecfdf5">Safe execution</text>
</g>
<!-- Context&#45;&gt;Action -->
<g id="edge3" class="edge">
<title>Context&#45;&gt;Action</title>
<path fill="none" stroke="#6ee7b7" stroke-width="1.4" d="M748.14,-51.31C789.19,-52.05 840.43,-52.99 881.17,-53.73"/>
<polygon fill="#6ee7b7" stroke="#6ee7b7" stroke-width="1.4" points="881,-57.22 891.06,-53.91 881.13,-50.22 881,-57.22"/>
<text text-anchor="middle" x="820.5" y="-57.47" font-family="Times,serif" font-size="14.00">fast OODA loop</text>
</g>
<!-- Explain -->
<g id="node5" class="node">
<title>Explain</title>
<path fill="#0f172a" stroke="#34d399" d="M1316,-72C1316,-72 1168.75,-72 1168.75,-72 1162.75,-72 1156.75,-66 1156.75,-60 1156.75,-60 1156.75,-48 1156.75,-48 1156.75,-42 1162.75,-36 1168.75,-36 1168.75,-36 1316,-36 1316,-36 1322,-36 1328,-42 1328,-48 1328,-48 1328,-60 1328,-60 1328,-66 1322,-72 1316,-72"/>
<text text-anchor="middle" x="1242.38" y="-49.33" font-family="Helvetica,sans-Serif" font-size="14.00" fill="#ecfdf5">Reasoning + evidence</text>
</g>
<!-- Action&#45;&gt;Explain -->
<g id="edge4" class="edge">
<title>Action&#45;&gt;Explain</title>
<path fill="none" stroke="#6ee7b7" stroke-width="1.4" d="M1011.56,-54.8C1049.66,-54.67 1100.36,-54.49 1144.44,-54.34"/>
<polygon fill="#6ee7b7" stroke="#6ee7b7" stroke-width="1.4" points="1144.28,-57.84 1154.26,-54.3 1144.25,-50.84 1144.28,-57.84"/>
<text text-anchor="middle" x="1084" y="-58.68" font-family="Times,serif" font-size="14.00">fast OODA loop</text>
</g>
<!-- Observe -->
<g id="node6" class="node">
<title>Observe</title>
<path fill="#0f172a" stroke="#34d399" d="M1708.5,-69C1708.5,-69 1485.5,-69 1485.5,-69 1479.5,-69 1473.5,-63 1473.5,-57 1473.5,-57 1473.5,-45 1473.5,-45 1473.5,-39 1479.5,-33 1485.5,-33 1485.5,-33 1708.5,-33 1708.5,-33 1714.5,-33 1720.5,-39 1720.5,-45 1720.5,-45 1720.5,-57 1720.5,-57 1720.5,-63 1714.5,-69 1708.5,-69"/>
<text text-anchor="middle" x="1597" y="-46.33" font-family="Helvetica,sans-Serif" font-size="14.00" fill="#ecfdf5">Dashboards + TUI + screenshots</text>
</g>
<!-- Explain&#45;&gt;Observe -->
<g id="edge5" class="edge">
<title>Explain&#45;&gt;Observe</title>
<path fill="none" stroke="#6ee7b7" stroke-width="1.4" d="M1328.29,-53.28C1368.13,-52.94 1416.59,-52.53 1461.27,-52.15"/>
<polygon fill="#6ee7b7" stroke="#6ee7b7" stroke-width="1.4" points="1461.06,-55.65 1471.03,-52.06 1461,-48.65 1461.06,-55.65"/>
<text text-anchor="middle" x="1400.75" y="-57.06" font-family="Times,serif" font-size="14.00">fast OODA loop</text>
</g>
<!-- Trust -->
<g id="node7" class="node">
<title>Trust</title>
<path fill="#0f172a" stroke="#34d399" d="M2032.75,-36C2032.75,-36 1878,-36 1878,-36 1872,-36 1866,-30 1866,-24 1866,-24 1866,-12 1866,-12 1866,-6 1872,0 1878,0 1878,0 2032.75,0 2032.75,0 2038.75,0 2044.75,-6 2044.75,-12 2044.75,-12 2044.75,-24 2044.75,-24 2044.75,-30 2038.75,-36 2032.75,-36"/>
<text text-anchor="middle" x="1955.38" y="-13.32" font-family="Helvetica,sans-Serif" font-size="14.00" fill="#ecfdf5">Operator trust / closure</text>
</g>
<!-- Observe&#45;&gt;Trust -->
<g id="edge6" class="edge">
<title>Observe&#45;&gt;Trust</title>
<path fill="none" stroke="#6ee7b7" stroke-width="1.4" d="M1720.64,-39.64C1763.98,-35.63 1812.19,-31.17 1853.52,-27.34"/>
<polygon fill="#6ee7b7" stroke="#6ee7b7" stroke-width="1.4" points="1853.8,-30.83 1863.43,-26.42 1853.15,-23.86 1853.8,-30.83"/>
<text text-anchor="middle" x="1793.25" y="-41.41" font-family="Times,serif" font-size="14.00">fast OODA loop</text>
</g>
<!-- Trust&#45;&gt;Need -->
<g id="edge7" class="edge">
<title>Trust&#45;&gt;Need</title>
<path fill="none" stroke="#6ee7b7" stroke-width="1.4" d="M1865.82,-11.81C1793.74,-7.31 1689.35,-2 1598,-2 382.25,-2 382.25,-2 382.25,-2 313.1,-2 235.1,-6.31 176.06,-10.45"/>
<polygon fill="#6ee7b7" stroke="#6ee7b7" stroke-width="1.4" points="175.97,-6.95 166.25,-11.16 176.47,-13.93 175.97,-6.95"/>
<text text-anchor="middle" x="952.25" y="-5.95" font-family="Times,serif" font-size="14.00">fast OODA loop</text>
</g>
</g>
</svg>
