<?xml version="1.0" encoding="UTF-8" standalone="no"?>
<!DOCTYPE svg PUBLIC "-//W3C//DTD SVG 1.1//EN"
 "http://www.w3.org/Graphics/SVG/1.1/DTD/svg11.dtd">
<!-- Generated by graphviz version 12.2.1 (0)
 -->
<!-- Title: G Pages: 1 -->
<svg width="1120pt" height="471pt"
 viewBox="0.00 0.00 1119.75 470.51" xmlns="http://www.w3.org/2000/svg" xmlns:xlink="http://www.w3.org/1999/xlink">
<g id="graph0" class="graph" transform="scale(1 1) rotate(0) translate(4 466.51)">
<title>G</title>
<polygon fill="#0b1020" stroke="none" points="-4,4 -4,-466.51 1115.75,-466.51 1115.75,4 -4,4"/>
<text text-anchor="middle" x="555.88" y="-445.21" font-family="Helvetica,sans-Serif" font-size="14.00">Pi Runtime + Safety State Machine</text>
<!-- Stopped -->
<g id="node1" class="node">
<title>Stopped</title>
<ellipse fill="#172554" stroke="#60a5fa" cx="51.73" cy="-119.15" rx="51.73" ry="51.73"/>
<text text-anchor="middle" x="51.73" y="-114.48" font-family="Helvetica,sans-Serif" font-size="14.00" fill="#dbeafe">Stopped</text>
</g>
<!-- Starting -->
<g id="node2" class="node">
<title>Starting</title>
<ellipse fill="#172554" stroke="#60a5fa" cx="226.37" cy="-260.15" rx="50.16" ry="50.16"/>
<text text-anchor="middle" x="226.37" y="-255.48" font-family="Helvetica,sans-Serif" font-size="14.00" fill="#dbeafe">Starting</text>
</g>
<!-- Stopped&#45;&gt;Starting -->
<g id="edge1" class="edge">
<title>Stopped&#45;&gt;Starting</title>
<path fill="none" stroke="#93c5fd" stroke-width="1.5" d="M92.34,-151.5C117.72,-172.23 150.81,-199.25 177.64,-221.16"/>
<polygon fill="#93c5fd" stroke="#93c5fd" stroke-width="1.5" points="175.13,-223.63 185.08,-227.25 179.55,-218.21 175.13,-223.63"/>
<text text-anchor="middle" x="139.84" y="-206.23" font-family="Times,serif" font-size="14.00">Start</text>
</g>
<!-- Running -->
<g id="node3" class="node">
<title>Running</title>
<ellipse fill="#172554" stroke="#60a5fa" cx="458.01" cy="-260.15" rx="51.73" ry="51.73"/>
<text text-anchor="middle" x="458.01" y="-255.48" font-family="Helvetica,sans-Serif" font-size="14.00" fill="#dbeafe">Running</text>
</g>
<!-- Starting&#45;&gt;Running -->
<g id="edge2" class="edge">
<title>Starting&#45;&gt;Running</title>
<path fill="none" stroke="#93c5fd" stroke-width="1.5" d="M276.92,-260.15C311.15,-260.15 356.98,-260.15 393.84,-260.15"/>
<polygon fill="#93c5fd" stroke="#93c5fd" stroke-width="1.5" points="393.7,-263.65 403.7,-260.15 393.7,-256.65 393.7,-263.65"/>
<text text-anchor="middle" x="341.4" y="-264.1" font-family="Times,serif" font-size="14.00">spawn ok</text>
</g>
<!-- Failed -->
<g id="node7" class="node">
<title>Failed</title>
<ellipse fill="#172554" stroke="#60a5fa" cx="790.13" cy="-398.15" rx="39.11" ry="39.11"/>
<text text-anchor="middle" x="790.13" y="-393.48" font-family="Helvetica,sans-Serif" font-size="14.00" fill="#dbeafe">Failed</text>
</g>
<!-- Starting&#45;&gt;Failed -->
<g id="edge3" class="edge">
<title>Starting&#45;&gt;Failed</title>
<path fill="none" stroke="#93c5fd" stroke-width="1.5" d="M271.22,-283C328.48,-311.61 432.64,-359.49 527.75,-381.15 599.79,-397.56 685.67,-399.99 738.81,-399.57"/>
<polygon fill="#93c5fd" stroke="#93c5fd" stroke-width="1.5" points="738.71,-403.07 748.66,-399.45 738.62,-396.07 738.71,-403.07"/>
<text text-anchor="middle" x="458.01" y="-380.51" font-family="Times,serif" font-size="14.00">spawn fail</text>
</g>
<!-- Open -->
<g id="node5" class="node">
<title>Open</title>
<ellipse fill="#172554" stroke="#60a5fa" cx="790.13" cy="-213.15" rx="74.88" ry="74.88"/>
<text text-anchor="middle" x="790.13" y="-208.48" font-family="Helvetica,sans-Serif" font-size="14.00" fill="#dbeafe">BreakerOpen</text>
</g>
<!-- Running&#45;&gt;Open -->
<g id="edge4" class="edge">
<title>Running&#45;&gt;Open</title>
<path fill="none" stroke="#93c5fd" stroke-width="1.5" d="M509.51,-252.96C561.07,-245.62 642.06,-234.09 703.64,-225.32"/>
<polygon fill="#93c5fd" stroke="#93c5fd" stroke-width="1.5" points="704.02,-228.8 713.43,-223.93 703.04,-221.87 704.02,-228.8"/>
<text text-anchor="middle" x="612.5" y="-253.95" font-family="Times,serif" font-size="14.00">3 failures</text>
</g>
<!-- ShuttingDown -->
<g id="node6" class="node">
<title>ShuttingDown</title>
<ellipse fill="#172554" stroke="#60a5fa" cx="790.13" cy="-60.15" rx="60.15" ry="60.15"/>
<text text-anchor="middle" x="790.13" y="-55.48" font-family="Helvetica,sans-Serif" font-size="14.00" fill="#dbeafe">Shutdown</text>
</g>
<!-- Running&#45;&gt;ShuttingDown -->
<g id="edge8" class="edge">
<title>Running&#45;&gt;ShuttingDown</title>
<path fill="none" stroke="#93c5fd" stroke-width="1.5" d="M498.06,-227.3C507.53,-219.91 517.8,-212.35 527.75,-205.9 599.1,-159.64 623.4,-159.32 697.25,-117.15 707.52,-111.29 718.3,-104.86 728.72,-98.5"/>
<polygon fill="#93c5fd" stroke="#93c5fd" stroke-width="1.5" points="730.36,-101.59 737.05,-93.37 726.69,-95.63 730.36,-101.59"/>
<text text-anchor="middle" x="612.5" y="-209.85" font-family="Times,serif" font-size="14.00">SIGTERM</text>
</g>
<!-- Running&#45;&gt;Failed -->
<g id="edge10" class="edge">
<title>Running&#45;&gt;Failed</title>
<path fill="none" stroke="#93c5fd" stroke-width="1.5" d="M487.5,-302.93C498.51,-316.26 512.22,-329.68 527.75,-338.15 594.63,-374.66 623.49,-344.77 697.25,-363.9 712.33,-367.81 728.37,-373.31 742.76,-378.75"/>
<polygon fill="#93c5fd" stroke="#93c5fd" stroke-width="1.5" points="741.19,-381.9 751.78,-382.25 743.73,-375.37 741.19,-381.9"/>
<text text-anchor="middle" x="612.5" y="-367.85" font-family="Times,serif" font-size="14.00">&gt;5 restarts / crash loop</text>
</g>
<!-- HalfOpen -->
<g id="node4" class="node">
<title>HalfOpen</title>
<ellipse fill="#172554" stroke="#60a5fa" cx="1054.76" cy="-253.15" rx="57" ry="57"/>
<text text-anchor="middle" x="1054.76" y="-248.48" font-family="Helvetica,sans-Serif" font-size="14.00" fill="#dbeafe">HalfOpen</text>
</g>
<!-- HalfOpen&#45;&gt;Running -->
<g id="edge6" class="edge">
<title>HalfOpen&#45;&gt;Running</title>
<path fill="none" stroke="#93c5fd" stroke-width="1.5" d="M999.83,-269.2C962.39,-279.47 911.14,-291.85 865.01,-297.15 743.12,-311.17 600.14,-289.24 520.53,-273.62"/>
<polygon fill="#93c5fd" stroke="#93c5fd" stroke-width="1.5" points="521.5,-270.24 511.01,-271.71 520.12,-277.1 521.5,-270.24"/>
<text text-anchor="middle" x="790.13" y="-305.58" font-family="Times,serif" font-size="14.00">success</text>
</g>
<!-- HalfOpen&#45;&gt;Open -->
<g id="edge7" class="edge">
<title>HalfOpen&#45;&gt;Open</title>
<path fill="none" stroke="#93c5fd" stroke-width="1.5" d="M997.87,-246.88C964.47,-242.91 921.22,-237.35 883.01,-231.15 880.57,-230.76 878.09,-230.34 875.59,-229.92"/>
<polygon fill="#93c5fd" stroke="#93c5fd" stroke-width="1.5" points="876.47,-226.52 866.01,-228.23 875.26,-233.41 876.47,-226.52"/>
<text text-anchor="middle" x="931.39" y="-248.14" font-family="Times,serif" font-size="14.00">failure</text>
</g>
<!-- Open&#45;&gt;HalfOpen -->
<g id="edge5" class="edge">
<title>Open&#45;&gt;HalfOpen</title>
<path fill="none" stroke="#93c5fd" stroke-width="1.5" d="M864.71,-205.33C900,-203.62 942.6,-204.58 979.76,-213.9 984.68,-215.14 989.64,-216.76 994.52,-218.65"/>
<polygon fill="#93c5fd" stroke="#93c5fd" stroke-width="1.5" points="993.09,-221.85 1003.66,-222.58 995.86,-215.42 993.09,-221.85"/>
<text text-anchor="middle" x="931.39" y="-217.85" font-family="Times,serif" font-size="14.00">60s cooldown</text>
</g>
<!-- ShuttingDown&#45;&gt;Stopped -->
<g id="edge9" class="edge">
<title>ShuttingDown&#45;&gt;Stopped</title>
<path fill="none" stroke="#93c5fd" stroke-width="1.5" d="M729.89,-64.9C593.1,-75.86 256.25,-102.85 115.81,-114.1"/>
<polygon fill="#93c5fd" stroke="#93c5fd" stroke-width="1.5" points="115.59,-110.6 105.9,-114.89 116.15,-117.58 115.59,-110.6"/>
<text text-anchor="middle" x="341.4" y="-103.63" font-family="Times,serif" font-size="14.00">graceful stop</text>
</g>
</g>
</svg>
