<?xml version="1.0" encoding="UTF-8" standalone="no"?>
<!DOCTYPE svg PUBLIC "-//W3C//DTD SVG 1.1//EN"
 "http://www.w3.org/Graphics/SVG/1.1/DTD/svg11.dtd">
<!-- Generated by graphviz version 12.2.1 (0)
 -->
<!-- Title: metrics Pages: 1 -->
<svg width="2228pt" height="45pt"
 viewBox="0.00 0.00 2228.25 45.00" xmlns="http://www.w3.org/2000/svg" xmlns:xlink="http://www.w3.org/1999/xlink">
<g id="graph0" class="graph" transform="scale(1 1) rotate(0) translate(4 41)">
<title>metrics</title>
<polygon fill="#0b0f14" stroke="none" points="-4,4 -4,-41 2224.25,-41 2224.25,4 -4,4"/>
<!-- OBS -->
<g id="node1" class="node">
<title>OBS</title>
<polygon fill="#0f2a1e" stroke="#1e2a37" points="0,-0.5 0,-36.5 699.5,-36.5 699.5,-0.5 0,-0.5"/>
<text text-anchor="middle" x="30.88" y="-15.5" font-family="Helvetica,sans-Serif" font-size="10.00" fill="#4ade80">OBSERVE</text>
<polyline fill="none" stroke="#1e2a37" points="61.75,-0.75 61.75,-36.5"/>
<text text-anchor="middle" x="105.38" y="-15.5" font-family="Helvetica,sans-Serif" font-size="10.00" fill="#4ade80">holons: 35 326</text>
<polyline fill="none" stroke="#1e2a37" points="149,-0.75 149,-36.5"/>
<text text-anchor="middle" x="206.5" y="-15.5" font-family="Helvetica,sans-Serif" font-size="10.00" fill="#4ade80">embeddings: 13 541</text>
<polyline fill="none" stroke="#1e2a37" points="264,-0.75 264,-36.5"/>
<text text-anchor="middle" x="303.12" y="-15.5" font-family="Helvetica,sans-Serif" font-size="10.00" fill="#4ade80">edges: 3 074</text>
<polyline fill="none" stroke="#1e2a37" points="342.25,-0.75 342.25,-36.5"/>
<text text-anchor="middle" x="397.5" y="-15.5" font-family="Helvetica,sans-Serif" font-size="10.00" fill="#4ade80">sessions: 17 (pi 16)</text>
<polyline fill="none" stroke="#1e2a37" points="452.75,-0.75 452.75,-36.5"/>
<text text-anchor="middle" x="493.38" y="-15.5" font-family="Helvetica,sans-Serif" font-size="10.00" fill="#4ade80">turn_spans: 6</text>
<polyline fill="none" stroke="#1e2a37" points="534,-0.75 534,-36.5"/>
<text text-anchor="middle" x="576.12" y="-15.5" font-family="Helvetica,sans-Serif" font-size="10.00" fill="#4ade80">tokens: 743 M</text>
<polyline fill="none" stroke="#1e2a37" points="618.25,-0.75 618.25,-36.5"/>
<text text-anchor="middle" x="658.88" y="-15.5" font-family="Helvetica,sans-Serif" font-size="10.00" fill="#4ade80">cost: $621.50</text>
</g>
<!-- OR -->
<g id="node2" class="node">
<title>OR</title>
<polygon fill="#132137" stroke="#1e2a37" points="735.5,-0.5 735.5,-36.5 1256.75,-36.5 1256.75,-0.5 735.5,-0.5"/>
<text text-anchor="middle" x="761.88" y="-15.5" font-family="Helvetica,sans-Serif" font-size="10.00" fill="#cfe7ff">ORIENT</text>
<polyline fill="none" stroke="#1e2a37" points="788.25,-0.75 788.25,-36.5"/>
<text text-anchor="middle" x="842.38" y="-15.5" font-family="Helvetica,sans-Serif" font-size="10.00" fill="#cfe7ff">embed_cov: 38.3%</text>
<polyline fill="none" stroke="#1e2a37" points="896.5,-0.75 896.5,-36.5"/>
<text text-anchor="middle" x="944.25" y="-15.5" font-family="Helvetica,sans-Serif" font-size="10.00" fill="#cfe7ff">tok/sess: 43.7 M</text>
<polyline fill="none" stroke="#1e2a37" points="992,-0.75 992,-36.5"/>
<text text-anchor="middle" x="1031.88" y="-15.5" font-family="Helvetica,sans-Serif" font-size="10.00" fill="#cfe7ff">$/sess: 36.56</text>
<polyline fill="none" stroke="#1e2a37" points="1071.75,-0.75 1071.75,-36.5"/>
<text text-anchor="middle" x="1116.5" y="-15.5" font-family="Helvetica,sans-Serif" font-size="10.00" fill="#cfe7ff">cache_hit: 0.00</text>
<polyline fill="none" stroke="#1e2a37" points="1161.25,-0.75 1161.25,-36.5"/>
<text text-anchor="middle" x="1209" y="-15.5" font-family="Helvetica,sans-Serif" font-size="10.00" fill="#cfe7ff">cache_entries: 4</text>
</g>
<!-- OBS&#45;&gt;OR -->
<!-- DEC -->
<g id="node3" class="node">
<title>DEC</title>
<polygon fill="#2a1e0f" stroke="#1e2a37" points="1292.75,-0.5 1292.75,-36.5 1802.75,-36.5 1802.75,-0.5 1292.75,-0.5"/>
<text text-anchor="middle" x="1319.12" y="-15.5" font-family="Helvetica,sans-Serif" font-size="10.00" fill="#fbbf24">DECIDE</text>
<polyline fill="none" stroke="#1e2a37" points="1345.5,-0.75 1345.5,-36.5"/>
<text text-anchor="middle" x="1391" y="-15.5" font-family="Helvetica,sans-Serif" font-size="10.00" fill="#fbbf24">⚠ EMBED_LOW</text>
<polyline fill="none" stroke="#1e2a37" points="1436.5,-0.75 1436.5,-36.5"/>
<text text-anchor="middle" x="1479" y="-15.5" font-family="Helvetica,sans-Serif" font-size="10.00" fill="#fbbf24">⚠ COST_HIGH</text>
<polyline fill="none" stroke="#1e2a37" points="1521.5,-0.75 1521.5,-36.5"/>
<text text-anchor="middle" x="1567.38" y="-15.5" font-family="Helvetica,sans-Serif" font-size="10.00" fill="#fbbf24">✓ TURN_SPANS</text>
<polyline fill="none" stroke="#1e2a37" points="1613.25,-0.75 1613.25,-36.5"/>
<text text-anchor="middle" x="1654.62" y="-15.5" font-family="Helvetica,sans-Serif" font-size="10.00" fill="#fbbf24">✓ CACHE_HIT</text>
<polyline fill="none" stroke="#1e2a37" points="1696,-0.75 1696,-36.5"/>
<text text-anchor="middle" x="1749.38" y="-15.5" font-family="Helvetica,sans-Serif" font-size="10.00" fill="#fbbf24">✓ PI_TURN_TRACE</text>
</g>
<!-- OR&#45;&gt;DEC -->
<!-- ACT -->
<g id="node4" class="node">
<title>ACT</title>
<polygon fill="#1e1a2e" stroke="#1e2a37" points="1838.75,-0.5 1838.75,-36.5 2220.25,-36.5 2220.25,-0.5 1838.75,-0.5"/>
<text text-anchor="middle" x="1856.5" y="-15.5" font-family="Helvetica,sans-Serif" font-size="10.00" fill="#a78bfa">ACT</text>
<polyline fill="none" stroke="#1e2a37" points="1874.25,-0.75 1874.25,-36.5"/>
<text text-anchor="middle" x="1908.12" y="-15.5" font-family="Helvetica,sans-Serif" font-size="10.00" fill="#a78bfa">write JSON</text>
<polyline fill="none" stroke="#1e2a37" points="1942,-0.75 1942,-36.5"/>
<text text-anchor="middle" x="1974.75" y="-15.5" font-family="Helvetica,sans-Serif" font-size="10.00" fill="#a78bfa">put Zenoh</text>
<polyline fill="none" stroke="#1e2a37" points="2007.5,-0.75 2007.5,-36.5"/>
<text text-anchor="middle" x="2060.12" y="-15.5" font-family="Helvetica,sans-Serif" font-size="10.00" fill="#a78bfa">dashboard poll 2 s</text>
<polyline fill="none" stroke="#1e2a37" points="2112.75,-0.75 2112.75,-36.5"/>
<text text-anchor="middle" x="2166.5" y="-15.5" font-family="Helvetica,sans-Serif" font-size="10.00" fill="#a78bfa">snapshot age 2.5 s</text>
</g>
<!-- DEC&#45;&gt;ACT -->
</g>
</svg>
