<?xml version="1.0" encoding="UTF-8" standalone="no"?>
<!DOCTYPE svg PUBLIC "-//W3C//DTD SVG 1.1//EN"
 "http://www.w3.org/Graphics/SVG/1.1/DTD/svg11.dtd">
<!-- Generated by graphviz version 12.2.1 (0)
 -->
<!-- Title: Bench Pages: 1 -->
<svg width="537pt" height="180pt"
 viewBox="0.00 0.00 536.75 180.00" xmlns="http://www.w3.org/2000/svg" xmlns:xlink="http://www.w3.org/1999/xlink">
<g id="graph0" class="graph" transform="scale(1 1) rotate(0) translate(4 176)">
<title>Bench</title>
<polygon fill="#0a0e17" stroke="none" points="-4,4 -4,-176 532.75,-176 532.75,4 -4,4"/>
<!-- Req -->
<g id="node1" class="node">
<title>Req</title>
<path fill="lightgrey" stroke="black" d="M139,-103.5C139,-103.5 12,-103.5 12,-103.5 6,-103.5 0,-97.5 0,-91.5 0,-91.5 0,-79.5 0,-79.5 0,-73.5 6,-67.5 12,-67.5 12,-67.5 139,-67.5 139,-67.5 145,-67.5 151,-73.5 151,-79.5 151,-79.5 151,-91.5 151,-91.5 151,-97.5 145,-103.5 139,-103.5"/>
<text text-anchor="middle" x="75.5" y="-80.83" font-family="Helvetica,sans-Serif" font-size="14.00" fill="#e0e6ed">10 sample prompts</text>
</g>
<!-- OHT -->
<g id="node2" class="node">
<title>OHT</title>
<path fill="#2a0e0e" stroke="#ff4757" d="M360.5,-145.75C360.5,-145.75 199,-145.75 199,-145.75 193,-145.75 187,-139.75 187,-133.75 187,-133.75 187,-115.25 187,-115.25 187,-109.25 193,-103.25 199,-103.25 199,-103.25 360.5,-103.25 360.5,-103.25 366.5,-103.25 372.5,-109.25 372.5,-115.25 372.5,-115.25 372.5,-133.75 372.5,-133.75 372.5,-139.75 366.5,-145.75 360.5,-145.75"/>
<text text-anchor="middle" x="279.75" y="-128.45" font-family="Helvetica,sans-Serif" font-size="14.00" fill="#e0e6ed">Ollama /api/embeddings</text>
<text text-anchor="middle" x="279.75" y="-111.2" font-family="Helvetica,sans-Serif" font-size="14.00" fill="#e0e6ed">(HTTP hop)</text>
</g>
<!-- Req&#45;&gt;OHT -->
<g id="edge1" class="edge">
<title>Req&#45;&gt;OHT</title>
<path fill="none" stroke="#00d4aa" d="M151.24,-99.91C159.2,-101.45 167.41,-103.03 175.63,-104.61"/>
<polygon fill="#00d4aa" stroke="#00d4aa" points="174.86,-108.03 185.34,-106.49 176.19,-101.16 174.86,-108.03"/>
</g>
<!-- FE -->
<g id="node3" class="node">
<title>FE</title>
<path fill="#0e2a1e" stroke="#3dd68c" d="M339.88,-76.75C339.88,-76.75 219.62,-76.75 219.62,-76.75 213.62,-76.75 207.62,-70.75 207.62,-64.75 207.62,-64.75 207.62,-46.25 207.62,-46.25 207.62,-40.25 213.62,-34.25 219.62,-34.25 219.62,-34.25 339.88,-34.25 339.88,-34.25 345.88,-34.25 351.88,-40.25 351.88,-46.25 351.88,-46.25 351.88,-64.75 351.88,-64.75 351.88,-70.75 345.88,-76.75 339.88,-76.75"/>
<text text-anchor="middle" x="279.75" y="-59.45" font-family="Helvetica,sans-Serif" font-size="14.00" fill="#e0e6ed">fastembed NIF</text>
<text text-anchor="middle" x="279.75" y="-42.2" font-family="Helvetica,sans-Serif" font-size="14.00" fill="#e0e6ed">(in&#45;process ONNX)</text>
</g>
<!-- Req&#45;&gt;FE -->
<g id="edge3" class="edge">
<title>Req&#45;&gt;FE</title>
<path fill="none" stroke="#00d4aa" d="M151.24,-74.41C165.85,-72.25 181.26,-69.96 196.11,-67.76"/>
<polygon fill="#00d4aa" stroke="#00d4aa" points="196.47,-71.24 205.85,-66.31 195.44,-64.32 196.47,-71.24"/>
</g>
<!-- OllamaRes -->
<g id="node4" class="node">
<title>OllamaRes</title>
<path fill="#2a0e0e" stroke="#ff4757" d="M516.75,-172C516.75,-172 420.5,-172 420.5,-172 414.5,-172 408.5,-166 408.5,-160 408.5,-160 408.5,-107 408.5,-107 408.5,-101 414.5,-95 420.5,-95 420.5,-95 516.75,-95 516.75,-95 522.75,-95 528.75,-101 528.75,-107 528.75,-107 528.75,-160 528.75,-160 528.75,-166 522.75,-172 516.75,-172"/>
<text text-anchor="middle" x="468.62" y="-154.7" font-family="Helvetica,sans-Serif" font-size="14.00" fill="#e0e6ed">8/10 success</text>
<text text-anchor="middle" x="468.62" y="-137.45" font-family="Helvetica,sans-Serif" font-size="14.00" fill="#e0e6ed">84 383 ms/doc</text>
<text text-anchor="middle" x="468.62" y="-120.2" font-family="Helvetica,sans-Serif" font-size="14.00" fill="#e0e6ed">0.012 doc/s</text>
<text text-anchor="middle" x="468.62" y="-102.95" font-family="Helvetica,sans-Serif" font-size="14.00" fill="#e0e6ed">(timeouts)</text>
</g>
<!-- OHT&#45;&gt;OllamaRes -->
<g id="edge2" class="edge">
<title>OHT&#45;&gt;OllamaRes</title>
<path fill="none" stroke="#00d4aa" d="M372.82,-128.93C380.87,-129.32 388.93,-129.71 396.76,-130.09"/>
<polygon fill="#00d4aa" stroke="#00d4aa" points="396.38,-133.57 406.54,-130.56 396.72,-126.58 396.38,-133.57"/>
</g>
<!-- FERes -->
<g id="node5" class="node">
<title>FERes</title>
<path fill="#0e2a1e" stroke="#3dd68c" d="M514.5,-77C514.5,-77 422.75,-77 422.75,-77 416.75,-77 410.75,-71 410.75,-65 410.75,-65 410.75,-12 410.75,-12 410.75,-6 416.75,0 422.75,0 422.75,0 514.5,0 514.5,0 520.5,0 526.5,-6 526.5,-12 526.5,-12 526.5,-65 526.5,-65 526.5,-71 520.5,-77 514.5,-77"/>
<text text-anchor="middle" x="468.62" y="-59.7" font-family="Helvetica,sans-Serif" font-size="14.00" fill="#e0e6ed">10/10 success</text>
<text text-anchor="middle" x="468.62" y="-42.45" font-family="Helvetica,sans-Serif" font-size="14.00" fill="#e0e6ed">1 646 ms/doc</text>
<text text-anchor="middle" x="468.62" y="-25.2" font-family="Helvetica,sans-Serif" font-size="14.00" fill="#e0e6ed">0.61 doc/s</text>
<text text-anchor="middle" x="468.62" y="-7.95" font-family="Helvetica,sans-Serif" font-size="14.00" fill="#e0e6ed">(51× faster)</text>
</g>
<!-- FE&#45;&gt;FERes -->
<g id="edge4" class="edge">
<title>FE&#45;&gt;FERes</title>
<path fill="none" stroke="#00d4aa" d="M352.2,-49C367.55,-47.6 383.75,-46.13 398.99,-44.74"/>
<polygon fill="#00d4aa" stroke="#00d4aa" points="399.29,-48.23 408.93,-43.84 398.65,-41.26 399.29,-48.23"/>
</g>
</g>
</svg>
