<?xml version="1.0" encoding="UTF-8" standalone="no"?>
<!DOCTYPE svg PUBLIC "-//W3C//DTD SVG 1.1//EN"
 "http://www.w3.org/Graphics/SVG/1.1/DTD/svg11.dtd">
<!-- Generated by graphviz version 12.2.1 (0)
 -->
<!-- Title: P8 Pages: 1 -->
<svg width="3274pt" height="618pt"
 viewBox="0.00 0.00 3274.00 617.50" xmlns="http://www.w3.org/2000/svg" xmlns:xlink="http://www.w3.org/1999/xlink">
<g id="graph0" class="graph" transform="scale(1 1) rotate(0) translate(4 613.5)">
<title>P8</title>
<polygon fill="#0a0e17" stroke="none" points="-4,4 -4,-613.5 3270,-613.5 3270,4 -4,4"/>
<g id="clust1" class="cluster">
<title>cluster_gleam</title>
<polygon fill="#0a0e17" stroke="#00d4aa" points="8,-517.75 8,-601.5 3258,-601.5 3258,-517.75 8,-517.75"/>
<text text-anchor="middle" x="1633" y="-584.2" font-family="Helvetica,sans-Serif" font-size="14.00" fill="#00d4aa">Gleam + OTP (pass&#45;8 modules)</text>
</g>
<g id="clust2" class="cluster">
<title>cluster_coord</title>
<polygon fill="#0a0e17" stroke="#f5a623" points="1218,-234.62 1218,-498.75 1562,-498.75 1562,-234.62 1218,-234.62"/>
<text text-anchor="middle" x="1390" y="-481.45" font-family="Helvetica,sans-Serif" font-size="14.00" fill="#f5a623">OTP coordinator</text>
</g>
<g id="clust3" class="cluster">
<title>cluster_nif</title>
<polygon fill="#0a0e17" stroke="#9b6cff" points="1570,-208.75 1570,-344.25 2295,-344.25 2295,-208.75 1570,-208.75"/>
<text text-anchor="middle" x="1932.5" y="-326.95" font-family="Helvetica,sans-Serif" font-size="14.00" fill="#9b6cff">Rust NIF (scripts_nif.so, 18 MB)</text>
</g>
<g id="clust4" class="cluster">
<title>cluster_storage</title>
<polygon fill="#0a0e17" stroke="#00bfff" points="1373,-25.25 1373,-160.75 2122,-160.75 2122,-25.25 1373,-25.25"/>
<text text-anchor="middle" x="1747.5" y="-143.45" font-family="Helvetica,sans-Serif" font-size="14.00" fill="#00bfff">Storage (smriti.db · 166 MB WAL)</text>
</g>
<g id="clust5" class="cluster">
<title>cluster_mesh</title>
<polygon fill="#0a0e17" stroke="#3dd68c" points="2137,-8 2137,-178 2449,-178 2449,-8 2137,-8"/>
<text text-anchor="middle" x="2293" y="-160.7" font-family="Helvetica,sans-Serif" font-size="14.00" fill="#3dd68c">Zenoh mesh (indrajaal/l4/sre/** · l5/cog/**)</text>
</g>
<!-- P01 -->
<g id="node1" class="node">
<title>P01</title>
<path fill="#141922" stroke="#1e2a3a" d="M1280.88,-565C1280.88,-565 1117.12,-565 1117.12,-565 1111.12,-565 1105.12,-559 1105.12,-553 1105.12,-553 1105.12,-541 1105.12,-541 1105.12,-535 1111.12,-529 1117.12,-529 1117.12,-529 1280.88,-529 1280.88,-529 1286.88,-529 1292.88,-535 1292.88,-541 1292.88,-541 1292.88,-553 1292.88,-553 1292.88,-559 1286.88,-565 1280.88,-565"/>
<text text-anchor="middle" x="1199" y="-542.33" font-family="Helvetica,sans-Serif" font-size="14.00" fill="#e0e6ed">#1 prefix_cache_warmer</text>
</g>
<!-- Coord -->
<g id="node19" class="node">
<title>Coord</title>
<path fill="#2a1e0e" stroke="#f5a623" d="M1385.12,-465.5C1385.12,-465.5 1270.88,-465.5 1270.88,-465.5 1264.88,-465.5 1258.88,-459.5 1258.88,-453.5 1258.88,-453.5 1258.88,-383.25 1258.88,-383.25 1258.88,-377.25 1264.88,-371.25 1270.88,-371.25 1270.88,-371.25 1385.12,-371.25 1385.12,-371.25 1391.12,-371.25 1397.12,-377.25 1397.12,-383.25 1397.12,-383.25 1397.12,-453.5 1397.12,-453.5 1397.12,-459.5 1391.12,-465.5 1385.12,-465.5"/>
<text text-anchor="middle" x="1328" y="-448.2" font-family="Helvetica,sans-Serif" font-size="14.00" fill="#e0e6ed">kms_coord</text>
<text text-anchor="middle" x="1328" y="-430.95" font-family="Helvetica,sans-Serif" font-size="14.00" fill="#e0e6ed">(gleam_otp actor)</text>
<text text-anchor="middle" x="1328" y="-413.7" font-family="Helvetica,sans-Serif" font-size="14.00" fill="#e0e6ed">circuit breaker</text>
<text text-anchor="middle" x="1328" y="-396.45" font-family="Helvetica,sans-Serif" font-size="14.00" fill="#e0e6ed">rate&#45;limit</text>
<text text-anchor="middle" x="1328" y="-379.2" font-family="Helvetica,sans-Serif" font-size="14.00" fill="#e0e6ed">metrics</text>
</g>
<!-- P01&#45;&gt;Coord -->
<g id="edge1" class="edge">
<title>P01&#45;&gt;Coord</title>
<path fill="none" stroke="#00d4aa" d="M1224.19,-528.68C1232.69,-522.44 1242.03,-515.11 1250,-507.75 1261.13,-497.47 1272.35,-485.75 1282.67,-474.27"/>
<polygon fill="#00d4aa" stroke="#00d4aa" points="1284.99,-476.93 1289.01,-467.12 1279.76,-472.28 1284.99,-476.93"/>
</g>
<!-- Ze -->
<g id="node24" class="node">
<title>Ze</title>
<path fill="#141922" stroke="#1e2a3a" d="M2275,-285.12C2275,-285.12 2211,-285.12 2211,-285.12 2205,-285.12 2199,-279.12 2199,-273.12 2199,-273.12 2199,-254.62 2199,-254.62 2199,-248.62 2205,-242.62 2211,-242.62 2211,-242.62 2275,-242.62 2275,-242.62 2281,-242.62 2287,-248.62 2287,-254.62 2287,-254.62 2287,-273.12 2287,-273.12 2287,-279.12 2281,-285.12 2275,-285.12"/>
<text text-anchor="middle" x="2243" y="-267.82" font-family="Helvetica,sans-Serif" font-size="14.00" fill="#e0e6ed">zenoh_put</text>
<text text-anchor="middle" x="2243" y="-250.57" font-family="Helvetica,sans-Serif" font-size="14.00" fill="#e0e6ed">zenoh_get</text>
</g>
<!-- P01&#45;&gt;Ze -->
<g id="edge20" class="edge">
<title>P01&#45;&gt;Ze</title>
<path fill="none" stroke="#00d4aa" d="M1252.72,-528.56C1268.44,-524.2 1285.76,-520.1 1302,-517.75 1330.76,-513.6 1798,-518.49 1825,-507.75 1908.75,-474.42 1893.13,-408.96 1975,-371.25 2062.47,-330.96 2108.07,-394.87 2190,-344.25 2208.21,-333 2221.54,-312.89 2230.27,-295.73"/>
<polygon fill="#00d4aa" stroke="#00d4aa" points="2233.34,-297.43 2234.47,-286.89 2227.02,-294.42 2233.34,-297.43"/>
</g>
<!-- P02 -->
<g id="node2" class="node">
<title>P02</title>
<path fill="#0e2a1e" stroke="#3dd68c" d="M1075,-568.25C1075,-568.25 903,-568.25 903,-568.25 897,-568.25 891,-562.25 891,-556.25 891,-556.25 891,-537.75 891,-537.75 891,-531.75 897,-525.75 903,-525.75 903,-525.75 1075,-525.75 1075,-525.75 1081,-525.75 1087,-531.75 1087,-537.75 1087,-537.75 1087,-556.25 1087,-556.25 1087,-562.25 1081,-568.25 1075,-568.25"/>
<text text-anchor="middle" x="989" y="-550.95" font-family="Helvetica,sans-Serif" font-size="14.00" fill="#e0e6ed">#2 semantic_cache_fuzzy</text>
<text text-anchor="middle" x="989" y="-533.7" font-family="Helvetica,sans-Serif" font-size="14.00" fill="#e0e6ed">(cosine ≥ 0.92)</text>
</g>
<!-- P02&#45;&gt;Coord -->
<g id="edge2" class="edge">
<title>P02&#45;&gt;Coord</title>
<path fill="none" stroke="#00d4aa" d="M1061.17,-525.27C1072.75,-522.43 1084.65,-519.79 1096,-517.75 1140.83,-509.69 1155.17,-523.26 1198,-507.75 1220.93,-499.45 1243.69,-486.18 1263.6,-472.41"/>
<polygon fill="#00d4aa" stroke="#00d4aa" points="1265.48,-475.38 1271.61,-466.73 1261.43,-469.67 1265.48,-475.38"/>
</g>
<!-- FE -->
<g id="node23" class="node">
<title>FE</title>
<path fill="#1e0e2a" stroke="#9b6cff" d="M2168.62,-311C2168.62,-311 1973.38,-311 1973.38,-311 1967.38,-311 1961.38,-305 1961.38,-299 1961.38,-299 1961.38,-228.75 1961.38,-228.75 1961.38,-222.75 1967.38,-216.75 1973.38,-216.75 1973.38,-216.75 2168.62,-216.75 2168.62,-216.75 2174.62,-216.75 2180.62,-222.75 2180.62,-228.75 2180.62,-228.75 2180.62,-299 2180.62,-299 2180.62,-305 2174.62,-311 2168.62,-311"/>
<text text-anchor="middle" x="2071" y="-293.7" font-family="Helvetica,sans-Serif" font-size="14.00" fill="#e0e6ed">fastembed_embed_one</text>
<text text-anchor="middle" x="2071" y="-276.45" font-family="Helvetica,sans-Serif" font-size="14.00" fill="#e0e6ed">fastembed_embed_batch</text>
<text text-anchor="middle" x="2071" y="-259.2" font-family="Helvetica,sans-Serif" font-size="14.00" fill="#e0e6ed">fastembed_embed_and_store</text>
<text text-anchor="middle" x="2071" y="-241.95" font-family="Helvetica,sans-Serif" font-size="14.00" fill="#e0e6ed">fastembed_rerank_query</text>
<text text-anchor="middle" x="2071" y="-224.7" font-family="Helvetica,sans-Serif" font-size="14.00" fill="#e0e6ed">(ONNX 768&#45;dim)</text>
</g>
<!-- P02&#45;&gt;FE -->
<g id="edge19" class="edge">
<title>P02&#45;&gt;FE</title>
<path fill="none" stroke="#00d4aa" d="M1057.57,-525.28C1070.24,-522.21 1083.44,-519.49 1096,-517.75 1129.13,-513.17 1667.05,-520.45 1698,-507.75 1779.29,-474.4 1763.87,-413.32 1841,-371.25 1885.95,-346.73 1906.13,-364.86 1953,-344.25 1969.38,-337.05 1985.94,-327.56 2001.26,-317.67"/>
<polygon fill="#00d4aa" stroke="#00d4aa" points="2002.96,-320.74 2009.37,-312.3 1999.1,-314.9 2002.96,-320.74"/>
</g>
<!-- P03 -->
<g id="node3" class="node">
<title>P03</title>
<path fill="#141922" stroke="#1e2a3a" d="M1449.12,-565C1449.12,-565 1322.88,-565 1322.88,-565 1316.88,-565 1310.88,-559 1310.88,-553 1310.88,-553 1310.88,-541 1310.88,-541 1310.88,-535 1316.88,-529 1322.88,-529 1322.88,-529 1449.12,-529 1449.12,-529 1455.12,-529 1461.12,-535 1461.12,-541 1461.12,-541 1461.12,-553 1461.12,-553 1461.12,-559 1455.12,-565 1449.12,-565"/>
<text text-anchor="middle" x="1386" y="-542.33" font-family="Helvetica,sans-Serif" font-size="14.00" fill="#e0e6ed">#3 adaptive_router</text>
</g>
<!-- P03&#45;&gt;Coord -->
<g id="edge3" class="edge">
<title>P03&#45;&gt;Coord</title>
<path fill="none" stroke="#00d4aa" d="M1378.06,-528.66C1371.83,-515.06 1362.78,-495.31 1354.09,-476.34"/>
<polygon fill="#00d4aa" stroke="#00d4aa" points="1357.3,-474.93 1349.95,-467.3 1350.93,-477.85 1357.3,-474.93"/>
</g>
<!-- P03&#45;&gt;Ze -->
<g id="edge21" class="edge">
<title>P03&#45;&gt;Ze</title>
<path fill="none" stroke="#00d4aa" d="M1429.38,-528.62C1442.25,-524.23 1456.51,-520.1 1470,-517.75 1522.77,-508.55 1901.01,-524.16 1952,-507.75 2074.16,-468.44 2099.86,-435.59 2190,-344.25 2204.32,-329.74 2217.12,-310.84 2226.55,-295.12"/>
<polygon fill="#00d4aa" stroke="#00d4aa" points="2229.48,-297.04 2231.48,-286.64 2223.43,-293.53 2229.48,-297.04"/>
</g>
<!-- P04 -->
<g id="node4" class="node">
<title>P04</title>
<path fill="#0e2a1e" stroke="#3dd68c" d="M860.88,-568.25C860.88,-568.25 739.12,-568.25 739.12,-568.25 733.12,-568.25 727.12,-562.25 727.12,-556.25 727.12,-556.25 727.12,-537.75 727.12,-537.75 727.12,-531.75 733.12,-525.75 739.12,-525.75 739.12,-525.75 860.88,-525.75 860.88,-525.75 866.88,-525.75 872.88,-531.75 872.88,-537.75 872.88,-537.75 872.88,-556.25 872.88,-556.25 872.88,-562.25 866.88,-568.25 860.88,-568.25"/>
<text text-anchor="middle" x="800" y="-550.95" font-family="Helvetica,sans-Serif" font-size="14.00" fill="#e0e6ed">#4 embed_backfill</text>
<text text-anchor="middle" x="800" y="-533.7" font-family="Helvetica,sans-Serif" font-size="14.00" fill="#e0e6ed">(fastembed NIF)</text>
</g>
<!-- P04&#45;&gt;Coord -->
<g id="edge4" class="edge">
<title>P04&#45;&gt;Coord</title>
<path fill="none" stroke="#00d4aa" d="M853.7,-525.27C863.02,-522.32 872.7,-519.64 882,-517.75 943.99,-505.12 961.72,-518.87 1024,-507.75 1101.46,-493.93 1187.35,-467.93 1248.02,-447.69"/>
<polygon fill="#00d4aa" stroke="#00d4aa" points="1248.87,-451.1 1257.23,-444.6 1246.64,-444.47 1248.87,-451.1"/>
</g>
<!-- P04&#45;&gt;FE -->
<g id="edge17" class="edge">
<title>P04&#45;&gt;FE</title>
<path fill="none" stroke="#00d4aa" d="M852.3,-525.35C862.04,-522.27 872.22,-519.53 882,-517.75 956.8,-504.16 1495.1,-526.2 1566,-498.75 1646.96,-467.4 1634.44,-406 1714,-371.25 1762.98,-349.86 1902.83,-362.69 1953,-344.25 1970.72,-337.73 1988.39,-328.02 2004.45,-317.61"/>
<polygon fill="#00d4aa" stroke="#00d4aa" points="2006.09,-320.73 2012.45,-312.26 2002.2,-314.91 2006.09,-320.73"/>
</g>
<!-- P05 -->
<g id="node5" class="node">
<title>P05</title>
<path fill="#0e2a1e" stroke="#3dd68c" d="M2118.75,-568.25C2118.75,-568.25 2023.25,-568.25 2023.25,-568.25 2017.25,-568.25 2011.25,-562.25 2011.25,-556.25 2011.25,-556.25 2011.25,-537.75 2011.25,-537.75 2011.25,-531.75 2017.25,-525.75 2023.25,-525.75 2023.25,-525.75 2118.75,-525.75 2118.75,-525.75 2124.75,-525.75 2130.75,-531.75 2130.75,-537.75 2130.75,-537.75 2130.75,-556.25 2130.75,-556.25 2130.75,-562.25 2124.75,-568.25 2118.75,-568.25"/>
<text text-anchor="middle" x="2071" y="-550.95" font-family="Helvetica,sans-Serif" font-size="14.00" fill="#e0e6ed">#5 bge_rerank</text>
<text text-anchor="middle" x="2071" y="-533.7" font-family="Helvetica,sans-Serif" font-size="14.00" fill="#e0e6ed">(BLOB cosine)</text>
</g>
<!-- P05&#45;&gt;Coord -->
<g id="edge5" class="edge">
<title>P05&#45;&gt;Coord</title>
<path fill="none" stroke="#00d4aa" d="M2024.77,-525.28C2017.26,-522.44 2009.49,-519.8 2002,-517.75 1792.45,-460.48 1536.57,-434.75 1408.76,-424.78"/>
<polygon fill="#00d4aa" stroke="#00d4aa" points="1409.29,-421.31 1399.05,-424.03 1408.75,-428.29 1409.29,-421.31"/>
</g>
<!-- P05&#45;&gt;FE -->
<g id="edge18" class="edge">
<title>P05&#45;&gt;FE</title>
<path fill="none" stroke="#00d4aa" d="M2071,-525.33C2071,-483.13 2071,-385.75 2071,-322.76"/>
<polygon fill="#00d4aa" stroke="#00d4aa" points="2074.5,-322.93 2071,-312.93 2067.5,-322.93 2074.5,-322.93"/>
</g>
<!-- P06 -->
<g id="node6" class="node">
<title>P06</title>
<path fill="#141922" stroke="#1e2a3a" d="M534,-565C534,-565 380,-565 380,-565 374,-565 368,-559 368,-553 368,-553 368,-541 368,-541 368,-535 374,-529 380,-529 380,-529 534,-529 534,-529 540,-529 546,-535 546,-541 546,-541 546,-553 546,-553 546,-559 540,-565 534,-565"/>
<text text-anchor="middle" x="457" y="-542.33" font-family="Helvetica,sans-Serif" font-size="14.00" fill="#e0e6ed">#6 budget_middleware</text>
</g>
<!-- P06&#45;&gt;Coord -->
<g id="edge6" class="edge">
<title>P06&#45;&gt;Coord</title>
<path fill="none" stroke="#00d4aa" d="M512.66,-528.52C526.7,-524.56 541.82,-520.66 556,-517.75 805.51,-466.56 1106.19,-437.41 1247.37,-425.61"/>
<polygon fill="#00d4aa" stroke="#00d4aa" points="1247.3,-429.12 1256.97,-424.81 1246.72,-422.15 1247.3,-429.12"/>
</g>
<!-- P07 -->
<g id="node7" class="node">
<title>P07</title>
<path fill="#141922" stroke="#1e2a3a" d="M180.25,-565C180.25,-565 27.75,-565 27.75,-565 21.75,-565 15.75,-559 15.75,-553 15.75,-553 15.75,-541 15.75,-541 15.75,-535 21.75,-529 27.75,-529 27.75,-529 180.25,-529 180.25,-529 186.25,-529 192.25,-535 192.25,-541 192.25,-541 192.25,-553 192.25,-553 192.25,-559 186.25,-565 180.25,-565"/>
<text text-anchor="middle" x="104" y="-542.33" font-family="Helvetica,sans-Serif" font-size="14.00" fill="#e0e6ed">#7 exact_match_cache</text>
</g>
<!-- P07&#45;&gt;Coord -->
<g id="edge7" class="edge">
<title>P07&#45;&gt;Coord</title>
<path fill="none" stroke="#00d4aa" d="M156.91,-528.55C171.1,-524.44 186.52,-520.46 201,-517.75 588.39,-445.16 1060.95,-425.93 1247.12,-421"/>
<polygon fill="#00d4aa" stroke="#00d4aa" points="1247.01,-424.51 1256.92,-420.75 1246.83,-417.51 1247.01,-424.51"/>
</g>
<!-- P10 -->
<g id="node8" class="node">
<title>P10</title>
<path fill="#141922" stroke="#1e2a3a" d="M697.5,-565C697.5,-565 576.5,-565 576.5,-565 570.5,-565 564.5,-559 564.5,-553 564.5,-553 564.5,-541 564.5,-541 564.5,-535 570.5,-529 576.5,-529 576.5,-529 697.5,-529 697.5,-529 703.5,-529 709.5,-535 709.5,-541 709.5,-541 709.5,-553 709.5,-553 709.5,-559 703.5,-565 697.5,-565"/>
<text text-anchor="middle" x="637" y="-542.33" font-family="Helvetica,sans-Serif" font-size="14.00" fill="#e0e6ed">#10 shared_cache</text>
</g>
<!-- P10&#45;&gt;Coord -->
<g id="edge8" class="edge">
<title>P10&#45;&gt;Coord</title>
<path fill="none" stroke="#00d4aa" d="M679.66,-528.55C691.85,-524.28 705.28,-520.22 718,-517.75 808.42,-500.18 833.69,-519.88 925,-507.75 1038.08,-492.73 1166.43,-462.19 1247.29,-441.26"/>
<polygon fill="#00d4aa" stroke="#00d4aa" points="1248.12,-444.66 1256.91,-438.76 1246.35,-437.89 1248.12,-444.66"/>
</g>
<!-- P11 -->
<g id="node9" class="node">
<title>P11</title>
<path fill="#141922" stroke="#1e2a3a" d="M1654.88,-565C1654.88,-565 1491.12,-565 1491.12,-565 1485.12,-565 1479.12,-559 1479.12,-553 1479.12,-553 1479.12,-541 1479.12,-541 1479.12,-535 1485.12,-529 1491.12,-529 1491.12,-529 1654.88,-529 1654.88,-529 1660.88,-529 1666.88,-535 1666.88,-541 1666.88,-541 1666.88,-553 1666.88,-553 1666.88,-559 1660.88,-565 1654.88,-565"/>
<text text-anchor="middle" x="1573" y="-542.33" font-family="Helvetica,sans-Serif" font-size="14.00" fill="#e0e6ed">#11 llmlingua_compress</text>
</g>
<!-- P13 -->
<g id="node10" class="node">
<title>P13</title>
<path fill="#141922" stroke="#1e2a3a" d="M2843.62,-565C2843.62,-565 2738.38,-565 2738.38,-565 2732.38,-565 2726.38,-559 2726.38,-553 2726.38,-553 2726.38,-541 2726.38,-541 2726.38,-535 2732.38,-529 2738.38,-529 2738.38,-529 2843.62,-529 2843.62,-529 2849.62,-529 2855.62,-535 2855.62,-541 2855.62,-541 2855.62,-553 2855.62,-553 2855.62,-559 2849.62,-565 2843.62,-565"/>
<text text-anchor="middle" x="2791" y="-542.33" font-family="Helvetica,sans-Serif" font-size="14.00" fill="#e0e6ed">#13 moe_router</text>
</g>
<!-- P13&#45;&gt;Ze -->
<g id="edge22" class="edge">
<title>P13&#45;&gt;Ze</title>
<path fill="none" stroke="#00d4aa" d="M2763.81,-528.73C2711.74,-496 2593.9,-423.55 2490,-371.25 2425.37,-338.72 2348.47,-306.59 2297.84,-286.3"/>
<polygon fill="#00d4aa" stroke="#00d4aa" points="2299.44,-283.17 2288.86,-282.71 2296.85,-289.67 2299.44,-283.17"/>
</g>
<!-- P14 -->
<g id="node11" class="node">
<title>P14</title>
<path fill="#141922" stroke="#1e2a3a" d="M3030.12,-565C3030.12,-565 2885.88,-565 2885.88,-565 2879.88,-565 2873.88,-559 2873.88,-553 2873.88,-553 2873.88,-541 2873.88,-541 2873.88,-535 2879.88,-529 2885.88,-529 2885.88,-529 3030.12,-529 3030.12,-529 3036.12,-529 3042.12,-535 3042.12,-541 3042.12,-541 3042.12,-553 3042.12,-553 3042.12,-559 3036.12,-565 3030.12,-565"/>
<text text-anchor="middle" x="2958" y="-542.33" font-family="Helvetica,sans-Serif" font-size="14.00" fill="#e0e6ed">#14 ctx_aware_router</text>
</g>
<!-- P14&#45;&gt;Ze -->
<g id="edge23" class="edge">
<title>P14&#45;&gt;Ze</title>
<path fill="none" stroke="#00d4aa" d="M2928.72,-528.55C2870.7,-494.56 2736.36,-418.64 2616,-371.25 2506.19,-328.01 2371.92,-294.12 2298.14,-277.04"/>
<polygon fill="#00d4aa" stroke="#00d4aa" points="2299.28,-273.71 2288.75,-274.89 2297.71,-280.54 2299.28,-273.71"/>
</g>
<!-- P15 -->
<g id="node12" class="node">
<title>P15</title>
<path fill="#141922" stroke="#1e2a3a" d="M3237.62,-565C3237.62,-565 3072.38,-565 3072.38,-565 3066.38,-565 3060.38,-559 3060.38,-553 3060.38,-553 3060.38,-541 3060.38,-541 3060.38,-535 3066.38,-529 3072.38,-529 3072.38,-529 3237.62,-529 3237.62,-529 3243.62,-529 3249.62,-535 3249.62,-541 3249.62,-541 3249.62,-553 3249.62,-553 3249.62,-559 3243.62,-565 3237.62,-565"/>
<text text-anchor="middle" x="3155" y="-542.33" font-family="Helvetica,sans-Serif" font-size="14.00" fill="#e0e6ed">#15 skill_scope_prompts</text>
</g>
<!-- P15&#45;&gt;Ze -->
<g id="edge24" class="edge">
<title>P15&#45;&gt;Ze</title>
<path fill="none" stroke="#00d4aa" d="M3122.13,-528.55C3055.56,-493.88 2899.27,-415.82 2760,-371.25 2596.04,-318.78 2394.3,-286.03 2298.53,-272.32"/>
<polygon fill="#00d4aa" stroke="#00d4aa" points="2299.28,-268.89 2288.89,-270.95 2298.3,-275.82 2299.28,-268.89"/>
</g>
<!-- P16 -->
<g id="node13" class="node">
<title>P16</title>
<path fill="#141922" stroke="#1e2a3a" d="M2329.12,-565C2329.12,-565 2160.88,-565 2160.88,-565 2154.88,-565 2148.88,-559 2148.88,-553 2148.88,-553 2148.88,-541 2148.88,-541 2148.88,-535 2154.88,-529 2160.88,-529 2160.88,-529 2329.12,-529 2329.12,-529 2335.12,-529 2341.12,-535 2341.12,-541 2341.12,-541 2341.12,-553 2341.12,-553 2341.12,-559 2335.12,-565 2329.12,-565"/>
<text text-anchor="middle" x="2245" y="-542.33" font-family="Helvetica,sans-Serif" font-size="14.00" fill="#e0e6ed">#16 old_msg_summarise</text>
</g>
<!-- P17 -->
<g id="node14" class="node">
<title>P17</title>
<path fill="#141922" stroke="#1e2a3a" d="M337.88,-565C337.88,-565 222.12,-565 222.12,-565 216.12,-565 210.12,-559 210.12,-553 210.12,-553 210.12,-541 210.12,-541 210.12,-535 216.12,-529 222.12,-529 222.12,-529 337.88,-529 337.88,-529 343.88,-529 349.88,-535 349.88,-541 349.88,-541 349.88,-553 349.88,-553 349.88,-559 343.88,-565 337.88,-565"/>
<text text-anchor="middle" x="280" y="-542.33" font-family="Helvetica,sans-Serif" font-size="14.00" fill="#e0e6ed">#17 edge_growth</text>
</g>
<!-- P17&#45;&gt;Coord -->
<g id="edge9" class="edge">
<title>P17&#45;&gt;Coord</title>
<path fill="none" stroke="#00d4aa" d="M322.9,-528.53C334.46,-524.42 347.07,-520.45 359,-517.75 682.71,-444.58 1079.61,-425.78 1247.22,-420.99"/>
<polygon fill="#00d4aa" stroke="#00d4aa" points="1247.23,-424.49 1257.13,-420.72 1247.04,-417.5 1247.23,-424.49"/>
</g>
<!-- P18 -->
<g id="node15" class="node">
<title>P18</title>
<path fill="#141922" stroke="#1e2a3a" d="M2513,-565C2513,-565 2371,-565 2371,-565 2365,-565 2359,-559 2359,-553 2359,-553 2359,-541 2359,-541 2359,-535 2365,-529 2371,-529 2371,-529 2513,-529 2513,-529 2519,-529 2525,-535 2525,-541 2525,-541 2525,-553 2525,-553 2525,-559 2519,-565 2513,-565"/>
<text text-anchor="middle" x="2442" y="-542.33" font-family="Helvetica,sans-Serif" font-size="14.00" fill="#e0e6ed">#18 cost_delta_alarm</text>
</g>
<!-- P18&#45;&gt;Coord -->
<g id="edge10" class="edge">
<title>P18&#45;&gt;Coord</title>
<path fill="none" stroke="#00d4aa" d="M2391.85,-528.6C2378.4,-524.48 2363.76,-520.5 2350,-517.75 2344.22,-516.6 1649.37,-450.1 1408.84,-427.1"/>
<polygon fill="#00d4aa" stroke="#00d4aa" points="1409.19,-423.62 1398.9,-426.15 1408.52,-430.59 1409.19,-423.62"/>
</g>
<!-- P18&#45;&gt;Ze -->
<g id="edge25" class="edge">
<title>P18&#45;&gt;Ze</title>
<path fill="none" stroke="#00d4aa" d="M2429.85,-528.84C2396.92,-482.31 2305.63,-353.35 2264.08,-294.65"/>
<polygon fill="#00d4aa" stroke="#00d4aa" points="2267.13,-292.9 2258.49,-286.76 2261.42,-296.95 2267.13,-292.9"/>
</g>
<!-- P19 -->
<g id="node16" class="node">
<title>P19</title>
<path fill="#141922" stroke="#1e2a3a" d="M1829.5,-565C1829.5,-565 1696.5,-565 1696.5,-565 1690.5,-565 1684.5,-559 1684.5,-553 1684.5,-553 1684.5,-541 1684.5,-541 1684.5,-535 1690.5,-529 1696.5,-529 1696.5,-529 1829.5,-529 1829.5,-529 1835.5,-529 1841.5,-535 1841.5,-541 1841.5,-541 1841.5,-553 1841.5,-553 1841.5,-559 1835.5,-565 1829.5,-565"/>
<text text-anchor="middle" x="1763" y="-542.33" font-family="Helvetica,sans-Serif" font-size="14.00" fill="#e0e6ed">#19 per_turn_spans</text>
</g>
<!-- P19&#45;&gt;Coord -->
<g id="edge11" class="edge">
<title>P19&#45;&gt;Coord</title>
<path fill="none" stroke="#00d4aa" d="M1710.66,-528.64C1699.26,-524.96 1687.24,-521.16 1676,-517.75 1584.76,-490.05 1479.29,-460.59 1408.6,-441.21"/>
<polygon fill="#00d4aa" stroke="#00d4aa" points="1409.59,-437.85 1399.02,-438.59 1407.74,-444.61 1409.59,-437.85"/>
</g>
<!-- P22 -->
<g id="node17" class="node">
<title>P22</title>
<path fill="#141922" stroke="#1e2a3a" d="M1980.88,-565C1980.88,-565 1871.12,-565 1871.12,-565 1865.12,-565 1859.12,-559 1859.12,-553 1859.12,-553 1859.12,-541 1859.12,-541 1859.12,-535 1865.12,-529 1871.12,-529 1871.12,-529 1980.88,-529 1980.88,-529 1986.88,-529 1992.88,-535 1992.88,-541 1992.88,-541 1992.88,-553 1992.88,-553 1992.88,-559 1986.88,-565 1980.88,-565"/>
<text text-anchor="middle" x="1926" y="-542.33" font-family="Helvetica,sans-Serif" font-size="14.00" fill="#e0e6ed">#22 auto_lifeline</text>
</g>
<!-- P22&#45;&gt;Coord -->
<g id="edge12" class="edge">
<title>P22&#45;&gt;Coord</title>
<path fill="none" stroke="#00d4aa" d="M1883.59,-528.56C1873.06,-524.64 1861.72,-520.75 1851,-517.75 1697.07,-474.64 1512.32,-444.87 1408.72,-430.09"/>
<polygon fill="#00d4aa" stroke="#00d4aa" points="1409.3,-426.64 1398.91,-428.71 1408.33,-433.57 1409.3,-426.64"/>
</g>
<!-- P24 -->
<g id="node18" class="node">
<title>P24</title>
<path fill="#141922" stroke="#1e2a3a" d="M2696.62,-565C2696.62,-565 2555.38,-565 2555.38,-565 2549.38,-565 2543.38,-559 2543.38,-553 2543.38,-553 2543.38,-541 2543.38,-541 2543.38,-535 2549.38,-529 2555.38,-529 2555.38,-529 2696.62,-529 2696.62,-529 2702.62,-529 2708.62,-535 2708.62,-541 2708.62,-541 2708.62,-553 2708.62,-553 2708.62,-559 2702.62,-565 2696.62,-565"/>
<text text-anchor="middle" x="2626" y="-542.33" font-family="Helvetica,sans-Serif" font-size="14.00" fill="#e0e6ed">#24 cost_per_feature</text>
</g>
<!-- P24&#45;&gt;Coord -->
<g id="edge13" class="edge">
<title>P24&#45;&gt;Coord</title>
<path fill="none" stroke="#00d4aa" d="M2576.36,-528.61C2562.78,-524.44 2547.95,-520.43 2534,-517.75 2520.12,-515.09 1676.71,-447.33 1408.77,-425.85"/>
<polygon fill="#00d4aa" stroke="#00d4aa" points="1409.34,-422.38 1399.09,-425.07 1408.78,-429.36 1409.34,-422.38"/>
</g>
<!-- P24&#45;&gt;Ze -->
<g id="edge26" class="edge">
<title>P24&#45;&gt;Ze</title>
<path fill="none" stroke="#00d4aa" d="M2602.33,-528.63C2537.76,-481.23 2358.2,-349.43 2280.09,-292.1"/>
<polygon fill="#00d4aa" stroke="#00d4aa" points="2282.43,-289.48 2272.3,-286.38 2278.29,-295.12 2282.43,-289.48"/>
</g>
<!-- Breaker -->
<g id="node20" class="node">
<title>Breaker</title>
<path fill="#141922" stroke="#1e2a3a" d="M1542.12,-285.12C1542.12,-285.12 1391.88,-285.12 1391.88,-285.12 1385.88,-285.12 1379.88,-279.12 1379.88,-273.12 1379.88,-273.12 1379.88,-254.62 1379.88,-254.62 1379.88,-248.62 1385.88,-242.62 1391.88,-242.62 1391.88,-242.62 1542.12,-242.62 1542.12,-242.62 1548.12,-242.62 1554.12,-248.62 1554.12,-254.62 1554.12,-254.62 1554.12,-273.12 1554.12,-273.12 1554.12,-279.12 1548.12,-285.12 1542.12,-285.12"/>
<text text-anchor="middle" x="1467" y="-267.82" font-family="Helvetica,sans-Serif" font-size="14.00" fill="#e0e6ed">breaker.gleam</text>
<text text-anchor="middle" x="1467" y="-250.57" font-family="Helvetica,sans-Serif" font-size="14.00" fill="#e0e6ed">Closed/Open/HalfOpen</text>
</g>
<!-- Coord&#45;&gt;Breaker -->
<g id="edge14" class="edge">
<title>Coord&#45;&gt;Breaker</title>
<path fill="none" stroke="#00d4aa" d="M1377.92,-362.6C1399.14,-339.33 1423,-313.15 1440.68,-293.75"/>
<polygon fill="#00d4aa" stroke="#00d4aa" points="1375.63,-359.92 1371.48,-369.67 1380.8,-364.64 1375.63,-359.92"/>
<polygon fill="#00d4aa" stroke="#00d4aa" points="1443.17,-296.21 1447.32,-286.47 1438,-291.5 1443.17,-296.21"/>
</g>
<!-- Kms -->
<g id="node21" class="node">
<title>Kms</title>
<path fill="#141922" stroke="#1e2a3a" d="M1350,-285.12C1350,-285.12 1238,-285.12 1238,-285.12 1232,-285.12 1226,-279.12 1226,-273.12 1226,-273.12 1226,-254.62 1226,-254.62 1226,-248.62 1232,-242.62 1238,-242.62 1238,-242.62 1350,-242.62 1350,-242.62 1356,-242.62 1362,-248.62 1362,-254.62 1362,-254.62 1362,-273.12 1362,-273.12 1362,-279.12 1356,-285.12 1350,-285.12"/>
<text text-anchor="middle" x="1294" y="-267.82" font-family="Helvetica,sans-Serif" font-size="14.00" fill="#e0e6ed">kms.gleam</text>
<text text-anchor="middle" x="1294" y="-250.57" font-family="Helvetica,sans-Serif" font-size="14.00" fill="#e0e6ed">query/exec/batch</text>
</g>
<!-- Coord&#45;&gt;Kms -->
<g id="edge15" class="edge">
<title>Coord&#45;&gt;Kms</title>
<path fill="none" stroke="#00d4aa" d="M1317.61,-370.79C1312.24,-346.7 1305.83,-317.92 1301.04,-296.45"/>
<polygon fill="#00d4aa" stroke="#00d4aa" points="1304.49,-295.82 1298.89,-286.83 1297.65,-297.35 1304.49,-295.82"/>
</g>
<!-- Met -->
<g id="node25" class="node">
<title>Met</title>
<path fill="#141922" stroke="#1e2a3a" d="M1931.62,-285.12C1931.62,-285.12 1748.38,-285.12 1748.38,-285.12 1742.38,-285.12 1736.38,-279.12 1736.38,-273.12 1736.38,-273.12 1736.38,-254.62 1736.38,-254.62 1736.38,-248.62 1742.38,-242.62 1748.38,-242.62 1748.38,-242.62 1931.62,-242.62 1931.62,-242.62 1937.62,-242.62 1943.62,-248.62 1943.62,-254.62 1943.62,-254.62 1943.62,-273.12 1943.62,-273.12 1943.62,-279.12 1937.62,-285.12 1931.62,-285.12"/>
<text text-anchor="middle" x="1840" y="-267.82" font-family="Helvetica,sans-Serif" font-size="14.00" fill="#e0e6ed">metrics_counter_inc</text>
<text text-anchor="middle" x="1840" y="-250.57" font-family="Helvetica,sans-Serif" font-size="14.00" fill="#e0e6ed">metrics_histogram_observe</text>
</g>
<!-- Coord&#45;&gt;Met -->
<g id="edge27" class="edge">
<title>Coord&#45;&gt;Met</title>
<path fill="none" stroke="#00d4aa" d="M1397.58,-403.09C1466.56,-389.18 1575.33,-367.9 1670,-352.25 1695.24,-348.08 1703.2,-353.64 1727,-344.25 1757.44,-332.24 1787.55,-310.47 1809.02,-292.76"/>
<polygon fill="#00d4aa" stroke="#00d4aa" points="1811.13,-295.56 1816.51,-286.44 1806.61,-290.21 1811.13,-295.56"/>
</g>
<!-- Smr -->
<g id="node22" class="node">
<title>Smr</title>
<path fill="#141922" stroke="#1e2a3a" d="M1705.88,-302.38C1705.88,-302.38 1590.12,-302.38 1590.12,-302.38 1584.12,-302.38 1578.12,-296.38 1578.12,-290.38 1578.12,-290.38 1578.12,-237.38 1578.12,-237.38 1578.12,-231.38 1584.12,-225.38 1590.12,-225.38 1590.12,-225.38 1705.88,-225.38 1705.88,-225.38 1711.88,-225.38 1717.88,-231.38 1717.88,-237.38 1717.88,-237.38 1717.88,-290.38 1717.88,-290.38 1717.88,-296.38 1711.88,-302.38 1705.88,-302.38"/>
<text text-anchor="middle" x="1648" y="-285.07" font-family="Helvetica,sans-Serif" font-size="14.00" fill="#e0e6ed">smriti_query</text>
<text text-anchor="middle" x="1648" y="-267.82" font-family="Helvetica,sans-Serif" font-size="14.00" fill="#e0e6ed">smriti_exec</text>
<text text-anchor="middle" x="1648" y="-250.57" font-family="Helvetica,sans-Serif" font-size="14.00" fill="#e0e6ed">smriti_exec_batch</text>
<text text-anchor="middle" x="1648" y="-233.32" font-family="Helvetica,sans-Serif" font-size="14.00" fill="#e0e6ed">(WAL + retry)</text>
</g>
<!-- Kms&#45;&gt;Smr -->
<g id="edge16" class="edge">
<title>Kms&#45;&gt;Smr</title>
<path fill="none" stroke="#00d4aa" d="M1306.22,-285.46C1320.54,-308.31 1346.62,-343.06 1380,-357.75 1416,-373.59 1520.78,-373.08 1557,-357.75 1579.81,-348.09 1599.71,-329.61 1615.04,-311.58"/>
<polygon fill="#00d4aa" stroke="#00d4aa" points="1617.63,-313.94 1621.23,-303.98 1612.2,-309.52 1617.63,-313.94"/>
</g>
<!-- Holons -->
<g id="node26" class="node">
<title>Holons</title>
<path fill="#141922" stroke="#1e2a3a" d="M2102.12,-101.62C2102.12,-101.62 1897.88,-101.62 1897.88,-101.62 1891.88,-101.62 1885.88,-95.62 1885.88,-89.62 1885.88,-89.62 1885.88,-71.12 1885.88,-71.12 1885.88,-65.12 1891.88,-59.12 1897.88,-59.12 1897.88,-59.12 2102.12,-59.12 2102.12,-59.12 2108.12,-59.12 2114.12,-65.12 2114.12,-71.12 2114.12,-71.12 2114.12,-89.62 2114.12,-89.62 2114.12,-95.62 2108.12,-101.62 2102.12,-101.62"/>
<text text-anchor="middle" x="2000" y="-84.33" font-family="Helvetica,sans-Serif" font-size="14.00" fill="#e0e6ed">holons · holon_edges</text>
<text text-anchor="middle" x="2000" y="-67.08" font-family="Helvetica,sans-Serif" font-size="14.00" fill="#e0e6ed">holon_embeddings (BLOB f32)</text>
</g>
<!-- Smr&#45;&gt;Holons -->
<g id="edge28" class="edge">
<title>Smr&#45;&gt;Holons</title>
<path fill="none" stroke="#00d4aa" d="M1696.83,-225.05C1706.45,-218.88 1716.75,-213.1 1727,-208.75 1789.64,-182.16 1815.26,-206.62 1877,-178 1913.42,-161.12 1948.8,-131.51 1972.19,-109.5"/>
<polygon fill="#00d4aa" stroke="#00d4aa" points="1974.36,-112.27 1979.15,-102.82 1969.51,-107.22 1974.36,-112.27"/>
</g>
<!-- Sess -->
<g id="node27" class="node">
<title>Sess</title>
<path fill="#0e1e2a" stroke="#00bfff" d="M1711.5,-127.5C1711.5,-127.5 1584.5,-127.5 1584.5,-127.5 1578.5,-127.5 1572.5,-121.5 1572.5,-115.5 1572.5,-115.5 1572.5,-45.25 1572.5,-45.25 1572.5,-39.25 1578.5,-33.25 1584.5,-33.25 1584.5,-33.25 1711.5,-33.25 1711.5,-33.25 1717.5,-33.25 1723.5,-39.25 1723.5,-45.25 1723.5,-45.25 1723.5,-115.5 1723.5,-115.5 1723.5,-121.5 1717.5,-127.5 1711.5,-127.5"/>
<text text-anchor="middle" x="1648" y="-110.2" font-family="Helvetica,sans-Serif" font-size="14.00" fill="#e0e6ed">session_metrics</text>
<text text-anchor="middle" x="1648" y="-92.95" font-family="Helvetica,sans-Serif" font-size="14.00" fill="#e0e6ed">pi_sessions</text>
<text text-anchor="middle" x="1648" y="-75.7" font-family="Helvetica,sans-Serif" font-size="14.00" fill="#e0e6ed">session_budget</text>
<text text-anchor="middle" x="1648" y="-58.45" font-family="Helvetica,sans-Serif" font-size="14.00" fill="#e0e6ed">session_turn_spans</text>
<text text-anchor="middle" x="1648" y="-41.2" font-family="Helvetica,sans-Serif" font-size="14.00" fill="#e0e6ed">task_session_link</text>
</g>
<!-- Smr&#45;&gt;Sess -->
<g id="edge29" class="edge">
<title>Smr&#45;&gt;Sess</title>
<path fill="none" stroke="#00d4aa" d="M1648,-225.27C1648,-200.45 1648,-167.43 1648,-139.29"/>
<polygon fill="#00d4aa" stroke="#00d4aa" points="1651.5,-139.48 1648,-129.48 1644.5,-139.48 1651.5,-139.48"/>
</g>
<!-- Cache -->
<g id="node28" class="node">
<title>Cache</title>
<path fill="#0e1e2a" stroke="#00bfff" d="M1856.12,-101.62C1856.12,-101.62 1753.88,-101.62 1753.88,-101.62 1747.88,-101.62 1741.88,-95.62 1741.88,-89.62 1741.88,-89.62 1741.88,-71.12 1741.88,-71.12 1741.88,-65.12 1747.88,-59.12 1753.88,-59.12 1753.88,-59.12 1856.12,-59.12 1856.12,-59.12 1862.12,-59.12 1868.12,-65.12 1868.12,-71.12 1868.12,-71.12 1868.12,-89.62 1868.12,-89.62 1868.12,-95.62 1862.12,-101.62 1856.12,-101.62"/>
<text text-anchor="middle" x="1805" y="-84.33" font-family="Helvetica,sans-Serif" font-size="14.00" fill="#e0e6ed">prompt_cache</text>
<text text-anchor="middle" x="1805" y="-67.08" font-family="Helvetica,sans-Serif" font-size="14.00" fill="#e0e6ed">semantic_cache</text>
</g>
<!-- Smr&#45;&gt;Cache -->
<g id="edge30" class="edge">
<title>Smr&#45;&gt;Cache</title>
<path fill="none" stroke="#00d4aa" d="M1688.16,-225.15C1702.76,-210.83 1719.08,-194.09 1733,-178 1751.5,-156.62 1770.54,-130.88 1784.39,-111.34"/>
<polygon fill="#00d4aa" stroke="#00d4aa" points="1787.18,-113.46 1790.06,-103.26 1781.45,-109.43 1787.18,-113.46"/>
</g>
<!-- Pricing -->
<g id="node29" class="node">
<title>Pricing</title>
<path fill="#141922" stroke="#1e2a3a" d="M1542.75,-101.62C1542.75,-101.62 1393.25,-101.62 1393.25,-101.62 1387.25,-101.62 1381.25,-95.62 1381.25,-89.62 1381.25,-89.62 1381.25,-71.12 1381.25,-71.12 1381.25,-65.12 1387.25,-59.12 1393.25,-59.12 1393.25,-59.12 1542.75,-59.12 1542.75,-59.12 1548.75,-59.12 1554.75,-65.12 1554.75,-71.12 1554.75,-71.12 1554.75,-89.62 1554.75,-89.62 1554.75,-95.62 1548.75,-101.62 1542.75,-101.62"/>
<text text-anchor="middle" x="1468" y="-84.33" font-family="Helvetica,sans-Serif" font-size="14.00" fill="#e0e6ed">model_pricing</text>
<text text-anchor="middle" x="1468" y="-67.08" font-family="Helvetica,sans-Serif" font-size="14.00" fill="#e0e6ed">(52 rows · 7 providers)</text>
</g>
<!-- Smr&#45;&gt;Pricing -->
<g id="edge31" class="edge">
<title>Smr&#45;&gt;Pricing</title>
<path fill="none" stroke="#00d4aa" d="M1610.7,-225.27C1576.67,-190.95 1527.12,-140.99 1496.26,-109.87"/>
<polygon fill="#00d4aa" stroke="#00d4aa" points="1499.05,-107.72 1489.53,-103.08 1494.08,-112.65 1499.05,-107.72"/>
</g>
<!-- FE&#45;&gt;Holons -->
<g id="edge32" class="edge">
<title>FE&#45;&gt;Holons</title>
<path fill="none" stroke="#00d4aa" d="M2052.9,-216.61C2040.13,-183.97 2023.38,-141.13 2012.18,-112.5"/>
<polygon fill="#00d4aa" stroke="#00d4aa" points="2015.49,-111.36 2008.58,-103.32 2008.97,-113.91 2015.49,-111.36"/>
</g>
<!-- Topics -->
<g id="node30" class="node">
<title>Topics</title>
<path fill="#141922" stroke="#1e2a3a" d="M2322.25,-144.75C2322.25,-144.75 2163.75,-144.75 2163.75,-144.75 2157.75,-144.75 2151.75,-138.75 2151.75,-132.75 2151.75,-132.75 2151.75,-28 2151.75,-28 2151.75,-22 2157.75,-16 2163.75,-16 2163.75,-16 2322.25,-16 2322.25,-16 2328.25,-16 2334.25,-22 2334.25,-28 2334.25,-28 2334.25,-132.75 2334.25,-132.75 2334.25,-138.75 2328.25,-144.75 2322.25,-144.75"/>
<text text-anchor="middle" x="2243" y="-127.45" font-family="Helvetica,sans-Serif" font-size="14.00" fill="#e0e6ed">cache/prefix_warmed</text>
<text text-anchor="middle" x="2243" y="-110.2" font-family="Helvetica,sans-Serif" font-size="14.00" fill="#e0e6ed">cache/shared_catalogue</text>
<text text-anchor="middle" x="2243" y="-92.95" font-family="Helvetica,sans-Serif" font-size="14.00" fill="#e0e6ed">alarm/cost_delta</text>
<text text-anchor="middle" x="2243" y="-75.7" font-family="Helvetica,sans-Serif" font-size="14.00" fill="#e0e6ed">alarm/edges_low</text>
<text text-anchor="middle" x="2243" y="-58.45" font-family="Helvetica,sans-Serif" font-size="14.00" fill="#e0e6ed">router/pick</text>
<text text-anchor="middle" x="2243" y="-41.2" font-family="Helvetica,sans-Serif" font-size="14.00" fill="#e0e6ed">kms/embed_backfilled</text>
<text text-anchor="middle" x="2243" y="-23.95" font-family="Helvetica,sans-Serif" font-size="14.00" fill="#e0e6ed">…</text>
</g>
<!-- Ze&#45;&gt;Topics -->
<g id="edge33" class="edge">
<title>Ze&#45;&gt;Topics</title>
<path fill="none" stroke="#00d4aa" d="M2243,-242.41C2243,-221.44 2243,-187.56 2243,-156.28"/>
<polygon fill="#00d4aa" stroke="#00d4aa" points="2246.5,-156.41 2243,-146.41 2239.5,-156.41 2246.5,-156.41"/>
<text text-anchor="middle" x="2252" y="-189.25" font-family="Helvetica,sans-Serif" font-size="10.00" fill="#7a8fa6">pub</text>
</g>
</g>
</svg>
