<?xml version="1.0" encoding="UTF-8" standalone="no"?>
<!DOCTYPE svg PUBLIC "-//W3C//DTD SVG 1.1//EN"
 "http://www.w3.org/Graphics/SVG/1.1/DTD/svg11.dtd">
<!-- Generated by graphviz version 12.2.1 (0)
 -->
<!-- Title: ROI Pages: 1 -->
<svg width="1269pt" height="68pt"
 viewBox="0.00 0.00 1268.50 67.75" xmlns="http://www.w3.org/2000/svg" xmlns:xlink="http://www.w3.org/1999/xlink">
<g id="graph0" class="graph" transform="scale(1 1) rotate(0) translate(4 63.75)">
<title>ROI</title>
<polygon fill="#0a0e17" stroke="none" points="-4,4 -4,-63.75 1264.5,-63.75 1264.5,4 -4,4"/>
<!-- B -->
<g id="node1" class="node">
<title>B</title>
<path fill="#2a0e0e" stroke="#ff4757" d="M161.5,-59.75C161.5,-59.75 12,-59.75 12,-59.75 6,-59.75 0,-53.75 0,-47.75 0,-47.75 0,-12 0,-12 0,-6 6,0 12,0 12,0 161.5,0 161.5,0 167.5,0 173.5,-6 173.5,-12 173.5,-12 173.5,-47.75 173.5,-47.75 173.5,-53.75 167.5,-59.75 161.5,-59.75"/>
<text text-anchor="middle" x="86.75" y="-42.45" font-family="Helvetica,sans-Serif" font-size="14.00" fill="#e0e6ed">Baseline</text>
<text text-anchor="middle" x="86.75" y="-25.2" font-family="Helvetica,sans-Serif" font-size="14.00" fill="#e0e6ed">$38.84 / session</text>
<text text-anchor="middle" x="86.75" y="-7.95" font-family="Helvetica,sans-Serif" font-size="14.00" fill="#e0e6ed">(pass&#45;7 measurement)</text>
</g>
<!-- S12 -->
<g id="node2" class="node">
<title>S12</title>
<path fill="#2a1e0e" stroke="#f5a623" d="M499.25,-59.75C499.25,-59.75 348.25,-59.75 348.25,-59.75 342.25,-59.75 336.25,-53.75 336.25,-47.75 336.25,-47.75 336.25,-12 336.25,-12 336.25,-6 342.25,0 348.25,0 348.25,0 499.25,0 499.25,0 505.25,0 511.25,-6 511.25,-12 511.25,-12 511.25,-47.75 511.25,-47.75 511.25,-53.75 505.25,-59.75 499.25,-59.75"/>
<text text-anchor="middle" x="423.75" y="-42.45" font-family="Helvetica,sans-Serif" font-size="14.00" fill="#e0e6ed">Sprint 1&#45;2</text>
<text text-anchor="middle" x="423.75" y="-25.2" font-family="Helvetica,sans-Serif" font-size="14.00" fill="#e0e6ed">Prefix + RAG substrate</text>
<text text-anchor="middle" x="423.75" y="-7.95" font-family="Helvetica,sans-Serif" font-size="14.00" fill="#e0e6ed">$17.48 &#45;55%</text>
</g>
<!-- B&#45;&gt;S12 -->
<g id="edge1" class="edge">
<title>B&#45;&gt;S12</title>
<path fill="none" stroke="#00d4aa" d="M173.59,-29.88C219.71,-29.88 276.77,-29.88 324.65,-29.88"/>
<polygon fill="#00d4aa" stroke="#00d4aa" points="324.46,-33.38 334.46,-29.88 324.46,-26.38 324.46,-33.38"/>
<text text-anchor="middle" x="254.88" y="-32.92" font-family="Helvetica,sans-Serif" font-size="11.00" fill="#7a8fa6">#1 #4 #5 #6 #17 #22</text>
</g>
<!-- S3 -->
<g id="node3" class="node">
<title>S3</title>
<path fill="#2a1e0e" stroke="#f5a623" d="M702,-59.75C702,-59.75 620.75,-59.75 620.75,-59.75 614.75,-59.75 608.75,-53.75 608.75,-47.75 608.75,-47.75 608.75,-12 608.75,-12 608.75,-6 614.75,0 620.75,0 620.75,0 702,0 702,0 708,0 714,-6 714,-12 714,-12 714,-47.75 714,-47.75 714,-53.75 708,-59.75 702,-59.75"/>
<text text-anchor="middle" x="661.38" y="-42.45" font-family="Helvetica,sans-Serif" font-size="14.00" fill="#e0e6ed">Sprint 3</text>
<text text-anchor="middle" x="661.38" y="-25.2" font-family="Helvetica,sans-Serif" font-size="14.00" fill="#e0e6ed">Cache layers</text>
<text text-anchor="middle" x="661.38" y="-7.95" font-family="Helvetica,sans-Serif" font-size="14.00" fill="#e0e6ed">$9.71 &#45;75%</text>
</g>
<!-- S12&#45;&gt;S3 -->
<g id="edge2" class="edge">
<title>S12&#45;&gt;S3</title>
<path fill="none" stroke="#00d4aa" d="M511.48,-29.88C539.83,-29.88 570.76,-29.88 597.05,-29.88"/>
<polygon fill="#00d4aa" stroke="#00d4aa" points="596.88,-33.38 606.88,-29.88 596.88,-26.38 596.88,-33.38"/>
<text text-anchor="middle" x="560" y="-32.92" font-family="Helvetica,sans-Serif" font-size="11.00" fill="#7a8fa6">#2 #7 #10</text>
</g>
<!-- S4 -->
<g id="node4" class="node">
<title>S4</title>
<path fill="#0e2a1e" stroke="#3dd68c" d="M904,-59.75C904,-59.75 830.25,-59.75 830.25,-59.75 824.25,-59.75 818.25,-53.75 818.25,-47.75 818.25,-47.75 818.25,-12 818.25,-12 818.25,-6 824.25,0 830.25,0 830.25,0 904,0 904,0 910,0 916,-6 916,-12 916,-12 916,-47.75 916,-47.75 916,-53.75 910,-59.75 904,-59.75"/>
<text text-anchor="middle" x="867.12" y="-42.45" font-family="Helvetica,sans-Serif" font-size="14.00" fill="#e0e6ed">Sprint 4</text>
<text text-anchor="middle" x="867.12" y="-25.2" font-family="Helvetica,sans-Serif" font-size="14.00" fill="#e0e6ed">Routing</text>
<text text-anchor="middle" x="867.12" y="-7.95" font-family="Helvetica,sans-Serif" font-size="14.00" fill="#e0e6ed">$5.05 &#45;87%</text>
</g>
<!-- S3&#45;&gt;S4 -->
<g id="edge3" class="edge">
<title>S3&#45;&gt;S4</title>
<path fill="none" stroke="#00d4aa" d="M714.32,-29.88C742.42,-29.88 777.26,-29.88 806.47,-29.88"/>
<polygon fill="#00d4aa" stroke="#00d4aa" points="806.26,-33.38 816.26,-29.88 806.26,-26.38 806.26,-33.38"/>
<text text-anchor="middle" x="766.12" y="-32.92" font-family="Helvetica,sans-Serif" font-size="11.00" fill="#7a8fa6">#3 #13 #14</text>
</g>
<!-- S56 -->
<g id="node5" class="node">
<title>S56</title>
<path fill="#0e2a1e" stroke="#3dd68c" d="M1248.5,-59.75C1248.5,-59.75 1117.75,-59.75 1117.75,-59.75 1111.75,-59.75 1105.75,-53.75 1105.75,-47.75 1105.75,-47.75 1105.75,-12 1105.75,-12 1105.75,-6 1111.75,0 1117.75,0 1117.75,0 1248.5,0 1248.5,0 1254.5,0 1260.5,-6 1260.5,-12 1260.5,-12 1260.5,-47.75 1260.5,-47.75 1260.5,-53.75 1254.5,-59.75 1248.5,-59.75"/>
<text text-anchor="middle" x="1183.12" y="-42.45" font-family="Helvetica,sans-Serif" font-size="14.00" fill="#e0e6ed">Sprint 5&#45;6</text>
<text text-anchor="middle" x="1183.12" y="-25.2" font-family="Helvetica,sans-Serif" font-size="14.00" fill="#e0e6ed">Compression + Obs</text>
<text text-anchor="middle" x="1183.12" y="-7.95" font-family="Helvetica,sans-Serif" font-size="14.00" fill="#e0e6ed">$3.11 &#45;92%</text>
</g>
<!-- S4&#45;&gt;S56 -->
<g id="edge4" class="edge">
<title>S4&#45;&gt;S56</title>
<path fill="none" stroke="#00d4aa" d="M916.5,-29.88C963.67,-29.88 1036.51,-29.88 1093.99,-29.88"/>
<polygon fill="#00d4aa" stroke="#00d4aa" points="1093.76,-33.38 1103.76,-29.88 1093.76,-26.38 1093.76,-33.38"/>
<text text-anchor="middle" x="1010.88" y="-32.92" font-family="Helvetica,sans-Serif" font-size="11.00" fill="#7a8fa6">#11 #15 #16 #18 #19 #24</text>
</g>
</g>
</svg>
