<svg xmlns="http://www.w3.org/2000/svg" viewBox="0 0 700 350" font-family="system-ui,sans-serif">
<rect width="700" height="350" fill="#0a0e17" rx="12"/>
<text x="350" y="30" text-anchor="middle" fill="#00d4aa" font-size="16" font-weight="700">RBAC Fractal Layer Access Matrix</text>

<!-- Header row -->
<rect x="130" y="50" width="70" height="30" rx="4" fill="rgba(255,107,107,.15)"/><text x="165" y="70" text-anchor="middle" fill="#ff6b6b" font-size="11" font-weight="600">L0</text>
<rect x="200" y="50" width="70" height="30" rx="4" fill="rgba(255,217,61,.15)"/><text x="235" y="70" text-anchor="middle" fill="#ffd93d" font-size="11" font-weight="600">L1</text>
<rect x="270" y="50" width="70" height="30" rx="4" fill="rgba(107,203,119,.15)"/><text x="305" y="70" text-anchor="middle" fill="#6bcb77" font-size="11" font-weight="600">L2</text>
<rect x="340" y="50" width="70" height="30" rx="4" fill="rgba(77,150,255,.15)"/><text x="375" y="70" text-anchor="middle" fill="#4d96ff" font-size="11" font-weight="600">L3</text>
<rect x="410" y="50" width="70" height="30" rx="4" fill="rgba(155,89,182,.15)"/><text x="445" y="70" text-anchor="middle" fill="#9b59b6" font-size="11" font-weight="600">L4</text>
<rect x="480" y="50" width="70" height="30" rx="4" fill="rgba(0,212,170,.15)"/><text x="515" y="70" text-anchor="middle" fill="#00d4aa" font-size="11" font-weight="600">L5</text>
<rect x="550" y="50" width="70" height="30" rx="4" fill="rgba(231,76,60,.15)"/><text x="585" y="70" text-anchor="middle" fill="#e74c3c" font-size="11" font-weight="600">L6</text>
<rect x="620" y="50" width="70" height="30" rx="4" fill="rgba(243,156,18,.15)"/><text x="655" y="70" text-anchor="middle" fill="#f39c12" font-size="11" font-weight="600">L7</text>

<!-- Admin row -->
<rect x="10" y="90" width="120" height="40" rx="4" fill="rgba(255,107,107,.2)"/><text x="70" y="115" text-anchor="middle" fill="#ff6b6b" font-size="12" font-weight="600">c3i-admin</text>
<rect x="130" y="90" width="70" height="40" rx="4" fill="rgba(255,165,2,.25)"/><text x="165" y="115" text-anchor="middle" fill="#ffa502" font-size="11">MFA</text>
<rect x="200" y="90" width="70" height="40" rx="4" fill="rgba(61,214,140,.2)"/><text x="235" y="115" text-anchor="middle" fill="#3dd68c" font-size="18">&#10003;</text>
<rect x="270" y="90" width="70" height="40" rx="4" fill="rgba(61,214,140,.2)"/><text x="305" y="115" text-anchor="middle" fill="#3dd68c" font-size="18">&#10003;</text>
<rect x="340" y="90" width="70" height="40" rx="4" fill="rgba(61,214,140,.2)"/><text x="375" y="115" text-anchor="middle" fill="#3dd68c" font-size="18">&#10003;</text>
<rect x="410" y="90" width="70" height="40" rx="4" fill="rgba(61,214,140,.2)"/><text x="445" y="115" text-anchor="middle" fill="#3dd68c" font-size="18">&#10003;</text>
<rect x="480" y="90" width="70" height="40" rx="4" fill="rgba(61,214,140,.2)"/><text x="515" y="115" text-anchor="middle" fill="#3dd68c" font-size="18">&#10003;</text>
<rect x="550" y="90" width="70" height="40" rx="4" fill="rgba(61,214,140,.2)"/><text x="585" y="115" text-anchor="middle" fill="#3dd68c" font-size="18">&#10003;</text>
<rect x="620" y="90" width="70" height="40" rx="4" fill="rgba(61,214,140,.2)"/><text x="655" y="115" text-anchor="middle" fill="#3dd68c" font-size="18">&#10003;</text>

<!-- Operator row -->
<rect x="10" y="140" width="120" height="40" rx="4" fill="rgba(255,165,2,.2)"/><text x="70" y="165" text-anchor="middle" fill="#ffa502" font-size="12" font-weight="600">c3i-operator</text>
<rect x="130" y="140" width="70" height="40" rx="4" fill="rgba(255,71,87,.1)"/><text x="165" y="165" text-anchor="middle" fill="rgba(255,71,87,.5)" font-size="18">&#10007;</text>
<rect x="200" y="140" width="70" height="40" rx="4" fill="rgba(61,214,140,.2)"/><text x="235" y="165" text-anchor="middle" fill="#3dd68c" font-size="18">&#10003;</text>
<rect x="270" y="140" width="70" height="40" rx="4" fill="rgba(61,214,140,.2)"/><text x="305" y="165" text-anchor="middle" fill="#3dd68c" font-size="18">&#10003;</text>
<rect x="340" y="140" width="70" height="40" rx="4" fill="rgba(61,214,140,.2)"/><text x="375" y="165" text-anchor="middle" fill="#3dd68c" font-size="18">&#10003;</text>
<rect x="410" y="140" width="70" height="40" rx="4" fill="rgba(61,214,140,.2)"/><text x="445" y="165" text-anchor="middle" fill="#3dd68c" font-size="18">&#10003;</text>
<rect x="480" y="140" width="70" height="40" rx="4" fill="rgba(61,214,140,.2)"/><text x="515" y="165" text-anchor="middle" fill="#3dd68c" font-size="18">&#10003;</text>
<rect x="550" y="140" width="70" height="40" rx="4" fill="rgba(61,214,140,.2)"/><text x="585" y="165" text-anchor="middle" fill="#3dd68c" font-size="18">&#10003;</text>
<rect x="620" y="140" width="70" height="40" rx="4" fill="rgba(61,214,140,.2)"/><text x="655" y="165" text-anchor="middle" fill="#3dd68c" font-size="18">&#10003;</text>

<!-- Service row -->
<rect x="10" y="190" width="120" height="40" rx="4" fill="rgba(155,89,182,.2)"/><text x="70" y="215" text-anchor="middle" fill="#9b59b6" font-size="12" font-weight="600">c3i-service</text>
<rect x="130" y="190" width="70" height="40" rx="4" fill="rgba(255,71,87,.1)"/><text x="165" y="215" text-anchor="middle" fill="rgba(255,71,87,.5)" font-size="18">&#10007;</text>
<rect x="200" y="190" width="70" height="40" rx="4" fill="rgba(255,71,87,.1)"/><text x="235" y="215" text-anchor="middle" fill="rgba(255,71,87,.5)" font-size="18">&#10007;</text>
<rect x="270" y="190" width="70" height="40" rx="4" fill="rgba(255,71,87,.1)"/><text x="305" y="215" text-anchor="middle" fill="rgba(255,71,87,.5)" font-size="18">&#10007;</text>
<rect x="340" y="190" width="70" height="40" rx="4" fill="rgba(61,214,140,.2)"/><text x="375" y="215" text-anchor="middle" fill="#3dd68c" font-size="18">&#10003;</text>
<rect x="410" y="190" width="70" height="40" rx="4" fill="rgba(61,214,140,.2)"/><text x="445" y="215" text-anchor="middle" fill="#3dd68c" font-size="18">&#10003;</text>
<rect x="480" y="190" width="70" height="40" rx="4" fill="rgba(61,214,140,.2)"/><text x="515" y="215" text-anchor="middle" fill="#3dd68c" font-size="18">&#10003;</text>
<rect x="550" y="190" width="70" height="40" rx="4" fill="rgba(61,214,140,.2)"/><text x="585" y="215" text-anchor="middle" fill="#3dd68c" font-size="18">&#10003;</text>
<rect x="620" y="190" width="70" height="40" rx="4" fill="rgba(255,71,87,.1)"/><text x="655" y="215" text-anchor="middle" fill="rgba(255,71,87,.5)" font-size="18">&#10007;</text>

<!-- Viewer row -->
<rect x="10" y="240" width="120" height="40" rx="4" fill="rgba(46,213,115,.2)"/><text x="70" y="265" text-anchor="middle" fill="#2ed573" font-size="12" font-weight="600">c3i-viewer</text>
<rect x="130" y="240" width="70" height="40" rx="4" fill="rgba(255,71,87,.1)"/><text x="165" y="265" text-anchor="middle" fill="rgba(255,71,87,.5)" font-size="18">&#10007;</text>
<rect x="200" y="240" width="70" height="40" rx="4" fill="rgba(255,71,87,.1)"/><text x="235" y="265" text-anchor="middle" fill="rgba(255,71,87,.5)" font-size="18">&#10007;</text>
<rect x="270" y="240" width="70" height="40" rx="4" fill="rgba(255,71,87,.1)"/><text x="305" y="265" text-anchor="middle" fill="rgba(255,71,87,.5)" font-size="18">&#10007;</text>
<rect x="340" y="240" width="70" height="40" rx="4" fill="rgba(255,71,87,.1)"/><text x="375" y="265" text-anchor="middle" fill="rgba(255,71,87,.5)" font-size="18">&#10007;</text>
<rect x="410" y="240" width="70" height="40" rx="4" fill="rgba(61,214,140,.2)"/><text x="445" y="265" text-anchor="middle" fill="#3dd68c" font-size="18">&#10003;</text>
<rect x="480" y="240" width="70" height="40" rx="4" fill="rgba(61,214,140,.2)"/><text x="515" y="265" text-anchor="middle" fill="#3dd68c" font-size="18">&#10003;</text>
<rect x="550" y="240" width="70" height="40" rx="4" fill="rgba(61,214,140,.2)"/><text x="585" y="265" text-anchor="middle" fill="#3dd68c" font-size="18">&#10003;</text>
<rect x="620" y="240" width="70" height="40" rx="4" fill="rgba(61,214,140,.2)"/><text x="655" y="265" text-anchor="middle" fill="#3dd68c" font-size="18">&#10003;</text>

<!-- Legend -->
<rect x="130" y="300" width="20" height="20" rx="3" fill="rgba(61,214,140,.2)"/><text x="160" y="315" fill="#7a8fa6" font-size="10">Access Allowed</text>
<rect x="280" y="300" width="20" height="20" rx="3" fill="rgba(255,71,87,.1)"/><text x="310" y="315" fill="#7a8fa6" font-size="10">Access Denied</text>
<rect x="430" y="300" width="20" height="20" rx="3" fill="rgba(255,165,2,.25)"/><text x="460" y="315" fill="#7a8fa6" font-size="10">MFA Required</text>
</svg>
