<svg xmlns="http://www.w3.org/2000/svg" width="125.89809" height="140.5162" viewBox="0 0 125.89809 140.5162"><rect x="0" y="0" width="125.89809" height="140.5162" fill="#FFFFFF"/><defs><marker id="arrow-0" viewBox="0 0 10 10" refX="5" refY="5" markerUnits="userSpaceOnUse" markerWidth="8" markerHeight="8" orient="auto"><path d="M 0 0 L 10 5 L 0 10 z" fill="#64748B" stroke="#64748B" stroke-width="1" stroke-dasharray="1,0"/></marker><marker id="arrow-start-0" viewBox="0 0 10 10" refX="4.5" refY="5" markerUnits="userSpaceOnUse" markerWidth="8" markerHeight="8" orient="auto"><path d="M 0 5 L 10 10 L 10 0 z" fill="#64748B" stroke="#64748B" stroke-width="1" stroke-dasharray="1,0"/></marker><marker id="arrow-state-0" viewBox="0 0 20 14" refX="19" refY="7" markerUnits="userSpaceOnUse" markerWidth="20" markerHeight="14" orient="auto"><path d="M 19 7 L 9 13 L 14 7 L 9 1 Z" fill="#64748B" stroke="#64748B" stroke-width="1" stroke-dasharray="1,0"/></marker></defs><path id="edge-0" class="edgePath" data-edge-id="edge-0" d="M 49.295,49.160 L 49.295,59.148 L 49.295,81.368 L 49.295,91.356" fill="none" stroke="#64748B" stroke-width="1" marker-end="url(#arrow-state-0)"   stroke-linecap="round" stroke-linejoin="round" /><rect data-edge-id="edge-0" data-label-kind="center" x="26.60" y="58.46" width="45.39" height="23.60" rx="2" ry="2" fill="#FFFFFF" fill-opacity="0.70" stroke="#94A3B8" stroke-opacity="0.25" stroke-width="0.8"/><g class="edgeLabel" data-edge-id="edge-0" data-label-kind="center"><text x="49.30" y="73.23" text-anchor="middle" font-family="Inter,ui-sans-serif,system-ui,-apple-system,Segoe UI,sans-serif" font-size="11.900001" fill="#0F172A"><tspan x="49.30" dy="0.00">Start</tspan></text></g><path id="edge-1" class="edgePath" data-edge-id="edge-1" d="M 90.590,111.936 L 100.579,111.936 L 117.898,111.936 L 117.898,28.580 L 90.983,28.580 L 80.994,28.580" fill="none" stroke="#64748B" stroke-width="1" marker-end="url(#arrow-state-0)"   stroke-linecap="round" stroke-linejoin="round" /><rect data-edge-id="edge-1" data-label-kind="center" x="85.61" y="53.66" width="37.51" height="23.60" rx="2" ry="2" fill="#FFFFFF" fill-opacity="0.70" stroke="#94A3B8" stroke-opacity="0.25" stroke-width="0.8"/><g class="edgeLabel" data-edge-id="edge-1" data-label-kind="center"><text x="104.36" y="68.44" text-anchor="middle" font-family="Inter,ui-sans-serif,system-ui,-apple-system,Segoe UI,sans-serif" font-size="11.900001" fill="#0F172A"><tspan x="104.36" dy="0.00">Stop</tspan></text></g><rect x="8.00" y="91.36" width="82.59" height="41.16" rx="10" ry="10" fill="#F8FAFC" stroke="#94A3B8" stroke-width="1" stroke-linejoin="round" stroke-linecap="round"/><text x="49.30" y="114.91" text-anchor="middle" font-family="Inter,ui-sans-serif,system-ui,-apple-system,Segoe UI,sans-serif" font-size="11.900001" fill="#0F172A"><tspan x="49.30" dy="0.00">ACTIVE</tspan></text><rect x="17.60" y="8.00" width="63.40" height="41.16" rx="10" ry="10" fill="#F8FAFC" stroke="#94A3B8" stroke-width="1" stroke-linejoin="round" stroke-linecap="round"/><text x="49.30" y="31.56" text-anchor="middle" font-family="Inter,ui-sans-serif,system-ui,-apple-system,Segoe UI,sans-serif" font-size="11.900001" fill="#0F172A"><tspan x="49.30" dy="0.00">IDLE</tspan></text></svg>