<svg xmlns="http://www.w3.org/2000/svg" width="85.926" height="229.25766" viewBox="0 0 85.926 229.25766"><rect x="0" y="0" width="85.926" height="229.25766" fill="#FFFFFF"/><defs><marker id="arrow-0" viewBox="0 0 10 10" refX="5" refY="5" markerUnits="userSpaceOnUse" markerWidth="8" markerHeight="8" orient="auto"><path d="M 0 0 L 10 5 L 0 10 z" fill="#64748B" stroke="#64748B" stroke-width="1" stroke-dasharray="1,0"/></marker><marker id="arrow-start-0" viewBox="0 0 10 10" refX="4.5" refY="5" markerUnits="userSpaceOnUse" markerWidth="8" markerHeight="8" orient="auto"><path d="M 0 5 L 10 10 L 10 0 z" fill="#64748B" stroke="#64748B" stroke-width="1" stroke-dasharray="1,0"/></marker></defs><path id="edge-0" class="edgePath" data-edge-id="edge-0" d="M 42.953,59.000 L 42.953,89.129" fill="none" stroke="#64748B" stroke-width="2"    stroke-linecap="round" stroke-linejoin="round" /><path id="edge-1" class="edgePath" data-edge-id="edge-1" d="M 42.960,140.129 L 42.960,170.258" fill="none" stroke="#64748B" stroke-width="2"    stroke-linecap="round" stroke-linejoin="round" /><rect x="8.29" y="8.00" width="69.32" height="51.00" rx="3" ry="3" fill="#F8FAFC" stroke="#94A3B8" stroke-width="1" stroke-linejoin="round" stroke-linecap="round"/><text x="42.95" y="37.00" text-anchor="middle" font-family="Inter,ui-sans-serif,system-ui,-apple-system,Segoe UI,sans-serif" font-size="14" fill="#0F172A"><tspan x="42.95" dy="0.00">A</tspan></text><rect x="8.31" y="89.13" width="69.30" height="51.00" rx="3" ry="3" fill="#F8FAFC" stroke="#94A3B8" stroke-width="1" stroke-linejoin="round" stroke-linecap="round"/><text x="42.96" y="118.13" text-anchor="middle" font-family="Inter,ui-sans-serif,system-ui,-apple-system,Segoe UI,sans-serif" font-size="14" fill="#0F172A"><tspan x="42.96" dy="0.00">B</tspan></text><rect x="8.00" y="170.26" width="69.93" height="51.00" rx="3" ry="3" fill="#F8FAFC" stroke="#94A3B8" stroke-width="1" stroke-linejoin="round" stroke-linecap="round"/><text x="42.96" y="199.26" text-anchor="middle" font-family="Inter,ui-sans-serif,system-ui,-apple-system,Segoe UI,sans-serif" font-size="14" fill="#0F172A"><tspan x="42.96" dy="0.00">C</tspan></text><g transform="translate(42.95 89.13) rotate(90.00)"><polygon points="0,0 -10.40,6.24 -10.40,-6.24" fill="#64748B" stroke="#64748B" stroke-width="2" stroke-linejoin="round" stroke-linecap="round"/></g><g transform="translate(42.96 170.26) rotate(90.00)"><polygon points="0,0 -10.40,6.24 -10.40,-6.24" fill="#64748B" stroke="#64748B" stroke-width="2" stroke-linejoin="round" stroke-linecap="round"/></g></svg>